<svg width="245" height="28" viewBox="0 0 245 28" fill="none" xmlns="http://www.w3.org/2000/svg">
    <path d="M0 14C0 6.26801 6.26801 0 14 0H230.937C238.669 0 244.937 6.26801 244.937 14C244.937 21.732 238.669 28 230.937 28H14C6.26802 28 0 21.732 0 14Z" fill="black" fill-opacity="0.16"/>
    <path d="M100.397 17.1988L101.405 16.8488C101.503 17.6188 102.077 18.2068 103.085 18.2068C103.883 18.2068 104.387 17.7588 104.387 17.1848C104.387 16.6808 103.981 16.3448 103.365 16.2048L102.273 15.9528C101.251 15.7148 100.607 15.0568 100.607 14.0908C100.607 12.9708 101.671 12.0608 102.945 12.0608C104.681 12.0608 105.283 13.1668 105.437 13.8528L104.443 14.2168C104.359 13.7548 104.009 13.0128 102.945 13.0128C102.245 13.0128 101.699 13.4608 101.699 14.0208C101.699 14.4968 101.993 14.7908 102.581 14.9308L103.673 15.1828C104.849 15.4488 105.493 16.1348 105.493 17.1288C105.493 18.0948 104.667 19.1588 103.071 19.1588C101.307 19.1588 100.509 18.0388 100.397 17.1988Z" fill="white"/>
    <path d="M97.6974 18.0528C97.3754 18.7388 96.5634 19.1588 95.6814 19.1588C94.0574 19.1588 93.1614 17.9548 93.1614 16.4708V12.2568H94.2814V16.2888C94.2814 17.2688 94.7434 18.1508 95.9334 18.1508C97.0394 18.1508 97.6414 17.3668 97.6414 16.3028V12.2568H98.7614V17.7028C98.7614 18.2208 98.8034 18.6968 98.8454 18.9628H97.7674C97.7254 18.8088 97.6974 18.4448 97.6974 18.1088V18.0528Z" fill="white"/>
    <path d="M86.6818 15.0148V18.9628H85.5618V12.2568H86.6538V13.2648C87.0878 12.4808 87.8718 12.0608 88.7538 12.0608C90.3638 12.0608 91.1478 13.2088 91.1478 14.6648V18.9628H90.0278V14.8328C90.0278 13.8528 89.5798 13.0688 88.3618 13.0688C87.2838 13.0688 86.6818 13.9648 86.6818 15.0148Z" fill="white"/>
    <path d="M80.4754 12.0608C82.4074 12.0608 83.8354 13.5448 83.8354 15.6028C83.8354 17.6748 82.4074 19.1588 80.4754 19.1588C78.5434 19.1588 77.1154 17.6748 77.1154 15.6028C77.1154 13.5448 78.5434 12.0608 80.4754 12.0608ZM80.4754 13.0688C79.2714 13.0688 78.2354 13.9788 78.2354 15.6028C78.2354 17.2408 79.2714 18.1508 80.4754 18.1508C81.6794 18.1508 82.7154 17.2408 82.7154 15.6028C82.7154 13.9788 81.6794 13.0688 80.4754 13.0688Z" fill="white"/>
    <path d="M70.4663 18.9628H69.3743V8.84082H70.4943V13.3488C70.8023 12.7188 71.5863 12.0608 72.7903 12.0608C74.7783 12.0608 75.8423 13.6428 75.8423 15.6028C75.8423 17.6048 74.7083 19.1588 72.7623 19.1588C71.6423 19.1588 70.8583 18.5848 70.4663 17.8568V18.9628ZM72.5943 18.1508C73.8823 18.1508 74.7223 17.0868 74.7223 15.6028C74.7223 14.1188 73.8963 13.0688 72.5943 13.0688C71.2923 13.0688 70.4663 14.1188 70.4663 15.6028C70.4663 17.0868 71.3063 18.1508 72.5943 18.1508Z" fill="white"/>
    <path d="M64.4379 12.2568L61.5819 15.0988L64.5079 18.9628H63.0939L60.7979 15.8688L59.7619 16.9328V18.9628H58.6419V8.84082H59.7619V15.4488L62.8979 12.2568H64.4379Z" fill="white"/>
    <path d="M57.318 12.2148V13.4048C57.136 13.3488 56.926 13.3348 56.73 13.3348C55.61 13.3348 54.84 13.9788 54.84 15.4908V18.9628H53.72V12.2568H54.812V13.4608C55.246 12.4808 56.1 12.1588 56.842 12.1588C57.024 12.1588 57.22 12.1868 57.318 12.2148Z" fill="white"/>
    <path d="M48.6336 12.0608C50.5656 12.0608 51.9936 13.5448 51.9936 15.6028C51.9936 17.6748 50.5656 19.1588 48.6336 19.1588C46.7016 19.1588 45.2736 17.6748 45.2736 15.6028C45.2736 13.5448 46.7016 12.0608 48.6336 12.0608ZM48.6336 13.0688C47.4296 13.0688 46.3936 13.9788 46.3936 15.6028C46.3936 17.2408 47.4296 18.1508 48.6336 18.1508C49.8376 18.1508 50.8736 17.2408 50.8736 15.6028C50.8736 13.9788 49.8376 13.0688 48.6336 13.0688Z" fill="white"/>
    <path d="M38.583 12.2568H39.745L41.607 17.5628L43.203 12.2568H44.393L42.209 18.9628H41.033L39.157 13.6148L37.309 18.9628H36.119L33.893 12.2568H35.097L36.735 17.5628L38.583 12.2568Z" fill="white"/>
    <path d="M31.4729 10.1288V12.2568H33.0549V13.2648H31.4729V16.9748C31.4729 17.6748 31.7809 18.0248 32.4949 18.0248C32.6909 18.0248 32.9429 17.9828 33.0549 17.9548V18.9068C32.9289 18.9488 32.6069 19.0328 32.1729 19.0328C31.0669 19.0328 30.3529 18.3468 30.3529 17.1288V13.2648H29.0089V12.2568H29.4429C30.1289 12.2568 30.4229 11.8648 30.4229 11.2348V10.1288H31.4729Z" fill="white"/>
    <path d="M23.057 14.9588H27.061C27.033 13.8948 26.347 13.0548 25.073 13.0548C23.911 13.0548 23.127 13.9648 23.057 14.9588ZM27.215 16.7088L28.181 17.0588C27.803 18.2208 26.753 19.1588 25.199 19.1588C23.407 19.1588 21.881 17.8428 21.881 15.5888C21.881 13.4748 23.365 12.0608 25.059 12.0608C27.089 12.0608 28.223 13.4748 28.223 15.5188C28.223 15.6588 28.209 15.8128 28.195 15.9108H23.029V15.9668C23.029 17.2408 23.995 18.1508 25.199 18.1508C26.333 18.1508 26.949 17.5068 27.215 16.7088Z" fill="white"/>
    <path d="M20.036 18.9628H18.804L13.176 10.5628V18.9628H12V9.03682H13.54L18.86 16.9888V9.03682H20.036V18.9628Z" fill="white"/>
    <path d="M113.493 6H121.57L128.493 14L121.57 22H113.493L120.416 14L113.493 6Z" fill="white"/>
    <path d="M123.493 6H131.57L138.493 14L131.57 22H123.493L130.416 14L123.493 6Z" fill="white"/>
    <path d="M133.493 6H141.57L148.493 14L141.57 22H133.493L140.416 14L133.493 6Z" fill="white"/>
    <path d="M143.493 6H151.57L158.493 14L151.57 22H143.493L150.416 14L143.493 6Z" fill="white"/>
    <path d="M153.493 6H161.57L168.493 14L161.57 22H153.493L160.416 14L153.493 6Z" fill="white"/>
    <path d="M163.493 6H171.57L178.493 14L171.57 22H163.493L170.416 14L163.493 6Z" fill="white"/>
    <path d="M173.493 6H181.57L188.493 14L181.57 22H173.493L180.416 14L173.493 6Z" fill="white"/>
    <path d="M183.493 6H191.57L198.493 14L191.57 22H183.493L190.416 14L183.493 6Z" fill="black" fill-opacity="0.1"/>
    <path d="M215.593 22.0002L212.937 18.9443L210.353 22.0002H206.413L210.852 16.6572L206.271 11.3335H210.531L213.062 14.3125L215.504 11.3335H219.336L215.076 16.5803L219.604 22.0002H215.593Z" fill="white"/>
    <path d="M218.715 6H232.937V9.35484C232.197 10.4086 230.908 12.2366 229.513 14.4516C227.442 17.7419 227.336 19.5054 227.336 21.4839V22H222.58V20.6022C222.58 18.2151 222.665 16.8172 225.518 13.5914C227.378 11.4839 229.09 9.74193 229.09 9.48387H223.005V11.3692H218.715V6Z" fill="white"/>
</svg>
