<svg xmlns="http://www.w3.org/2000/svg" width="38px" height="38px" viewBox="0 0 48 48" version="1.1">
    <g id="surface1">
        <path d="M 26.828125 26.679688 L 25.125 31.355469 C 25.074219 31.484375 25.074219 31.625 25.125 31.757812 L 28.054688 39.804688 L 31.453125 37.84375 L 27.378906 26.679688 C 27.285156 26.421875 26.921875 26.421875 26.828125 26.679688 Z M 26.828125 26.679688 " fill="black"/>
        <path d="M 30.25 18.8125 C 30.15625 18.554688 29.792969 18.554688 29.699219 18.8125 L 27.992188 23.488281 C 27.945312 23.617188 27.945312 23.757812 27.992188 23.890625 L 32.796875 37.066406 L 36.191406 35.105469 Z M 30.25 18.8125 " fill="black"/>
        <path d="M 24.214844 8.574219 C 24.300781 8.574219 24.382812 8.59375 24.460938 8.636719 L 37.402344 16.109375 C 37.550781 16.195312 37.644531 16.359375 37.644531 16.53125 L 37.644531 31.46875 C 37.644531 31.640625 37.550781 31.804688 37.402344 31.890625 L 24.460938 39.363281 C 24.386719 39.40625 24.300781 39.425781 24.214844 39.425781 C 24.128906 39.425781 24.050781 39.40625 23.972656 39.363281 L 11.035156 31.894531 C 10.886719 31.808594 10.792969 31.644531 10.792969 31.472656 L 10.792969 16.53125 C 10.792969 16.359375 10.886719 16.195312 11.035156 16.109375 L 23.976562 8.636719 C 24.050781 8.59375 24.132812 8.574219 24.214844 8.574219 Z M 24.214844 6.390625 C 23.753906 6.390625 23.296875 6.507812 22.878906 6.746094 L 9.945312 14.21875 C 9.117188 14.691406 8.605469 15.574219 8.605469 16.53125 L 8.605469 31.46875 C 8.605469 32.425781 9.117188 33.300781 9.945312 33.78125 L 22.882812 41.253906 C 23.296875 41.496094 23.757812 41.609375 24.21875 41.609375 C 24.683594 41.609375 25.140625 41.492188 25.554688 41.253906 L 38.496094 33.78125 C 39.324219 33.308594 39.832031 32.425781 39.832031 31.46875 L 39.832031 16.53125 C 39.832031 15.574219 39.324219 14.699219 38.496094 14.21875 L 25.550781 6.746094 C 25.140625 6.507812 24.679688 6.390625 24.214844 6.390625 Z M 24.214844 6.390625 " fill="black"/>
        <path d="M 23.128906 15.460938 L 19.847656 15.460938 C 19.601562 15.460938 19.378906 15.613281 19.296875 15.84375 L 12.265625 35.121094 L 15.660156 37.085938 L 23.402344 15.851562 C 23.476562 15.660156 23.332031 15.460938 23.128906 15.460938 Z M 23.128906 15.460938 " fill="black"/>
        <path d="M 28.867188 15.460938 L 25.585938 15.460938 C 25.339844 15.460938 25.117188 15.613281 25.03125 15.84375 L 17.003906 37.859375 L 20.398438 39.820312 L 29.144531 15.851562 C 29.210938 15.660156 29.070312 15.460938 28.867188 15.460938 Z M 28.867188 15.460938 " fill="black"/>
    </g>
</svg>
