<svg width="120" height="120" viewBox="0 0 120 120" fill="none" xmlns="http://www.w3.org/2000/svg">
  <path d="M86.4604 51.4515C87.6547 43.4668 81.5751 39.1747 73.2615 36.3115L75.9585 25.4955L69.3738 23.8549L66.7484 34.3861C65.0173 33.9544 63.2395 33.5477 61.4726 33.1444L64.1171 22.5437L57.5364 20.9031L54.838 31.7156C53.4055 31.3895 51.9985 31.0672 50.6334 30.7275L50.6411 30.6935L41.5606 28.4262L39.8089 35.4584C39.8089 35.4584 44.6943 36.5781 44.5913 36.647C47.2578 37.3124 47.74 39.0774 47.6599 40.4763L44.5878 52.7982C44.7714 52.8449 45.0096 52.9123 45.2724 53.0179C45.0527 52.9633 44.8189 52.9038 44.5764 52.8457L40.2703 70.107C39.9444 70.917 39.1173 72.1327 37.253 71.671C37.319 71.7666 32.4671 70.4768 32.4671 70.4768L29.1979 78.0134L37.7669 80.1493C39.361 80.549 40.9232 80.9673 42.4616 81.3605L39.7368 92.3006L46.3139 93.9411L49.0123 83.1173C50.8091 83.605 52.5529 84.0549 54.2599 84.4789L51.5706 95.2518L58.1556 96.8924L60.8801 85.9729C72.1086 88.0976 80.5514 87.241 84.1051 77.0861C86.9687 68.9101 83.9626 64.1943 78.0554 61.119C82.3579 60.1269 85.5987 57.2974 86.4627 51.4524L86.4607 51.4509L86.4604 51.4515ZM71.4158 72.5456C69.3808 80.7215 55.6135 76.3018 51.15 75.1936L54.7659 60.6999C59.2291 61.8141 73.5425 64.0189 71.4161 72.5456H71.4158ZM73.4522 51.333C71.5959 58.7699 60.1372 54.9916 56.4201 54.0652L59.6984 40.9203C63.4155 41.8468 75.386 43.5759 73.4528 51.333H73.4522Z" fill="white"/>
</svg>
