<svg width="48" height="48" viewBox="0 0 48 48" fill="none" xmlns="http://www.w3.org/2000/svg">
    <path d="M32.2273 16.3999C30.4384 16.3999 28.4883 17.2977 26.4272 19.0661C25.4494 19.904 24.6049 20.8018 23.9717 21.52C23.9717 21.52 23.9717 21.52 23.9772 21.5255V21.52C23.9772 21.52 24.9772 22.5865 26.0828 23.7292C26.6772 23.0381 27.5328 22.0968 28.5161 21.248C30.3495 19.6755 31.5439 19.3436 32.2273 19.3436C34.7996 19.3436 36.8885 21.3405 36.8885 23.7944C36.8885 26.2321 34.7941 28.229 32.2273 28.2453C32.1106 28.2453 31.9606 28.229 31.7717 28.1909C32.5217 28.5065 33.3273 28.735 34.094 28.735C38.8051 28.735 39.7274 25.7261 39.7885 25.5084C39.9274 24.9588 39.9996 24.3821 39.9996 23.789C39.9996 19.719 36.5107 16.3999 32.2273 16.3999Z"
          fill="black"/>
    <path d="M15.7723 31.2C17.5612 31.2 19.5113 30.3021 21.5724 28.5338C22.5502 27.6958 23.3947 26.798 24.0279 26.0798C24.0279 26.0798 24.0279 26.0798 24.0224 26.0744V26.0798C24.0224 26.0798 23.0225 25.0133 21.9169 23.8707C21.3224 24.5617 20.4668 25.503 19.4835 26.3519C17.6501 27.9244 16.4557 28.2563 15.7723 28.2563C13.2001 28.2508 11.1112 26.2539 11.1112 23.8C11.1112 21.3623 13.2056 19.3654 15.7723 19.3491C15.889 19.3491 16.039 19.3654 16.2279 19.4035C15.4779 19.0879 14.6723 18.8594 13.9056 18.8594C9.19446 18.8594 8.27778 21.8683 8.21111 22.0805C8.07222 22.6356 8 23.2069 8 23.8C8 27.8808 11.4889 31.2 15.7723 31.2Z"
          fill="black"/>
    <path d="M34.0845 28.6697C31.6733 28.6099 29.1678 26.749 28.6566 26.2865C27.3345 25.0894 24.2843 21.8519 24.0455 21.5962C21.8121 19.1422 18.7843 16.3999 15.7731 16.3999H15.7676H15.762C12.1064 16.4162 9.03415 18.843 8.21191 22.0805C8.27303 21.8683 9.4786 18.7995 13.9009 18.9083C16.312 18.9681 18.8287 20.8562 19.3454 21.3187C20.6676 22.5158 23.7177 25.7533 23.9566 26.009C26.19 28.4575 29.2178 31.1999 32.2289 31.1999H32.2344H32.24C35.8956 31.1836 38.9734 28.7568 39.7901 25.5193C39.7235 25.7315 38.5123 28.7731 34.0845 28.6697Z"
          fill="#ADB5BD"/>
</svg>
