<?xml version="1.0" encoding="utf-8"?>
<svg x="128.848pt" y="45.5955pt" width="600.337pt" height="425.912pt" viewBox="128.848 45.5955 600.337 425.912" xmlns="http://www.w3.org/2000/svg" xmlns:xlink="http://www.w3.org/1999/xlink">
  <g id="Layer 1">
    <g id="Path">
      <path style="fill:#a9a9a9;fill-opacity:1;fill-rule:nonzero;opacity:1;stroke:none;" d="M424.114,66.2068 C424.114,66.2068,424.114,455.796,424.114,455.796"/>
      <path style="fill:#9f9f9f;fill-opacity:1;fill-rule:nonzero;opacity:1;stroke:none;" d="M422.614,78.4505 C422.614,79.1636,422.614,79.1636,422.614,82.5507 C422.614,87.1857,422.614,87.1857,422.614,94.1381 C422.614,111.252,422.614,111.252,422.614,135.496 C422.614,192.542,422.614,192.542,422.614,260.997 C422.614,329.452,422.614,329.452,422.614,386.498 C422.614,410.742,422.614,410.742,422.614,427.856 C422.614,434.809,422.614,434.809,422.614,439.444 C422.614,442.831,422.614,442.831,422.614,443.544 C422.614,444.372,423.286,445.044,424.114,445.044 C424.942,445.044,425.614,444.372,425.614,443.544 C425.614,442.831,425.614,442.831,425.614,439.444 C425.614,434.809,425.614,434.809,425.614,427.856 C425.614,410.742,425.614,410.742,425.614,386.498 C425.614,329.452,425.614,329.452,425.614,260.997 C425.614,192.542,425.614,192.542,425.614,135.496 C425.614,111.252,425.614,111.252,425.614,94.1381 C425.614,87.1857,425.614,87.1857,425.614,82.5507 C425.614,79.1636,425.614,79.1636,425.614,78.4505 C425.614,77.6221,424.942,76.9505,424.114,76.9505 C423.286,76.9505,422.614,77.6221,422.614,78.4505 z M431.614,79.2005 C431.614,79.2005,424.114,66.2102,424.114,66.2102 C424.114,66.2102,416.614,79.2005,416.614,79.2005 C416.614,79.2005,431.614,79.2005,431.614,79.2005 z M416.614,442.794 C416.614,442.794,424.114,455.784,424.114,455.784 C424.114,455.784,431.614,442.794,431.614,442.794 C431.614,442.794,416.614,442.794,416.614,442.794 z"/>
    </g>
    <g id="Path">
      <path style="fill:#aaaaaa;fill-opacity:1;fill-rule:nonzero;opacity:1;stroke:none;" d="M582.7,261.001 C582.7,261.001,265.528,261.001,265.528,261.001"/>
      <path style="fill:#9e9e9e;fill-opacity:1;fill-rule:nonzero;opacity:1;stroke:none;" d="M570.456,259.501 C569.884,259.501,569.884,259.501,567.169,259.501 C563.453,259.501,563.453,259.501,557.879,259.501 C544.159,259.501,544.159,259.501,524.722,259.501 C478.987,259.501,478.987,259.501,424.106,259.501 C369.225,259.501,369.225,259.501,323.49,259.501 C304.053,259.501,304.053,259.501,290.333,259.501 C284.759,259.501,284.759,259.501,281.043,259.501 C278.327,259.501,278.327,259.501,277.756,259.501 C276.927,259.501,276.256,260.173,276.256,261.001 C276.256,261.83,276.927,262.501,277.756,262.501 C278.327,262.501,278.327,262.501,281.043,262.501 C284.759,262.501,284.759,262.501,290.333,262.501 C304.053,262.501,304.053,262.501,323.49,262.501 C369.225,262.501,369.225,262.501,424.106,262.501 C478.987,262.501,478.987,262.501,524.722,262.501 C544.159,262.501,544.159,262.501,557.879,262.501 C563.453,262.501,563.453,262.501,567.169,262.501 C569.884,262.501,569.884,262.501,570.456,262.501 C571.285,262.501,571.956,261.83,571.956,261.001 C571.956,260.173,571.285,259.501,570.456,259.501 z M569.706,268.501 C569.706,268.501,582.696,261.001,582.696,261.001 C582.696,261.001,569.706,253.501,569.706,253.501 C569.706,253.501,569.706,268.501,569.706,268.501 z M278.506,253.501 C278.506,253.501,265.515,261.001,265.515,261.001 C265.515,261.001,278.506,268.501,278.506,268.501 C278.506,268.501,278.506,253.501,278.506,253.501 z"/>
    </g>
    <text id="Text" style="fill:#9f9f9f;font-family:Helvetica;font-size:18;font-weight:700;" transform="matrix(1,0,0,1,141.193,242.147)">
      <tspan x="0" y="17">Strong </tspan>
      <tspan x="62.9912" y="17" style="font-weight:400;">trust </tspan>
      <tspan x="0" y="38" style="font-weight:400;">assumptions</tspan>
    </text>
    <text id="Text Copy" style="fill:#9f9f9f;font-family:Helvetica;font-size:18;font-weight:700;" transform="matrix(1,0,0,1,442.211,66.2068)">
      <tspan x="0" y="17">Low
</tspan>
      <tspan x="0" y="38" style="font-weight:400;">entry barrier</tspan>
    </text>
    <text id="Text Copy 1" style="fill:#662c91;font-family:Helvetica;font-size:18;" transform="matrix(1,0,0,1,269.019,111.923)">
      <tspan x="0" y="17">Custodial web-</tspan>
      <tspan x="0" y="38">based wallets</tspan>
    </text>
    <text id="Text Copy 1" style="fill:#9f9f9f;font-family:Helvetica;font-size:18;font-weight:700;" transform="matrix(1,0,0,1,442.211,406.901)">
      <tspan x="0" y="17">High
</tspan>
      <tspan x="0" y="38" style="font-weight:400;">entry barrier</tspan>
    </text>
    <text id="Text Copy" style="fill:#9f9f9f;font-family:Helvetica;font-size:18;font-weight:700;" transform="matrix(1,0,0,1,599.259,238.102)">
      <tspan x="0" y="17">Weak </tspan>
      <tspan x="51.7061" y="17" style="font-weight:400;">trust </tspan>
      <tspan x="0" y="38" style="font-weight:400;">assumptions</tspan>
    </text>
    <path id="Path" style="fill:#662d91;fill-opacity:1;fill-rule:evenodd;opacity:1;stroke:none;" d="M255.997,96.5969 C261.261,96.5969,265.529,100.864,265.529,106.129 C265.529,111.393,261.261,115.66,255.997,115.66 C250.733,115.66,246.465,111.393,246.465,106.129 C246.465,100.864,250.733,96.5969,255.997,96.5969 z"/>
    <text id="Text Copy 2" style="fill:#ed257a;font-family:Helvetica;font-size:18;" transform="matrix(1,0,0,1,532.188,139.547)">
      <tspan x="0" y="17">Oisy Wallet</tspan>
    </text>
    <path id="Path Copy" style="fill:#ee257b;fill-opacity:1;fill-rule:evenodd;opacity:1;stroke:none;" d="M519.165,124.221 C524.429,124.221,528.697,128.488,528.697,133.753 C528.697,139.017,524.429,143.284,519.165,143.284 C513.901,143.284,509.633,139.017,509.633,133.753 C509.633,128.488,513.901,124.221,519.165,124.221 z"/>
    <text id="Text Copy 2" style="fill:#0071ba;font-family:Helvetica;font-size:18;" transform="matrix(1,0,0,1,599.523,368.541)">
      <tspan x="0" y="17">Non-custodial </tspan>
      <tspan x="0" y="38">wallets</tspan>
    </text>
    <path id="Path Copy" style="fill:#0071bb;fill-opacity:1;fill-rule:evenodd;opacity:1;stroke:none;" d="M584.023,359.009 C589.287,359.009,593.555,363.276,593.555,368.541 C593.555,373.805,589.287,378.072,584.023,378.072 C578.759,378.072,574.491,373.805,574.491,368.541 C574.491,363.276,578.759,359.009,584.023,359.009 z"/>
  </g>
</svg>
