<svg width="46" height="46" viewBox="0 0 512 512" fill="none" xmlns="http://www.w3.org/2000/svg">
<mask id="mask0" mask-type="alpha" maskUnits="userSpaceOnUse" x="0" y="0" width="512" height="512">
<rect width="512" height="512" fill="#C4C4C4"/>
</mask>
<g mask="url(#mask0)">
<path d="M256 488.711C384.532 488.711 488.727 384.515 488.727 255.984C488.727 127.452 384.532 23.2562 256 23.2562C127.468 23.2562 23.2727 127.452 23.2727 255.984C23.2727 384.515 127.468 488.711 256 488.711Z" fill="#ECF3FF"/>
<path d="M193.164 114.036L111.709 81.4545V93.0909L181.527 155.927L176.873 221.091L155.927 309.527L128 349.091L134.982 404.945L169.891 409.6L197.818 404.945L225.745 409.6L274.618 379.345L283.927 330.473L342.109 274.618L367.709 293.236L393.309 330.473V404.945L428.218 395.636L463.127 318.836L472.436 221.091L346.764 37.2363L325.818 32.5818L193.164 114.036Z" fill="white"/>
<path d="M69.8182 248.536C70.7491 240.624 71.2145 232.711 73.5418 225.264C80.0582 194.544 92.6254 165.22 111.244 141.482C114.502 137.293 117.295 133.569 121.018 129.845L100.073 110.296C96.3491 115.882 92.6254 121.467 89.3672 127.053C72.1454 156.842 62.8363 190.354 60.5091 223.402C59.5782 231.78 60.0436 240.158 60.0436 248.071C60.0436 256.449 60.9745 264.362 62.3709 272.74C64.6982 289.031 68.8872 304.856 74.4727 319.751C70.7491 303.925 68.8872 288.1 68.4218 271.809C68.4218 264.362 68.4218 256.449 69.8182 248.536Z" fill="#94A6C4"/>
<path d="M165.236 97.7454C153.6 92.16 137.309 84.7127 125.673 79.1272C136.378 68.8872 155.927 58.1818 172.218 51.2C160.582 60.509 160.582 80.0581 165.236 97.7454Z" fill="#94A6C4"/>
<path d="M118.225 176.856C111.709 193.147 107.52 210.369 106.124 227.125C105.658 231.314 105.193 235.504 105.658 239.693C105.658 243.882 105.658 248.071 106.124 252.26L106.589 258.776C106.589 260.638 107.055 262.965 107.52 264.827L109.382 277.394L109.847 264.827C109.847 262.965 109.847 260.638 110.313 258.776L111.244 252.725C111.709 248.536 112.64 244.347 113.105 240.624C113.571 236.434 114.967 232.711 115.898 228.987C120.087 213.162 127.069 198.733 135.447 185.234C141.033 176.391 147.549 168.478 154.531 161.031L136.378 143.809C128.465 154.514 122.88 165.22 118.225 176.856Z" fill="#94A6C4"/>
<path d="M387.724 97.2637C363.055 88.4201 353.28 91.2128 353.28 91.2128C353.28 91.2128 337.92 132.638 279.273 135.431C279.738 135.896 332.335 166.616 387.724 97.2637Z" fill="#94A6C4"/>
<path d="M404.48 179.649C402.153 230.849 362.589 249.933 331.869 246.209C315.113 243.882 290.444 251.795 290.444 251.795L259.258 305.787L249.018 309.511L266.705 276.929C266.705 276.929 224.814 292.289 221.556 293.686C218.298 295.082 205.265 314.166 194.56 334.18C192.233 320.216 183.389 310.442 183.389 309.976C183.389 312.304 188.044 354.195 182.924 365.831C177.804 377.933 154.996 385.846 154.996 385.846L188.509 398.413L190.836 399.344L215.971 375.606L225.28 340.231L236.916 331.853C236.916 331.853 265.774 328.595 261.585 354.66C259.724 367.227 245.76 366.296 229.934 376.071C220.625 381.656 208.524 390.5 202.473 396.551L219.229 408.653C219.229 408.653 239.244 405.395 267.636 383.053C296.494 359.78 282.065 334.646 282.065 334.646L329.076 278.326L359.796 280.653C359.796 280.653 412.858 294.151 430.08 344.42C464.524 248.071 409.135 184.304 404.48 179.649Z" fill="#94A6C4"/>
<path d="M458.473 139.636C466.851 143.36 473.367 148.929 479.418 154.049C437.527 8.82729 301.615 25.1182 298.822 26.0491C302.08 20.9291 314.182 13.0164 325.353 8.82729C325.353 8.82729 267.636 -11.6527 215.04 24.6527C215.971 16.2746 226.211 3.70729 226.211 3.70729C153.6 34.9091 148.945 72.1454 162.909 94.4709C151.273 88.8855 139.636 83.7655 128 78.18C92.16 60.9582 61.44 46.5291 59.5782 46.0637C56.32 45.1327 54.9236 46.5291 54.9236 46.5291C54.9236 46.5291 53.5273 47.9255 56.32 50.7182C98.6763 93.0746 125.673 118.691 170.822 160.1C163.375 176.856 162.444 185.235 166.167 194.078C171.287 206.18 170.822 212.231 168.96 220.144C166.633 228.056 148.015 298.34 144.756 306.253C141.498 314.631 116.829 342.558 116.364 351.867C115.898 361.176 123.345 402.136 133.585 408.187C141.498 412.376 160.582 421.22 174.545 423.082C179.2 424.013 183.855 423.547 186.182 421.686C195.491 415.635 197.818 414.704 203.869 415.169L205.265 415.635C207.593 416.1 210.385 417.031 214.109 417.496C222.022 418.427 232.262 418.427 240.64 412.842C252.742 403.533 273.222 391.896 280.204 385.845C288.582 377.467 294.167 365.831 294.167 352.798C294.167 341.162 302.08 331.853 310.924 322.544C319.302 314.165 340.247 293.685 348.625 284.842C370.036 292.289 377.949 323.009 377.949 339.766C377.949 386.311 340.247 454.267 253.673 459.387C250.415 459.387 247.156 459.853 243.433 459.853C130.793 459.853 38.6327 360.245 38.6327 243.416C38.6327 151.256 94.0067 88.8488 94.4722 88.3834C49.7885 130.74 23.2727 189.889 23.2727 255.984C23.2727 384.449 127.535 488.727 256 488.727C384.465 488.727 488.727 384.449 488.727 255.984C488.727 214.093 478.022 173.615 458.473 139.636ZM140.567 109.831C134.051 104.245 127.535 98.66 121.018 93.0746C129.862 97.7291 138.705 102.384 146.618 106.573C170.822 119.14 190.836 130.311 194.56 133.104C194.56 133.104 195.025 133.569 195.491 134.035C197.818 136.827 200.145 141.482 195.956 147.533C193.629 150.791 190.836 149.86 186.647 147.067C182.924 144.74 162.909 128.915 140.567 109.831ZM276.015 351.867C276.015 359.78 272.291 366.762 267.636 371.882C265.309 374.209 256 380.26 249.484 384.449C242.967 389.104 235.985 393.293 230.4 397.482C228.073 398.878 224.349 399.809 218.298 398.878L203.869 397.016C212.713 388.173 236.916 369.089 244.829 365.366C254.138 360.711 259.724 355.591 255.535 344.885C251.811 333.715 237.382 334.18 237.382 334.18C237.382 334.18 246.225 331.853 253.207 332.784C244.364 329.06 232.262 329.991 226.211 334.18C219.695 338.835 217.833 357.918 213.644 369.555C209.455 381.656 200.145 386.776 186.182 396.551C178.269 401.671 173.149 403.067 169.425 402.602C161.513 400.275 152.204 396.085 145.687 392.827C141.964 385.845 137.309 363.969 136.844 355.125C138.705 350.471 146.153 341.162 149.876 335.576C157.324 325.336 161.513 319.285 163.375 313.7C166.633 305.787 180.131 255.984 185.251 235.038C190.371 243.882 197.353 258.776 194.095 267.155C210.851 249.467 203.404 228.522 199.68 220.144C196.422 211.765 192.698 195.475 200.145 179.649C207.127 163.824 231.331 121.002 231.331 121.002C231.331 121.002 235.52 132.173 244.364 131.242C252.742 130.311 333.265 40.0127 333.265 40.0127C333.265 40.0127 345.833 81.9037 322.56 107.504C299.287 133.104 279.738 135.896 279.738 135.896C279.738 135.896 305.804 144.275 332.8 130.311C339.782 155.445 345.833 181.511 345.833 184.769C343.971 188.027 317.905 231.78 315.578 234.573C314.647 235.504 307.2 236.435 302.545 236.435C294.167 237.831 289.047 238.296 286.72 239.693C282.996 242.02 261.585 282.515 251.345 302.064C242.036 303.46 232.727 306.718 225.28 315.562C229.004 313.7 239.709 313.7 247.622 313.7C254.604 314.165 273.687 328.129 276.015 350.005C276.015 351.402 276.015 351.402 276.015 351.867ZM221.556 371.416C226.676 365.831 227.607 355.125 228.538 351.867C229.469 348.609 231.331 342.558 235.52 342.093C239.709 341.627 248.553 344.42 247.622 351.402C246.691 357.918 239.709 358.384 234.124 361.642C230.4 363.969 222.487 370.485 221.556 371.416ZM424.029 377.467C418.444 317.889 377.484 289.962 359.331 280.653C380.276 278.325 434.269 262.035 404.48 179.649C405.411 183.373 413.789 224.333 390.051 245.744C365.847 267.62 330.473 258.311 326.284 258.311C322.56 257.845 304.873 275.067 280.669 308.115C278.342 306.718 268.567 302.995 256.465 303.46C268.567 280.653 286.72 248.071 289.513 245.278C290.444 244.347 298.356 243.416 303.011 242.951C312.32 242.02 316.975 241.089 318.836 239.227C319.767 237.831 326.284 227.591 332.8 216.42C336.989 216.885 348.16 217.816 349.556 217.351C350.487 216.42 363.055 194.078 363.52 191.285C363.985 189.424 355.142 154.515 349.556 132.173C464.524 186.631 482.676 306.718 424.029 377.467Z" fill="#1C324F"/>
<path d="M313.251 100.522C326.284 88.8855 324.422 68.8709 324.422 68.8709L285.324 112.158C284.858 112.158 296.96 114.485 313.251 100.522Z" fill="#1C324F"/>
<path d="M167.098 346.747L173.615 328.129C173.615 328.129 153.6 353.729 151.738 357.453C149.876 361.642 150.807 369.555 157.324 370.02C163.84 370.486 172.684 362.107 173.615 355.591C175.011 346.747 167.098 346.747 167.098 346.747Z" fill="#1C324F"/>
<path d="M228.538 234.107C242.502 232.711 267.636 221.54 278.342 212.696C289.047 203.387 287.185 182.907 270.429 176.856C276.015 167.547 285.324 147.998 285.324 147.998C285.324 147.998 225.28 218.282 220.625 219.213C215.971 220.144 214.109 202.456 214.109 202.456C200.145 236.435 223.884 244.813 228.538 234.107Z" fill="#1C324F"/>
<path d="M233.658 225.264L264.844 185.7C264.844 185.7 278.342 195.009 269.498 205.714C258.327 218.282 233.658 225.264 233.658 225.264Z" fill="#FFD925"/>
<path d="M316.509 48.8564L295.098 72.1291C277.876 77.2491 261.12 86.5582 245.294 101.918C245.294 93.0745 270.894 54.4418 316.509 48.8564Z" fill="#D82423"/>
<path d="M343.505 68.8709C343.971 62.82 343.505 55.8382 342.574 49.3218C370.502 53.0454 403.549 69.3364 441.251 106.107C410.065 88.8854 377.018 73.06 343.505 68.8709Z" fill="#D82423"/>
<path d="M351.884 99.1254C351.884 99.1254 455.68 144.74 474.764 272.74C477.556 106.107 359.331 97.7291 351.884 99.1254Z" fill="#D82423"/>
<path d="M200.611 25.5836C199.214 29.3073 140.567 92.1436 213.644 116.813C173.614 80.9727 200.145 26.0491 200.611 25.5836Z" fill="#D82423"/>
<path d="M231.796 107.038C231.796 107.038 237.847 35.8236 280.669 16.74C277.411 17.6709 190.371 44.2018 231.796 107.038Z" fill="#D82423"/>
</g>
</svg>
