<svg width="46" height="46" viewBox="0 0 512 512" fill="none" xmlns="http://www.w3.org/2000/svg"><g><path d="M256,464.666c110.457,0 200,-89.543 200,-200c0,-110.457 -89.543,-200 -200,-200c-110.457,-0 -200,89.543 -200,200c0,110.457 89.543,200 200,200Z" style="fill:#ecf3ff;fill-rule:nonzero;"/><path d="M202,142.68l-70,-28l-0,10l60,54l-4,56l-18,76l-24,34l6,48l30,4l24,-4l24,4l42,-26l8,-42l50,-48l22,16l22,32l0,64l30,-8l30,-66l8,-84l-108,-158l-18,-4l-114,70Z" style="fill:#fff;fill-rule:nonzero;"/><path d="M96,258.266c0.8,-6.8 1.2,-13.6 3.2,-20c5.6,-26.4 16.4,-51.6 32.4,-72c2.8,-3.6 5.2,-6.8 8.4,-10l-18,-16.8c-3.2,4.8 -6.4,9.6 -9.2,14.4c-14.8,25.6 -22.8,54.4 -24.8,82.8c-0.8,7.2 -0.4,14.4 -0.4,21.2c0,7.2 0.8,14 2,21.2c2,14 5.6,27.6 10.4,40.4c-3.2,-13.6 -4.8,-27.2 -5.2,-41.2c0,-6.4 0,-13.2 1.2,-20Z" style="fill:#94a6c4;fill-rule:nonzero;"/><path d="M178,128.68c-10,-4.8 -24,-11.2 -34,-16c9.2,-8.8 26,-18 40,-24c-10,8 -10,24.8 -6,40Z" style="fill:#94a6c4;fill-rule:nonzero;"/><path d="M137.6,196.666c-5.6,14 -9.2,28.8 -10.4,43.2c-0.4,3.6 -0.8,7.2 -0.4,10.8c-0,3.6 -0,7.2 0.4,10.8l0.4,5.6c-0,1.6 0.4,3.6 0.8,5.2l1.6,10.8l0.4,-10.8c-0,-1.6 -0,-3.6 0.4,-5.2l0.8,-5.2c0.4,-3.6 1.2,-7.2 1.6,-10.4c0.4,-3.6 1.6,-6.8 2.4,-10c3.6,-13.6 9.6,-26 16.8,-37.6c4.8,-7.6 10.4,-14.4 16.4,-20.8l-15.6,-14.8c-6.8,9.2 -11.6,18.4 -15.6,28.4Z" style="fill:#94a6c4;fill-rule:nonzero;"/><path d="M369.201,128.266c-21.2,-7.6 -29.601,-5.2 -29.601,-5.2c0,0 -13.2,35.6 -63.6,38c0.4,0.4 45.601,26.8 93.201,-32.8Z" style="fill:#94a6c4;fill-rule:nonzero;"/><path d="M383.6,199.066c-2,44 -36,60.4 -62.4,57.2c-14.4,-2 -35.6,4.801 -35.6,4.801l-26.8,46.399l-8.8,3.2l15.2,-28c-0,0 -36,13.2 -38.8,14.401c-2.8,1.199 -14,17.6 -23.2,34.799c-2,-12 -9.6,-20.4 -9.6,-20.8c0,2 4,38.001 -0.4,48c-4.4,10.4 -24,17.201 -24,17.201l28.8,10.799l2,0.801l21.6,-20.4l8,-30.401l10,-7.2c-0,0 24.8,-2.799 21.2,19.6c-1.6,10.8 -13.6,10 -27.2,18.4c-8,4.8 -18.4,12.4 -23.6,17.6l14.4,10.4c0,0 17.2,-2.799 41.6,-22c24.8,-20 12.4,-41.599 12.4,-41.599l40.4,-48.4l26.4,1.999c-0,0 45.6,11.6 60.4,54.8c29.601,-82.8 -17.999,-137.6 -22,-141.6Z" style="fill:#94a6c4;fill-rule:nonzero;"/><path d="M430,164.68c7.2,3.2 12.8,7.986 18,12.386c-36,-124.8 -152.799,-110.8 -155.2,-110c2.8,-4.4 13.2,-11.2 22.8,-14.8c0,0 -49.6,-17.6 -94.8,13.6c0.8,-7.2 9.6,-18 9.6,-18c-62.4,26.814 -66.4,58.814 -54.4,78c-10,-4.8 -20,-9.2 -30,-14c-30.8,-14.8 -57.2,-27.2 -58.8,-27.6c-2.8,-0.8 -4,0.4 -4,0.4c0,0 -1.2,1.2 1.2,3.6c36.4,36.4 59.6,58.414 98.4,94c-6.4,14.4 -7.2,21.6 -4,29.2c4.4,10.4 4,15.6 2.4,22.4c-2,6.8 -18,67.2 -20.8,74c-2.8,7.2 -24,31.2 -24.4,39.2c-0.4,8 6,43.2 14.8,48.4c6.8,3.6 23.2,11.2 35.2,12.8c4,0.8 8,0.4 10,-1.199c8,-5.2 10,-6 15.2,-5.601l1.2,0.401c2,0.399 4.4,1.199 7.6,1.599c6.8,0.8 15.6,0.8 22.8,-4c10.4,-8 28,-18 34,-23.2c7.2,-7.2 12,-17.2 12,-28.4c-0,-10 6.8,-18 14.4,-26c7.2,-7.2 25.2,-24.8 32.4,-32.4c18.4,6.4 25.2,32.8 25.2,47.201c0,39.999 -32.4,98.399 -106.8,102.799c-2.799,-0 -5.6,0.4 -8.8,0.4c-96.8,0 -176,-85.6 -176,-186c0,-79.2 47.587,-132.831 47.987,-133.231c-38.4,36.4 -61.187,87.231 -61.187,144.031c0,110.4 89.6,200.014 200,200.014c110.4,0 200,-89.614 200,-200.014c0,-36 -9.2,-70.785 -26,-99.986Zm-273.2,-25.614c-5.6,-4.8 -11.2,-9.6 -16.8,-14.4c7.6,4 15.2,8 22,11.6c20.8,10.8 38,20.4 41.2,22.8c0,0 0.4,0.4 0.8,0.8c2,2.4 4,6.4 0.4,11.6c-2,2.8 -4.4,2 -8,-0.4c-3.2,-2 -20.4,-15.6 -39.6,-32Zm116.401,208c-0,6.8 -3.201,12.8 -7.201,17.2c-2,2 -10,7.2 -15.6,10.8c-5.6,4.001 -11.6,7.6 -16.4,11.2c-2,1.2 -5.2,2 -10.4,1.2l-12.4,-1.6c7.6,-7.6 28.4,-24 35.2,-27.199c8,-4.001 12.8,-8.401 9.201,-17.601c-3.201,-9.599 -15.601,-9.2 -15.601,-9.2c0,0 7.6,-2 13.6,-1.2c-7.6,-3.2 -18,-2.4 -23.2,1.2c-5.599,4.001 -7.2,20.4 -10.8,30.401c-3.6,10.399 -11.6,14.799 -23.6,23.199c-6.8,4.4 -11.2,5.6 -14.4,5.2c-6.8,-1.999 -14.8,-5.6 -20.4,-8.4c-3.2,-6 -7.2,-24.8 -7.6,-32.4c1.6,-4 8,-12 11.2,-16.8c6.4,-8.8 10,-14 11.6,-18.8c2.8,-6.8 14.4,-49.6 18.8,-67.6c4.4,7.6 10.4,20.4 7.6,27.601c14.4,-15.201 8,-33.201 4.8,-40.401c-2.8,-7.2 -6,-21.2 0.4,-34.8c6,-13.6 26.8,-50.4 26.8,-50.4c0,0 3.6,9.6 11.2,8.8c7.2,-0.8 76.4,-78.4 76.4,-78.4c-0,0 10.8,36 -9.2,58c-20,22 -36.8,24.4 -36.8,24.4c-0,-0 22.4,7.2 45.6,-4.8c6,21.6 11.2,44 11.2,46.8c-1.6,2.8 -24,40.4 -26,42.8c-0.8,0.8 -7.2,1.601 -11.2,1.601c-7.2,1.199 -11.6,1.599 -13.6,2.799c-3.2,2 -21.6,36.801 -30.4,53.6c-8,1.2 -16,4 -22.4,11.6c3.2,-1.6 12.4,-1.6 19.2,-1.6c6,0.4 22.4,12.4 24.401,31.2l-0,1.6Zm-46.801,16.8c4.4,-4.8 5.2,-14 6,-16.8c0.8,-2.8 2.4,-8 6,-8.4c3.6,-0.4 11.2,2 10.4,8c-0.8,5.6 -6.8,6 -11.6,8.8c-3.2,2 -10,7.6 -10.8,8.4Zm174,5.2c-4.799,-51.2 -40,-75.2 -55.6,-83.2c18,-2 64.4,-15.999 38.8,-86.8c0.8,3.2 8,38.4 -12.4,56.8c-20.8,18.8 -51.2,10.8 -54.8,10.8c-3.2,-0.4 -18.4,14.4 -39.2,42.801c-2,-1.201 -10.4,-4.4 -20.8,-4.001c10.4,-19.6 26,-47.6 28.4,-50c0.8,-0.8 7.6,-1.6 11.6,-2c8,-0.8 12.001,-1.6 13.6,-3.2c0.8,-1.2 6.4,-10 12,-19.6c3.6,0.4 13.2,1.2 14.4,0.8c0.8,-0.8 11.601,-20 12,-22.4c0.4,-1.6 -7.2,-31.6 -12,-50.8c98.801,46.8 114.4,150 64,210.8Z" style="fill:#1c324f;fill-rule:nonzero;"/><path d="M305.2,131.066c11.2,-10 9.6,-27.2 9.6,-27.2l-33.6,37.2c-0.4,-0 10,2 24,-10Z" style="fill:#1c324f;fill-rule:nonzero;"/><path d="M179.6,342.666l5.6,-16c0,0 -17.2,22 -18.8,25.2c-1.6,3.6 -0.8,10.401 4.8,10.8c5.6,0.401 13.2,-6.8 14,-12.4c1.2,-7.6 -5.6,-7.6 -5.6,-7.6Z" style="fill:#1c324f;fill-rule:nonzero;"/><path d="M232.4,245.866c12,-1.2 33.6,-10.8 42.8,-18.4c9.2,-8 7.6,-25.6 -6.8,-30.8c4.801,-8 12.8,-24.8 12.8,-24.8c0,-0 -51.6,60.4 -55.6,61.2c-4,0.8 -5.6,-14.4 -5.6,-14.4c-12,29.201 8.4,36.4 12.4,27.2Z" style="fill:#1c324f;fill-rule:nonzero;"/><path d="M236.8,238.266l26.8,-34c0,0 11.6,8 4,17.2c-9.6,10.8 -30.8,16.8 -30.8,16.8Z" style="fill:#ffd925;fill-rule:nonzero;"/><path d="M308,86.666l-18.4,20c-14.8,4.4 -29.2,12.4 -42.8,25.6c-0,-7.6 22,-40.8 61.2,-45.6Z" style="fill:#d82423;fill-rule:nonzero;"/><path d="M331.2,103.866c0.4,-5.2 -0,-11.2 -0.8,-16.8c24,3.2 52.4,17.2 84.8,48.8c-26.8,-14.8 -55.2,-28.4 -84,-32Z" style="fill:#d82423;fill-rule:nonzero;"/><path d="M338.4,129.866c0,0 89.2,39.2 105.601,149.2c2.399,-143.2 -99.201,-150.4 -105.601,-149.2Z" style="fill:#d82423;fill-rule:nonzero;"/><path d="M208.4,66.666c-1.2,3.2 -51.6,57.2 11.2,78.4c-34.4,-30.8 -11.6,-78 -11.2,-78.4Z" style="fill:#d82423;fill-rule:nonzero;"/><path d="M235.2,136.666c-0,-0 5.2,-61.2 42,-77.6c-2.8,0.8 -77.6,23.6 -42,77.6Z" style="fill:#d82423;fill-rule:nonzero;"/></g></svg>