<svg width="640" height="400" viewBox="0 0 640 400" fill="none" xmlns="http://www.w3.org/2000/svg">
    <g clip-path="url(#clip0_6931_113851)" filter="url(#filter0_d_6931_113851)">
        <rect width="640" height="400" transform="translate(0.5)" fill="white"/>
        <path d="M26.1787 112.964C14.0149 116.174 -12.5426 122.898 -21.4627 124.114L-33.1196 37.4475L22.1242 43.0225C22.1242 43.0225 -1.90667 63.4015 0.330765 80.0206C3.66842 104.812 62.1633 96.7459 62.1633 96.7459C62.1633 96.7459 38.3425 109.754 26.1787 112.964Z" fill="#AE8192" fill-opacity="0.4"/>
        <g clip-path="url(#clip1_6931_113851)">
            <rect width="640" height="400" transform="translate(0.5)" fill="url(#paint0_linear_6931_113851)"/>
            <path d="M788.789 202.483C693.219 202.051 500.395 201.447 493.664 202.483C493.664 202.483 542.42 181.884 575.212 182.42C593.119 182.712 602.622 188.799 620.516 189.539C654.646 190.949 672.54 171.337 706.594 174.006C740.462 176.66 788.789 202.483 788.789 202.483Z" fill="#88669F" fill-opacity="0.3"/>
            <path fill-rule="evenodd" clip-rule="evenodd" d="M261.274 234.39C207.72 234.232 149.885 234.18 147.074 234.612C147.074 234.612 175.844 222.458 195.193 222.773C200.633 222.862 204.758 223.857 208.922 224.862C212.846 225.808 216.803 226.763 221.926 226.974C231.767 227.381 239.32 224.826 246.816 222.29C254.661 219.636 262.443 217.004 272.719 217.809C281.952 218.532 293.006 222.174 302.228 225.883C307.653 226.042 311.844 227.053 316.072 228.073C320.215 229.073 324.394 230.08 329.803 230.304C340.193 230.733 348.169 228.035 356.084 225.358C364.367 222.556 372.584 219.776 383.433 220.626C404.534 222.28 434.644 238.369 434.644 238.369C375.1 238.1 254.963 237.723 250.769 238.369C250.769 238.369 254.959 236.598 261.274 234.39Z" fill="#88669F" fill-opacity="0.3"/>
            <path opacity="0.5" d="M-58.5795 271.647C6.88606 271.539 138.97 271.386 143.581 271.647C143.581 271.647 110.183 266.454 87.7206 266.589C75.4543 266.662 68.9448 268.197 56.6873 268.384C33.3088 268.739 21.051 263.794 -2.276 264.467C-25.4749 265.137 -58.5795 271.647 -58.5795 271.647Z" fill="#FAE5D6"/>
            <g filter="url(#filter1_f_6931_113851)">
                <path d="M233.292 365.124C229.279 365.124 225.523 366.764 222.274 369.588C215.934 358.075 206.416 350.713 195.735 350.713C187.415 350.713 179.783 355.163 173.815 362.567C166.864 341.336 152.407 326.735 135.689 326.735C127.222 326.735 119.34 330.493 112.714 336.945C104.886 288.357 75.9475 252.28 41.4262 252.28C8.88239 252.28 -18.6958 284.346 -28.3092 328.727C-40.3627 333.37 -50.3297 345.828 -55.7916 362.297C-57.254 361.836 -58.7668 361.59 -60.3179 361.59C-72.5605 361.59 -82.4839 376.609 -82.4839 395.132C-82.4839 395.452 -82.4589 395.761 -82.453 396.077H255.374C254.496 378.765 244.956 365.124 233.292 365.124Z" fill="white" fill-opacity="0.8"/>
            </g>
            <g filter="url(#filter2_f_6931_113851)">
                <path d="M560.439 365.124C556.426 365.124 552.67 366.764 549.421 369.588C543.081 358.075 533.563 350.713 522.882 350.713C514.561 350.713 506.93 355.163 500.961 362.567C494.011 341.336 479.554 326.736 462.836 326.736C454.369 326.736 446.487 330.494 439.861 336.946C432.033 288.357 403.094 252.28 368.573 252.28C336.029 252.28 308.451 284.347 298.838 328.727C286.784 333.37 276.817 345.828 271.355 362.297C269.893 361.837 268.38 361.591 266.829 361.591C254.586 361.591 244.663 376.609 244.663 395.132C244.663 395.452 244.688 395.761 244.694 396.077H582.521C581.643 378.765 572.103 365.124 560.439 365.124Z" fill="white" fill-opacity="0.8"/>
            </g>
            <g filter="url(#filter3_f_6931_113851)">
                <path d="M414.623 365.124C418.637 365.124 422.393 366.764 425.641 369.588C431.982 358.075 441.499 350.713 452.18 350.713C460.501 350.713 468.133 355.163 474.101 362.567C481.052 341.336 495.509 326.736 512.227 326.736C520.693 326.736 528.575 330.494 535.202 336.946C543.03 288.357 571.968 252.28 606.489 252.28C639.033 252.28 666.611 284.347 676.225 328.727C688.278 333.37 698.245 345.828 703.707 362.297C705.169 361.837 706.682 361.591 708.233 361.591C720.476 361.591 730.399 376.609 730.399 395.132C730.399 395.452 730.374 395.761 730.369 396.077H392.542C393.42 378.765 402.96 365.124 414.623 365.124Z" fill="white" fill-opacity="0.8"/>
            </g>
            <g filter="url(#filter4_f_6931_113851)">
                <path d="M83.5998 419.768C86.4287 419.768 89.0759 421.408 91.3653 424.232C95.8343 412.719 102.542 405.358 110.07 405.358C115.935 405.358 121.314 409.807 125.521 417.211C130.419 395.98 140.609 381.38 152.392 381.38C158.359 381.38 163.915 385.138 168.585 391.59C174.103 343.002 194.499 306.924 218.83 306.924C241.767 306.924 261.205 338.991 267.98 383.371C276.476 388.014 283.501 400.472 287.35 416.941C288.381 416.481 289.447 416.235 290.541 416.235C299.169 416.235 306.164 431.253 306.164 449.776C306.164 450.096 306.146 450.405 306.142 450.721H68.0364C68.6551 433.409 75.3793 419.768 83.5998 419.768Z" fill="white" fill-opacity="0.8"/>
            </g>
            <path opacity="0.5" d="M582.244 251.337C647.709 251.228 779.793 251.076 784.404 251.337C784.404 251.337 751.006 246.143 728.544 246.278C716.278 246.352 709.768 247.887 697.511 248.073C674.132 248.429 661.874 243.484 638.547 244.157C615.348 244.826 582.244 251.337 582.244 251.337Z" fill="#FAE5D6"/>
            <path d="M467.025 -127.498L820.922 69.6505" stroke="url(#paint1_linear_6931_113851)" stroke-width="0.728797"/>
            <path d="M469.664 -127.83L818.284 78.5071" stroke="url(#paint2_linear_6931_113851)" stroke-width="0.728797"/>
            <path fill-rule="evenodd" clip-rule="evenodd" d="M510.994 129.916C517.976 119.479 536.4 92.0217 557.421 66.6313C549.866 64.5928 543.239 64.1793 538.583 66.0243V66.0219C529.646 58.0588 520.385 53.6852 511.566 52.2823C493.645 69.0189 478.639 84.5509 475.876 88.1668C478.317 104.7 491.309 118.33 510.601 129.574L510.994 129.916ZM626.422 121.817C625.513 116.549 622.18 110.747 617.272 104.922C603.393 134.677 586.677 163.004 580.315 173.946C598.127 187.01 616.52 191.886 632.558 187.983C634.59 183.869 642.151 163.952 649.664 140.869C644.547 132.894 636.746 126.226 626.422 121.817ZM656.18 50.7648H656.18C655.651 58.5989 655.652 58.5965 656.18 50.7648ZM590.16 8.93425C584.834 11.9001 584.834 11.9001 590.161 8.93425H590.16Z" fill="#043484"/>
            <path fill-rule="evenodd" clip-rule="evenodd" d="M617.272 104.922C603.479 88.5462 577.248 71.9851 557.42 66.6304C536.398 92.0235 517.975 119.48 510.994 129.916C518.646 147.887 566.854 177.248 580.315 173.946C586.678 163.002 603.397 134.669 617.272 104.922ZM649.489 141.404C642.125 163.981 634.754 183.424 632.633 187.828C643.223 187.929 651.102 185.255 654.983 179.542C657.254 175.964 657.807 171.486 656.835 166.353C656.964 157.293 654.566 148.591 649.777 141.048L649.663 140.868L649.489 141.404ZM485.342 57.4251C480.281 58.7264 476.463 61.1307 474.191 64.7061L474.039 64.9536L473.907 65.1733L473.781 65.3952L473.659 65.6171L473.542 65.8432L473.412 66.1056L473.305 66.3317L473.201 66.5621L473.103 66.7883L473.019 66.9909L472.93 67.2235L472.842 67.4539L472.817 67.5285C472.763 67.6757 472.712 67.8251 472.663 67.9765L472.589 68.2176L472.567 68.2923C472.512 68.4736 472.463 68.6571 472.414 68.8405L472.354 69.0859L472.335 69.1627C472.305 69.2971 472.275 69.4315 472.247 69.5659L472.194 69.8261L472.162 70.0032C471.247 75.0976 472.591 81.2864 475.876 88.1643C478.639 84.5504 493.645 69.0176 511.566 52.2816C501.977 50.7541 492.906 52.736 485.342 57.4251Z" fill="url(#paint3_linear_6931_113851)"/>
            <path fill-rule="evenodd" clip-rule="evenodd" d="M720.235 366.369C699.157 370.127 671.699 384.563 657.148 399.057C668.628 429.959 683.194 459.642 688.741 470.906C708.131 473.265 757.662 446.196 761.533 432.887C755.237 421.905 739.059 393.26 720.235 366.369ZM767.938 356.71C783.808 374.376 796.961 390.481 799.714 394.52C805.097 385.398 806.72 377.239 803.713 371.021C801.751 367.265 798.149 364.547 793.217 362.823C785.436 358.181 776.701 355.906 767.773 356.282L767.561 356.291L767.938 356.71ZM613.136 456.876C611.733 461.909 611.906 466.418 613.867 470.174L614.005 470.429L614.129 470.653L614.259 470.873L614.39 471.089L614.527 471.304L614.689 471.548L614.832 471.753L614.979 471.959L615.126 472.157L615.26 472.33L615.416 472.524L615.572 472.715L615.624 472.775C615.725 472.895 615.828 473.014 615.935 473.132L616.107 473.317L616.161 473.373C616.29 473.512 616.424 473.646 616.559 473.78L616.741 473.954L616.798 474.009C616.9 474.102 617.001 474.196 617.103 474.287L617.302 474.463L617.44 474.579C621.394 477.919 627.426 479.85 635.025 480.443C633.276 476.244 627.327 455.482 621.794 431.593C615.677 439.134 612.858 447.98 613.136 456.876Z" fill="url(#paint4_linear_6931_113851)"/>
            <path fill-rule="evenodd" clip-rule="evenodd" d="M792.196 347.018C766.365 347.423 730.875 359.313 710.745 373.766C718.45 412.788 730.066 450.954 734.498 465.44C757.135 471.995 821.356 449.321 828.536 434.217C823.158 419.921 809.422 382.68 792.196 347.018ZM850.876 344.726C866.366 368.831 878.921 390.552 881.42 395.895C889.592 386.071 893.102 376.666 890.721 368.679C889.109 363.827 885.344 359.895 879.803 356.889C871.432 349.857 861.468 345.461 850.762 344.185L850.508 344.154L850.876 344.726ZM647.16 434.13C644.517 439.853 643.852 445.257 645.462 450.108L645.578 450.439L645.682 450.73L645.794 451.017L645.908 451.3L646.03 451.582L646.176 451.904L646.306 452.176L646.442 452.449L646.579 452.713L646.705 452.946L646.854 453.207L647.002 453.464L647.053 453.545C647.15 453.708 647.25 453.869 647.354 454.031L647.523 454.284L647.576 454.361C647.703 454.551 647.837 454.737 647.972 454.923L648.155 455.166L648.213 455.243C648.315 455.373 648.418 455.503 648.523 455.632L648.725 455.88L648.867 456.045C652.931 460.787 659.742 464.251 668.678 466.425C667.407 461.086 664.331 435.21 662.355 405.689C653.612 413.489 648.547 423.481 647.16 434.13Z" fill="#043484"/>
            <path fill-rule="evenodd" clip-rule="evenodd" d="M529.586 9.15376C508.531 18.1718 489.696 33.6175 476.303 54.7031C473.334 59.3776 472.033 64.5434 472.156 70.0352C472.501 68.0944 473.173 66.309 474.191 64.7064C476.463 61.1308 480.282 58.7281 485.341 57.4243C485.901 56.1008 486.581 54.8019 487.384 53.5376C498.251 36.43 513.092 20.4016 529.586 9.15376ZM681.784 108.485C678.101 127.321 669.877 146.493 659.486 162.852C658.682 164.117 657.796 165.285 656.835 166.355C657.807 171.488 657.254 175.966 654.983 179.542C653.965 181.145 652.636 182.512 651.025 183.649C656.048 181.427 660.171 178.053 663.141 173.378C676.007 153.122 682.029 130.532 681.784 108.485ZM626.422 121.817C670.589 51.6263 659.058 26.5478 635.001 11.2675C610.944 -4.01276 583.342 -3.7905 538.583 66.0226C559.802 57.6145 621.986 96.1164 626.422 121.817Z" fill="url(#paint5_linear_6931_113851)"/>
            <path d="M392.542 279.911L444.683 332.523" stroke="white" stroke-width="1.45759"/>
            <path fill-rule="evenodd" clip-rule="evenodd" d="M654.042 33.0682C660.175 50.2867 654.776 76.7552 626.421 121.815C646.566 130.42 657.102 147.62 656.834 166.354C657.795 165.284 658.682 164.116 659.485 162.852C686.666 120.06 699.022 58.0315 654.042 33.0682ZM607.172 3.29785C566.61 -25.2792 514.564 10.7437 487.384 53.5364C486.58 54.8025 485.9 56.0998 485.34 57.4257C499.862 48.4252 519.929 49.3975 538.582 66.0233C567.318 21.2027 588.981 5.06572 607.172 3.29785Z" fill="white"/>
            <path fill-rule="evenodd" clip-rule="evenodd" d="M508.392 224.145L579.771 172.948C580.201 172.639 580.802 172.738 581.111 173.169C581.42 173.601 581.321 174.2 580.89 174.511L499.721 232.728L656.308 164.871C656.795 164.661 657.361 164.886 657.572 165.371C657.782 165.859 657.559 166.424 657.072 166.636L514.122 228.582L632.249 187.059C632.749 186.883 633.298 187.146 633.474 187.648C633.65 188.148 633.386 188.696 632.886 188.871L491.538 238.557L491.535 238.558L491.531 238.559L491.527 238.56L491.521 238.562L491.519 238.564L491.517 238.564L491.512 238.565L491.51 238.566L491.506 238.568L491.498 238.57L491.496 238.571L491.493 238.572L491.489 238.573L491.487 238.573L491.483 238.575L491.475 238.577L491.47 238.579L491.466 238.58V238.58L491.46 238.582L491.445 238.586L491.437 238.588L491.416 238.593L491.414 238.593L491.411 238.594L491.403 238.596L491.388 238.599L491.38 238.6V238.6L491.378 238.601L491.365 238.603L491.357 238.604L491.355 238.605L491.353 238.605L491.342 238.607L491.334 238.608L491.332 238.608L491.327 238.609L491.325 238.609V238.609L491.319 238.61L491.313 238.61L491.309 238.611L491.304 238.611L491.302 238.611L491.3 238.612L491.296 238.612L491.29 238.613L491.285 238.613L491.281 238.614L491.279 238.614L491.275 238.614L491.271 238.614L491.267 238.615L491.26 238.615L491.258 238.615L491.256 238.615L491.252 238.616L491.248 238.616H491.243L491.237 238.616L491.235 238.616L491.233 238.617H491.227H491.225L491.22 238.617H491.214H491.212L491.208 238.617L491.201 238.617H491.199H491.197H491.191H491.189H491.185L491.176 238.617H491.174L491.168 238.616H491.164L491.162 238.616L491.153 238.616V238.615L491.151 238.615L491.143 238.615L491.141 238.615L491.136 238.615L491.132 238.614L491.128 238.614L491.124 238.614L491.12 238.613L491.117 238.613L491.113 238.613L491.111 238.612L491.105 238.612L491.096 238.611L491.092 238.61L491.09 238.61H491.088C491.027 238.603 490.968 238.59 490.912 238.572V238.572L490.909 238.571L490.897 238.567L490.893 238.565L490.888 238.564L490.88 238.561L490.876 238.559L490.874 238.558L490.865 238.556L490.842 238.547C490.836 238.544 490.828 238.541 490.821 238.538L490.809 238.532L490.8 238.528L490.788 238.522L490.786 238.522V238.521L490.777 238.518L490.767 238.513L490.765 238.511L490.762 238.51L490.756 238.507L490.754 238.506L490.752 238.504L490.748 238.502L490.743 238.5L490.739 238.498L490.737 238.496L490.735 238.495L490.733 238.495L490.729 238.491L490.722 238.488L490.718 238.486L490.716 238.484L490.714 238.484V238.483L490.708 238.479L490.701 238.476L490.697 238.473L490.693 238.471L490.687 238.467L490.683 238.464L490.678 238.461L490.672 238.458L490.668 238.454L490.662 238.45L490.657 238.447L490.653 238.444L490.649 238.441L490.643 238.437L490.638 238.433L490.634 238.431L490.63 238.428L490.624 238.423L490.617 238.418L490.615 238.416L490.613 238.414L490.605 238.408L490.601 238.405C490.575 238.393 490.552 238.38 490.527 238.365L490.512 238.356L490.51 238.354L490.508 238.353L490.494 238.344V238.343C490.374 238.264 490.271 238.158 490.195 238.028V238.026L490.193 238.022L490.187 238.014L490.185 238.01L490.183 238.006L490.176 237.994V237.992C490.139 237.921 490.109 237.844 490.09 237.764L490.086 237.742C490.071 237.681 490.065 237.62 490.065 237.559L489.996 235.277L475.105 88.3334C475.052 87.8062 475.437 87.3336 475.964 87.281C476.491 87.2264 476.962 87.6108 477.016 88.1381L489.179 208.164L484.629 57.1024C484.614 56.573 485.03 56.1298 485.561 56.1151C486.091 56.0983 486.534 56.5163 486.551 57.0456L491.739 229.361L509.935 129.656C510.03 129.135 510.531 128.788 511.053 128.885C511.574 128.979 511.92 129.479 511.825 130.002L495.953 216.976L538.305 64.5866C538.447 64.0762 538.977 63.7758 539.488 63.9187C539.999 64.0594 540.298 64.5887 540.156 65.1013L492.974 234.865L626.586 119.999C626.988 119.653 627.595 119.699 627.941 120.1C628.286 120.503 628.24 121.11 627.838 121.455L508.392 224.145Z" fill="white"/>
            <path fill-rule="evenodd" clip-rule="evenodd" d="M392.542 272.697L440.31 319.124L502.638 342.628L503.527 341.229L459.284 289.253L393.431 271.298L392.542 272.697Z" fill="#000949"/>
            <g filter="url(#filter5_i_6931_113851)">
                <path fill-rule="evenodd" clip-rule="evenodd" d="M504.164 218.592L508.256 219.628L551.848 270.838L540.649 288.466L538.022 286.92L503.527 341.23L459.282 289.253L504.164 218.592Z" fill="#00327E"/>
            </g>
            <g filter="url(#filter6_ii_6931_113851)">
                <path fill-rule="evenodd" clip-rule="evenodd" d="M504.15 218.616L504.164 218.592L438.312 200.638L438.296 200.661L435.004 199.764L423.888 217.263L427.049 218.368L393.429 271.298L459.283 289.253L493.621 238.517L497.084 237.219L508.198 219.72L504.15 218.616Z" fill="#256AEF"/>
            </g>
            <path fill-rule="evenodd" clip-rule="evenodd" d="M497.057 237.26L423.901 217.242L425.687 220.512L493.245 239.109L537.234 288.162L540.664 288.443L497.057 237.26Z" fill="#000949"/>
            <path fill-rule="evenodd" clip-rule="evenodd" d="M464.299 238.322C465.406 240.596 466.015 243.152 466.015 245.906C466.015 257.381 455.441 267.94 442.397 269.491C432.484 270.67 423.997 266.306 420.494 259.106L422.198 262.908C425.701 270.107 434.187 274.471 444.101 273.292C457.144 271.741 467.719 261.182 467.719 249.707C467.719 246.953 467.109 244.397 466.003 242.123L464.299 238.322Z" fill="#002E7A"/>
            <path d="M466.014 245.906C466.014 257.381 455.44 267.94 442.397 269.491C429.353 271.042 418.779 262.997 418.779 251.523C418.779 240.048 429.353 229.488 442.397 227.937C455.44 226.387 466.014 234.431 466.014 245.906Z" fill="white"/>
            <path d="M454.733 244.066C452.827 243.519 450.265 243.794 447.118 244.879C445.625 245.393 444.243 246.005 443.182 246.508C443.182 246.508 443.182 246.508 443.185 246.515L443.188 246.51C443.188 246.51 443.68 247.85 444.244 249.296C445.249 248.807 446.667 248.156 448.172 247.633C450.971 246.669 452.422 246.712 453.151 246.921C455.893 247.707 457.046 250.282 455.726 252.661C454.416 255.025 451.11 256.322 448.366 255.553C448.241 255.518 448.09 255.456 447.909 255.361C448.539 255.897 449.275 256.364 450.092 256.599C455.113 258.039 457.714 255.402 457.896 255.21C458.339 254.719 458.727 254.182 459.045 253.607C461.233 249.66 459.299 245.375 454.733 244.066Z" fill="url(#paint6_linear_6931_113851)"/>
            <path d="M429.238 253.389C431.145 253.935 433.706 253.661 436.853 252.576C438.346 252.062 439.729 251.449 440.79 250.946C440.79 250.946 440.79 250.946 440.787 250.939L440.784 250.945C440.784 250.945 440.291 249.605 439.727 248.159C438.722 248.647 437.304 249.299 435.8 249.821C433.001 250.786 431.549 250.743 430.821 250.534C428.082 249.743 426.929 247.168 428.248 244.788C429.558 242.424 432.864 241.127 435.609 241.896C435.733 241.932 435.884 241.993 436.065 242.088C435.435 241.553 434.7 241.085 433.882 240.851C428.861 239.411 426.266 242.049 426.081 242.234C425.635 242.73 425.251 243.262 424.932 243.837C422.738 247.794 424.673 252.08 429.238 253.389Z" fill="url(#paint7_linear_6931_113851)"/>
            <path d="M450.116 256.532C447.578 255.737 445.908 253.166 445.612 252.562C444.846 250.997 443.336 246.925 443.219 246.604C442.157 243.541 440.404 239.957 437.195 239.036L437.189 239.035L437.183 239.033C433.278 237.931 428.699 239.346 426.082 242.234C426.261 242.047 429.196 239.44 433.851 240.897C436.389 241.692 438.056 244.292 438.358 244.898C439.124 246.463 440.635 250.535 440.752 250.856C441.816 253.913 443.569 257.498 446.778 258.418L446.784 258.42L446.79 258.422C450.695 259.523 455.28 258.11 457.891 255.22C457.706 255.406 454.78 257.985 450.116 256.532Z" fill="#29ABE2"/>
            <path opacity="0.3" d="M419.022 98.505C415.574 98.2346 413.564 96.7165 412.311 97.1627C411.353 97.5045 409.409 98.6534 407.109 99.1082C406.73 98.8961 406.326 98.7376 405.899 98.6355C404.898 98.4231 403.791 98.4395 403.458 98.8951C403.426 98.9432 403.406 98.995 403.4 99.0517C400.985 98.4127 399.318 96.7448 398.707 96.9236C397.976 97.1372 396.903 98.1726 394.803 99.4809C392.654 100.82 390.013 100.881 389.715 101.23C389.417 101.581 392.013 101.958 394.625 101.326C397.238 100.694 398.33 99.7259 398.918 99.5937C399.423 99.4801 402.111 101.004 404.859 101.368C405.025 101.506 405.202 101.629 405.392 101.739C406.266 102.24 408.589 102.692 409.094 102.742C409.637 102.794 409.934 102.786 410.07 102.97C410.293 103.272 410.486 103.522 410.665 103.54C410.824 103.555 410.906 103.27 410.853 103.07C410.802 102.87 411.164 102.711 411.062 102.529C410.96 102.35 410.462 102.276 410.24 102.109C410.108 102.008 409.584 101.467 409.086 100.93C410.934 100.354 412.323 99.46 412.749 99.134C413.371 98.6611 415.721 99.9547 419.011 100.211C422.301 100.469 424.766 98.3652 424.519 98.2036C424.271 98.0407 422.467 98.774 419.022 98.505Z" fill="white"/>
            <path d="M219.415 329.837C220.565 329.578 230.189 328.36 232.752 328.861C234.579 329.218 239.682 332.602 241.096 333.283C242.087 333.763 242.608 333.932 243.058 333.873C244.794 331.818 246.497 329.016 248.695 327.43C251.16 325.652 257.976 325.209 257.527 325.693C256.988 326.272 252.682 326.681 250.526 328.253C248.907 329.434 247.523 331.69 246.739 333.23C246.844 333.439 246.877 333.619 247.134 333.772C247.654 334.074 247.803 334.264 247.505 334.339C247.206 334.414 247.02 334.339 246.866 334.49C246.712 334.641 246.382 335.171 245.563 335.248C244.744 335.324 245.375 336.382 244.668 337.214C243.686 338.37 242.47 337.781 242.061 338.046C241.651 338.313 241.949 339.408 241.725 339.522C241.502 339.634 240.72 339.068 240.162 338.873C239.602 338.677 238.895 338.699 238.858 338.37C238.821 338.041 240.389 337.55 240.571 337.203C240.664 337.033 240.758 336.615 240.93 336.145C237.591 335.472 233.301 332.341 232.373 331.711C231.369 331.028 230.214 331.322 227.942 331.192C225.67 331.062 218.26 330.097 219.415 329.837Z" fill="#7F5FA3"/>
            <path d="M379.345 219.75C379.536 219.679 379.716 219.88 379.623 220.061L378.162 222.909C377.338 224.516 377.198 226.389 377.775 228.101L378.733 230.943C378.803 231.149 378.565 231.323 378.39 231.194L376.505 229.81C374.744 228.517 372.463 228.164 370.394 228.866L368.103 229.642C367.906 229.709 367.733 229.496 367.839 229.317L369.263 226.916C370.341 225.098 370.497 222.878 369.684 220.927L368.651 218.45C368.566 218.245 368.799 218.055 368.983 218.18L371.281 219.746C373.082 220.973 375.367 221.247 377.407 220.48L379.345 219.75Z" fill="white"/>
            <path fill-rule="evenodd" clip-rule="evenodd" d="M125.194 137.57C120.343 130.335 107.538 111.302 92.9283 93.7008C98.179 92.2876 102.785 92.001 106.02 93.28V93.2783C112.232 87.7582 118.668 84.7264 124.797 83.754C137.252 95.3558 147.681 106.123 149.601 108.629C147.905 120.09 138.875 129.538 125.468 137.333L125.194 137.57ZM44.9733 131.956C45.605 128.304 47.9215 124.282 51.3322 120.244C60.9782 140.87 72.5953 160.507 77.017 168.092C64.6376 177.148 51.8549 180.528 40.709 177.823C39.2966 174.97 34.0414 161.164 28.8205 145.163C32.3767 139.634 37.798 135.012 44.9733 131.956ZM24.2915 82.702H24.2918C24.6594 88.1326 24.6589 88.131 24.2915 82.702ZM70.1748 53.7048C73.8764 55.7607 73.8762 55.7607 70.1743 53.7048H70.1748Z" fill="#96875C"/>
            <path fill-rule="evenodd" clip-rule="evenodd" d="M51.3323 120.244C60.919 108.892 79.1488 97.412 92.9291 93.7001C107.539 111.303 120.343 130.335 125.195 137.57C119.877 150.028 86.3729 170.381 77.0176 168.092C72.5955 160.505 60.9759 140.865 51.3323 120.244ZM28.9419 145.534C34.06 161.184 39.1826 174.662 40.6571 177.715C33.2968 177.785 27.8213 175.931 25.124 171.971C23.5452 169.491 23.1612 166.387 23.837 162.829C23.747 156.548 25.4135 150.516 28.7421 145.287L28.8209 145.162L28.9419 145.534ZM143.023 87.3189C146.54 88.221 149.194 89.8876 150.773 92.3662L150.878 92.5377L150.97 92.69L151.058 92.8438L151.142 92.9976L151.224 93.1544L151.314 93.3363L151.388 93.493L151.461 93.6528L151.529 93.8095L151.587 93.95L151.649 94.1112L151.71 94.2709L151.728 94.3227C151.765 94.4247 151.8 94.5282 151.835 94.6332L151.886 94.8003L151.901 94.8521C151.94 94.9778 151.974 95.105 152.008 95.2322L152.05 95.4022L152.063 95.4555C152.084 95.5486 152.104 95.6418 152.124 95.735L152.161 95.9154L152.183 96.0381C152.819 99.5696 151.885 103.86 149.602 108.628C147.682 106.122 137.253 95.3549 124.797 83.7534C131.462 82.6945 137.766 84.0684 143.023 87.3189Z" fill="url(#paint8_linear_6931_113851)"/>
            <path fill-rule="evenodd" clip-rule="evenodd" d="M112.274 53.8561C126.907 60.1075 139.996 70.8145 149.304 85.4312C151.368 88.6716 152.272 92.2526 152.187 96.0596C151.947 94.7141 151.48 93.4765 150.772 92.3656C149.193 89.887 146.539 88.2214 143.023 87.3176C142.634 86.4001 142.161 85.4997 141.603 84.6233C134.051 72.7642 123.736 61.6532 112.274 53.8561ZM6.49717 122.713C9.05649 135.771 14.7724 149.061 21.9942 160.401C22.5524 161.278 23.1687 162.087 23.8365 162.829C23.1608 166.387 23.5449 169.491 25.1234 171.97C25.831 173.081 26.7546 174.029 27.8741 174.818C24.3832 173.277 21.5181 170.938 19.4541 167.697C10.512 153.655 6.32709 137.996 6.49717 122.713ZM44.9735 131.955C14.2776 83.2984 22.2912 65.9138 39.0108 55.3214C55.7306 44.729 74.9131 44.8831 106.021 93.278C91.2737 87.4494 48.0561 114.139 44.9735 131.955Z" fill="url(#paint9_linear_6931_113851)"/>
            <path fill-rule="evenodd" clip-rule="evenodd" d="M25.7776 70.434C21.5149 82.37 25.267 100.718 44.9738 131.954C30.973 137.919 23.6509 149.842 23.8369 162.829C23.1691 162.087 22.5527 161.277 21.9944 160.401C3.10425 130.737 -5.48327 87.7387 25.7776 70.434ZM58.3517 49.7971C86.5416 29.9873 122.714 54.9585 141.604 84.6227C142.162 85.5004 142.635 86.3997 143.024 87.3188C132.931 81.0796 118.985 81.7536 106.021 93.2787C86.05 62.2088 70.9939 51.0226 58.3517 49.7971Z" fill="white"/>
            <path fill-rule="evenodd" clip-rule="evenodd" d="M127.003 202.89L77.3955 167.4C77.0962 167.186 76.6787 167.255 76.4639 167.553C76.2492 167.853 76.3179 168.268 76.6174 168.484L133.029 208.84L24.2027 161.801C23.8646 161.656 23.4712 161.812 23.3246 162.148C23.1782 162.486 23.3337 162.877 23.6718 163.025L123.021 205.966L40.9236 177.182C40.5759 177.06 40.1946 177.242 40.0724 177.59C39.9502 177.937 40.1332 178.317 40.4807 178.438L138.717 212.881L138.718 212.881L138.721 212.882L138.724 212.883L138.729 212.885L138.73 212.885L138.731 212.886L138.734 212.887L138.736 212.887L138.739 212.888L138.745 212.89L138.746 212.89L138.748 212.891L138.75 212.892L138.752 212.892L138.755 212.893L138.761 212.895L138.764 212.896L138.767 212.897V212.897L138.771 212.898L138.781 212.901L138.787 212.902L138.802 212.906L138.803 212.906L138.804 212.906L138.81 212.908L138.821 212.91L138.826 212.911V212.911L138.828 212.911L138.837 212.913L138.842 212.913L138.844 212.914L138.845 212.914L138.853 212.915L138.859 212.916L138.86 212.916L138.863 212.917L138.864 212.917V212.917L138.869 212.917L138.873 212.918L138.876 212.918L138.879 212.918L138.88 212.919L138.882 212.919L138.885 212.919L138.889 212.92L138.892 212.92L138.895 212.92L138.896 212.92L138.899 212.92L138.902 212.921L138.905 212.921L138.91 212.921L138.911 212.921L138.913 212.921L138.915 212.921L138.918 212.922H138.921L138.926 212.922L138.927 212.922L138.929 212.922H138.933H138.934L138.937 212.922H138.942H138.943L138.946 212.922L138.95 212.922H138.952H138.953H138.958H138.959H138.962L138.968 212.922H138.969L138.974 212.922H138.977L138.978 212.922L138.984 212.921V212.921L138.986 212.921L138.991 212.921L138.993 212.921L138.996 212.921L138.999 212.92L139.002 212.92L139.004 212.92L139.007 212.92L139.009 212.92L139.012 212.919L139.013 212.919L139.018 212.919L139.023 212.918L139.026 212.918L139.028 212.918H139.029C139.072 212.913 139.113 212.904 139.152 212.891V212.891L139.153 212.89L139.162 212.888L139.165 212.887L139.168 212.886L139.174 212.884L139.177 212.882L139.178 212.882L139.184 212.88L139.2 212.874C139.205 212.872 139.21 212.87 139.215 212.868L139.223 212.863L139.229 212.861L139.238 212.857L139.24 212.856V212.856L139.245 212.854L139.253 212.85L139.254 212.849L139.256 212.848L139.26 212.846L139.261 212.845L139.263 212.844L139.266 212.843L139.269 212.841L139.272 212.84L139.273 212.839L139.275 212.838L139.276 212.838L139.279 212.835L139.283 212.833L139.286 212.832L139.288 212.83L139.289 212.83V212.829L139.294 212.827L139.298 212.825L139.301 212.823L139.304 212.821L139.308 212.818L139.311 212.816L139.314 212.814L139.318 212.812L139.321 212.81L139.326 212.807L139.329 212.805L139.332 212.803L139.334 212.8L139.339 212.797L139.342 212.795L139.345 212.793L139.348 212.791L139.352 212.788L139.356 212.784L139.358 212.783L139.359 212.782L139.365 212.778L139.368 212.776C139.386 212.767 139.402 212.758 139.419 212.748L139.429 212.741L139.431 212.74L139.432 212.739L139.442 212.733V212.732C139.526 212.678 139.597 212.604 139.65 212.514V212.513L139.651 212.51L139.656 212.504L139.657 212.502L139.659 212.499L139.663 212.49V212.489C139.689 212.44 139.71 212.387 139.723 212.331L139.726 212.316C139.736 212.274 139.74 212.231 139.74 212.189L139.788 210.607L150.137 108.745C150.174 108.379 149.907 108.052 149.54 108.015C149.174 107.978 148.847 108.244 148.809 108.609L140.356 191.812L143.518 87.0953C143.529 86.7284 143.24 86.4211 142.87 86.4109C142.502 86.3993 142.194 86.689 142.183 87.056L138.577 206.506L125.931 137.39C125.865 137.028 125.517 136.788 125.154 136.855C124.792 136.921 124.551 137.267 124.617 137.63L135.648 197.921L106.214 92.2835C106.115 91.9296 105.747 91.7214 105.392 91.8204C105.037 91.918 104.829 92.2849 104.927 92.6402L137.718 210.322L44.8594 130.696C44.58 130.456 44.1581 130.488 43.918 130.766C43.6778 131.045 43.7096 131.466 43.989 131.705L127.003 202.89Z" fill="white"/>
            <path fill-rule="evenodd" clip-rule="evenodd" d="M207.518 236.547L174.319 268.73L131.002 285.023L130.384 284.054L161.133 248.024L206.9 235.577L207.518 236.547Z" fill="#5C2D4B"/>
            <path fill-rule="evenodd" clip-rule="evenodd" d="M129.941 199.041L127.097 199.759L96.8018 235.258L104.585 247.478L106.41 246.406L130.384 284.054L161.134 248.023L129.941 199.041Z" fill="#EFAD79"/>
            <g filter="url(#filter7_ii_6931_113851)">
                <path fill-rule="evenodd" clip-rule="evenodd" d="M129.951 199.057L129.942 199.041L175.708 186.595L175.719 186.611L178.007 185.989L185.733 198.119L183.536 198.885L206.901 235.577L161.133 248.023L137.269 212.853L134.862 211.953L127.138 199.822L129.951 199.057Z" fill="#FCE29E"/>
            </g>
            <path fill-rule="evenodd" clip-rule="evenodd" d="M134.88 211.981L185.723 198.105L184.482 200.371L137.53 213.263L106.958 247.266L104.574 247.461L134.88 211.981Z" fill="#000949"/>
            <path fill-rule="evenodd" clip-rule="evenodd" d="M157.647 212.718C156.879 214.294 156.455 216.066 156.455 217.975C156.455 225.929 163.804 233.249 172.87 234.324C179.759 235.142 185.657 232.117 188.092 227.126L186.908 229.761C184.473 234.752 178.575 237.777 171.685 236.959C162.62 235.884 155.271 228.564 155.271 220.61C155.271 218.701 155.695 216.929 156.463 215.353L157.647 212.718Z" fill="#002E7A"/>
            <path d="M156.455 217.975C156.455 225.93 163.804 233.249 172.87 234.325C181.935 235.4 189.284 229.823 189.284 221.869C189.284 213.914 181.935 206.594 172.87 205.519C163.804 204.444 156.455 210.021 156.455 217.975Z" fill="white"/>
            <path d="M164.296 216.699C165.621 216.32 167.401 216.511 169.588 217.263C170.626 217.619 171.587 218.044 172.324 218.392C172.324 218.392 172.324 218.392 172.322 218.397L172.32 218.394C172.32 218.394 171.978 219.322 171.586 220.325C170.887 219.986 169.902 219.535 168.856 219.172C166.91 218.504 165.902 218.534 165.396 218.678C163.49 219.223 162.689 221.008 163.606 222.658C164.516 224.297 166.814 225.195 168.721 224.663C168.808 224.638 168.913 224.595 169.038 224.53C168.601 224.901 168.089 225.225 167.521 225.387C164.032 226.385 162.224 224.558 162.098 224.425C161.789 224.085 161.521 223.712 161.299 223.314C159.778 220.577 161.123 217.607 164.296 216.699Z" fill="url(#paint10_linear_6931_113851)"/>
            <path d="M182.015 223.162C180.69 223.541 178.91 223.351 176.722 222.599C175.685 222.243 174.724 221.818 173.986 221.469C173.986 221.469 173.986 221.469 173.988 221.465L173.991 221.468C173.991 221.468 174.333 220.539 174.725 219.537C175.423 219.876 176.409 220.327 177.454 220.69C179.4 221.358 180.409 221.328 180.915 221.183C182.818 220.635 183.62 218.85 182.703 217.2C181.792 215.561 179.495 214.663 177.587 215.196C177.501 215.22 177.396 215.263 177.27 215.329C177.708 214.958 178.219 214.633 178.787 214.471C182.277 213.473 184.08 215.301 184.209 215.43C184.519 215.774 184.786 216.142 185.007 216.541C186.532 219.284 185.188 222.255 182.015 223.162Z" fill="url(#paint11_linear_6931_113851)"/>
            <path d="M167.505 225.341C169.268 224.79 170.429 223.008 170.635 222.589C171.167 221.504 172.217 218.681 172.298 218.459C173.036 216.336 174.254 213.851 176.485 213.213L176.489 213.212L176.493 213.211C179.207 212.447 182.39 213.428 184.208 215.43C184.084 215.3 182.044 213.493 178.809 214.503C177.045 215.054 175.886 216.856 175.676 217.277C175.144 218.361 174.094 221.184 174.013 221.407C173.273 223.526 172.055 226.011 169.825 226.649L169.82 226.65L169.816 226.651C167.102 227.415 163.916 226.435 162.101 224.432C162.23 224.56 164.263 226.349 167.505 225.341Z" fill="#29ABE2"/>
            <path d="M192.088 200.943L212.929 234.38" stroke="white" stroke-width="1.29608"/>
            <path d="M366.246 140.488C387.241 155.737 400.893 180.481 400.893 208.414C400.893 254.748 363.332 292.308 316.999 292.308C298.599 292.308 281.582 286.384 267.752 276.34C246.757 261.092 233.105 236.347 233.105 208.414C233.105 162.081 270.666 124.521 316.999 124.521C335.399 124.521 352.416 130.444 366.246 140.488Z" fill="#0066FF"/>
            <path fill-rule="evenodd" clip-rule="evenodd" d="M392.143 202.057C392.143 174.135 378.502 149.399 357.521 134.149L366.246 140.489C387.241 155.737 400.893 180.481 400.893 208.414C400.893 254.748 363.332 292.308 316.999 292.308C316.999 292.308 316.999 292.308 316.999 292.308C298.599 292.308 281.582 286.384 267.752 276.34L259.002 269.983C272.832 280.027 289.849 285.951 308.249 285.951C308.249 285.951 308.249 285.951 308.249 285.951C354.582 285.951 392.143 248.39 392.143 202.057Z" fill="#0754C8"/>
            <path fill-rule="evenodd" clip-rule="evenodd" d="M309.136 249.342L304.839 257.423C304.197 258.63 302.727 259.159 301.468 258.623C298.599 257.402 295.708 256.103 292.801 254.74C291.466 254.115 290.941 252.517 291.633 251.216L295.523 243.9C294.344 243.342 293.162 242.762 291.979 242.162C290.914 241.616 289.863 241.063 288.828 240.501L284.938 247.815C284.247 249.115 282.611 249.611 281.322 248.901C278.513 247.354 275.766 245.786 273.097 244.19C271.924 243.489 271.521 242.005 272.164 240.797L276.439 232.757C259.219 220.184 250.569 204.074 261.779 183.19L264.503 178.067C275.569 157.057 293.998 154.774 314.39 161.38L318.662 153.346C319.305 152.137 320.778 151.609 322.038 152.147C324.904 153.373 327.792 154.675 330.697 156.04C332.03 156.666 332.554 158.263 331.863 159.563L327.974 166.877C329.038 167.385 330.104 167.91 331.172 168.451C332.354 169.054 333.518 169.666 334.663 170.289L338.549 162.979C339.241 161.679 340.879 161.183 342.168 161.895C344.976 163.444 347.721 165.016 350.389 166.616C351.56 167.318 351.96 168.801 351.319 170.008L347.033 178.067C364.003 190.574 372.375 206.603 361.319 227.397L358.595 232.52C347.623 253.351 329.351 255.764 309.136 249.342ZM345.83 224.537L347.363 221.653C357.803 202.656 343.462 190.908 324.554 180.941C305.279 171.452 287.221 166.693 277.315 185.962L275.782 188.846C265.295 207.93 279.636 219.678 298.633 229.691C317.82 239.134 335.877 243.893 345.83 224.537Z" fill="white"/>
            <path fill-rule="evenodd" clip-rule="evenodd" d="M301.115 62.7672C301.704 60.3721 303.27 54.068 305.453 47.9715C303.922 48.0988 302.668 48.4657 301.933 49.1191C299.75 48.2462 297.745 48.0601 296.021 48.3899C293.832 52.6802 292.101 56.555 291.831 57.4072C293.391 60.298 296.701 61.9451 301.018 62.7294L301.115 62.7672ZM321.892 53.5435C321.371 52.6332 320.366 51.7837 319.07 51.0368C318.499 57.4614 317.308 63.8137 316.866 66.2589C321.029 67.4781 324.752 67.1485 327.455 65.3549C327.553 64.4586 327.618 60.2736 327.46 55.5078C325.981 54.3768 324.093 53.6681 321.892 53.5435ZM322.631 38.4288C323.058 39.9102 323.058 39.9102 322.631 38.4288V38.4288ZM307.637 35.1217C306.851 36.0258 306.851 36.0258 307.637 35.1217V35.1217Z" fill="#917BD2"/>
            <path fill-rule="evenodd" clip-rule="evenodd" d="M319.071 51.0357C315.426 48.935 309.474 47.6319 305.451 47.9705C303.269 54.0683 301.704 60.3731 301.113 62.7681C303.731 65.5749 314.6 67.7694 316.863 66.2597C317.307 63.812 318.5 57.46 319.071 51.0357ZM327.464 55.6182C327.614 60.2808 327.554 64.3667 327.458 65.3205C329.42 64.6317 330.698 63.6102 331.031 62.2951C331.211 61.4835 331.012 60.6176 330.489 59.735C329.906 58.0523 328.882 56.6054 327.492 55.533L327.46 55.5096L327.464 55.6182ZM291.524 51.0949C290.677 51.6746 290.131 52.3745 289.951 53.186L289.939 53.2433L289.931 53.2932L289.921 53.3412L289.914 53.3892L289.907 53.4409L289.901 53.4962L289.896 53.546L289.892 53.5958L289.889 53.6438L289.888 53.6862L289.887 53.7359L289.886 53.7856L289.886 53.8004C289.886 53.8298 289.887 53.863 289.887 53.8924L289.89 53.9421L289.892 53.9587C289.893 53.9955 289.897 54.0322 289.9 54.0709L289.904 54.1187L289.906 54.1352C289.91 54.1609 289.913 54.1885 289.917 54.2142L289.925 54.2657L289.931 54.3006C290.103 55.3032 290.765 56.3566 291.833 57.4068C292.102 56.5551 293.834 52.6804 296.023 48.3891C294.149 48.7504 292.607 49.723 291.524 51.0949Z" fill="url(#paint12_linear_6931_113851)"/>
            <path fill-rule="evenodd" clip-rule="evenodd" d="M296.464 39.2169C293.178 42.2919 290.733 46.406 289.671 51.1963C289.436 52.2591 289.54 53.3011 289.932 54.308C289.865 53.9272 289.87 53.5527 289.951 53.1883C290.132 52.3741 290.674 51.6748 291.523 51.097C291.537 50.8132 291.576 50.527 291.641 50.2404C292.502 46.3535 294.171 42.4 296.464 39.2169ZM331.224 47.376C331.805 51.1024 331.569 55.1925 330.745 58.9105C330.682 59.199 330.596 59.4727 330.491 59.7354C331.012 60.6191 331.21 61.4836 331.031 62.2959C330.95 62.6603 330.795 63.0014 330.574 63.319C331.354 62.5704 331.89 61.6726 332.126 60.6098C333.145 56.0092 332.745 51.4307 331.224 47.376ZM321.891 53.5442C325.349 37.6238 321.542 33.7645 316.076 32.552C310.61 31.3395 305.526 33.229 301.932 49.1196C305.288 46.1455 319.35 49.0945 321.891 53.5442Z" fill="url(#paint13_linear_6931_113851)"/>
            <path fill-rule="evenodd" clip-rule="evenodd" d="M321.051 35.3023C323.338 38.0729 324.114 43.3228 321.892 53.5425C326.189 53.7833 329.286 56.2556 330.49 59.7338C330.596 59.4723 330.682 59.1978 330.745 58.9103C332.902 49.1862 331.031 36.9024 321.051 35.3023ZM310.401 32.942C300.999 30.3793 293.797 40.5168 291.641 50.2408C291.577 50.5284 291.538 50.8135 291.525 51.0945C293.602 48.4604 297.375 47.2969 301.932 49.1182C304.239 38.9162 307.162 34.4862 310.401 32.942Z" fill="#CCBBFF"/>
            <path fill-rule="evenodd" clip-rule="evenodd" d="M306.942 80.3446L316.697 66.1098C316.758 66.0242 316.874 66.002 316.961 66.0612C317.047 66.1186 317.069 66.2378 317.011 66.3234L305.916 82.5102L330.295 59.4947C330.371 59.4235 330.491 59.427 330.562 59.503C330.633 59.5791 330.63 59.6987 330.554 59.7699L308.298 80.7798L327.337 65.204C327.416 65.1364 327.534 65.1491 327.602 65.2289C327.668 65.3106 327.655 65.4285 327.575 65.4961L304.794 84.1348L304.792 84.1367L304.79 84.1385L304.788 84.1404L304.784 84.1405L304.781 84.1442L304.777 84.1479L304.772 84.1499L304.77 84.1518L304.764 84.1537L304.761 84.1574L304.755 84.1593L304.754 84.1612L304.75 84.1613L304.746 84.165L304.743 84.1651L304.741 84.167L304.737 84.167L304.732 84.169L304.73 84.1708L304.728 84.169L304.724 84.1727L304.721 84.1728L304.719 84.1747L304.717 84.1729L304.715 84.1747C304.702 84.1768 304.689 84.1789 304.678 84.179L304.675 84.1791L304.671 84.1792L304.669 84.181L304.664 84.1793L304.66 84.1794L304.656 84.1794L304.651 84.1777L304.647 84.1777L304.643 84.1778L304.642 84.176L304.638 84.1761L304.634 84.1761L304.632 84.1743L304.629 84.1744L304.625 84.1744L304.623 84.1726L304.62 84.1727L304.618 84.1709L304.614 84.1709L304.612 84.1691C304.605 84.1692 304.599 84.1675 304.594 84.1658L304.59 84.1658L304.586 84.1659C304.559 84.1571 304.533 84.1466 304.51 84.1285L304.506 84.1249L304.503 84.1213C304.492 84.1105 304.482 84.0977 304.473 84.085L304.471 84.0795C304.465 84.0704 304.458 84.0595 304.454 84.0486L304.288 83.632L291.701 57.4875C291.657 57.3945 291.698 57.2816 291.789 57.2359C291.884 57.1902 291.997 57.2306 292.042 57.3254L302.323 78.6789L291.371 51.0833C291.332 50.9846 291.38 50.8752 291.475 50.8369C291.574 50.7984 291.683 50.8463 291.721 50.9413L304.215 82.4212L300.901 62.7895C300.884 62.6868 300.954 62.5882 301.057 62.5717C301.158 62.5535 301.256 62.6235 301.273 62.7263L304.164 79.8544L301.786 48.8716C301.779 48.7669 301.854 48.6773 301.959 48.6701C302.062 48.661 302.153 48.7385 302.163 48.8414L304.812 83.3565L321.8 53.1949C321.85 53.1058 321.967 53.0744 322.057 53.1244C322.148 53.1762 322.181 53.2915 322.129 53.3825L306.942 80.3446Z" fill="white"/>
            <path fill-rule="evenodd" clip-rule="evenodd" d="M288.792 97.0692L300.725 102.445L313.81 102.614L313.881 102.297L302.23 95.6602L288.864 96.7519L288.792 97.0692Z" fill="#5154B1"/>
            <path fill-rule="evenodd" clip-rule="evenodd" d="M305.79 79.6026L306.613 79.5201L318.093 86.0601L317.206 90.0661L316.617 89.9558L313.881 102.298L302.229 95.6593L305.79 79.6026Z" fill="#A29CEB"/>
            <g filter="url(#filter8_i_6931_113851)">
                <path fill-rule="evenodd" clip-rule="evenodd" d="M305.788 79.608L305.79 79.6027L292.424 80.6967L292.424 80.7002L291.755 80.7552L290.873 84.7328L291.53 84.7252L288.865 96.7525L302.23 95.6585L305.175 83.99L305.728 83.5175L306.608 79.5417L305.788 79.608Z" fill="#D6C1FF"/>
            </g>
            <path fill-rule="evenodd" clip-rule="evenodd" d="M305.727 83.5281L290.875 84.7261L291.422 85.2107L305.147 84.1238L316.554 90.238L317.206 90.0618L305.727 83.5281Z" fill="#5154B1"/>
            <path fill-rule="evenodd" clip-rule="evenodd" d="M298.975 86.0214C299.628 86.5404 300.123 88.0366 300.003 89.1488C299.788 91.1348 298.145 93.0303 296.332 93.3826C295.535 93.5376 294.837 93.3679 294.324 92.9602L294.913 93.4595C295.425 93.8673 296.243 94.2228 297.041 94.0678C298.854 93.7156 300.61 91.7606 300.825 89.7746C300.965 88.4717 300.216 87.0398 299.563 86.5208L298.975 86.0214Z" fill="#5154B1"/>
            <g clip-path="url(#clip2_6931_113851)">
                <g clip-path="url(#clip3_6931_113851)">
                    <path d="M296.21 85.6305C298.078 84.8683 299.849 86.0143 300.166 88.1897C300.482 90.3651 299.224 92.7471 297.356 93.5093C295.488 94.2715 293.716 93.1256 293.4 90.9501C293.084 88.7747 294.342 86.3927 296.21 85.6305Z" fill="#EDE4FF"/>
                    <path d="M298.408 88.4144C298.117 88.4109 297.764 88.5493 297.36 88.8253C297.169 88.9561 296.997 89.0966 296.866 89.2091C296.866 89.2091 296.866 89.2091 296.866 89.21L296.867 89.2091C296.867 89.2091 296.988 89.3799 297.125 89.5629C297.248 89.4547 297.424 89.3073 297.617 89.1748C297.976 88.9294 298.183 88.8791 298.295 88.8805C298.714 88.8854 298.977 89.2056 298.883 89.5941C298.789 89.9801 298.371 90.2922 297.952 90.2898C297.933 90.2896 297.909 90.2867 297.88 90.2803C297.99 90.3317 298.112 90.3695 298.237 90.371C299.005 90.3801 299.271 89.9055 299.289 89.8711C299.333 89.7844 299.367 89.6932 299.39 89.5993C299.547 88.9549 299.106 88.4227 298.408 88.4144Z" fill="url(#paint14_linear_6931_113851)"/>
                    <path d="M295.157 90.7257C295.449 90.7291 295.801 90.5908 296.205 90.3148C296.396 90.184 296.569 90.0435 296.699 89.931C296.699 89.931 296.699 89.931 296.699 89.9301L296.699 89.931C296.699 89.931 296.577 89.7602 296.441 89.5772C296.317 89.6854 296.141 89.8328 295.949 89.9653C295.589 90.2107 295.382 90.2609 295.27 90.2596C294.852 90.2538 294.588 89.9336 294.683 89.5451C294.777 89.1591 295.195 88.847 295.614 88.8494C295.633 88.8496 295.657 88.8525 295.686 88.8589C295.576 88.8075 295.453 88.7697 295.328 88.7682C294.561 88.7591 294.296 89.2338 294.276 89.2672C294.232 89.3548 294.199 89.4452 294.176 89.5391C294.019 90.1852 294.459 90.7174 295.157 90.7257Z" fill="url(#paint15_linear_6931_113851)"/>
                    <path d="M298.238 90.3605C297.847 90.3464 297.511 90.0469 297.445 89.9727C297.276 89.7807 296.904 89.2622 296.875 89.2212C296.605 88.8284 296.218 88.3884 295.727 88.3825L295.726 88.3825L295.725 88.3825C295.129 88.378 294.535 88.7563 294.276 89.2673C294.294 89.2338 294.609 88.7503 295.325 88.7761C295.716 88.7902 296.053 89.094 296.12 89.1682C296.289 89.3603 296.661 89.8788 296.69 89.9197C296.96 90.3117 297.347 90.7517 297.838 90.7576L297.839 90.7576L297.84 90.7576C298.436 90.7621 299.031 90.3838 299.289 89.8728C299.27 89.9062 298.955 90.3855 298.238 90.3605Z" fill="#29ABE2"/>
                </g>
            </g>
        </g>
    </g>
    <defs>
        <filter id="filter0_d_6931_113851" x="-1.5" y="-1" width="644" height="404" filterUnits="userSpaceOnUse" color-interpolation-filters="sRGB">
            <feFlood flood-opacity="0" result="BackgroundImageFix"/>
            <feColorMatrix in="SourceAlpha" type="matrix" values="0 0 0 0 0 0 0 0 0 0 0 0 0 0 0 0 0 0 127 0" result="hardAlpha"/>
            <feOffset dy="1"/>
            <feGaussianBlur stdDeviation="1"/>
            <feComposite in2="hardAlpha" operator="out"/>
            <feColorMatrix type="matrix" values="0 0 0 0 0 0 0 0 0 0 0 0 0 0 0 0 0 0 0.1 0"/>
            <feBlend mode="normal" in2="BackgroundImageFix" result="effect1_dropShadow_6931_113851"/>
            <feBlend mode="normal" in="SourceGraphic" in2="effect1_dropShadow_6931_113851" result="shape"/>
        </filter>
        <filter id="filter1_f_6931_113851" x="-206.484" y="128.28" width="585.857" height="391.797" filterUnits="userSpaceOnUse" color-interpolation-filters="sRGB">
            <feFlood flood-opacity="0" result="BackgroundImageFix"/>
            <feBlend mode="normal" in="SourceGraphic" in2="BackgroundImageFix" result="shape"/>
            <feGaussianBlur stdDeviation="62" result="effect1_foregroundBlur_6931_113851"/>
        </filter>
        <filter id="filter2_f_6931_113851" x="120.663" y="128.28" width="585.857" height="391.797" filterUnits="userSpaceOnUse" color-interpolation-filters="sRGB">
            <feFlood flood-opacity="0" result="BackgroundImageFix"/>
            <feBlend mode="normal" in="SourceGraphic" in2="BackgroundImageFix" result="shape"/>
            <feGaussianBlur stdDeviation="62" result="effect1_foregroundBlur_6931_113851"/>
        </filter>
        <filter id="filter3_f_6931_113851" x="268.542" y="128.28" width="585.857" height="391.797" filterUnits="userSpaceOnUse" color-interpolation-filters="sRGB">
            <feFlood flood-opacity="0" result="BackgroundImageFix"/>
            <feBlend mode="normal" in="SourceGraphic" in2="BackgroundImageFix" result="shape"/>
            <feGaussianBlur stdDeviation="62" result="effect1_foregroundBlur_6931_113851"/>
        </filter>
        <filter id="filter4_f_6931_113851" x="-55.9634" y="182.924" width="486.127" height="391.797" filterUnits="userSpaceOnUse" color-interpolation-filters="sRGB">
            <feFlood flood-opacity="0" result="BackgroundImageFix"/>
            <feBlend mode="normal" in="SourceGraphic" in2="BackgroundImageFix" result="shape"/>
            <feGaussianBlur stdDeviation="62" result="effect1_foregroundBlur_6931_113851"/>
        </filter>
        <filter id="filter5_i_6931_113851" x="459.282" y="218.592" width="92.5654" height="122.638" filterUnits="userSpaceOnUse" color-interpolation-filters="sRGB">
            <feFlood flood-opacity="0" result="BackgroundImageFix"/>
            <feBlend mode="normal" in="SourceGraphic" in2="BackgroundImageFix" result="shape"/>
            <feColorMatrix in="SourceAlpha" type="matrix" values="0 0 0 0 0 0 0 0 0 0 0 0 0 0 0 0 0 0 127 0" result="hardAlpha"/>
            <feOffset dx="1.45759" dy="4.37278"/>
            <feComposite in2="hardAlpha" operator="arithmetic" k2="-1" k3="1"/>
            <feColorMatrix type="matrix" values="0 0 0 0 0 0 0 0 0 0 0 0 0 0 0 0 0 0 0.25 0"/>
            <feBlend mode="normal" in2="shape" result="effect1_innerShadow_6931_113851"/>
        </filter>
        <filter id="filter6_ii_6931_113851" x="393.429" y="199.764" width="114.769" height="90.9459" filterUnits="userSpaceOnUse" color-interpolation-filters="sRGB">
            <feFlood flood-opacity="0" result="BackgroundImageFix"/>
            <feBlend mode="normal" in="SourceGraphic" in2="BackgroundImageFix" result="shape"/>
            <feColorMatrix in="SourceAlpha" type="matrix" values="0 0 0 0 0 0 0 0 0 0 0 0 0 0 0 0 0 0 127 0" result="hardAlpha"/>
            <feOffset dy="1.45759"/>
            <feGaussianBlur stdDeviation="5.10158"/>
            <feComposite in2="hardAlpha" operator="arithmetic" k2="-1" k3="1"/>
            <feColorMatrix type="matrix" values="0 0 0 0 1 0 0 0 0 1 0 0 0 0 1 0 0 0 0.19 0"/>
            <feBlend mode="normal" in2="shape" result="effect1_innerShadow_6931_113851"/>
            <feColorMatrix in="SourceAlpha" type="matrix" values="0 0 0 0 0 0 0 0 0 0 0 0 0 0 0 0 0 0 127 0" result="hardAlpha"/>
            <feOffset dy="0.728797"/>
            <feComposite in2="hardAlpha" operator="arithmetic" k2="-1" k3="1"/>
            <feColorMatrix type="matrix" values="0 0 0 0 1 0 0 0 0 1 0 0 0 0 1 0 0 0 1 0"/>
            <feBlend mode="normal" in2="effect1_innerShadow_6931_113851" result="effect2_innerShadow_6931_113851"/>
        </filter>
        <filter id="filter7_ii_6931_113851" x="127.138" y="185.989" width="79.7632" height="63.33" filterUnits="userSpaceOnUse" color-interpolation-filters="sRGB">
            <feFlood flood-opacity="0" result="BackgroundImageFix"/>
            <feBlend mode="normal" in="SourceGraphic" in2="BackgroundImageFix" result="shape"/>
            <feColorMatrix in="SourceAlpha" type="matrix" values="0 0 0 0 0 0 0 0 0 0 0 0 0 0 0 0 0 0 127 0" result="hardAlpha"/>
            <feOffset dy="1.29608"/>
            <feGaussianBlur stdDeviation="4.53627"/>
            <feComposite in2="hardAlpha" operator="arithmetic" k2="-1" k3="1"/>
            <feColorMatrix type="matrix" values="0 0 0 0 1 0 0 0 0 1 0 0 0 0 1 0 0 0 0.19 0"/>
            <feBlend mode="normal" in2="shape" result="effect1_innerShadow_6931_113851"/>
            <feColorMatrix in="SourceAlpha" type="matrix" values="0 0 0 0 0 0 0 0 0 0 0 0 0 0 0 0 0 0 127 0" result="hardAlpha"/>
            <feOffset dy="0.648039"/>
            <feComposite in2="hardAlpha" operator="arithmetic" k2="-1" k3="1"/>
            <feColorMatrix type="matrix" values="0 0 0 0 1 0 0 0 0 1 0 0 0 0 1 0 0 0 1 0"/>
            <feBlend mode="normal" in2="effect1_innerShadow_6931_113851" result="effect2_innerShadow_6931_113851"/>
        </filter>
        <filter id="filter8_i_6931_113851" x="288.865" y="79.5417" width="17.7437" height="18.2107" filterUnits="userSpaceOnUse" color-interpolation-filters="sRGB">
            <feFlood flood-opacity="0" result="BackgroundImageFix"/>
            <feBlend mode="normal" in="SourceGraphic" in2="BackgroundImageFix" result="shape"/>
            <feColorMatrix in="SourceAlpha" type="matrix" values="0 0 0 0 0 0 0 0 0 0 0 0 0 0 0 0 0 0 127 0" result="hardAlpha"/>
            <feOffset dy="1"/>
            <feGaussianBlur stdDeviation="3.5"/>
            <feComposite in2="hardAlpha" operator="arithmetic" k2="-1" k3="1"/>
            <feColorMatrix type="matrix" values="0 0 0 0 1 0 0 0 0 1 0 0 0 0 1 0 0 0 0.19 0"/>
            <feBlend mode="normal" in2="shape" result="effect1_innerShadow_6931_113851"/>
        </filter>
        <linearGradient id="paint0_linear_6931_113851" x1="320" y1="-43.9258" x2="320" y2="400" gradientUnits="userSpaceOnUse">
            <stop stop-color="#4340C7"/>
            <stop offset="0.526006" stop-color="#B287B6"/>
            <stop offset="1" stop-color="#FECCA4"/>
        </linearGradient>
        <linearGradient id="paint1_linear_6931_113851" x1="572.851" y1="-60.4118" x2="812.853" y2="59.3362" gradientUnits="userSpaceOnUse">
            <stop stop-color="white"/>
            <stop offset="1" stop-color="white" stop-opacity="0"/>
        </linearGradient>
        <linearGradient id="paint2_linear_6931_113851" x1="573.699" y1="-57.9988" x2="810.487" y2="67.9853" gradientUnits="userSpaceOnUse">
            <stop stop-color="white"/>
            <stop offset="1" stop-color="white" stop-opacity="0"/>
        </linearGradient>
        <linearGradient id="paint3_linear_6931_113851" x1="579.114" y1="68.8686" x2="523.725" y2="144.664" gradientUnits="userSpaceOnUse">
            <stop stop-color="#3579DE"/>
            <stop offset="1" stop-color="#F0E2FF"/>
        </linearGradient>
        <linearGradient id="paint4_linear_6931_113851" x1="669.933" y1="381.389" x2="707.879" y2="467.254" gradientUnits="userSpaceOnUse">
            <stop stop-color="#3579DE"/>
            <stop offset="1" stop-color="#E2EEFF"/>
        </linearGradient>
        <linearGradient id="paint5_linear_6931_113851" x1="593.69" y1="81.2584" x2="654.18" y2="-14.9429" gradientUnits="userSpaceOnUse">
            <stop stop-color="#0066FF"/>
            <stop offset="1" stop-color="#003D99"/>
        </linearGradient>
        <linearGradient id="paint6_linear_6931_113851" x1="449.896" y1="243.776" x2="455.216" y2="257.47" gradientUnits="userSpaceOnUse">
            <stop offset="0.21" stop-color="#F15A24"/>
            <stop offset="0.6841" stop-color="#FBB03B"/>
        </linearGradient>
        <linearGradient id="paint7_linear_6931_113851" x1="434.075" y1="253.679" x2="428.755" y2="239.985" gradientUnits="userSpaceOnUse">
            <stop offset="0.21" stop-color="#ED1E79"/>
            <stop offset="0.8929" stop-color="#522785"/>
        </linearGradient>
        <linearGradient id="paint8_linear_6931_113851" x1="77.8524" y1="95.2516" x2="116.218" y2="147.887" gradientUnits="userSpaceOnUse">
            <stop stop-color="#D6C8A1"/>
            <stop offset="1" stop-color="#F7E2FF"/>
        </linearGradient>
        <linearGradient id="paint9_linear_6931_113851" x1="67.7218" y1="103.84" x2="25.8364" y2="37.0551" gradientUnits="userSpaceOnUse">
            <stop stop-color="#E8D77E"/>
            <stop offset="1" stop-color="#B0724F"/>
        </linearGradient>
        <linearGradient id="paint10_linear_6931_113851" x1="167.657" y1="216.498" x2="163.977" y2="225.997" gradientUnits="userSpaceOnUse">
            <stop offset="0.21" stop-color="#F15A24"/>
            <stop offset="0.6841" stop-color="#FBB03B"/>
        </linearGradient>
        <linearGradient id="paint11_linear_6931_113851" x1="178.653" y1="223.364" x2="182.334" y2="213.864" gradientUnits="userSpaceOnUse">
            <stop offset="0.21" stop-color="#ED1E79"/>
            <stop offset="0.8929" stop-color="#522785"/>
        </linearGradient>
        <linearGradient id="paint12_linear_6931_113851" x1="312.597" y1="46.3532" x2="308.348" y2="62.6616" gradientUnits="userSpaceOnUse">
            <stop stop-color="#A48DE7"/>
            <stop offset="1" stop-color="#BDADEC"/>
        </linearGradient>
        <linearGradient id="paint13_linear_6931_113851" x1="316.896" y1="52.4976" x2="338.523" y2="47.1161" gradientUnits="userSpaceOnUse">
            <stop stop-color="#957AE2"/>
            <stop offset="1" stop-color="#6452AE"/>
        </linearGradient>
        <linearGradient id="paint14_linear_6931_113851" x1="297.711" y1="88.5611" x2="298.997" y2="90.2954" gradientUnits="userSpaceOnUse">
            <stop offset="0.21" stop-color="#F15A24"/>
            <stop offset="0.6841" stop-color="#FBB03B"/>
        </linearGradient>
        <linearGradient id="paint15_linear_6931_113851" x1="295.854" y1="90.579" x2="294.568" y2="88.8446" gradientUnits="userSpaceOnUse">
            <stop offset="0.21" stop-color="#ED1E79"/>
            <stop offset="0.8929" stop-color="#522785"/>
        </linearGradient>
        <clipPath id="clip0_6931_113851">
            <rect width="640" height="400" fill="white" transform="translate(0.5)"/>
        </clipPath>
        <clipPath id="clip1_6931_113851">
            <rect width="640" height="400" fill="white" transform="translate(0.5)"/>
        </clipPath>
        <clipPath id="clip2_6931_113851">
            <path d="M293.34 90.5359C293.057 88.589 294.342 86.3928 296.21 85.6305C298.079 84.8682 299.822 85.8285 300.105 87.7754L300.226 88.6039C300.509 90.5508 299.224 92.747 297.356 93.5093C295.487 94.2716 293.743 93.3113 293.46 91.3644L293.34 90.5359Z" fill="white"/>
        </clipPath>
        <clipPath id="clip3_6931_113851">
            <rect width="7.21626" height="8.06421" fill="white" transform="matrix(0.937526 -0.382534 0.142014 0.977008 292.828 87.0107)"/>
        </clipPath>
    </defs>
</svg>
