<svg width="361" height="249" viewBox="0 0 361 249" fill="none" xmlns="http://www.w3.org/2000/svg">
<rect width="361" height="249" fill="white"/>
<path opacity="0.2" d="M293.767 58.8418C289.57 58.8418 285.769 60.3046 282.988 62.6714C283.025 62.2598 283.061 61.8482 283.061 61.4286C283.061 52.4749 274.72 45.2169 264.432 45.2169C262.674 45.2169 260.979 45.4433 259.367 45.8395C255.516 38.2936 246.835 33.0288 236.736 33.0288C233.412 33.0288 230.242 33.6029 227.345 34.6379C220.981 28.71 211.925 25.0001 201.868 25.0001C182.611 25.0001 167 38.5855 167 55.3446C167 72.1038 182.611 85.6899 201.868 85.6899C201.898 85.6899 201.927 85.6875 201.956 85.6875H293.767C302.25 85.6875 309.125 79.7362 309.19 72.3698V72.2647C309.19 64.8498 302.287 58.8418 293.767 58.8418Z" fill="url(#paint0_linear_6815_101143)"/>
<path opacity="0.2" d="M182.477 162.237C180.565 162.237 178.775 162.808 177.227 163.789C174.206 159.786 169.67 157.227 164.58 157.227C160.615 157.227 156.978 158.774 154.134 161.348C150.822 153.966 143.933 148.889 135.966 148.889C131.932 148.889 128.176 150.196 125.018 152.439C121.288 135.545 107.498 123 91.0471 123C75.539 123 62.3971 134.15 57.816 149.582C52.0721 151.196 47.3225 155.528 44.7197 161.254C44.0229 161.094 43.302 161.009 42.5628 161.009C36.7288 161.009 32 166.231 32 172.671C32 172.783 32.0119 172.89 32.0147 173H193C192.582 166.981 188.035 162.237 182.477 162.237Z" fill="url(#paint1_linear_6815_101143)"/>
<path opacity="0.1" d="M253.051 125.248C253.051 129.253 249.755 132.498 245.688 132.498H235.361C231.296 132.498 228 129.253 228 125.248C228 121.245 231.296 118 235.361 118H245.688C249.755 118 253.051 121.245 253.051 125.248Z" fill="url(#paint2_linear_6815_101143)"/>
<path opacity="0.1" d="M131.05 211.132C131.05 215.137 127.754 218.382 123.687 218.382H101.359C97.2942 218.382 93.9985 215.137 93.9985 211.132C93.9985 207.129 97.2942 203.884 101.359 203.884H123.687C127.754 203.884 131.05 207.129 131.05 211.132Z" fill="url(#paint3_linear_6815_101143)"/>
<path d="M80.1985 73.2126C80.2663 73.2232 80.2765 73.2573 80.2466 73.3197C80.229 73.3413 80.1587 73.3073 80.1587 73.3073C80.1587 73.3073 80.1631 73.2294 80.1985 73.2126Z" fill="#F0A354"/>
<path d="M80.1348 73.668C80.2027 73.687 80.2087 73.7201 80.172 73.7754C80.1526 73.7933 80.0834 73.7554 80.0834 73.7554C80.0834 73.7554 80.0964 73.6777 80.1348 73.668Z" fill="#F0A354"/>
<path d="M114.389 88.3881C114.403 88.2737 115.28 87.2739 115.183 87.1922C116.447 82.268 119.603 78.6385 123.336 75.4454C127.519 71.867 132.275 69.3159 137.608 67.8919C142.993 66.4542 148.414 66.6175 153.967 67.6608C154.571 67.8827 155.055 68.0261 155.537 68.1773C156.635 68.5216 158.118 68.4509 159.581 68.7004C161.643 69.0523 163.736 69.7167 165.264 70.2591C166.886 70.8346 167.498 71.4772 169.106 72.2669C169.263 75.6099 169.85 79.0318 170.304 82.6754C168.571 83.9515 165.185 85.348 163.497 86.5549C162.231 87.4601 160.86 88.2199 159.607 89.1405C156.259 91.5984 152.921 94.0737 150.335 97.0357C148.728 96.5374 147.315 95.9448 145.843 95.6772C143.296 95.2142 140.719 94.7392 138.142 94.6636C135.272 94.5793 132.374 94.8076 129.515 95.1349C126.613 95.467 123.439 96.4804 120.502 96.9113C118.516 94.2377 115.034 89.0198 114.389 88.3881Z" fill="url(#paint4_linear_6815_101143)"/>
<path d="M114.621 88.6436C116.568 91.0139 118.85 94.5646 120.474 96.8769C120.448 97.2866 117.232 97.703 116.821 97.8311C111.098 99.1716 105.677 101.07 100.509 103.657C93.0373 107.398 89.1186 110.437 83.5406 116.431C83.3333 115.77 83.179 116.868 82.9533 116.13C82.8133 113.763 82.5279 111.485 82.6247 109.223C82.7478 106.344 83.1537 103.476 83.487 100.609C83.8478 97.5058 84.7617 94.3582 86.212 91.607C88.5231 87.2229 92.2996 84.9057 97.2251 84.5684C104.321 84.0825 109.098 86.6162 114.621 88.6436Z" fill="url(#paint5_linear_6815_101143)"/>
<path d="M169.003 72.2878C170.113 70.4238 171.198 68.5683 172.829 67.0564C175.051 64.997 177.627 63.5086 180.365 62.3713C183.768 60.9578 187.585 60.1613 191.279 59.9239C197.168 59.5453 202.445 61.403 207.129 64.9359C211.199 68.0055 214.199 71.5533 217.102 75.691C217.004 76.0087 216.651 76.3772 216.431 76.6699C214.363 76.1959 212.38 75.5613 210.349 75.2068C203.034 73.9303 195.701 73.8973 188.386 75.2342C183.754 76.0808 179.465 77.9052 175.297 80.0301C173.643 80.8731 172.025 81.7845 170.306 82.6952C169.942 79.3786 169.284 78.636 168.999 72.2888C168.999 72.2888 169.003 72.2883 169.003 72.2878Z" fill="url(#paint6_linear_6815_101143)"/>
<path d="M130.602 59.2469C130.691 59.3074 130.726 59.3899 130.785 59.5347C130.692 59.6065 130.574 59.6161 130.412 59.5858C130.428 59.4536 130.488 59.3613 130.602 59.2469Z" fill="#D99823"/>
<path d="M79.7758 100.125C79.6782 92.8182 80.7956 85.6889 82.845 78.6862C84.5101 72.9963 86.8055 67.5803 89.7761 62.4538C94.6436 54.0538 100.864 46.8741 108.886 41.3188C114.36 37.5273 119.801 34.8465 125.41 33.2664C120.174 35.8114 116.418 39.8518 113.854 44.9819C111.97 48.7502 110.882 52.8 110.27 56.9718C109.204 64.2364 109.545 71.464 111.193 78.5878C111.929 81.7675 113.207 84.8219 114.282 88.1137C114.377 88.5224 114.891 88.7872 114.873 89.0113C111.53 87.5499 107.871 85.8014 104.298 85.2021C101.963 84.8103 99.5549 84.4087 97.2175 84.5688C92.2921 84.9061 88.6676 87.4883 86.3565 91.8725C84.9063 94.6236 83.8403 97.5062 83.4794 100.61C83.1461 103.477 82.7403 106.345 82.6171 109.223C82.5203 111.485 82.9589 114.159 83.0279 116.351C80.9731 111.204 80.2027 105.656 79.7758 100.125Z" fill="url(#paint7_linear_6815_101143)"/>
<path d="M156.564 30.1196C156.71 30.14 156.771 30.1971 156.838 30.2066C159.422 30.5719 162.007 30.9328 164.672 31.299C165.604 31.5828 166.44 31.9253 167.309 32.1306C172.322 33.3159 177.165 34.9806 181.76 37.3101C184.435 38.6666 187.157 39.9809 189.658 41.62C192.422 43.4316 195.001 45.5374 197.576 47.6204C199.374 49.0747 201.087 50.6468 202.727 52.2775C203.974 53.5169 205.056 54.9232 206.194 56.2704C206.916 57.1249 207.594 58.0155 208.309 58.8753C211.326 62.501 213.452 66.6694 215.524 70.8578C216.26 72.3465 216.7 73.9822 217.302 75.6401C217.33 75.7294 217.243 75.7654 217.139 75.7233C216.922 75.5395 216.799 75.4047 216.698 75.2551C214.012 71.2946 210.872 67.7734 207.029 64.8752C202.345 61.3422 197.153 59.6164 191.264 59.9949C187.57 60.2324 183.956 60.8972 180.554 62.3106C177.816 63.448 175.24 64.9364 173.018 66.9958C171.387 68.5077 170.238 70.4797 169.128 72.3432C167.891 69.1282 166.802 65.7611 165.457 62.5919C164.156 59.5257 162.741 56.5002 161.218 53.5379C160.037 51.2394 158.706 49.0033 157.266 46.8567C156.124 45.1535 154.783 43.5684 153.411 42.038C151.561 39.9741 149.756 37.8201 147.637 36.0592C145.279 34.0999 142.645 32.4354 139.556 31.7352C138.744 31.5512 137.932 31.3717 137.12 31.1902C137.113 31.0897 137.107 30.9892 137.1 30.8887C137.706 30.7764 138.308 30.6013 138.919 30.5624C141.912 30.3718 144.906 30.1444 147.904 30.0713C150.761 30.0016 153.622 30.1062 156.564 30.1196Z" fill="url(#paint8_linear_6815_101143)"/>
<path d="M85.2266 83.4659C86.9489 76.9996 89.3898 70.8252 92.6007 64.9588C97.8618 55.3464 104.683 47.0737 113.582 40.5844" stroke="#F0A354" stroke-opacity="0.4" stroke-width="1.07108" stroke-linecap="round" stroke-dasharray="4.28 4.28"/>
<path d="M199.925 53.417C194.967 48.9232 189.564 45.0645 183.682 41.8828C174.043 36.6694 163.822 33.4283 152.827 32.8126" stroke="#F0A354" stroke-opacity="0.4" stroke-width="1.07108" stroke-linecap="round" stroke-dasharray="4.28 4.28"/>
<path d="M138.577 31.2433C133.485 30.0045 124.205 33.3395 121.118 35.5692C113.822 40.8392 112.148 48.1787 111.638 50.3577C111.001 53.0815 110.177 55.0297 109.555 64.2041C108.943 73.2297 110.992 78.6677 112.007 81.9059C113.284 85.9797 114.26 89.4545 114.801 88.2575C124.704 66.3545 157.425 64.6845 169.335 72.6524C167.411 67.9783 166.818 63.6902 158.695 48.2252C153.003 37.3898 147.643 33.4489 138.577 31.2433Z" fill="url(#paint9_linear_6815_101143)"/>
<path d="M115.923 47.1443C115.286 49.8681 114.462 51.8163 113.839 60.9907C113.227 70.0163 115.276 75.4543 116.292 78.6924" stroke="white" stroke-opacity="0.4" stroke-width="1.07108" stroke-linecap="round" stroke-dasharray="4.28 4.28"/>
<path fill-rule="evenodd" clip-rule="evenodd" d="M171.21 165.661L113.881 88.2655L114.79 87.5989L171.627 164.422L149.782 96.9706L150.801 96.6406L172.447 163.479L168.324 71.5729L169.394 71.5279L173.591 165.194L216.535 74.8186L217.304 75.6861L173.384 168.13L83.0259 116.35L82.9078 115.048L171.21 165.661Z" fill="url(#paint10_linear_6815_101143)"/>
<g clip-path="url(#clip0_6815_101143)">
<circle cx="178.532" cy="182.964" r="32.4177" transform="rotate(-19.2943 178.532 182.964)" fill="white"/>
<circle cx="178.532" cy="182.964" r="31.3466" transform="rotate(-19.2943 178.532 182.964)" stroke="#F0A354" stroke-opacity="0.1" stroke-width="2.14216"/>
<path d="M185.63 169.602C183.349 170.401 181.264 172.416 179.425 175.59C178.553 177.095 177.877 178.616 177.39 179.814C177.39 179.814 177.39 179.814 177.4 179.819L177.397 179.812C177.397 179.812 179.148 180.725 181.067 181.689C181.517 180.542 182.188 178.96 183.062 177.439C184.698 174.616 186.072 173.66 186.944 173.355C190.223 172.207 193.777 173.821 194.873 176.949C195.96 180.057 194.182 183.537 190.917 184.704C190.768 184.756 190.569 184.802 190.311 184.838C191.408 184.905 192.538 184.837 193.515 184.495C199.521 182.392 199.354 178.145 199.335 177.84C199.266 177.077 199.101 176.31 198.836 175.554C197.02 170.365 191.091 167.691 185.63 169.602Z" fill="url(#paint11_linear_6815_101143)"/>
<path d="M171.257 195.815C173.537 195.016 175.623 193.001 177.461 189.827C178.334 188.322 179.01 186.801 179.496 185.602C179.496 185.602 179.496 185.602 179.487 185.598L179.489 185.605C179.489 185.605 177.739 184.692 175.819 183.728C175.37 184.875 174.699 186.456 173.824 187.978C172.189 190.8 170.814 191.757 169.943 192.062C166.661 193.203 163.107 191.589 162.012 188.461C160.924 185.353 162.703 181.873 165.968 180.706C166.116 180.654 166.315 180.608 166.573 180.572C165.476 180.505 164.347 180.573 163.369 180.915C157.363 183.018 157.537 187.263 157.547 187.563C157.618 188.333 157.781 189.093 158.045 189.849C159.867 195.052 165.796 197.726 171.257 195.815Z" fill="url(#paint12_linear_6815_101143)"/>
<path d="M193.473 184.416C190.372 185.416 186.347 184.162 185.489 183.8C183.269 182.864 177.936 180.098 177.517 179.879C173.575 177.747 168.491 175.602 164.652 176.946L164.645 176.949L164.638 176.951C159.984 178.604 157.151 183.069 157.548 187.563C157.531 187.265 157.698 182.815 163.384 180.98C166.485 179.98 170.536 181.264 171.401 181.623C173.621 182.559 178.955 185.325 179.373 185.544C183.313 187.669 188.397 189.814 192.236 188.47L192.243 188.468L192.25 188.465C196.903 186.813 199.744 182.345 199.34 177.853C199.35 178.154 199.164 182.572 193.473 184.416Z" fill="#29ABE2"/>
</g>
<defs>
<linearGradient id="paint0_linear_6815_101143" x1="276.5" y1="45" x2="238.095" y2="85.6899" gradientUnits="userSpaceOnUse">
<stop stop-color="#F0A354"/>
<stop offset="1" stop-color="#F0A354" stop-opacity="0"/>
</linearGradient>
<linearGradient id="paint1_linear_6815_101143" x1="34" y1="167" x2="106.845" y2="149.483" gradientUnits="userSpaceOnUse">
<stop stop-color="#F0A354"/>
<stop offset="1" stop-color="#F0A354" stop-opacity="0"/>
</linearGradient>
<linearGradient id="paint2_linear_6815_101143" x1="246.525" y1="118" x2="246.525" y2="132.498" gradientUnits="userSpaceOnUse">
<stop stop-color="#F0A354"/>
<stop offset="1" stop-color="#F0A354" stop-opacity="0"/>
</linearGradient>
<linearGradient id="paint3_linear_6815_101143" x1="112.524" y1="203.884" x2="112.524" y2="218.382" gradientUnits="userSpaceOnUse">
<stop stop-color="#F0A354"/>
<stop offset="1" stop-color="#F0A354" stop-opacity="0"/>
</linearGradient>
<linearGradient id="paint4_linear_6815_101143" x1="152.586" y1="96.9315" x2="135.762" y2="55.5968" gradientUnits="userSpaceOnUse">
<stop stop-color="#F0A354" stop-opacity="0.4"/>
<stop offset="1" stop-color="#F0A354"/>
</linearGradient>
<linearGradient id="paint5_linear_6815_101143" x1="106.804" y1="109.646" x2="103.38" y2="82.9017" gradientUnits="userSpaceOnUse">
<stop stop-color="#F0A354" stop-opacity="0"/>
<stop offset="1" stop-color="#F0A354"/>
</linearGradient>
<linearGradient id="paint6_linear_6815_101143" x1="199.355" y1="82.4897" x2="190.845" y2="49.5401" gradientUnits="userSpaceOnUse">
<stop stop-color="#F0A354" stop-opacity="0.4"/>
<stop offset="1" stop-color="#F0A354"/>
</linearGradient>
<linearGradient id="paint7_linear_6815_101143" x1="114.131" y1="106.6" x2="94.2022" y2="43.0294" gradientUnits="userSpaceOnUse">
<stop stop-color="#F0A354"/>
<stop offset="1" stop-color="#F0A354" stop-opacity="0"/>
</linearGradient>
<linearGradient id="paint8_linear_6815_101143" x1="187.166" y1="85.1695" x2="167.192" y2="21.4551" gradientUnits="userSpaceOnUse">
<stop stop-color="#F0A354"/>
<stop offset="1" stop-color="#F0A354" stop-opacity="0"/>
</linearGradient>
<linearGradient id="paint9_linear_6815_101143" x1="136.246" y1="60.4947" x2="124.187" y2="10.2115" gradientUnits="userSpaceOnUse">
<stop stop-color="#F0A354"/>
<stop offset="1" stop-color="#F0A354" stop-opacity="0"/>
</linearGradient>
<linearGradient id="paint10_linear_6815_101143" x1="150.357" y1="96.2273" x2="172.827" y2="168.304" gradientUnits="userSpaceOnUse">
<stop stop-color="#F0A354" stop-opacity="0"/>
<stop offset="1" stop-color="#F0A354"/>
</linearGradient>
<linearGradient id="paint11_linear_6815_101143" x1="180.907" y1="172.652" x2="198.969" y2="181.975" gradientUnits="userSpaceOnUse">
<stop offset="0.21" stop-color="#F15A24"/>
<stop offset="0.6841" stop-color="#FBB03B"/>
</linearGradient>
<linearGradient id="paint12_linear_6815_101143" x1="175.979" y1="192.765" x2="157.918" y2="183.442" gradientUnits="userSpaceOnUse">
<stop offset="0.21" stop-color="#ED1E79"/>
<stop offset="0.8929" stop-color="#522785"/>
</linearGradient>
<clipPath id="clip0_6815_101143">
<path d="M147.936 193.675C142.02 176.777 150.923 158.282 167.821 152.367C184.719 146.451 203.214 155.354 209.129 172.252C215.045 189.15 206.142 207.645 189.244 213.56C172.346 219.476 153.851 210.573 147.936 193.675Z" fill="white"/>
</clipPath>
</defs>
</svg>
