<svg xmlns="http://www.w3.org/2000/svg" width="361" height="249" fill="none" xmlns:v="https://vecta.io/nano"><g clip-path="url(#M)"><rect x=".005" width="361" height="249" rx="12" fill="url(#A)" fill-opacity=".7"/><g fill="#fff"><path opacity=".6" d="M179.244 406.85l56.35-414.737-112.376.62 56.026 430.43V406.85z"/><path opacity=".6" d="M181.769 355.281L-108 57.5 61.593-28.008l132.663 386.867-12.487-3.578z"/><path opacity=".6" d="M174.336 353.403L496.5 60.5 302.385-27.328 161.778 356.723l12.558-3.32z"/></g><g fill-rule="evenodd"><path d="M254.541 103.337c3.663-7.946 13.34-28.856 25.03-48.628-5.422-.577-10.028-.137-13.03 1.642v-.002c-7.021-4.503-13.873-6.5-20.096-6.501-10.503 13.478-19.131 25.807-20.637 28.598 3.487 11.111 13.919 19.07 28.424 24.7l.309.192zm78.55-18.195c-1.201-3.526-4.129-7.154-8.144-10.626-6.298 21.994-14.704 43.316-17.886 51.543 13.687 7.042 26.878 8.387 37.488 3.947.948-3.054 3.975-17.587 6.62-34.294-4.393-4.929-10.49-8.665-18.078-10.57zm12.711-52.151h-.001c.493 5.449.493 5.447.001 0zm-50.009-21.568c-3.341 2.624-3.341 2.623.001 0h-.001z" fill="url(#B)"/><path d="M324.947 74.514c-11.283-9.761-31.145-18.29-45.376-19.807-11.691 19.774-21.368 40.684-25.031 48.629 7.231 11.531 43.618 26.466 52.521 22.721 3.182-8.227 11.59-29.554 17.886-51.543zm26.161 21.584c-2.599 16.343-5.546 30.529-6.524 33.792 7.299-1.089 12.428-3.79 14.475-8.146 1.172-2.711 1.062-5.853-.168-9.279-.902-6.249-3.503-11.976-7.624-16.644l-.098-.111-.061.388zM228.96 56.253c-3.34 1.449-5.705 3.521-6.878 6.23l-.077.187-.067.166-.062.166-.06.166-.056.169-.061.195-.048.167-.047.17-.043.166-.035.149-.036.17-.035.168-.01.054-.056.325-.025.174-.007.054c-.018.131-.032.263-.046.394l-.014.175-.005.055-.016.287-.008.185-.003.125c-.072 3.606 1.529 7.718 4.542 12.092 1.506-2.789 10.135-15.12 20.638-28.597-6.766-.003-12.792 2.353-17.485 6.407z" fill="url(#C)"/><path d="M254.13 18.196c-13.504 8.508-24.777 21.197-31.688 37.173-1.532 3.542-1.863 7.239-1.178 11.005.025-1.373.293-2.676.818-3.89 1.173-2.709 3.538-4.78 6.877-6.231.241-.972.567-1.94.981-2.898 5.608-12.961 14.069-25.615 24.19-35.159zm115.603 51.717c-.475 13.365-4.038 27.459-9.401 39.853a18.37 18.37 0 0 1-1.441 2.7c1.23 3.427 1.34 6.569.167 9.278-.525 1.215-1.29 2.301-2.274 3.26 3.213-2.079 5.682-4.851 7.214-8.394 6.64-15.347 8.314-31.552 5.735-46.697zm-36.642 15.228c22.72-53.134 12.043-69.132-6.184-77.018S289.71 3.41 266.54 56.349c13.683-8.107 60.688 11.591 66.551 28.793z" fill="url(#D)"/><path d="M342.395 21.044c6.104 11.179 5.283 29.985-9.304 64.095 14.805 3.719 23.936 14.404 25.8 27.326a18.42 18.42 0 0 0 1.441-2.7c14.027-32.421 15.748-76.46-17.937-88.721zm-35.51-15.363c-31.039-15.231-62.918 15.25-76.945 47.672-.414.959-.74 1.926-.98 2.9 9.009-7.782 22.925-9.307 37.58.095 14.875-33.987 28.019-47.461 40.345-50.667z" fill="url(#E)"/><path d="M263.053 168.468l43.525-43.038a.67.67 0 0 1 .946.005.67.67 0 0 1-.005.948l-49.494 48.941 100.342-63.821a.67.67 0 0 1 .924.206.67.67 0 0 1-.206.925l-91.603 58.261 76.754-41.491c.325-.177.731-.056.907.27a.67.67 0 0 1-.271.907l-91.842 49.648-.001.001-.003.002-.003.001-.004.002-.001.001-.002.001-.002.001-.002.001-.002.002-.006.002-.001.001-.002.001-.003.001-.001.001-.003.001-.005.003-.003.001-.003.001h0l-.004.002-.009.005-.006.002-.014.006h-.001l-.002.001-.005.002-.01.004-.006.002h0-.001l-.008.003-.006.002h-.002l-.001.001-.007.002-.006.002h-.001l-.003.001-.001.001h0l-.005.001-.004.001-.003.001-.003.001h-.001-.001l-.003.001-.004.001-.003.001-.003.001h-.002l-.002.001h-.003l-.003.001-.004.001h-.002l-.001.001h-.003l-.003.001h-.003l-.004.001-.002.001h-.001l-.004.001h-.002-.003l-.004.001h-.002l-.002.001-.005.001h-.001-.002l-.004.001h-.001-.003l-.006.001h-.002l-.004.001h-.003-.001l-.006.001h0-.002l-.005.001h-.002-.003-.003l-.003.001h-.003-.002-.002-.003-.001l-.005.001h-.006-.003-.001-.002a.58.58 0 0 1-.125-.007h0-.002l-.009-.001-.003-.001-.003-.001h-.006l-.003-.001-.002-.001-.006-.001-.017-.003-.024-.007-.007-.001-.009-.003h-.001v-.001l-.007-.001-.007-.003h-.002l-.002-.001-.004-.001-.002-.001-.001-.001h-.003l-.004-.002h-.003l-.001-.002h-.002-.001l-.004-.002-.004-.002-.004-.001h-.001l-.002-.001h0l-.004-.002-.005-.002-.003-.001-.004-.001-.004-.002-.004-.002-.003-.002-.004-.001-.004-.002-.004-.002-.004-.001-.003-.002-.003-.002-.005-.002-.003-.002-.003-.002-.004-.001-.004-.003-.005-.002-.002-.001-.002-.002-.006-.003-.003-.001-.055-.02-.011-.005-.002-.001h-.002l-.011-.005h0a.69.69 0 0 1-.24-.184v-.002l-.002-.003-.005-.005-.002-.002-.002-.002-.005-.008-.001-.002c-.033-.044-.062-.094-.084-.147l-.005-.015a.49.49 0 0 1-.034-.123l-.298-1.563-26.315-99.497a.67.67 0 0 1 .476-.818.67.67 0 0 1 .818.475l21.494 81.272L228.434 56.11a.67.67 0 1 1 1.317-.249l22.412 118.019 1.62-70.606a.67.67 0 0 1 .685-.653.67.67 0 0 1 .654.685l-1.413 61.59 12.483-109.504a.67.67 0 0 1 .741-.589.67.67 0 0 1 .59.741l-13.908 121.989 79.391-93.66a.67.67 0 0 1 .943-.079.67.67 0 0 1 .078.944l-70.974 83.731z" fill="#8fbcff"/><path d="M120.213 83.296c-4.363-9.087-15.888-32.999-29.711-55.563 6.235-.762 11.549-.339 15.039 1.656v-.002c8.007-5.314 15.863-7.738 23.031-7.852 12.341 15.335 22.503 29.382 24.288 32.569-3.816 12.862-15.688 22.218-32.296 28.964l-.351.227zM29.402 63.756c1.32-4.083 4.628-8.316 9.189-12.387 7.652 25.221 17.72 49.63 21.534 59.048-15.638 8.36-30.809 10.147-43.11 5.224-1.148-3.5-4.896-20.186-8.245-39.383 4.972-5.757 11.928-10.17 20.633-12.502zM13.82 3.913h0c-.469 6.286-.469 6.284 0 0zm57.215-25.748c3.896 2.962 3.896 2.962-.001 0h.001z" fill="url(#F)"/><path d="M38.591 51.368C51.413 39.92 74.138 29.737 90.503 27.733c13.823 22.566 25.347 46.477 29.71 55.563-8.121 13.413-49.765 31.273-60.087 27.121-3.814-9.42-13.884-33.834-21.534-59.049zM8.847 76.703c3.289 18.778 6.939 35.066 8.126 38.806-8.428-1.122-14.385-4.141-16.821-9.122-1.399-3.101-1.33-6.722.026-10.691.926-7.215 3.819-13.858 8.482-19.309l.111-.13.078.445zM148.829 28.6c3.873 1.609 6.635 3.953 8.035 7.052l.092.214.08.19.075.191.071.19.068.193.074.223.059.192.057.195.052.191.043.17.045.195.043.193.012.062a10.77 10.77 0 0 1 .071.373l.032.2.009.062c.023.15.041.302.059.453l.02.202.007.063.023.33.013.213.006.144c.149 4.152-1.622 8.918-5.014 14.011-1.785-3.185-11.947-17.233-24.289-32.568 7.794-.125 14.777 2.48 20.257 7.065z" fill="url(#G)"/><path d="M119.148-14.785c15.709 9.557 28.923 23.97 37.173 42.247 1.829 4.052 2.276 8.305 1.555 12.655-.054-1.582-.386-3.077-1.013-4.466-1.399-3.099-4.161-5.442-8.034-7.053-.294-1.115-.687-2.225-1.182-3.321-6.694-14.829-16.668-29.252-28.499-40.063zM-13.08 46.875c.788 15.387 5.147 31.557 11.548 45.737.495 1.096 1.067 2.125 1.709 3.084-1.355 3.969-1.425 7.59-.026 10.69.627 1.389 1.528 2.626 2.679 3.713-3.739-2.337-6.633-5.485-8.462-9.538-7.925-17.558-10.146-36.194-7.449-53.686zm42.483 16.88C2.272 2.96 14.282-15.661 35.135-25.073s42.762-6.102 70.407 54.46c-15.908-9.091-69.697 14.447-76.139 34.368z" fill="url(#H)"/><path d="M17.528-9.91c-6.829 12.987-5.543 34.635 11.875 73.662C12.417 68.304 2.092 80.777.178 95.695a21.25 21.25 0 0 1-1.709-3.084C-18.274 55.519-21.051 4.822 17.528-9.91zm40.627-18.337c35.478-18.105 72.75 16.431 89.492 53.524.495 1.097.888 2.206 1.182 3.323-10.518-8.801-26.575-10.307-43.287.788C87.794-9.494 72.41-24.777 58.155-28.247z" fill="url(#I)"/><path d="M111.584 158.474l-50.913-48.789a.77.77 0 0 0-1.09.023c-.295.309-.284.796.023 1.092l57.896 55.48L.764 94.577c-.363-.222-.838-.108-1.061.254s-.109.838.253 1.062l106.57 65.457-89.162-46.409a.77.77 0 0 0-.712 1.368l106.689 55.532.001.001.004.001.003.002.005.002.001.001.002.001.003.002h.001l.004.002.006.003.002.001.001.001.003.001.002.001.003.002.007.002.003.002.003.001h0l.005.002.011.005.006.003.016.007h.002.002l.006.003.012.004.006.002h0l.002.001.009.003.007.002h.002l.001.001.008.003.007.001.002.001.003.001h.001 0l.005.002.005.001.004.001.003.001h.002.001l.003.001.005.002h.004l.003.001h.002l.003.001.003.001h.004l.005.002h.001.002l.003.001.003.001h.004l.005.001h.001l.002.001.005.001h.002.003l.005.001h.002l.003.001.005.001h.002.001l.005.001h.002.003l.007.001h.002l.005.001h.003.002l.007.001h0 .001l.007.001h.002.003.003l.004.001h.003.004.001.004.001l.005.001h.007.004.001.002a.78.78 0 0 0 .145-.01h0l.001-.001.011-.001.003-.001.004-.001.007-.001.003-.001.002-.001.007-.001.019-.004.029-.008.007-.002.011-.003.001-.001h0l.007-.002.009-.003.002-.001h.002l.005-.002.002-.001.002-.001.004-.001.003-.001.004-.001.002-.002h.001.002l.004-.002.005-.002.004-.001.002-.002h.001.001l.005-.003.005-.002.004-.001.004-.002.005-.002.004-.002.003-.002.006-.002.004-.002.005-.002.004-.002.003-.002.004-.002.006-.003.003-.002.004-.002.004-.002.005-.003.006-.003.002-.001.001-.002.008-.003.003-.002a.68.68 0 0 0 .063-.024l.013-.006.002-.001h.002l.013-.006v-.001c.104-.049.198-.122.272-.216l.001-.001.002-.004.006-.006.002-.002.002-.003.006-.009.001-.002c.038-.052.07-.109.094-.171l.006-.017a.67.67 0 0 0 .037-.143l.314-1.805 28.516-115.086a.77.77 0 1 0-1.497-.372l-23.291 94.004 20.765-119.532a.77.77 0 1 0-1.521-.263L124.225 164.51l-3.14-81.301a.77.77 0 1 0-1.542.061l2.74 70.92-16.357-125.911a.77.77 0 1 0-1.529.199l18.222 140.267-93.14-106.452a.77.77 0 1 0-1.16 1.015l83.266 95.167z" fill="#8fbcff"/></g><path opacity=".15" d="M11.197 141.236a.21.21 0 0 1 .318-.227l2.51 1.65c1.417.931 3.151 1.25 4.807.884l2.748-.607a.21.21 0 0 1 .2.346l-1.482 1.62c-1.384 1.513-1.943 3.606-1.497 5.608l.494 2.216a.21.21 0 0 1-.33.213l-2.098-1.571c-1.588-1.189-3.644-1.558-5.546-.996l-2.416.713a.21.21 0 0 1-.219-.337l1.693-1.986c1.327-1.557 1.813-3.663 1.303-5.644l-.485-1.882z" fill="#77a8f2"/><g clip-path="url(#N)"><circle cx="188.005" cy="164" r="32" fill="#2775ca"/><g fill="#fff"><path d="M196.87 168.799c0-4.667-2.8-6.267-8.4-6.933-4-.534-4.8-1.6-4.8-3.467s1.334-3.067 4-3.067c2.4 0 3.734.8 4.4 2.8.134.4.534.667.934.667h2.133a.91.91 0 0 0 .933-.933v-.134a6.66 6.66 0 0 0-6-5.466v-3.2c0-.534-.4-.934-1.066-1.067h-2c-.534 0-.934.4-1.067 1.067v3.066c-4 .534-6.533 3.2-6.533 6.534 0 4.4 2.666 6.133 8.266 6.8 3.734.666 4.934 1.466 4.934 3.6s-1.867 3.6-4.4 3.6c-3.467 0-4.667-1.467-5.067-3.467-.133-.533-.533-.8-.933-.8h-2.267a.91.91 0 0 0-.933.933v.134c.533 3.333 2.666 5.733 7.066 6.4v3.2c0 .533.4.933 1.067 1.066h2c.533 0 .933-.4 1.067-1.066v-3.2c4-.667 6.666-3.467 6.666-7.067zm-15.6 14.001c-10.4-3.734-15.733-15.334-11.866-25.6 2-5.6 6.4-9.867 11.866-11.867.534-.267.8-.667.8-1.333v-1.867c0-.533-.266-.933-.8-1.067-.133 0-.4 0-.533.134-12.667 4-19.6 17.466-15.6 30.133a23.98 23.98 0 0 0 15.6 15.6c.533.267 1.067 0 1.2-.533.133-.134.133-.267.133-.534V184c0-.4-.4-.934-.8-1.2zm14.134-41.6c-.534-.267-1.067 0-1.2.533-.134.133-.134.267-.134.533v1.867c0 .533.4 1.067.8 1.333 10.4 3.734 15.734 15.334 11.867 25.6-2 5.6-6.4 9.867-11.867 11.867-.533.267-.8.667-.8 1.333v1.867c0 .533.267.933.8 1.067.134 0 .4 0 .534-.134 12.666-4 19.6-17.466 15.6-30.133-2.4-7.6-8.267-13.333-15.6-15.733z"/></g></g><g clip-path="url(#O)"><path d="M283.472 212.173l-.108.177c-12.12 19.576-37.801 25.697-57.463 13.655-19.712-12.073-25.907-37.848-13.831-57.562h.001c12.073-19.719 37.849-25.914 57.564-13.84h0c19.719 12.076 25.914 37.853 13.837 57.57z" fill="#f7931a" stroke="#ebf3ff" stroke-width="1.25"/><path d="M267.468 190.162c2.506-5.141-.688-9.334-5.695-13.038l4.124-6.733-4.1-2.51-4.015 6.556-3.3-1.962 4.043-6.599-4.097-2.509-4.124 6.731-2.63-1.563.012-.021-5.652-3.464-2.68 4.378s3.062 1.796 2.978 1.821c1.66 1.017 1.61 2.312 1.258 3.24l-4.698 7.671a3.75 3.75 0 0 1 .416.294l-.434-.265-6.583 10.746c-.392.478-1.21 1.123-2.371.414.024.079-2.979-1.825-2.979-1.825l-3.813 4.396 5.335 3.267 2.914 1.817-4.17 6.811 4.095 2.508 4.126-6.738 3.256 2.037-4.11 6.706 4.1 2.51 4.165-6.798c7.133 3.825 13.02 5.044 17.582-1.061 3.675-4.914 2.647-8.74-.689-12.075 3.118.246 5.91-.976 7.737-4.741l-.001-.002v.001zm-14.654 11.049c-3.115 5.09-11.475-.826-14.255-2.524l5.528-9.023c2.778 1.703 11.979 6.239 8.727 11.547h0zm5.891-13.898c-2.837 4.629-9.775-.362-12.089-1.779l5.013-8.183c2.314 1.417 10.033 5.133 7.076 9.962h0z" fill="#fff"/></g><path d="M233.818 146.337c.178-.101.386.07.322.264l-1.006 3.038c-.568 1.715-.418 3.587.415 5.19l1.382 2.661c.101.193-.107.401-.301.301l-2.075-1.078a6.69 6.69 0 0 0-6.183.005l-2.145 1.119c-.184.096-.387-.088-.31-.28l1.038-2.592c.786-1.962.599-4.18-.504-5.983l-1.4-2.289c-.116-.189.086-.413.286-.318l2.511 1.195c1.968.936 4.269.856 6.167-.215l1.803-1.018z" fill="#fff"/><g clip-path="url(#P)"><g transform="rotate(340.706 121.435 178.683)"><circle cx="121.435" cy="178.683" r="43.5" fill="#fff"/><circle cx="121.435" cy="178.683" r="42.5" stroke="url(#J)" stroke-opacity=".6" stroke-width="2"/></g><path d="M130.959 160.756c-3.06 1.071-5.858 3.775-8.325 8.035-1.171 2.019-2.078 4.06-2.731 5.668l.009-.003 4.925 2.518c.603-1.538 1.503-3.661 2.677-5.702 2.195-3.788 4.039-5.071 5.208-5.48 4.401-1.541 9.17.624 10.64 4.822 1.46 4.17-.927 8.841-5.309 10.406a4.27 4.27 0 0 1-.812.18c1.472.09 2.987-.001 4.299-.46 8.059-2.822 7.835-8.521 7.809-8.93-.091-1.024-.313-2.054-.668-3.068-2.438-6.963-10.394-10.551-17.722-7.986z" fill="url(#K)"/><path d="M111.673 195.928c3.06-1.071 5.858-3.775 8.325-8.035 1.171-2.019 2.078-4.06 2.731-5.668l-.009.003-4.925-2.518c-.603 1.538-1.503 3.661-2.677 5.702-2.195 3.788-4.039 5.071-5.208 5.48-4.404 1.531-9.173-.634-10.643-4.832-1.46-4.17.927-8.84 5.308-10.405.2-.07.466-.132.812-.18-1.472-.091-2.987.001-4.298.46-8.06 2.821-7.826 8.518-7.813 8.921.095 1.032.313 2.053.669 3.068 2.444 6.981 10.4 10.569 17.728 8.004z" fill="url(#L)"/><path d="M141.484 180.633c-4.161 1.342-9.561-.341-10.713-.826-2.979-1.256-10.135-4.968-10.697-5.263-5.29-2.86-12.112-5.738-17.264-3.935l-.009.004-.01.003c-6.243 2.217-10.046 8.209-9.513 14.239-.023-.399.202-6.371 7.832-8.833 4.16-1.342 9.596.381 10.757.863 2.979 1.256 10.136 4.967 10.698 5.262 5.287 2.851 12.109 5.729 17.26 3.926l.009-.004.01-.003c6.244-2.217 10.056-8.212 9.514-14.24.013.403-.238 6.332-7.874 8.807z" fill="#29abe2"/></g><path opacity=".16" d="M190.665 51.608a.47.47 0 0 1 .787.377l-.521 6.684a14.02 14.02 0 0 0 3.448 10.348l4.147 4.718a.47.47 0 0 1-.461.763l-4.762-1.152c-4.448-1.076-9.141.086-12.573 3.114l-3.8 3.353a.47.47 0 0 1-.772-.415l.811-5.793c.613-4.384-.879-8.801-4.027-11.914l-3.996-3.953a.47.47 0 0 1 .422-.79l5.707 1.17c4.472.917 9.111-.401 12.433-3.532l3.157-2.975z" fill="#77a8f2"/></g><defs><linearGradient id="A" x1="73.951" y1="249" x2="73.951" y2="44.259" href="#Q"><stop stop-color="#7eb2ff" stop-opacity="0"/><stop offset="1" stop-color="#7eb2ff"/></linearGradient><linearGradient id="B" x1="298.907" y1="138.181" x2="279.186" y2="14.061" href="#Q"><stop stop-color="#0153cc"/><stop offset="1" stop-color="#1674ff"/></linearGradient><linearGradient id="C" x1="294.745" y1="53.875" x2="264.914" y2="112.093" href="#Q"><stop stop-color="#cfe2ff"/><stop offset="1" stop-color="#fff"/></linearGradient><radialGradient id="D" cx="0" cy="0" r="1" gradientTransform="translate(317.866 29.4724) rotate(167.316) scale(81.4186 69.4355)" href="#Q"><stop stop-color="#84b6ff"/><stop offset=".685" stop-color="#1f77fb"/><stop offset="1" stop-color="#3f8afa"/></radialGradient><linearGradient id="E" x1="303.327" y1="14.394" x2="262.094" y2="80.465" href="#Q"><stop stop-color="#cfe2ff"/><stop offset="1" stop-color="#fff"/></linearGradient><linearGradient id="F" x1="69.737" y1="124.234" x2="90.212" y2="-19.095" href="#Q"><stop stop-color="#0153cc"/><stop offset="1" stop-color="#1674ff"/></linearGradient><linearGradient id="G" x1="73.009" y1="27.049" x2="108.422" y2="93.571" href="#Q"><stop stop-color="#cfe2ff"/><stop offset="1" stop-color="#fff"/></linearGradient><radialGradient id="H" cx="0" cy="0" r="1" gradientTransform="translate(45.935 -0.645146) rotate(11.7864) scale(93.7969 79.9919)" href="#Q"><stop stop-color="#84b6ff"/><stop offset=".685" stop-color="#1f77fb"/><stop offset="1" stop-color="#3f8afa"/></radialGradient><linearGradient id="I" x1="62.41" y1="-18.276" x2="111.1" y2="57.087" href="#Q"><stop stop-color="#cfe2ff"/><stop offset="1" stop-color="#fff"/></linearGradient><linearGradient id="J" x1="143.381" y1="137.787" x2="83.379" y2="201.401" href="#Q"><stop stop-color="#8fbcff"/><stop offset="1" stop-color="#8fbcff" stop-opacity=".2"/></linearGradient><linearGradient id="K" x1="124.622" y1="164.848" x2="148.858" y2="177.358" href="#Q"><stop offset=".21" stop-color="#f15a24"/><stop offset=".684" stop-color="#fbb03b"/></linearGradient><linearGradient id="L" x1="118.009" y1="191.835" x2="93.774" y2="179.326" href="#Q"><stop offset=".21" stop-color="#ed1e79"/><stop offset=".893" stop-color="#522785"/></linearGradient><clipPath id="M"><rect x=".005" width="361" height="249" rx="12" fill="#fff"/></clipPath><clipPath id="N"><path fill="#fff" transform="translate(156.005 132)" d="M0 0h64v64H0z"/></clipPath><clipPath id="O"><path d="M207.236 177.536c7.052-22.387 30.918-34.819 53.306-27.766s34.819 30.918 27.766 53.306-30.918 34.819-53.306 27.766-34.819-30.918-27.766-53.306z" fill="#fff"/></clipPath><clipPath id="P"><path d="M80.379 193.057c-7.938-22.675 4.008-47.492 26.683-55.43s47.492 4.008 55.43 26.683-4.008 47.492-26.683 55.43-47.492-4.008-55.43-26.683z" fill="#fff"/></clipPath><linearGradient id="Q" gradientUnits="userSpaceOnUse"/></defs></svg>