<!-- source: DFINITY foundation -->
<svg xmlns="http://www.w3.org/2000/svg" width="640" height="400" fill="none">
    <style>
        <![CDATA[.B{fill-rule:evenodd}.C{fill:#fff}.D{color-interpolation-filters:sRGB}.E{flood-opacity:0}.F{fill-opacity:.8}.G{fill:#000949}.H{fill:#29abe2}.I{fill:#5154b1}.J{stroke-width:.729}]]></style>
    <g clip-path="url(#Z)" filter="url(#A)">
        <path transform="translate(.5)" d="M0 0h640v400H0z" class="C"/>
        <path d="M26.179 112.964c-12.164 3.21-38.721 9.934-47.641 11.15L-33.12 37.448l55.244 5.575S-1.907 63.402.331 80.021c3.338 24.791 61.833 16.725 61.833 16.725s-23.821 13.008-35.985 16.218z"
              fill="#ae8192" fill-opacity=".4"/>
        <g clip-path="url(#a)">
            <path transform="translate(.5)" fill="url(#J)" d="M0 0h640v400H0z"/>
            <path d="M788.789 202.483c-95.57-.432-288.394-1.036-295.125 0 0 0 48.756-20.599 81.548-20.063 17.907.292 27.41 6.379 45.304 7.119 34.13 1.41 52.024-18.202 86.078-15.533 33.868 2.654 82.195 28.477 82.195 28.477z"
                  fill="#88669f" fill-opacity=".3"/>
            <path d="M261.274 234.39c-53.554-.158-111.389-.21-114.2.222 0 0 28.77-12.154 48.119-11.839 5.44.089 9.565 1.084 13.729 2.089 3.924.946 7.881 1.901 13.004 2.112 9.841.407 17.394-2.148 24.89-4.684 7.845-2.654 15.627-5.286 25.903-4.481 9.233.723 20.287 4.365 29.509 8.074 5.425.159 9.616 1.17 13.844 2.19 4.143 1 8.322 2.007 13.731 2.231 10.39.429 18.366-2.269 26.281-4.946 8.283-2.802 16.5-5.582 27.349-4.732 21.101 1.654 51.211 17.743 51.211 17.743-59.544-.269-179.681-.646-183.875 0 0 0 4.19-1.771 10.505-3.979z"
                  fill="#88669f" fill-opacity=".3" class="B"/>
            <path opacity=".5"
                  d="M-58.579 271.647h202.16s-33.398-5.193-55.86-5.058c-12.266.073-18.776 1.608-31.033 1.795-23.379.355-35.636-4.59-58.963-3.917-23.199.67-56.303 7.18-56.303 7.18z"
                  fill="#fae5d6"/>
            <g filter="url(#B)" class="C F">
                <path d="M233.292 365.124c-4.013 0-7.769 1.64-11.018 4.464-6.34-11.513-15.858-18.875-26.539-18.875-8.32 0-15.952 4.45-21.92 11.854-6.951-21.231-21.408-35.832-38.126-35.832-8.467 0-16.349 3.758-22.975 10.21-7.828-48.588-36.766-84.665-71.288-84.665-32.544 0-60.122 32.066-69.735 76.447-12.053 4.643-22.021 17.101-27.482 33.57a15 15 0 0 0-4.526-.707c-12.243 0-22.166 15.019-22.166 33.542 0 .32.025.629.031.945h337.827c-.878-17.312-10.418-30.953-22.082-30.953z"/>
            </g>
            <g filter="url(#C)" class="C F">
                <path d="M560.439 365.124c-4.013 0-7.769 1.64-11.018 4.464-6.34-11.513-15.858-18.875-26.539-18.875-8.321 0-15.952 4.45-21.921 11.854-6.95-21.231-21.407-35.831-38.125-35.831-8.467 0-16.349 3.758-22.975 10.21-7.828-48.589-36.767-84.666-71.288-84.666-32.544 0-60.122 32.067-69.735 76.447-12.054 4.643-22.021 17.101-27.483 33.57-1.462-.46-2.975-.706-4.526-.706-12.243 0-22.166 15.018-22.166 33.541 0 .32.025.629.031.945h337.827c-.878-17.312-10.418-30.953-22.082-30.953z"/>
            </g>
            <g filter="url(#D)" class="C F">
                <path d="M414.623 365.124c4.014 0 7.77 1.64 11.018 4.464 6.341-11.513 15.858-18.875 26.539-18.875 8.321 0 15.953 4.45 21.921 11.854 6.951-21.231 21.408-35.831 38.126-35.831 8.466 0 16.348 3.758 22.975 10.21 7.828-48.589 36.766-84.666 71.287-84.666 32.544 0 60.122 32.067 69.736 76.447 12.053 4.643 22.02 17.101 27.482 33.57 1.462-.46 2.975-.706 4.526-.706 12.243 0 22.166 15.018 22.166 33.541 0 .32-.025.629-.03.945H392.542c.878-17.312 10.418-30.953 22.081-30.953z"/>
            </g>
            <g filter="url(#E)" class="C F">
                <path d="M83.6 419.768c2.829 0 5.476 1.64 7.766 4.464 4.469-11.513 11.177-18.874 18.705-18.874 5.865 0 11.244 4.449 15.451 11.853 4.898-21.231 15.088-35.831 26.871-35.831 5.967 0 11.523 3.758 16.193 10.21 5.518-48.588 25.914-84.666 50.245-84.666 22.937 0 42.375 32.067 49.15 76.447 8.496 4.643 15.521 17.101 19.37 33.57 1.031-.46 2.097-.706 3.191-.706 8.628 0 15.623 15.018 15.623 33.541 0 .32-.018.629-.022.945H68.036c.619-17.312 7.343-30.953 15.563-30.953z"/>
            </g>
            <path opacity=".5"
                  d="M582.244 251.337h202.16s-33.398-5.194-55.86-5.059c-12.266.074-18.776 1.609-31.033 1.795-23.379.356-35.637-4.589-58.964-3.916-23.199.669-56.303 7.18-56.303 7.18z"
                  fill="#fae5d6"/>
            <path d="M467.025 -127.498L820.922 69.6505" stroke="url(#K)" class="J"/>
            <path d="M469.664 -127.83L818.284 78.5071" stroke="url(#L)" class="J"/>
            <path d="M510.994 129.916c6.982-10.437 25.406-37.894 46.427-63.285-7.555-2.038-14.182-2.452-18.838-.607v-.002c-8.937-7.963-18.198-12.337-27.017-13.74-17.921 16.737-32.927 32.269-35.69 35.884 2.441 16.533 15.433 30.163 34.725 41.407l.393.342zm115.428-8.099c-.909-5.268-4.242-11.07-9.15-16.895-13.879 29.755-30.595 58.082-36.957 69.024 17.812 13.064 36.205 17.94 52.243 14.037 2.032-4.114 9.593-24.031 17.106-47.114-5.117-7.975-12.918-14.643-23.242-19.052zm29.758-71.052h0c-.529 7.834-.528 7.832 0 0zM590.16 8.934c-5.326 2.966-5.326 2.966.001 0h-.001z"
                  fill="#043484" class="B"/>
            <path d="M617.272 104.922c-13.793-16.376-40.024-32.937-59.852-38.292-21.022 25.393-39.445 52.85-46.426 63.286 7.652 17.971 55.86 47.332 69.321 44.03 6.363-10.944 23.082-39.277 36.957-69.024zm32.217 36.482c-7.364 22.577-14.735 42.02-16.856 46.424 10.59.101 18.469-2.573 22.35-8.286 2.271-3.578 2.824-8.056 1.852-13.189.129-9.06-2.269-17.762-7.058-25.305l-.114-.18-.174.536zM485.342 57.425c-5.061 1.301-8.879 3.706-11.151 7.281l-.152.247-.132.22-.126.222-.122.222-.117.226-.13.262-.107.226-.104.23-.098.226-.084.203-.089.233-.088.23-.025.075c-.054.147-.105.297-.154.448l-.074.241-.022.075c-.055.181-.104.365-.153.548l-.06.245-.019.077-.088.403-.053.26-.032.177c-.915 5.094.429 11.283 3.714 18.161 2.763-3.614 17.769-19.147 35.69-35.883-9.589-1.527-18.66.454-26.224 5.144z"
                  fill="url(#M)" class="B"/>
            <path d="M720.235 366.369c-21.078 3.758-48.536 18.194-63.087 32.688 11.48 30.902 26.046 60.585 31.593 71.849 19.39 2.359 68.921-24.71 72.792-38.019-6.296-10.982-22.474-39.627-41.298-66.518zm47.703-9.659c15.87 17.666 29.023 33.771 31.776 37.81 5.383-9.122 7.006-17.281 3.999-23.499-1.962-3.756-5.564-6.474-10.496-8.198-7.781-4.642-16.516-6.917-25.444-6.541l-.212.009.377.419zM613.136 456.876c-1.403 5.033-1.23 9.542.731 13.298l.138.255.124.224.13.22.131.216.137.215.162.244.143.205.147.206.147.198.134.173.156.194.156.191.052.06a12.8 12.8 0 0 0 .311.357l.172.185.054.056c.129.139.263.273.398.407l.182.174.057.055.305.278.199.176.138.116c3.954 3.34 9.986 5.271 17.585 5.864-1.749-4.199-7.698-24.961-13.231-48.85-6.117 7.541-8.936 16.387-8.658 25.283z"
                  fill="url(#N)" class="B"/>
            <path d="M792.196 347.018c-25.831.405-61.321 12.295-81.451 26.748 7.705 39.022 19.321 77.188 23.753 91.674 22.637 6.555 86.858-16.119 94.038-31.223-5.378-14.296-19.114-51.537-36.34-87.199zm58.68-2.292c15.49 24.105 28.045 45.826 30.544 51.169 8.172-9.824 11.682-19.229 9.301-27.216-1.612-4.852-5.377-8.784-10.918-11.79-8.371-7.032-18.335-11.428-29.041-12.704l-.254-.031.368.572zM647.16 434.13c-2.643 5.723-3.308 11.127-1.698 15.978l.116.331.104.291.112.287.114.283.122.282.146.322.13.272.136.273.137.264.126.233.149.261.148.257.051.081a16.82 16.82 0 0 0 .301.486l.169.253.053.077c.127.19.261.376.396.562l.183.243.058.077.31.389.202.248.142.165c4.064 4.742 10.875 8.206 19.811 10.38-1.271-5.339-4.347-31.215-6.323-60.736-8.743 7.8-13.808 17.792-15.195 28.441z"
                  fill="#043484" class="B"/>
            <path d="M529.586 9.154c-21.055 9.018-39.89 24.464-53.283 45.549-2.969 4.675-4.27 9.84-4.147 15.332.345-1.941 1.017-3.726 2.035-5.329 2.272-3.576 6.091-5.978 11.15-7.282a26.53 26.53 0 0 1 2.043-3.887c10.867-17.108 25.708-33.136 42.202-44.384zm152.198 99.331c-3.683 18.836-11.907 38.008-22.298 54.367a26.53 26.53 0 0 1-2.651 3.503c.972 5.133.419 9.611-1.852 13.187-1.018 1.603-2.347 2.97-3.958 4.107 5.023-2.222 9.146-5.596 12.116-10.271 12.866-20.256 18.888-42.846 18.643-64.893zm-55.362 13.332c44.167-70.191 32.636-95.269 8.579-110.549S583.342-3.79 538.583 66.023c21.219-8.408 83.403 30.094 87.839 55.794z"
                  fill="url(#O)" class="B"/>
            <path d="M392.542 279.911l52.141 52.612" stroke="#fff" stroke-width="1.458"/>
            <path d="M654.042 33.068c6.133 17.219.734 43.687-27.621 88.747 20.145 8.605 30.681 25.805 30.413 44.539a26.5 26.5 0 0 0 2.651-3.502c27.181-42.792 39.537-104.821-5.443-129.784zm-46.87-29.77c-40.562-28.577-92.608 7.446-119.788 50.239-.804 1.266-1.484 2.563-2.044 3.889 14.522-9.001 34.589-8.028 53.242 8.598 28.736-44.821 50.399-60.958 68.59-62.725z"
                  class="B C"/>
            <path d="M508.392 224.145l71.379-51.197a.96.96 0 0 1 1.34.221c.309.432.21 1.031-.221 1.342l-81.169 58.217 156.587-67.857c.487-.21 1.053.015 1.264.5s-.013 1.053-.5 1.265l-142.95 61.946 118.127-41.523a.96.96 0 0 1 .637 1.812l-141.348 49.686-.003.001-.004.001-.004.001-.006.002-.002.002h-.002l-.005.001-.002.001-.004.002-.008.002-.002.001-.003.001-.004.001h-.002l-.004.002-.008.002-.005.002-.004.001h0l-.006.002-.015.004-.008.002-.021.005h-.002l-.003.001-.008.002-.015.003-.008.001h0l-.002.001-.013.002-.008.001-.002.001h-.002l-.011.002-.008.001h-.002l-.005.001h-.002 0l-.006.001h-.006l-.004.001h-.005-.002l-.002.001h-.004l-.006.001h-.005l-.004.001h-.002-.004-.004l-.004.001h-.007-.002-.002l-.004.001h-.004-.005-.006-.002l-.002.001h-.006-.002-.005-.006-.002-.004-.007-.002-.002-.006-.002-.004-.009-.002l-.006-.001h-.004-.002-.009v-.001h-.002-.008-.002-.005l-.004-.001h-.004-.004l-.004-.001h-.003-.004l-.002-.001h-.006l-.009-.001-.004-.001h-.002-.002c-.061-.007-.12-.02-.176-.038h0l-.003-.001-.012-.004-.004-.002-.005-.001-.008-.003-.004-.002-.002-.001-.009-.002-.023-.009c-.006-.003-.014-.006-.021-.009l-.012-.006-.009-.004-.012-.006h-.002v-.001l-.009-.003-.01-.005-.002-.002-.003-.001-.006-.003-.002-.001-.002-.002-.004-.002-.005-.002-.004-.002-.002-.002-.002-.001h-.002l-.004-.004-.007-.003-.004-.002-.002-.002h-.002v-.001l-.006-.004-.007-.003-.004-.003-.004-.002-.006-.004-.004-.003-.005-.003-.006-.003-.004-.004-.006-.004-.005-.003-.004-.003-.004-.003-.006-.004-.005-.004-.004-.002-.004-.003-.006-.005-.007-.005-.002-.002-.002-.002-.008-.006-.004-.003a.76.76 0 0 1-.074-.04l-.015-.009-.002-.002-.002-.001-.014-.009v-.001a.95.95 0 0 1-.299-.315v-.002l-.002-.004-.006-.008-.002-.004-.002-.004-.007-.012v-.002c-.037-.071-.067-.148-.086-.228l-.004-.022a.76.76 0 0 1-.021-.183l-.069-2.282-14.891-146.944a.96.96 0 1 1 1.911-.195l12.163 120.026-4.55-151.062a.96.96 0 1 1 1.922-.057l5.188 172.315 18.196-99.705a.96.96 0 1 1 1.89.346l-15.872 86.974 42.352-152.389a.96.96 0 1 1 1.851.515l-47.182 169.764 133.612-114.866a.96.96 0 1 1 1.252 1.456l-119.446 102.69z"
                  class="B C"/>
            <path d="M392.542 272.697l47.768 46.427 62.328 23.504.889-1.399-44.243-51.976-65.853-17.955-.889 1.399z"
                  class="B G"/>
            <g filter="url(#F)" class="B">
                <path d="M504.164 218.592l4.092 1.036 43.592 51.21-11.199 17.628-2.627-1.546-34.495 54.31-44.245-51.977 44.882-70.661z"
                      fill="#00327e"/>
            </g>
            <g filter="url(#G)" class="B">
                <path d="M504.15 218.616l.014-.024-65.852-17.954-.016.023-3.292-.897-11.116 17.499 3.161 1.105-33.62 52.93 65.854 17.955 34.338-50.736 3.463-1.298 11.114-17.499-4.048-1.104z"
                      fill="#256aef"/>
            </g>
            <path d="M497.057 237.26l-73.156-20.018 1.786 3.27 67.558 18.597 43.989 49.053 3.43.281-43.607-51.183z"
                  class="B G"/>
            <path d="M464.299 238.322c1.107 2.274 1.716 4.83 1.716 7.584 0 11.475-10.574 22.034-23.618 23.585-9.913 1.179-18.4-3.185-21.903-10.385l1.704 3.802c3.503 7.199 11.989 11.563 21.903 10.384 13.043-1.551 23.618-12.11 23.618-23.585 0-2.754-.61-5.31-1.716-7.584l-1.704-3.801z"
                  fill="#002e7a" class="B"/>
            <path d="M466.014 245.906c0 11.475-10.574 22.034-23.617 23.585s-23.618-6.494-23.618-17.968 10.574-22.035 23.618-23.586 23.617 6.494 23.617 17.969z"
                  class="C"/>
            <path d="M454.733 244.066c-1.906-.547-4.468-.272-7.615.813-1.493.514-2.875 1.126-3.936 1.629l.006.002 1.056 2.786c1.005-.489 2.423-1.14 3.928-1.663 2.799-.964 4.25-.921 4.979-.712 2.742.786 3.895 3.361 2.575 5.74-1.31 2.364-4.616 3.661-7.36 2.892a2.41 2.41 0 0 1-.457-.192c.63.536 1.366 1.003 2.183 1.238 5.021 1.44 7.622-1.197 7.804-1.389a8.64 8.64 0 0 0 1.149-1.603c2.188-3.947.254-8.232-4.312-9.541z"
                  fill="url(#P)"/>
            <path d="M429.238 253.389c1.907.546 4.468.272 7.615-.813 1.493-.514 2.876-1.127 3.937-1.63l-.006-.001-1.057-2.786c-1.005.488-2.423 1.14-3.927 1.662-2.799.965-4.251.922-4.979.713-2.739-.791-3.892-3.366-2.573-5.746 1.31-2.364 4.616-3.661 7.361-2.892.124.036.275.097.456.192-.63-.535-1.365-1.003-2.183-1.237-5.021-1.44-7.616 1.198-7.801 1.383-.446.496-.83 1.028-1.149 1.603-2.194 3.957-.259 8.243 4.306 9.552z"
                  fill="url(#Q)"/>
            <path d="M450.116 256.532c-2.538-.795-4.208-3.366-4.504-3.97-.766-1.565-2.276-5.637-2.393-5.958-1.062-3.063-2.815-6.647-6.024-7.568l-.006-.001-.006-.002c-3.905-1.102-8.484.313-11.101 3.201.179-.187 3.114-2.794 7.769-1.337 2.538.795 4.205 3.395 4.507 4.001.766 1.565 2.277 5.637 2.394 5.958 1.064 3.057 2.817 6.642 6.026 7.562l.006.002.006.002c3.905 1.101 8.49-.312 11.101-3.202-.185.186-3.111 2.765-7.775 1.312z"
                  class="H"/>
            <path opacity=".3"
                  d="M419.022 98.505c-3.448-.27-5.458-1.788-6.711-1.342-.958.342-2.902 1.491-5.202 1.945-.379-.212-.783-.371-1.21-.473-1.001-.212-2.108-.196-2.441.26-.032.048-.052.1-.058.157-2.415-.639-4.082-2.307-4.693-2.128-.731.214-1.804 1.249-3.904 2.557-2.149 1.339-4.79 1.4-5.088 1.749s2.298.728 4.91.096 3.705-1.6 4.293-1.732c.505-.114 3.193 1.41 5.941 1.774a3.84 3.84 0 0 0 .533.371c.874.501 3.197.953 3.702 1.003.543.052.84.044.976.228.223.302.416.552.595.57.159.015.241-.27.188-.47s.311-.359.209-.541-.6-.253-.822-.42c-.132-.101-.656-.642-1.154-1.179 1.848-.576 3.237-1.47 3.663-1.796.622-.473 2.972.821 6.262 1.077s5.755-1.846 5.508-2.007-2.052.57-5.497.301z"
                  class="C"/>
            <path d="M219.415 329.837c1.15-.259 10.774-1.477 13.337-.976 1.827.357 6.93 3.741 8.344 4.422.991.48 1.512.649 1.962.59 1.736-2.055 3.439-4.857 5.637-6.443 2.465-1.778 9.281-2.221 8.832-1.737-.539.579-4.845.988-7.001 2.56-1.619 1.181-3.003 3.437-3.787 4.977.105.209.138.389.395.542.52.302.669.492.371.567s-.485 0-.639.151-.484.681-1.303.758-.188 1.134-.895 1.966c-.982 1.156-2.198.567-2.607.832s-.112 1.362-.336 1.476-1.005-.454-1.563-.649-1.267-.174-1.304-.503 1.531-.82 1.713-1.167c.093-.17.187-.588.359-1.058-3.339-.673-7.629-3.804-8.557-4.434-1.004-.683-2.159-.389-4.431-.519s-9.682-1.095-8.527-1.355z"
                  fill="#7f5fa3"/>
            <path d="M379.345 219.75c.191-.071.371.13.278.311l-1.461 2.848c-.824 1.607-.964 3.48-.387 5.192l.958 2.842c.07.206-.168.38-.343.251l-1.885-1.384a6.69 6.69 0 0 0-6.111-.944l-2.291.776c-.197.067-.37-.146-.264-.325l1.424-2.401c1.078-1.818 1.234-4.038.421-5.989l-1.033-2.477c-.085-.205.148-.395.332-.27l2.298 1.566c1.801 1.227 4.086 1.501 6.126.734l1.938-.73z"
                  class="C"/>
            <path d="M125.194 137.57c-4.851-7.235-17.656-26.268-32.266-43.869 5.251-1.413 9.857-1.7 13.092-.421v-.002c6.212-5.52 12.648-8.552 18.777-9.524 12.455 11.602 22.884 22.369 24.804 24.875-1.696 11.461-10.726 20.909-24.133 28.704l-.274.237zm-80.221-5.614c.632-3.652 2.948-7.674 6.359-11.712 9.646 20.626 21.263 40.263 25.685 47.848-12.379 9.056-25.162 12.436-36.308 9.731-1.412-2.853-6.668-16.659-11.889-32.66 3.556-5.529 8.978-10.151 16.153-13.207zM24.292 82.702h0c.368 5.431.367 5.429 0 0zm45.883-28.997c3.702 2.056 3.701 2.056-.001 0h.001z"
                  fill="#96875c" class="B"/>
            <path d="M51.332 120.244c9.587-11.352 27.816-22.832 41.597-26.544 14.61 17.603 27.414 36.635 32.266 43.87-5.318 12.458-38.822 32.811-48.177 30.522-4.422-7.587-16.042-27.227-25.685-47.848zm-22.39 25.29c5.118 15.65 10.241 29.128 11.715 32.181-7.36.07-12.836-1.784-15.533-5.744-1.579-2.48-1.963-5.584-1.287-9.142-.09-6.281 1.576-12.313 4.905-17.542l.079-.125.121.372zm114.081-58.215c3.517.902 6.171 2.569 7.75 5.047l.105.171.092.152.088.154.084.154.082.157.09.182.074.157.073.16.068.157.058.141.062.161.061.16.018.052c.037.102.072.206.107.311l.051.167.015.052c.039.126.073.253.107.38l.042.17.013.053.061.279.037.18.022.123c.636 3.531-.298 7.822-2.581 12.59-1.92-2.506-12.349-13.273-24.805-24.875 6.665-1.059 12.969.315 18.226 3.566z"
                  fill="url(#R)" class="B"/>
            <path d="M112.274 53.856c14.633 6.251 27.722 16.958 37.03 31.575 2.064 3.24 2.968 6.821 2.883 10.628-.24-1.346-.707-2.583-1.415-3.694-1.579-2.479-4.233-4.144-7.749-5.048a18.36 18.36 0 0 0-1.42-2.694c-7.552-11.859-17.867-22.97-29.329-30.767zM6.497 122.713c2.559 13.058 8.275 26.348 15.497 37.688a18.36 18.36 0 0 0 1.842 2.428c-.676 3.558-.292 6.662 1.287 9.141.708 1.111 1.631 2.059 2.751 2.848-3.491-1.541-6.356-3.88-8.42-7.121-8.942-14.042-13.127-29.701-12.957-44.984zm38.476 9.242c-30.696-48.657-22.682-66.041-5.963-76.634s35.902-10.438 67.01 37.957c-14.747-5.829-57.965 20.861-61.047 38.677z"
                  fill="url(#S)" class="B"/>
            <path d="M25.778 70.434c-4.263 11.936-.511 30.284 19.196 61.52-14.001 5.965-21.323 17.888-21.137 30.875-.668-.742-1.284-1.552-1.843-2.428-18.89-29.664-27.478-72.662 3.783-89.967zm32.574-20.637c28.19-19.81 64.362 5.161 83.252 34.826.558.878 1.031 1.777 1.42 2.696-10.093-6.239-24.039-5.565-37.003 5.96-19.971-31.07-35.027-42.256-47.669-43.482z"
                  class="B C"/>
            <path d="M127.003 202.89L77.396 167.4a.67.67 0 0 0-.932.153c-.215.3-.146.715.154.931l56.412 40.356-108.826-47.039a.67.67 0 0 0-.878.347c-.146.338.009.729.347.877l99.349 42.941-82.097-28.784a.67.67 0 0 0-.851.408c-.122.347.061.727.408.848l98.236 34.443h.001l.003.001.003.001.005.002h.001l.001.001.003.001h.002l.003.001.006.002h.001l.002.001.002.001h.002l.003.001.006.002.003.001.003.001h0l.004.001.01.003.006.001.015.004h.001.001l.006.002.011.002.005.001h0 .002l.009.002h.005l.002.001h.001l.008.001.006.001h.001l.003.001h.001 0 .005l.004.001h.003.003l.001.001h.002.003l.004.001h.003.003.001.003l.003.001h.003.005.001.002.002l.003.001h.003.005.001.002.004.001.003.005.001.003.004.002.001.005.001.003.006.001.005.003.001l.006-.001h0 .002.005.002.003l.003-.001h.003.002.003.002l.003-.001h.001.005l.005-.001h.003.002.001a.61.61 0 0 0 .123-.027h0l.001-.001.009-.002.003-.001.003-.001.006-.002.003-.002h.001l.006-.002.016-.006.023-.011.006-.002.009-.004.002-.001h0l.005-.002.008-.004.001-.001.002-.001.004-.002.001-.001.002-.001.003-.001.003-.002.003-.001.001-.001.002-.001h.001l.003-.003.004-.002.003-.001.002-.002h.001v-.001l.005-.002.004-.002.003-.002.003-.002.004-.003.003-.002.003-.002.004-.002.003-.002.005-.003.003-.002.003-.002.002-.003.005-.003.003-.002.003-.002.003-.002.004-.003.004-.004.002-.001.001-.001.006-.004.003-.002.051-.028.01-.007.002-.001.001-.001.01-.006v-.001a.65.65 0 0 0 .208-.218v-.001l.001-.003.005-.006.001-.002.002-.003.004-.009v-.001c.026-.049.047-.102.06-.158l.003-.015a.55.55 0 0 0 .014-.127l.048-1.582 10.349-101.862c.037-.366-.23-.693-.597-.73s-.693.229-.731.594l-8.453 83.203 3.162-104.717c.011-.367-.278-.674-.648-.684s-.676.278-.687.645l-3.606 119.45-12.646-69.116c-.066-.362-.414-.602-.777-.535s-.603.412-.537.775l11.031 60.291-29.434-105.637a.67.67 0 0 0-.822-.463c-.355.098-.563.464-.465.82l32.791 117.682-92.859-79.626a.67.67 0 0 0-.941.07c-.24.279-.208.7.071.939l83.014 71.185z"
                  class="B C"/>
            <path d="M207.518 236.547l-33.199 32.183-43.317 16.293-.618-.969 30.749-36.03 45.767-12.447.618.97z"
                  fill="#5c2d4b" class="B"/>
            <path d="M129.941 199.041l-2.844.718-30.295 35.499 7.783 12.22 1.825-1.072 23.974 37.648 30.75-36.031-31.193-48.982z"
                  fill="#efad79" class="B"/>
            <g filter="url(#H)" class="B">
                <path d="M129.951 199.057l-.009-.016 45.766-12.446.011.016 2.288-.622 7.726 12.13-2.197.766 23.365 36.692-45.768 12.446-23.864-35.17-2.407-.9-7.724-12.131 2.813-.765z"
                      fill="#fce29e"/>
            </g>
            <path d="M134.88 211.981l50.843-13.876-1.241 2.266-46.952 12.892-30.572 34.003-2.384.195 30.306-35.48z"
                  class="B G"/>
            <path d="M157.647 212.718c-.768 1.576-1.192 3.348-1.192 5.257 0 7.954 7.349 15.274 16.415 16.349 6.889.818 12.787-2.207 15.222-7.198l-1.184 2.635c-2.435 4.991-8.333 8.016-15.223 7.198-9.065-1.075-16.414-8.395-16.414-16.349 0-1.909.424-3.681 1.192-5.257l1.184-2.635z"
                  fill="#002e7a" class="B"/>
            <path d="M156.455 217.975c0 7.955 7.349 15.274 16.415 16.35s16.414-4.502 16.414-12.456-7.349-15.275-16.414-16.35-16.415 4.502-16.415 12.456z"
                  class="C"/>
            <path d="M164.296 216.699c1.325-.379 3.105-.188 5.292.564 1.038.356 1.999.781 2.736 1.129l-.004.002-.734 1.931c-.699-.339-1.684-.79-2.73-1.153-1.946-.668-2.954-.638-3.46-.494-1.906.545-2.707 2.33-1.79 3.98.91 1.639 3.208 2.537 5.115 2.005a1.76 1.76 0 0 0 .317-.133c-.437.371-.949.695-1.517.857-3.489.998-5.297-.829-5.423-.962-.309-.34-.577-.713-.799-1.111-1.521-2.737-.176-5.707 2.997-6.615z"
                  fill="url(#T)"/>
            <path d="M182.015 223.162c-1.325.379-3.105.189-5.293-.563-1.037-.356-1.998-.781-2.736-1.13l.005-.001.734-1.931c.698.339 1.684.79 2.729 1.153 1.946.668 2.955.638 3.461.493 1.903-.548 2.705-2.333 1.788-3.983-.911-1.639-3.208-2.537-5.116-2.004-.086.024-.191.067-.317.133.438-.371.949-.696 1.517-.858 3.49-.998 5.293.83 5.422.959.31.344.577.712.798 1.111 1.525 2.743.181 5.714-2.992 6.621z"
                  fill="url(#U)"/>
            <path d="M167.505 225.341c1.763-.551 2.924-2.333 3.13-2.752.532-1.085 1.582-3.908 1.663-4.13.738-2.123 1.956-4.608 4.187-5.246l.004-.001.004-.001c2.714-.764 5.897.217 7.715 2.219-.124-.13-2.164-1.937-5.399-.927-1.764.551-2.923 2.353-3.133 2.774-.532 1.084-1.582 3.907-1.663 4.13-.74 2.119-1.958 4.604-4.188 5.242l-.005.001-.004.001c-2.714.764-5.9-.216-7.715-2.219.129.128 2.162 1.917 5.404.909z"
                  class="H"/>
            <path d="M192.088 200.943l20.841 33.437" stroke="#fff" stroke-width="1.296"/>
            <path d="M366.246 140.488c20.995 15.249 34.647 39.993 34.647 67.926 0 46.334-37.561 83.894-83.894 83.894-18.4 0-35.417-5.924-49.247-15.968-20.995-15.248-34.647-39.993-34.647-67.926 0-46.333 37.561-83.893 83.894-83.893 18.4 0 35.417 5.923 49.247 15.967z"
                  fill="#06f"/>
            <path d="M392.143 202.057c0-27.922-13.641-52.658-34.622-67.908l8.725 6.34c20.995 15.248 34.647 39.992 34.647 67.925 0 46.334-37.561 83.894-83.894 83.894-18.4 0-35.417-5.924-49.247-15.968l-8.75-6.357c13.83 10.044 30.847 15.968 49.247 15.968 46.333 0 83.894-37.561 83.894-83.894z"
                  fill="#0754c8" class="B"/>
            <path d="M309.136 249.342l-4.297 8.081c-.642 1.207-2.112 1.736-3.371 1.2l-8.667-3.883a2.55 2.55 0 0 1-1.168-3.524l3.89-7.316-3.544-1.738-3.151-1.661-3.89 7.314a2.66 2.66 0 0 1-3.616 1.086l-8.225-4.711c-1.173-.701-1.576-2.185-.933-3.393l4.275-8.04c-17.22-12.573-25.87-28.683-14.66-49.567l2.724-5.123c11.066-21.01 29.495-23.293 49.887-16.687l4.272-8.034c.643-1.209 2.116-1.737 3.376-1.199 2.866 1.226 5.754 2.528 8.659 3.893 1.333.626 1.857 2.223 1.166 3.523l-3.889 7.314 3.198 1.574 3.491 1.838 3.886-7.31c.692-1.3 2.33-1.796 3.619-1.084a262.92 262.92 0 0 1 8.221 4.721c1.171.702 1.571 2.185.93 3.392l-4.286 8.059c16.97 12.507 25.342 28.536 14.286 49.33l-2.724 5.123c-10.972 20.831-29.244 23.244-49.459 16.822zm36.694-24.805l1.533-2.884c10.44-18.997-3.901-30.745-22.809-40.712-19.275-9.489-37.333-14.248-47.239 5.021l-1.533 2.884c-10.487 19.084 3.854 30.832 22.851 40.845 19.187 9.443 37.244 14.202 47.197-5.154z"
                  class="B C"/>
            <path d="M301.115 62.767c.589-2.395 2.155-8.699 4.338-14.796-1.531.127-2.785.494-3.52 1.148-2.183-.873-4.188-1.059-5.912-.729-2.189 4.29-3.92 8.165-4.19 9.017 1.56 2.891 4.87 4.538 9.187 5.322l.097.038zm20.777-9.224c-.521-.91-1.526-1.76-2.822-2.507-.571 6.425-1.762 12.777-2.204 15.222 4.163 1.219 7.886.89 10.589-.904.098-.896.163-5.081.005-9.847-1.479-1.131-3.367-1.84-5.568-1.964zm.739-15.115c.427 1.481.427 1.481 0 0h0zm-14.994-3.307c-.786.904-.786.904 0 0h0z"
                  fill="#917bd2" class="B"/>
            <path d="M319.071 51.036c-3.645-2.101-9.597-3.404-13.62-3.065-2.182 6.098-3.747 12.403-4.338 14.798 2.618 2.807 13.487 5.001 15.75 3.492.444-2.448 1.637-8.8 2.208-15.224zm8.393 4.583c.15 4.663.09 8.748-.006 9.702 1.962-.689 3.24-1.71 3.573-3.025.18-.812-.019-1.677-.542-2.56-.583-1.683-1.607-3.13-2.997-4.202l-.032-.023.004.109zm-35.94-4.523c-.847.58-1.393 1.28-1.573 2.091l-.012.057-.008.05-.01.048-.007.048-.007.052-.006.055-.005.05-.004.05-.003.048-.001.042-.001.05-.001.05v.015l.001.092.003.05.002.017c.001.037.005.074.008.112l.004.048.002.017c.004.026.007.053.011.079l.008.052.006.035c.172 1.003.834 2.056 1.902 3.106.269-.852 2.001-4.726 4.19-9.018-1.874.361-3.416 1.334-4.499 2.706z"
                  fill="url(#V)" class="B"/>
            <path d="M296.464 39.217c-3.286 3.075-5.731 7.189-6.793 11.979-.235 1.063-.131 2.105.261 3.112-.067-.381-.062-.755.019-1.12.181-.814.723-1.514 1.572-2.091a4.98 4.98 0 0 1 .118-.857c.861-3.887 2.53-7.84 4.823-11.023zm34.76 8.159c.581 3.726.345 7.817-.479 11.535a5.21 5.21 0 0 1-.254.825c.521.884.719 1.748.54 2.561-.081.364-.236.705-.457 1.023.78-.749 1.316-1.646 1.552-2.709 1.019-4.601.619-9.179-.902-13.234zm-9.333 6.168c3.458-15.92-.349-19.78-5.815-20.992s-10.55.677-14.144 16.568c3.356-2.974 17.418-.025 19.959 4.425z"
                  fill="url(#W)" class="B"/>
            <path d="M321.051 35.302c2.287 2.771 3.063 8.02.841 18.24 4.297.241 7.394 2.713 8.598 6.191a5.09 5.09 0 0 0 .255-.824c2.157-9.724.286-22.008-9.694-23.608zm-10.65-2.36c-9.402-2.563-16.604 7.575-18.76 17.299a4.99 4.99 0 0 0-.116.854c2.077-2.634 5.85-3.798 10.407-1.976 2.307-10.202 5.23-14.632 8.469-16.176z"
                  fill="#cbf" class="B"/>
            <path d="M306.942 80.345l9.755-14.235c.061-.086.177-.108.264-.049a.19.19 0 0 1 .05.262L305.916 82.51l24.379-23.015a.19.19 0 0 1 .267.008.19.19 0 0 1-.008.267l-22.256 21.01 19.039-15.576c.079-.068.197-.055.265.025s.053.2-.027.267l-22.781 18.639-.002.002-.002.002-.002.002h-.004l-.003.004-.004.004-.005.002-.002.002-.006.002-.003.004-.006.002-.001.002h-.004l-.004.004h-.003l-.002.002h-.004l-.005.002-.002.002-.002-.002-.004.004h-.003l-.002.002-.002-.002-.002.002-.037.004h-.003-.004l-.002.002-.005-.002h-.004-.004l-.005-.002h-.004-.004l-.001-.002h-.004-.004l-.002-.002h-.003-.004l-.002-.002h-.003l-.002-.002h-.004l-.002-.002-.022-.003h-.004c-.027-.009-.053-.019-.076-.037l-.004-.004-.003-.004a.27.27 0 0 1-.03-.036l-.002-.005c-.006-.009-.013-.02-.017-.031l-.166-.417-12.587-26.145c-.044-.093-.003-.206.088-.252s.208-.005.253.09l10.281 21.353-10.952-27.596a.19.19 0 0 1 .104-.246.19.19 0 0 1 .246.104l12.494 31.48-3.314-19.632a.19.19 0 0 1 .156-.218c.101-.018.199.052.216.155l2.891 17.128-2.378-30.983c-.007-.105.068-.194.173-.202a.19.19 0 0 1 .204.171l2.649 34.515L321.8 53.195c.05-.089.167-.12.257-.07a.19.19 0 0 1 .072.258l-15.187 26.962z"
                  class="B C"/>
            <path d="M288.792 97.069l11.933 5.376 13.085.169.071-.317-11.651-6.637-13.366 1.092-.072.317z" class="B I"/>
            <path d="M305.79 79.603l.823-.082 11.48 6.54-.887 4.006-.589-.11-2.736 12.342-11.652-6.639 3.561-16.057z"
                  fill="#a29ceb" class="B"/>
            <g filter="url(#I)" class="B">
                <path d="M305.788 79.608l.002-.005-13.366 1.094v.003l-.669.055-.882 3.978.657-.008-2.665 12.027 13.365-1.094 2.945-11.669.553-.472.88-3.976-.82.066z"
                      fill="#d6c1ff"/>
            </g>
            <path d="M305.727 83.528l-14.852 1.198.547.485 13.725-1.087 11.407 6.114.652-.176-11.479-6.534z"
                  class="B I"/>
            <path d="M298.975 86.021c.653.519 1.148 2.015 1.028 3.127-.215 1.986-1.858 3.882-3.671 4.234-.797.155-1.495-.015-2.008-.422l.589.499c.512.408 1.33.763 2.128.608 1.813-.352 3.569-2.307 3.784-4.293.14-1.303-.609-2.735-1.262-3.254l-.588-.499z"
                  class="B I"/>
            <g clip-path="url(#b)">
                <g clip-path="url(#c)">
                    <path d="M296.21 85.631c1.868-.762 3.639.384 3.956 2.559s-.942 4.557-2.81 5.32-3.64-.384-3.956-2.559.942-4.557 2.81-5.32z"
                          fill="#ede4ff"/>
                    <path d="M298.408 88.414c-.291-.004-.644.135-1.048.411a5.81 5.81 0 0 0-.494.384h.001l.258.354a5.36 5.36 0 0 1 .492-.388c.359-.245.566-.296.678-.294.419.005.682.325.588.714s-.512.698-.931.696a.36.36 0 0 1-.072-.01.88.88 0 0 0 .357.091c.768.009 1.034-.465 1.052-.5.044-.087.078-.178.101-.272.157-.644-.284-1.177-.982-1.185z"
                          fill="url(#X)"/>
                    <path d="M295.157 90.726c.292.003.644-.135 1.048-.411.191-.131.364-.271.494-.384h0l-.258-.354a5.65 5.65 0 0 1-.492.388c-.36.245-.567.296-.679.294-.418-.006-.682-.326-.587-.715s.512-.698.931-.696a.36.36 0 0 1 .072.01c-.11-.051-.233-.089-.358-.091-.767-.009-1.032.466-1.052.499a1.28 1.28 0 0 0-.1.272c-.157.646.283 1.178.981 1.187z"
                          fill="url(#Y)"/>
                    <path d="M298.238 90.361c-.391-.014-.727-.314-.793-.388a14.23 14.23 0 0 1-.57-.752c-.27-.393-.657-.833-1.148-.839h-.001-.001a1.68 1.68 0 0 0-1.449.885c.018-.034.333-.517 1.049-.491.391.014.728.318.795.392.169.192.541.711.57.752.27.392.657.832 1.148.838h.001.001c.596.005 1.191-.374 1.449-.885-.019.033-.334.513-1.051.488z"
                          class="H"/>
                </g>
            </g>
        </g>
    </g>
    <defs>
        <filter id="A" x="-1.5" y="-1" width="644" height="404" filterUnits="userSpaceOnUse" class="D">
            <feFlood result="A" class="E"/>
            <feColorMatrix in="SourceAlpha" values="0 0 0 0 0 0 0 0 0 0 0 0 0 0 0 0 0 0 127 0" result="B"/>
            <feOffset dy="1"/>
            <feGaussianBlur stdDeviation="1"/>
            <feComposite in2="B" operator="out"/>
            <feColorMatrix values="0 0 0 0 0 0 0 0 0 0 0 0 0 0 0 0 0 0 0.1 0"/>
            <feBlend in2="A"/>
            <feBlend in="SourceGraphic"/>
        </filter>
        <filter id="B" x="-206.484" y="128.28" width="585.857" height="391.797" filterUnits="userSpaceOnUse" class="D">
            <feFlood class="E"/>
            <feBlend in="SourceGraphic"/>
            <feGaussianBlur stdDeviation="62"/>
        </filter>
        <filter id="C" x="120.663" y="128.28" width="585.857" height="391.797" filterUnits="userSpaceOnUse" class="D">
            <feFlood class="E"/>
            <feBlend in="SourceGraphic"/>
            <feGaussianBlur stdDeviation="62"/>
        </filter>
        <filter id="D" x="268.542" y="128.28" width="585.857" height="391.797" filterUnits="userSpaceOnUse" class="D">
            <feFlood class="E"/>
            <feBlend in="SourceGraphic"/>
            <feGaussianBlur stdDeviation="62"/>
        </filter>
        <filter id="E" x="-55.963" y="182.924" width="486.127" height="391.797" filterUnits="userSpaceOnUse" class="D">
            <feFlood class="E"/>
            <feBlend in="SourceGraphic"/>
            <feGaussianBlur stdDeviation="62"/>
        </filter>
        <filter id="F" x="459.282" y="218.592" width="92.565" height="122.638" filterUnits="userSpaceOnUse" class="D">
            <feFlood class="E"/>
            <feBlend in="SourceGraphic" result="B"/>
            <feColorMatrix in="SourceAlpha" values="0 0 0 0 0 0 0 0 0 0 0 0 0 0 0 0 0 0 127 0" result="C"/>
            <feOffset dx="1.45759" dy="4.37278"/>
            <feComposite in2="C" operator="arithmetic" k2="-1" k3="1"/>
            <feColorMatrix values="0 0 0 0 0 0 0 0 0 0 0 0 0 0 0 0 0 0 0.25 0"/>
            <feBlend in2="B"/>
        </filter>
        <filter id="G" x="393.429" y="199.764" width="114.769" height="90.946" filterUnits="userSpaceOnUse" class="D">
            <feFlood class="E"/>
            <feBlend in="SourceGraphic" result="B"/>
            <feColorMatrix in="SourceAlpha" values="0 0 0 0 0 0 0 0 0 0 0 0 0 0 0 0 0 0 127 0" result="C"/>
            <feOffset dy="1.45759"/>
            <feGaussianBlur stdDeviation="5.102"/>
            <feComposite in2="C" operator="arithmetic" k2="-1" k3="1"/>
            <feColorMatrix values="0 0 0 0 1 0 0 0 0 1 0 0 0 0 1 0 0 0 0.19 0"/>
            <feBlend in2="B" result="D"/>
            <feColorMatrix in="SourceAlpha" values="0 0 0 0 0 0 0 0 0 0 0 0 0 0 0 0 0 0 127 0" result="C"/>
            <feOffset dy="0.728797"/>
            <feComposite in2="C" operator="arithmetic" k2="-1" k3="1"/>
            <feColorMatrix values="0 0 0 0 1 0 0 0 0 1 0 0 0 0 1 0 0 0 1 0"/>
            <feBlend in2="D"/>
        </filter>
        <filter id="H" x="127.138" y="185.989" width="79.763" height="63.33" filterUnits="userSpaceOnUse" class="D">
            <feFlood class="E"/>
            <feBlend in="SourceGraphic" result="B"/>
            <feColorMatrix in="SourceAlpha" values="0 0 0 0 0 0 0 0 0 0 0 0 0 0 0 0 0 0 127 0" result="C"/>
            <feOffset dy="1.29608"/>
            <feGaussianBlur stdDeviation="4.536"/>
            <feComposite in2="C" operator="arithmetic" k2="-1" k3="1"/>
            <feColorMatrix values="0 0 0 0 1 0 0 0 0 1 0 0 0 0 1 0 0 0 0.19 0"/>
            <feBlend in2="B" result="D"/>
            <feColorMatrix in="SourceAlpha" values="0 0 0 0 0 0 0 0 0 0 0 0 0 0 0 0 0 0 127 0" result="C"/>
            <feOffset dy="0.648039"/>
            <feComposite in2="C" operator="arithmetic" k2="-1" k3="1"/>
            <feColorMatrix values="0 0 0 0 1 0 0 0 0 1 0 0 0 0 1 0 0 0 1 0"/>
            <feBlend in2="D"/>
        </filter>
        <filter id="I" x="288.865" y="79.542" width="17.744" height="18.211" filterUnits="userSpaceOnUse" class="D">
            <feFlood class="E"/>
            <feBlend in="SourceGraphic" result="B"/>
            <feColorMatrix in="SourceAlpha" values="0 0 0 0 0 0 0 0 0 0 0 0 0 0 0 0 0 0 127 0" result="C"/>
            <feOffset dy="1"/>
            <feGaussianBlur stdDeviation="3.5"/>
            <feComposite in2="C" operator="arithmetic" k2="-1" k3="1"/>
            <feColorMatrix values="0 0 0 0 1 0 0 0 0 1 0 0 0 0 1 0 0 0 0.19 0"/>
            <feBlend in2="B"/>
        </filter>
        <linearGradient id="J" x1="320" y1="-43.926" x2="320" y2="400" href="#d">
            <stop stop-color="#4340c7"/>
            <stop offset=".526" stop-color="#b287b6"/>
            <stop offset="1" stop-color="#fecca4"/>
        </linearGradient>
        <linearGradient id="K" x1="572.851" y1="-60.412" x2="812.853" y2="59.336" href="#d">
            <stop stop-color="#fff"/>
            <stop offset="1" stop-color="#fff" stop-opacity="0"/>
        </linearGradient>
        <linearGradient id="L" x1="573.699" y1="-57.999" x2="810.487" y2="67.985" href="#d">
            <stop stop-color="#fff"/>
            <stop offset="1" stop-color="#fff" stop-opacity="0"/>
        </linearGradient>
        <linearGradient id="M" x1="579.114" y1="68.869" x2="523.725" y2="144.664" href="#d">
            <stop stop-color="#3579de"/>
            <stop offset="1" stop-color="#f0e2ff"/>
        </linearGradient>
        <linearGradient id="N" x1="669.933" y1="381.389" x2="707.879" y2="467.254" href="#d">
            <stop stop-color="#3579de"/>
            <stop offset="1" stop-color="#e2eeff"/>
        </linearGradient>
        <linearGradient id="O" x1="593.69" y1="81.258" x2="654.18" y2="-14.943" href="#d">
            <stop stop-color="#06f"/>
            <stop offset="1" stop-color="#003d99"/>
        </linearGradient>
        <linearGradient id="P" x1="449.896" y1="243.776" x2="455.216" y2="257.47" href="#d">
            <stop offset=".21" stop-color="#f15a24"/>
            <stop offset=".684" stop-color="#fbb03b"/>
        </linearGradient>
        <linearGradient id="Q" x1="434.075" y1="253.679" x2="428.755" y2="239.985" href="#d">
            <stop offset=".21" stop-color="#ed1e79"/>
            <stop offset=".893" stop-color="#522785"/>
        </linearGradient>
        <linearGradient id="R" x1="77.852" y1="95.252" x2="116.218" y2="147.887" href="#d">
            <stop stop-color="#d6c8a1"/>
            <stop offset="1" stop-color="#f7e2ff"/>
        </linearGradient>
        <linearGradient id="S" x1="67.722" y1="103.84" x2="25.836" y2="37.055" href="#d">
            <stop stop-color="#e8d77e"/>
            <stop offset="1" stop-color="#b0724f"/>
        </linearGradient>
        <linearGradient id="T" x1="167.657" y1="216.498" x2="163.977" y2="225.997" href="#d">
            <stop offset=".21" stop-color="#f15a24"/>
            <stop offset=".684" stop-color="#fbb03b"/>
        </linearGradient>
        <linearGradient id="U" x1="178.653" y1="223.364" x2="182.334" y2="213.864" href="#d">
            <stop offset=".21" stop-color="#ed1e79"/>
            <stop offset=".893" stop-color="#522785"/>
        </linearGradient>
        <linearGradient id="V" x1="312.597" y1="46.353" x2="308.348" y2="62.662" href="#d">
            <stop stop-color="#a48de7"/>
            <stop offset="1" stop-color="#bdadec"/>
        </linearGradient>
        <linearGradient id="W" x1="316.896" y1="52.498" x2="338.523" y2="47.116" href="#d">
            <stop stop-color="#957ae2"/>
            <stop offset="1" stop-color="#6452ae"/>
        </linearGradient>
        <linearGradient id="X" x1="297.711" y1="88.561" x2="298.997" y2="90.295" href="#d">
            <stop offset=".21" stop-color="#f15a24"/>
            <stop offset=".684" stop-color="#fbb03b"/>
        </linearGradient>
        <linearGradient id="Y" x1="295.854" y1="90.579" x2="294.568" y2="88.845" href="#d">
            <stop offset=".21" stop-color="#ed1e79"/>
            <stop offset=".893" stop-color="#522785"/>
        </linearGradient>
        <clipPath id="Z">
            <path transform="translate(.5)" d="M0 0h640v400H0z" class="C"/>
        </clipPath>
        <clipPath id="a">
            <path transform="translate(.5)" d="M0 0h640v400H0z" class="C"/>
        </clipPath>
        <clipPath id="b">
            <path d="M293.34 90.536c-.283-1.947 1.002-4.143 2.87-4.905s3.612.198 3.895 2.145l.121.828c.283 1.947-1.002 4.143-2.87 4.905s-3.613-.198-3.896-2.145l-.12-.829z"
                  class="C"/>
        </clipPath>
        <clipPath id="c">
            <path transform="matrix(.937526 -.382534 .142014 .977008 292.828 87.0107)" d="M0 0h7.216v8.064H0z"
                  class="C"/>
        </clipPath>
        <linearGradient id="d" gradientUnits="userSpaceOnUse"/>
    </defs>
</svg>