<svg width="640" height="260" viewBox="0 0 640 260" fill="none" xmlns="http://www.w3.org/2000/svg">
<g clip-path="url(#clip0_6863_7842)">
<rect width="640" height="260" rx="20" fill="url(#paint0_linear_6863_7842)"/>
<circle opacity="0.2" cx="322.5" cy="130.5" r="354.5" fill="white"/>
<g opacity="0.2" filter="url(#filter0_f_6863_7842)">
<circle cx="306.5" cy="460.5" r="338.5" fill="white"/>
</g>
<g opacity="0.2" filter="url(#filter1_f_6863_7842)">
<circle cx="306.5" cy="460.5" r="338.5" fill="white"/>
</g>
<g opacity="0.2" filter="url(#filter2_f_6863_7842)">
<circle cx="306.5" cy="-509.5" r="564.5" fill="#004CBD"/>
</g>
<path fill-rule="evenodd" clip-rule="evenodd" d="M85.9769 43.1249C84.8582 41.2036 81.9235 36.1368 79.5183 30.8185C78.6056 31.8606 78.0234 32.8835 77.9564 33.7675C75.9943 34.5701 74.5785 35.7056 73.6682 36.9992C74.9379 41.1509 76.2435 44.7467 76.6028 45.4678C79.4249 46.3638 82.6015 45.3576 85.8907 43.1608L85.9769 43.1249ZM93.6622 24.1299C92.7542 23.8664 91.5708 23.9454 90.2628 24.2736C93.9185 28.7942 97.1263 33.6573 98.372 35.5187C101.834 33.7004 104.04 31.1539 104.668 28.2983C104.169 27.6562 101.589 24.9037 98.5013 21.9139C96.834 22.108 95.1666 22.8314 93.6622 24.1299ZM84.6713 13.8717C85.8763 14.5641 85.8763 14.5641 84.6713 13.8717V13.8717ZM72.8824 21.1233C72.9399 22.2014 72.9399 22.2014 72.8824 21.1233V21.1233Z" fill="#011941"/>
<path d="M604.283 119.917C599.968 119.917 596.061 121.424 593.201 123.863C593.239 123.439 593.276 123.015 593.276 122.582C593.276 113.355 584.7 105.876 574.121 105.876C572.314 105.876 570.571 106.109 568.914 106.518C564.954 98.7417 556.028 93.3164 545.645 93.3164C542.227 93.3164 538.968 93.908 535.99 94.9746C529.446 88.8659 520.135 85.0429 509.794 85.0429C489.994 85.0429 473.943 99.0425 473.943 116.313C473.943 133.583 489.994 147.583 509.794 147.583C509.825 147.583 509.855 147.581 509.884 147.581H604.283C613.006 147.581 620.075 141.448 620.142 133.857V133.749C620.142 126.108 613.043 119.917 604.283 119.917Z" fill="url(#paint1_linear_6863_7842)"/>
<path d="M530 100C540.308 100 549.59 103.524 556.113 109.156C559.082 108.172 562.33 107.627 565.738 107.627C576.089 107.627 584.986 112.628 588.934 119.797C590.586 119.42 592.323 119.205 594.125 119.205C604.67 119.205 613.219 126.1 613.219 134.606C613.219 135.005 613.182 135.396 613.144 135.787C615.995 133.538 619.89 132.149 624.191 132.149C632.924 132.149 640 137.856 640 144.9V145" stroke="white" stroke-width="0.5"/>
<path fill-rule="evenodd" clip-rule="evenodd" d="M90.2627 24.2722C86.5844 25.1948 81.9107 28.0797 79.5163 30.8192C81.9224 36.1384 84.859 41.204 85.9764 43.1266C89.4317 43.305 97.8495 37.9177 98.3706 35.521C97.1242 33.6572 93.9176 28.7933 90.2627 24.2722ZM98.5725 21.9835C101.591 24.9107 104.112 27.5962 104.648 28.2746C105.488 26.5985 105.676 25.1361 105.068 24.0751C104.676 23.4366 104.004 23 103.112 22.7558C101.68 22.0305 100.11 21.7347 98.5373 21.9108L98.5021 21.9155L98.5725 21.9835ZM72.4483 41.5702C72.2629 42.4763 72.3474 43.2721 72.7394 43.9106L72.7675 43.9552L72.7934 43.9928L72.8169 44.0303L72.8427 44.0655L72.8708 44.1031L72.9014 44.143L72.9295 44.1782L72.9577 44.2134L72.9859 44.2463L73.0117 44.2744L73.0422 44.3073L73.0727 44.3402L73.0821 44.3496C73.1009 44.3683 73.122 44.3895 73.1408 44.4083L73.1737 44.4388L73.1854 44.4481C73.2089 44.4716 73.2347 44.4927 73.2605 44.5162L73.2934 44.5444L73.3051 44.5538C73.3239 44.5679 73.3427 44.5843 73.3615 44.5984L73.399 44.6266L73.4248 44.6453C74.1642 45.1876 75.2535 45.4552 76.6032 45.4669C76.2441 44.7463 74.9389 41.1501 73.669 36.9975C72.6807 38.4059 72.291 40.0022 72.4483 41.5702Z" fill="url(#paint2_linear_6863_7842)"/>
<path opacity="0.2" d="M579 224.999C579 229.971 574.79 234 569.595 234H556.403C551.21 234 547 229.971 547 224.999C547 220.029 551.21 216 556.403 216H569.595C574.79 216 579 220.029 579 224.999Z" fill="url(#paint3_linear_6863_7842)"/>
<path fill-rule="evenodd" clip-rule="evenodd" d="M68.2078 30.7776C68.0054 34.8288 68.9983 39.027 71.3119 42.7962C71.8253 43.6325 72.5458 44.2422 73.4303 44.6495C73.1483 44.4447 72.917 44.1989 72.7411 43.9121C72.3482 43.271 72.2615 42.4781 72.4494 41.572C72.2807 41.3792 72.1265 41.1695 71.9891 40.943C70.1117 37.8847 68.7164 34.2769 68.2078 30.7776ZM95.8457 14.286C98.5569 16.3369 100.967 19.1349 102.762 22.0607C102.902 22.2872 103.018 22.5186 103.114 22.7547C104.006 23.0006 104.676 23.4368 105.069 24.0754C105.245 24.3622 105.358 24.6803 105.413 25.025C105.449 24.0513 105.235 23.1331 104.722 22.2968C102.5 18.677 99.3715 15.961 95.8457 14.286ZM93.6622 24.1308C85.9285 11.6471 81.0435 11.5314 76.7416 14.1703C72.4398 16.8093 70.3286 21.2196 77.9563 33.7684C78.2672 29.7389 89.2278 22.8391 93.6622 24.1308Z" fill="white"/>
<path fill-rule="evenodd" clip-rule="evenodd" d="M81.6886 12.836C84.9063 13.1986 88.6985 16.1145 93.6614 24.1297C96.5968 21.5935 100.153 21.2551 103.113 22.7545C103.018 22.5184 102.901 22.2871 102.762 22.0608C98.0669 14.4083 89.1585 7.61991 81.6886 12.836ZM73.3083 17.979C65.6096 22.2092 67.294 33.2912 71.9891 40.9437C72.1279 41.17 72.2812 41.3794 72.4491 41.5692C72.1449 38.5608 73.8609 35.4429 77.9548 33.7683C73.0576 25.7118 72.1765 21.0093 73.3083 17.979Z" fill="url(#paint4_linear_6863_7842)"/>
<path fill-rule="evenodd" clip-rule="evenodd" d="M100.767 50.8646L98.1691 35.5283C98.155 35.4345 98.2159 35.3478 98.3097 35.3314C98.4011 35.315 98.4902 35.3783 98.5066 35.4697L101.458 52.9111L102.836 22.7215C102.841 22.6278 102.921 22.5551 103.015 22.5598C103.108 22.5645 103.181 22.6441 103.176 22.7379L101.918 50.2973L104.496 28.2751C104.506 28.1813 104.59 28.1157 104.684 28.1251C104.778 28.1368 104.843 28.2212 104.834 28.315L101.749 54.667V54.6693V54.6717V54.674L101.746 54.6764V54.681V54.6857L101.744 54.6904V54.6928L101.742 54.6975V54.7021L101.739 54.7068V54.7092L101.737 54.7115V54.7162L101.735 54.7185V54.7209L101.732 54.7232L101.73 54.7279V54.7303H101.728V54.735L101.725 54.7373V54.7397H101.723V54.742C101.716 54.7514 101.709 54.7608 101.702 54.7678L101.7 54.7701L101.697 54.7725V54.7748L101.692 54.7772L101.69 54.7795L101.688 54.7818L101.683 54.7842L101.681 54.7865L101.678 54.7889H101.676L101.674 54.7912L101.671 54.7936H101.669L101.667 54.7959L101.664 54.7983H101.662L101.66 54.8006H101.657L101.655 54.803H101.653C101.648 54.8076 101.643 54.81 101.639 54.8123L101.636 54.8147L101.634 54.817C101.61 54.8287 101.587 54.8381 101.561 54.8405H101.557H101.552C101.538 54.8405 101.524 54.8381 101.51 54.8358L101.505 54.8334C101.496 54.8311 101.484 54.8287 101.474 54.824L101.106 54.6576L76.5689 45.6017C76.4821 45.5688 76.4376 45.4704 76.4681 45.3836C76.5009 45.2945 76.5994 45.25 76.6884 45.2828L96.7297 52.679L72.3421 41.6586C72.2554 41.6187 72.2179 41.5179 72.2554 41.4335C72.2953 41.3468 72.3961 41.3093 72.4805 41.3468L100.3 53.9192L85.8522 43.2738C85.7772 43.2175 85.7608 43.1097 85.817 43.0347C85.871 42.9597 85.9788 42.9433 86.0538 42.9995L98.659 52.2875L77.7058 33.6998C77.6355 33.6365 77.6285 33.531 77.6918 33.4606C77.7527 33.3903 77.8606 33.3833 77.9309 33.4442L101.273 54.1512L93.3844 23.9616C93.3609 23.8726 93.4172 23.7788 93.5063 23.7553C93.5977 23.7319 93.6915 23.7858 93.7149 23.8773L100.767 50.8646Z" fill="white"/>
<path fill-rule="evenodd" clip-rule="evenodd" d="M99.4833 73.0743L110.584 69.0822L119.17 60.9933L119.017 60.7428L107.309 63.7419L99.3308 72.8239L99.4833 73.0743Z" fill="#011941"/>
<path fill-rule="evenodd" clip-rule="evenodd" d="M99.5548 51.1057L100.036 50.5366L111.574 47.5817L113.509 50.7336L113.058 51.0313L119.018 60.7431L107.308 63.7418L99.5548 51.1057Z" fill="#002E7A"/>
<g filter="url(#filter3_ii_6863_7842)">
<path fill-rule="evenodd" clip-rule="evenodd" d="M99.5569 51.1102L99.5547 51.1057L91.5787 60.189L91.5809 60.1912L91.1821 60.6457L93.1026 63.776L93.5236 63.3594L99.3319 72.8236L107.308 63.7403L101.905 54.334L101.968 53.6812L100.047 50.5532L99.5569 51.1102Z" fill="#0066FF"/>
</g>
<path fill-rule="evenodd" clip-rule="evenodd" d="M101.973 53.6893L93.0996 63.7706L93.7578 63.7418L101.971 54.4384L113.194 51.2537L113.506 50.7307L101.973 53.6893Z" fill="black"/>
<path d="M222.236 189.883C220.097 189.883 218.096 190.419 216.366 191.342C212.988 187.579 207.917 185.173 202.227 185.173C197.793 185.173 193.727 186.627 190.548 189.047C186.845 182.108 179.142 177.336 170.235 177.336C165.725 177.336 161.526 178.564 157.995 180.673C153.825 164.792 138.407 153 120.015 153C102.677 153 87.9843 163.481 82.8626 177.987C76.4409 179.504 71.1308 183.576 68.2208 188.959C67.4417 188.809 66.6357 188.728 65.8093 188.728C59.2869 188.728 54 193.637 54 199.691C54 199.796 54.0133 199.897 54.0164 200H234C233.532 194.342 228.45 189.883 222.236 189.883Z" fill="url(#paint5_linear_6863_7842)"/>
<path d="M123 164C141.394 164 156.814 174.036 160.985 187.551C164.516 185.757 168.716 184.711 173.227 184.711C182.135 184.711 189.838 188.773 193.542 194.679C196.722 192.619 200.789 191.381 205.222 191.381C210.913 191.381 215.985 193.429 219.363 196.632C221.094 195.846 223.095 195.39 225.234 195.39C231.449 195.39 236.532 199.184 237 204" stroke="white" stroke-width="0.5"/>
<path opacity="0.4" d="M195.051 78.2481C195.051 82.2527 191.755 85.498 187.688 85.498H165.361C161.296 85.498 158 82.2527 158 78.2481C158 74.2451 161.296 70.9998 165.361 70.9998H187.688C191.755 70.9998 195.051 74.2451 195.051 78.2481Z" fill="url(#paint6_linear_6863_7842)"/>
<path fill-rule="evenodd" clip-rule="evenodd" d="M235.416 74.0589C235.517 69.836 235.797 58.7167 237.185 47.7142C234.673 48.4994 232.717 49.5768 231.726 50.9392C227.753 50.2896 224.334 50.7196 221.577 51.9114C219.506 59.8968 218.045 67.0129 217.915 68.539C221.591 72.7922 227.737 74.3206 235.243 74.0332L235.416 74.0589ZM266.734 50.9392C265.526 49.6095 263.532 48.5625 261.088 47.7937C262.513 58.7447 262.876 69.8033 263.044 74.0589C270.458 74.5567 276.56 72.624 280.41 68.6231C280.245 67.0877 278.8 60.0674 276.77 52.1591C273.878 50.8154 270.46 50.3293 266.734 50.9392ZM262.368 25.3961C263.63 27.7168 263.63 27.7168 262.368 25.3961V25.3961ZM236.075 25.4265C235.098 27.2283 235.098 27.2283 236.075 25.4265V25.4265Z" fill="#011941"/>
<path fill-rule="evenodd" clip-rule="evenodd" d="M261.089 47.7927C254.218 45.6308 243.782 45.6596 237.186 47.7153C235.796 58.7175 235.517 69.837 235.418 74.0591C240.832 77.7833 259.816 77.4248 263.045 74.0591C262.877 69.8038 262.514 58.744 261.089 47.7927ZM276.817 52.3423C278.798 60.0806 280.212 66.9315 280.404 68.5646C283.43 66.6837 285.185 64.5041 285.256 62.1806C285.256 60.7555 284.605 59.3835 283.403 58.1023C281.806 55.5044 279.555 53.4664 276.835 52.1896L276.771 52.1587L276.817 52.3423ZM215.057 58.1023C213.856 59.3835 213.205 60.7555 213.205 62.1806V62.2779L213.21 62.3642L213.212 62.4505L213.218 62.5346L213.225 62.6209L213.236 62.7183L213.247 62.8024L213.258 62.8865L213.271 62.9683L213.285 63.0414L213.3 63.1232L213.318 63.2051L213.322 63.2295C213.336 63.2826 213.347 63.3335 213.36 63.3844L213.382 63.4662L213.391 63.4928C213.409 63.5525 213.426 63.6145 213.446 63.6742L213.473 63.7561L213.482 63.7805C213.497 63.8247 213.513 63.869 213.528 63.911L213.561 63.9951L213.584 64.0504C214.243 65.6636 215.741 67.1772 217.914 68.538C218.047 67.0134 219.507 59.8969 221.576 51.9108C218.578 53.2075 216.361 55.4049 215.057 58.1023Z" fill="url(#paint7_linear_6863_7842)"/>
<path fill-rule="evenodd" clip-rule="evenodd" d="M218.914 36.4132C214.561 42.7717 212 50.5548 212 58.9573C212 60.8227 212.562 62.5237 213.587 64.0603C213.334 63.4457 213.205 62.8191 213.205 62.1806C213.205 60.7536 213.856 59.3837 215.057 58.102C214.978 57.6232 214.935 57.1324 214.935 56.6274C214.935 49.8115 216.26 42.5835 218.914 36.4132ZM280.05 37.1684C282.402 43.1814 283.524 50.1093 283.524 56.6274C283.524 57.1324 283.483 57.6232 283.403 58.102C284.605 59.3837 285.255 60.7536 285.255 62.1806C285.255 62.8191 285.125 63.4457 284.873 64.0603C285.898 62.5237 286.46 60.8227 286.46 58.9573C286.46 50.8859 284.095 43.3839 280.05 37.1684ZM266.733 50.9383C266.615 23.0411 258.818 18.0001 249.229 18.0001C239.642 18.0001 231.845 23.0411 231.726 50.9383C236.236 44.7252 260.838 44.4417 266.733 50.9383Z" fill="white"/>
<path fill-rule="evenodd" clip-rule="evenodd" d="M258.57 20.7559C263.415 24.5388 266.658 33.0296 266.733 50.9385C274.006 49.7479 280.1 52.7315 283.403 58.1011C283.483 57.6244 283.524 57.131 283.524 56.6282C283.524 39.5732 275.845 19.7314 258.57 20.7559ZM239.89 20.7559C223.217 19.9567 214.935 39.5732 214.935 56.6282C214.935 57.131 214.978 57.6244 215.056 58.1011C217.558 52.926 223.431 49.5818 231.727 50.9385C231.803 33.0296 235.043 24.5388 239.89 20.7559Z" fill="url(#paint8_linear_6863_7842)"/>
<path fill-rule="evenodd" clip-rule="evenodd" d="M251.675 101.286L262.711 73.8743C262.776 73.7082 262.964 73.6274 263.13 73.6951C263.296 73.7607 263.375 73.9508 263.31 74.1147L250.762 105.287L282.988 57.7756C283.088 57.6292 283.289 57.5899 283.436 57.6904C283.584 57.7909 283.621 57.992 283.523 58.1384L254.103 101.513L280.158 68.4156C280.267 68.2757 280.47 68.2517 280.61 68.361C280.75 68.4724 280.776 68.6756 280.665 68.8155L249.488 108.419V108.421H249.486V108.423L249.484 108.425L249.481 108.427L249.479 108.43L249.477 108.432V108.434L249.473 108.438L249.47 108.441L249.466 108.445L249.46 108.451L249.453 108.458L249.449 108.462L249.446 108.465L249.442 108.469L249.44 108.471L249.438 108.473H249.435L249.433 108.475L249.431 108.478H249.429V108.48H249.427L249.425 108.482L249.422 108.484L249.42 108.486H249.418L249.416 108.489L249.414 108.491H249.411V108.493L249.407 108.495H249.405L249.403 108.497L249.4 108.5H249.398L249.396 108.502H249.394L249.392 108.504L249.39 108.506H249.387L249.385 108.508H249.383L249.381 108.51H249.379L249.376 108.513L249.372 108.515H249.37C249.352 108.524 249.333 108.53 249.313 108.537H249.309L249.307 108.539H249.304H249.302H249.3H249.298L249.289 108.541C249.287 108.541 249.285 108.543 249.282 108.543H249.274L249.269 108.545H249.265H249.263H249.261H249.258H249.254H249.252H249.25H249.248L249.245 108.548H249.243H249.241H249.239H249.237H249.234H249.232H249.23H249.228H249.226H249.224H249.221H249.219H249.217L249.215 108.545H249.213H249.21H249.208H249.204H249.202H249.199H249.197H249.195C249.186 108.545 249.175 108.548 249.167 108.548H249.16H249.154C249.105 108.545 249.057 108.534 249.012 108.51H249.009L249.007 108.508H249.005V108.506L249.001 108.504C248.977 108.491 248.955 108.473 248.935 108.456L248.928 108.449C248.915 108.434 248.902 108.419 248.891 108.401L248.459 107.765L217.728 68.7237C217.616 68.5838 217.64 68.3806 217.78 68.2714C217.92 68.1599 218.123 68.1839 218.235 68.3238L243.336 100.213L214.799 58.1384C214.699 57.992 214.736 57.7909 214.885 57.6904C215.033 57.5899 215.234 57.6292 215.333 57.7756L247.888 105.772L235.07 74.1759C235.004 74.012 235.083 73.8241 235.249 73.7563C235.413 73.6886 235.603 73.7694 235.668 73.9333L246.85 101.494L231.39 50.5818C231.337 50.4113 231.436 50.23 231.606 50.1797C231.777 50.1273 231.956 50.2234 232.008 50.3939L249.23 107.112L266.454 50.3939C266.504 50.2234 266.686 50.1273 266.856 50.1797C267.027 50.23 267.123 50.4113 267.073 50.5818L251.675 101.286Z" fill="white"/>
<path fill-rule="evenodd" clip-rule="evenodd" d="M227.534 135.97L249.472 140.537L271.411 135.97V135.411L249.472 128.632L227.534 135.411V135.97Z" fill="#011941"/>
<g filter="url(#filter4_i_6863_7842)">
<path fill-rule="evenodd" clip-rule="evenodd" d="M249.472 100.472L250.821 100.028L272.436 106.708V113.732L271.41 113.768V135.412L249.472 128.632V100.472Z" fill="#002E7A"/>
</g>
<g filter="url(#filter5_ii_6863_7842)">
<path fill-rule="evenodd" clip-rule="evenodd" d="M249.472 100.481V100.472L227.535 107.251V107.26L226.437 107.599V114.573L227.535 114.317V135.412L249.472 128.633L250.072 108.031L250.821 107.039V100.064L249.472 100.481Z" fill="#0066FF"/>
</g>
<path fill-rule="evenodd" clip-rule="evenodd" d="M234.144 127.68C232.603 126.746 231.621 124.94 231.621 122.596C231.621 118.41 234.751 114.091 238.612 112.95C240.311 112.448 241.868 112.644 243.08 113.378L244.477 114.286C243.265 113.552 241.708 113.356 240.009 113.858C236.148 115 233.018 119.318 233.018 123.504C233.018 125.848 234 127.654 235.542 128.588L234.144 127.68Z" fill="#6580E1" fill-opacity="0.6"/>
<path fill-rule="evenodd" clip-rule="evenodd" d="M241.577 113.443C243.119 114.377 244.1 116.182 244.1 118.527C244.1 122.712 240.97 127.031 237.109 128.173C235.411 128.675 233.853 128.479 232.642 127.745L234.039 128.653C235.25 129.387 236.808 129.583 238.507 129.081C242.368 127.939 245.498 123.62 245.498 119.435C245.498 117.09 244.516 115.285 242.974 114.351L241.577 113.443Z" fill="#002E7A"/>
<path fill-rule="evenodd" clip-rule="evenodd" d="M99.6215 59.8298C100.37 59.7572 101.165 60.122 101.784 60.918C102.89 62.3394 103.013 64.5973 102.059 65.9613C101.639 66.5614 101.081 66.8885 100.493 66.9455L101.187 66.9006C101.775 66.8435 102.333 66.5165 102.753 65.9163C103.707 64.5524 103.584 62.2944 102.479 60.873C101.86 60.0771 101.064 59.7122 100.316 59.7848L99.6215 59.8298Z" fill="#002E7A"/>
<path fill-rule="evenodd" clip-rule="evenodd" d="M250.821 107.054L226.437 114.565L227.533 115.171L250.071 108.266L271.411 114.262L272.436 113.723L250.821 107.054Z" fill="black"/>
<path fill-rule="evenodd" clip-rule="evenodd" d="M413.266 103.882C418.056 96.7221 430.696 77.8844 445.118 60.4651C439.934 59.0665 435.388 58.7828 432.194 60.0486V60.047C426.062 54.5838 419.709 51.5832 413.658 50.6208C401.363 62.1031 391.068 72.759 389.173 75.2397C390.847 86.5826 399.761 95.9334 412.996 103.648L413.266 103.882ZM492.456 98.3256C491.833 94.7119 489.546 90.7309 486.179 86.7351C476.657 107.148 465.189 126.583 460.825 134.09C473.045 143.052 485.663 146.398 496.666 143.72C498.06 140.897 503.248 127.233 508.402 111.397C504.891 105.925 499.54 101.351 492.456 98.3256ZM512.873 49.5796H512.872C512.509 54.9543 512.51 54.9527 512.873 49.5796ZM467.579 20.8813C463.925 22.9161 463.925 22.9161 467.579 20.8813H467.579Z" fill="#011941"/>
<path fill-rule="evenodd" clip-rule="evenodd" d="M486.179 86.7346C476.716 75.5 458.72 64.1381 445.117 60.4644C430.694 77.8857 418.055 96.7222 413.266 103.882C418.515 116.212 451.589 136.355 460.824 134.089C465.189 126.581 476.66 107.143 486.179 86.7346ZM508.282 111.764C503.23 127.253 498.173 140.592 496.717 143.613C503.983 143.682 509.388 141.848 512.051 137.928C513.609 135.474 513.988 132.402 513.321 128.88C513.41 122.665 511.765 116.695 508.479 111.519L508.401 111.396L508.282 111.764ZM395.667 54.149C392.195 55.0418 389.575 56.6913 388.016 59.1443L387.912 59.314L387.822 59.4648L387.735 59.617L387.652 59.7692L387.571 59.9244L387.482 60.1044L387.409 60.2595L387.337 60.4176L387.27 60.5727L387.213 60.7118L387.151 60.8713L387.091 61.0294L387.074 61.0806C387.037 61.1816 387.002 61.284 386.968 61.388L386.917 61.5534L386.903 61.6046C386.865 61.729 386.831 61.8549 386.797 61.9807L386.756 62.149L386.743 62.2017C386.723 62.2939 386.702 62.3861 386.683 62.4783L386.646 62.6569L386.624 62.7784C385.997 66.2735 386.919 70.5194 389.173 75.238C391.068 72.7587 401.363 62.1022 413.658 50.6203C407.079 49.5723 400.857 50.932 395.667 54.149Z" fill="url(#paint9_linear_6863_7842)"/>
<path fill-rule="evenodd" clip-rule="evenodd" d="M426.021 21.0315C411.576 27.2184 398.654 37.8151 389.466 52.2812C387.428 55.4882 386.536 59.0323 386.62 62.8C386.857 61.4684 387.318 60.2436 388.017 59.1441C389.575 56.691 392.195 55.0426 395.666 54.1481C396.05 53.2401 396.517 52.349 397.068 51.4816C404.523 39.7447 414.705 28.7482 426.021 21.0315ZM530.438 89.1791C527.912 102.102 522.269 115.255 515.14 126.478C514.589 127.346 513.981 128.147 513.321 128.881C513.988 132.403 513.609 135.475 512.051 137.928C511.353 139.028 510.441 139.966 509.336 140.746C512.782 139.221 515.61 136.907 517.648 133.699C526.475 119.802 530.606 104.304 530.438 89.1791ZM492.456 98.3256C522.758 50.1703 514.847 32.9649 498.342 22.4817C481.837 11.9985 462.901 12.151 432.193 60.0471C446.751 54.2786 489.413 80.6933 492.456 98.3256Z" fill="url(#paint10_linear_6863_7842)"/>
<path d="M367.772 242.883L335 211.032L335.61 210.072M335.609 210.072L358.674 173.759L356.506 173" stroke="white" stroke-width="0.5"/>
<path fill-rule="evenodd" clip-rule="evenodd" d="M511.405 37.4387C515.613 49.2516 511.909 67.4107 492.456 98.3245C506.277 104.228 513.505 116.028 513.321 128.881C513.98 128.147 514.589 127.346 515.14 126.478C533.787 97.1205 542.265 54.565 511.405 37.4387ZM479.25 17.0144C451.422 -2.5912 415.715 22.1227 397.068 51.4811C396.516 52.3498 396.05 53.2398 395.666 54.1494C405.628 47.9745 419.396 48.6416 432.193 60.0479C451.907 29.2982 466.77 18.2273 479.25 17.0144Z" fill="white"/>
<path fill-rule="evenodd" clip-rule="evenodd" d="M411.481 168.529L460.451 133.405C460.746 133.193 461.158 133.261 461.37 133.556C461.582 133.853 461.515 134.264 461.219 134.477L405.532 174.418L512.96 127.864C513.294 127.72 513.682 127.874 513.827 128.207C513.971 128.541 513.818 128.929 513.484 129.074L415.412 171.573L496.454 143.086C496.797 142.965 497.174 143.145 497.294 143.49C497.415 143.833 497.234 144.209 496.891 144.33L399.917 178.417L399.916 178.417L399.913 178.418L399.91 178.419L399.906 178.421L399.904 178.421L399.903 178.422L399.9 178.423L399.899 178.423L399.896 178.424L399.89 178.426L399.889 178.426L399.887 178.427L399.884 178.428L399.883 178.428L399.88 178.429L399.874 178.431L399.871 178.432L399.868 178.432V178.433L399.864 178.434L399.854 178.437L399.848 178.438L399.834 178.442L399.832 178.442L399.831 178.442L399.825 178.443L399.815 178.445L399.809 178.446V178.447L399.808 178.447L399.799 178.449L399.793 178.449L399.792 178.45L399.79 178.45L399.783 178.451L399.778 178.452L399.776 178.452L399.773 178.452L399.772 178.453V178.453L399.767 178.453L399.763 178.454L399.76 178.454L399.757 178.454L399.756 178.454L399.754 178.455L399.752 178.455L399.747 178.455L399.744 178.456L399.742 178.456L399.74 178.456L399.737 178.456L399.734 178.456L399.731 178.456L399.727 178.457L399.726 178.457L399.724 178.457L399.721 178.457L399.718 178.457H399.716L399.711 178.457L399.71 178.458L399.708 178.458H399.704H399.703L399.7 178.458H399.695H399.694L399.691 178.458L399.687 178.458H399.685H399.684H399.68H399.678H399.675L399.669 178.458H399.668L399.664 178.457H399.661L399.659 178.457L399.654 178.457V178.457L399.652 178.457L399.646 178.457L399.645 178.457L399.642 178.456L399.639 178.456L399.636 178.456L399.633 178.456L399.631 178.456L399.629 178.455L399.626 178.455L399.625 178.455L399.62 178.455L399.615 178.454L399.612 178.453L399.61 178.453H399.609C399.567 178.448 399.527 178.44 399.488 178.427V178.427L399.486 178.426L399.478 178.424L399.475 178.423L399.472 178.422L399.466 178.42L399.463 178.419L399.462 178.418L399.456 178.416L399.44 178.41C399.436 178.408 399.43 178.406 399.426 178.404L399.417 178.4L399.411 178.397L399.403 178.393L399.401 178.393V178.392L399.396 178.39L399.388 178.386L399.387 178.385L399.386 178.385L399.381 178.383L399.38 178.382L399.378 178.381L399.375 178.379L399.373 178.378L399.37 178.377L399.368 178.375L399.367 178.374L399.365 178.374L399.363 178.372L399.358 178.37L399.355 178.368L399.354 178.367L399.352 178.367V178.366L399.348 178.364L399.344 178.361L399.341 178.36L399.338 178.358L399.334 178.355L399.331 178.353L399.328 178.351L399.324 178.349L399.321 178.346L399.316 178.344L399.313 178.342L399.311 178.34L399.308 178.337L399.303 178.334L399.301 178.332L399.298 178.33L399.295 178.328L399.29 178.325L399.286 178.322L399.285 178.32L399.283 178.319L399.277 178.315L399.275 178.313C399.257 178.304 399.241 178.295 399.224 178.285L399.214 178.279L399.213 178.278L399.211 178.277L399.201 178.271V178.27C399.119 178.216 399.048 178.143 398.996 178.054V178.053L398.995 178.05L398.991 178.044L398.989 178.042L398.988 178.039L398.983 178.03V178.029C398.958 177.98 398.937 177.928 398.924 177.873L398.922 177.858C398.911 177.816 398.907 177.774 398.907 177.732L398.86 176.167L388.644 75.3542C388.607 74.9925 388.871 74.6683 389.233 74.6322C389.595 74.5948 389.917 74.8585 389.955 75.2202L398.299 157.566L395.178 53.9278C395.167 53.5647 395.453 53.2606 395.817 53.2505C396.181 53.239 396.485 53.5257 396.496 53.8889L400.056 172.108L412.539 103.704C412.605 103.346 412.948 103.109 413.306 103.175C413.664 103.24 413.901 103.583 413.836 103.942L402.947 163.611L432.003 59.0625C432.1 58.7123 432.464 58.5062 432.814 58.6042C433.165 58.7008 433.37 59.0639 433.273 59.4156L400.903 175.884L492.569 97.079C492.845 96.8412 493.261 96.8729 493.498 97.1481C493.735 97.4248 493.704 97.8413 493.428 98.0777L411.481 168.529Z" fill="white"/>
<path fill-rule="evenodd" clip-rule="evenodd" d="M332 201.839L364.772 233.691L407.533 249.816L408.143 248.856L377.789 213.198L332.61 200.879L332 201.839Z" fill="#011941"/>
<g filter="url(#filter6_i_6863_7842)">
<path fill-rule="evenodd" clip-rule="evenodd" d="M408.58 164.72L411.388 165.43L441.294 200.563L433.611 212.658L431.809 211.597L408.143 248.857L377.788 213.198L408.58 164.72Z" fill="#002E7A"/>
</g>
<g filter="url(#filter7_ii_6863_7842)">
<path fill-rule="evenodd" clip-rule="evenodd" d="M408.57 164.736L408.58 164.72L363.401 152.402L363.391 152.418L361.132 151.803L353.506 163.808L355.674 164.566L332.609 200.879L377.789 213.197L401.347 178.389L403.722 177.499L411.347 165.493L408.57 164.736Z" fill="url(#paint11_linear_6863_7842)"/>
</g>
<path fill-rule="evenodd" clip-rule="evenodd" d="M403.705 177.527L353.515 163.794L354.741 166.037L401.089 178.795L431.268 212.448L433.622 212.642L403.705 177.527Z" fill="black"/>
<path fill-rule="evenodd" clip-rule="evenodd" d="M381.23 178.256C381.989 179.816 382.407 181.57 382.407 183.459C382.407 191.331 375.152 198.576 366.203 199.64C359.402 200.449 353.58 197.455 351.177 192.515L352.346 195.123C354.749 200.063 360.571 203.056 367.372 202.248C376.321 201.184 383.576 193.939 383.576 186.067C383.576 184.177 383.158 182.424 382.399 180.864L381.23 178.256Z" fill="#002E7A"/>
<path d="M382.407 183.459C382.407 191.331 375.152 198.576 366.203 199.64C357.255 200.704 350 195.185 350 187.312C350 179.44 357.255 172.195 366.203 171.131C375.152 170.067 382.407 175.587 382.407 183.459Z" fill="#E8F1FF"/>
<path d="M374.668 182.196C373.36 181.821 371.603 182.01 369.443 182.754C368.419 183.106 367.471 183.527 366.743 183.872C366.743 183.872 366.743 183.872 366.745 183.877L366.747 183.873C366.747 183.873 367.085 184.792 367.472 185.784C368.161 185.449 369.134 185.002 370.166 184.644C372.087 183.982 373.083 184.011 373.582 184.155C375.463 184.694 376.254 186.461 375.349 188.093C374.45 189.715 372.182 190.605 370.299 190.077C370.214 190.053 370.11 190.011 369.986 189.946C370.418 190.313 370.923 190.634 371.484 190.795C374.929 191.782 376.713 189.974 376.838 189.842C377.142 189.505 377.408 189.137 377.626 188.742C379.127 186.034 377.8 183.094 374.668 182.196Z" fill="url(#paint12_linear_6863_7842)"/>
<path d="M357.177 188.593C358.485 188.968 360.242 188.779 362.401 188.035C363.425 187.682 364.374 187.262 365.102 186.917C365.102 186.917 365.102 186.917 365.1 186.912L365.098 186.916C365.098 186.916 364.76 185.997 364.373 185.005C363.683 185.34 362.711 185.787 361.679 186.145C359.758 186.807 358.762 186.777 358.263 186.634C356.384 186.091 355.593 184.324 356.498 182.692C357.397 181.07 359.665 180.181 361.547 180.708C361.633 180.732 361.736 180.775 361.861 180.84C361.428 180.472 360.924 180.151 360.363 179.991C356.918 179.003 355.138 180.813 355.011 180.94C354.705 181.28 354.441 181.645 354.223 182.039C352.718 184.755 354.045 187.694 357.177 188.593Z" fill="url(#paint13_linear_6863_7842)"/>
<path d="M371.5 190.749C369.759 190.203 368.613 188.44 368.41 188.025C367.885 186.951 366.848 184.158 366.768 183.938C366.04 181.837 364.837 179.377 362.635 178.746L362.631 178.745L362.627 178.744C359.948 177.988 356.807 178.958 355.011 180.94C355.134 180.812 357.148 179.023 360.341 180.022C362.082 180.568 363.226 182.352 363.434 182.768C363.959 183.841 364.995 186.635 365.076 186.855C365.806 188.952 367.008 191.412 369.21 192.043L369.214 192.044L369.218 192.046C371.897 192.801 375.043 191.832 376.834 189.849C376.707 189.976 374.7 191.746 371.5 190.749Z" fill="#29ABE2"/>
<g clip-path="url(#clip1_6863_7842)">
<path d="M238.213 112.734C242.072 112.329 244.703 115.545 244.088 119.918C243.474 124.29 239.847 128.164 235.988 128.57C232.129 128.975 229.498 125.759 230.113 121.386C230.727 117.014 234.354 113.14 238.213 112.734Z" fill="#3B00B9"/>
<path fill-rule="evenodd" clip-rule="evenodd" d="M231.617 121.679C231.384 124.694 233.186 126.897 235.834 126.835L235.737 127.521C232.757 127.609 230.733 125.135 231.011 121.743L231.617 121.679Z" fill="url(#paint14_linear_6863_7842)"/>
<path fill-rule="evenodd" clip-rule="evenodd" d="M237.56 114.554C234.85 115.055 232.366 117.709 231.745 120.764L231.14 120.828C231.814 117.394 234.613 114.404 237.656 113.868L237.56 114.554Z" fill="#29ABE2"/>
<path fill-rule="evenodd" clip-rule="evenodd" d="M242.586 119.616C242.818 116.601 241.016 114.399 238.369 114.46L238.465 113.774C241.445 113.686 243.477 116.16 243.191 119.552L242.586 119.616Z" fill="url(#paint15_linear_6863_7842)"/>
<path fill-rule="evenodd" clip-rule="evenodd" d="M236.641 126.75C239.351 126.249 241.835 123.595 242.456 120.54L243.061 120.476C242.388 123.91 239.59 126.891 236.545 127.436L236.641 126.75Z" fill="#29ABE2"/>
<path d="M239.797 119.485C240.034 118.61 239.517 118.205 238.769 117.981L239.189 116.784L238.585 116.674L238.176 117.843C238.019 117.817 237.855 117.791 237.69 117.765L238.107 116.594L237.503 116.484L237.082 117.681C236.947 117.661 236.82 117.639 236.693 117.618L235.858 117.463L235.58 118.246C235.58 118.246 236.028 118.321 236.019 118.33C236.266 118.374 236.285 118.562 236.256 118.713C235.873 119.81 235.482 120.9 235.098 121.998C235.055 122.089 234.959 122.229 234.788 122.195C234.794 122.203 234.348 122.111 234.348 122.111L233.923 122.962L234.706 123.105C234.855 123.133 234.996 123.161 235.137 123.19L234.707 124.405L235.311 124.515L235.731 123.318C235.895 123.353 236.058 123.388 236.215 123.415L235.794 124.612L236.399 124.721L236.828 123.515C237.868 123.631 238.687 123.458 239.184 122.323C239.58 121.405 239.365 120.925 238.853 120.65C239.268 120.468 239.622 120.127 239.797 119.485ZM238.039 121.923C237.72 122.832 236.476 122.486 236.065 122.416L236.634 120.814C237.037 120.884 238.37 120.978 238.039 121.923ZM238.556 119.606C238.263 120.434 237.227 120.136 236.883 120.077L237.394 118.619C237.737 118.678 238.853 118.743 238.556 119.606Z" fill="white"/>
</g>
<g clip-path="url(#clip2_6863_7842)">
<g clip-path="url(#clip3_6863_7842)">
<path d="M97.1238 61.0139C97.8568 59.3495 99.7225 58.9825 101.29 60.1941C102.858 61.4057 103.535 63.7377 102.802 65.402C102.069 67.0663 100.204 67.4334 98.6357 66.2218C97.0678 65.0102 96.3908 62.6782 97.1238 61.0139Z" fill="#3B00B9"/>
<path fill-rule="evenodd" clip-rule="evenodd" d="M99.0978 65.672C100.223 66.4294 101.501 66.178 102.089 65.0836L102.335 65.2738C101.68 66.5097 100.245 66.7921 98.9828 65.9332L99.0978 65.672Z" fill="url(#paint16_linear_6863_7842)"/>
<path fill-rule="evenodd" clip-rule="evenodd" d="M97.6844 61.6804C97.2545 62.8966 97.7182 64.4937 98.7697 65.4185L98.6546 65.6797C97.4675 64.6501 96.945 62.8504 97.4384 61.4902L97.6844 61.6804Z" fill="#29ABE2"/>
<path fill-rule="evenodd" clip-rule="evenodd" d="M100.825 60.7413C99.7001 59.9839 98.4224 60.2353 97.8347 61.3297L97.5886 61.1395C98.2429 59.9036 99.6795 59.6179 100.94 60.4801L100.825 60.7413Z" fill="url(#paint17_linear_6863_7842)"/>
<path fill-rule="evenodd" clip-rule="evenodd" d="M102.242 64.7354C102.672 63.5191 102.208 61.922 101.157 60.9972L101.272 60.736C102.459 61.7657 102.978 63.5628 102.488 64.9255L102.242 64.7354Z" fill="#29ABE2"/>
<path fill-rule="evenodd" clip-rule="evenodd" d="M98.5645 61.3794C98.5236 61.4214 98.5346 61.4905 98.5892 61.5327L98.7232 61.6363C98.7598 61.6646 98.8143 61.6676 98.8427 61.6406C99.3018 61.2117 100.015 61.2025 100.635 61.6816C101.255 62.1606 101.6 62.9877 101.544 63.7284C101.541 63.779 101.566 63.833 101.606 63.864L101.74 63.9676C101.795 64.0098 101.845 63.9886 101.853 63.9206C101.956 63.01 101.54 61.971 100.77 61.3762C100 60.7813 99.1124 60.8122 98.5645 61.3794ZM98.1858 62.4485C98.1312 62.4064 98.0809 62.4276 98.0729 62.4955C97.97 63.4061 98.3864 64.4452 99.1562 65.04C99.9259 65.6348 100.814 65.6039 101.361 65.0368C101.402 64.9948 101.391 64.9257 101.337 64.8835L101.203 64.7799C101.166 64.7516 101.112 64.7485 101.083 64.7755C100.624 65.2044 99.9106 65.2136 99.2907 64.7346C98.6708 64.2555 98.3259 63.4285 98.3815 62.6878C98.385 62.6415 98.3562 62.5802 98.3199 62.5522L98.1858 62.4485ZM98.846 62.2428L98.7787 62.3955C98.7602 62.4377 98.7773 62.4967 98.817 62.5274L99.0398 62.6996C98.9468 63.0335 99.0506 63.3758 99.2938 63.5638C99.609 63.8073 99.8202 63.6994 100.062 63.3147C100.235 63.06 100.33 63.0226 100.485 63.1426C100.64 63.2625 100.682 63.4824 100.595 63.6793C100.478 63.9459 100.329 63.9488 100.173 63.871C100.136 63.8526 100.098 63.8641 100.082 63.9009L100.005 64.075C99.9855 64.1189 100.008 64.1818 100.052 64.2059C100.311 64.3467 100.558 64.3189 100.747 64.0189L100.974 64.1944C101.014 64.2252 101.061 64.2159 101.08 64.1737L101.147 64.021C101.166 63.9788 101.149 63.9198 101.109 63.889L100.882 63.7135C100.973 63.3618 100.855 63.0006 100.6 62.8031C100.263 62.5432 100.055 62.6732 99.8163 63.0505C99.6377 63.3273 99.5432 63.3346 99.4066 63.229C99.2773 63.129 99.2316 62.9533 99.3207 62.751C99.4012 62.5682 99.5078 62.5096 99.6655 62.5731C99.7006 62.5873 99.7354 62.5746 99.7504 62.5405L99.8211 62.3801C99.8408 62.3352 99.8174 62.2704 99.7718 62.2481C99.5304 62.1299 99.3298 62.1849 99.1799 62.3985L98.9509 62.2215C98.9112 62.1908 98.8639 62.2001 98.8454 62.2423L98.846 62.2428Z" fill="white"/>
</g>
</g>
<path opacity="0.8" d="M357.334 68.6408C359.273 67.8826 359.111 65.2828 359.552 65.0138C359.99 64.7433 360.66 68.5329 358.442 69.9932C356.224 71.4549 353.953 70.9139 351.238 72.918C350.62 73.3623 350.11 73.9019 349.702 74.5367C350.588 75.2192 351.87 76.2577 351.57 76.5492C351.182 76.9248 349.441 76.5647 348.745 77.0594C348.118 77.505 346.862 78.3081 346.307 77.8764C345.912 77.5709 346.366 76.4357 346.495 75.5991C343.169 74.6222 341.184 76.0069 338.328 76.8702C335.446 77.7363 331.787 75.4085 332.01 75.0301C332.23 74.6517 334.061 75.1394 336.388 75.0301C338.715 74.9221 340.434 72.6475 342.817 72.485C345.199 72.3224 346.719 74.3924 347.251 73.9467C347.639 73.6216 347.916 71.6189 349.91 70.5355C351.906 69.4522 355.394 69.3976 357.334 68.6408Z" fill="white"/>
<path opacity="0.2" d="M56.9244 113.759C60.0415 113.815 61.9765 112.627 63.0619 113.136C63.8913 113.525 65.536 114.724 67.5606 115.331C67.9193 115.174 68.2957 115.066 68.6874 115.012C69.6041 114.908 70.5952 115.018 70.8548 115.456C70.8795 115.502 70.8925 115.55 70.8937 115.601C73.1153 115.237 74.7553 113.885 75.2886 114.098C75.9257 114.353 76.7988 115.375 78.5697 116.731C80.382 118.118 82.7464 118.401 82.9835 118.74C83.2207 119.08 80.8586 119.194 78.5697 118.401C76.2797 117.608 75.3842 116.645 74.8674 116.476C74.4249 116.33 71.8812 117.465 69.3835 117.553C69.223 117.663 69.0531 117.758 68.8738 117.84C68.0456 118.214 65.923 118.419 65.4652 118.42C64.9733 118.42 64.7078 118.387 64.5697 118.54C64.3432 118.792 64.1486 119 63.9869 119C63.843 119 63.7934 118.737 63.8583 118.562C63.922 118.387 63.6105 118.213 63.7179 118.059C63.8253 117.907 64.2783 117.884 64.4919 117.752C64.6193 117.674 65.1361 117.234 65.6292 116.795C64.0211 116.118 62.8519 115.196 62.4979 114.866C61.9812 114.388 59.7607 115.345 56.7864 115.291C53.812 115.237 51.7827 113.137 52.0186 113.013C52.2546 112.888 53.8096 113.702 56.9244 113.759Z" fill="white"/>
<path opacity="0.2" d="M143.663 23.1672C141.699 23.7316 140.271 23.3074 139.67 23.8139C139.211 24.2013 138.373 25.2399 137.194 25.9681C136.94 25.9292 136.683 25.9251 136.426 25.957C135.827 26.0467 135.218 26.2849 135.128 26.6061C135.12 26.6394 135.12 26.6721 135.128 26.7049C133.659 26.8512 132.391 26.273 132.09 26.4987C131.729 26.7682 131.35 27.5636 130.458 28.7227C129.546 29.9089 128.096 30.4896 128.004 30.7447C127.911 31.0004 129.427 30.6716 130.742 29.7808C132.058 28.8898 132.461 28.128 132.76 27.9329C133.015 27.7657 134.819 28.0525 136.416 27.6848C136.536 27.7268 136.66 27.7583 136.788 27.7798C137.376 27.8762 138.755 27.6456 139.045 27.5686C139.357 27.4851 139.519 27.4193 139.632 27.4928C139.819 27.6138 139.977 27.7124 140.08 27.685C140.171 27.6605 140.158 27.4858 140.087 27.386C140.017 27.2859 140.185 27.1229 140.09 27.0434C139.997 26.9653 139.706 27.0276 139.548 26.9807C139.454 26.9525 139.052 26.7616 138.665 26.5674C139.569 25.8656 140.153 25.083 140.321 24.8144C140.567 24.4239 142.136 24.6533 144.011 24.1139C145.886 23.5752 146.814 21.9003 146.644 21.8621C146.473 21.8231 145.627 22.6026 143.663 23.1672Z" fill="white"/>
<path opacity="0.2" d="M605.905 173.394C605.003 173.19 597.456 172.235 595.446 172.628C594.013 172.908 590.011 175.562 588.902 176.096C588.125 176.472 587.716 176.605 587.363 176.559C586.002 174.947 584.666 172.749 582.942 171.506C581.01 170.111 575.664 169.764 576.017 170.143C576.439 170.598 579.816 170.919 581.507 172.151C582.776 173.077 583.862 174.846 584.477 176.054C584.395 176.218 584.368 176.359 584.167 176.479C583.759 176.716 583.642 176.865 583.876 176.924C584.11 176.983 584.256 176.924 584.377 177.043C584.497 177.161 584.757 177.577 585.399 177.637C586.042 177.697 585.546 178.526 586.101 179.179C586.871 180.085 587.824 179.624 588.146 179.831C588.467 180.04 588.234 180.899 588.409 180.989C588.584 181.076 589.197 180.633 589.635 180.48C590.074 180.326 590.629 180.343 590.657 180.085C590.686 179.827 589.456 179.442 589.314 179.17C589.241 179.036 589.167 178.709 589.032 178.341C591.651 177.812 595.015 175.357 595.743 174.863C596.53 174.328 597.436 174.558 599.218 174.456C600.999 174.354 606.811 173.597 605.905 173.394Z" fill="white"/>
</g>
<defs>
<filter id="filter0_f_6863_7842" x="-176" y="-22" width="965" height="965" filterUnits="userSpaceOnUse" color-interpolation-filters="sRGB">
<feFlood flood-opacity="0" result="BackgroundImageFix"/>
<feBlend mode="normal" in="SourceGraphic" in2="BackgroundImageFix" result="shape"/>
<feGaussianBlur stdDeviation="72" result="effect1_foregroundBlur_6863_7842"/>
</filter>
<filter id="filter1_f_6863_7842" x="-176" y="-22" width="965" height="965" filterUnits="userSpaceOnUse" color-interpolation-filters="sRGB">
<feFlood flood-opacity="0" result="BackgroundImageFix"/>
<feBlend mode="normal" in="SourceGraphic" in2="BackgroundImageFix" result="shape"/>
<feGaussianBlur stdDeviation="72" result="effect1_foregroundBlur_6863_7842"/>
</filter>
<filter id="filter2_f_6863_7842" x="-402" y="-1218" width="1417" height="1417" filterUnits="userSpaceOnUse" color-interpolation-filters="sRGB">
<feFlood flood-opacity="0" result="BackgroundImageFix"/>
<feBlend mode="normal" in="SourceGraphic" in2="BackgroundImageFix" result="shape"/>
<feGaussianBlur stdDeviation="72" result="effect1_foregroundBlur_6863_7842"/>
</filter>
<filter id="filter3_ii_6863_7842" x="91.1821" y="50.5532" width="16.1258" height="23.2704" filterUnits="userSpaceOnUse" color-interpolation-filters="sRGB">
<feFlood flood-opacity="0" result="BackgroundImageFix"/>
<feBlend mode="normal" in="SourceGraphic" in2="BackgroundImageFix" result="shape"/>
<feColorMatrix in="SourceAlpha" type="matrix" values="0 0 0 0 0 0 0 0 0 0 0 0 0 0 0 0 0 0 127 0" result="hardAlpha"/>
<feOffset dy="1"/>
<feGaussianBlur stdDeviation="3.5"/>
<feComposite in2="hardAlpha" operator="arithmetic" k2="-1" k3="1"/>
<feColorMatrix type="matrix" values="0 0 0 0 1 0 0 0 0 1 0 0 0 0 1 0 0 0 0.19 0"/>
<feBlend mode="normal" in2="shape" result="effect1_innerShadow_6863_7842"/>
<feColorMatrix in="SourceAlpha" type="matrix" values="0 0 0 0 0 0 0 0 0 0 0 0 0 0 0 0 0 0 127 0" result="hardAlpha"/>
<feOffset dy="1"/>
<feComposite in2="hardAlpha" operator="arithmetic" k2="-1" k3="1"/>
<feColorMatrix type="matrix" values="0 0 0 0 1 0 0 0 0 1 0 0 0 0 1 0 0 0 0.2 0"/>
<feBlend mode="normal" in2="effect1_innerShadow_6863_7842" result="effect2_innerShadow_6863_7842"/>
</filter>
<filter id="filter4_i_6863_7842" x="249.472" y="100.028" width="22.9646" height="35.3835" filterUnits="userSpaceOnUse" color-interpolation-filters="sRGB">
<feFlood flood-opacity="0" result="BackgroundImageFix"/>
<feBlend mode="normal" in="SourceGraphic" in2="BackgroundImageFix" result="shape"/>
<feColorMatrix in="SourceAlpha" type="matrix" values="0 0 0 0 0 0 0 0 0 0 0 0 0 0 0 0 0 0 127 0" result="hardAlpha"/>
<feOffset dx="2" dy="2"/>
<feComposite in2="hardAlpha" operator="arithmetic" k2="-1" k3="1"/>
<feColorMatrix type="matrix" values="0 0 0 0 0 0 0 0 0 0 0 0 0 0 0 0 0 0 0.25 0"/>
<feBlend mode="normal" in2="shape" result="effect1_innerShadow_6863_7842"/>
</filter>
<filter id="filter5_ii_6863_7842" x="226.437" y="100.064" width="24.3841" height="36.3474" filterUnits="userSpaceOnUse" color-interpolation-filters="sRGB">
<feFlood flood-opacity="0" result="BackgroundImageFix"/>
<feBlend mode="normal" in="SourceGraphic" in2="BackgroundImageFix" result="shape"/>
<feColorMatrix in="SourceAlpha" type="matrix" values="0 0 0 0 0 0 0 0 0 0 0 0 0 0 0 0 0 0 127 0" result="hardAlpha"/>
<feOffset dy="1"/>
<feGaussianBlur stdDeviation="3.5"/>
<feComposite in2="hardAlpha" operator="arithmetic" k2="-1" k3="1"/>
<feColorMatrix type="matrix" values="0 0 0 0 1 0 0 0 0 1 0 0 0 0 1 0 0 0 0.2 0"/>
<feBlend mode="normal" in2="shape" result="effect1_innerShadow_6863_7842"/>
<feColorMatrix in="SourceAlpha" type="matrix" values="0 0 0 0 0 0 0 0 0 0 0 0 0 0 0 0 0 0 127 0" result="hardAlpha"/>
<feOffset dy="0.5"/>
<feComposite in2="hardAlpha" operator="arithmetic" k2="-1" k3="1"/>
<feColorMatrix type="matrix" values="0 0 0 0 1 0 0 0 0 1 0 0 0 0 1 0 0 0 1 0"/>
<feBlend mode="normal" in2="effect1_innerShadow_6863_7842" result="effect2_innerShadow_6863_7842"/>
</filter>
<filter id="filter6_i_6863_7842" x="377.788" y="164.72" width="63.5055" height="84.1371" filterUnits="userSpaceOnUse" color-interpolation-filters="sRGB">
<feFlood flood-opacity="0" result="BackgroundImageFix"/>
<feBlend mode="normal" in="SourceGraphic" in2="BackgroundImageFix" result="shape"/>
<feColorMatrix in="SourceAlpha" type="matrix" values="0 0 0 0 0 0 0 0 0 0 0 0 0 0 0 0 0 0 127 0" result="hardAlpha"/>
<feOffset dx="1" dy="3"/>
<feComposite in2="hardAlpha" operator="arithmetic" k2="-1" k3="1"/>
<feColorMatrix type="matrix" values="0 0 0 0 0 0 0 0 0 0 0 0 0 0 0 0 0 0 0.25 0"/>
<feBlend mode="normal" in2="shape" result="effect1_innerShadow_6863_7842"/>
</filter>
<filter id="filter7_ii_6863_7842" x="332.609" y="151.803" width="78.7382" height="62.3945" filterUnits="userSpaceOnUse" color-interpolation-filters="sRGB">
<feFlood flood-opacity="0" result="BackgroundImageFix"/>
<feBlend mode="normal" in="SourceGraphic" in2="BackgroundImageFix" result="shape"/>
<feColorMatrix in="SourceAlpha" type="matrix" values="0 0 0 0 0 0 0 0 0 0 0 0 0 0 0 0 0 0 127 0" result="hardAlpha"/>
<feOffset dy="1"/>
<feGaussianBlur stdDeviation="3.5"/>
<feComposite in2="hardAlpha" operator="arithmetic" k2="-1" k3="1"/>
<feColorMatrix type="matrix" values="0 0 0 0 1 0 0 0 0 1 0 0 0 0 1 0 0 0 0.19 0"/>
<feBlend mode="normal" in2="shape" result="effect1_innerShadow_6863_7842"/>
<feColorMatrix in="SourceAlpha" type="matrix" values="0 0 0 0 0 0 0 0 0 0 0 0 0 0 0 0 0 0 127 0" result="hardAlpha"/>
<feOffset dy="0.5"/>
<feComposite in2="hardAlpha" operator="arithmetic" k2="-1" k3="1"/>
<feColorMatrix type="matrix" values="0 0 0 0 1 0 0 0 0 1 0 0 0 0 1 0 0 0 1 0"/>
<feBlend mode="normal" in2="effect1_innerShadow_6863_7842" result="effect2_innerShadow_6863_7842"/>
</filter>
<linearGradient id="paint0_linear_6863_7842" x1="320" y1="0" x2="320" y2="260" gradientUnits="userSpaceOnUse">
<stop stop-color="#0066FF"/>
<stop offset="1" stop-color="#4B93FF"/>
</linearGradient>
<linearGradient id="paint1_linear_6863_7842" x1="547.042" y1="85.0429" x2="547.042" y2="147.583" gradientUnits="userSpaceOnUse">
<stop stop-color="#A6C9FF"/>
<stop offset="1" stop-color="white" stop-opacity="0"/>
</linearGradient>
<linearGradient id="paint2_linear_6863_7842" x1="88.7835" y1="16.3189" x2="88.7835" y2="33.3197" gradientUnits="userSpaceOnUse">
<stop stop-color="#3579DE"/>
<stop offset="1" stop-color="#ADCEFF"/>
</linearGradient>
<linearGradient id="paint3_linear_6863_7842" x1="563" y1="216" x2="563" y2="234" gradientUnits="userSpaceOnUse">
<stop stop-color="white"/>
<stop offset="1" stop-color="#81B3FF"/>
</linearGradient>
<linearGradient id="paint4_linear_6863_7842" x1="88.3567" y1="24.2301" x2="77.7366" y2="0.394441" gradientUnits="userSpaceOnUse">
<stop stop-color="#0066FF"/>
<stop offset="1" stop-color="#003D99"/>
</linearGradient>
<linearGradient id="paint5_linear_6863_7842" x1="144" y1="153" x2="144" y2="200" gradientUnits="userSpaceOnUse">
<stop stop-color="#D8E8FF"/>
<stop offset="1" stop-color="white" stop-opacity="0"/>
</linearGradient>
<linearGradient id="paint6_linear_6863_7842" x1="176.525" y1="70.9998" x2="176.525" y2="85.498" gradientUnits="userSpaceOnUse">
<stop stop-color="#8CBAFF"/>
<stop offset="1" stop-color="#4891FF"/>
</linearGradient>
<linearGradient id="paint7_linear_6863_7842" x1="249" y1="39.0002" x2="249" y2="61.0002" gradientUnits="userSpaceOnUse">
<stop stop-color="#3579DE"/>
<stop offset="1" stop-color="#ADCEFF"/>
</linearGradient>
<linearGradient id="paint8_linear_6863_7842" x1="254.7" y1="36.8969" x2="252.999" y2="-1.77442" gradientUnits="userSpaceOnUse">
<stop stop-color="#0066FF"/>
<stop offset="1" stop-color="#003D99"/>
</linearGradient>
<linearGradient id="paint9_linear_6863_7842" x1="460" y1="62" x2="422" y2="114" gradientUnits="userSpaceOnUse">
<stop stop-color="#3579DE"/>
<stop offset="1" stop-color="#ADCEFF"/>
</linearGradient>
<linearGradient id="paint10_linear_6863_7842" x1="470" y1="70.4998" x2="511.5" y2="4.49976" gradientUnits="userSpaceOnUse">
<stop stop-color="#0066FF"/>
<stop offset="1" stop-color="#003D99"/>
</linearGradient>
<linearGradient id="paint11_linear_6863_7842" x1="353" y1="171.5" x2="371.978" y2="213.197" gradientUnits="userSpaceOnUse">
<stop offset="0.212705" stop-color="#0066FF"/>
<stop offset="1" stop-color="#0556CF"/>
</linearGradient>
<linearGradient id="paint12_linear_6863_7842" x1="371.35" y1="181.997" x2="374.999" y2="191.392" gradientUnits="userSpaceOnUse">
<stop offset="0.21" stop-color="#F15A24"/>
<stop offset="0.6841" stop-color="#FBB03B"/>
</linearGradient>
<linearGradient id="paint13_linear_6863_7842" x1="360.495" y1="188.792" x2="356.846" y2="179.397" gradientUnits="userSpaceOnUse">
<stop offset="0.21" stop-color="#ED1E79"/>
<stop offset="0.8929" stop-color="#522785"/>
</linearGradient>
<linearGradient id="paint14_linear_6863_7842" x1="234.42" y1="126.313" x2="230.894" y2="123.422" gradientUnits="userSpaceOnUse">
<stop offset="0.21" stop-color="#ED1E79"/>
<stop offset="1" stop-color="#522785"/>
</linearGradient>
<linearGradient id="paint15_linear_6863_7842" x1="242.473" y1="117.62" x2="238.946" y2="114.728" gradientUnits="userSpaceOnUse">
<stop offset="0.21" stop-color="#F15A24"/>
<stop offset="0.68" stop-color="#FBB03B"/>
</linearGradient>
<linearGradient id="paint16_linear_6863_7842" x1="101.558" y1="65.5459" x2="99.5811" y2="66.2648" gradientUnits="userSpaceOnUse">
<stop offset="0.21" stop-color="#ED1E79"/>
<stop offset="1" stop-color="#522785"/>
</linearGradient>
<linearGradient id="paint17_linear_6863_7842" x1="100.019" y1="60.3485" x2="98.0421" y2="61.0675" gradientUnits="userSpaceOnUse">
<stop offset="0.21" stop-color="#F15A24"/>
<stop offset="0.68" stop-color="#FBB03B"/>
</linearGradient>
<clipPath id="clip0_6863_7842">
<rect width="640" height="260" rx="20" fill="white"/>
</clipPath>
<clipPath id="clip1_6863_7842">
<path d="M230.248 120.427C230.788 116.584 234.354 113.14 238.213 112.734C242.073 112.329 244.763 115.115 244.223 118.958L243.954 120.877C243.414 124.72 239.847 128.164 235.988 128.57C232.129 128.975 229.438 126.189 229.978 122.346L230.248 120.427Z" fill="white"/>
</clipPath>
<clipPath id="clip2_6863_7842">
<path d="M98.3372 65.9911C96.934 64.9067 96.3907 62.6784 97.1238 61.0139C97.8568 59.3494 99.5886 58.879 100.992 59.9634L101.589 60.4248C102.992 61.5091 103.535 63.7375 102.802 65.402C102.069 67.0665 100.337 67.5368 98.9343 66.4525L98.3372 65.9911Z" fill="white"/>
</clipPath>
<clipPath id="clip3_6863_7842">
<rect width="6.50464" height="7.26897" fill="white" transform="matrix(0.408116 -0.926676 0.781204 0.603683 95.7964 64.0277)"/>
</clipPath>
</defs>
</svg>
