<!-- source: DFINITY foundation -->
<svg width="361" height="250" viewBox="0 0 361 250" fill="none" xmlns="http://www.w3.org/2000/svg">
    <g clip-path="url(#clip0_7000_20280)">
        <rect width="361" height="249" transform="translate(0 0.0957031)" fill="white"/>
        <path opacity="0.2" d="M271.043 54.7559C266.846 54.7559 263.046 56.2187 260.265 58.5855C260.301 58.1739 260.337 57.7623 260.337 57.3426C260.337 48.389 251.996 41.1309 241.708 41.1309C239.95 41.1309 238.255 41.3573 236.643 41.7535C232.792 34.2076 224.111 28.9428 214.012 28.9428C210.688 28.9428 207.519 29.5169 204.622 30.552C198.258 24.6241 189.202 20.9142 179.145 20.9142C159.887 20.9142 144.276 34.4995 144.276 51.2587C144.276 68.0178 159.887 81.604 179.145 81.604C179.174 81.604 179.203 81.6016 179.232 81.6016H271.043C279.527 81.6016 286.402 75.6502 286.467 68.2839V68.1787C286.467 60.7638 279.563 54.7559 271.043 54.7559Z" fill="url(#paint0_linear_7000_20280)"/>
        <path opacity="0.2" d="M243.348 168.497C240.66 168.497 238.143 169.296 235.967 170.672C231.72 165.061 225.344 161.474 218.189 161.474C212.615 161.474 207.502 163.643 203.504 167.251C198.848 156.904 189.162 149.789 177.963 149.789C172.291 149.789 167.011 151.621 162.572 154.765C157.328 131.087 137.942 113.506 114.816 113.506C93.0146 113.506 74.5397 129.132 68.0997 150.76C60.0249 153.022 53.3479 159.093 49.6889 167.119C48.7093 166.895 47.6959 166.775 46.6568 166.775C38.4554 166.775 31.8076 174.093 31.8076 183.12C31.8076 183.276 31.8244 183.427 31.8283 183.581H258.141C257.553 175.144 251.162 168.497 243.348 168.497Z" fill="url(#paint1_linear_7000_20280)"/>
        <path fill-rule="evenodd" clip-rule="evenodd" d="M199.158 111.957C194.306 104.722 181.501 85.688 166.892 68.0873C172.142 66.6741 176.748 66.3875 179.984 67.6665L179.984 67.6648C186.195 62.1447 192.632 59.1129 198.76 58.1404C211.215 69.7423 221.644 80.5092 223.564 83.0158C221.868 94.4768 212.839 103.925 199.431 111.72L199.158 111.957ZM118.937 106.342C119.568 102.691 121.885 98.6682 125.296 94.6309C134.942 115.257 146.559 134.893 150.98 142.479C138.601 151.534 125.818 154.915 114.672 152.209C113.26 149.357 108.005 135.551 102.784 119.549C106.34 114.021 111.761 109.399 118.937 106.342ZM98.2549 57.0884L98.2552 57.0884C98.6228 62.5191 98.6223 62.5174 98.2549 57.0884ZM144.138 28.0913C147.84 30.1472 147.84 30.1472 144.138 28.0913L144.138 28.0913Z" fill="#96875C"/>
        <path fill-rule="evenodd" clip-rule="evenodd" d="M125.296 94.63C134.882 83.2784 153.112 71.7982 166.893 68.0863C181.503 85.689 194.307 104.722 199.158 111.956C193.841 124.414 160.336 144.767 150.981 142.478C146.559 134.892 134.939 115.251 125.296 94.63ZM102.905 119.92C108.023 135.57 113.146 149.049 114.62 152.101C107.26 152.171 101.785 150.318 99.0873 146.357C97.5086 143.877 97.1246 140.773 97.8004 137.215C97.7104 130.934 99.3769 124.902 102.705 119.673L102.784 119.549L102.905 119.92ZM216.987 61.7051C220.503 62.6072 223.157 64.2738 224.736 66.7524L224.842 66.9239L224.934 67.0763L225.021 67.2301L225.106 67.3839L225.187 67.5406L225.278 67.7225L225.352 67.8793L225.424 68.039L225.493 68.1957L225.55 68.3362L225.613 68.4974L225.673 68.6571L225.691 68.7089C225.728 68.8109 225.764 68.9145 225.798 69.0195L225.85 69.1866L225.865 69.2383C225.903 69.364 225.937 69.4912 225.971 69.6184L226.013 69.7885L226.026 69.8417C226.047 69.9349 226.068 70.028 226.087 70.1212L226.124 70.3016L226.146 70.4244C226.782 73.9558 225.848 78.2459 223.565 83.0137C221.645 80.5086 211.216 69.7411 198.761 58.1396C205.425 57.0808 211.729 58.4546 216.987 61.7051Z" fill="url(#paint2_linear_7000_20280)"/>
        <path fill-rule="evenodd" clip-rule="evenodd" d="M186.237 28.2426C200.87 34.494 213.96 45.201 223.268 59.8177C225.332 63.0581 226.236 66.6391 226.151 70.446C225.911 69.1006 225.444 67.863 224.736 66.7521C223.157 64.2734 220.503 62.6079 216.987 61.7041C216.598 60.7866 216.125 59.8862 215.567 59.0098C208.015 47.1507 197.7 36.0397 186.237 28.2426ZM80.461 97.0998C83.0204 110.157 88.7362 123.447 95.958 134.787C96.5163 135.664 97.1326 136.474 97.8003 137.215C97.1247 140.774 97.5088 143.878 99.0873 146.357C99.7949 147.468 100.719 148.416 101.838 149.204C98.3471 147.663 95.482 145.325 93.4179 142.084C84.4758 128.042 80.291 112.382 80.461 97.0998ZM118.937 106.342C88.2415 57.6849 96.2551 40.3002 112.975 29.7079C129.694 19.1155 148.877 19.2696 179.985 67.6644C165.238 61.8359 122.02 88.5256 118.937 106.342Z" fill="url(#paint3_linear_7000_20280)"/>
        <path fill-rule="evenodd" clip-rule="evenodd" d="M99.741 44.8207C95.4783 56.7567 99.2304 75.1049 118.937 106.341C104.936 112.306 97.6143 124.229 97.8002 137.215C97.1324 136.474 96.5161 135.664 95.9578 134.788C77.0676 105.124 68.4801 62.1255 99.741 44.8207ZM132.315 24.1838C160.505 4.37401 196.677 29.3453 215.567 59.0095C216.125 59.8871 216.598 60.7864 216.987 61.7056C206.895 55.4663 192.948 56.1404 179.984 67.6654C160.013 36.5955 144.957 25.4093 132.315 24.1838Z" fill="#EAE2D3"/>
        <path fill-rule="evenodd" clip-rule="evenodd" d="M200.967 177.276L151.359 141.786C151.06 141.572 150.643 141.641 150.428 141.939C150.213 142.239 150.282 142.654 150.581 142.87L206.993 183.227L98.1666 136.188C97.8285 136.042 97.4351 136.198 97.2885 136.534C97.1421 136.872 97.2975 137.264 97.6357 137.411L196.985 180.352L114.887 151.569C114.54 151.446 114.158 151.628 114.036 151.976C113.914 152.323 114.097 152.703 114.445 152.825L212.681 187.267L212.682 187.267L212.685 187.268L212.688 187.269L212.692 187.271L212.694 187.272L212.695 187.272L212.698 187.273L212.7 187.274L212.703 187.275L212.709 187.276L212.71 187.277L212.711 187.277L212.714 187.278L212.716 187.278L212.719 187.28L212.725 187.281L212.727 187.282L212.73 187.283L212.73 187.283L212.735 187.284L212.745 187.287L212.751 187.288L212.765 187.292L212.767 187.292L212.768 187.293L212.774 187.294L212.784 187.296L212.79 187.297L212.79 187.297L212.792 187.297L212.8 187.299L212.806 187.3L212.808 187.3L212.809 187.3L212.817 187.301L212.822 187.302L212.824 187.302L212.827 187.303L212.828 187.303L212.828 187.303L212.833 187.304L212.837 187.304L212.84 187.305L212.843 187.305L212.844 187.305L212.846 187.305L212.849 187.305L212.853 187.306L212.856 187.306L212.859 187.306L212.86 187.306L212.863 187.307L212.866 187.307L212.869 187.307L212.873 187.307L212.875 187.307L212.876 187.308L212.879 187.308L212.882 187.308L212.885 187.308L212.89 187.308L212.891 187.308L212.892 187.308L212.897 187.308L212.898 187.308L212.901 187.308L212.906 187.308L212.907 187.308L212.91 187.309L212.914 187.308L212.916 187.308L212.917 187.308L212.922 187.308L212.923 187.308L212.926 187.308L212.932 187.308L212.933 187.308L212.938 187.308L212.941 187.308L212.942 187.308L212.948 187.308L212.948 187.308L212.949 187.307L212.955 187.307L212.957 187.307L212.96 187.307L212.963 187.307L212.965 187.307L212.968 187.306L212.971 187.306L212.973 187.306L212.976 187.306L212.977 187.305L212.982 187.305L212.987 187.305L212.99 187.304L212.992 187.304L212.993 187.304C213.036 187.299 213.076 187.29 213.116 187.277L213.116 187.277L213.117 187.277L213.126 187.274L213.129 187.273L213.132 187.272L213.138 187.27L213.141 187.269L213.142 187.268L213.148 187.266L213.164 187.26C213.168 187.258 213.174 187.256 213.179 187.254L213.187 187.25L213.193 187.247L213.202 187.243L213.203 187.242L213.203 187.242L213.209 187.24L213.217 187.236L213.218 187.235L213.219 187.234L213.224 187.233L213.225 187.232L213.227 187.231L213.23 187.229L213.233 187.227L213.236 187.226L213.237 187.225L213.238 187.224L213.24 187.224L213.243 187.222L213.247 187.219L213.25 187.218L213.252 187.217L213.253 187.216L213.253 187.216L213.257 187.213L213.262 187.211L213.265 187.209L213.268 187.207L213.272 187.205L213.275 187.202L213.278 187.2L213.282 187.198L213.285 187.196L213.29 187.193L213.292 187.191L213.295 187.189L213.298 187.187L213.303 187.184L213.306 187.181L213.309 187.179L213.311 187.177L213.316 187.174L213.32 187.171L213.322 187.17L213.323 187.168L213.329 187.164L213.332 187.162C213.349 187.153 213.365 187.144 213.383 187.134L213.393 187.128L213.395 187.126L213.396 187.126L213.406 187.119L213.406 187.119C213.49 187.064 213.561 186.99 213.614 186.901L213.614 186.899L213.615 186.896L213.619 186.89L213.621 186.888L213.622 186.885L213.627 186.876L213.627 186.875C213.653 186.826 213.673 186.773 213.687 186.717L213.69 186.702C213.7 186.66 213.704 186.618 213.704 186.575L213.752 184.994L224.101 83.1311C224.138 82.7656 223.871 82.438 223.504 82.4016C223.138 82.3637 222.811 82.6302 222.773 82.9957L214.32 166.199L217.482 61.4816C217.492 61.1146 217.203 60.8074 216.834 60.7972C216.466 60.7855 216.158 61.0753 216.146 61.4422L212.541 180.892L199.895 111.776C199.828 111.415 199.48 111.174 199.118 111.241C198.756 111.307 198.515 111.654 198.581 112.016L209.612 172.307L180.178 66.6697C180.079 66.3158 179.711 66.1076 179.356 66.2067C179.001 66.3042 178.793 66.6711 178.891 67.0264L211.682 184.708L118.823 105.082C118.544 104.842 118.122 104.874 117.882 105.152C117.642 105.432 117.673 105.852 117.953 106.091L200.967 177.276Z" fill="url(#paint4_linear_7000_20280)"/>
        <g clip-path="url(#clip1_7000_20280)">
            <circle cx="216.969" cy="197.703" r="29.7663" transform="rotate(-19.2943 216.969 197.703)" fill="white" stroke="url(#paint5_linear_7000_20280)"/>
            <path d="M223.595 185.229C221.466 185.975 219.519 187.856 217.802 190.82C216.988 192.225 216.357 193.645 215.902 194.764C215.902 194.764 215.902 194.764 215.911 194.768L215.909 194.761C215.909 194.761 217.543 195.614 219.335 196.514C219.755 195.443 220.381 193.966 221.198 192.546C222.725 189.911 224.008 189.018 224.821 188.733C227.883 187.661 231.202 189.168 232.224 192.089C233.24 194.99 231.579 198.24 228.531 199.329C228.392 199.377 228.207 199.42 227.966 199.454C228.99 199.517 230.044 199.453 230.957 199.134C236.564 197.171 236.408 193.205 236.39 192.92C236.327 192.208 236.172 191.492 235.925 190.786C234.229 185.941 228.693 183.445 223.595 185.229Z" fill="url(#paint6_linear_7000_20280)"/>
            <path d="M210.176 209.702C212.305 208.956 214.252 207.075 215.968 204.112C216.783 202.707 217.414 201.286 217.868 200.167C217.868 200.167 217.868 200.167 217.86 200.163L217.862 200.17C217.862 200.17 216.227 199.317 214.435 198.418C214.016 199.488 213.389 200.965 212.573 202.385C211.046 205.021 209.762 205.913 208.949 206.198C205.885 207.263 202.567 205.757 201.544 202.836C200.528 199.935 202.189 196.685 205.237 195.596C205.376 195.548 205.562 195.504 205.802 195.471C204.778 195.408 203.724 195.472 202.812 195.791C197.204 197.754 197.367 201.718 197.376 201.998C197.442 202.717 197.594 203.427 197.841 204.133C199.541 208.99 205.077 211.487 210.176 209.702Z" fill="url(#paint7_linear_7000_20280)"/>
            <path d="M230.918 199.06C228.023 199.993 224.265 198.822 223.464 198.485C221.392 197.611 216.412 195.028 216.021 194.824C212.34 192.833 207.594 190.831 204.01 192.086L204.003 192.088L203.996 192.09C199.652 193.633 197.006 197.802 197.377 201.998C197.361 201.72 197.517 197.565 202.826 195.851C205.721 194.918 209.504 196.117 210.311 196.452C212.384 197.326 217.363 199.908 217.754 200.113C221.433 202.097 226.179 204.099 229.763 202.845L229.77 202.842L229.777 202.84C234.121 201.297 236.773 197.126 236.396 192.932C236.405 193.213 236.231 197.338 230.918 199.06Z" fill="#29ABE2"/>
        </g>
    </g>
    <defs>
        <linearGradient id="paint0_linear_7000_20280" x1="253.776" y1="40.9141" x2="215.371" y2="81.604" gradientUnits="userSpaceOnUse">
            <stop stop-color="#F0A354"/>
            <stop offset="1" stop-color="#F0A354" stop-opacity="0"/>
        </linearGradient>
        <linearGradient id="paint1_linear_7000_20280" x1="34.6192" y1="175.172" x2="136.99" y2="150.479" gradientUnits="userSpaceOnUse">
            <stop stop-color="#F0A354"/>
            <stop offset="1" stop-color="#F0A354" stop-opacity="0"/>
        </linearGradient>
        <linearGradient id="paint2_linear_7000_20280" x1="151.816" y1="69.6379" x2="190.181" y2="122.273" gradientUnits="userSpaceOnUse">
            <stop stop-color="#D6C8A1"/>
            <stop offset="1" stop-color="#FFF9E2"/>
        </linearGradient>
        <linearGradient id="paint3_linear_7000_20280" x1="141.686" y1="78.226" x2="99.8003" y2="11.4416" gradientUnits="userSpaceOnUse">
            <stop stop-color="#E8D77E"/>
            <stop offset="1" stop-color="#B0724F"/>
        </linearGradient>
        <linearGradient id="paint4_linear_7000_20280" x1="160.778" y1="162.008" x2="159.543" y2="80.1954" gradientUnits="userSpaceOnUse">
            <stop stop-color="#C39660"/>
            <stop offset="1" stop-color="white"/>
        </linearGradient>
        <linearGradient id="paint5_linear_7000_20280" x1="212.141" y1="201.772" x2="190.703" y2="231.13" gradientUnits="userSpaceOnUse">
            <stop stop-color="#E8D77E"/>
            <stop offset="1" stop-color="#B0724F"/>
        </linearGradient>
        <linearGradient id="paint6_linear_7000_20280" x1="219.186" y1="188.077" x2="236.049" y2="196.781" gradientUnits="userSpaceOnUse">
            <stop offset="0.21" stop-color="#F15A24"/>
            <stop offset="0.6841" stop-color="#FBB03B"/>
        </linearGradient>
        <linearGradient id="paint7_linear_7000_20280" x1="214.585" y1="206.854" x2="197.722" y2="198.15" gradientUnits="userSpaceOnUse">
            <stop offset="0.21" stop-color="#ED1E79"/>
            <stop offset="0.8929" stop-color="#522785"/>
        </linearGradient>
        <clipPath id="clip0_7000_20280">
            <rect width="361" height="249" fill="white" transform="translate(0 0.0957031)"/>
        </clipPath>
        <clipPath id="clip1_7000_20280">
            <path d="M188.403 207.704C182.88 191.927 191.192 174.66 206.969 169.137C222.745 163.614 240.013 171.926 245.536 187.703C251.059 203.48 242.747 220.747 226.97 226.27C211.193 231.793 193.926 223.481 188.403 207.704Z" fill="white"/>
        </clipPath>
    </defs>
</svg>