<!-- source: DFINITY foundation -->
<svg xmlns="http://www.w3.org/2000/svg" width="361" height="250" fill="none"><g clip-path="url(#a)"><rect width="361" height="249" y=".096" fill="url(#b)" fill-opacity=".7" rx="12"/><g fill="#fff" opacity=".64"><path d="m179.238 406.946 56.35-414.737-112.376.62 56.026 430.43z" opacity=".6"/><path d="M181.763 355.377-108.006 57.595 61.587-27.913 194.25 358.955z" opacity=".6"/><path d="M174.33 353.499 496.494 60.596 302.379-27.233 161.772 356.82z" opacity=".6"/></g><path fill="url(#c)" fill-rule="evenodd" d="M254.536 103.432c3.663-7.946 13.34-28.857 25.03-48.629-5.422-.577-10.028-.136-13.03 1.642v-.001c-7.021-4.503-13.873-6.5-20.095-6.502-10.504 13.478-19.132 25.808-20.638 28.598 3.487 11.111 13.919 19.07 28.425 24.7zm78.55-18.195c-1.201-3.526-4.129-7.155-8.143-10.626-6.299 21.994-14.705 43.316-17.887 51.542 13.687 7.043 26.878 8.387 37.488 3.948.949-3.054 3.975-17.587 6.621-34.294-4.394-4.929-10.491-8.665-18.079-10.57m12.711-52.152h-.001q.74 8.174.001 0m-50.008-21.568q-5.012 3.935 0 0" clip-rule="evenodd"/><path fill="url(#d)" fill-rule="evenodd" d="M324.943 74.61c-11.284-9.762-31.146-18.291-45.377-19.808-11.691 19.774-21.368 40.684-25.031 48.629 7.231 11.531 43.618 26.466 52.521 22.721 3.182-8.227 11.59-29.554 17.887-51.543m26.16 21.583c-2.599 16.343-5.546 30.53-6.524 33.792 7.299-1.089 12.428-3.79 14.475-8.146 1.172-2.711 1.062-5.853-.168-9.279-.902-6.249-3.503-11.976-7.624-16.643l-.098-.111zM228.955 56.348c-3.34 1.45-5.705 3.521-6.878 6.23l-.077.187-.067.166-.062.166-.06.166-.056.169-.06.195-.049.167-.047.17-.043.166-.035.149-.036.17-.035.168-.009.054a8 8 0 0 0-.057.325l-.025.174-.007.054q-.026.195-.045.394l-.015.175-.005.055-.016.287-.008.185-.003.126c-.072 3.606 1.529 7.718 4.542 12.092 1.506-2.79 10.135-15.12 20.638-28.597-6.766-.003-12.791 2.353-17.485 6.407" clip-rule="evenodd"/><path fill="url(#e)" fill-rule="evenodd" d="M254.125 18.29c-13.504 8.509-24.776 21.198-31.688 37.173-1.532 3.542-1.863 7.24-1.178 11.005.025-1.373.293-2.675.819-3.89 1.172-2.709 3.537-4.78 6.876-6.23q.36-1.46.982-2.898c5.607-12.962 14.068-25.615 24.189-35.16m115.603 51.718c-.475 13.365-4.038 27.459-9.401 39.853a18.4 18.4 0 0 1-1.441 2.7c1.23 3.426 1.34 6.569.168 9.278a10.2 10.2 0 0 1-2.275 3.259c3.214-2.079 5.682-4.851 7.214-8.393 6.64-15.347 8.314-31.552 5.735-46.697m-36.642 15.228c22.72-53.134 12.043-69.132-6.184-77.017-18.227-7.886-37.197-4.715-60.367 48.225 13.683-8.107 60.688 11.59 66.551 28.792" clip-rule="evenodd"/><path fill="#fff" fill-rule="evenodd" d="M342.39 21.14c6.104 11.178 5.283 29.984-9.304 64.095 14.805 3.719 23.936 14.403 25.8 27.325a18.5 18.5 0 0 0 1.442-2.7c14.026-32.42 15.747-76.46-17.938-88.72M306.88 5.777c-31.039-15.232-62.918 15.25-76.944 47.672q-.622 1.439-.981 2.9c9.009-7.782 22.925-9.307 37.58.095C281.41 22.456 294.554 8.982 306.88 5.777" clip-rule="evenodd"/><path fill="#8FBCFF" fill-rule="evenodd" d="m263.048 168.563 43.525-43.038a.67.67 0 1 1 .941.953l-49.494 48.94 100.342-63.82a.67.67 0 0 1 .719 1.131l-91.604 58.261 76.754-41.492a.669.669 0 1 1 .636 1.178l-91.842 49.648-.001.001-.003.001-.003.002-.004.002-.001.001-.002.001-.002.001-.002.001-.002.001-.006.003-.001.001h-.002l-.002.002h-.002l-.002.002-.006.002-.003.002-.003.001h.001l-.005.002-.009.004-.006.003-.014.006h-.001l-.002.001-.005.002-.01.003-.006.002-.001.001-.008.003-.006.002h-.001l-.002.001-.007.002-.006.002h-.001l-.003.001h-.001v.001l-.004.001-.005.001-.003.001h-.002l-.002.001h-.001l-.003.001-.004.001-.003.001h-.003l-.001.001h-.003l-.003.001-.003.001-.004.001h-.003l-.003.001-.003.001h-.003l-.004.001h-.002l-.001.001h-.004l-.002.001h-.003l-.004.001h-.001l-.003.001h-.006l-.002.001h-.004l-.001.001h-.003l-.006.001h-.001l-.005.001h-.004l-.006.001h-.001l-.006.001h-.011l-.002.001h-.009l-.005.001h-.011a.7.7 0 0 1-.126-.007h-.002l-.009-.002h-.003l-.003-.001-.006-.001-.003-.001h-.002l-.006-.001-.016-.003-.016-.004-.009-.003-.006-.002-.01-.002-.001-.001-.006-.001-.008-.003-.002-.001h-.001l-.005-.001-.002-.001-.001-.001-.003-.001-.004-.001-.003-.001-.001-.001h-.002l-.001-.001-.004-.001-.004-.002-.003-.001-.002-.001h-.002v-.001l-.004-.001-.005-.002-.003-.001-.003-.002-.005-.002-.003-.001-.004-.002-.004-.001-.004-.002-.004-.002-.004-.002-.003-.001-.003-.002-.005-.003-.003-.002-.003-.001-.003-.001-.005-.003-.005-.003-.002-.001-.002-.001-.006-.003-.003-.001-.055-.02-.011-.005-.002-.001-.002-.001-.011-.004v-.001a.66.66 0 0 1-.239-.184l-.001-.001-.002-.003-.005-.005-.002-.002-.001-.002-.006-.009v-.001a.7.7 0 0 1-.085-.147l-.005-.015a.5.5 0 0 1-.034-.123l-.298-1.563-26.315-99.497a.67.67 0 0 1 1.294-.344l21.494 81.271L228.43 56.204a.67.67 0 0 1 1.316-.25l22.412 118.02 1.62-70.606a.67.67 0 0 1 1.339.031l-1.413 61.591 12.483-109.504a.67.67 0 0 1 1.331.151l-13.908 121.99 79.391-93.66a.67.67 0 1 1 1.021.865z" clip-rule="evenodd"/><path fill="url(#f)" fill-rule="evenodd" d="M120.208 83.391c-4.363-9.086-15.888-32.999-29.71-55.563 6.234-.762 11.548-.338 15.038 1.657l.001-.002c8.006-5.314 15.862-7.738 23.03-7.852 12.342 15.335 22.503 29.382 24.288 32.569-3.816 12.862-15.688 22.218-32.296 28.964zm-90.81-19.54c1.32-4.083 4.627-8.316 9.188-12.388 7.652 25.222 17.72 49.631 21.534 59.049-15.638 8.359-30.809 10.146-43.11 5.224-1.148-3.5-4.896-20.186-8.246-39.383 4.972-5.757 11.928-10.17 20.633-12.502M13.814 4.006q-.704 9.428 0 0M71.03-21.74q5.843 4.441-.001 0" clip-rule="evenodd"/><path fill="url(#g)" fill-rule="evenodd" d="M38.587 51.463c12.82-11.447 35.546-21.63 51.911-23.635 13.824 22.566 25.347 46.477 29.71 55.563-8.121 13.413-49.765 31.274-60.087 27.121-3.815-9.419-13.884-33.834-21.534-59.049M8.842 76.798c3.29 18.778 6.94 35.066 8.126 38.807-8.428-1.123-14.385-4.142-16.821-9.123-1.4-3.101-1.33-6.722.026-10.69.925-7.216 3.819-13.859 8.481-19.31l.11-.13zm139.982-48.103c3.873 1.609 6.635 3.953 8.035 7.053l.092.213.08.19.075.19.071.19.068.194.074.223.059.192.057.195.052.19.043.171.045.195.043.193.012.063q.04.184.071.373l.032.2.009.062q.033.226.06.453l.019.202.007.063.024.33.012.213.006.144c.149 4.153-1.622 8.919-5.014 14.011-1.785-3.185-11.947-17.233-24.289-32.567 7.794-.125 14.777 2.48 20.257 7.064" clip-rule="evenodd"/><path fill="url(#h)" fill-rule="evenodd" d="M119.143-14.69c15.709 9.557 28.923 23.97 37.173 42.247 1.829 4.052 2.276 8.305 1.555 12.656-.054-1.582-.385-3.077-1.013-4.466-1.399-3.1-4.161-5.443-8.033-7.053a21 21 0 0 0-1.183-3.321c-6.693-14.829-16.668-29.252-28.499-40.063M-13.085 46.97c.788 15.387 5.148 31.557 11.548 45.737a21 21 0 0 0 1.71 3.084c-1.356 3.97-1.425 7.591-.026 10.69.627 1.39 1.528 2.627 2.679 3.714-3.74-2.337-6.633-5.486-8.462-9.538-7.925-17.559-10.146-36.194-7.449-53.687m42.483 16.88C2.267 3.056 14.278-15.565 35.13-24.977c20.853-9.412 42.763-6.102 70.407 54.46C89.629 20.391 35.84 43.928 29.398 63.85" clip-rule="evenodd"/><path fill="#fff" fill-rule="evenodd" d="M17.523-9.814C10.694 3.173 11.98 24.82 29.398 63.848 12.412 68.4 2.087 80.872.173 95.791a21 21 0 0 1-1.71-3.084c-16.742-37.092-19.52-87.79 19.06-102.521M58.15-28.151c35.479-18.106 72.75 16.43 89.492 53.523a21.3 21.3 0 0 1 1.183 3.323c-10.519-8.801-26.576-10.307-43.288.788C87.79-9.398 72.406-24.682 58.15-28.151" clip-rule="evenodd"/><path fill="#8FBCFF" fill-rule="evenodd" d="M111.579 158.569 60.667 109.78a.77.77 0 1 0-1.068 1.114l57.896 55.48L.759 94.672a.773.773 0 0 0-.807 1.316l106.57 65.456-89.162-46.408a.77.77 0 1 0-.712 1.368l106.689 55.531.001.001.004.002.003.001.005.003.001.001.002.001.003.001.002.001.003.002.006.003h.002l.001.001.003.002h.002l.003.002.007.003.003.002.003.001.005.002.011.005.007.003.016.006.001.001h.002l.006.003.012.004.006.002h.002l.01.004.006.002h.002l.001.001.008.002.007.002.002.001h.003l.002.001.004.001.005.002.004.001h.003l.002.001h.001l.004.001.005.001.003.001.003.001h.002l.003.001.003.001h.004l.005.001.001.001h.002l.003.001h.004l.003.001.005.001h.002l.001.001h.007l.003.001.005.001h.002l.003.001h.005l.002.001h.007l.001.001h.004l.006.001h.002l.005.001h.005l.007.001h.001l.007.001h.012l.003.001h.016l.006.001.004-.001.001.001h.002a.7.7 0 0 0 .145-.011h.001l.011-.002.003-.001h.004l.007-.001.003-.001.002-.001.007-.001.02-.004.017-.005.011-.004.007-.001.011-.004h.002l.007-.002.009-.003.001-.001.002-.001.006-.001.001-.001.002-.001.004-.001.003-.002h.004l.002-.002h.002l.001-.001.004-.002.005-.002.004-.001.002-.001H124v-.001l.005-.002.005-.002.004-.001.004-.002.005-.002.004-.003.004-.001.005-.002.004-.002.005-.003.004-.002.003-.001.004-.003.006-.002.003-.003.004-.001.004-.002.005-.003.006-.003.002-.001.002-.002.007-.004.004-.001.063-.024.012-.006.002-.001.002-.001.013-.005v-.001a.8.8 0 0 0 .273-.216v-.002l.002-.003.006-.006.002-.002.002-.003.007-.01v-.001a.8.8 0 0 0 .094-.171l.006-.017a.6.6 0 0 0 .037-.143l.314-1.806L153.45 54.419a.771.771 0 0 0-1.497-.372l-23.291 94.004 20.765-119.532a.772.772 0 0 0-1.521-.263l-23.685 136.349-3.141-81.302a.77.77 0 0 0-1.542.061l2.74 70.92-16.357-125.911a.771.771 0 0 0-1.529.198l18.222 140.268-93.14-106.452a.771.771 0 1 0-1.16 1.014z" clip-rule="evenodd"/><path fill="#77A8F2" d="M190.66 51.704a.467.467 0 0 1 .786.376l-.521 6.684a14.03 14.03 0 0 0 3.448 10.347l4.148 4.718a.468.468 0 0 1-.461.763l-4.762-1.151a14.02 14.02 0 0 0-12.573 3.113l-3.801 3.353a.467.467 0 0 1-.772-.415l.811-5.793a14.02 14.02 0 0 0-4.026-11.914l-3.997-3.953c-.33-.327-.033-.884.423-.79l5.707 1.17a14.02 14.02 0 0 0 12.433-3.533z" opacity=".16"/><path fill="#77A8F2" d="M11.192 141.332a.21.21 0 0 1 .318-.228l2.51 1.65a6.28 6.28 0 0 0 4.807.885l2.748-.607a.21.21 0 0 1 .2.346l-1.482 1.62a6.28 6.28 0 0 0-1.497 5.607l.493 2.217a.21.21 0 0 1-.33.213l-2.097-1.571a6.28 6.28 0 0 0-5.547-.997l-2.416.714c-.2.059-.354-.178-.218-.337l1.693-1.987a6.28 6.28 0 0 0 1.303-5.643z" opacity=".15"/><g clip-path="url(#i)"><circle cx="187.472" cy="163.994" r="31.879" fill="#2775CA"/><path fill="#fff" d="M196.304 168.775c0-4.649-2.79-6.243-8.369-6.907-3.985-.531-4.782-1.594-4.782-3.454 0-1.859 1.329-3.054 3.985-3.054 2.391 0 3.72.796 4.384 2.789a1 1 0 0 0 .93.664h2.125c.531 0 .93-.399.93-.93v-.133a6.636 6.636 0 0 0-5.978-5.445v-3.188c0-.532-.398-.93-1.062-1.063h-1.993c-.531 0-.93.398-1.
063 1.063v3.055c-3.985.531-6.508 3.187-6.508 6.508 0 4.384 2.656 6.11 8.235 6.775 3.72.664 4.915 1.461 4.915 3.586s-1.86 3.587-4.383 3.587c-3.454 0-4.65-1.462-5.048-3.454-.133-.531-.531-.797-.93-.797h-2.258a.91.91 0 0 0-.93.93v.133c.532 3.32 2.657 5.711 7.04 6.376v3.187c0 .532.399.93 1.063 1.063h1.992c.532 0 .93-.398 1.063-1.063v-3.187c3.985-.665 6.642-3.454 6.642-7.041"/><path fill="#fff" d="M180.763 182.723c-10.361-3.719-15.675-15.276-11.822-25.504 1.992-5.579 6.376-9.829 11.822-11.822.531-.265.796-.664.796-1.328v-1.859c0-.532-.265-.93-.796-1.063-.133 0-.399 0-.532.133-12.619 3.985-19.526 17.401-15.541 30.019 2.391 7.439 8.103 13.151 15.541 15.542.532.265 1.063 0 1.196-.532.132-.132.132-.265.132-.531v-1.86c0-.398-.398-.929-.796-1.195m14.08-41.443c-.532-.266-1.063 0-1.196.531-.133.133-.133.266-.133.531v1.86c0 .531.399 1.063.797 1.328 10.361 3.719 15.674 15.276 11.822 25.504-1.992 5.579-6.376 9.829-11.822 11.822-.531.265-.797.664-.797 1.328v1.86c0 .531.266.93.797 1.062.133 0 .399 0 .532-.132 12.618-3.985 19.526-17.401 15.541-30.02-2.391-7.572-8.236-13.283-15.541-15.674"/></g><g clip-path="url(#j)"><path fill="#F7931A" stroke="#EBF3FF" stroke-width="1.25" d="m282.829 211.758-.107.175c-12.072 19.498-37.65 25.595-57.233 13.601-19.633-12.024-25.804-37.696-13.775-57.331 12.025-19.64 37.698-25.81 57.333-13.784 19.641 12.027 25.81 37.701 13.782 57.339Z"/><path fill="#fff" d="M266.89 189.835c2.497-5.12-.684-9.297-5.672-12.987l4.108-6.706-4.084-2.5-3.999 6.53a193 193 0 0 0-3.287-1.954l4.027-6.573-4.081-2.499-4.108 6.704a153 153 0 0 1-2.619-1.556l.012-.021-5.63-3.451-2.67 4.361s3.051 1.789 2.967 1.813c1.653 1.014 1.603 2.303 1.253 3.228l-4.679 7.64c.113.071.259.167.414.293q-.206-.126-.432-.263l-6.557 10.703c-.391.476-1.205 1.119-2.362.413.024.078-2.968-1.818-2.968-1.818l-3.797 4.378 5.313 3.254c.988.607 1.951 1.219 2.903 1.81l-4.153 6.785 4.078 2.498 4.111-6.712c1.105.709 2.183 1.382 3.242 2.029l-4.093 6.679 4.083 2.5 4.149-6.77c7.105 3.81 12.968 5.023 17.512-1.057 3.661-4.895 2.637-8.706-.686-12.028 3.106.245 5.886-.972 7.707-4.722l-.001-.002zm-14.595 11.005c-3.103 5.071-11.43-.822-14.199-2.514l5.506-8.987c2.767 1.696 11.931 6.214 8.693 11.501m5.867-13.843c-2.826 4.611-9.736-.36-12.041-1.772l4.993-8.15c2.305 1.411 9.994 5.112 7.048 9.922"/></g><g clip-path="url(#k)"><circle cx="121.389" cy="178.507" r="43.45" fill="#fff" transform="rotate(-19.294 121.389 178.507)"/><circle cx="121.389" cy="178.507" r="42.45" stroke="url(#l)" stroke-opacity=".6" stroke-width="2" transform="rotate(-19.294 121.389 178.507)"/><path fill="url(#m)" d="M130.902 160.6c-3.057 1.07-5.852 3.77-8.316 8.025-1.17 2.017-2.076 4.056-2.728 5.662l.013.006-.004-.009s2.347 1.224 4.92 2.515c.602-1.536 1.501-3.657 2.673-5.695 2.192-3.784 4.035-5.066 5.202-5.474 4.396-1.539 9.16.623 10.628 4.817 1.458 4.165-.926 8.83-5.302 10.393-.2.07-.466.132-.812.18 1.471.09 2.984-.001 4.294-.46 8.05-2.818 7.826-8.511 7.8-8.919a12.7 12.7 0 0 0-.667-3.065c-2.435-6.954-10.382-10.539-17.701-7.976"/><path fill="url(#n)" d="M111.637 195.733c3.057-1.07 5.852-3.771 8.316-8.026 1.17-2.016 2.076-4.056 2.728-5.662l-.013-.006.003.01s-2.346-1.225-4.919-2.516c-.602 1.537-1.501 3.657-2.674 5.696-2.192 3.783-4.034 5.065-5.202 5.474-4.398 1.529-9.162-.633-10.63-4.827-1.459-4.165.926-8.83 5.302-10.393.199-.07.465-.132.811-.18-1.47-.09-2.984.001-4.294.46-8.05 2.818-7.816 8.508-7.803 8.91.094 1.032.313 2.051.668 3.065 2.44 6.973 10.388 10.557 17.707 7.995"/><path fill="#29ABE2" d="M141.414 180.455c-4.156 1.34-9.55-.341-10.7-.826-2.976-1.254-10.124-4.962-10.685-5.256-5.285-2.857-12.099-5.732-17.244-3.93l-.01.003-.009.003c-6.237 2.215-10.035 8.2-9.503 14.223-.023-.399.202-6.364 7.823-8.823 4.156-1.34 9.586.38 10.745.862 2.976 1.254 10.124 4.962 10.686 5.256 5.28 2.848 12.095 5.722 17.24 3.921l.009-.003.01-.003c6.237-2.215 10.044-8.203 9.503-14.224.013.403-.237 6.325-7.865 8.797"/></g><path fill="#fff" d="M233.813 146.432c.178-.1.386.071.322.265l-1.006 3.038a6.7 6.7 0 0 0 .415 5.19l1.382 2.661c.101.193-.107.401-.301.301l-2.075-1.079a6.7 6.7 0 0 0-6.183.006l-2.145 1.119a.223.223 0 0 1-.31-.281l1.038-2.592a6.7 6.7 0 0 0-.504-5.982l-1.4-2.289c-.116-.189.086-.413.286-.318l2.512 1.195a6.69 6.69 0 0 0 6.166-.216z"/></g><defs><linearGradient id="b" x1="73.945" x2="73.945" y1="249.096" y2="44.354" gradientUnits="userSpaceOnUse"><stop stop-color="#7EB2FF" stop-opacity="0"/><stop offset="1" stop-color="#7EB2FF"/></linearGradient><linearGradient id="c" x1="298.902" x2="279.181" y1="138.276" y2="14.155" gradientUnits="userSpaceOnUse"><stop stop-color="#0153CC"/><stop offset="1" stop-color="#1674FF"/></linearGradient><linearGradient id="d" x1="294.74" x2="270.149" y1="53.97" y2="115.939" gradientUnits="userSpaceOnUse"><stop stop-color="#F8EED3"/><stop offset="1" stop-color="#fff"/></linearGradient><linearGradient id="f" x1="69.732" x2="90.207" y1="124.328" y2="-19.001" gradientUnits="userSpaceOnUse"><stop stop-color="#0153CC"/><stop offset="1" stop-color="#1674FF"/></linearGradient><linearGradient id="g" x1="73.004" x2="102.449" y1="27.144" y2="98.081" gradientUnits="userSpaceOnUse"><stop stop-color="#F8EED3"/><stop offset="1" stop-color="#fff"/></linearGradient><linearGradient id="l" x1="143.309" x2="83.375" y1="137.658" y2="201.198" gradientUnits="userSpaceOnUse"><stop stop-color="#8FBCFF"/><stop offset="1" stop-color="#8FBCFF" stop-opacity=".2"/></linearGradient><linearGradient id="m" x1="124.572" x2="148.78" y1="164.687" y2="177.183" gradientUnits="userSpaceOnUse"><stop offset=".21" stop-color="#F15A24"/><stop offset=".684" stop-color="#FBB03B"/></linearGradient><linearGradient id="n" x1="117.967" x2="93.759" y1="191.645" y2="179.15" gradientUnits="userSpaceOnUse"><stop offset=".21" stop-color="#ED1E79"/><stop offset=".893" stop-color="#522785"/></linearGradient><clipPath id="a"><rect width="361" height="249" y=".096" fill="#fff" rx="12"/></clipPath><clipPath id="i"><path fill="#fff" d="M155.593 132.114h63.759v63.759h-63.759z"/></clipPath><clipPath id="j"><path fill="#fff" d="M206.896 177.259c7.025-22.299 30.796-34.682 53.095-27.657s34.682 30.796 27.657 53.095-30.796 34.682-53.095 27.657-34.682-30.796-27.657-53.095"/></clipPath><clipPath id="k"><path fill="#fff" d="M80.379 192.864c-7.93-22.649 4.004-47.437 26.653-55.366s47.437 4.003 55.366 26.653-4.004 47.437-26.653 55.366-47.437-4.004-55.366-26.653"/></clipPath><radialGradient id="e" cx="0" cy="0" r="1" gradientTransform="matrix(-79.43165 17.87739 -15.24621 -67.74099 317.861 29.567)" gradientUnits="userSpaceOnUse"><stop stop-color="#84B6FF"/><stop offset=".685" stop-color="#1F77FB"/><stop offset="1" stop-color="#3F8AFA"/></radialGradient><radialGradient id="h" cx="0" cy="0" r="1" gradientTransform="rotate(11.786 25.627 222.212)scale(93.7969 79.9919)" gradientUnits="userSpaceOnUse"><stop stop-color="#84B6FF"/><stop offset=".685" stop-color="#1F77FB"/><stop offset="1" stop-color="#3F8AFA"/></radialGradient></defs></svg>
