<!-- source: DFINITY foundation -->
<svg width="640" height="360" viewBox="0 0 640 360" fill="none" xmlns="http://www.w3.org/2000/svg">
    <g clip-path="url(#clip0_7680_19880)">
        <rect width="640" height="360" fill="url(#paint0_linear_7680_19880)"/>
        <rect width="640" height="360" fill="url(#paint1_linear_7680_19880)"/>
        <path fill-rule="evenodd" clip-rule="evenodd" d="M80.9978 104.124C79.7567 101.993 76.501 96.3717 73.8326 90.4715C72.82 91.6276 72.1742 92.7625 72.0998 93.7432C69.9231 94.6335 68.3524 95.8933 67.3424 97.3284C68.751 101.934 70.1995 105.924 70.5982 106.723C73.729 107.717 77.2531 106.601 80.9022 104.164L80.9978 104.124ZM89.5238 83.0511C88.5165 82.7588 87.2036 82.8465 85.7525 83.2106C89.8082 88.2257 93.3669 93.6209 94.7489 95.6859C98.5893 93.6687 101.037 90.8436 101.733 87.6756C101.181 86.9633 98.3182 83.9096 94.8924 80.5927C93.0426 80.808 91.1929 81.6107 89.5238 83.0511ZM79.5494 71.6708C80.8862 72.4388 80.8862 72.4388 79.5494 71.6708V71.6708ZM66.4707 79.7157C66.5345 80.9117 66.5345 80.9117 66.4707 79.7157V79.7157Z" fill="#5A81C1"/>
        <path fill-rule="evenodd" clip-rule="evenodd" d="M85.7524 83.209C81.6717 84.2325 76.4867 87.4331 73.8304 90.4722C76.4997 96.3733 79.7575 101.993 80.9971 104.126C84.8305 104.324 94.1692 98.3473 94.7474 95.6884C93.3645 93.6206 89.8072 88.2247 85.7524 83.209ZM94.9713 80.6699C98.3203 83.9174 101.117 86.8966 101.711 87.6492C102.643 85.7898 102.852 84.1674 102.177 82.9903C101.742 82.2819 100.997 81.7975 100.008 81.5267C98.4193 80.722 96.6771 80.3939 94.9323 80.5892L94.8932 80.5944L94.9713 80.6699ZM65.9891 102.399C65.7834 103.405 65.8771 104.287 66.312 104.996L66.3433 105.045L66.3719 105.087L66.398 105.129L66.4266 105.168L66.4579 105.209L66.4917 105.254L66.523 105.293L66.5542 105.332L66.5855 105.368L66.6141 105.399L66.648 105.436L66.6818 105.472L66.6922 105.483C66.7131 105.504 66.7365 105.527 66.7574 105.548L66.7938 105.582L66.8068 105.592C66.8329 105.618 66.8615 105.642 66.8902 105.668L66.9266 105.699L66.9396 105.709C66.9605 105.725 66.9813 105.743 67.0022 105.759L67.0438 105.79L67.0724 105.811C67.8928 106.413 69.1011 106.709 70.5986 106.722C70.2001 105.923 68.7522 101.933 67.3433 97.3264C66.2469 98.889 65.8146 100.66 65.9891 102.399Z" fill="url(#paint2_linear_7680_19880)"/>
        <path opacity="0.2" d="M617.244 287.147C617.244 292.662 612.574 297.132 606.811 297.132H592.175C586.414 297.132 581.744 292.662 581.744 287.147C581.744 281.633 586.414 277.163 592.175 277.163H606.811C612.574 277.163 617.244 281.633 617.244 287.147Z" fill="url(#paint3_linear_7680_19880)"/>
        <path fill-rule="evenodd" clip-rule="evenodd" d="M61.2848 90.4261C61.0602 94.9205 62.1618 99.578 64.7285 103.76C65.298 104.687 66.0974 105.364 67.0786 105.816C66.7658 105.588 66.5091 105.316 66.3139 104.998C65.8781 104.286 65.7819 103.407 65.9904 102.401C65.8033 102.188 65.6322 101.955 65.4798 101.704C63.397 98.3107 61.8489 94.3083 61.2848 90.4261ZM91.9462 72.1303C94.9541 74.4056 97.6277 77.5097 99.6196 80.7556C99.7747 81.0069 99.903 81.2635 100.01 81.5256C100.999 81.7983 101.742 82.2822 102.178 82.9907C102.373 83.3089 102.499 83.6618 102.561 84.0441C102.601 82.964 102.363 81.9453 101.793 81.0176C99.3282 77.0018 95.8578 73.9885 91.9462 72.1303ZM89.5239 83.0522C80.9441 69.2027 75.5247 69.0744 70.7522 72.002C65.9797 74.9297 63.6376 79.8225 72.0997 93.7441C72.4446 89.2738 84.6044 81.6191 89.5239 83.0522Z" fill="url(#paint4_linear_7680_19880)"/>
        <path fill-rule="evenodd" clip-rule="evenodd" d="M76.2403 70.5215C79.81 70.9238 84.0171 74.1587 89.5229 83.0507C92.7794 80.2371 96.7245 79.8617 100.008 81.5251C99.9027 81.2632 99.7731 81.0066 99.6192 80.7555C94.4104 72.2659 84.5274 64.7348 76.2403 70.5215ZM66.9432 76.2271C58.4023 80.9202 60.2709 93.2146 65.4797 101.704C65.6336 101.955 65.8037 102.188 65.99 102.398C65.6525 99.0607 67.5562 95.6016 72.0981 93.7438C66.6651 84.8059 65.6876 79.589 66.9432 76.2271Z" fill="#DEECFF"/>
        <path fill-rule="evenodd" clip-rule="evenodd" d="M97.4054 112.71L94.5238 95.6964C94.5082 95.5924 94.5758 95.4962 94.6798 95.4779C94.7813 95.4597 94.8801 95.53 94.8983 95.6314L98.1726 114.981L99.7019 81.4886C99.7071 81.3845 99.7955 81.3039 99.8995 81.3091C100.004 81.3143 100.084 81.4027 100.079 81.5067L98.6824 112.081L101.543 87.6497C101.554 87.5457 101.647 87.4729 101.751 87.4833C101.855 87.4963 101.928 87.5899 101.918 87.6939L98.4951 116.929V116.931V116.934V116.937L98.4925 116.939V116.944V116.95L98.4899 116.955V116.957L98.4873 116.963V116.968L98.4847 116.973V116.976L98.4821 116.978V116.984L98.4795 116.986V116.989L98.4769 116.991L98.4743 116.997V116.999H98.4717V117.004L98.4691 117.007V117.01H98.4665V117.012C98.4587 117.023 98.4509 117.033 98.4431 117.041L98.4405 117.043L98.4379 117.046V117.049L98.4327 117.051L98.4301 117.054L98.4275 117.056L98.4223 117.059L98.4197 117.062L98.4171 117.064H98.4145L98.4119 117.067L98.4093 117.069H98.4067L98.4041 117.072L98.4015 117.075H98.3989L98.3963 117.077H98.3937L98.3911 117.08H98.3885C98.3833 117.085 98.3781 117.088 98.3729 117.09L98.3703 117.093L98.3677 117.095C98.3417 117.108 98.3157 117.119 98.2871 117.121H98.2819H98.2767C98.2611 117.121 98.2455 117.119 98.2299 117.116L98.2247 117.114C98.2143 117.111 98.2013 117.108 98.1909 117.103L97.7825 116.918L70.5605 106.872C70.4643 106.835 70.4149 106.726 70.4487 106.63C70.4851 106.531 70.5944 106.482 70.6932 106.518L92.9269 114.723L65.8714 102.497C65.7752 102.453 65.7336 102.341 65.7752 102.248C65.8194 102.151 65.9312 102.11 66.0249 102.151L96.8879 116.099L80.8595 104.289C80.7763 104.227 80.7581 104.107 80.8205 104.024C80.8803 103.941 80.9999 103.923 81.0832 103.985L95.0674 114.289L71.8219 93.6678C71.7439 93.5976 71.7361 93.4806 71.8063 93.4026C71.8739 93.3245 71.9936 93.3167 72.0716 93.3843L97.9672 116.357L89.2157 82.8643C89.1897 82.7655 89.2521 82.6615 89.3509 82.6355C89.4523 82.6095 89.5564 82.6693 89.5824 82.7707L97.4054 112.71Z" fill="white"/>
        <path fill-rule="evenodd" clip-rule="evenodd" d="M95.9817 137.35L108.297 132.921L117.822 123.947L117.653 123.67L104.663 126.997L95.8125 137.072L95.9817 137.35Z" fill="#7C692B"/>
        <path fill-rule="evenodd" clip-rule="evenodd" d="M96.061 112.978L96.5952 112.347L109.395 109.069L111.541 112.565L111.041 112.896L117.653 123.67L104.662 126.997L96.061 112.978Z" fill="#F3D986"/>
        <path d="M788.29 183.179C692.719 182.748 499.895 182.144 493.164 183.179C493.164 183.179 541.92 162.581 574.712 163.116C592.619 163.408 602.122 169.496 620.016 170.235C654.146 171.645 672.04 152.034 706.095 154.703C739.962 157.357 788.29 183.179 788.29 183.179Z" fill="#B6E2FF"/>
        <g filter="url(#filter0_ii_7680_19880)">
            <path fill-rule="evenodd" clip-rule="evenodd" d="M96.0634 112.983L96.0609 112.978L87.2124 123.055L87.2148 123.058L86.7724 123.562L88.903 127.035L89.3701 126.572L95.8138 137.072L104.662 126.995L98.6686 116.56L98.7378 115.835L96.6072 112.365L96.0634 112.983Z" fill="#FCFF8B"/>
        </g>
        <path d="M320.72 215.309C264.326 215.054 150.545 214.698 146.574 215.309C146.574 215.309 175.344 203.154 194.693 203.47C205.26 203.642 210.867 207.235 221.426 207.671C241.565 208.503 252.124 196.931 272.219 198.505C292.203 200.072 320.72 215.309 320.72 215.309Z" fill="#ACDDFF"/>
        <path fill-rule="evenodd" clip-rule="evenodd" d="M98.7439 115.844L88.8996 127.029L89.6298 126.997L98.7415 116.675L111.192 113.142L111.539 112.562L98.7439 115.844Z" fill="#7C692B"/>
        <path fill-rule="evenodd" clip-rule="evenodd" d="M-15.4009 179.388L-6.80942 174.383L-0.928809 166.366L-1.09344 166.182L-10.3403 170.457L-15.5656 179.203L-15.4009 179.388Z" fill="#5182B1"/>
        <path d="M434.144 219.065C374.6 218.796 254.462 218.42 250.269 219.065C250.269 219.065 280.646 206.232 301.076 206.565C312.233 206.747 318.154 210.54 329.303 211.001C350.567 211.879 361.716 199.66 382.933 201.323C404.034 202.977 434.144 219.065 434.144 219.065Z" fill="#ACDDFF"/>
        <path d="M-59.0795 252.344C6.38606 252.235 138.47 252.083 143.081 252.344C143.081 252.344 109.683 247.15 87.2206 247.285C74.9543 247.359 68.4448 248.894 56.1873 249.08C32.8088 249.436 20.551 244.491 -2.776 245.164C-25.9749 245.833 -59.0795 252.344 -59.0795 252.344Z" fill="white"/>
        <path d="M-183.264 252.344C-117.799 252.235 14.2854 252.083 18.896 252.344C18.896 252.344 -14.5017 247.15 -36.9639 247.285C-49.2303 247.359 -55.7397 248.894 -67.9973 249.08C-91.3758 249.436 -103.634 244.491 -126.961 245.164C-150.16 245.833 -183.264 252.344 -183.264 252.344Z" fill="white"/>
        <g filter="url(#filter1_f_7680_19880)">
            <path d="M232.792 345.82C228.779 345.82 225.023 347.461 221.775 350.284C215.434 338.771 205.917 331.41 195.236 331.41C186.915 331.41 179.283 335.86 173.315 343.263C166.364 322.032 151.907 307.432 135.189 307.432C126.723 307.432 118.841 311.19 112.214 317.642C104.386 269.054 75.4478 232.976 40.9265 232.976C8.38264 232.976 -19.1955 265.043 -28.8089 309.423C-40.8624 314.066 -50.8295 326.524 -56.2914 342.993C-57.7537 342.533 -59.2666 342.287 -60.8177 342.287C-73.0602 342.287 -82.9836 357.305 -82.9836 375.829C-82.9836 376.148 -82.9586 376.457 -82.9528 376.773H254.874C253.996 359.462 244.456 345.82 232.792 345.82Z" fill="white" fill-opacity="0.8"/>
        </g>
        <g filter="url(#filter2_f_7680_19880)">
            <path d="M559.94 345.82C555.926 345.82 552.17 347.461 548.922 350.284C542.581 338.771 533.064 331.41 522.383 331.41C514.062 331.41 506.43 335.86 500.462 343.263C493.511 322.032 479.054 307.432 462.336 307.432C453.87 307.432 445.988 311.19 439.361 317.642C431.533 269.054 402.595 232.976 368.074 232.976C335.53 232.976 307.952 265.043 298.338 309.423C286.285 314.066 276.318 326.524 270.856 342.993C269.393 342.533 267.881 342.287 266.33 342.287C254.087 342.287 244.164 357.305 244.164 375.829C244.164 376.148 244.189 376.457 244.194 376.773H582.021C581.143 359.462 571.603 345.82 559.94 345.82Z" fill="white" fill-opacity="0.8"/>
        </g>
        <g filter="url(#filter3_f_7680_19880)">
            <path d="M414.124 345.82C418.137 345.82 421.893 347.461 425.141 350.284C431.482 338.771 441 331.41 451.68 331.41C460.001 331.41 467.633 335.86 473.601 343.263C480.552 322.032 495.009 307.432 511.727 307.432C520.193 307.432 528.075 311.19 534.702 317.642C542.53 269.054 571.468 232.976 605.99 232.976C638.533 232.976 666.112 265.043 675.725 309.423C687.778 314.066 697.745 326.524 703.207 342.993C704.67 342.533 706.183 342.287 707.734 342.287C719.976 342.287 729.9 357.305 729.9 375.829C729.9 376.148 729.875 376.457 729.869 376.773H392.042C392.92 359.462 402.46 345.82 414.124 345.82Z" fill="white" fill-opacity="0.8"/>
        </g>
        <g filter="url(#filter4_f_7680_19880)">
            <path d="M83.0998 400.464C85.9287 400.464 88.5759 402.105 90.8653 404.928C95.3343 393.415 102.042 386.054 109.57 386.054C115.435 386.054 120.814 390.504 125.021 397.908C129.919 376.676 140.109 362.076 151.892 362.076C157.859 362.076 163.415 365.834 168.085 372.286C173.603 323.698 193.999 287.62 218.33 287.62C241.267 287.62 260.705 319.687 267.48 364.067C275.976 368.71 283.001 381.168 286.85 397.637C287.881 397.177 288.947 396.931 290.041 396.931C298.669 396.931 305.664 411.949 305.664 430.473C305.664 430.792 305.646 431.101 305.642 431.417H67.5364C68.1551 414.106 74.8793 400.464 83.0998 400.464Z" fill="white" fill-opacity="0.8"/>
        </g>
        <path d="M581.744 232.033C647.209 231.925 779.293 231.772 783.904 232.033C783.904 232.033 750.506 226.84 728.044 226.975C715.778 227.048 709.268 228.583 697.011 228.77C673.632 229.125 661.374 224.18 638.047 224.853C614.848 225.523 581.744 232.033 581.744 232.033Z" fill="white"/>
        <path d="M404.81 -53.8252L689.215 104.611" stroke="url(#paint5_linear_7680_19880)" stroke-width="0.585689"/>
        <path d="M406.93 -54.0918L687.094 111.728" stroke="url(#paint6_linear_7680_19880)" stroke-width="0.585689"/>
        <path d="M217.764 77.931C222.185 67.6551 229.934 60.0268 241.037 60.5591C238.488 62.5486 236.339 65.7118 234.775 70.6054C238.179 59.9552 244.353 57.5017 251.397 57.5017M289.332 101.85C289.325 101.897 289.318 101.944 289.31 101.991C285.645 96.0339 278.885 92.7228 270.817 94.0436M270.817 94.0436C270.801 90.3814 270.666 87.0742 270.423 84.0892M270.817 94.0436C264.277 86.8368 236.987 87.1505 231.98 94.0418L231.98 94.0436L231.979 94.0435" stroke="#689DEC" stroke-width="1.1094"/>
        <path fill-rule="evenodd" clip-rule="evenodd" d="M236.073 119.694C236.185 115.009 236.496 102.673 238.036 90.4667C235.249 91.3379 233.079 92.5331 231.98 94.0446C227.572 93.3238 223.779 93.8009 220.72 95.1231C218.423 103.982 216.802 111.877 216.657 113.57C220.735 118.288 227.554 119.984 235.882 119.665L236.073 119.694ZM270.817 94.0446C269.477 92.5694 267.265 91.4079 264.554 90.5549C266.135 102.704 266.537 114.972 266.724 119.694C274.948 120.246 281.718 118.102 285.99 113.663C285.807 111.96 284.203 104.171 281.951 95.3979C278.743 93.9072 274.952 93.3679 270.817 94.0446ZM265.974 65.707C267.374 68.2815 267.374 68.2815 265.974 65.707V65.707ZM236.805 65.7407C235.721 67.7397 235.721 67.7397 236.805 65.7407V65.7407Z" fill="#1D4991"/>
        <path fill-rule="evenodd" clip-rule="evenodd" d="M264.554 90.5537C256.932 88.1552 245.354 88.1871 238.036 90.4677C236.495 102.674 236.185 115.01 236.075 119.694C242.082 123.825 263.143 123.427 266.724 119.694C266.538 114.973 266.135 102.703 264.554 90.5537ZM282.004 95.601C284.201 104.186 285.77 111.786 285.983 113.598C289.339 111.511 291.286 109.093 291.366 106.516C291.366 104.935 290.644 103.413 289.31 101.991C287.538 99.109 285.041 96.8481 282.024 95.4316L281.952 95.3972L282.004 95.601ZM213.487 101.991C212.154 103.413 211.432 104.935 211.432 106.516V106.624L211.437 106.719L211.44 106.815L211.447 106.908L211.454 107.004L211.467 107.112L211.479 107.205L211.491 107.299L211.506 107.389L211.521 107.47L211.538 107.561L211.558 107.652L211.562 107.679C211.577 107.738 211.589 107.795 211.604 107.851L211.629 107.942L211.639 107.971C211.658 108.038 211.678 108.106 211.7 108.173L211.729 108.263L211.739 108.29C211.756 108.34 211.774 108.389 211.791 108.435L211.828 108.529L211.852 108.59C212.584 110.38 214.246 112.059 216.656 113.569C216.804 111.877 218.424 103.982 220.719 95.1223C217.393 96.5608 214.933 98.9986 213.487 101.991Z" fill="url(#paint7_linear_7680_19880)"/>
        <path fill-rule="evenodd" clip-rule="evenodd" d="M217.765 77.9293C212.937 84.9834 210.095 93.618 210.095 102.94C210.095 105.009 210.719 106.896 211.856 108.601C211.576 107.919 211.433 107.224 211.433 106.516C211.433 104.933 212.154 103.413 213.486 101.991C213.399 101.46 213.352 100.915 213.352 100.355C213.352 92.7934 214.821 84.7747 217.765 77.9293ZM285.59 78.7672C288.199 85.438 289.444 93.1238 289.444 100.355C289.444 100.915 289.398 101.46 289.31 101.991C290.643 103.413 291.365 104.933 291.365 106.516C291.365 107.224 291.22 107.919 290.94 108.601C292.078 106.896 292.702 105.009 292.702 102.94C292.702 93.9854 290.078 85.6627 285.59 78.7672ZM270.817 94.0435C270.686 63.0943 262.035 57.5018 251.397 57.5018C240.762 57.5018 232.111 63.0943 231.979 94.0435C236.982 87.1507 264.276 86.8362 270.817 94.0435Z" fill="url(#paint8_linear_7680_19880)"/>
        <path fill-rule="evenodd" clip-rule="evenodd" d="M261.76 60.559C267.136 64.7558 270.733 74.1754 270.817 94.0435C278.885 92.7227 285.645 96.0327 289.31 101.99C289.399 101.461 289.444 100.914 289.444 100.356C289.444 81.4349 280.925 59.4223 261.76 60.559ZM241.037 60.559C222.54 59.6723 213.352 81.4349 213.352 100.356C213.352 100.914 213.399 101.461 213.486 101.99C216.262 96.2485 222.777 92.5385 231.98 94.0435C232.065 74.1754 235.659 64.7558 241.037 60.559Z" fill="#E2EEFF"/>
        <path fill-rule="evenodd" clip-rule="evenodd" d="M254.111 149.899L266.354 119.489C266.427 119.304 266.635 119.215 266.819 119.29C267.004 119.363 267.091 119.574 267.018 119.755L253.098 154.338L288.849 101.629C288.961 101.466 289.184 101.423 289.346 101.534C289.511 101.646 289.552 101.869 289.443 102.031L256.805 150.151L285.71 113.433C285.831 113.278 286.056 113.251 286.212 113.372C286.367 113.496 286.396 113.721 286.272 113.876L251.685 157.812V157.815H251.682V157.817L251.68 157.82L251.677 157.822L251.675 157.824L251.672 157.827V157.829L251.668 157.834L251.665 157.837L251.66 157.841L251.653 157.849L251.646 157.856L251.641 157.861L251.638 157.863L251.634 157.868L251.631 157.87L251.629 157.873H251.626L251.624 157.875L251.621 157.878H251.619V157.88H251.617L251.614 157.883L251.612 157.885L251.609 157.887H251.607L251.605 157.89L251.602 157.892H251.6V157.895L251.595 157.897H251.592L251.59 157.9L251.588 157.902H251.585L251.583 157.904H251.58L251.578 157.907L251.575 157.909H251.573L251.571 157.912H251.568L251.566 157.914H251.563L251.561 157.917L251.556 157.919H251.554C251.534 157.929 251.512 157.936 251.491 157.943H251.486L251.483 157.946H251.481H251.478H251.476H251.474L251.464 157.948C251.461 157.948 251.459 157.95 251.457 157.95H251.447L251.442 157.953H251.437H251.435H251.432H251.43H251.425H251.423H251.42H251.418L251.415 157.955H251.413H251.411H251.408H251.406H251.403H251.401H251.398H251.396H251.394H251.391H251.389H251.386H251.384L251.381 157.953H251.379H251.377H251.374H251.369H251.367H251.365H251.362H251.36C251.35 157.953 251.338 157.955 251.328 157.955H251.321H251.314C251.26 157.953 251.207 157.941 251.156 157.914H251.154L251.151 157.912H251.149V157.909L251.144 157.907C251.117 157.892 251.093 157.873 251.071 157.853L251.064 157.846C251.049 157.829 251.035 157.812 251.023 157.793L250.543 157.087L216.45 113.775C216.326 113.619 216.353 113.394 216.508 113.273C216.663 113.149 216.888 113.176 217.012 113.331L244.86 148.709L213.201 102.031C213.089 101.869 213.131 101.646 213.296 101.534C213.46 101.423 213.683 101.466 213.793 101.629L249.91 154.876L235.689 119.823C235.616 119.641 235.703 119.433 235.888 119.358C236.07 119.283 236.28 119.372 236.353 119.554L248.758 150.13L231.606 93.648C231.548 93.4589 231.657 93.2577 231.846 93.2019C232.035 93.1437 232.234 93.2504 232.292 93.4395L251.398 156.363L270.507 93.4395C270.563 93.2504 270.764 93.1437 270.953 93.2019C271.142 93.2577 271.249 93.4589 271.193 93.648L254.111 149.899Z" fill="white"/>
        <path fill-rule="evenodd" clip-rule="evenodd" d="M227.329 188.378L251.666 193.445L276.006 188.378V187.758L251.666 180.238L227.329 187.758V188.378Z" fill="#4B0B19"/>
        <g filter="url(#filter5_i_7680_19880)">
            <path fill-rule="evenodd" clip-rule="evenodd" d="M251.666 148.996L253.163 148.504L277.143 155.915V163.707L276.005 163.747V187.758L251.666 180.237V148.996Z" fill="#AF2F4A"/>
        </g>
        <g filter="url(#filter6_ii_7680_19880)">
            <path fill-rule="evenodd" clip-rule="evenodd" d="M251.667 149.007V148.996L227.33 156.517V156.527L226.112 156.902V164.64L227.33 164.356V187.758L251.667 180.238L252.332 157.382L253.164 156.281V148.544L251.667 149.007Z" fill="#FF7458"/>
        </g>
        <path fill-rule="evenodd" clip-rule="evenodd" d="M242.908 163.386C244.619 164.422 245.708 166.425 245.708 169.026C245.708 173.67 242.235 178.461 237.952 179.727C236.067 180.285 234.34 180.067 232.996 179.252L234.546 180.26C235.89 181.074 237.617 181.292 239.502 180.735C243.785 179.468 247.258 174.677 247.258 170.033C247.258 167.433 246.169 165.43 244.458 164.393L242.908 163.386Z" fill="#002E7A"/>
        <path fill-rule="evenodd" clip-rule="evenodd" d="M95.6231 122.33C96.4531 122.249 97.849 122.981 98.5357 123.864C99.7619 125.441 99.8981 127.946 98.8398 129.459C98.3741 130.124 97.7548 130.487 97.1028 130.551L97.8728 130.501C98.5248 130.437 99.36 130.124 99.8256 129.459C100.884 127.946 100.788 125.319 99.5617 123.742C98.7572 122.708 97.2231 122.199 96.3932 122.28L95.6231 122.33Z" fill="#7C692B"/>
        <path fill-rule="evenodd" clip-rule="evenodd" d="M253.163 156.299L226.111 164.631L227.327 165.303L252.332 157.643L276.006 164.295L277.143 163.696L253.163 156.299Z" fill="#4B0B19"/>
        <path fill-rule="evenodd" clip-rule="evenodd" d="M440.145 153.043C445.755 144.655 460.562 122.589 477.455 102.185C471.384 100.546 466.058 100.214 462.316 101.697V101.695C455.134 95.2955 447.691 91.7808 440.605 90.6534C426.202 104.103 414.143 116.586 411.923 119.491C413.884 132.778 424.325 143.732 439.829 152.768L440.145 153.043ZM532.907 146.534C532.176 142.301 529.498 137.638 525.554 132.957C514.4 156.869 500.967 179.634 495.854 188.427C510.168 198.925 524.949 202.844 537.838 199.708C539.471 196.401 545.548 180.396 551.585 161.845C547.473 155.436 541.204 150.077 532.907 146.534ZM556.822 89.4338H556.821C556.396 95.7296 556.397 95.7276 556.822 89.4338ZM503.766 55.8172C499.485 58.2007 499.486 58.2007 503.766 55.8172H503.766Z" fill="#043484"/>
        <path fill-rule="evenodd" clip-rule="evenodd" d="M525.554 132.956C514.469 119.796 493.389 106.487 477.455 102.184C460.56 122.59 445.755 144.655 440.145 153.042C446.294 167.485 485.036 191.08 495.853 188.426C500.967 179.631 514.403 156.862 525.554 132.956ZM551.445 162.274C545.527 180.418 539.603 196.044 537.898 199.583C546.409 199.663 552.741 197.515 555.86 192.923C557.685 190.048 558.129 186.45 557.348 182.325C557.452 175.044 555.525 168.05 551.676 161.988L551.585 161.844L551.445 162.274ZM419.529 94.7859C415.463 95.8317 412.394 97.7638 410.568 100.637L410.446 100.836L410.34 101.013L410.239 101.191L410.141 101.369L410.047 101.551L409.942 101.762L409.857 101.944L409.773 102.129L409.694 102.31L409.627 102.473L409.555 102.66L409.485 102.845L409.464 102.905C409.421 103.024 409.38 103.144 409.341 103.265L409.281 103.459L409.263 103.519C409.219 103.665 409.179 103.812 409.14 103.96L409.092 104.157L409.077 104.219C409.053 104.327 409.029 104.435 409.006 104.543L408.963 104.752L408.938 104.894C408.202 108.988 409.282 113.962 411.923 119.489C414.143 116.585 426.202 104.102 440.604 90.6524C432.898 89.4248 425.609 91.0175 419.529 94.7859Z" fill="url(#paint9_linear_7680_19880)"/>
        <path fill-rule="evenodd" clip-rule="evenodd" d="M608.299 343.065C591.359 346.085 569.293 357.686 557.599 369.334C566.825 394.169 578.531 418.023 582.989 427.075C598.571 428.971 638.377 407.217 641.487 396.522C636.427 387.696 623.426 364.675 608.299 343.065ZM646.635 335.302C659.389 349.499 669.959 362.442 672.171 365.688C676.497 358.358 677.802 351.8 675.385 346.803C673.808 343.785 670.913 341.601 666.95 340.215C660.697 336.485 653.677 334.657 646.502 334.959L646.332 334.966L646.635 335.302ZM522.23 415.8C521.103 419.845 521.241 423.468 522.817 426.486L522.928 426.691L523.028 426.872L523.132 427.048L523.238 427.222L523.348 427.395L523.478 427.591L523.593 427.756L523.711 427.921L523.829 428.08L523.937 428.22L524.062 428.375L524.188 428.529L524.229 428.577C524.31 428.673 524.394 428.769 524.479 428.864L524.617 429.012L524.66 429.057C524.764 429.169 524.872 429.277 524.98 429.384L525.127 429.525L525.173 429.569C525.254 429.644 525.336 429.718 525.418 429.792L525.578 429.933L525.688 430.027C528.866 432.711 533.713 434.262 539.82 434.739C538.415 431.365 533.635 414.679 529.188 395.482C524.272 401.542 522.006 408.651 522.23 415.8Z" fill="url(#paint10_linear_7680_19880)"/>
        <path fill-rule="evenodd" clip-rule="evenodd" d="M666.129 327.513C645.371 327.839 616.849 337.395 600.672 349.009C606.864 380.369 616.199 411.041 619.761 422.683C637.953 427.95 689.563 409.728 695.333 397.591C691.011 386.102 679.973 356.173 666.129 327.513ZM713.287 325.672C725.735 345.044 735.825 362.5 737.833 366.793C744.4 358.898 747.221 351.34 745.308 344.922C744.012 341.022 740.987 337.862 736.534 335.446C729.806 329.795 721.799 326.263 713.196 325.237L712.991 325.213L713.287 325.672ZM549.573 397.52C547.449 402.12 546.915 406.462 548.208 410.361L548.301 410.627L548.385 410.861L548.475 411.091L548.567 411.319L548.665 411.545L548.782 411.804L548.887 412.023L548.996 412.242L549.106 412.455L549.207 412.642L549.327 412.851L549.446 413.058L549.487 413.123C549.565 413.254 549.645 413.384 549.729 413.513L549.864 413.717L549.907 413.779C550.01 413.932 550.117 414.081 550.225 414.231L550.373 414.426L550.419 414.487C550.502 414.592 550.584 414.697 550.668 414.8L550.831 415L550.944 415.132C554.211 418.943 559.684 421.727 566.866 423.474C565.844 419.183 563.372 398.388 561.784 374.664C554.758 380.933 550.687 388.962 549.573 397.52Z" fill="#043484"/>
        <path fill-rule="evenodd" clip-rule="evenodd" d="M455.086 55.9927C438.165 63.2399 423.029 75.6527 412.266 92.5979C409.879 96.3545 408.834 100.506 408.933 104.919C409.21 103.36 409.75 101.925 410.569 100.637C412.394 97.7635 415.463 95.8326 419.529 94.7848C419.979 93.7211 420.525 92.6773 421.171 91.6613C429.904 77.913 441.831 65.0319 455.086 55.9927ZM577.398 135.819C574.438 150.957 567.829 166.364 559.478 179.511C558.833 180.527 558.12 181.466 557.348 182.325C558.129 186.45 557.685 190.049 555.86 192.923C555.042 194.211 553.974 195.31 552.679 196.224C556.716 194.438 560.029 191.727 562.415 187.97C572.755 171.691 577.594 153.537 577.398 135.819ZM532.907 146.533C568.401 90.1253 559.135 69.9712 539.801 57.6914C520.468 45.4116 498.287 45.5902 462.316 101.695C479.368 94.9376 529.342 125.879 532.907 146.533Z" fill="url(#paint11_linear_7680_19880)"/>
        <path fill-rule="evenodd" clip-rule="evenodd" d="M535.896 337.217C529.422 359.756 529.485 384.694 537.544 408.966C539.33 414.347 542.586 418.723 547.022 422.179C545.705 420.65 544.724 418.961 544.112 417.116C542.746 413 543.311 408.415 545.552 403.558C544.864 402.257 544.274 400.877 543.791 399.421C537.253 379.729 534.143 357.581 535.896 337.217ZM713.2 280.771C725.759 295.883 735.645 314.816 741.897 333.647C742.381 335.103 742.733 336.563 742.96 338.017C747.661 340.568 750.856 343.905 752.222 348.021C752.835 349.866 753.059 351.805 752.919 353.819C754.407 348.396 754.399 342.942 752.612 337.56C744.871 314.243 730.848 294.846 713.2 280.771ZM687.945 333.318C660.849 252.851 633.492 245.767 605.8 254.961C578.108 264.156 560.42 286.195 586.832 366.887C593.895 344.612 664.686 320.202 687.945 333.318Z" fill="url(#paint12_linear_7680_19880)"/>
        <path d="M344.952 273.584L386.855 315.865" stroke="white" stroke-width="1.17138"/>
        <path d="M225.918 191.009L251.668 196.991" stroke="white" stroke-width="0.554701"/>
        <path fill-rule="evenodd" clip-rule="evenodd" d="M555.103 75.2113C560.032 89.0488 555.694 110.32 532.906 146.532C549.096 153.447 557.562 167.269 557.347 182.325C558.12 181.465 558.832 180.527 559.478 179.51C581.321 145.121 591.251 95.2728 555.103 75.2113ZM517.437 51.2868C484.84 28.3212 443.014 57.2705 421.17 91.6604C420.525 92.6779 419.978 93.7205 419.528 94.786C431.198 87.5528 447.325 88.3343 462.316 101.695C485.409 65.6758 502.818 52.7075 517.437 51.2868Z" fill="white"/>
        <path fill-rule="evenodd" clip-rule="evenodd" d="M635.418 253.966C653.047 260.245 670.55 281.659 687.943 333.317C707.808 322.905 728.271 325.68 742.959 338.017C742.733 336.563 742.38 335.103 741.897 333.648C725.543 284.39 684.334 234.441 635.418 253.966ZM581.467 271.879C532.544 285.56 527.435 350.163 543.79 399.421C544.274 400.878 544.863 402.257 545.553 403.559C547.811 386.214 561.571 370.925 586.833 366.888C569.876 315.083 571.096 287.454 581.467 271.879Z" fill="url(#paint13_linear_7680_19880)"/>
        <path fill-rule="evenodd" clip-rule="evenodd" d="M438.053 228.769L495.416 187.625C495.762 187.377 496.245 187.456 496.493 187.802C496.742 188.15 496.662 188.631 496.316 188.881L431.085 235.667L556.924 181.134C557.315 180.965 557.77 181.146 557.94 181.536C558.109 181.928 557.929 182.382 557.538 182.552L442.658 232.334L537.589 198.965C537.992 198.824 538.433 199.035 538.574 199.438C538.715 199.84 538.503 200.28 538.102 200.422L424.508 240.35L424.507 240.351L424.503 240.352L424.5 240.353L424.495 240.355L424.493 240.356L424.491 240.357L424.488 240.358L424.486 240.358L424.483 240.36L424.476 240.361L424.475 240.362L424.473 240.362L424.47 240.363L424.468 240.364L424.464 240.365L424.458 240.367L424.454 240.368L424.451 240.369V240.369L424.446 240.371L424.434 240.374L424.427 240.375L424.41 240.38L424.409 240.38L424.407 240.38L424.4 240.382L424.388 240.384L424.382 240.385V240.386L424.38 240.386L424.37 240.388L424.363 240.389L424.361 240.389L424.36 240.389L424.351 240.391L424.345 240.391L424.343 240.392L424.34 240.392L424.338 240.393V240.393L424.333 240.393L424.328 240.394L424.324 240.394L424.321 240.394L424.319 240.395L424.318 240.395L424.314 240.395L424.309 240.396L424.306 240.396L424.302 240.396L424.301 240.396L424.297 240.397L424.294 240.397L424.291 240.397L424.286 240.397L424.284 240.398L424.282 240.398L424.279 240.398L424.275 240.398H424.272L424.267 240.398L424.265 240.398L424.264 240.399H424.259H424.257L424.253 240.399H424.248H424.247L424.243 240.399L424.238 240.399H424.237H424.235H424.23H424.228H424.225L424.218 240.399H424.216L424.211 240.398H424.208L424.206 240.398L424.199 240.398V240.398L424.198 240.398L424.191 240.397L424.189 240.397L424.186 240.397L424.183 240.397L424.179 240.397L424.176 240.396L424.172 240.396L424.171 240.396L424.167 240.396L424.166 240.395L424.161 240.395L424.154 240.394L424.15 240.394L424.149 240.393H424.147C424.098 240.388 424.051 240.377 424.005 240.363V240.362L424.004 240.362L423.993 240.359L423.99 240.357L423.987 240.356L423.98 240.354L423.977 240.353L423.975 240.352L423.968 240.35L423.95 240.343C423.945 240.34 423.938 240.338 423.933 240.335L423.923 240.331L423.916 240.328L423.906 240.323L423.904 240.322V240.322L423.897 240.319L423.889 240.315L423.887 240.314L423.885 240.313L423.88 240.311L423.879 240.31L423.877 240.308L423.874 240.307L423.87 240.305L423.867 240.304L423.865 240.302L423.864 240.301L423.862 240.301L423.858 240.298L423.853 240.295L423.85 240.294L423.848 240.292L423.847 240.292V240.291L423.842 240.288L423.836 240.286L423.833 240.284L423.83 240.281L423.825 240.278L423.821 240.276L423.818 240.273L423.813 240.271L423.809 240.268L423.804 240.265L423.801 240.263L423.798 240.26L423.794 240.257L423.789 240.254L423.786 240.251L423.782 240.249L423.779 240.247L423.774 240.243L423.769 240.239L423.767 240.238L423.766 240.236L423.759 240.231L423.755 240.229C423.735 240.219 423.717 240.208 423.696 240.197L423.685 240.189L423.683 240.188L423.681 240.187L423.669 240.179V240.179C423.573 240.115 423.49 240.03 423.43 239.926V239.924L423.428 239.921L423.423 239.914L423.421 239.911L423.42 239.908L423.414 239.898V239.896C423.384 239.839 423.36 239.778 423.345 239.713L423.342 239.696C423.33 239.647 423.325 239.598 423.325 239.549L423.269 237.715L411.302 119.625C411.26 119.202 411.569 118.822 411.993 118.78C412.417 118.736 412.795 119.045 412.839 119.468L422.613 215.926L418.956 94.5269C418.944 94.1015 419.279 93.7453 419.706 93.7335C420.131 93.72 420.487 94.0559 420.501 94.4813L424.67 232.961L439.293 152.833C439.37 152.415 439.772 152.136 440.191 152.214C440.611 152.29 440.889 152.692 440.812 153.112L428.057 223.008L462.092 100.542C462.207 100.131 462.632 99.8899 463.043 100.005C463.454 100.118 463.694 100.543 463.58 100.955L425.663 237.384L533.038 145.073C533.362 144.795 533.849 144.832 534.127 145.154C534.405 145.478 534.368 145.966 534.045 146.243L438.053 228.769Z" fill="white"/>
        <path fill-rule="evenodd" clip-rule="evenodd" d="M344.952 267.787L383.34 305.097L433.429 323.986L434.144 322.862L398.588 281.092L345.667 266.663L344.952 267.787Z" fill="#000949"/>
        <g filter="url(#filter7_i_7680_19880)">
            <path fill-rule="evenodd" clip-rule="evenodd" d="M434.656 224.306L437.944 225.138L472.976 266.292L463.976 280.46L461.865 279.217L434.143 322.862L398.587 281.092L434.656 224.306Z" fill="#00417E"/>
        </g>
        <g filter="url(#filter8_ii_7680_19880)">
            <path fill-rule="evenodd" clip-rule="evenodd" d="M434.645 224.325L434.656 224.306L381.734 209.877L381.722 209.896L379.076 209.175L370.143 223.237L372.683 224.126L345.665 266.662L398.588 281.092L426.183 240.318L428.966 239.275L437.897 225.212L434.645 224.325Z" fill="#1D8ECA"/>
        </g>
        <path fill-rule="evenodd" clip-rule="evenodd" d="M428.945 239.308L370.154 223.221L371.589 225.849L425.881 240.794L461.232 280.214L463.989 280.441L428.945 239.308Z" fill="#000949"/>
        <path fill-rule="evenodd" clip-rule="evenodd" d="M402.619 240.162C403.508 241.989 403.998 244.043 403.998 246.257C403.998 255.478 395.5 263.964 385.017 265.211C377.051 266.158 370.23 262.651 367.416 256.865L368.785 259.92C371.6 265.706 378.42 269.213 386.387 268.265C396.869 267.019 405.367 258.533 405.367 249.311C405.367 247.098 404.877 245.044 403.988 243.217L402.619 240.162Z" fill="#002E7A"/>
        <path d="M403.997 246.257C403.997 255.478 395.5 263.964 385.017 265.211C374.535 266.457 366.037 259.992 366.037 250.77C366.037 241.549 374.535 233.063 385.017 231.816C395.5 230.57 403.997 237.035 403.997 246.257Z" fill="white"/>
        <path d="M394.931 244.778C393.399 244.339 391.341 244.559 388.811 245.431C387.612 245.844 386.501 246.336 385.648 246.741C385.648 246.741 385.648 246.741 385.65 246.746L385.653 246.742C385.653 246.742 386.048 247.819 386.502 248.981C387.31 248.588 388.449 248.065 389.658 247.645C391.908 246.87 393.074 246.904 393.66 247.072C395.863 247.704 396.789 249.773 395.729 251.686C394.676 253.585 392.02 254.627 389.814 254.01C389.714 253.981 389.593 253.931 389.447 253.855C389.953 254.286 390.545 254.661 391.201 254.85C395.237 256.007 397.327 253.888 397.473 253.734C397.829 253.34 398.14 252.908 398.397 252.446C400.155 249.274 398.6 245.83 394.931 244.778Z" fill="url(#paint14_linear_7680_19880)"/>
        <path d="M374.442 252.27C375.975 252.71 378.033 252.489 380.562 251.617C381.762 251.204 382.873 250.712 383.726 250.308C383.726 250.308 383.726 250.308 383.723 250.302L383.721 250.306C383.721 250.306 383.325 249.229 382.872 248.067C382.064 248.46 380.925 248.983 379.716 249.403C377.466 250.179 376.299 250.144 375.714 249.976C373.513 249.34 372.587 247.271 373.647 245.358C374.7 243.458 377.356 242.417 379.562 243.034C379.662 243.063 379.783 243.113 379.929 243.189C379.423 242.758 378.831 242.382 378.175 242.194C374.139 241.037 372.054 243.157 371.905 243.306C371.547 243.704 371.238 244.132 370.982 244.594C369.219 247.775 370.774 251.218 374.442 252.27Z" fill="url(#paint15_linear_7680_19880)"/>
        <path d="M391.221 254.796C389.181 254.157 387.839 252.091 387.601 251.605C386.985 250.348 385.771 247.076 385.677 246.818C384.824 244.357 383.416 241.476 380.836 240.736L380.832 240.735L380.827 240.733C377.689 239.848 374.009 240.985 371.906 243.306C372.05 243.156 374.408 241.06 378.149 242.231C380.189 242.87 381.529 244.96 381.771 245.447C382.387 246.705 383.601 249.977 383.695 250.235C384.55 252.692 385.959 255.573 388.538 256.312L388.543 256.314L388.548 256.315C391.686 257.2 395.371 256.065 397.469 253.742C397.32 253.891 394.969 255.964 391.221 254.796Z" fill="#29ABE2"/>
        <g clip-path="url(#clip1_7680_19880)">
            <path d="M239.175 162.6C243.457 162.151 246.375 165.719 245.693 170.569C245.012 175.42 240.988 179.718 236.707 180.168C232.425 180.618 229.507 177.05 230.189 172.199C230.87 167.348 234.894 163.05 239.175 162.6Z" fill="#3B00B9"/>
            <path fill-rule="evenodd" clip-rule="evenodd" d="M231.857 172.524C231.599 175.868 233.598 178.312 236.536 178.244L236.429 179.005C233.122 179.103 230.877 176.358 231.185 172.594L231.857 172.524Z" fill="url(#paint16_linear_7680_19880)"/>
            <path fill-rule="evenodd" clip-rule="evenodd" d="M238.45 164.619C235.444 165.175 232.688 168.119 232 171.509L231.328 171.579C232.076 167.77 235.181 164.453 238.557 163.858L238.45 164.619Z" fill="#29ABE2"/>
            <path fill-rule="evenodd" clip-rule="evenodd" d="M244.026 170.235C244.284 166.891 242.285 164.447 239.348 164.515L239.455 163.754C242.761 163.656 245.015 166.4 244.698 170.164L244.026 170.235Z" fill="url(#paint17_linear_7680_19880)"/>
            <path fill-rule="evenodd" clip-rule="evenodd" d="M237.432 178.15C240.438 177.593 243.194 174.65 243.882 171.26L244.554 171.189C243.806 174.999 240.702 178.306 237.325 178.911L237.432 178.15Z" fill="#29ABE2"/>
            <path d="M240.932 170.089C241.196 169.119 240.623 168.67 239.792 168.421L240.259 167.093L239.588 166.971L239.134 168.268C238.96 168.239 238.778 168.21 238.595 168.181L239.058 166.882L238.387 166.76L237.921 168.088C237.771 168.066 237.63 168.042 237.489 168.018L236.563 167.846L236.254 168.715C236.254 168.715 236.752 168.798 236.742 168.808C237.015 168.857 237.036 169.066 237.004 169.233C236.579 170.451 236.146 171.66 235.72 172.877C235.672 172.979 235.565 173.134 235.375 173.096C235.382 173.105 234.888 173.003 234.888 173.003L234.415 173.947L235.284 174.106C235.45 174.137 235.606 174.168 235.763 174.2L235.285 175.548L235.956 175.67L236.422 174.342C236.603 174.381 236.785 174.419 236.959 174.449L236.492 175.777L237.162 175.899L237.639 174.56C238.792 174.689 239.702 174.497 240.252 173.238C240.692 172.22 240.453 171.688 239.885 171.382C240.346 171.18 240.739 170.802 240.932 170.089ZM238.982 172.794C238.628 173.803 237.248 173.419 236.792 173.342L237.424 171.564C237.871 171.642 239.35 171.746 238.982 172.794ZM239.555 170.224C239.231 171.143 238.081 170.812 237.7 170.746L238.267 169.129C238.648 169.195 239.885 169.267 239.555 170.224Z" fill="white"/>
        </g>
        <g clip-path="url(#clip2_7680_19880)">
            <g clip-path="url(#clip3_7680_19880)">
                <path d="M93.3641 123.97C94.1773 122.124 96.2471 121.717 97.9866 123.061C99.726 124.405 100.477 126.992 99.6639 128.838C98.8508 130.685 96.7809 131.092 95.0415 129.748C93.3021 128.404 92.551 125.817 93.3641 123.97Z" fill="#FEFFE5"/>
                <path d="M96.8795 124.443C96.6676 124.644 96.5104 124.988 96.4119 125.467C96.365 125.694 96.3389 125.915 96.323 126.087C96.323 126.087 96.323 126.087 96.3241 126.087L96.3236 126.086C96.3236 126.086 96.5299 126.124 96.755 126.161C96.7686 125.998 96.7924 125.77 96.839 125.54C96.9268 125.114 97.0409 124.934 97.1219 124.857C97.4267 124.57 97.8386 124.617 98.0407 124.962C98.2414 125.304 98.1577 125.82 97.8549 126.109C97.8411 126.122 97.822 126.137 97.7965 126.152C97.9113 126.113 98.0256 126.055 98.1164 125.969C98.6746 125.442 98.5361 124.916 98.5254 124.878C98.4966 124.786 98.4577 124.696 98.4089 124.613C98.0737 124.041 97.387 123.964 96.8795 124.443Z" fill="url(#paint18_linear_7680_19880)"/>
                <path d="M96.1485 128.365C96.3605 128.165 96.5176 127.821 96.6162 127.342C96.663 127.114 96.6891 126.894 96.705 126.722C96.705 126.722 96.705 126.722 96.7039 126.722L96.7044 126.722C96.7044 126.722 96.4981 126.684 96.273 126.647C96.2595 126.811 96.2356 127.039 96.189 127.268C96.1013 127.695 95.9871 127.875 95.9061 127.951C95.6009 128.238 95.189 128.191 94.9869 127.846C94.7861 127.503 94.8699 126.988 95.1726 126.699C95.1865 126.686 95.2056 126.671 95.2311 126.656C95.1162 126.695 95.002 126.753 94.9111 126.839C94.3529 127.366 94.4921 127.892 94.5017 127.929C94.5309 128.022 94.5694 128.111 94.6183 128.194C94.9543 128.768 95.641 128.844 96.1485 128.365Z" fill="url(#paint19_linear_7680_19880)"/>
                <path d="M98.11 125.961C97.8194 126.222 97.3693 126.241 97.2706 126.233C97.0154 126.213 96.3874 126.099 96.3381 126.089C95.8714 125.994 95.2868 125.947 94.9301 126.284L94.9294 126.285L94.9287 126.285C94.497 126.697 94.3328 127.381 94.502 127.929C94.4917 127.892 94.3819 127.326 94.9148 126.846C95.2054 126.585 95.659 126.569 95.7583 126.576C96.0136 126.596 96.6416 126.71 96.6909 126.72C97.1572 126.814 97.7417 126.861 98.0985 126.524L98.0991 126.524L98.0998 126.523C98.5316 126.112 98.6964 125.426 98.5266 124.88C98.5362 124.917 98.6431 125.48 98.11 125.961Z" fill="#29ABE2"/>
            </g>
        </g>
        <path opacity="0.8" d="M374.626 111.761C376.898 110.873 376.709 107.828 377.224 107.513C377.738 107.196 378.522 111.635 375.924 113.346C373.326 115.058 370.666 114.424 367.486 116.772C366.762 117.292 366.164 117.924 365.687 118.668C366.725 119.467 368.226 120.684 367.875 121.025C367.42 121.465 365.381 121.043 364.565 121.623C363.831 122.145 362.36 123.085 361.71 122.58C361.247 122.222 361.779 120.892 361.93 119.912C358.034 118.768 355.708 120.39 352.363 121.401C348.988 122.416 344.702 119.689 344.962 119.246C345.221 118.802 347.365 119.374 350.091 119.246C352.817 119.119 354.83 116.455 357.621 116.264C360.412 116.074 362.192 118.499 362.815 117.977C363.271 117.596 363.595 115.25 365.931 113.981C368.268 112.712 372.354 112.648 374.626 111.761Z" fill="white"/>
        <path opacity="0.8" d="M71.3478 179.269C74.806 179.33 76.9526 178.012 78.1568 178.577C79.077 179.009 80.9016 180.339 83.1477 181.013C83.5456 180.838 83.9631 180.719 84.3977 180.658C85.4147 180.543 86.5142 180.666 86.8022 181.151C86.8297 181.202 86.844 181.255 86.8454 181.312C89.31 180.908 91.1294 179.408 91.7211 179.645C92.4279 179.928 93.3965 181.061 95.3612 182.565C97.3717 184.104 99.9947 184.418 100.258 184.795C100.521 185.172 97.9005 185.298 95.3612 184.418C92.8206 183.538 91.8271 182.47 91.2538 182.282C90.763 182.121 87.9409 183.379 85.1699 183.478C84.9919 183.599 84.8035 183.705 84.6045 183.796C83.6856 184.211 81.3309 184.438 80.823 184.439C80.2772 184.439 79.9827 184.403 79.8296 184.573C79.5783 184.852 79.3623 185.082 79.183 185.082C79.0233 185.082 78.9683 184.791 79.0403 184.597C79.111 184.403 78.7654 184.21 78.8845 184.038C79.0037 183.87 79.5063 183.844 79.7432 183.699C79.8846 183.611 80.4579 183.123 81.005 182.637C79.2209 181.885 77.9238 180.862 77.5311 180.497C76.9578 179.966 74.4944 181.028 71.1947 180.968C67.8949 180.908 65.6436 178.578 65.9053 178.441C66.1671 178.302 67.8923 179.205 71.3478 179.269Z" fill="white"/>
        <path opacity="0.8" d="M162.544 81.0654C160.364 81.6915 158.781 81.221 158.114 81.7828C157.605 82.2127 156.675 83.3648 155.366 84.1727C155.085 84.1295 154.8 84.125 154.515 84.1604C153.851 84.2599 153.175 84.5242 153.075 84.8805C153.066 84.9175 153.066 84.9538 153.075 84.9901C151.446 85.1524 150.039 84.511 149.704 84.7613C149.304 85.0604 148.883 85.9428 147.894 87.2287C146.882 88.5446 145.274 89.1889 145.171 89.4719C145.069 89.7556 146.75 89.3908 148.209 88.4025C149.669 87.414 150.117 86.5689 150.448 86.3525C150.731 86.1669 152.732 86.4852 154.504 86.0772C154.637 86.1238 154.775 86.1588 154.916 86.1826C155.568 86.2896 157.098 86.0337 157.42 85.9483C157.766 85.8557 157.946 85.7826 158.072 85.8643C158.279 85.9984 158.455 86.1078 158.568 86.0774C158.669 86.0503 158.655 85.8565 158.576 85.7457C158.498 85.6347 158.685 85.4538 158.58 85.3656C158.476 85.279 158.153 85.3482 157.979 85.2961C157.874 85.2648 157.428 85.053 156.999 84.8376C158.002 84.059 158.65 83.1908 158.836 82.8928C159.109 82.4595 160.85 82.7141 162.929 82.1157C165.009 81.518 166.04 79.6599 165.851 79.6175C165.661 79.5743 164.722 80.439 162.544 81.0654Z" fill="white"/>
        <path d="M544.659 236.875C543.962 236.718 538.133 235.981 536.581 236.284C535.475 236.501 532.384 238.55 531.527 238.962C530.927 239.253 530.611 239.356 530.339 239.32C529.287 238.075 528.256 236.378 526.925 235.417C525.432 234.34 521.303 234.072 521.576 234.365C521.902 234.716 524.51 234.964 525.816 235.916C526.796 236.631 527.635 237.998 528.11 238.93C528.046 239.057 528.026 239.166 527.87 239.259C527.555 239.442 527.465 239.557 527.645 239.602C527.827 239.647 527.939 239.602 528.032 239.694C528.126 239.785 528.326 240.106 528.822 240.152C529.318 240.199 528.935 240.839 529.364 241.343C529.958 242.043 530.695 241.687 530.943 241.847C531.191 242.009 531.011 242.672 531.147 242.741C531.281 242.809 531.755 242.467 532.093 242.348C532.432 242.23 532.861 242.243 532.883 242.043C532.905 241.844 531.955 241.547 531.845 241.337C531.789 241.234 531.732 240.981 531.628 240.696C533.65 240.288 536.248 238.392 536.81 238.01C537.419 237.597 538.118 237.775 539.494 237.696C540.87 237.617 545.358 237.033 544.659 236.875Z" fill="#66ADE1"/>
        <path d="M272.863 274.987C273.42 274.861 278.09 274.27 279.334 274.514C280.22 274.687 282.697 276.329 283.383 276.659C283.864 276.892 284.117 276.974 284.335 276.946C285.177 275.948 286.004 274.589 287.07 273.819C288.266 272.956 291.574 272.742 291.356 272.976C291.094 273.258 289.005 273.456 287.959 274.219C287.173 274.792 286.501 275.886 286.121 276.633C286.172 276.735 286.188 276.822 286.313 276.897C286.565 277.043 286.637 277.136 286.493 277.172C286.348 277.208 286.258 277.172 286.183 277.245C286.108 277.319 285.948 277.576 285.55 277.613C285.153 277.65 285.459 278.163 285.116 278.567C284.64 279.128 284.05 278.842 283.851 278.971C283.652 279.1 283.797 279.632 283.688 279.687C283.58 279.741 283.2 279.467 282.929 279.372C282.658 279.277 282.315 279.287 282.297 279.128C282.279 278.968 283.04 278.73 283.128 278.562C283.173 278.479 283.219 278.276 283.302 278.048C281.682 277.721 279.6 276.202 279.15 275.897C278.663 275.565 278.102 275.708 277 275.645C275.898 275.582 272.302 275.113 272.863 274.987Z" fill="#66ADE1"/>
        <path opacity="0.2" d="M41.468 98.9832C29.3042 102.193 2.74674 108.917 -6.17337 110.133L-17.8303 23.4666L34.817 28.7795C35.7906 28.8777 36.2012 30.1091 35.4848 30.7756C29.8251 36.0408 13.7732 52.3212 15.6201 66.0396C18.2972 85.9247 56.4608 84.6706 71.4609 83.3955C72.689 83.2911 73.2108 85.0224 72.1167 85.59C64.3786 89.6042 50.0333 96.7229 41.468 98.9832Z" fill="#8FCCFB"/>
        <path d="M381.659 201.504C381.836 201.403 382.044 201.574 381.98 201.768L380.974 204.806C380.407 206.521 380.556 208.393 381.389 209.996L382.772 212.657C382.872 212.85 382.664 213.058 382.471 212.958L380.396 211.88C378.457 210.872 376.149 210.874 374.212 211.885L372.068 213.004C371.884 213.1 371.68 212.916 371.757 212.724L372.796 210.132C373.581 208.17 373.395 205.952 372.292 204.149L370.892 201.86C370.776 201.671 370.977 201.447 371.178 201.542L373.689 202.737C375.657 203.673 377.957 203.593 379.855 202.522L381.659 201.504Z" fill="white"/>
        <path fill-rule="evenodd" clip-rule="evenodd" d="M2.552 182.947C1.2823 181.833 -2.05477 178.892 -5.0712 175.641C-5.47714 176.612 -5.64956 177.49 -5.48449 178.143C-6.70412 179.195 -7.44991 180.354 -7.7934 181.506C-5.87659 184.19 -4.06806 186.465 -3.63514 186.898C-1.38597 186.862 0.659444 185.37 2.49855 182.994L2.552 182.947ZM3.50281 167.409C2.78515 167.438 1.95174 167.781 1.08873 168.333C4.8134 170.707 8.29806 173.436 9.64477 174.476C11.6995 172.331 12.6742 169.964 12.437 167.755C11.923 167.413 9.39998 166.053 6.45383 164.645C5.29957 165.187 4.27312 166.11 3.50281 167.409ZM-5.45004 162.19C-4.41488 162.398 -4.41488 162.398 -5.45004 162.19V162.19ZM-12.1918 170.259C-11.8901 171.022 -11.8901 171.022 -12.1918 170.259V170.259Z" fill="#5E7BA9"/>
        <path fill-rule="evenodd" clip-rule="evenodd" d="M1.08853 168.332C-1.33852 169.884 -4.00883 173.091 -5.07233 175.642C-2.05507 178.893 1.28315 181.833 2.55213 182.948C5.0843 182.243 9.84763 176.33 9.64448 174.478C8.29666 173.436 4.81272 170.706 1.08853 168.332ZM6.52206 164.677C9.40324 166.057 11.8676 167.383 12.4169 167.743C12.6177 166.332 12.3999 165.234 11.7058 164.616C11.2693 164.251 10.6803 164.098 9.9788 164.138C8.77222 163.961 7.56957 164.127 6.47913 164.633L6.4549 164.645L6.52206 164.677ZM-7.56857 185.093C-7.48343 185.79 -7.23045 186.343 -6.79394 186.709L-6.76289 186.734L-6.73521 186.755L-6.70924 186.776L-6.68215 186.795L-6.65278 186.816L-6.62117 186.837L-6.59238 186.855L-6.56358 186.874L-6.53535 186.891L-6.50996 186.905L-6.48005 186.921L-6.45014 186.938L-6.4411 186.942C-6.42304 186.951 -6.40272 186.961 -6.38466 186.97L-6.35361 186.984L-6.34289 186.988C-6.32032 186.999 -6.29663 187.008 -6.27236 187.019L-6.24188 187.031L-6.23116 187.035C-6.21423 187.041 -6.19673 187.048 -6.1798 187.054L-6.14595 187.065L-6.12283 187.072C-5.45928 187.285 -4.61007 187.214 -3.63493 186.897C-4.06761 186.465 -5.87589 184.189 -7.7931 181.504C-8.165 182.757 -8.06038 184.001 -7.56857 185.093Z" fill="url(#paint20_linear_7680_19880)"/>
        <path fill-rule="evenodd" clip-rule="evenodd" d="M-13.2285 178.342C-12.3964 181.309 -10.6677 184.094 -8.09127 186.25C-7.51962 186.729 -6.85336 186.994 -6.11791 187.074C-6.37048 186.994 -6.59648 186.873 -6.79244 186.709C-7.23016 186.342 -7.48407 185.792 -7.5674 185.094C-7.73546 184.996 -7.89717 184.882 -8.05081 184.752C-10.1414 183.002 -12.0175 180.74 -13.2285 178.342ZM2.69957 159.791C5.1477 160.613 7.55918 162.047 9.5588 163.721C9.71417 163.851 9.85334 163.99 9.9798 164.136C10.6815 164.098 11.2694 164.251 11.7065 164.616C11.9025 164.78 12.0609 164.982 12.184 165.217C11.975 164.507 11.5989 163.897 11.0272 163.419C8.55277 161.347 5.64374 160.146 2.69957 159.791ZM3.50317 167.409C-5.08133 160.283 -8.62823 161.379 -11.0901 164.319C-13.5519 167.258 -14.0081 170.945 -5.48424 178.143C-6.23299 175.165 -0.00298888 167.549 3.50317 167.409Z" fill="#DEECFF"/>
        <path fill-rule="evenodd" clip-rule="evenodd" d="M-7.84865 162.163C-5.44319 161.648 -2.00761 162.833 3.50225 167.409C5.00455 164.873 7.48451 163.771 9.9785 164.137C9.85313 163.989 9.71316 163.851 9.55858 163.722C4.32912 159.342 -3.72677 156.603 -7.84865 162.163ZM-12.6439 167.891C-17.1686 172.797 -13.2801 180.373 -8.05068 184.752C-7.8961 184.882 -7.73512 184.996 -7.56831 185.092C-8.51369 182.998 -8.03023 180.338 -5.48535 178.143C-10.9579 173.522 -12.7277 170.347 -12.6439 167.891Z" fill="url(#paint21_linear_7680_19880)"/>
        <path fill-rule="evenodd" clip-rule="evenodd" d="M15.0743 184.952L9.50111 174.532C9.46834 174.468 9.49131 174.39 9.5549 174.356C9.6168 174.322 9.69626 174.346 9.73015 174.408L16.0665 186.26L9.77186 164.18C9.7526 164.111 9.79248 164.039 9.86116 164.02C9.92984 164.001 10.0014 164.041 10.0207 164.109L15.7665 184.266L12.3081 167.779C12.2922 167.71 12.3372 167.642 12.407 167.626C12.4773 167.612 12.545 167.657 12.5609 167.727L16.6997 187.454L16.7003 187.456L16.7009 187.458L16.7014 187.459L16.7003 187.462L16.7014 187.465L16.7026 187.468L16.702 187.472L16.7026 187.474L16.702 187.478L16.7032 187.481L16.7026 187.485L16.7032 187.487L16.702 187.489L16.7032 187.492L16.702 187.495L16.7026 187.496L16.7015 187.499L16.7009 187.503L16.7015 187.504L16.6998 187.505L16.7009 187.508L16.6998 187.511L16.7004 187.512L16.6987 187.513L16.6993 187.514C16.6965 187.523 16.6937 187.531 16.6903 187.538L16.6892 187.54L16.688 187.543L16.6886 187.544L16.6858 187.547L16.6847 187.549L16.6836 187.552L16.6808 187.554L16.6796 187.557L16.6785 187.559L16.6768 187.56L16.6757 187.562L16.6746 187.564L16.6729 187.565L16.6718 187.567L16.6706 187.569L16.6689 187.57L16.6678 187.572L16.6661 187.573L16.665 187.575L16.6633 187.575C16.6611 187.58 16.6583 187.583 16.6555 187.585L16.6543 187.588L16.6532 187.59C16.6391 187.604 16.6245 187.617 16.6065 187.624L16.6031 187.626L16.5998 187.627C16.5896 187.63 16.5789 187.632 16.5682 187.633L16.5643 187.633C16.557 187.634 16.548 187.635 16.5401 187.634L16.2348 187.602L-3.62706 187.002C-3.69746 187 -3.75332 186.939 -3.7523 186.869C-3.75016 186.797 -3.68998 186.742 -3.61789 186.744L12.6043 187.234L-7.62364 185.182C-7.69574 185.174 -7.7471 185.111 -7.74046 185.041C-7.73269 184.969 -7.66911 184.917 -7.59927 184.924L15.4756 187.265L2.49831 183.084C2.43069 183.062 2.39284 182.988 2.41526 182.921C2.436 182.854 2.50972 182.816 2.57735 182.838L13.8996 186.486L-5.68108 178.154C-5.74702 178.126 -5.77754 178.051 -5.74893 177.985C-5.722 177.92 -5.64601 177.889 -5.58064 177.916L16.2324 187.198L3.26233 167.355C3.22394 167.296 3.24182 167.215 3.30033 167.176C3.36053 167.138 3.4411 167.154 3.48006 167.214L15.0743 184.952Z" fill="white"/>
        <path fill-rule="evenodd" clip-rule="evenodd" d="M19.5112 201.261L26.5441 195.705L30.7761 187.806L30.6058 187.663L22.8954 192.649L19.3409 201.117L19.5112 201.261Z" fill="#5182B1"/>
        <path fill-rule="evenodd" clip-rule="evenodd" d="M14.2595 185.419L14.469 184.893L22.0667 179.979L24.2213 181.782L23.9684 182.106L30.6062 187.663L22.8945 192.65L14.2595 185.419Z" fill="#76AADB"/>
        <g filter="url(#filter9_i_7680_19880)">
            <path fill-rule="evenodd" clip-rule="evenodd" d="M14.2622 185.421L14.2595 185.419L10.7066 193.887L10.7088 193.888L10.5312 194.312L12.6702 196.103L12.873 195.701L19.3416 201.117L22.8945 192.648L16.732 187.177L16.6193 186.691L14.4808 184.902L14.2622 185.421Z" fill="#F2FAFF"/>
        </g>
        <path fill-rule="evenodd" clip-rule="evenodd" d="M16.6253 186.696L12.6668 196.1L13.134 195.92L16.8045 187.236L24.1201 182.233L24.2189 181.78L16.6253 186.696Z" fill="#5182B1"/>
        <path fill-rule="evenodd" clip-rule="evenodd" d="M16.1487 191.871C16.6889 191.672 17.7492 191.917 18.3623 192.386C19.4573 193.225 19.9866 194.874 19.5446 196.07C19.3501 196.596 19 196.946 18.5756 197.103L19.0811 196.935C19.5055 196.778 20.0085 196.423 20.203 195.897C20.645 194.701 20.1212 192.964 19.0263 192.125C18.308 191.575 17.1944 191.504 16.6542 191.703L16.1487 191.871Z" fill="#5182B1"/>
        <g clip-path="url(#clip4_7680_19880)">
            <path d="M15.5255 193.092C15.8253 191.755 17.1989 191.237 18.5931 191.936C19.9873 192.636 20.8748 194.287 20.575 195.625C20.2753 196.962 18.9017 197.48 17.5074 196.781C16.1132 196.081 15.2257 194.43 15.5255 193.092Z" fill="#A28FC9"/>
            <path fill-rule="evenodd" clip-rule="evenodd" d="M17.7751 196.31C18.758 196.728 19.6987 196.374 19.9769 195.48L20.1957 195.59C19.8888 196.598 18.8322 196.996 17.728 196.52L17.7751 196.31Z" fill="url(#paint22_linear_7680_19880)"/>
            <path opacity="0.4" fill-rule="evenodd" clip-rule="evenodd" d="M16.0608 193.517C15.9228 194.48 16.5306 195.611 17.4834 196.164L17.4363 196.374C16.3629 195.761 15.6781 194.486 15.842 193.407L16.0608 193.517Z" fill="#70C1E3"/>
            <path fill-rule="evenodd" clip-rule="evenodd" d="M18.3225 192.405C17.3396 191.987 16.3989 192.342 16.1207 193.235L15.9019 193.125C16.2088 192.118 17.266 191.717 18.3696 192.196L18.3225 192.405Z" fill="url(#paint23_linear_7680_19880)"/>
            <path opacity="0.4" fill-rule="evenodd" clip-rule="evenodd" d="M20.0398 195.201C20.1777 194.237 19.5699 193.106 18.6172 192.553L18.6642 192.343C19.7376 192.956 20.4197 194.23 20.2586 195.31L20.0398 195.201Z" fill="#70C1E3"/>
            <path opacity="0.6" d="M17.9638 193.324C17.6979 193.146 17.504 193.273 17.3443 193.498L16.9911 193.223L16.8861 193.412L17.2315 193.681C17.2048 193.731 17.1775 193.783 17.1502 193.835L16.8055 193.564L16.7005 193.753L17.0537 194.029C17.0316 194.072 17.0101 194.112 16.9887 194.152L16.8426 194.414L17.0734 194.596C17.0734 194.596 17.1488 194.454 17.151 194.458C17.1934 194.381 17.2587 194.396 17.3058 194.422C17.6299 194.675 17.9507 194.928 18.2748 195.181C18.3005 195.205 18.3365 195.253 18.3058 195.307C18.3092 195.306 18.2282 195.445 18.2282 195.445L18.4649 195.683L18.6012 195.437C18.6273 195.39 18.6528 195.346 18.6782 195.302L19.0365 195.583L19.1414 195.394L18.7882 195.118C18.8183 195.067 18.8484 195.016 18.8751 194.967L19.2283 195.243L19.3333 195.053L18.9779 194.773C19.134 194.438 19.1687 194.144 18.8446 193.85C18.5824 193.613 18.3973 193.631 18.2473 193.772C18.2332 193.612 18.1591 193.455 17.9638 193.324ZM18.5816 194.188C18.8498 194.397 18.5936 194.775 18.524 194.904L18.0518 194.533C18.1208 194.406 18.3027 193.97 18.5816 194.188ZM17.8645 193.753C18.1087 193.945 17.8918 194.258 17.8332 194.366L17.4029 194.031C17.4615 193.922 17.609 193.556 17.8645 193.753Z" fill="white"/>
        </g>
    </g>
    <defs>
        <filter id="filter0_ii_7680_19880" x="86.7725" y="112.365" width="17.8899" height="25.8162" filterUnits="userSpaceOnUse" color-interpolation-filters="sRGB">
            <feFlood flood-opacity="0" result="BackgroundImageFix"/>
            <feBlend mode="normal" in="SourceGraphic" in2="BackgroundImageFix" result="shape"/>
            <feColorMatrix in="SourceAlpha" type="matrix" values="0 0 0 0 0 0 0 0 0 0 0 0 0 0 0 0 0 0 127 0" result="hardAlpha"/>
            <feOffset dy="1.1094"/>
            <feGaussianBlur stdDeviation="3.8829"/>
            <feComposite in2="hardAlpha" operator="arithmetic" k2="-1" k3="1"/>
            <feColorMatrix type="matrix" values="0 0 0 0 1 0 0 0 0 1 0 0 0 0 1 0 0 0 0.19 0"/>
            <feBlend mode="normal" in2="shape" result="effect1_innerShadow_7680_19880"/>
            <feColorMatrix in="SourceAlpha" type="matrix" values="0 0 0 0 0 0 0 0 0 0 0 0 0 0 0 0 0 0 127 0" result="hardAlpha"/>
            <feOffset dy="1.1094"/>
            <feComposite in2="hardAlpha" operator="arithmetic" k2="-1" k3="1"/>
            <feColorMatrix type="matrix" values="0 0 0 0 1 0 0 0 0 1 0 0 0 0 1 0 0 0 0.2 0"/>
            <feBlend mode="normal" in2="effect1_innerShadow_7680_19880" result="effect2_innerShadow_7680_19880"/>
        </filter>
        <filter id="filter1_f_7680_19880" x="-206.984" y="108.976" width="585.858" height="391.797" filterUnits="userSpaceOnUse" color-interpolation-filters="sRGB">
            <feFlood flood-opacity="0" result="BackgroundImageFix"/>
            <feBlend mode="normal" in="SourceGraphic" in2="BackgroundImageFix" result="shape"/>
            <feGaussianBlur stdDeviation="62" result="effect1_foregroundBlur_7680_19880"/>
        </filter>
        <filter id="filter2_f_7680_19880" x="120.164" y="108.976" width="585.858" height="391.797" filterUnits="userSpaceOnUse" color-interpolation-filters="sRGB">
            <feFlood flood-opacity="0" result="BackgroundImageFix"/>
            <feBlend mode="normal" in="SourceGraphic" in2="BackgroundImageFix" result="shape"/>
            <feGaussianBlur stdDeviation="62" result="effect1_foregroundBlur_7680_19880"/>
        </filter>
        <filter id="filter3_f_7680_19880" x="268.042" y="108.976" width="585.858" height="391.797" filterUnits="userSpaceOnUse" color-interpolation-filters="sRGB">
            <feFlood flood-opacity="0" result="BackgroundImageFix"/>
            <feBlend mode="normal" in="SourceGraphic" in2="BackgroundImageFix" result="shape"/>
            <feGaussianBlur stdDeviation="62" result="effect1_foregroundBlur_7680_19880"/>
        </filter>
        <filter id="filter4_f_7680_19880" x="-56.4636" y="163.62" width="486.127" height="391.797" filterUnits="userSpaceOnUse" color-interpolation-filters="sRGB">
            <feFlood flood-opacity="0" result="BackgroundImageFix"/>
            <feBlend mode="normal" in="SourceGraphic" in2="BackgroundImageFix" result="shape"/>
            <feGaussianBlur stdDeviation="62" result="effect1_foregroundBlur_7680_19880"/>
        </filter>
        <filter id="filter5_i_7680_19880" x="251.666" y="148.504" width="25.4771" height="39.2546" filterUnits="userSpaceOnUse" color-interpolation-filters="sRGB">
            <feFlood flood-opacity="0" result="BackgroundImageFix"/>
            <feBlend mode="normal" in="SourceGraphic" in2="BackgroundImageFix" result="shape"/>
            <feColorMatrix in="SourceAlpha" type="matrix" values="0 0 0 0 0 0 0 0 0 0 0 0 0 0 0 0 0 0 127 0" result="hardAlpha"/>
            <feOffset dx="2.2188" dy="2.2188"/>
            <feComposite in2="hardAlpha" operator="arithmetic" k2="-1" k3="1"/>
            <feColorMatrix type="matrix" values="0 0 0 0 0 0 0 0 0 0 0 0 0 0 0 0 0 0 0.25 0"/>
            <feBlend mode="normal" in2="shape" result="effect1_innerShadow_7680_19880"/>
        </filter>
        <filter id="filter6_ii_7680_19880" x="226.112" y="148.544" width="27.0518" height="40.3238" filterUnits="userSpaceOnUse" color-interpolation-filters="sRGB">
            <feFlood flood-opacity="0" result="BackgroundImageFix"/>
            <feBlend mode="normal" in="SourceGraphic" in2="BackgroundImageFix" result="shape"/>
            <feColorMatrix in="SourceAlpha" type="matrix" values="0 0 0 0 0 0 0 0 0 0 0 0 0 0 0 0 0 0 127 0" result="hardAlpha"/>
            <feOffset dy="1.1094"/>
            <feGaussianBlur stdDeviation="3.8829"/>
            <feComposite in2="hardAlpha" operator="arithmetic" k2="-1" k3="1"/>
            <feColorMatrix type="matrix" values="0 0 0 0 1 0 0 0 0 1 0 0 0 0 1 0 0 0 0.2 0"/>
            <feBlend mode="normal" in2="shape" result="effect1_innerShadow_7680_19880"/>
            <feColorMatrix in="SourceAlpha" type="matrix" values="0 0 0 0 0 0 0 0 0 0 0 0 0 0 0 0 0 0 127 0" result="hardAlpha"/>
            <feOffset dy="0.554701"/>
            <feComposite in2="hardAlpha" operator="arithmetic" k2="-1" k3="1"/>
            <feColorMatrix type="matrix" values="0 0 0 0 1 0 0 0 0 1 0 0 0 0 1 0 0 0 1 0"/>
            <feBlend mode="normal" in2="effect1_innerShadow_7680_19880" result="effect2_innerShadow_7680_19880"/>
        </filter>
        <filter id="filter7_i_7680_19880" x="398.587" y="224.306" width="74.3892" height="98.5564" filterUnits="userSpaceOnUse" color-interpolation-filters="sRGB">
            <feFlood flood-opacity="0" result="BackgroundImageFix"/>
            <feBlend mode="normal" in="SourceGraphic" in2="BackgroundImageFix" result="shape"/>
            <feColorMatrix in="SourceAlpha" type="matrix" values="0 0 0 0 0 0 0 0 0 0 0 0 0 0 0 0 0 0 127 0" result="hardAlpha"/>
            <feOffset dx="1.17138" dy="3.51414"/>
            <feComposite in2="hardAlpha" operator="arithmetic" k2="-1" k3="1"/>
            <feColorMatrix type="matrix" values="0 0 0 0 0 0 0 0 0 0 0 0 0 0 0 0 0 0 0.25 0"/>
            <feBlend mode="normal" in2="shape" result="effect1_innerShadow_7680_19880"/>
        </filter>
        <filter id="filter8_ii_7680_19880" x="345.665" y="209.175" width="92.2322" height="73.0876" filterUnits="userSpaceOnUse" color-interpolation-filters="sRGB">
            <feFlood flood-opacity="0" result="BackgroundImageFix"/>
            <feBlend mode="normal" in="SourceGraphic" in2="BackgroundImageFix" result="shape"/>
            <feColorMatrix in="SourceAlpha" type="matrix" values="0 0 0 0 0 0 0 0 0 0 0 0 0 0 0 0 0 0 127 0" result="hardAlpha"/>
            <feOffset dy="1.17138"/>
            <feGaussianBlur stdDeviation="4.09983"/>
            <feComposite in2="hardAlpha" operator="arithmetic" k2="-1" k3="1"/>
            <feColorMatrix type="matrix" values="0 0 0 0 1 0 0 0 0 1 0 0 0 0 1 0 0 0 0.19 0"/>
            <feBlend mode="normal" in2="shape" result="effect1_innerShadow_7680_19880"/>
            <feColorMatrix in="SourceAlpha" type="matrix" values="0 0 0 0 0 0 0 0 0 0 0 0 0 0 0 0 0 0 127 0" result="hardAlpha"/>
            <feOffset dy="0.585689"/>
            <feComposite in2="hardAlpha" operator="arithmetic" k2="-1" k3="1"/>
            <feColorMatrix type="matrix" values="0 0 0 0 1 0 0 0 0 1 0 0 0 0 1 0 0 0 1 0"/>
            <feBlend mode="normal" in2="effect1_innerShadow_7680_19880" result="effect2_innerShadow_7680_19880"/>
        </filter>
        <filter id="filter9_i_7680_19880" x="10.5312" y="184.902" width="12.3633" height="17.2151" filterUnits="userSpaceOnUse" color-interpolation-filters="sRGB">
            <feFlood flood-opacity="0" result="BackgroundImageFix"/>
            <feBlend mode="normal" in="SourceGraphic" in2="BackgroundImageFix" result="shape"/>
            <feColorMatrix in="SourceAlpha" type="matrix" values="0 0 0 0 0 0 0 0 0 0 0 0 0 0 0 0 0 0 127 0" result="hardAlpha"/>
            <feOffset dy="1"/>
            <feGaussianBlur stdDeviation="3.5"/>
            <feComposite in2="hardAlpha" operator="arithmetic" k2="-1" k3="1"/>
            <feColorMatrix type="matrix" values="0 0 0 0 1 0 0 0 0 1 0 0 0 0 1 0 0 0 0.19 0"/>
            <feBlend mode="normal" in2="shape" result="effect1_innerShadow_7680_19880"/>
        </filter>
        <linearGradient id="paint0_linear_7680_19880" x1="320" y1="0" x2="320" y2="360" gradientUnits="userSpaceOnUse">
            <stop stop-color="#0066FF"/>
            <stop offset="1" stop-color="#4B93FF"/>
        </linearGradient>
        <linearGradient id="paint1_linear_7680_19880" x1="320" y1="-39.5332" x2="320" y2="360" gradientUnits="userSpaceOnUse">
            <stop stop-color="#0061D8"/>
            <stop offset="0.526006" stop-color="#97CFFC"/>
            <stop offset="1" stop-color="#ACDEFB"/>
        </linearGradient>
        <linearGradient id="paint2_linear_7680_19880" x1="87.1033" y1="83.8245" x2="76.5348" y2="98.6919" gradientUnits="userSpaceOnUse">
            <stop stop-color="#5C91E0"/>
            <stop offset="1" stop-color="#B6CEEF"/>
        </linearGradient>
        <linearGradient id="paint3_linear_7680_19880" x1="599.494" y1="277.163" x2="599.494" y2="297.132" gradientUnits="userSpaceOnUse">
            <stop stop-color="white"/>
            <stop offset="1" stop-color="#81B3FF"/>
        </linearGradient>
        <linearGradient id="paint4_linear_7680_19880" x1="85.2053" y1="85.7718" x2="97.013" y2="66.8701" gradientUnits="userSpaceOnUse">
            <stop stop-color="#669BEA"/>
            <stop offset="1" stop-color="#5277AE"/>
        </linearGradient>
        <linearGradient id="paint5_linear_7680_19880" x1="489.855" y1="0.087864" x2="682.73" y2="96.3219" gradientUnits="userSpaceOnUse">
            <stop stop-color="white"/>
            <stop offset="1" stop-color="white" stop-opacity="0"/>
        </linearGradient>
        <linearGradient id="paint6_linear_7680_19880" x1="490.536" y1="2.02711" x2="680.828" y2="103.273" gradientUnits="userSpaceOnUse">
            <stop stop-color="white"/>
            <stop offset="1" stop-color="white" stop-opacity="0"/>
        </linearGradient>
        <linearGradient id="paint7_linear_7680_19880" x1="257.661" y1="93.0138" x2="247.284" y2="117.593" gradientUnits="userSpaceOnUse">
            <stop stop-color="#3579DE"/>
            <stop offset="1" stop-color="#E2EEFF"/>
        </linearGradient>
        <linearGradient id="paint8_linear_7680_19880" x1="257.987" y1="79.617" x2="272.243" y2="48.058" gradientUnits="userSpaceOnUse">
            <stop stop-color="#2C7DF8"/>
            <stop offset="1" stop-color="#0B4CAF"/>
        </linearGradient>
        <linearGradient id="paint9_linear_7680_19880" x1="494.888" y1="103.982" x2="450.376" y2="164.894" gradientUnits="userSpaceOnUse">
            <stop stop-color="#3579DE"/>
            <stop offset="1" stop-color="#E2EEFF"/>
        </linearGradient>
        <linearGradient id="paint10_linear_7680_19880" x1="567.874" y1="355.136" x2="598.369" y2="424.14" gradientUnits="userSpaceOnUse">
            <stop stop-color="#3579DE"/>
            <stop offset="1" stop-color="#E2EEFF"/>
        </linearGradient>
        <linearGradient id="paint11_linear_7680_19880" x1="506.602" y1="113.939" x2="555.214" y2="36.6277" gradientUnits="userSpaceOnUse">
            <stop stop-color="#0066FF"/>
            <stop offset="1" stop-color="#003D99"/>
        </linearGradient>
        <linearGradient id="paint12_linear_7680_19880" x1="612" y1="313.293" x2="614.508" y2="412.532" gradientUnits="userSpaceOnUse">
            <stop stop-color="white"/>
            <stop offset="1" stop-color="#3579DE"/>
        </linearGradient>
        <linearGradient id="paint13_linear_7680_19880" x1="628.496" y1="319.134" x2="593.601" y2="213.497" gradientUnits="userSpaceOnUse">
            <stop stop-color="#0066FF"/>
            <stop offset="1" stop-color="#003D99"/>
        </linearGradient>
        <linearGradient id="paint14_linear_7680_19880" x1="391.044" y1="244.545" x2="395.319" y2="255.55" gradientUnits="userSpaceOnUse">
            <stop offset="0.21" stop-color="#F15A24"/>
            <stop offset="0.6841" stop-color="#FBB03B"/>
        </linearGradient>
        <linearGradient id="paint15_linear_7680_19880" x1="378.33" y1="252.503" x2="374.054" y2="241.499" gradientUnits="userSpaceOnUse">
            <stop offset="0.21" stop-color="#ED1E79"/>
            <stop offset="0.8929" stop-color="#522785"/>
        </linearGradient>
        <linearGradient id="paint16_linear_7680_19880" x1="234.967" y1="177.664" x2="231.055" y2="174.457" gradientUnits="userSpaceOnUse">
            <stop offset="0.21" stop-color="#ED1E79"/>
            <stop offset="1" stop-color="#522785"/>
        </linearGradient>
        <linearGradient id="paint17_linear_7680_19880" x1="243.901" y1="168.02" x2="239.989" y2="164.813" gradientUnits="userSpaceOnUse">
            <stop offset="0.21" stop-color="#F15A24"/>
            <stop offset="0.68" stop-color="#FBB03B"/>
        </linearGradient>
        <linearGradient id="paint18_linear_7680_19880" x1="96.4805" y1="125.033" x2="98.6104" y2="125.386" gradientUnits="userSpaceOnUse">
            <stop offset="0.21" stop-color="#F15A24"/>
            <stop offset="0.6841" stop-color="#FBB03B"/>
        </linearGradient>
        <linearGradient id="paint19_linear_7680_19880" x1="96.5475" y1="127.775" x2="94.4176" y2="127.422" gradientUnits="userSpaceOnUse">
            <stop offset="0.21" stop-color="#ED1E79"/>
            <stop offset="0.8929" stop-color="#522785"/>
        </linearGradient>
        <linearGradient id="paint20_linear_7680_19880" x1="-12.0162" y1="167.574" x2="-1.51483" y2="180.019" gradientUnits="userSpaceOnUse">
            <stop stop-color="#3579DE"/>
            <stop offset="1" stop-color="#B6CEEF"/>
        </linearGradient>
        <linearGradient id="paint21_linear_7680_19880" x1="-0.29475" y1="168.762" x2="-18.0372" y2="157.147" gradientUnits="userSpaceOnUse">
            <stop stop-color="#6CA0EE"/>
            <stop offset="1" stop-color="#5478AD"/>
        </linearGradient>
        <linearGradient id="paint22_linear_7680_19880" x1="19.6425" y1="195.895" x2="18.2767" y2="196.749" gradientUnits="userSpaceOnUse">
            <stop offset="0.21" stop-color="#E490B5"/>
            <stop offset="1" stop-color="#8268A1"/>
        </linearGradient>
        <linearGradient id="paint23_linear_7680_19880" x1="17.6415" y1="192.218" x2="16.2757" y2="193.072" gradientUnits="userSpaceOnUse">
            <stop offset="0.21" stop-color="#EEC3B4"/>
            <stop offset="0.68" stop-color="#EFD2A5"/>
        </linearGradient>
        <clipPath id="clip0_7680_19880">
            <rect width="640" height="360" fill="white"/>
        </clipPath>
        <clipPath id="clip1_7680_19880">
            <path d="M230.338 171.135C230.937 166.871 234.894 163.05 239.175 162.6C243.457 162.15 246.442 165.242 245.843 169.505L245.544 171.634C244.945 175.897 240.988 179.718 236.707 180.168C232.425 180.618 229.44 177.527 230.039 173.264L230.338 171.135Z" fill="white"/>
        </clipPath>
        <clipPath id="clip2_7680_19880">
            <path d="M94.7103 129.492C93.1536 128.289 92.5509 125.817 93.3641 123.97C94.1774 122.124 96.0986 121.602 97.6554 122.805L98.3178 123.317C99.8745 124.52 100.477 126.992 99.6639 128.838C98.8507 130.685 96.9294 131.207 95.3727 130.004L94.7103 129.492Z" fill="white"/>
        </clipPath>
        <clipPath id="clip3_7680_19880">
            <rect width="7.21626" height="8.06421" fill="white" transform="matrix(0.408116 -0.926676 0.781204 0.603683 91.8916 127.314)"/>
        </clipPath>
        <clipPath id="clip4_7680_19880">
            <path d="M17.2015 196.627C15.9761 196.013 15.2257 194.43 15.5255 193.092C15.8253 191.755 17.0617 191.168 18.2871 191.783L18.8991 192.09C20.1245 192.704 20.8748 194.287 20.575 195.625C20.2752 196.962 19.0388 197.548 17.8134 196.934L17.2015 196.627Z" fill="white"/>
        </clipPath>
    </defs>
</svg>
