<!-- source: DFINITY foundation -->
<svg width="361" height="250" viewBox="0 0 361 250" fill="none" xmlns="http://www.w3.org/2000/svg">
    <g clip-path="url(#clip0_8159_139130)">
        <rect y="0.0957031" width="361" height="249" rx="12" fill="url(#paint0_linear_8159_139130)" fill-opacity="0.7"/>
        <g opacity="0.64">
            <path opacity="0.6" d="M179.238 406.946L235.588 -7.79106L123.212 -7.17081L179.238 423.259L179.238 406.946Z" fill="white"/>
            <path opacity="0.6" d="M181.763 355.377L-108.006 57.5951L61.5874 -27.9129L194.25 358.955L181.763 355.377Z" fill="white"/>
            <path opacity="0.6" d="M174.33 353.499L496.494 60.5956L302.379 -27.2327L161.772 356.819L174.33 353.499Z" fill="white"/>
        </g>
        <path fill-rule="evenodd" clip-rule="evenodd" d="M254.536 103.432C258.199 95.486 267.876 74.5752 279.566 54.8033C274.144 54.2264 269.538 54.6666 266.536 56.4453L266.536 56.4437C259.515 51.9407 252.663 49.9435 246.441 49.9423C235.937 63.4198 227.309 75.7497 225.803 78.5402C229.29 89.6515 239.722 97.6107 254.228 103.24L254.536 103.432ZM333.086 85.2365C331.885 81.711 328.957 78.0821 324.943 74.6105C318.644 96.6048 310.238 117.927 307.056 126.153C320.743 133.196 333.934 134.54 344.544 130.101C345.493 127.047 348.519 112.514 351.165 95.8068C346.771 90.878 340.674 87.1421 333.086 85.2365ZM345.797 33.0853L345.796 33.0853C346.289 38.5345 346.289 38.5328 345.797 33.0853ZM295.789 11.5167C292.447 14.1402 292.448 14.1402 295.789 11.5166L295.789 11.5167Z" fill="url(#paint1_linear_8159_139130)"/>
        <path fill-rule="evenodd" clip-rule="evenodd" d="M324.943 74.6093C313.659 64.8481 293.797 56.319 279.566 54.8021C267.875 74.5761 258.198 95.4856 254.535 103.431C261.766 114.962 298.153 129.897 307.056 126.152C310.238 117.925 318.646 96.5984 324.943 74.6093ZM351.103 96.1934C348.504 112.536 345.557 126.723 344.579 129.985C351.878 128.896 357.007 126.195 359.054 121.839C360.226 119.128 360.116 115.986 358.886 112.56C357.984 106.311 355.383 100.584 351.262 95.9167L351.164 95.8058L351.103 96.1934ZM228.955 56.3484C225.615 57.7973 223.25 59.8694 222.077 62.5785L222 62.7653L221.933 62.931L221.871 63.0975L221.811 63.2634L221.755 63.4319L221.695 63.6267L221.646 63.794L221.599 63.964L221.556 64.1303L221.521 64.2789L221.485 64.4487L221.45 64.6169L221.441 64.671C221.42 64.7782 221.401 64.8865 221.384 64.9961L221.359 65.1702L221.352 65.2239C221.334 65.3548 221.32 65.4864 221.307 65.618L221.292 65.7934L221.287 65.8484C221.282 65.9441 221.276 66.0399 221.271 66.1354L221.263 66.3204L221.26 66.4457C221.188 70.0517 222.789 74.1638 225.802 78.5379C227.308 75.7488 235.937 63.4184 246.44 49.9412C239.674 49.9385 233.649 52.2942 228.955 56.3484Z" fill="url(#paint2_linear_8159_139130)"/>
        <path fill-rule="evenodd" clip-rule="evenodd" d="M254.125 18.2906C240.621 26.7989 229.349 39.488 222.437 55.4634C220.905 59.005 220.574 62.7024 221.259 66.4684C221.284 65.0949 221.552 63.7927 222.078 62.5785C223.25 59.8694 225.615 57.7984 228.954 56.3479C229.195 55.3758 229.521 54.4076 229.936 53.4497C235.543 40.4882 244.004 27.8347 254.125 18.2906ZM369.728 70.0078C369.253 83.3733 365.69 97.4666 360.327 109.861C359.913 110.819 359.43 111.72 358.886 112.561C360.116 115.987 360.226 119.13 359.054 121.839C358.528 123.053 357.763 124.14 356.779 125.098C359.993 123.019 362.461 120.247 363.993 116.705C370.633 101.358 372.307 85.1531 369.728 70.0078ZM333.086 85.2363C355.806 32.102 345.129 16.1039 326.902 8.2187C308.675 0.333499 289.705 3.50445 266.535 56.4435C280.218 48.3369 327.223 68.0341 333.086 85.2363Z" fill="url(#paint3_radial_8159_139130)"/>
        <path fill-rule="evenodd" clip-rule="evenodd" d="M342.39 21.1395C348.494 32.3184 347.673 51.1242 333.086 85.2345C347.891 88.9539 357.022 99.6383 358.886 112.56C359.43 111.719 359.913 110.818 360.328 109.86C374.354 77.4394 376.075 33.4007 342.39 21.1395ZM306.88 5.7767C275.841 -9.45461 243.962 21.027 229.936 53.4486C229.521 54.4078 229.195 55.375 228.955 56.3486C237.964 48.5667 251.88 47.0417 266.535 56.4437C281.41 22.4565 294.554 8.98236 306.88 5.7767Z" fill="white"/>
        <path fill-rule="evenodd" clip-rule="evenodd" d="M263.048 168.563L306.573 125.525C306.835 125.265 307.259 125.268 307.519 125.53C307.779 125.794 307.777 126.217 307.514 126.478L258.02 175.418L358.362 111.598C358.674 111.4 359.088 111.493 359.286 111.804C359.484 112.116 359.392 112.529 359.081 112.729L267.477 170.99L344.231 129.498C344.556 129.322 344.962 129.443 345.138 129.769C345.314 130.094 345.192 130.5 344.867 130.676L253.025 180.324L253.024 180.325L253.021 180.326L253.018 180.328L253.014 180.33L253.013 180.331L253.011 180.332L253.009 180.333L253.007 180.334L253.005 180.335L252.999 180.338L252.998 180.339L252.996 180.339L252.994 180.341L252.992 180.341L252.99 180.343L252.984 180.345L252.981 180.347L252.978 180.348L252.979 180.348L252.974 180.35L252.965 180.354L252.959 180.357L252.945 180.363L252.944 180.363L252.942 180.364L252.937 180.366L252.927 180.369L252.921 180.371L252.921 180.371L252.92 180.372L252.912 180.375L252.906 180.377L252.905 180.377L252.903 180.378L252.896 180.38L252.89 180.382L252.889 180.382L252.886 180.383L252.885 180.383L252.885 180.384L252.881 180.385L252.876 180.386L252.873 180.387L252.871 180.387L252.869 180.388L252.868 180.388L252.865 180.389L252.861 180.39L252.858 180.391L252.855 180.391L252.854 180.392L252.851 180.392L252.848 180.393L252.845 180.394L252.841 180.395L252.839 180.395L252.838 180.395L252.835 180.396L252.832 180.397L252.829 180.397L252.825 180.398L252.823 180.398L252.822 180.399L252.818 180.399L252.816 180.4L252.813 180.4L252.809 180.401L252.808 180.401L252.805 180.402L252.8 180.402L252.799 180.402L252.797 180.403L252.793 180.403L252.792 180.404L252.789 180.404L252.783 180.405L252.782 180.405L252.777 180.406L252.774 180.406L252.773 180.406L252.767 180.407L252.767 180.407L252.766 180.407L252.76 180.408L252.758 180.408L252.755 180.408L252.752 180.408L252.749 180.408L252.747 180.409L252.744 180.409L252.742 180.409L252.739 180.409L252.738 180.409L252.733 180.41L252.727 180.41L252.724 180.41L252.723 180.41L252.722 180.41C252.679 180.412 252.637 180.409 252.596 180.403L252.596 180.403L252.594 180.403L252.585 180.401L252.582 180.401L252.579 180.4L252.573 180.399L252.57 180.398L252.568 180.398L252.562 180.397L252.546 180.394C252.541 180.392 252.535 180.391 252.53 180.39L252.521 180.387L252.515 180.385L252.505 180.383L252.504 180.382L252.504 180.382L252.498 180.381L252.49 180.378L252.488 180.377L252.487 180.377L252.482 180.376L252.48 180.375L252.479 180.374L252.476 180.373L252.472 180.372L252.469 180.371L252.468 180.37L252.466 180.37L252.465 180.369L252.461 180.368L252.457 180.366L252.454 180.365L252.452 180.364L252.45 180.364L252.45 180.363L252.446 180.362L252.441 180.36L252.438 180.359L252.435 180.357L252.43 180.355L252.427 180.354L252.423 180.352L252.419 180.351L252.415 180.349L252.411 180.347L252.407 180.345L252.404 180.344L252.401 180.342L252.396 180.339L252.393 180.337L252.39 180.336L252.387 180.335L252.382 180.332L252.377 180.329L252.375 180.328L252.373 180.327L252.367 180.324L252.364 180.323C252.345 180.317 252.328 180.31 252.309 180.303L252.298 180.298L252.296 180.297L252.294 180.296L252.283 180.292L252.283 180.291C252.192 180.25 252.11 180.188 252.044 180.107L252.043 180.106L252.041 180.103L252.036 180.098L252.034 180.096L252.033 180.094L252.027 180.085L252.027 180.084C251.993 180.039 251.964 179.99 251.942 179.937L251.937 179.922C251.92 179.882 251.909 179.841 251.903 179.799L251.605 178.236L225.29 78.7385C225.196 78.3814 225.409 78.0141 225.766 77.9203C226.123 77.8251 226.489 78.0382 226.584 78.3951L248.078 159.666L228.43 56.2042C228.362 55.8415 228.599 55.491 228.964 55.4228C229.326 55.3533 229.677 55.5925 229.746 55.955L252.158 173.974L253.778 103.368C253.787 102.999 254.094 102.705 254.463 102.715C254.832 102.723 255.125 103.029 255.117 103.399L253.704 164.99L266.187 55.4856C266.229 55.1188 266.561 54.8542 266.928 54.8966C267.295 54.9376 267.559 55.2691 267.518 55.6374L253.61 177.627L333.001 83.9672C333.24 83.6847 333.662 83.6501 333.944 83.8884C334.226 84.1282 334.261 84.551 334.022 84.832L263.048 168.563Z" fill="#8FBCFF"/>
        <path fill-rule="evenodd" clip-rule="evenodd" d="M120.208 83.3911C115.845 74.3045 104.32 50.3923 90.4972 27.8283C96.7325 27.0659 102.046 27.4897 105.536 29.4845L105.537 29.4826C113.543 24.1689 121.399 21.7446 128.567 21.6309C140.909 36.9659 151.07 51.0127 152.855 54.1999C149.039 67.0618 137.167 76.4183 120.559 83.1642L120.208 83.3911ZM29.3974 63.8505C30.7177 59.7677 34.0253 55.5347 38.5864 51.4634C46.2384 76.6847 56.3062 101.094 60.12 110.512C44.4817 118.871 29.3114 120.658 17.0096 115.736C15.8618 112.236 12.1136 95.5498 8.76425 76.3527C13.7361 70.5958 20.6921 66.1825 29.3974 63.8505ZM13.8148 4.00737L13.8152 4.00743C13.3461 10.2932 13.3458 10.2912 13.8148 4.00737ZM71.0295 -21.7402C74.9254 -18.7786 74.9253 -18.7786 71.0289 -21.7403L71.0295 -21.7402Z" fill="url(#paint4_linear_8159_139130)"/>
        <path fill-rule="evenodd" clip-rule="evenodd" d="M38.5866 51.4631C51.4076 40.0156 74.1328 29.8323 90.498 27.828C104.322 50.3944 115.845 74.3052 120.208 83.3914C112.087 96.8044 70.4431 114.665 60.1207 110.512C56.3065 101.093 46.2366 76.6784 38.5866 51.4631ZM8.84228 76.798C12.1315 95.576 15.7817 111.864 16.9678 115.605C8.54009 114.482 2.58266 111.463 0.146932 106.482C-1.25213 103.381 -1.18287 99.7599 0.172583 95.7913C1.09826 88.5764 3.99173 81.9332 8.65419 76.4822L8.76473 76.3527L8.84228 76.798ZM148.824 28.6954C152.697 30.304 155.459 32.6482 156.859 35.7476L156.951 35.9614L157.031 36.1511L157.106 36.3417L157.177 36.5318L157.245 36.7248L157.319 36.9481L157.378 37.1399L157.435 37.3349L157.487 37.5257L157.53 37.6962L157.575 37.8912L157.618 38.0842L157.63 38.1465C157.656 38.2695 157.68 38.394 157.701 38.5199L157.733 38.72L157.742 38.7818C157.765 38.9322 157.783 39.0835 157.802 39.2349L157.821 39.4366L157.828 39.4999C157.836 39.6101 157.845 39.7203 157.852 39.8302L157.864 40.0431L157.87 40.1874C158.019 44.3399 156.248 49.1055 152.856 54.1984C151.071 51.0128 140.909 36.9653 128.567 21.6307C136.361 21.5055 143.344 24.1102 148.824 28.6954Z" fill="url(#paint5_linear_8159_139130)"/>
        <path fill-rule="evenodd" clip-rule="evenodd" d="M119.143 -14.6897C134.852 -5.13276 148.066 9.28008 156.316 27.5572C158.145 31.6091 158.592 35.8621 157.871 40.2125C157.817 38.6309 157.486 37.1358 156.858 35.7466C155.459 32.6472 152.697 30.3043 148.825 28.6938C148.53 27.5784 148.137 26.4689 147.642 25.373C140.949 10.544 130.974 -3.87861 119.143 -14.6897ZM-13.0847 46.9703C-12.2966 62.3573 -7.93727 78.5269 -1.53659 92.7071C-1.04182 93.8034 -0.469729 94.8323 0.172418 95.7913C-1.1829 99.7601 -1.25211 103.382 0.146899 106.481C0.77402 107.871 1.67495 109.108 2.82588 110.195C-0.913425 107.858 -3.80667 104.709 -5.63603 100.657C-13.5613 83.0983 -15.782 64.4626 -13.0847 46.9703ZM29.398 63.8502C2.2669 3.05558 14.2773 -15.5653 35.1302 -24.9773C55.9834 -34.3893 77.8926 -31.0792 105.537 29.4824C89.6292 20.3916 35.8405 43.9294 29.398 63.8502Z" fill="url(#paint6_radial_8159_139130)"/>
        <path fill-rule="evenodd" clip-rule="evenodd" d="M17.5233 -9.81408C10.6943 3.17308 11.9798 24.8205 29.3983 63.8484C12.412 68.4 2.08693 80.8722 0.172672 95.7907C-0.469517 94.8317 -1.04164 93.8027 -1.53649 92.7066C-18.2787 55.6145 -21.0563 4.91773 17.5233 -9.81408ZM58.1502 -28.1515C93.6287 -46.2567 130.9 -11.7209 147.642 25.3721C148.137 26.4695 148.53 27.5776 148.825 28.6949C138.306 19.8936 122.249 18.3882 105.537 29.4829C87.7896 -9.39807 72.4055 -24.6815 58.1502 -28.1515Z" fill="white"/>
        <path fill-rule="evenodd" clip-rule="evenodd" d="M111.579 158.569L60.6665 109.78C60.3593 109.485 59.8707 109.495 59.5763 109.803C59.2816 110.111 59.2922 110.598 59.5993 110.894L117.495 166.374L0.759485 94.672C0.396721 94.4499 -0.07867 94.5642 -0.301355 94.9259C-0.52411 95.2892 -0.410478 95.7637 -0.0479522 95.9875L106.522 161.444L17.3602 115.036C16.9827 114.839 16.5168 114.986 16.3201 115.365C16.1236 115.742 16.2707 116.208 16.6481 116.404L123.337 171.935L123.338 171.936L123.342 171.938L123.345 171.939L123.35 171.942L123.351 171.943L123.353 171.944L123.356 171.945L123.358 171.946L123.361 171.948L123.367 171.951L123.369 171.951L123.37 171.952L123.373 171.954L123.375 171.954L123.378 171.956L123.385 171.959L123.388 171.961L123.391 171.962L123.391 171.962L123.396 171.964L123.407 171.969L123.414 171.972L123.43 171.978L123.431 171.979L123.433 171.979L123.439 171.982L123.451 171.986L123.457 171.988L123.457 171.988L123.459 171.988L123.469 171.992L123.475 171.994L123.477 171.994L123.478 171.995L123.486 171.997L123.493 171.999L123.495 172L123.498 172L123.5 172.001L123.5 172.001L123.504 172.002L123.509 172.004L123.513 172.005L123.516 172.005L123.518 172.006L123.519 172.006L123.523 172.007L123.528 172.008L123.531 172.009L123.534 172.01L123.536 172.01L123.539 172.011L123.542 172.012L123.546 172.012L123.551 172.013L123.552 172.014L123.554 172.014L123.557 172.015L123.561 172.015L123.564 172.016L123.569 172.017L123.571 172.017L123.572 172.018L123.577 172.018L123.579 172.018L123.582 172.019L123.587 172.02L123.589 172.02L123.592 172.021L123.597 172.021L123.599 172.022L123.601 172.022L123.606 172.022L123.607 172.023L123.611 172.023L123.617 172.024L123.619 172.024L123.624 172.025L123.627 172.025L123.629 172.025L123.636 172.026L123.636 172.026L123.637 172.026L123.644 172.027L123.646 172.027L123.649 172.027L123.653 172.027L123.656 172.027L123.659 172.028L123.663 172.028L123.664 172.028L123.668 172.028L123.669 172.028L123.675 172.028L123.681 172.029L123.685 172.028L123.686 172.029L123.688 172.029C123.737 172.03 123.786 172.027 123.833 172.018L123.833 172.018L123.834 172.018L123.845 172.016L123.848 172.015L123.852 172.015L123.859 172.014L123.862 172.013L123.864 172.012L123.871 172.011L123.891 172.007C123.896 172.005 123.903 172.004 123.908 172.002L123.919 171.998L123.926 171.997L123.937 171.993L123.939 171.993L123.939 171.993L123.946 171.991L123.955 171.988L123.956 171.987L123.958 171.986L123.964 171.985L123.965 171.984L123.967 171.983L123.971 171.982L123.974 171.98L123.978 171.98L123.98 171.978L123.982 171.978L123.983 171.977L123.987 171.975L123.992 171.973L123.996 171.972L123.998 171.971L124 171.971L124 171.97L124.005 171.968L124.01 171.966L124.014 171.965L124.018 171.963L124.023 171.961L124.027 171.958L124.031 171.957L124.036 171.955L124.04 171.953L124.045 171.95L124.049 171.948L124.052 171.947L124.056 171.944L124.062 171.942L124.065 171.939L124.069 171.938L124.073 171.936L124.078 171.933L124.084 171.93L124.086 171.929L124.088 171.927L124.095 171.923L124.099 171.922C124.12 171.915 124.14 171.906 124.162 171.898L124.174 171.892L124.176 171.891L124.178 171.89L124.191 171.885L124.191 171.884C124.295 171.835 124.389 171.762 124.464 171.668L124.464 171.666L124.466 171.663L124.472 171.657L124.474 171.655L124.476 171.652L124.483 171.642L124.483 171.641C124.521 171.589 124.553 171.531 124.577 171.47L124.583 171.453C124.602 171.406 124.613 171.358 124.62 171.31L124.934 169.504L153.45 54.419C153.552 54.0059 153.3 53.5867 152.887 53.4851C152.474 53.3819 152.057 53.6339 151.953 54.0467L128.662 148.051L149.427 28.5186C149.499 28.0996 149.219 27.7001 148.798 27.6281C148.379 27.5547 147.98 27.8365 147.906 28.2553L124.221 164.605L121.08 83.3034C121.063 82.8786 120.705 82.5463 120.279 82.5639C119.854 82.5798 119.522 82.9378 119.538 83.3642L122.278 154.284L105.921 28.3726C105.866 27.9508 105.479 27.652 105.057 27.7075C104.635 27.7614 104.337 28.148 104.392 28.5714L122.614 168.839L29.4738 62.3866C29.1936 62.0655 28.706 62.0334 28.3858 62.313C28.0654 62.5942 28.0329 63.0819 28.3133 63.4013L111.579 158.569Z" fill="#8FBCFF"/>
        <path opacity="0.16" d="M190.66 51.7036C190.971 51.4105 191.48 51.654 191.446 52.0801L190.925 58.7638C190.631 62.5369 191.875 66.2688 194.373 69.1114L198.521 73.8293C198.822 74.1722 198.503 74.6995 198.06 74.5922L193.298 73.4405C188.85 72.3647 184.157 73.527 180.725 76.5544L176.924 79.907C176.599 80.194 176.092 79.9214 176.152 79.4916L176.963 73.6991C177.577 69.3148 176.085 64.8982 172.937 61.7851L168.94 57.8319C168.61 57.5049 168.907 56.9483 169.363 57.0417L175.07 58.2114C179.542 59.128 184.181 57.8101 187.503 54.6789L190.66 51.7036Z" fill="#77A8F2"/>
        <path opacity="0.15" d="M11.1918 141.332C11.144 141.146 11.3496 140.999 11.5096 141.104L14.0199 142.754C15.437 143.686 17.1705 144.005 18.8265 143.639L21.5749 143.032C21.7747 142.988 21.9127 143.227 21.7746 143.378L20.2928 144.998C18.9086 146.511 18.3497 148.604 18.7955 150.605L19.2893 152.822C19.3316 153.012 19.1149 153.151 18.9593 153.035L16.8615 151.464C15.2736 150.275 13.2176 149.905 11.3151 150.467L8.89928 151.181C8.69947 151.24 8.5454 151.003 8.68055 150.844L10.3739 148.857C11.7009 147.3 12.1869 145.195 11.6766 143.214L11.1918 141.332Z" fill="#77A8F2"/>
        <g clip-path="url(#clip1_8159_139130)">
            <circle cx="187.472" cy="163.994" r="31.8793" fill="#2775CA"/>
            <path d="M196.304 168.775C196.304 164.126 193.514 162.532 187.935 161.868C183.95 161.337 183.153 160.274 183.153 158.414C183.153 156.555 184.482 155.36 187.138 155.36C189.529 155.36 190.858 156.156 191.522 158.149C191.655 158.547 192.053 158.813 192.452 158.813H194.577C195.108 158.813 195.507 158.414 195.507 157.883V157.75C194.975 154.828 192.584 152.57 189.529 152.305V149.117C189.529 148.585 189.131 148.187 188.467 148.054H186.474C185.943 148.054 185.544 148.452 185.411 149.117V152.172C181.426 152.703 178.903 155.359 178.903 158.68C178.903 163.064 181.559 164.79 187.138 165.455C190.858 166.119 192.053 166.916 192.053 169.041C192.053 171.167 190.193 172.628 187.67 172.628C184.216 172.628 183.02 171.166 182.622 169.174C182.489 168.643 182.091 168.377 181.692 168.377H179.434C178.903 168.377 178.504 168.775 178.504 169.307V169.44C179.036 172.76 181.161 175.151 185.544 175.816V179.003C185.544 179.535 185.943 179.933 186.607 180.066H188.599C189.131 180.066 189.529 179.668 189.662 179.003V175.816C193.647 175.151 196.304 172.362 196.304 168.775Z" fill="white"/>
            <path d="M180.763 182.723C170.402 179.004 165.088 167.447 168.941 157.219C170.933 151.64 175.317 147.39 180.763 145.397C181.294 145.132 181.559 144.733 181.559 144.069V142.21C181.559 141.678 181.294 141.28 180.763 141.147C180.63 141.147 180.364 141.147 180.231 141.28C167.612 145.265 160.705 158.681 164.69 171.299C167.081 178.738 172.793 184.45 180.231 186.841C180.763 187.106 181.294 186.841 181.427 186.309C181.559 186.177 181.559 186.044 181.559 185.778V183.918C181.559 183.52 181.161 182.989 180.763 182.723ZM194.843 141.28C194.311 141.014 193.78 141.28 193.647 141.811C193.514 141.944 193.514 142.077 193.514 142.342V144.202C193.514 144.733 193.913 145.265 194.311 145.53C204.672 149.249 209.985 160.806 206.133 171.034C204.141 176.613 199.757 180.863 194.311 182.856C193.78 183.121 193.514 183.52 193.514 184.184V186.044C193.514 186.575 193.78 186.974 194.311 187.106C194.444 187.106 194.71 187.106 194.843 186.974C207.461 182.989 214.369 169.573 210.384 156.954C207.993 149.382 202.148 143.671 194.843 141.28Z" fill="white"/>
        </g>
        <g clip-path="url(#clip2_8159_139130)">
            <path d="M282.829 211.758L282.722 211.933C270.65 231.431 245.072 237.528 225.489 225.534C205.856 213.51 199.685 187.838 211.714 168.203L211.714 168.203C223.739 148.563 249.412 142.393 269.047 154.419L269.047 154.419C288.688 166.446 294.857 192.12 282.829 211.758Z" fill="#F7931A" stroke="#EBF3FF" stroke-width="1.25"/>
            <path d="M266.89 189.835C269.387 184.715 266.206 180.538 261.218 176.848L265.326 170.142L261.242 167.642L257.243 174.172C256.17 173.515 255.06 172.864 253.956 172.218L257.983 165.645L253.902 163.146L249.794 169.85C248.9 169.327 248.021 168.812 247.175 168.294L247.187 168.273L241.557 164.822L238.887 169.183C238.887 169.183 241.938 170.972 241.854 170.996C243.507 172.01 243.457 173.299 243.107 174.224L238.428 181.864C238.541 181.935 238.687 182.031 238.842 182.157C238.705 182.074 238.561 181.984 238.41 181.894L231.853 192.597C231.462 193.073 230.648 193.716 229.491 193.01C229.515 193.088 226.523 191.192 226.523 191.192L222.726 195.57L228.039 198.824C229.027 199.431 229.99 200.043 230.942 200.634L226.789 207.419L230.867 209.917L234.978 203.205C236.083 203.914 237.161 204.587 238.22 205.234L234.127 211.913L238.21 214.413L242.359 207.643C249.464 211.453 255.327 212.666 259.871 206.586C263.532 201.691 262.508 197.88 259.185 194.558C262.291 194.803 265.071 193.586 266.892 189.836L266.891 189.834L266.89 189.835ZM252.295 200.84C249.192 205.911 240.865 200.018 238.096 198.326L243.602 189.339C246.369 191.035 255.533 195.553 252.295 200.84L252.295 200.84ZM258.162 186.997C255.336 191.608 248.426 186.637 246.121 185.225L251.114 177.075C253.419 178.486 261.108 182.187 258.162 186.997L258.162 186.997Z" fill="white"/>
        </g>
        <g clip-path="url(#clip3_8159_139130)">
            <circle cx="121.389" cy="178.507" r="43.4502" transform="rotate(-19.2943 121.389 178.507)" fill="white"/>
            <circle cx="121.389" cy="178.507" r="42.4502" transform="rotate(-19.2943 121.389 178.507)" stroke="url(#paint7_linear_8159_139130)" stroke-opacity="0.6" stroke-width="2"/>
            <path d="M130.902 160.6C127.845 161.67 125.05 164.37 122.586 168.625C121.416 170.642 120.51 172.681 119.858 174.287C119.858 174.287 119.858 174.287 119.871 174.293L119.867 174.284C119.867 174.284 122.214 175.508 124.787 176.799C125.389 175.263 126.288 173.142 127.46 171.104C129.652 167.32 131.495 166.038 132.662 165.63C137.058 164.091 141.822 166.253 143.29 170.447C144.748 174.612 142.364 179.277 137.988 180.84C137.788 180.91 137.522 180.972 137.176 181.02C138.647 181.11 140.16 181.019 141.47 180.56C149.52 177.742 149.296 172.049 149.27 171.641C149.179 170.618 148.957 169.59 148.603 168.576C146.168 161.622 138.221 158.037 130.902 160.6Z" fill="url(#paint8_linear_8159_139130)"/>
            <path d="M111.637 195.733C114.694 194.663 117.489 191.962 119.953 187.707C121.123 185.691 122.029 183.651 122.681 182.045C122.681 182.045 122.681 182.045 122.668 182.039L122.671 182.049C122.671 182.049 120.325 180.824 117.752 179.533C117.15 181.07 116.251 183.19 115.078 185.229C112.886 189.012 111.044 190.294 109.876 190.703C105.478 192.232 100.714 190.07 99.2457 185.876C97.7875 181.711 100.172 177.046 104.548 175.483C104.747 175.413 105.013 175.351 105.359 175.303C103.889 175.213 102.375 175.304 101.065 175.763C93.0151 178.581 93.2488 184.271 93.2618 184.673C93.3564 185.705 93.5748 186.724 93.9296 187.738C96.3708 194.711 104.318 198.295 111.637 195.733Z" fill="url(#paint9_linear_8159_139130)"/>
            <path d="M141.414 180.455C137.258 181.795 131.864 180.114 130.714 179.629C127.738 178.375 120.59 174.667 120.029 174.373C114.744 171.516 107.93 168.641 102.785 170.443L102.775 170.446L102.766 170.449C96.5292 172.664 92.7312 178.649 93.2629 184.672C93.2404 184.273 93.4646 178.308 101.086 175.849C105.242 174.509 110.672 176.229 111.831 176.711C114.807 177.965 121.955 181.673 122.517 181.967C127.797 184.815 134.612 187.689 139.757 185.888L139.766 185.885L139.776 185.882C146.013 183.667 149.82 177.679 149.279 171.658C149.292 172.061 149.042 177.983 141.414 180.455Z" fill="#29ABE2"/>
        </g>
        <path d="M233.813 146.432C233.991 146.332 234.199 146.503 234.135 146.697L233.129 149.735C232.561 151.45 232.711 153.322 233.544 154.925L234.926 157.586C235.027 157.779 234.819 157.987 234.625 157.887L232.55 156.808C230.612 155.801 228.304 155.803 226.367 156.814L224.222 157.933C224.039 158.029 223.835 157.845 223.912 157.652L224.95 155.06C225.736 153.099 225.549 150.881 224.446 149.078L223.046 146.789C222.93 146.6 223.132 146.376 223.332 146.471L225.844 147.666C227.811 148.602 230.112 148.522 232.01 147.45L233.813 146.432Z" fill="white"/>
    </g>
    <defs>
        <linearGradient id="paint0_linear_8159_139130" x1="73.9453" y1="249.096" x2="73.9453" y2="44.3542" gradientUnits="userSpaceOnUse">
            <stop stop-color="#7EB2FF" stop-opacity="0"/>
            <stop offset="1" stop-color="#7EB2FF"/>
        </linearGradient>
        <linearGradient id="paint1_linear_8159_139130" x1="298.902" y1="138.276" x2="279.181" y2="14.1554" gradientUnits="userSpaceOnUse">
            <stop stop-color="#0153CC"/>
            <stop offset="1" stop-color="#1674FF"/>
        </linearGradient>
        <linearGradient id="paint2_linear_8159_139130" x1="294.74" y1="53.9704" x2="270.149" y2="115.939" gradientUnits="userSpaceOnUse">
            <stop stop-color="#F8EED3"/>
            <stop offset="1" stop-color="white"/>
        </linearGradient>
        <radialGradient id="paint3_radial_8159_139130" cx="0" cy="0" r="1" gradientUnits="userSpaceOnUse" gradientTransform="translate(317.861 29.5672) rotate(167.316) scale(81.4186 69.4355)">
            <stop stop-color="#84B6FF"/>
            <stop offset="0.684529" stop-color="#1F77FB"/>
            <stop offset="1" stop-color="#3F8AFA"/>
        </radialGradient>
        <linearGradient id="paint4_linear_8159_139130" x1="69.7318" y1="124.328" x2="90.2071" y2="-19.0006" gradientUnits="userSpaceOnUse">
            <stop stop-color="#0153CC"/>
            <stop offset="1" stop-color="#1674FF"/>
        </linearGradient>
        <linearGradient id="paint5_linear_8159_139130" x1="73.0043" y1="27.144" x2="102.449" y2="98.0814" gradientUnits="userSpaceOnUse">
            <stop stop-color="#F8EED3"/>
            <stop offset="1" stop-color="white"/>
        </linearGradient>
        <radialGradient id="paint6_radial_8159_139130" cx="0" cy="0" r="1" gradientUnits="userSpaceOnUse" gradientTransform="translate(45.9301 -0.549443) rotate(11.7864) scale(93.7969 79.9919)">
            <stop stop-color="#84B6FF"/>
            <stop offset="0.684529" stop-color="#1F77FB"/>
            <stop offset="1" stop-color="#3F8AFA"/>
        </radialGradient>
        <linearGradient id="paint7_linear_8159_139130" x1="143.309" y1="137.658" x2="83.3752" y2="201.198" gradientUnits="userSpaceOnUse">
            <stop stop-color="#8FBCFF"/>
            <stop offset="1" stop-color="#8FBCFF" stop-opacity="0.2"/>
        </linearGradient>
        <linearGradient id="paint8_linear_8159_139130" x1="124.572" y1="164.687" x2="148.78" y2="177.183" gradientUnits="userSpaceOnUse">
            <stop offset="0.21" stop-color="#F15A24"/>
            <stop offset="0.6841" stop-color="#FBB03B"/>
        </linearGradient>
        <linearGradient id="paint9_linear_8159_139130" x1="117.967" y1="191.645" x2="93.7587" y2="179.15" gradientUnits="userSpaceOnUse">
            <stop offset="0.21" stop-color="#ED1E79"/>
            <stop offset="0.8929" stop-color="#522785"/>
        </linearGradient>
        <clipPath id="clip0_8159_139130">
            <rect y="0.0957031" width="361" height="249" rx="12" fill="white"/>
        </clipPath>
        <clipPath id="clip1_8159_139130">
            <rect width="63.7587" height="63.7587" fill="white" transform="translate(155.593 132.114)"/>
        </clipPath>
        <clipPath id="clip2_8159_139130">
            <path d="M206.896 177.259C213.921 154.96 237.692 142.577 259.991 149.602C282.29 156.627 294.673 180.398 287.648 202.697C280.623 224.996 256.852 237.379 234.553 230.354C212.254 223.329 199.871 199.558 206.896 177.259Z" fill="white"/>
        </clipPath>
        <clipPath id="clip3_8159_139130">
            <path d="M80.3788 192.864C72.4497 170.215 84.3827 145.427 107.032 137.498C129.681 129.569 154.469 141.501 162.398 164.151C170.327 186.8 158.394 211.588 135.745 219.517C113.096 227.446 88.3079 215.513 80.3788 192.864Z" fill="white"/>
        </clipPath>
    </defs>
</svg>
