<!-- source: DFINITY foundation -->
<svg width="361" height="250" viewBox="0 0 361 250" fill="none" xmlns="http://www.w3.org/2000/svg">
    <path opacity="0.2" d="M271.043 54.7559C266.846 54.7559 263.046 56.2187 260.265 58.5855C260.301 58.1739 260.337 57.7623 260.337 57.3426C260.337 48.389 251.996 41.1309 241.708 41.1309C239.95 41.1309 238.255 41.3573 236.643 41.7535C232.792 34.2076 224.111 28.9428 214.012 28.9428C210.688 28.9428 207.519 29.5169 204.622 30.552C198.258 24.6241 189.202 20.9142 179.145 20.9142C159.887 20.9142 144.276 34.4995 144.276 51.2587C144.276 68.0178 159.887 81.604 179.145 81.604C179.174 81.604 179.203 81.6016 179.232 81.6016H271.043C279.527 81.6016 286.402 75.6502 286.467 68.2839V68.1787C286.467 60.7638 279.563 54.7559 271.043 54.7559Z" fill="url(#paint0_linear_7000_20260)"/>
    <path opacity="0.2" d="M243.348 168.497C240.66 168.497 238.143 169.296 235.967 170.672C231.72 165.061 225.344 161.474 218.189 161.474C212.615 161.474 207.502 163.643 203.504 167.251C198.848 156.904 189.162 149.789 177.963 149.789C172.291 149.789 167.011 151.621 162.572 154.765C157.328 131.087 137.942 113.506 114.816 113.506C93.0146 113.506 74.5397 129.132 68.0997 150.76C60.0249 153.022 53.3479 159.093 49.6889 167.119C48.7093 166.895 47.6959 166.775 46.6568 166.775C38.4554 166.775 31.8076 174.093 31.8076 183.12C31.8076 183.276 31.8244 183.427 31.8283 183.581H258.141C257.553 175.144 251.162 168.497 243.348 168.497Z" fill="url(#paint1_linear_7000_20260)"/>
    <path fill-rule="evenodd" clip-rule="evenodd" d="M206.537 114.439C203.025 107.124 193.747 87.8749 182.62 69.711C187.64 69.0973 191.917 69.4385 194.727 71.0442L194.727 71.0427C201.172 66.7652 207.496 64.8137 213.266 64.7221C223.201 77.0667 231.381 88.3743 232.818 90.94C229.746 101.294 220.189 108.826 206.82 114.256L206.537 114.439ZM133.435 98.7087C134.498 95.4221 137.161 92.0145 140.832 88.7371C146.992 109.04 155.097 128.69 158.167 136.271C145.578 143 133.366 144.439 123.463 140.476C122.539 137.659 119.522 124.227 116.825 108.773C120.828 104.139 126.427 100.586 133.435 98.7087ZM120.891 50.5353L120.891 50.5353C120.514 55.5953 120.514 55.5937 120.891 50.5353ZM166.949 29.8086C170.085 32.1927 170.085 32.1927 166.948 29.8085L166.949 29.8086Z" fill="#043484"/>
    <path fill-rule="evenodd" clip-rule="evenodd" d="M140.832 88.736C151.153 79.5208 169.446 71.3234 182.62 69.7099C193.748 87.8757 203.025 107.124 206.537 114.438C200 125.236 166.476 139.613 158.167 136.27C155.096 128.687 146.99 109.034 140.832 88.736ZM116.888 109.13C119.536 124.247 122.474 137.359 123.429 140.37C116.645 139.466 111.849 137.036 109.888 133.026C108.762 130.53 108.818 127.615 109.909 124.42C110.654 118.612 112.983 113.264 116.736 108.876L116.825 108.772L116.888 109.13ZM229.572 70.4081C232.69 71.7031 234.914 73.5901 236.04 76.0851L236.115 76.2572L236.179 76.4099L236.239 76.5633L236.297 76.7164L236.351 76.8718L236.411 77.0515L236.458 77.2059L236.504 77.3629L236.546 77.5165L236.581 77.6538L236.617 77.8107L236.652 77.9661L236.661 78.0162C236.682 78.1152 236.701 78.2155 236.719 78.3168L236.744 78.4779L236.751 78.5276C236.77 78.6487 236.785 78.7705 236.799 78.8924L236.815 79.0548L236.82 79.1057C236.827 79.1944 236.834 79.2831 236.84 79.3716L236.85 79.543L236.854 79.6592C236.974 83.0018 235.549 86.8382 232.818 90.9379C231.381 88.3735 223.201 77.0654 213.266 64.7211C219.54 64.6203 225.161 66.717 229.572 70.4081Z" fill="url(#paint2_linear_7000_20260)"/>
    <path fill-rule="evenodd" clip-rule="evenodd" d="M205.68 35.4842C218.325 43.1775 228.963 54.7798 235.604 69.4928C237.076 72.7546 237.436 76.1782 236.856 79.6802C236.812 78.4071 236.545 77.2035 236.04 76.0852C234.914 73.5902 232.691 71.7041 229.573 70.4077C229.336 69.5098 229.02 68.6167 228.621 67.7345C223.233 55.7973 215.203 44.1871 205.68 35.4842ZM99.237 85.1202C99.8714 97.5067 103.381 110.523 108.533 121.938C108.931 122.821 109.392 123.649 109.909 124.421C108.818 127.616 108.762 130.531 109.888 133.026C110.393 134.145 111.118 135.141 112.045 136.016C109.035 134.135 106.706 131.6 105.233 128.338C98.8533 114.203 97.0657 99.2014 99.237 85.1202ZM133.435 98.7085C111.595 49.7691 121.263 34.7794 138.05 27.2027C154.836 19.6261 172.473 22.2907 194.727 71.0426C181.921 63.7245 138.622 82.6723 133.435 98.7085Z" fill="url(#paint3_linear_7000_20260)"/>
    <path fill-rule="evenodd" clip-rule="evenodd" d="M205.68 35.4842C218.325 43.1775 228.963 54.7798 235.604 69.4928C237.076 72.7546 237.436 76.1782 236.856 79.6802C236.812 78.4071 236.545 77.2035 236.04 76.0852C234.914 73.5902 232.691 71.7041 229.573 70.4077C229.336 69.5098 229.02 68.6167 228.621 67.7345C223.233 55.7973 215.203 44.1871 205.68 35.4842ZM99.237 85.1202C99.8714 97.5067 103.381 110.523 108.533 121.938C108.931 122.821 109.392 123.649 109.909 124.421C108.818 127.616 108.762 130.531 109.888 133.026C110.393 134.145 111.118 135.141 112.045 136.016C109.035 134.135 106.706 131.6 105.233 128.338C98.8533 114.203 97.0657 99.2014 99.237 85.1202ZM133.435 98.7085C111.595 49.7691 121.263 34.7794 138.05 27.2027C154.836 19.6261 172.473 22.2907 194.727 71.0426C181.921 63.7245 138.622 82.6723 133.435 98.7085Z" fill="url(#paint4_linear_7000_20260)"/>
    <path fill-rule="evenodd" clip-rule="evenodd" d="M123.876 39.409C118.379 49.8636 119.413 67.2897 133.435 98.707C119.761 102.371 111.45 112.411 109.909 124.42C109.392 123.648 108.931 122.82 108.533 121.938C95.0555 92.0787 92.8196 51.268 123.876 39.409ZM156.581 24.6475C185.14 10.0728 215.144 37.8741 228.621 67.7337C229.019 68.6171 229.336 69.5092 229.573 70.4085C221.106 63.3236 208.179 62.1117 194.727 71.0429C180.44 39.7439 168.056 27.4408 156.581 24.6475Z" fill="#E8F1FF"/>
    <path fill-rule="evenodd" clip-rule="evenodd" d="M199.59 174.957L158.606 135.682C158.358 135.445 157.965 135.453 157.728 135.7C157.491 135.949 157.499 136.341 157.747 136.579L204.352 181.24L110.381 123.52C110.089 123.341 109.706 123.434 109.527 123.725C109.347 124.017 109.439 124.399 109.731 124.579L195.519 177.272L123.744 139.913C123.44 139.755 123.065 139.873 122.907 140.178C122.749 140.481 122.867 140.856 123.171 141.014L209.055 185.717L209.056 185.718L209.059 185.719L209.061 185.72L209.065 185.722L209.066 185.723L209.068 185.724L209.07 185.725L209.072 185.726L209.074 185.727L209.079 185.729L209.081 185.73L209.082 185.731L209.084 185.732L209.086 185.732L209.088 185.734L209.093 185.736L209.096 185.737L209.099 185.738L209.099 185.738L209.102 185.74L209.111 185.744L209.117 185.746L209.13 185.751L209.131 185.752L209.132 185.752L209.137 185.754L209.147 185.757L209.152 185.759L209.152 185.759L209.153 185.76L209.161 185.762L209.166 185.764L209.168 185.764L209.169 185.765L209.175 185.767L209.181 185.768L209.182 185.769L209.185 185.769L209.186 185.77L209.186 185.77L209.19 185.771L209.194 185.772L209.197 185.773L209.199 185.773L209.2 185.774L209.202 185.774L209.204 185.775L209.208 185.776L209.211 185.776L209.214 185.777L209.215 185.777L209.218 185.778L209.22 185.778L209.223 185.779L209.227 185.78L209.228 185.78L209.23 185.78L209.232 185.781L209.235 185.781L209.238 185.782L209.242 185.782L209.243 185.783L209.244 185.783L209.248 185.784L209.25 185.784L209.252 185.784L209.256 185.785L209.258 185.785L209.26 185.786L209.265 185.786L209.266 185.786L209.267 185.786L209.271 185.787L209.273 185.787L209.275 185.788L209.281 185.788L209.282 185.788L209.286 185.789L209.289 185.789L209.29 185.789L209.296 185.79L209.296 185.79L209.297 185.79L209.302 185.79L209.304 185.79L209.306 185.791L209.309 185.791L209.312 185.791L209.315 185.791L209.317 185.791L209.319 185.791L209.321 185.792L209.323 185.792L209.327 185.792L209.332 185.792L209.335 185.792L209.336 185.792L209.338 185.792C209.377 185.793 209.416 185.79 209.454 185.784L209.454 185.784L209.455 185.783L209.464 185.782L209.467 185.781L209.47 185.781L209.475 185.78L209.478 185.779L209.479 185.779L209.485 185.778L209.501 185.774C209.505 185.773 209.511 185.772 209.515 185.77L209.524 185.768L209.529 185.766L209.538 185.764L209.539 185.763L209.539 185.763L209.545 185.762L209.552 185.759L209.554 185.758L209.555 185.758L209.559 185.757L209.561 185.756L209.562 185.755L209.565 185.754L209.568 185.753L209.571 185.753L209.573 185.751L209.574 185.751L209.575 185.751L209.578 185.749L209.583 185.748L209.586 185.747L209.587 185.746L209.588 185.746L209.588 185.745L209.593 185.743L209.597 185.742L209.6 185.741L209.603 185.739L209.607 185.737L209.61 185.736L209.613 185.734L209.618 185.733L209.621 185.731L209.625 185.729L209.628 185.728L209.631 185.726L209.634 185.724L209.638 185.722L209.641 185.72L209.644 185.719L209.647 185.717L209.652 185.715L209.656 185.712L209.658 185.711L209.659 185.71L209.665 185.707L209.668 185.706C209.685 185.7 209.701 185.694 209.719 185.687L209.729 185.682L209.731 185.681L209.732 185.681L209.742 185.676L209.742 185.676C209.826 185.636 209.902 185.578 209.962 185.502L209.962 185.5L209.964 185.498L209.969 185.493L209.97 185.491L209.972 185.489L209.977 185.481L209.977 185.48C210.008 185.438 210.034 185.392 210.053 185.342L210.058 185.328C210.073 185.291 210.083 185.252 210.088 185.214L210.341 183.76L233.296 91.1168C233.378 90.7843 233.175 90.4468 232.843 90.3651C232.51 90.2819 232.174 90.4848 232.091 90.8171L213.342 166.49L230.058 70.2671C230.115 69.9298 229.89 69.6082 229.551 69.5503C229.214 69.4911 228.892 69.718 228.833 70.0551L209.766 179.816L207.238 114.369C207.225 114.027 206.936 113.759 206.593 113.773C206.251 113.786 205.984 114.074 205.997 114.418L208.203 171.508L195.035 70.1496C194.991 69.8101 194.68 69.5695 194.34 69.6142C194 69.6575 193.76 69.9688 193.804 70.3096L208.473 183.224L133.496 97.5307C133.27 97.2722 132.878 97.2463 132.62 97.4714C132.362 97.6979 132.336 98.0904 132.561 98.3475L199.59 174.957Z" fill="url(#paint5_linear_7000_20260)"/>
    <g clip-path="url(#clip0_7000_20260)">
        <circle cx="216.97" cy="197.703" r="29.7663" transform="rotate(-19.2943 216.97 197.703)" fill="white" stroke="#3183FF"/>
        <path d="M223.596 185.229C221.467 185.975 219.52 187.856 217.803 190.82C216.989 192.225 216.357 193.645 215.903 194.764C215.903 194.764 215.903 194.764 215.912 194.768L215.91 194.761C215.91 194.761 217.544 195.614 219.336 196.514C219.756 195.443 220.382 193.966 221.199 192.546C222.726 189.911 224.009 189.018 224.822 188.733C227.884 187.661 231.203 189.168 232.225 192.089C233.241 194.99 231.58 198.24 228.532 199.329C228.393 199.377 228.208 199.42 227.967 199.454C228.991 199.517 230.045 199.453 230.958 199.134C236.565 197.171 236.409 193.205 236.391 192.92C236.328 192.208 236.173 191.492 235.926 190.786C234.23 185.941 228.694 183.445 223.596 185.229Z" fill="url(#paint6_linear_7000_20260)"/>
        <path d="M210.177 209.702C212.306 208.956 214.253 207.075 215.969 204.112C216.784 202.707 217.415 201.286 217.869 200.167C217.869 200.167 217.869 200.167 217.861 200.163L217.863 200.17C217.863 200.17 216.228 199.317 214.436 198.418C214.017 199.488 213.39 200.965 212.574 202.385C211.047 205.021 209.763 205.913 208.95 206.198C205.886 207.263 202.568 205.757 201.545 202.836C200.529 199.935 202.19 196.685 205.238 195.596C205.377 195.548 205.563 195.504 205.803 195.471C204.779 195.408 203.725 195.472 202.812 195.791C197.205 197.754 197.368 201.718 197.377 201.998C197.443 202.717 197.595 203.427 197.842 204.133C199.542 208.99 205.078 211.487 210.177 209.702Z" fill="url(#paint7_linear_7000_20260)"/>
        <path d="M230.919 199.06C228.024 199.993 224.266 198.822 223.465 198.485C221.393 197.611 216.413 195.028 216.022 194.824C212.341 192.833 207.595 190.831 204.011 192.086L204.004 192.088L203.997 192.09C199.653 193.633 197.007 197.802 197.378 201.998C197.362 201.72 197.518 197.565 202.827 195.851C205.722 194.918 209.504 196.117 210.312 196.452C212.385 197.326 217.364 199.908 217.755 200.113C221.434 202.097 226.18 204.099 229.764 202.845L229.771 202.842L229.778 202.84C234.122 201.297 236.774 197.126 236.397 192.932C236.406 193.213 236.232 197.338 230.919 199.06Z" fill="#29ABE2"/>
    </g>
    <defs>
        <linearGradient id="paint0_linear_7000_20260" x1="227" y1="20.5957" x2="220" y2="61.5957" gradientUnits="userSpaceOnUse">
            <stop stop-color="#0066FF"/>
            <stop offset="1" stop-color="#0066FF" stop-opacity="0"/>
        </linearGradient>
        <linearGradient id="paint1_linear_7000_20260" x1="144.974" y1="113.506" x2="144.974" y2="183.581" gradientUnits="userSpaceOnUse">
            <stop stop-color="#0066FF"/>
            <stop offset="1" stop-color="#0066FF" stop-opacity="0"/>
        </linearGradient>
        <linearGradient id="paint2_linear_7000_20260" x1="168.538" y1="69.1592" x2="197.045" y2="122.709" gradientUnits="userSpaceOnUse">
            <stop stop-color="#3579DE"/>
            <stop offset="1" stop-color="#E2EEFF"/>
        </linearGradient>
        <linearGradient id="paint3_linear_7000_20260" x1="158.081" y1="75.7532" x2="128.176" y2="8.68251" gradientUnits="userSpaceOnUse">
            <stop stop-color="#0066FF"/>
            <stop offset="1" stop-color="#003D99"/>
        </linearGradient>
        <linearGradient id="paint4_linear_7000_20260" x1="158.081" y1="75.7532" x2="128.176" y2="8.68251" gradientUnits="userSpaceOnUse">
            <stop stop-color="#2C7DF8"/>
            <stop offset="1" stop-color="#0B4CAF"/>
        </linearGradient>
        <linearGradient id="paint5_linear_7000_20260" x1="164.609" y1="155.582" x2="174.252" y2="79.9177" gradientUnits="userSpaceOnUse">
            <stop stop-color="#0066FF"/>
            <stop offset="1" stop-color="white"/>
        </linearGradient>
        <linearGradient id="paint6_linear_7000_20260" x1="219.187" y1="188.077" x2="236.05" y2="196.781" gradientUnits="userSpaceOnUse">
            <stop offset="0.21" stop-color="#F15A24"/>
            <stop offset="0.6841" stop-color="#FBB03B"/>
        </linearGradient>
        <linearGradient id="paint7_linear_7000_20260" x1="214.586" y1="206.854" x2="197.723" y2="198.15" gradientUnits="userSpaceOnUse">
            <stop offset="0.21" stop-color="#ED1E79"/>
            <stop offset="0.8929" stop-color="#522785"/>
        </linearGradient>
        <clipPath id="clip0_7000_20260">
            <path d="M188.404 207.704C182.881 191.927 191.193 174.66 206.97 169.137C222.746 163.614 240.013 171.926 245.537 187.703C251.06 203.48 242.748 220.747 226.971 226.27C211.194 231.793 193.927 223.481 188.404 207.704Z" fill="white"/>
        </clipPath>
    </defs>
</svg>