<!-- source: DFINITY foundation -->
<svg xmlns="http://www.w3.org/2000/svg" width="361" height="250" fill="none"><g clip-path="url(#a)"><rect width="361" height="249" fill="url(#b)" fill-opacity=".7" rx="12"/><g fill="#fff" opacity=".64"><path d="m217.302 416.242-615.543-283.693 52.252-99.071 579.819 376.27z" opacity=".6"/><path d="M143.697 416.242 759.24 132.549l-52.252-99.071-579.818 376.27z" opacity=".6"/><path d="m178.778 407.614 77.034-566.975-153.626.848 76.592 588.428z" opacity=".6"/><path d="M187.259 377.27-191.005-2 8.499-141.955l195.96 523.641z" opacity=".6"/><path d="m167.545 375.448 460.45-427.947-274.498-88.746-203.212 520.869z" opacity=".6"/></g><g clip-path="url(#c)"><circle cx="187.472" cy="163.898" r="31.879" fill="#2775CA"/><path fill="#fff" d="M196.304 168.68c0-4.649-2.79-6.243-8.369-6.907-3.985-.532-4.782-1.594-4.782-3.454s1.329-3.055 3.985-3.055c2.391 0 3.72.797 4.384 2.789a1 1 0 0 0 .93.664h2.125c.531 0 .93-.398.93-.929v-.133a6.636 6.636 0 0 0-5.978-5.446v-3.188c0-.532-.398-.93-1.062-1.063h-1.993c-.531 0-.93.398-1.063 1.063v3.055c-3.985.531-6.508 3.188-6.508 6.509 0 4.383 2.656 6.11 8.235 6.774 3.72.664 4.915 1.461 4.915 3.586s-1.86 3.587-4.383 3.587c-3.454 0-4.65-1.461-5.048-3.454-.133-.531-.531-.797-.93-.797h-2.258a.91.91 0 0 0-.93.93v.133c.532 3.321 2.657 5.711 7.04 6.376v3.188c0 .531.399.929 1.063 1.062h1.992c.532 0 .93-.398 1.063-1.062v-3.188c3.985-.665 6.642-3.454 6.642-7.04"/><path fill="#fff" d="M180.763 182.627c-10.361-3.719-15.675-15.275-11.822-25.503 1.992-5.579 6.376-9.83 11.822-11.822.531-.266.796-.664.796-1.329v-1.859c0-.532-.265-.93-.796-1.063-.133 0-.399 0-.532.133-12.619 3.985-19.526 17.401-15.541 30.02 2.391 7.438 8.103 13.15 15.541 15.541.532.265 1.063 0 1.196-.532.132-.132.132-.265.132-.531v-1.859c0-.399-.398-.93-.796-1.196m14.08-41.443c-.532-.266-1.063 0-1.196.531-.133.133-.133.266-.133.532v1.859c0 .532.399 1.063.797 1.329 10.361 3.719 15.674 15.275 11.822 25.503-1.992 5.579-6.376 9.83-11.822 11.822-.531.266-.797.664-.797 1.328v1.86c0 .531.266.93.797 1.062.133 0 .399 0 .532-.132 12.618-3.985 19.526-17.401 15.541-30.02-2.391-7.571-8.236-13.283-15.541-15.674"/></g><path fill="url(#d)" fill-rule="evenodd" d="M254.536 103.336c3.663-7.946 13.34-28.856 25.03-48.628-5.422-.577-10.028-.137-13.03 1.642v-.002c-7.021-4.503-13.873-6.5-20.095-6.501-10.504 13.477-19.132 25.807-20.638 28.598 3.487 11.11 13.919 19.07 28.425 24.699zm78.55-18.195c-1.201-3.526-4.129-7.155-8.143-10.626-6.299 21.994-14.705 43.316-17.887 51.543 13.687 7.042 26.878 8.387 37.488 3.947.949-3.054 3.975-17.587 6.621-34.294-4.394-4.929-10.491-8.665-18.079-10.57m12.711-52.151h-.001q.74 8.172.001 0M295.789 11.42q-5.012 3.936 0 0" clip-rule="evenodd"/><path fill="url(#e)" fill-rule="evenodd" d="M324.943 74.514c-11.284-9.762-31.146-18.29-45.377-19.808-11.691 19.774-21.368 40.684-25.031 48.629 7.231 11.531 43.618 26.466 52.521 22.722 3.182-8.228 11.59-29.554 17.887-51.543m26.16 21.584c-2.599 16.342-5.546 30.529-6.524 33.791 7.299-1.088 12.428-3.79 14.475-8.146 1.172-2.71 1.062-5.852-.168-9.279-.902-6.249-3.503-11.975-7.624-16.643l-.098-.11zM228.955 56.253c-3.34 1.449-5.705 3.52-6.878 6.23l-.077.187-.067.165-.062.167-.06.166-.056.168-.06.195-.049.167-.047.17-.043.167-.035.148-.036.17-.035.168-.009.054a8 8 0 0 0-.057.325l-.025.174-.007.054q-.026.197-.045.394l-.015.176-.005.055-.016.287-.008.185-.003.125c-.072 3.606 1.529 7.718 4.542 12.092 1.506-2.789 10.135-15.12 20.638-28.596-6.766-.003-12.791 2.353-17.485 6.407" clip-rule="evenodd"/><path fill="url(#f)" fill-rule="evenodd" d="M254.125 18.195c-13.504 8.508-24.776 21.197-31.688 37.173-1.532 3.541-1.863 7.239-1.178 11.005.025-1.374.293-2.676.819-3.89 1.172-2.71 3.537-4.78 6.876-6.23q.36-1.46.982-2.899c5.607-12.961 14.068-25.615 24.189-35.16m115.603 51.717c-.475 13.366-4.038 27.459-9.401 39.853a18.4 18.4 0 0 1-1.441 2.7c1.23 3.427 1.34 6.569.168 9.278-.526 1.215-1.291 2.301-2.275 3.26 3.214-2.079 5.682-4.851 7.214-8.394 6.64-15.347 8.314-31.552 5.735-46.697m-36.642 15.229c22.72-53.135 12.043-69.133-6.184-77.018s-37.197-4.714-60.367 48.225c13.683-8.107 60.688 11.59 66.551 28.793" clip-rule="evenodd"/><path fill="#fff" fill-rule="evenodd" d="M342.39 21.044c6.104 11.179 5.283 29.985-9.304 64.095 14.805 3.72 23.936 14.404 25.8 27.326a18.5 18.5 0 0 0 1.442-2.7c14.026-32.421 15.747-76.46-17.938-88.721M306.88 5.68c-31.039-15.231-62.918 15.25-76.944 47.672q-.622 1.44-.981 2.9c9.009-7.782 22.925-9.307 37.58.095C281.41 22.361 294.554 8.887 306.88 5.681" clip-rule="evenodd"/><path fill="#F5A273" fill-rule="evenodd" d="m263.048 168.467 43.525-43.038a.67.67 0 0 1 .941.953l-49.494 48.941 100.342-63.821a.67.67 0 0 1 .719 1.131l-91.604 58.261 76.754-41.491a.67.67 0 1 1 .636 1.177l-91.842 49.648-.001.001-.003.002-.003.001-.004.002-.001.001-.002.001-.002.001-.002.001-.002.002-.006.002-.001.001-.002.001-.002.001-.002.001-.002.001-.006.003-.003.001-.003.001h.001l-.005.002-.009.005-.006.002-.014.006h-.001l-.002.001-.005.002-.01.004-.006.002h-.001l-.008.003-.006.002h-.001l-.002.001-.007.002-.006.002h-.001l-.003.001-.001.001-.004.001-.005.001-.003.001-.002.001h-.003l-.003.001-.004.001-.003.001-.003.001h-.001l-.003.001h-.003l-.003.001-.004.001h-.002l-.001.001h-.003l-.003.001h-.003l-.004.001-.002.001h-.001l-.004.001h-.005l-.004.001h-.001l-.003.001-.005.001h-.003l-.004.001h-.004l-.006.001h-.001l-.005.001h-.004l-.006.001h-.001l-.006.001h-.008l-.003.001h-.011l-.005.001h-.011a.6.6 0 0 1-.126-.007h-.002l-.009-.001-.003-.001-.003-.001h-.006l-.003-.001-.002-.001-.006-.001-.016-.003-.016-.004-.009-.003-.006-.001-.01-.003h-.001v-.001l-.006-.001-.008-.003h-.002l-.001-.001-.005-.001-.002-.001-.001-.001h-.003l-.004-.002h-.003l-.001-.002h-.003l-.004-.002-.004-.002-.003-.001h-.002l-.002-.001-.004-.002-.005-.002-.003-.001-.003-.001-.005-.002-.003-.002-.004-.002-.004-.001-.004-.002-.004-.002-.004-.001-.003-.002-.003-.002-.005-.002-.003-.002-.003-.002-.003-.001-.005-.003-.005-.002-.002-.001-.002-.001-.006-.004-.003-.001-.055-.02-.011-.005-.002-.001h-.002l-.011-.005a.7.7 0 0 1-.239-.184l-.001-.002-.002-.003-.005-.005-.002-.002-.001-.002-.006-.008v-.002a.7.7 0 0 1-.085-.147l-.005-.015a.5.5 0 0 1-.034-.123l-.298-1.563-26.315-99.497a.67.67 0 0 1 1.294-.344l21.494 81.272L228.43 56.109a.67.67 0 0 1 1.316-.25l22.412 118.019 1.62-70.606a.67.67 0 0 1 1.339.032l-1.413 61.59L266.187 55.39a.67.67 0 0 1 1.331.152L253.61 177.53l79.391-93.66a.67.67 0 1 1 1.021.865z" clip-rule="evenodd"/><g clip-path="url(#g)"><path fill="#F7931A" stroke="#F2E9D9" stroke-width="1.246" d="m282.831 211.664-.108.176c-12.073 19.498-37.651 25.594-57.235 13.601-19.634-12.026-25.805-37.699-13.776-57.334 12.026-19.641 37.7-25.811 57.336-13.785 19.642 12.028 25.811 37.703 13.783 57.342Z"/><path fill="#fff" d="M266.89 189.739c2.497-5.12-.684-9.297-5.672-12.986l4.108-6.707-4.084-2.499-3.999 6.53a186 186 0 0 0-3.287-1.954l4.027-6.573-4.081-2.499-4.108 6.704a153 153 0 0 1-2.619-1.556l.012-.022-5.63-3.45-2.67 4.361s3.051 1.789 2.967 1.813c1.653 1.013 1.603 2.303 1.253 3.228l-4.679 7.64c.113.071.259.166.414.293q-.206-.126-.432-.263l-6.557 10.703c-.391.476-1.205 1.118-2.362.412.024.079-2.968-1.818-2.968-1.818l-3.797 4.379 5.313 3.254c.988.607 1.951 1.219 2.903 1.81l-4.153 6.784 4.078 2.499 4.111-6.712c1.105.709 2.183 1.381 3.242 2.029l-4.093 6.679 4.083 2.5 4.149-6.771c7.105 3.81 12.968 5.024 17.512-1.057 3.661-4.894 2.637-8.705-.686-12.027 3.106.245 5.886-.972 7.707-4.722l-.001-.002zm-14.595 11.006c-3.103 5.071-11.43-.822-14.199-2.514l5.506-8.987c2.767 1.696 11.931 6.214 8.693 11.501m5.867-13.843c-2.826 4.611-9.736-.361-12.041-1.772l4.993-8.151c2.305 1.412 9.994 5.113 7.048 9.923"/></g><path fill="url(#h)" fill-rule="evenodd" d="M120.208 83.295c-4.363-9.086-15.888-32.998-29.71-55.562 6.234-.763 11.548-.339 15.038 1.656l.001-.002c8.006-5.314 15.862-7.738 23.03-7.852 12.342 15.335 22.503 29.382 24.288 32.57-3.816 12.861-15.688 22.218-32.296 28.964zm-90.81-19.54c1.32-4.083 4.627-8.316 9.188-12.387 7.652 25.221 17.72 49.63 21.534 59.048-15.638 8.36-30.809 10.147-43.11 5.224-1.148-3.5-4.896-20.186-8.246-39.383 4.972-5.757 11.928-10.17 20.633-12.502M13.814 3.912q-.704 9.426 0 0M71.03-21.836q5.843 4.443-.001 0" clip-rule="evenodd"/><path fill="url(#i)" fill-rule="evenodd" d="M38.587 51.367c12.82-11.447 35.546-21.63 51.911-23.635 13.824 22.567 25.347 46.478 29.71 55.564-8.121 13.413-49.765 31.273-60.087 27.12-3.815-9.419-13.884-33.833-21.534-59.049M8.842 76.702c3.29 18.778 6.94 35.066 8.126 38.807-8.428-1.122-14.385-4.141-16.821-9.123-1.4-3.101-1.33-6.722.026-10.69.925-7.215 3.819-13.858 8.481-19.31l.11-.13zM148.824 28.6c3.873 1.608 6.635 3.953 8.035 7.052l.092.214.08.19.075.19.071.19.068.193.074.223.059.192.057.195.052.191.043.17.045.195.043.194.012.062q.04.184.071.373l.032.2.009.062q.033.226.06.453l.019.202.007.063.024.33.012.213.006.145c.149 4.152-1.622 8.918-5.014 14.01-1.785-3.185-11.947-17.232-24.289-32.567 7.794-.125 14.777 2.48 20.257 7.065" clip-rule="evenodd"/><path fill="url(#j)" fill-rule="evenodd" d="M119.143-14.785c15.709 9.557 28.923 23.97 37.173 42.247 1.829 4.051 2.276 8.304 1.555 12.655-.054-1.582-.385-3.077-1.013-4.466-1.399-3.1-4.161-5.442-8.033-7.053a21 21 0 0 0-1.183-3.32c-6.693-14.83-16.668-29.252-28.499-40.063m-132.228 61.66c.788 15.387 5.148 31.556 11.548 45.736a21 21 0 0 0 1.71 3.085c-1.356 3.968-1.425 7.59-.026 10.69.627 1.389 1.528 2.626 2.679 3.713-3.74-2.337-6.633-5.485-8.462-9.538-7.925-17.558-10.146-36.194-7.449-53.686m42.483 16.88C2.267 2.96 14.278-15.661 35.13-25.074c20.853-9.412 42.763-6.102 70.407 54.46-15.908-9.091-69.697 14.447-76.139 34.368" clip-rule="evenodd"/><path fill="#fff" fill-rule="evenodd" d="M17.523-9.91C10.694 3.077 11.98 24.725 29.398 63.753 12.412 68.304 2.087 80.777.173 95.695a21 21 0 0 1-1.71-3.084C-18.278 55.519-21.056 4.822 17.524-9.91M58.15-28.247c35.479-18.105 72.75 16.43 89.492 53.523a21.3 21.3 0 0 1 1.183 3.323c-10.519-8.801-26.576-10.306-43.288.788C87.79-9.493 72.406-24.777 58.15-28.247" clip-rule="evenodd"/><path fill="#F5A273" fill-rule="evenodd" d="m111.579 158.473-50.912-48.789a.772.772 0 0 0-1.068 1.115l57.896 55.48L.759 94.576a.773.
773 0 0 0-.807 1.316l106.57 65.457-89.162-46.408a.77.77 0 1 0-.712 1.367l106.689 55.532.001.001.004.001.003.002.005.002.001.001.002.001.003.002h.002l.003.002.006.003.002.001.001.001.003.001.002.001.003.002.007.002.003.002.003.001.005.002.011.005.007.003.016.007h.001l.002.001.006.002.012.004.006.002.002.001.01.003.006.002h.002l.001.001.008.003.007.001.002.001.003.001h.002l.004.002.005.001.004.001.003.001h.002l.001.001h.004l.005.002h.003l.003.001h.002l.003.001.003.001h.004l.005.002h.003l.003.001.004.001h.003l.005.001h.002l.001.001.005.001h.005l.005.001h.002l.003.001.005.001h.004l.005.001h.005l.006.001h.002l.005.001h.005l.007.001h.001l.007.001h.009l.003.001h.013l.006.001h.013a1 1 0 0 0 .145-.01l.001-.001.011-.001.003-.001.004-.001.007-.001.003-.001.002-.001.007-.001.02-.004.017-.005.011-.003.007-.002.011-.003.002-.001.007-.002.009-.003.001-.001h.002l.006-.002.001-.001.002-.001.004-.001.003-.001.004-.001.002-.002h.003l.004-.002.005-.002.004-.001.002-.002H124l.005-.003.005-.002.004-.001.004-.002.005-.002.004-.002.004-.002.005-.002.004-.002.005-.002.004-.002.003-.002.004-.002.006-.003.003-.002.004-.002.004-.002.005-.003.006-.003.002-.001.002-.002.007-.003.004-.002.063-.024.012-.006.002-.001h.002l.013-.006v-.001a.8.8 0 0 0 .273-.216v-.001l.002-.004.006-.006.002-.002.002-.003.007-.009v-.002a.8.8 0 0 0 .094-.171l.006-.017a.6.6 0 0 0 .037-.143l.314-1.805L153.45 54.323a.771.771 0 0 0-1.497-.372l-23.291 94.004 20.765-119.532a.772.772 0 0 0-1.521-.263l-23.685 136.349-3.141-81.301a.77.77 0 0 0-1.542.06l2.74 70.92-16.357-125.911a.771.771 0 0 0-1.529.199l18.222 140.267-93.14-106.452a.771.771 0 1 0-1.16 1.015z" clip-rule="evenodd"/><g clip-path="url(#k)"><circle cx="121.389" cy="178.412" r="43.45" fill="#fff" transform="rotate(-19.294 121.389 178.412)"/><circle cx="121.389" cy="178.412" r="42.45" stroke="url(#l)" stroke-opacity=".6" stroke-width="2" transform="rotate(-19.294 121.389 178.412)"/><path fill="url(#m)" d="M130.902 160.504c-3.057 1.07-5.852 3.771-8.316 8.025-1.17 2.017-2.076 4.056-2.728 5.662l.013.006-.004-.009s2.347 1.224 4.92 2.515c.602-1.536 1.501-3.656 2.673-5.695 2.192-3.784 4.035-5.065 5.202-5.474 4.396-1.539 9.16.624 10.628 4.817 1.458 4.165-.926 8.83-5.302 10.394-.2.069-.466.131-.812.179 1.471.091 2.984-.001 4.294-.459 8.05-2.818 7.826-8.512 7.8-8.92a12.7 12.7 0 0 0-.667-3.065c-2.435-6.954-10.382-10.538-17.701-7.976"/><path fill="url(#n)" d="M111.637 195.637c3.057-1.07 5.852-3.771 8.316-8.025 1.17-2.017 2.076-4.056 2.728-5.662l-.013-.006.003.009s-2.346-1.224-4.919-2.515c-.602 1.536-1.501 3.656-2.674 5.695-2.192 3.784-4.034 5.065-5.202 5.474-4.398 1.53-9.162-.633-10.63-4.826-1.459-4.166.926-8.831 5.302-10.394a4 4 0 0 1 .811-.179c-1.47-.091-2.984 0-4.294.459-8.05 2.818-7.816 8.508-7.803 8.911a12.8 12.8 0 0 0 .668 3.064c2.44 6.973 10.388 10.557 17.707 7.995"/><path fill="#29ABE2" d="M141.414 180.359c-4.156 1.34-9.55-.341-10.7-.825-2.976-1.255-10.124-4.962-10.685-5.256-5.285-2.858-12.099-5.732-17.244-3.931l-.01.003-.009.004c-6.237 2.214-10.035 8.199-9.503 14.223-.023-.399.202-6.364 7.823-8.824 4.156-1.34 9.586.381 10.745.862 2.976 1.254 10.124 4.962 10.686 5.256 5.28 2.848 12.095 5.723 17.24 3.921l.009-.003.01-.003c6.237-2.215 10.044-8.203 9.503-14.223.013.402-.237 6.324-7.865 8.796"/></g><path fill="#fff" d="M233.813 146.337a.223.223 0 0 1 .322.264l-1.006 3.038a6.7 6.7 0 0 0 .415 5.19l1.382 2.661c.101.193-.107.401-.301.301l-2.075-1.078a6.69 6.69 0 0 0-6.183.005l-2.145 1.119a.223.223 0 0 1-.31-.28l1.038-2.592a6.7 6.7 0 0 0-.504-5.983l-1.4-2.289c-.116-.189.086-.413.286-.318l2.512 1.195a6.7 6.7 0 0 0 6.166-.215z"/><path fill="#FB9458" d="M190.66 51.608a.467.467 0 0 1 .786.376l-.521 6.684a14.03 14.03 0 0 0 3.448 10.348l4.148 4.718a.468.468 0 0 1-.461.763l-4.762-1.152a14.02 14.02 0 0 0-12.573 3.114l-3.801 3.352a.467.467 0 0 1-.772-.415l.811-5.793a14.02 14.02 0 0 0-4.026-11.914l-3.997-3.953c-.33-.327-.033-.883.423-.79l5.707 1.17a14.02 14.02 0 0 0 12.433-3.533z" opacity=".16"/><path fill="#FB9458" d="M11.192 141.236a.21.21 0 0 1 .318-.227l2.51 1.65a6.28 6.28 0 0 0 4.807.884l2.748-.607a.21.21 0 0 1 .2.346l-1.482 1.62a6.28 6.28 0 0 0-1.497 5.608l.493 2.216a.21.21 0 0 1-.33.213l-2.097-1.571a6.28 6.28 0 0 0-5.547-.996l-2.416.713c-.2.059-.354-.178-.218-.337l1.693-1.986a6.29 6.29 0 0 0 1.303-5.644z" opacity=".15"/></g><defs><linearGradient id="b" x1="73.945" x2="73.945" y1="249" y2="44.258" gradientUnits="userSpaceOnUse"><stop stop-color="#FCA43D" stop-opacity="0"/><stop offset="1" stop-color="#F58859"/></linearGradient><linearGradient id="d" x1="298.902" x2="279.181" y1="138.18" y2="14.06" gradientUnits="userSpaceOnUse"><stop stop-color="#CC3F03"/><stop offset="1" stop-color="#F66020"/></linearGradient><linearGradient id="e" x1="294.74" x2="270.149" y1="53.875" y2="115.844" gradientUnits="userSpaceOnUse"><stop stop-color="#F8EED3"/><stop offset="1" stop-color="#fff"/></linearGradient><linearGradient id="h" x1="69.732" x2="90.207" y1="124.233" y2="-19.096" gradientUnits="userSpaceOnUse"><stop stop-color="#CC3F03"/><stop offset="1" stop-color="#F66020"/></linearGradient><linearGradient id="i" x1="73.004" x2="102.449" y1="27.048" y2="97.986" gradientUnits="userSpaceOnUse"><stop stop-color="#F8EED3"/><stop offset="1" stop-color="#fff"/></linearGradient><linearGradient id="l" x1="143.309" x2="83.375" y1="137.562" y2="201.103" gradientUnits="userSpaceOnUse"><stop stop-color="#F5A273"/><stop offset="1" stop-color="#F5A273" stop-opacity=".2"/></linearGradient><linearGradient id="m" x1="124.572" x2="148.78" y1="164.592" y2="177.087" gradientUnits="userSpaceOnUse"><stop offset=".21" stop-color="#F15A24"/><stop offset=".684" stop-color="#FBB03B"/></linearGradient><linearGradient id="n" x1="117.967" x2="93.759" y1="191.549" y2="179.054" gradientUnits="userSpaceOnUse"><stop offset=".21" stop-color="#ED1E79"/><stop offset=".893" stop-color="#522785"/></linearGradient><clipPath id="a"><rect width="361" height="249" fill="#fff" rx="12"/></clipPath><clipPath id="c"><path fill="#fff" d="M155.593 132.019h63.759v63.759h-63.759z"/></clipPath><clipPath id="g"><path fill="#fff" d="M206.896 177.164c7.025-22.299 30.796-34.682 53.095-27.657 22.299 7.024 34.682 30.796 27.657 53.095s-30.796 34.682-53.095 27.657-34.682-30.796-27.657-53.095"/></clipPath><clipPath id="k"><path fill="#fff" d="M80.379 192.769c-7.93-22.65 4.004-47.438 26.653-55.367s47.437 4.004 55.366 26.653-4.004 47.437-26.653 55.366-47.437-4.003-55.366-26.652"/></clipPath><radialGradient id="f" cx="0" cy="0" r="1" gradientTransform="matrix(-79.43165 17.87739 -15.24621 -67.74099 317.861 29.471)" gradientUnits="userSpaceOnUse"><stop stop-color="#FFB358"/><stop offset=".685" stop-color="#FF5C00"/><stop offset="1" stop-color="#F7841A"/></radialGradient><radialGradient id="j" cx="0" cy="0" r="1" gradientTransform="rotate(11.786 26.09 222.164)scale(93.7969 79.9919)" gradientUnits="userSpaceOnUse"><stop stop-color="#FFB358"/><stop offset=".685" stop-color="#FF5C00"/><stop offset="1" stop-color="#F7841A"/></radialGradient></defs></svg>
