<!-- source: DFINITY foundation -->
<svg width="361" height="249" viewBox="0 0 361 249" fill="none" xmlns="http://www.w3.org/2000/svg">
    <g clip-path="url(#clip0_8159_139081)">
        <rect width="361" height="249" rx="12" fill="url(#paint0_linear_8159_139081)" fill-opacity="0.7"/>
        <g opacity="0.64">
            <path opacity="0.6" d="M217.302 416.242L-398.241 132.549L-345.989 33.4777L233.83 409.748L217.302 416.242Z" fill="white"/>
            <path opacity="0.6" d="M143.697 416.242L759.24 132.549L706.988 33.4777L127.17 409.748L143.697 416.242Z" fill="white"/>
            <path opacity="0.6" d="M178.778 407.614L255.812 -159.361L102.186 -158.513L178.778 429.915L178.778 407.614Z" fill="white"/>
            <path opacity="0.6" d="M187.259 377.27L-191.005 -1.99999L8.49948 -141.955L204.459 381.686L187.259 377.27Z" fill="white"/>
            <path opacity="0.6" d="M167.545 375.448L627.995 -52.4995L353.497 -141.245L150.285 379.624L167.545 375.448Z" fill="white"/>
        </g>
        <g clip-path="url(#clip1_8159_139081)">
            <circle cx="187.472" cy="163.898" r="31.8793" fill="#2775CA"/>
            <path d="M196.304 168.68C196.304 164.031 193.514 162.437 187.935 161.773C183.95 161.241 183.153 160.179 183.153 158.319C183.153 156.459 184.482 155.264 187.138 155.264C189.529 155.264 190.858 156.061 191.522 158.053C191.655 158.452 192.053 158.717 192.452 158.717H194.577C195.108 158.717 195.507 158.319 195.507 157.788V157.655C194.975 154.732 192.584 152.474 189.529 152.209V149.021C189.529 148.489 189.131 148.091 188.467 147.958H186.474C185.943 147.958 185.544 148.356 185.411 149.021V152.076C181.426 152.607 178.903 155.264 178.903 158.585C178.903 162.968 181.559 164.695 187.138 165.359C190.858 166.023 192.053 166.82 192.053 168.945C192.053 171.071 190.193 172.532 187.67 172.532C184.216 172.532 183.02 171.071 182.622 169.078C182.489 168.547 182.091 168.281 181.692 168.281H179.434C178.903 168.281 178.504 168.68 178.504 169.211V169.344C179.036 172.665 181.161 175.055 185.544 175.72V178.908C185.544 179.439 185.943 179.837 186.607 179.97H188.599C189.131 179.97 189.529 179.572 189.662 178.908V175.72C193.647 175.055 196.304 172.266 196.304 168.68Z" fill="white"/>
            <path d="M180.763 182.627C170.402 178.908 165.088 167.352 168.941 157.124C170.933 151.545 175.317 147.294 180.763 145.302C181.294 145.036 181.559 144.638 181.559 143.973V142.114C181.559 141.582 181.294 141.184 180.763 141.051C180.63 141.051 180.364 141.051 180.231 141.184C167.612 145.169 160.705 158.585 164.69 171.204C167.081 178.642 172.793 184.354 180.231 186.745C180.763 187.01 181.294 186.745 181.427 186.213C181.559 186.081 181.559 185.948 181.559 185.682V183.823C181.559 183.424 181.161 182.893 180.763 182.627ZM194.843 141.184C194.311 140.918 193.78 141.184 193.647 141.715C193.514 141.848 193.514 141.981 193.514 142.247V144.106C193.514 144.638 193.913 145.169 194.311 145.435C204.672 149.154 209.985 160.71 206.133 170.938C204.141 176.517 199.757 180.768 194.311 182.76C193.78 183.026 193.514 183.424 193.514 184.088V185.948C193.514 186.479 193.78 186.878 194.311 187.01C194.444 187.01 194.71 187.01 194.843 186.878C207.461 182.893 214.369 169.477 210.384 156.858C207.993 149.287 202.148 143.575 194.843 141.184Z" fill="white"/>
        </g>
        <path fill-rule="evenodd" clip-rule="evenodd" d="M254.536 103.336C258.199 95.3903 267.876 74.4795 279.566 54.7076C274.144 54.1307 269.538 54.5709 266.536 56.3496L266.536 56.348C259.515 51.845 252.663 49.8478 246.441 49.8466C235.937 63.3241 227.309 75.654 225.803 78.4445C229.29 89.5558 239.722 97.515 254.228 103.144L254.536 103.336ZM333.086 85.1408C331.885 81.6153 328.957 77.9864 324.943 74.5148C318.644 96.5091 310.238 117.831 307.056 126.058C320.743 133.1 333.934 134.445 344.544 130.005C345.493 126.951 348.519 112.418 351.165 95.7111C346.771 90.7822 340.674 87.0464 333.086 85.1408ZM345.797 32.9896L345.796 32.9896C346.289 38.4388 346.289 38.4371 345.797 32.9896ZM295.789 11.421C292.447 14.0445 292.448 14.0445 295.789 11.4209L295.789 11.421Z" fill="url(#paint1_linear_8159_139081)"/>
        <path fill-rule="evenodd" clip-rule="evenodd" d="M324.943 74.5136C313.659 64.7524 293.797 56.2233 279.566 54.7064C267.875 74.4804 258.198 95.3899 254.535 103.335C261.766 114.866 298.153 129.801 307.056 126.057C310.238 117.829 318.646 96.5027 324.943 74.5136ZM351.103 96.0977C348.504 112.44 345.557 126.627 344.579 129.889C351.878 128.801 357.007 126.099 359.054 121.743C360.226 119.033 360.116 115.891 358.886 112.464C357.984 106.215 355.383 100.489 351.262 95.821L351.164 95.7101L351.103 96.0977ZM228.955 56.2527C225.615 57.7016 223.25 59.7737 222.077 62.4828L222 62.6696L221.933 62.8353L221.871 63.0018L221.811 63.1677L221.755 63.3362L221.695 63.531L221.646 63.6983L221.599 63.8683L221.556 64.0346L221.521 64.1832L221.485 64.353L221.45 64.5212L221.441 64.5753C221.42 64.6825 221.401 64.7908 221.384 64.9004L221.359 65.0745L221.352 65.1282C221.334 65.2591 221.32 65.3907 221.307 65.5223L221.292 65.6977L221.287 65.7527C221.282 65.8484 221.276 65.9442 221.271 66.0397L221.263 66.2247L221.26 66.35C221.188 69.956 222.789 74.0681 225.802 78.4422C227.308 75.6531 235.937 63.3227 246.44 49.8455C239.674 49.8428 233.649 52.1985 228.955 56.2527Z" fill="url(#paint2_linear_8159_139081)"/>
        <path fill-rule="evenodd" clip-rule="evenodd" d="M254.125 18.1949C240.621 26.7032 229.349 39.3923 222.437 55.3677C220.905 58.9093 220.574 62.6067 221.259 66.3726C221.284 64.9992 221.552 63.697 222.078 62.4828C223.25 59.7737 225.615 57.7027 228.954 56.2522C229.195 55.2801 229.521 54.3119 229.936 53.354C235.543 40.3925 244.004 27.739 254.125 18.1949ZM369.728 69.9121C369.253 83.2776 365.69 97.3709 360.327 109.765C359.913 110.724 359.43 111.624 358.886 112.465C360.116 115.892 360.226 119.034 359.054 121.743C358.528 122.958 357.763 124.044 356.779 125.003C359.993 122.924 362.461 120.152 363.993 116.609C370.633 101.262 372.307 85.0574 369.728 69.9121ZM333.086 85.1406C355.806 32.0063 345.129 16.0082 326.902 8.12299C308.675 0.237796 289.705 3.40875 266.535 56.3478C280.218 48.2412 327.223 67.9384 333.086 85.1406Z" fill="url(#paint3_radial_8159_139081)"/>
        <path fill-rule="evenodd" clip-rule="evenodd" d="M342.39 21.0438C348.494 32.2227 347.673 51.0285 333.086 85.1388C347.891 88.8582 357.022 99.5426 358.886 112.465C359.43 111.624 359.913 110.723 360.328 109.765C374.354 77.3437 376.075 33.305 342.39 21.0438ZM306.88 5.681C275.841 -9.55032 243.962 20.9313 229.936 53.3529C229.521 54.3121 229.195 55.2793 228.955 56.2529C237.964 48.471 251.88 46.946 266.535 56.348C281.41 22.3608 294.554 8.88666 306.88 5.681Z" fill="white"/>
        <path fill-rule="evenodd" clip-rule="evenodd" d="M263.048 168.467L306.573 125.429C306.835 125.17 307.259 125.172 307.519 125.434C307.779 125.699 307.777 126.121 307.514 126.382L258.02 175.323L358.362 111.502C358.674 111.304 359.088 111.397 359.286 111.708C359.484 112.02 359.392 112.434 359.081 112.633L267.477 170.894L344.231 129.403C344.556 129.226 344.962 129.347 345.138 129.673C345.314 129.998 345.192 130.404 344.867 130.58L253.025 180.228L253.024 180.229L253.021 180.231L253.018 180.232L253.014 180.234L253.013 180.235L253.011 180.236L253.009 180.237L253.007 180.238L253.005 180.24L252.999 180.242L252.998 180.243L252.996 180.244L252.994 180.245L252.992 180.246L252.99 180.247L252.984 180.25L252.981 180.251L252.978 180.252L252.979 180.252L252.974 180.254L252.965 180.259L252.959 180.261L252.945 180.267L252.944 180.267L252.942 180.268L252.937 180.27L252.927 180.274L252.921 180.276L252.921 180.276L252.92 180.276L252.912 180.279L252.906 180.281L252.905 180.281L252.903 180.282L252.896 180.284L252.89 180.286L252.889 180.286L252.886 180.287L252.885 180.288L252.885 180.288L252.881 180.289L252.876 180.29L252.873 180.291L252.871 180.292L252.869 180.292L252.868 180.292L252.865 180.293L252.861 180.294L252.858 180.295L252.855 180.296L252.854 180.296L252.851 180.297L252.848 180.297L252.845 180.298L252.841 180.299L252.839 180.299L252.838 180.3L252.835 180.3L252.832 180.301L252.829 180.301L252.825 180.302L252.823 180.303L252.822 180.303L252.818 180.304L252.816 180.304L252.813 180.304L252.809 180.305L252.808 180.305L252.805 180.306L252.8 180.307L252.799 180.307L252.797 180.307L252.793 180.308L252.792 180.308L252.789 180.308L252.783 180.309L252.782 180.309L252.777 180.31L252.774 180.31L252.773 180.31L252.767 180.311L252.767 180.311L252.766 180.311L252.76 180.312L252.758 180.312L252.755 180.312L252.752 180.312L252.749 180.313L252.747 180.313L252.744 180.313L252.742 180.313L252.739 180.313L252.738 180.313L252.733 180.314L252.727 180.314L252.724 180.314L252.723 180.314L252.722 180.314C252.679 180.316 252.637 180.314 252.596 180.307L252.596 180.307L252.594 180.307L252.585 180.306L252.582 180.305L252.579 180.304L252.573 180.304L252.57 180.303L252.568 180.302L252.562 180.301L252.546 180.298C252.541 180.297 252.535 180.295 252.53 180.294L252.521 180.291L252.515 180.29L252.505 180.287L252.504 180.287L252.504 180.286L252.498 180.285L252.49 180.282L252.488 180.282L252.487 180.281L252.482 180.28L252.48 180.279L252.479 180.278L252.476 180.278L252.472 180.276L252.469 180.276L252.468 180.274L252.466 180.274L252.465 180.274L252.461 180.272L252.457 180.27L252.454 180.269L252.452 180.269L252.45 180.268L252.45 180.268L252.446 180.266L252.441 180.264L252.438 180.263L252.435 180.262L252.43 180.26L252.427 180.258L252.423 180.256L252.419 180.255L252.415 180.253L252.411 180.251L252.407 180.25L252.404 180.248L252.401 180.246L252.396 180.244L252.393 180.242L252.39 180.24L252.387 180.239L252.382 180.236L252.377 180.234L252.375 180.233L252.373 180.232L252.367 180.228L252.364 180.227C252.345 180.221 252.328 180.214 252.309 180.207L252.298 180.202L252.296 180.201L252.294 180.201L252.283 180.196L252.283 180.196C252.192 180.154 252.11 180.092 252.044 180.012L252.043 180.01L252.041 180.007L252.036 180.002L252.034 180L252.033 179.998L252.027 179.99L252.027 179.988C251.993 179.944 251.964 179.894 251.942 179.841L251.937 179.826C251.92 179.786 251.909 179.745 251.903 179.703L251.605 178.14L225.29 78.6428C225.196 78.2857 225.409 77.9184 225.766 77.8246C226.123 77.7294 226.489 77.9425 226.584 78.2994L248.078 159.571L228.43 56.1085C228.362 55.7458 228.599 55.3953 228.964 55.3271C229.326 55.2576 229.677 55.4968 229.746 55.8593L252.158 173.878L253.778 103.272C253.787 102.903 254.094 102.61 254.463 102.619C254.832 102.627 255.125 102.933 255.117 103.304L253.704 164.894L266.187 55.3899C266.229 55.0231 266.561 54.7585 266.928 54.8009C267.295 54.8419 267.559 55.1734 267.518 55.5417L253.61 177.531L333.001 83.8715C333.24 83.589 333.662 83.5544 333.944 83.7927C334.226 84.0325 334.261 84.4553 334.022 84.7363L263.048 168.467Z" fill="#F5A273"/>
        <g clip-path="url(#clip2_8159_139081)">
            <path d="M282.831 211.664L282.723 211.84C270.65 231.338 245.072 237.434 225.488 225.441C205.854 213.415 199.683 187.742 211.712 168.107L211.712 168.107C223.738 148.466 249.412 142.296 269.048 154.322L269.048 154.322C288.69 166.35 294.859 192.025 282.831 211.664Z" fill="#F7931A" stroke="#F2E9D9" stroke-width="1.24614"/>
            <path d="M266.89 189.739C269.387 184.619 266.206 180.442 261.218 176.753L265.326 170.046L261.242 167.547L257.243 174.077C256.17 173.419 255.06 172.769 253.956 172.123L257.983 165.55L253.902 163.051L249.794 169.755C248.9 169.232 248.021 168.717 247.175 168.199L247.187 168.177L241.557 164.727L238.887 169.088C238.887 169.088 241.938 170.877 241.854 170.901C243.507 171.914 243.457 173.204 243.107 174.129L238.428 181.769C238.541 181.84 238.687 181.935 238.842 182.062C238.705 181.979 238.561 181.889 238.41 181.799L231.853 192.502C231.462 192.978 230.648 193.62 229.491 192.914C229.515 192.993 226.523 191.096 226.523 191.096L222.726 195.475L228.039 198.729C229.027 199.336 229.99 199.948 230.942 200.539L226.789 207.323L230.867 209.822L234.978 203.11C236.083 203.819 237.161 204.491 238.22 205.139L234.127 211.818L238.21 214.318L242.359 207.547C249.464 211.357 255.327 212.571 259.871 206.49C263.532 201.596 262.508 197.785 259.185 194.463C262.291 194.708 265.071 193.491 266.892 189.741L266.891 189.739L266.89 189.739ZM252.295 200.745C249.192 205.816 240.865 199.923 238.096 198.231L243.602 189.244C246.369 190.94 255.533 195.458 252.295 200.745L252.295 200.745ZM258.162 186.902C255.336 191.513 248.426 186.541 246.121 185.13L251.114 176.979C253.419 178.391 261.108 182.092 258.162 186.902L258.162 186.902Z" fill="white"/>
        </g>
        <path fill-rule="evenodd" clip-rule="evenodd" d="M120.208 83.2954C115.845 74.2088 104.32 50.2966 90.4972 27.7326C96.7325 26.9702 102.046 27.394 105.536 29.3888L105.537 29.3869C113.543 24.0731 121.399 21.6489 128.567 21.5352C140.909 36.8702 151.07 50.917 152.855 54.1042C149.039 66.9661 137.167 76.3226 120.559 83.0685L120.208 83.2954ZM29.3974 63.7547C30.7177 59.672 34.0253 55.439 38.5864 51.3677C46.2384 76.589 56.3062 100.998 60.12 110.416C44.4817 118.776 29.3114 120.563 17.0096 115.64C15.8618 112.14 12.1136 95.4541 8.76425 76.257C13.7361 70.5001 20.6921 66.0868 29.3974 63.7547ZM13.8148 3.91167L13.8152 3.91173C13.3461 10.1975 13.3458 10.1955 13.8148 3.91167ZM71.0295 -21.8359C74.9254 -18.8743 74.9253 -18.8743 71.0289 -21.836L71.0295 -21.8359Z" fill="url(#paint4_linear_8159_139081)"/>
        <path fill-rule="evenodd" clip-rule="evenodd" d="M38.5866 51.3674C51.4076 39.9199 74.1328 29.7366 90.498 27.7323C104.322 50.2987 115.845 74.2095 120.208 83.2957C112.087 96.7087 70.4431 114.569 60.1207 110.416C56.3065 100.997 46.2366 76.5827 38.5866 51.3674ZM8.84228 76.7023C12.1315 95.4802 15.7817 111.768 16.9678 115.509C8.54009 114.387 2.58266 111.368 0.146932 106.386C-1.25213 103.285 -1.18287 99.6642 0.172583 95.6956C1.09826 88.4807 3.99173 81.8375 8.65419 76.3865L8.76473 76.2569L8.84228 76.7023ZM148.824 28.5997C152.697 30.2083 155.459 32.5525 156.859 35.6519L156.951 35.8657L157.031 36.0554L157.106 36.246L157.177 36.4361L157.245 36.6291L157.319 36.8524L157.378 37.0442L157.435 37.2392L157.487 37.43L157.53 37.6005L157.575 37.7955L157.618 37.9885L157.63 38.0508C157.656 38.1738 157.68 38.2983 157.701 38.4242L157.733 38.6243L157.742 38.6861C157.765 38.8365 157.783 38.9878 157.802 39.1392L157.821 39.3409L157.828 39.4042C157.836 39.5144 157.845 39.6246 157.852 39.7345L157.864 39.9474L157.87 40.0917C158.019 44.2442 156.248 49.0098 152.856 54.1026C151.071 50.9171 140.909 36.8696 128.567 21.535C136.361 21.4098 143.344 24.0145 148.824 28.5997Z" fill="url(#paint5_linear_8159_139081)"/>
        <path fill-rule="evenodd" clip-rule="evenodd" d="M119.143 -14.7854C134.852 -5.22847 148.066 9.18437 156.316 27.4615C158.145 31.5134 158.592 35.7664 157.871 40.1168C157.817 38.5352 157.486 37.0401 156.858 35.6509C155.459 32.5515 152.697 30.2086 148.825 28.5981C148.53 27.4827 148.137 26.3732 147.642 25.2773C140.949 10.4483 130.974 -3.97431 119.143 -14.7854ZM-13.0847 46.8746C-12.2966 62.2616 -7.93727 78.4312 -1.53659 92.6114C-1.04182 93.7077 -0.469729 94.7366 0.172418 95.6956C-1.1829 99.6644 -1.25211 103.286 0.146899 106.386C0.77402 107.775 1.67495 109.012 2.82588 110.099C-0.913425 107.762 -3.80667 104.614 -5.63603 100.561C-13.5613 83.0026 -15.782 64.3668 -13.0847 46.8746ZM29.398 63.7545C2.2669 2.95988 14.2773 -15.661 35.1302 -25.073C55.9834 -34.485 77.8926 -31.1749 105.537 29.3867C89.6292 20.2959 35.8405 43.8337 29.398 63.7545Z" fill="url(#paint6_radial_8159_139081)"/>
        <path fill-rule="evenodd" clip-rule="evenodd" d="M17.5233 -9.90979C10.6943 3.07738 11.9798 24.7248 29.3983 63.7527C12.412 68.3043 2.08693 80.7765 0.172672 95.695C-0.469517 94.736 -1.04164 93.707 -1.53649 92.6109C-18.2787 55.5188 -21.0563 4.82202 17.5233 -9.90979ZM58.1502 -28.2472C93.6287 -46.3524 130.9 -11.8166 147.642 25.2764C148.137 26.3738 148.53 27.4819 148.825 28.5992C138.306 19.7979 122.249 18.2925 105.537 29.3872C87.7896 -9.49378 72.4055 -24.7772 58.1502 -28.2472Z" fill="white"/>
        <path fill-rule="evenodd" clip-rule="evenodd" d="M111.579 158.473L60.6665 109.684C60.3593 109.39 59.8707 109.4 59.5763 109.707C59.2816 110.016 59.2922 110.503 59.5993 110.799L117.495 166.279L0.759485 94.5763C0.396721 94.3542 -0.07867 94.4685 -0.301355 94.8302C-0.52411 95.1935 -0.410478 95.668 -0.0479522 95.8918L106.522 161.349L17.3602 114.941C16.9827 114.743 16.5168 114.89 16.3201 115.269C16.1236 115.646 16.2707 116.112 16.6481 116.308L123.337 171.84L123.338 171.841L123.342 171.842L123.345 171.844L123.35 171.846L123.351 171.847L123.353 171.848L123.356 171.85L123.358 171.85L123.361 171.852L123.367 171.855L123.369 171.856L123.37 171.857L123.373 171.858L123.375 171.859L123.378 171.861L123.385 171.863L123.388 171.865L123.391 171.866L123.391 171.866L123.396 171.868L123.407 171.873L123.414 171.876L123.43 171.883L123.431 171.883L123.433 171.884L123.439 171.886L123.451 171.89L123.457 171.892L123.457 171.892L123.459 171.893L123.469 171.896L123.475 171.898L123.477 171.898L123.478 171.899L123.486 171.902L123.493 171.903L123.495 171.904L123.498 171.905L123.5 171.905L123.5 171.905L123.504 171.907L123.509 171.908L123.513 171.909L123.516 171.91L123.518 171.91L123.519 171.911L123.523 171.911L123.528 171.913L123.531 171.913L123.534 171.914L123.536 171.914L123.539 171.915L123.542 171.916L123.546 171.916L123.551 171.918L123.552 171.918L123.554 171.918L123.557 171.919L123.561 171.92L123.564 171.92L123.569 171.921L123.571 171.921L123.572 171.922L123.577 171.923L123.579 171.923L123.582 171.923L123.587 171.924L123.589 171.924L123.592 171.925L123.597 171.926L123.599 171.926L123.601 171.926L123.606 171.927L123.607 171.927L123.611 171.927L123.617 171.928L123.619 171.928L123.624 171.929L123.627 171.929L123.629 171.929L123.636 171.93L123.636 171.93L123.637 171.93L123.644 171.931L123.646 171.931L123.649 171.931L123.653 171.931L123.656 171.932L123.659 171.932L123.663 171.932L123.664 171.932L123.668 171.932L123.669 171.932L123.675 171.933L123.681 171.933L123.685 171.933L123.686 171.933L123.688 171.933C123.737 171.934 123.786 171.931 123.833 171.923L123.833 171.923L123.834 171.922L123.845 171.921L123.848 171.92L123.852 171.919L123.859 171.918L123.862 171.917L123.864 171.916L123.871 171.915L123.891 171.911C123.896 171.909 123.903 171.908 123.908 171.906L123.919 171.903L123.926 171.901L123.937 171.898L123.939 171.897L123.939 171.897L123.946 171.895L123.955 171.892L123.956 171.891L123.958 171.891L123.964 171.889L123.965 171.888L123.967 171.887L123.971 171.886L123.974 171.885L123.978 171.884L123.98 171.882L123.982 171.882L123.983 171.882L123.987 171.88L123.992 171.878L123.996 171.877L123.998 171.875L124 171.875L124 171.875L124.005 171.872L124.01 171.87L124.014 171.869L124.018 171.867L124.023 171.865L124.027 171.863L124.031 171.861L124.036 171.859L124.04 171.857L124.045 171.855L124.049 171.853L124.052 171.851L124.056 171.849L124.062 171.846L124.065 171.844L124.069 171.842L124.073 171.84L124.078 171.837L124.084 171.834L124.086 171.833L124.088 171.831L124.095 171.828L124.099 171.826C124.12 171.819 124.14 171.811 124.162 171.802L124.174 171.796L124.176 171.795L124.178 171.795L124.191 171.789L124.191 171.788C124.295 171.739 124.389 171.666 124.464 171.572L124.464 171.571L124.466 171.567L124.472 171.561L124.474 171.559L124.476 171.556L124.483 171.547L124.483 171.545C124.521 171.493 124.553 171.436 124.577 171.374L124.583 171.357C124.602 171.31 124.613 171.262 124.62 171.214L124.934 169.409L153.45 54.3233C153.552 53.9102 153.3 53.491 152.887 53.3894C152.474 53.2862 152.057 53.5382 151.953 53.951L128.662 147.955L149.427 28.4229C149.499 28.0039 149.219 27.6044 148.798 27.5324C148.379 27.459 147.98 27.7408 147.906 28.1596L124.221 164.509L121.08 83.2077C121.063 82.7829 120.705 82.4506 120.279 82.4682C119.854 82.4841 119.522 82.8421 119.538 83.2685L122.278 154.188L105.921 28.2769C105.866 27.8551 105.479 27.5563 105.057 27.6118C104.635 27.6656 104.337 28.0523 104.392 28.4757L122.614 168.743L29.4738 62.2909C29.1936 61.9698 28.706 61.9377 28.3858 62.2173C28.0654 62.4985 28.0329 62.9862 28.3133 63.3056L111.579 158.473Z" fill="#F5A273"/>
        <g clip-path="url(#clip3_8159_139081)">
            <circle cx="121.389" cy="178.412" r="43.4502" transform="rotate(-19.2943 121.389 178.412)" fill="white"/>
            <circle cx="121.389" cy="178.412" r="42.4502" transform="rotate(-19.2943 121.389 178.412)" stroke="url(#paint7_linear_8159_139081)" stroke-opacity="0.6" stroke-width="2"/>
            <path d="M130.902 160.504C127.845 161.574 125.05 164.275 122.586 168.529C121.416 170.546 120.51 172.585 119.858 174.191C119.858 174.191 119.858 174.191 119.871 174.197L119.867 174.188C119.867 174.188 122.214 175.412 124.787 176.703C125.389 175.167 126.288 173.047 127.46 171.008C129.652 167.224 131.495 165.943 132.662 165.534C137.058 163.995 141.822 166.158 143.29 170.351C144.748 174.516 142.364 179.181 137.988 180.745C137.788 180.814 137.522 180.876 137.176 180.924C138.647 181.015 140.16 180.923 141.47 180.465C149.52 177.647 149.296 171.953 149.27 171.545C149.179 170.523 148.957 169.494 148.603 168.48C146.168 161.526 138.221 157.942 130.902 160.504Z" fill="url(#paint8_linear_8159_139081)"/>
            <path d="M111.637 195.637C114.694 194.567 117.489 191.866 119.953 187.612C121.123 185.595 122.029 183.556 122.681 181.95C122.681 181.95 122.681 181.95 122.668 181.944L122.671 181.953C122.671 181.953 120.325 180.729 117.752 179.438C117.15 180.974 116.251 183.094 115.078 185.133C112.886 188.917 111.044 190.198 109.876 190.607C105.478 192.137 100.714 189.974 99.2457 185.781C97.7875 181.615 100.172 176.95 104.548 175.387C104.747 175.317 105.013 175.255 105.359 175.208C103.889 175.117 102.375 175.208 101.065 175.667C93.0151 178.485 93.2488 184.175 93.2618 184.578C93.3564 185.609 93.5748 186.628 93.9296 187.642C96.3708 194.615 104.318 198.199 111.637 195.637Z" fill="url(#paint9_linear_8159_139081)"/>
            <path d="M141.414 180.359C137.258 181.699 131.864 180.018 130.714 179.534C127.738 178.279 120.59 174.572 120.029 174.278C114.744 171.42 107.93 168.546 102.785 170.347L102.775 170.35L102.766 170.354C96.5292 172.568 92.7312 178.553 93.2629 184.577C93.2404 184.178 93.4646 178.213 101.086 175.753C105.242 174.413 110.672 176.134 111.831 176.615C114.807 177.869 121.955 181.577 122.517 181.871C127.797 184.719 134.612 187.594 139.757 185.792L139.766 185.789L139.776 185.786C146.013 183.571 149.82 177.583 149.279 171.563C149.292 171.965 149.042 177.887 141.414 180.359Z" fill="#29ABE2"/>
        </g>
        <path d="M233.813 146.337C233.991 146.236 234.199 146.407 234.135 146.601L233.129 149.639C232.561 151.354 232.711 153.226 233.544 154.829L234.926 157.49C235.027 157.683 234.819 157.891 234.625 157.791L232.55 156.713C230.612 155.705 228.304 155.707 226.367 156.718L224.222 157.837C224.039 157.933 223.835 157.749 223.912 157.557L224.95 154.965C225.736 153.003 225.549 150.785 224.446 148.982L223.046 146.693C222.93 146.504 223.132 146.28 223.332 146.375L225.844 147.57C227.811 148.506 230.112 148.426 232.01 147.355L233.813 146.337Z" fill="white"/>
        <path opacity="0.16" d="M190.66 51.6079C190.971 51.3148 191.48 51.5583 191.446 51.9844L190.925 58.668C190.631 62.4412 191.875 66.1731 194.373 69.0157L198.521 73.7335C198.822 74.0765 198.503 74.6038 198.06 74.4965L193.298 73.3448C188.85 72.269 184.157 73.4313 180.725 76.4587L176.924 79.8113C176.599 80.0983 176.092 79.8257 176.152 79.3959L176.963 73.6034C177.577 69.2191 176.085 64.8025 172.937 61.6894L168.94 57.7362C168.61 57.4092 168.907 56.8526 169.363 56.946L175.07 58.1157C179.542 59.0323 184.181 57.7144 187.503 54.5832L190.66 51.6079Z" fill="#FB9458"/>
        <path opacity="0.15" d="M11.1918 141.236C11.144 141.05 11.3496 140.903 11.5096 141.009L14.0199 142.659C15.437 143.59 17.1705 143.909 18.8265 143.543L21.5749 142.936C21.7747 142.892 21.9127 143.131 21.7746 143.282L20.2928 144.902C18.9086 146.415 18.3497 148.508 18.7955 150.51L19.2893 152.726C19.3316 152.916 19.1149 153.056 18.9593 152.939L16.8615 151.368C15.2736 150.179 13.2176 149.81 11.3151 150.372L8.89928 151.085C8.69947 151.144 8.5454 150.907 8.68055 150.748L10.3739 148.762C11.7009 147.205 12.1869 145.099 11.6766 143.118L11.1918 141.236Z" fill="#FB9458"/>
    </g>
    <defs>
        <linearGradient id="paint0_linear_8159_139081" x1="73.9453" y1="249" x2="73.9453" y2="44.2585" gradientUnits="userSpaceOnUse">
            <stop stop-color="#FCA43D" stop-opacity="0"/>
            <stop offset="1" stop-color="#F58859"/>
        </linearGradient>
        <linearGradient id="paint1_linear_8159_139081" x1="298.902" y1="138.18" x2="279.181" y2="14.0597" gradientUnits="userSpaceOnUse">
            <stop stop-color="#CC3F03"/>
            <stop offset="1" stop-color="#F66020"/>
        </linearGradient>
        <linearGradient id="paint2_linear_8159_139081" x1="294.74" y1="53.8747" x2="270.149" y2="115.844" gradientUnits="userSpaceOnUse">
            <stop stop-color="#F8EED3"/>
            <stop offset="1" stop-color="white"/>
        </linearGradient>
        <radialGradient id="paint3_radial_8159_139081" cx="0" cy="0" r="1" gradientUnits="userSpaceOnUse" gradientTransform="translate(317.861 29.4715) rotate(167.316) scale(81.4186 69.4355)">
            <stop stop-color="#FFB358"/>
            <stop offset="0.684529" stop-color="#FF5C00"/>
            <stop offset="1" stop-color="#F7841A"/>
        </radialGradient>
        <linearGradient id="paint4_linear_8159_139081" x1="69.7318" y1="124.233" x2="90.2071" y2="-19.0963" gradientUnits="userSpaceOnUse">
            <stop stop-color="#CC3F03"/>
            <stop offset="1" stop-color="#F66020"/>
        </linearGradient>
        <linearGradient id="paint5_linear_8159_139081" x1="73.0043" y1="27.0483" x2="102.449" y2="97.9857" gradientUnits="userSpaceOnUse">
            <stop stop-color="#F8EED3"/>
            <stop offset="1" stop-color="white"/>
        </linearGradient>
        <radialGradient id="paint6_radial_8159_139081" cx="0" cy="0" r="1" gradientUnits="userSpaceOnUse" gradientTransform="translate(45.9301 -0.645146) rotate(11.7864) scale(93.7969 79.9919)">
            <stop stop-color="#FFB358"/>
            <stop offset="0.684529" stop-color="#FF5C00"/>
            <stop offset="1" stop-color="#F7841A"/>
        </radialGradient>
        <linearGradient id="paint7_linear_8159_139081" x1="143.309" y1="137.562" x2="83.3752" y2="201.103" gradientUnits="userSpaceOnUse">
            <stop stop-color="#F5A273"/>
            <stop offset="1" stop-color="#F5A273" stop-opacity="0.2"/>
        </linearGradient>
        <linearGradient id="paint8_linear_8159_139081" x1="124.572" y1="164.592" x2="148.78" y2="177.087" gradientUnits="userSpaceOnUse">
            <stop offset="0.21" stop-color="#F15A24"/>
            <stop offset="0.6841" stop-color="#FBB03B"/>
        </linearGradient>
        <linearGradient id="paint9_linear_8159_139081" x1="117.967" y1="191.549" x2="93.7587" y2="179.054" gradientUnits="userSpaceOnUse">
            <stop offset="0.21" stop-color="#ED1E79"/>
            <stop offset="0.8929" stop-color="#522785"/>
        </linearGradient>
        <clipPath id="clip0_8159_139081">
            <rect width="361" height="249" rx="12" fill="white"/>
        </clipPath>
        <clipPath id="clip1_8159_139081">
            <rect width="63.7587" height="63.7587" fill="white" transform="translate(155.593 132.019)"/>
        </clipPath>
        <clipPath id="clip2_8159_139081">
            <path d="M206.896 177.164C213.921 154.865 237.692 142.482 259.991 149.507C282.29 156.531 294.673 180.303 287.648 202.602C280.623 224.901 256.852 237.284 234.553 230.259C212.254 223.234 199.871 199.463 206.896 177.164Z" fill="white"/>
        </clipPath>
        <clipPath id="clip3_8159_139081">
            <path d="M80.3788 192.769C72.4497 170.119 84.3827 145.331 107.032 137.402C129.681 129.473 154.469 141.406 162.398 164.055C170.327 186.704 158.394 211.492 135.745 219.421C113.096 227.35 88.3079 215.418 80.3788 192.769Z" fill="white"/>
        </clipPath>
    </defs>
</svg>
