<svg xmlns="http://www.w3.org/2000/svg" width="361" height="249" fill="none" xmlns:v="https://vecta.io/nano"><g clip-path="url(#K)"><rect x=".005" width="361" height="249" rx="12" fill="url(#A)" fill-opacity=".7"/><g opacity=".64" fill="#fff"><path opacity=".6" d="M217.307 416.242l-615.542-283.693 52.252-99.071 579.818 376.27-16.528 6.494z"/><path opacity=".6" d="M143.703 416.242l615.543-283.693-52.252-99.071-579.819 376.27 16.528 6.494z"/><path opacity=".6" d="M178.783 407.614l77.035-566.975-153.626.848 76.591 588.428v-22.301z"/><path opacity=".6" d="M187.264 377.27L-191-2 8.505-141.955l195.959 523.641-17.2-4.416z"/><path opacity=".6" d="M167.551 375.447L628-52.5l-274.497-88.745-203.212 520.869 17.26-4.177z"/></g><g clip-path="url(#L)"><circle cx="187.477" cy="163.898" r="31.879" fill="#2775ca"/><g fill="#fff"><path d="M196.309 168.68c0-4.649-2.789-6.243-8.368-6.907-3.985-.532-4.782-1.594-4.782-3.454s1.328-3.055 3.985-3.055c2.391 0 3.719.797 4.383 2.789a1 1 0 0 0 .93.664h2.125c.531 0 .93-.398.93-.929v-.133c-.531-2.923-2.922-5.181-5.977-5.446v-3.188c0-.532-.399-.93-1.063-1.063h-1.992c-.532 0-.93.398-1.063 1.063v3.055c-3.985.531-6.509 3.188-6.509 6.509 0 4.383 2.657 6.11 8.236 6.774 3.719.664 4.914 1.461 4.914 3.586s-1.859 3.587-4.383 3.587c-3.454 0-4.649-1.461-5.048-3.454-.132-.531-.531-.797-.929-.797h-2.259c-.531 0-.929.399-.929.93v.133c.531 3.321 2.656 5.711 7.04 6.376v3.188c0 .531.398.929 1.062 1.062h1.993c.531 0 .93-.398 1.063-1.062v-3.188c3.984-.665 6.641-3.454 6.641-7.04zm-15.541 13.947c-10.361-3.72-15.674-15.276-11.822-25.504 1.993-5.579 6.376-9.829 11.822-11.822.531-.265.797-.664.797-1.328v-1.86c0-.531-.266-.93-.797-1.062-.133 0-.399 0-.532.132-12.618 3.985-19.526 17.401-15.541 30.02 2.391 7.439 8.103 13.15 15.541 15.541.532.266 1.063 0 1.196-.531.133-.133.133-.266.133-.531v-1.86c0-.398-.399-.93-.797-1.195zm14.08-41.444c-.531-.265-1.063 0-1.195.532-.133.133-.133.265-.133.531v1.86c0 .531.398 1.062.797 1.328 10.36 3.719 15.674 15.275 11.821 25.504-1.992 5.579-6.375 9.829-11.821 11.821-.532.266-.797.665-.797 1.329v1.859c0 .532.265.93.797 1.063.133 0 .398 0 .531-.133 12.619-3.985 19.526-17.401 15.541-30.019-2.391-7.572-8.236-13.284-15.541-15.675z"/></g></g><g fill-rule="evenodd"><path d="M254.541 103.336c3.663-7.946 13.341-28.856 25.031-48.628-5.422-.577-10.029-.137-13.031 1.642v-.002c-7.021-4.503-13.873-6.5-20.095-6.501-10.503 13.478-19.132 25.807-20.638 28.598 3.488 11.111 13.919 19.07 28.425 24.7l.308.192zm78.551-18.195c-1.202-3.525-4.13-7.154-8.144-10.626-6.298 21.994-14.704 43.316-17.886 51.543 13.686 7.042 26.877 8.387 37.487 3.947.949-3.054 3.975-17.587 6.621-34.294-4.394-4.929-10.491-8.665-18.078-10.57zm12.71-52.151h0c.493 5.449.493 5.447 0 0zm-50.008-21.569c-3.341 2.624-3.341 2.624 0 0h0z" fill="url(#B)"/><path d="M324.948 74.513c-11.284-9.761-31.146-18.29-45.377-19.807-11.691 19.774-21.367 40.683-25.03 48.629 7.231 11.531 43.618 26.466 52.52 22.721 3.183-8.227 11.59-29.554 17.887-51.543zm26.16 21.584c-2.599 16.343-5.545 30.529-6.524 33.792 7.299-1.089 12.429-3.79 14.475-8.146 1.172-2.711 1.063-5.853-.168-9.279-.901-6.249-3.503-11.976-7.624-16.643l-.097-.111-.062.388zM228.961 56.252c-3.341 1.449-5.706 3.521-6.878 6.23l-.077.187-.067.166-.063.166-.059.166-.056.168-.061.195-.049.167-.046.17-.043.166-.035.149-.037.17-.035.168-.009.054c-.021.107-.04.216-.057.325l-.025.174-.006.054c-.019.131-.032.262-.046.394l-.014.175-.005.055-.016.287-.009.185-.002.125c-.073 3.606 1.529 7.718 4.542 12.092 1.506-2.789 10.134-15.119 20.638-28.597-6.767-.003-12.792 2.353-17.485 6.407z" fill="url(#C)"/><path d="M254.131 18.195c-13.504 8.508-24.777 21.197-31.688 37.173-1.533 3.542-1.863 7.239-1.178 11.005.025-1.373.292-2.676.818-3.89 1.172-2.709 3.538-4.78 6.877-6.231.24-.972.566-1.94.981-2.898 5.608-12.961 14.069-25.615 24.19-35.159zm115.602 51.717c-.474 13.366-4.038 27.459-9.4 39.853-.415.959-.897 1.859-1.442 2.7 1.231 3.427 1.34 6.569.168 9.278-.525 1.215-1.291 2.301-2.275 3.26 3.214-2.079 5.682-4.851 7.215-8.394 6.64-15.347 8.313-31.552 5.734-46.697zm-36.642 15.229c22.721-53.134 12.043-69.132-6.183-77.018S289.71 3.409 266.54 56.348c13.684-8.107 60.689 11.591 66.551 28.793z" fill="url(#D)"/><path d="M342.396 21.043c6.103 11.179 5.282 29.985-9.305 64.095 14.805 3.719 23.936 14.404 25.8 27.326.545-.841 1.027-1.742 1.442-2.7 14.026-32.421 15.747-76.46-17.937-88.721zM306.885 5.68c-31.039-15.231-62.918 15.25-76.944 47.672a18.46 18.46 0 0 0-.981 2.9c9.01-7.782 22.926-9.307 37.581.095C281.416 22.36 294.56 8.886 306.885 5.68z" fill="#fff"/><path d="M263.054 168.467l43.524-43.038a.67.67 0 0 1 .947.005.67.67 0 0 1-.006.948l-49.494 48.941 100.342-63.821a.67.67 0 1 1 .719 1.131l-91.604 58.261 76.754-41.491c.325-.177.731-.056.907.27a.67.67 0 0 1-.27.907l-91.843 49.648-.001.001-.003.002-.002.001-.004.002-.002.001-.001.001-.003.001-.001.001-.003.002-.006.002-.001.001-.001.001-.003.001-.001.001-.003.001-.006.003-.002.001-.003.001h0l-.004.002-.01.005-.006.002-.013.006h-.002l-.001.001-.006.002-.01.004-.005.002h0-.002l-.008.003-.006.002h-.001l-.001.001-.008.002-.005.002h-.002l-.002.001-.002.001h0l-.004.001-.004.001-.003.001-.003.001h-.001-.002l-.003.001-.004.001-.003.001-.003.001h-.001l-.003.001h-.003l-.003.001-.004.001h-.001l-.002.001h-.003l-.003.001h-.002l-.005.001-.001.001h-.002l-.004.001h-.001-.003l-.005.001h-.001l-.003.001-.004.001h-.002-.001l-.004.001h-.002-.003l-.006.001h-.001l-.004.001h-.003-.002l-.006.001h0-.001l-.006.001h-.001-.003-.003l-.003.001h-.003-.003-.001-.003-.002l-.004.001h-.006-.003-.002-.001c-.043.002-.085 0-.126-.007h0-.001l-.009-.001-.003-.001-.003-.001h-.007l-.003-.001-.001-.001-.006-.001-.017-.003-.025-.007-.006-.001-.009-.003h-.002v-.001l-.006-.001-.008-.003h-.001l-.002-.001-.005-.001-.001-.001-.002-.001h-.003l-.003-.002h-.003l-.002-.002h-.001-.002l-.003-.002-.005-.002-.003-.001h-.002l-.001-.001h0l-.005-.002-.005-.002-.003-.001-.003-.001-.005-.002-.003-.002-.003-.002-.005-.001-.003-.002-.005-.002-.003-.001-.003-.002-.004-.002-.004-.002-.004-.002-.003-.002-.003-.001-.005-.003-.005-.002-.001-.001-.002-.001-.007-.004-.003-.001-.055-.02-.011-.005-.002-.001h-.001l-.011-.005h0a.68.68 0 0 1-.24-.184v-.002l-.002-.003-.005-.005-.002-.002-.002-.002-.006-.008v-.002c-.034-.044-.062-.094-.084-.147l-.006-.015a.59.59 0 0 1-.034-.123l-.297-1.563-26.315-99.497a.67.67 0 0 1 .476-.818.67.67 0 0 1 .818.475l21.494 81.272-19.649-103.462a.67.67 0 1 1 1.317-.249l22.412 118.019 1.62-70.606a.67.67 0 0 1 .685-.653.67.67 0 0 1 .653.685l-1.413 61.59L266.193 55.39a.67.67 0 0 1 .741-.589.67.67 0 0 1 .589.741l-13.907 121.989 79.39-93.66a.67.67 0 0 1 .943-.079.67.67 0 0 1 .078.944l-70.973 83.731z" fill="#f5a273"/></g><g clip-path="url(#M)"><path d="M282.836 211.663l-.108.176c-12.072 19.498-37.651 25.595-57.234 13.601-19.634-12.025-25.806-37.698-13.776-57.333v-.001c12.025-19.64 37.699-25.811 57.336-13.785h0c19.641 12.028 25.811 37.703 13.782 57.342z" fill="#f7931a" stroke="#f2e9d9" stroke-width="1.246"/><path d="M266.896 189.739c2.496-5.12-.685-9.297-5.673-12.986l4.108-6.707-4.083-2.5-3.999 6.53-3.287-1.954 4.026-6.573-4.08-2.499-4.108 6.704-2.62-1.556.012-.021-5.63-3.451-2.669 4.361s3.05 1.789 2.966 1.814c1.653 1.013 1.604 2.303 1.253 3.227l-4.679 7.641a3.63 3.63 0 0 1 .414.293l-.432-.264-6.557 10.703c-.391.476-1.205 1.119-2.362.413.024.078-2.967-1.818-2.967-1.818l-3.798 4.378 5.314 3.254 2.902 1.811-4.153 6.784 4.079 2.498 4.11-6.712 3.243 2.029-4.094 6.679 4.084 2.5 4.148-6.77c7.105 3.81 12.969 5.023 17.513-1.057 3.66-4.895 2.637-8.706-.687-12.027 3.106.244 5.887-.973 7.707-4.723l-.001-.001h0zM252.3 200.745c-3.102 5.07-11.43-.823-14.199-2.515l5.506-8.986c2.767 1.696 11.932 6.214 8.693 11.501h0zm5.867-13.843c-2.825 4.611-9.735-.361-12.04-1.772l4.992-8.151c2.305 1.411 9.994 5.113 7.049 9.923h-.001z" fill="#fff"/></g><g fill-rule="evenodd"><path d="M120.213 83.295c-4.363-9.087-15.888-32.999-29.71-55.563 6.235-.762 11.55-.339 15.04 1.656v-.002c8.006-5.314 15.863-7.738 23.03-7.852 12.342 15.335 22.504 29.382 24.289 32.569-3.817 12.862-15.689 22.218-32.296 28.964l-.352.227zm-90.81-19.541c1.32-4.083 4.628-8.316 9.189-12.387 7.652 25.221 17.72 49.63 21.534 59.048-15.638 8.36-30.809 10.147-43.11 5.224-1.148-3.5-4.896-20.186-8.245-39.383 4.972-5.757 11.928-10.17 20.633-12.502zM13.82 3.912h0c-.469 6.286-.469 6.284 0 0zm57.215-25.748c3.896 2.962 3.896 2.962-.001 0h.001z" fill="url(#E)"/><path d="M38.592 51.367c12.821-11.447 35.546-21.631 51.912-23.635 13.824 22.566 25.348 46.477 29.711 55.563-8.121 13.413-49.765 31.273-60.088 27.121-3.814-9.42-13.884-33.834-21.534-59.049zM8.848 76.702c3.289 18.778 6.939 35.066 8.125 38.806-8.428-1.122-14.385-4.141-16.821-9.122-1.399-3.101-1.33-6.722.026-10.691.926-7.215 3.819-13.858 8.482-19.309l.111-.129.078.445zm139.981-48.103c3.874 1.609 6.635 3.953 8.035 7.052l.092.214.081.19.074.191.072.19.067.193.074.223.059.192.057.195.052.191.043.171.045.195.044.193.012.062.071.373.032.2.008.062c.024.15.042.302.06.453l.02.202.006.063.024.33.013.213.005.144c.149 4.152-1.622 8.918-5.013 14.011-1.786-3.186-11.947-17.233-24.289-32.568 7.794-.125 14.777 2.479 20.256 7.065z" fill="url(#F)"/><path d="M119.149-14.786c15.708 9.557 28.922 23.97 37.172 42.247 1.829 4.052 2.277 8.305 1.555 12.655-.053-1.582-.385-3.077-1.012-4.466-1.399-3.099-4.162-5.442-8.034-7.053-.295-1.115-.688-2.225-1.183-3.321-6.693-14.829-16.668-29.252-28.498-40.063zm-132.228 61.66c.788 15.387 5.147 31.557 11.548 45.737.495 1.096 1.067 2.125 1.709 3.084-1.355 3.969-1.425 7.59-.026 10.69.627 1.389 1.528 2.626 2.679 3.713-3.739-2.337-6.633-5.485-8.462-9.538-7.925-17.558-10.146-36.194-7.449-53.686zm42.483 16.88C2.272 2.959 14.283-15.662 35.136-25.074s42.762-6.102 70.407 54.46c-15.908-9.091-69.697 14.447-76.14 34.368z" fill="url(#G)"/><path d="M17.529-9.911C10.7 3.076 11.985 24.724 29.404 63.752 12.417 68.303 2.092 80.776.178 95.694a21.26 21.26 0 0 1-1.709-3.084C-18.273 55.518-21.051 4.821 17.529-9.911zm40.627-18.337c35.478-18.105 72.75 16.431 89.492 53.524a21.29 21.29 0 0 1 1.182 3.323c-10.518-8.801-26.576-10.307-43.287.788C87.795-9.495 72.411-24.778 58.156-28.248z" fill="#fff"/><path d="M111.584 158.473l-50.912-48.789a.77.77 0 0 0-1.09.023c-.295.309-.284.796.023 1.092l57.896 55.48L.765 94.576c-.363-.222-.838-.108-1.061.254s-.109.838.253 1.062l106.57 65.457-89.161-46.408a.77.77 0 1 0-.712 1.367l106.689 55.532.002.001.003.001.003.002.005.002.002.001.001.001.003.002h.002l.003.002.006.003.002.001.002.001.003.001.001.001.004.002.006.002.003.002.003.001h0l.005.002.011.005.007.003.016.007h.002l.001.001.007.002.011.004.007.002h0l.001.001.01.003.006.002h.002l.002.001.008.003.006.001.002.001.003.001h.002 0l.005.002.005.001.003.001.003.001h.002l.002.001h.003l.005.002h.003l.003.001h.002l.003.001.004.001h.003l.005.002h.002.001l.004.001.003.001h.003l.005.001h.002l.002.001.005.001h.001.004l.005.001h.001l.004.001.005.001h.001.002l.005.001h.002.003l.007.001h.001l.005.001h.004.001l.007.001h0 .002l.006.001h.002.004.003l.003.001h.004.003.002.003.002l.005.001h.007.003.002.001a.77.77 0 0 0 .145-.01h0l.002-.001.01-.001.004-.001.003-.001.007-.001.004-.001.002-.001.007-.001.019-.004.028-.008.007-.002.011-.003.002-.001h0l.007-.002.009-.003.002-.001h.002l.005-.002.002-.001.002-.001.003-.001.004-.001.003-.001.002-.002h.002.002l.003-.002.006-.002.003-.001.002-.002h.002 0l.005-.003.006-.002.003-.001.004-.002.006-.002.003-.002.004-.002.005-.002.004-.002.005-.002.004-.002.004-.002.004-.002.005-.003.004-.002.003-.002.004-.002.006-.003.005-.003.002-.001.002-.002.007-.003.004-.002.063-.024.013-.006.002-.001h.001l.013-.006v-.001a.77.77 0 0 0 .273-.216v-.001l.002-.004.006-.006.002-.002.002-.003.007-.009v-.002c.038-.052.07-.109.094-.171l.006-.017a.62.62 0 0 0 .038-.143l.314-1.805 28.516-115.086c.101-.413-.151-.832-.564-.934a.77.77 0 0 0-.933.562l-23.292 94.004 20.766-119.532a.77.77 0 1 0-1.521-.263l-23.686 136.349-3.141-81.301a.77.77 0 1 0-1.541.061l2.739 70.919-16.356-125.911a.77.77 0 1 0-1.53.199l18.223 140.267L29.479 62.291a.77.77 0 1 0-1.16 1.015l83.265 95.167z" fill="#f5a273"/></g><g clip-path="url(#N)"><g transform="rotate(340.706 121.394 178.412)"><circle cx="121.394" cy="178.412" r="43.45" fill="#fff"/><circle cx="121.394" cy="178.412" r="42.45" stroke="url(#H)" stroke-opacity=".6" stroke-width="2"/></g><path d="M130.906 160.504c-3.056 1.07-5.851 3.771-8.315 8.025-1.17 2.017-2.076 4.056-2.728 5.662l.009-.003 4.919 2.515c.603-1.536 1.502-3.656 2.674-5.695 2.192-3.784 4.035-5.065 5.202-5.474 4.396-1.539 9.16.624 10.628 4.817 1.458 4.165-.926 8.83-5.303 10.394-.199.069-.465.131-.811.179 1.471.091 2.984-.001 4.294-.459 8.05-2.818 7.826-8.512 7.8-8.92-.091-1.022-.313-2.051-.667-3.065-2.435-6.954-10.382-10.538-17.702-7.976z" fill="url(#I)"/><path d="M111.642 195.638c3.057-1.071 5.852-3.771 8.316-8.026 1.17-2.017 2.075-4.056 2.728-5.662l-.01.003-4.919-2.515c-.602 1.537-1.501 3.657-2.674 5.695-2.192 3.784-4.034 5.066-5.202 5.475-4.398 1.529-9.162-.634-10.63-4.827-1.458-4.165.926-8.83 5.302-10.393.199-.07.465-.132.811-.18-1.471-.091-2.984.001-4.294.459-8.05 2.819-7.816 8.509-7.803 8.911a12.75 12.75 0 0 0 .668 3.064c2.441 6.974 10.388 10.558 17.707 7.996z" fill="url(#J)"/><path d="M141.42 180.36c-4.156 1.34-9.551-.341-10.701-.825-2.975-1.255-10.124-4.962-10.685-5.256-5.284-2.858-12.098-5.732-17.244-3.931l-.009.003-.01.004c-6.236 2.214-10.034 8.199-9.503 14.223-.023-.399.202-6.364 7.824-8.824 4.155-1.34 9.585.381 10.745.862 2.975 1.254 10.124 4.962 10.685 5.256 5.281 2.848 12.095 5.723 17.24 3.921l.01-.003.009-.003c6.237-2.215 10.044-8.203 9.503-14.223.013.402-.237 6.324-7.864 8.796z" fill="#29abe2"/></g><path d="M233.818 146.337c.178-.101.386.07.322.264l-1.006 3.038c-.568 1.715-.418 3.587.415 5.19l1.382 2.661c.101.193-.107.401-.301.301l-2.075-1.078a6.69 6.69 0 0 0-6.183.005l-2.145 1.119c-.184.096-.387-.088-.31-.28l1.038-2.592c.786-1.962.599-4.18-.504-5.983l-1.4-2.289c-.116-.189.086-.413.286-.318l2.511 1.195c1.968.936 4.269.856 6.167-.215l1.803-1.018z" fill="#fff"/><g fill="#fb9458"><path opacity=".16" d="M190.665 51.608a.47.47 0 0 1 .787.377l-.521 6.684a14.02 14.02 0 0 0 3.448 10.348l4.147 4.718a.47.47 0 0 1-.461.763l-4.762-1.152c-4.448-1.076-9.141.086-12.573 3.114l-3.8 3.353a.47.47 0 0 1-.772-.415l.811-5.793c.613-4.384-.879-8.801-4.027-11.914l-3.996-3.953a.47.47 0 0 1 .422-.79l5.707 1.17c4.472.917 9.111-.401 12.433-3.532l3.157-2.975z"/><path opacity=".15" d="M11.197 141.236a.21.21 0 0 1 .318-.227l2.51 1.65c1.417.931 3.151 1.25 4.807.884l2.748-.607a.21.21 0 0 1 .2.346l-1.482 1.62c-1.384 1.513-1.943 3.606-1.497 5.608l.494 2.216a.21.21 0 0 1-.33.213l-2.098-1.571c-1.588-1.189-3.644-1.558-5.546-.996l-2.416.713a.21.21 0 0 1-.219-.337l1.693-1.986c1.327-1.557 1.813-3.663 1.303-5.644l-.485-1.882z"/></g></g><defs><linearGradient id="A" x1="73.951" y1="249" x2="73.951" y2="44.259" href="#O"><stop stop-color="#fca43d" stop-opacity="0"/><stop offset="1" stop-color="#f58859"/></linearGradient><linearGradient id="B" x1="298.907" y1="138.18" x2="279.186" y2="14.06" href="#O"><stop stop-color="#cc3f03"/><stop offset="1" stop-color="#f66020"/></linearGradient><linearGradient id="C" x1="294.745" y1="53.874" x2="270.154" y2="115.843" href="#O"><stop stop-color="#f8eed3"/><stop offset="1" stop-color="#fff"/></linearGradient><radialGradient id="D" cx="0" cy="0" r="1" gradientTransform="translate(317.866 29.4715) rotate(167.316) scale(81.4186 69.4355)" href="#O"><stop stop-color="#ffb358"/><stop offset=".685" stop-color="#ff5c00"/><stop offset="1" stop-color="#f7841a"/></radialGradient><linearGradient id="E" x1="69.737" y1="124.233" x2="90.212" y2="-19.096" href="#O"><stop stop-color="#cc3f03"/><stop offset="1" stop-color="#f66020"/></linearGradient><linearGradient id="F" x1="73.01" y1="27.048" x2="102.455" y2="97.985" href="#O"><stop stop-color="#f8eed3"/><stop offset="1" stop-color="#fff"/></linearGradient><radialGradient id="G" cx="0" cy="0" r="1" gradientTransform="translate(45.9355 -0.646123) rotate(11.7864) scale(93.7969 79.9919)" href="#O"><stop stop-color="#ffb358"/><stop offset=".685" stop-color="#ff5c00"/><stop offset="1" stop-color="#f7841a"/></radialGradient><linearGradient id="H" x1="143.314" y1="137.562" x2="83.381" y2="201.103" href="#O"><stop stop-color="#f5a273"/><stop offset="1" stop-color="#f5a273" stop-opacity=".2"/></linearGradient><linearGradient id="I" x1="124.577" y1="164.592" x2="148.785" y2="177.087" href="#O"><stop offset=".21" stop-color="#f15a24"/><stop offset=".684" stop-color="#fbb03b"/></linearGradient><linearGradient id="J" x1="117.972" y1="191.55" x2="93.764" y2="179.054" href="#O"><stop offset=".21" stop-color="#ed1e79"/><stop offset=".893" stop-color="#522785"/></linearGradient><clipPath id="K"><rect x=".005" width="361" height="249" rx="12" fill="#fff"/></clipPath><clipPath id="L"><path fill="#fff" transform="translate(155.598 132.019)" d="M0 0h63.759v63.759H0z"/></clipPath><clipPath id="M"><path d="M206.901 177.163c7.025-22.299 30.797-34.681 53.096-27.657s34.681 30.797 27.656 53.096-30.796 34.681-53.095 27.656-34.681-30.796-27.657-53.095z" fill="#fff"/></clipPath><clipPath id="N"><path d="M80.384 192.769c-7.929-22.65 4.004-47.438 26.653-55.367s47.438 4.004 55.367 26.653-4.004 47.437-26.653 55.366-47.438-4.003-55.367-26.652z" fill="#fff"/></clipPath><linearGradient id="O" gradientUnits="userSpaceOnUse"/></defs></svg>