<!-- source: DFINITY foundation -->
<svg width="640" height="260" viewBox="0 0 640 260" fill="none" xmlns="http://www.w3.org/2000/svg">
    <g clip-path="url(#clip0_6931_112375)" filter="url(#filter0_d_6931_112375)">
        <rect width="640" height="400" transform="translate(0.5 -70)" fill="white"/>
        <g clip-path="url(#clip1_6931_112375)">
            <rect width="640" height="400" transform="translate(0.5 -70)" fill="url(#paint0_linear_6931_112375)"/>
            <path fill-rule="evenodd" clip-rule="evenodd" d="M81.4978 53.4277C80.2567 51.2962 77.001 45.6751 74.3326 39.775C73.32 40.9311 72.6742 42.0659 72.5998 43.0466C70.4231 43.937 68.8524 45.1967 67.8424 46.6319C69.251 51.2377 70.6995 55.227 71.0982 56.027C74.229 57.0209 77.7531 55.9047 81.4022 53.4675L81.4978 53.4277ZM90.0238 32.3546C89.0165 32.0623 87.7036 32.15 86.2525 32.5141C90.3082 37.5292 93.8669 42.9244 95.2489 44.9894C99.0893 42.9722 101.537 40.147 102.233 36.979C101.681 36.2668 98.8182 33.213 95.3924 29.8962C93.5426 30.1115 91.6929 30.9141 90.0238 32.3546ZM80.0494 20.9742C81.3862 21.7423 81.3862 21.7423 80.0494 20.9742V20.9742ZM66.9707 29.0192C67.0345 30.2151 67.0345 30.2151 66.9707 29.0192V29.0192Z" fill="#5A81C1"/>
            <path fill-rule="evenodd" clip-rule="evenodd" d="M86.2524 32.5125C82.1717 33.5359 76.9867 36.7365 74.3304 39.7756C76.9997 45.6768 80.2575 51.2966 81.4971 53.4295C85.3305 53.6274 94.6692 47.6507 95.2474 44.9918C93.8645 42.9241 90.3072 37.5282 86.2524 32.5125ZM95.4713 29.9734C98.8203 33.2208 101.617 36.2 102.211 36.9527C103.143 35.0933 103.352 33.4708 102.677 32.2937C102.242 31.5854 101.497 31.101 100.508 30.8302C98.9193 30.0255 97.1771 29.6973 95.4323 29.8927L95.3932 29.8979L95.4713 29.9734ZM66.4891 51.7029C66.2834 52.7081 66.3771 53.591 66.812 54.2993L66.8433 54.3488L66.8719 54.3904L66.898 54.4321L66.9266 54.4712L66.9579 54.5128L66.9917 54.5571L67.023 54.5962L67.0542 54.6352L67.0855 54.6717L67.1141 54.7029L67.148 54.7394L67.1818 54.7759L67.1922 54.7863C67.2131 54.8071 67.2365 54.8306 67.2574 54.8514L67.2938 54.8852L67.3068 54.8956C67.3329 54.9217 67.3615 54.9451 67.3902 54.9712L67.4266 55.0024L67.4396 55.0128C67.4605 55.0285 67.4813 55.0467 67.5022 55.0623L67.5438 55.0936L67.5724 55.1144C68.3928 55.716 69.6011 56.0129 71.0986 56.0259C70.7001 55.2264 69.2522 51.2367 67.8433 46.6299C66.7469 48.1924 66.3146 49.9633 66.4891 51.7029Z" fill="url(#paint1_linear_6931_112375)"/>
            <path opacity="0.2" d="M617.744 236.45C617.744 241.966 613.074 246.436 607.311 246.436H592.675C586.914 246.436 582.244 241.966 582.244 236.45C582.244 230.936 586.914 226.467 592.675 226.467H607.311C613.074 226.467 617.744 230.936 617.744 236.45Z" fill="url(#paint2_linear_6931_112375)"/>
            <path fill-rule="evenodd" clip-rule="evenodd" d="M61.7848 39.7296C61.5602 44.224 62.6618 48.8815 65.2285 53.0631C65.798 53.9908 66.5974 54.6673 67.5786 55.1191C67.2658 54.8919 67.0091 54.6192 66.8139 54.301C66.3781 53.5898 66.2819 52.7102 66.4904 51.7049C66.3033 51.491 66.1322 51.2584 65.9798 51.0071C63.897 47.6142 62.3489 43.6117 61.7848 39.7296ZM92.4462 21.4338C95.4541 23.7091 98.1277 26.8132 100.12 30.059C100.275 30.3103 100.403 30.567 100.51 30.829C101.499 31.1017 102.242 31.5857 102.678 32.2942C102.873 32.6124 102.999 32.9653 103.061 33.3476C103.101 32.2675 102.863 31.2488 102.293 30.321C99.8282 26.3052 96.3578 23.292 92.4462 21.4338ZM90.0239 32.3557C81.4441 18.5062 76.0247 18.3778 71.2522 21.3055C66.4797 24.2331 64.1376 29.1259 72.5997 43.0476C72.9446 38.5773 85.1044 30.9226 90.0239 32.3557Z" fill="url(#paint3_linear_6931_112375)"/>
            <path fill-rule="evenodd" clip-rule="evenodd" d="M76.7403 19.8249C80.31 20.2273 84.5171 23.4622 90.0229 32.3542C93.2794 29.5405 97.2245 29.1652 100.508 30.8286C100.403 30.5666 100.273 30.3101 100.119 30.059C94.9104 21.5693 85.0274 14.0383 76.7403 19.8249ZM67.4432 25.5306C58.9023 30.2237 60.7709 42.518 65.9797 51.0077C66.1336 51.2588 66.3037 51.491 66.49 51.7017C66.1525 48.3641 68.0562 44.9051 72.5981 43.0473C67.1651 34.1094 66.1876 28.8925 67.4432 25.5306Z" fill="#DEECFF"/>
            <path fill-rule="evenodd" clip-rule="evenodd" d="M97.9054 62.014L95.0238 44.9999C95.0082 44.8959 95.0758 44.7996 95.1798 44.7814C95.2813 44.7632 95.3801 44.8334 95.3983 44.9349L98.6726 64.2844L100.202 30.792C100.207 30.688 100.296 30.6074 100.4 30.6126C100.504 30.6178 100.584 30.7062 100.579 30.8102L99.1824 61.3846L102.043 36.9532C102.054 36.8491 102.147 36.7763 102.251 36.7867C102.355 36.7997 102.428 36.8934 102.418 36.9974L98.9951 66.2323V66.235V66.2375V66.2402L98.9925 66.2428V66.248V66.2532L98.9899 66.2583V66.261L98.9873 66.2662V66.2714L98.9847 66.2766V66.2792L98.9821 66.2818V66.287L98.9795 66.2896V66.2922L98.9769 66.2948L98.9743 66.3V66.3026H98.9717V66.3078L98.9691 66.3104V66.313H98.9665V66.3156C98.9587 66.326 98.9509 66.3364 98.9431 66.3442L98.9405 66.3468L98.9379 66.3494V66.352L98.9327 66.3546L98.9301 66.3572L98.9275 66.3598L98.9223 66.3624L98.9197 66.365L98.9171 66.3676H98.9145L98.9119 66.3702L98.9093 66.3728H98.9067L98.9041 66.3754L98.9015 66.378H98.8989L98.8963 66.3806H98.8937L98.8911 66.3832H98.8885C98.8833 66.3884 98.8781 66.391 98.8729 66.3936L98.8703 66.3962L98.8677 66.3988C98.8417 66.4118 98.8157 66.4222 98.7871 66.4248H98.7819H98.7767C98.7611 66.4248 98.7455 66.4222 98.7299 66.4196L98.7247 66.417C98.7143 66.4144 98.7013 66.4118 98.6909 66.4066L98.2825 66.222L71.0605 56.1753C70.9643 56.1389 70.9149 56.0296 70.9487 55.9334C70.9851 55.8346 71.0944 55.7852 71.1932 55.8216L93.4269 64.0269L66.3714 51.8008C66.2752 51.7566 66.2336 51.6448 66.2752 51.5511C66.3194 51.4549 66.4312 51.4133 66.5249 51.4549L97.3879 65.4027L81.3595 53.5927C81.2763 53.5303 81.2581 53.4107 81.3205 53.3275C81.3803 53.2442 81.4999 53.226 81.5832 53.2885L95.5674 63.5926L72.3219 42.9713C72.2439 42.9011 72.2361 42.784 72.3063 42.706C72.3739 42.628 72.4936 42.6202 72.5716 42.6878L98.4672 65.6602L89.7157 32.1678C89.6897 32.069 89.7521 31.965 89.8509 31.9389C89.9523 31.9129 90.0564 31.9728 90.0824 32.0742L97.9054 62.014Z" fill="white"/>
            <path fill-rule="evenodd" clip-rule="evenodd" d="M96.4817 86.6536L108.797 82.2247L118.322 73.2508L118.153 72.973L105.163 76.3001L96.3125 86.3757L96.4817 86.6536Z" fill="#7C692B"/>
            <path fill-rule="evenodd" clip-rule="evenodd" d="M96.561 62.2816L97.0952 61.6502L109.895 58.372L112.041 61.8688L111.541 62.199L118.153 72.9733L105.162 76.3L96.561 62.2816Z" fill="#F3D986"/>
            <path d="M788.79 132.483C693.219 132.051 500.395 131.447 493.664 132.483C493.664 132.483 542.42 111.884 575.212 112.42C593.119 112.712 602.622 118.799 620.516 119.539C654.646 120.949 672.54 101.337 706.595 104.006C740.462 106.66 788.79 132.483 788.79 132.483Z" fill="#B6E2FF"/>
            <g filter="url(#filter1_ii_6931_112375)">
                <path fill-rule="evenodd" clip-rule="evenodd" d="M96.5634 62.2866L96.5609 62.2816L87.7124 72.3586L87.7148 72.3611L87.2724 72.8653L89.403 76.338L89.8701 75.8758L96.3138 86.3755L105.162 76.2985L99.1686 65.8631L99.2378 65.1389L97.1072 61.6687L96.5634 62.2866Z" fill="#FCFF8B"/>
            </g>
            <path d="M321.22 164.612C264.826 164.358 151.045 164.001 147.074 164.612C147.074 164.612 175.844 152.458 195.193 152.773C205.76 152.946 211.367 156.538 221.926 156.974C242.065 157.806 252.624 146.234 272.719 147.809C292.703 149.375 321.22 164.612 321.22 164.612Z" fill="#ACDDFF"/>
            <path fill-rule="evenodd" clip-rule="evenodd" d="M99.2439 65.1478L89.3996 76.332L90.1298 76.3001L99.2415 65.9788L111.692 62.4457L112.039 61.8655L99.2439 65.1478Z" fill="#7C692B"/>
            <path fill-rule="evenodd" clip-rule="evenodd" d="M-14.9009 128.691L-6.30942 123.686L-0.428809 115.67L-0.593438 115.486L-9.84034 119.76L-15.0656 128.507L-14.9009 128.691Z" fill="#5182B1"/>
            <path d="M434.644 168.369C375.1 168.1 254.962 167.723 250.769 168.369C250.769 168.369 281.146 155.535 301.576 155.868C312.733 156.05 318.654 159.843 329.803 160.304C351.067 161.182 362.216 148.964 383.433 150.626C404.534 152.28 434.644 168.369 434.644 168.369Z" fill="#ACDDFF"/>
            <path d="M-58.5795 201.647C6.88606 201.539 138.97 201.386 143.581 201.647C143.581 201.647 110.183 196.454 87.7206 196.589C75.4543 196.662 68.9448 198.197 56.6873 198.384C33.3088 198.739 21.051 193.794 -2.276 194.467C-25.4749 195.137 -58.5795 201.647 -58.5795 201.647Z" fill="white"/>
            <path d="M-182.764 201.647C-117.299 201.539 14.7854 201.386 19.396 201.647C19.396 201.647 -14.0017 196.454 -36.4639 196.589C-48.7303 196.662 -55.2397 198.197 -67.4973 198.384C-90.8758 198.739 -103.134 193.794 -126.461 194.467C-149.66 195.137 -182.764 201.647 -182.764 201.647Z" fill="white"/>
            <g filter="url(#filter2_f_6931_112375)">
                <path d="M233.292 295.124C229.279 295.124 225.523 296.764 222.275 299.588C215.934 288.075 206.417 280.713 195.736 280.713C187.415 280.713 179.783 285.163 173.815 292.567C166.864 271.336 152.407 256.735 135.689 256.735C127.223 256.735 119.341 260.493 112.714 266.945C104.886 218.357 75.9478 182.28 41.4265 182.28C8.88264 182.28 -18.6955 214.346 -28.3089 258.727C-40.3624 263.37 -50.3295 275.828 -55.7914 292.297C-57.2537 291.836 -58.7666 291.59 -60.3177 291.59C-72.5602 291.59 -82.4836 306.609 -82.4836 325.132C-82.4836 325.452 -82.4586 325.761 -82.4528 326.077H255.374C254.496 308.765 244.956 295.124 233.292 295.124Z" fill="white" fill-opacity="0.8"/>
            </g>
            <g filter="url(#filter3_f_6931_112375)">
                <path d="M560.44 295.124C556.426 295.124 552.67 296.764 549.422 299.588C543.081 288.075 533.564 280.713 522.883 280.713C514.562 280.713 506.93 285.163 500.962 292.567C494.011 271.336 479.554 256.735 462.836 256.735C454.37 256.735 446.488 260.493 439.861 266.945C432.033 218.357 403.095 182.28 368.574 182.28C336.03 182.28 308.452 214.346 298.838 258.727C286.785 263.37 276.818 275.828 271.356 292.297C269.893 291.836 268.381 291.59 266.83 291.59C254.587 291.59 244.664 306.609 244.664 325.132C244.664 325.452 244.689 325.761 244.694 326.077H582.521C581.643 308.765 572.103 295.124 560.44 295.124Z" fill="white" fill-opacity="0.8"/>
            </g>
            <g filter="url(#filter4_f_6931_112375)">
                <path d="M414.624 295.124C418.637 295.124 422.393 296.764 425.641 299.588C431.982 288.075 441.5 280.713 452.18 280.713C460.501 280.713 468.133 285.163 474.101 292.567C481.052 271.336 495.509 256.735 512.227 256.735C520.693 256.735 528.575 260.493 535.202 266.945C543.03 218.357 571.968 182.28 606.49 182.28C639.033 182.28 666.612 214.346 676.225 258.727C688.278 263.37 698.245 275.828 703.707 292.297C705.17 291.836 706.683 291.59 708.234 291.59C720.476 291.59 730.4 306.609 730.4 325.132C730.4 325.452 730.375 325.761 730.369 326.077H392.542C393.42 308.765 402.96 295.124 414.624 295.124Z" fill="white" fill-opacity="0.8"/>
            </g>
            <g filter="url(#filter5_f_6931_112375)">
                <path d="M83.5998 349.768C86.4287 349.768 89.0759 351.408 91.3653 354.232C95.8343 342.719 102.542 335.357 110.07 335.357C115.935 335.357 121.314 339.807 125.521 347.211C130.419 325.98 140.609 311.379 152.392 311.379C158.359 311.379 163.915 315.137 168.585 321.589C174.103 273.001 194.499 236.924 218.83 236.924C241.767 236.924 261.205 268.99 267.98 313.371C276.476 318.014 283.501 330.472 287.35 346.941C288.381 346.48 289.447 346.235 290.541 346.235C299.169 346.235 306.164 361.253 306.164 379.776C306.164 380.096 306.146 380.405 306.142 380.721H68.0364C68.6551 363.409 75.3793 349.768 83.5998 349.768Z" fill="white" fill-opacity="0.8"/>
            </g>
            <path d="M582.244 181.337C647.709 181.228 779.793 181.076 784.404 181.337C784.404 181.337 751.006 176.143 728.544 176.278C716.278 176.352 709.768 177.887 697.511 178.073C674.132 178.429 661.874 173.484 638.547 174.157C615.348 174.826 582.244 181.337 582.244 181.337Z" fill="white"/>
            <path d="M405.31 -104.522L689.715 53.9144" stroke="url(#paint4_linear_6931_112375)" stroke-width="0.585689"/>
            <path d="M407.43 -104.788L687.594 61.0319" stroke="url(#paint5_linear_6931_112375)" stroke-width="0.585689"/>
            <path d="M218.264 27.2345C222.685 16.9586 230.434 9.3303 241.537 9.86255C238.988 11.852 236.839 15.0152 235.275 19.9088C238.679 9.25868 244.853 6.80518 251.897 6.80518M289.832 51.1536C289.825 51.2006 289.818 51.2476 289.81 51.2944C286.145 45.3373 279.385 42.0262 271.317 43.3471M271.317 43.3471C271.301 39.6849 271.166 36.3777 270.923 33.3927M271.317 43.3471C264.777 36.1403 237.487 36.454 232.48 43.3453L232.48 43.3471L232.479 43.3469" stroke="#689DEC" stroke-width="1.1094"/>
            <path fill-rule="evenodd" clip-rule="evenodd" d="M236.573 68.997C236.685 64.3121 236.996 51.9763 238.536 39.7702C235.749 40.6413 233.579 41.8365 232.48 43.348C228.072 42.6273 224.279 43.1043 221.22 44.4266C218.923 53.2856 217.302 61.1802 217.157 62.8732C221.235 67.5918 228.054 69.2874 236.382 68.9685L236.573 68.997ZM271.317 43.348C269.977 41.8728 267.765 40.7113 265.054 39.8584C266.635 52.0075 267.037 64.2758 267.224 68.997C275.448 69.5492 282.218 67.4051 286.49 62.9665C286.307 61.2632 284.703 53.4749 282.451 44.7014C279.243 43.2106 275.452 42.6714 271.317 43.348ZM266.474 15.0105C267.874 17.585 267.874 17.585 266.474 15.0105V15.0105ZM237.305 15.0442C236.221 17.0431 236.221 17.0431 237.305 15.0442V15.0442Z" fill="#1D4991"/>
            <path fill-rule="evenodd" clip-rule="evenodd" d="M265.054 39.8571C257.432 37.4587 245.854 37.4906 238.536 39.7712C236.995 51.9771 236.685 64.313 236.575 68.997C242.582 73.1286 263.643 72.731 267.224 68.997C267.038 64.2762 266.635 52.0065 265.054 39.8571ZM282.504 44.9044C284.701 53.4893 286.27 61.0897 286.483 62.9015C289.839 60.8148 291.786 58.3967 291.866 55.819C291.866 54.238 291.144 52.716 289.81 51.2946C288.038 48.4125 285.541 46.1515 282.524 44.7351L282.452 44.7007L282.504 44.9044ZM213.987 51.2946C212.654 52.716 211.932 54.238 211.932 55.819V55.927L211.937 56.0228L211.94 56.1185L211.947 56.2118L211.954 56.3075L211.967 56.4156L211.979 56.5088L211.991 56.6021L212.006 56.693L212.021 56.774L212.038 56.8648L212.058 56.9556L212.062 56.9826C212.077 57.0415 212.089 57.098 212.104 57.1545L212.129 57.2453L212.139 57.2748C212.158 57.3411 212.178 57.4098 212.2 57.4761L212.229 57.5669L212.239 57.5939C212.256 57.643 212.274 57.6921 212.291 57.7387L212.328 57.832L212.352 57.8934C213.084 59.6831 214.746 61.3622 217.156 62.872C217.304 61.1806 218.924 53.2855 221.219 44.4257C217.893 45.8643 215.433 48.302 213.987 51.2946Z" fill="url(#paint6_linear_6931_112375)"/>
            <path fill-rule="evenodd" clip-rule="evenodd" d="M218.265 27.2328C213.437 34.2869 210.595 42.9215 210.595 52.2433C210.595 54.3127 211.219 56.1998 212.356 57.9045C212.076 57.2227 211.933 56.5275 211.933 55.8192C211.933 54.2361 212.654 52.7164 213.986 51.2944C213.899 50.7632 213.852 50.2188 213.852 49.6585C213.852 42.0969 215.321 34.0781 218.265 27.2328ZM286.09 28.0706C288.699 34.7415 289.944 42.4273 289.944 49.6585C289.944 50.2188 289.898 50.7632 289.81 51.2944C291.143 52.7164 291.865 54.2361 291.865 55.8192C291.865 56.5275 291.72 57.2227 291.44 57.9045C292.578 56.1998 293.202 54.3127 293.202 52.2433C293.202 43.2889 290.578 34.9661 286.09 28.0706ZM271.317 43.347C271.186 12.3978 262.535 6.80525 251.897 6.80525C241.262 6.80525 232.611 12.3978 232.479 43.347C237.482 36.4541 264.776 36.1396 271.317 43.347Z" fill="url(#paint7_linear_6931_112375)"/>
            <path fill-rule="evenodd" clip-rule="evenodd" d="M262.26 9.86248C267.636 14.0592 271.233 23.4789 271.317 43.347C279.385 42.0262 286.145 45.3362 289.81 51.2932C289.899 50.7643 289.944 50.2171 289.944 49.6593C289.944 30.7384 281.425 8.7258 262.26 9.86248ZM241.537 9.86248C223.04 8.97577 213.852 30.7384 213.852 49.6593C213.852 50.2171 213.899 50.7643 213.986 51.2932C216.762 45.552 223.277 41.842 232.48 43.347C232.565 23.4789 236.159 14.0592 241.537 9.86248Z" fill="#E2EEFF"/>
            <path fill-rule="evenodd" clip-rule="evenodd" d="M254.611 99.2028L266.854 68.7922C266.927 68.608 267.135 68.5183 267.319 68.5934C267.504 68.6661 267.591 68.8771 267.518 69.0589L253.598 103.642L289.349 50.9323C289.461 50.7699 289.684 50.7262 289.846 50.8377C290.011 50.9492 290.052 51.1723 289.943 51.3347L257.305 99.4549L286.21 62.7363C286.331 62.5811 286.556 62.5545 286.712 62.6757C286.867 62.7993 286.896 63.0248 286.772 63.1799L252.185 107.116V107.118H252.182V107.121L252.18 107.123L252.177 107.125L252.175 107.128L252.172 107.13V107.133L252.168 107.138L252.165 107.14L252.16 107.145L252.153 107.152L252.146 107.159L252.141 107.164L252.138 107.167L252.134 107.171L252.131 107.174L252.129 107.176H252.126L252.124 107.179L252.121 107.181H252.119V107.184H252.117L252.114 107.186L252.112 107.188L252.109 107.191H252.107L252.105 107.193L252.102 107.196H252.1V107.198L252.095 107.201H252.092L252.09 107.203L252.088 107.205H252.085L252.083 107.208H252.08L252.078 107.21L252.075 107.213H252.073L252.071 107.215H252.068L252.066 107.218H252.063L252.061 107.22L252.056 107.222H252.054C252.034 107.232 252.012 107.239 251.991 107.247H251.986L251.983 107.249H251.981H251.978H251.976H251.974L251.964 107.251C251.961 107.251 251.959 107.254 251.957 107.254H251.947L251.942 107.256H251.937H251.935H251.932H251.93H251.925H251.923H251.92H251.918L251.915 107.259H251.913H251.911H251.908H251.906H251.903H251.901H251.898H251.896H251.894H251.891H251.889H251.886H251.884L251.881 107.256H251.879H251.877H251.874H251.869H251.867H251.865H251.862H251.86C251.85 107.256 251.838 107.259 251.828 107.259H251.821H251.814C251.76 107.256 251.707 107.244 251.656 107.218H251.654L251.651 107.215H251.649V107.213L251.644 107.21C251.617 107.196 251.593 107.176 251.571 107.157L251.564 107.15C251.549 107.133 251.535 107.116 251.523 107.096L251.043 106.391L216.95 63.0781C216.826 62.9229 216.853 62.6975 217.008 62.5763C217.163 62.4526 217.388 62.4793 217.512 62.6345L245.36 98.0124L213.701 51.3347C213.589 51.1723 213.631 50.9492 213.796 50.8377C213.96 50.7262 214.183 50.7699 214.293 50.9323L250.41 104.18L236.189 69.1268C236.116 68.9449 236.203 68.7364 236.388 68.6613C236.57 68.5861 236.78 68.6758 236.853 68.8577L249.258 99.4331L232.106 42.9514C232.048 42.7624 232.157 42.5611 232.346 42.5054C232.535 42.4472 232.734 42.5539 232.792 42.743L251.898 105.666L271.007 42.743C271.063 42.5539 271.264 42.4472 271.453 42.5054C271.642 42.5611 271.749 42.7624 271.693 42.9514L254.611 99.2028Z" fill="white"/>
            <path fill-rule="evenodd" clip-rule="evenodd" d="M227.829 137.681L252.166 142.748L276.506 137.681V137.061L252.166 129.541L227.829 137.061V137.681Z" fill="#4B0B19"/>
            <g filter="url(#filter6_i_6931_112375)">
                <path fill-rule="evenodd" clip-rule="evenodd" d="M252.166 98.2992L253.663 97.8072L277.643 105.218V113.011L276.505 113.05V137.062L252.166 129.54V98.2992Z" fill="#AF2F4A"/>
            </g>
            <g filter="url(#filter7_ii_6931_112375)">
                <path fill-rule="evenodd" clip-rule="evenodd" d="M252.167 98.3101V98.2996L227.83 105.82V105.831L226.612 106.206V113.943L227.83 113.66V137.062L252.167 129.541L252.832 106.685L253.664 105.585V97.8473L252.167 98.3101Z" fill="#FF7458"/>
            </g>
            <path fill-rule="evenodd" clip-rule="evenodd" d="M243.408 112.689C245.119 113.726 246.208 115.729 246.208 118.329C246.208 122.973 242.735 127.764 238.452 129.031C236.567 129.588 234.84 129.37 233.496 128.556L235.046 129.563C236.39 130.378 238.117 130.596 240.002 130.038C244.285 128.772 247.758 123.98 247.758 119.337C247.758 116.736 246.669 114.733 244.958 113.697L243.408 112.689Z" fill="#002E7A"/>
            <path fill-rule="evenodd" clip-rule="evenodd" d="M96.1231 71.6331C96.9531 71.5525 98.349 72.2841 99.0357 73.1671C100.262 74.744 100.398 77.249 99.3398 78.7622C98.8741 79.428 98.2548 79.7908 97.6028 79.8541L98.3728 79.8042C99.0248 79.7409 99.86 79.428 100.326 78.7622C101.384 77.249 101.288 74.6226 100.062 73.0457C99.2572 72.0112 97.7231 71.5027 96.8932 71.5832L96.1231 71.6331Z" fill="#7C692B"/>
            <path fill-rule="evenodd" clip-rule="evenodd" d="M253.663 105.602L226.611 113.935L227.827 114.607L252.832 106.946L276.506 113.599L277.643 113L253.663 105.602Z" fill="#4B0B19"/>
            <path fill-rule="evenodd" clip-rule="evenodd" d="M440.645 102.346C446.255 93.9589 461.062 71.8929 477.955 51.4882C471.884 49.85 466.558 49.5177 462.816 51.0004V50.9985C455.634 44.599 448.191 41.0842 441.105 39.9568C426.702 53.4069 414.643 65.889 412.423 68.7949C414.384 82.0818 424.825 93.0351 440.329 102.072L440.645 102.346ZM533.407 95.8373C532.676 91.6042 529.998 86.941 526.054 82.2604C514.9 106.172 501.467 128.937 496.354 137.731C510.668 148.229 525.449 152.148 538.338 149.011C539.971 145.705 546.048 129.699 552.085 111.148C547.973 104.739 541.704 99.3808 533.407 95.8373ZM557.322 38.7372H557.321C556.896 45.033 556.897 45.0311 557.322 38.7372ZM504.266 5.12064C499.985 7.50414 499.986 7.50414 504.266 5.12064H504.266Z" fill="#043484"/>
            <path fill-rule="evenodd" clip-rule="evenodd" d="M526.054 82.2597C514.969 69.0997 493.889 55.7906 477.955 51.4873C461.06 71.8942 446.255 93.9589 440.645 102.346C446.794 116.788 485.536 140.384 496.353 137.73C501.467 128.935 514.903 106.166 526.054 82.2597ZM551.945 111.578C546.027 129.722 540.103 145.347 538.398 148.886C546.909 148.967 553.241 146.819 556.36 142.227C558.185 139.352 558.629 135.753 557.848 131.628C557.952 124.347 556.025 117.354 552.176 111.292L552.085 111.148L551.945 111.578ZM420.029 44.0896C415.963 45.1354 412.894 47.0675 411.068 49.9409L410.946 50.1398L410.84 50.3164L410.739 50.4947L410.641 50.673L410.547 50.8547L410.442 51.0656L410.357 51.2473L410.273 51.4325L410.194 51.6142L410.127 51.7771L410.055 51.9639L409.985 52.1491L409.964 52.2091C409.921 52.3274 409.88 52.4474 409.841 52.5691L409.781 52.7629L409.763 52.8229C409.719 52.9686 409.679 53.116 409.64 53.2635L409.592 53.4606L409.577 53.5224C409.553 53.6304 409.529 53.7384 409.506 53.8464L409.463 54.0555L409.438 54.1978C408.702 58.2919 409.782 63.2655 412.423 68.7928C414.643 65.8885 426.702 53.4058 441.104 39.9561C433.398 38.7285 426.109 40.3212 420.029 44.0896Z" fill="url(#paint8_linear_6931_112375)"/>
            <path fill-rule="evenodd" clip-rule="evenodd" d="M608.799 292.369C591.859 295.389 569.793 306.99 558.099 318.638C567.325 343.472 579.031 367.327 583.489 376.379C599.071 378.275 638.877 356.521 641.987 345.825C636.927 336.999 623.926 313.979 608.799 292.369ZM647.135 284.606C659.889 298.803 670.459 311.746 672.671 314.992C676.997 307.661 678.302 301.104 675.885 296.107C674.308 293.089 671.413 290.905 667.45 289.519C661.197 285.788 654.177 283.961 647.002 284.263L646.832 284.27L647.135 284.606ZM522.73 365.104C521.603 369.148 521.741 372.772 523.317 375.79L523.428 375.995L523.528 376.175L523.632 376.352L523.738 376.526L523.848 376.698L523.978 376.894L524.093 377.059L524.211 377.225L524.329 377.384L524.437 377.523L524.562 377.679L524.688 377.833L524.729 377.88C524.81 377.977 524.894 378.072 524.979 378.167L525.117 378.316L525.16 378.361C525.264 378.472 525.372 378.58 525.48 378.688L525.627 378.828L525.673 378.873C525.754 378.947 525.836 379.022 525.918 379.095L526.078 379.237L526.188 379.331C529.366 382.015 534.213 383.566 540.32 384.043C538.915 380.668 534.135 363.983 529.688 344.785C524.772 350.846 522.506 357.955 522.73 365.104Z" fill="url(#paint9_linear_6931_112375)"/>
            <path fill-rule="evenodd" clip-rule="evenodd" d="M666.629 276.817C645.871 277.143 617.349 286.698 601.172 298.313C607.364 329.673 616.699 360.344 620.261 371.986C638.453 377.254 690.063 359.032 695.833 346.894C691.511 335.405 680.473 305.477 666.629 276.817ZM713.787 274.975C726.235 294.347 736.325 311.803 738.333 316.097C744.9 308.202 747.721 300.644 745.808 294.226C744.512 290.326 741.487 287.166 737.034 284.75C730.306 279.099 722.299 275.567 713.696 274.541L713.491 274.516L713.787 274.975ZM550.073 346.824C547.949 351.423 547.415 355.766 548.708 359.665L548.801 359.93L548.885 360.164L548.975 360.395L549.067 360.622L549.165 360.849L549.282 361.108L549.387 361.326L549.496 361.546L549.606 361.758L549.707 361.945L549.827 362.155L549.946 362.362L549.987 362.427C550.065 362.557 550.145 362.687 550.229 362.817L550.364 363.021L550.407 363.083C550.51 363.236 550.617 363.385 550.725 363.534L550.873 363.729L550.919 363.791C551.002 363.896 551.084 364.001 551.168 364.104L551.331 364.303L551.444 364.436C554.711 368.246 560.184 371.03 567.366 372.778C566.344 368.487 563.872 347.692 562.284 323.968C555.258 330.236 551.187 338.266 550.073 346.824Z" fill="#043484"/>
            <path fill-rule="evenodd" clip-rule="evenodd" d="M455.586 5.29643C438.665 12.5437 423.529 24.9564 412.766 41.9017C410.379 45.6582 409.334 49.8097 409.433 54.2231C409.71 52.6634 410.25 51.2286 411.069 49.9407C412.894 47.0672 415.963 45.1363 420.029 44.0885C420.479 43.0249 421.025 41.981 421.671 40.965C430.404 27.2167 442.331 14.3356 455.586 5.29643ZM577.898 85.123C574.938 100.26 568.329 115.668 559.978 128.815C559.333 129.831 558.62 130.77 557.848 131.629C558.629 135.754 558.185 139.353 556.36 142.227C555.542 143.515 554.474 144.614 553.179 145.528C557.216 143.741 560.529 141.031 562.915 137.273C573.255 120.994 578.094 102.84 577.898 85.123ZM533.407 95.8371C568.901 39.429 559.635 19.2749 540.301 6.99512C520.968 -5.28467 498.787 -5.10606 462.816 50.9984C479.868 44.2413 529.842 75.1829 533.407 95.8371Z" fill="url(#paint10_linear_6931_112375)"/>
            <path fill-rule="evenodd" clip-rule="evenodd" d="M536.396 286.521C529.922 309.06 529.985 333.998 538.044 358.27C539.83 363.651 543.086 368.026 547.522 371.483C546.205 369.953 545.224 368.264 544.612 366.419C543.246 362.303 543.811 357.719 546.052 352.862C545.364 351.561 544.774 350.18 544.291 348.725C537.753 329.032 534.643 306.885 536.396 286.521ZM713.7 230.075C726.259 245.187 736.145 264.12 742.397 282.951C742.881 284.407 743.233 285.866 743.46 287.321C748.161 289.872 751.356 293.208 752.722 297.325C753.335 299.17 753.559 301.109 753.419 303.123C754.907 297.7 754.899 292.246 753.112 286.864C745.371 263.547 731.348 244.149 713.7 230.075ZM688.445 282.621C661.349 202.155 633.992 195.07 606.3 204.265C578.608 213.459 560.92 235.499 587.332 316.191C594.395 293.916 665.186 269.506 688.445 282.621Z" fill="url(#paint11_linear_6931_112375)"/>
            <path d="M345.452 222.888L387.355 265.169" stroke="white" stroke-width="1.17138"/>
            <path d="M226.418 140.313L252.168 146.294" stroke="white" stroke-width="0.554701"/>
            <path fill-rule="evenodd" clip-rule="evenodd" d="M555.603 24.5148C560.532 38.3522 556.194 59.6234 533.406 95.8352C549.596 102.751 558.062 116.573 557.847 131.628C558.62 130.769 559.332 129.83 559.978 128.814C581.821 94.4249 591.751 44.5763 555.603 24.5148ZM517.937 0.59024C485.34 -22.3753 443.514 6.57399 421.67 40.9639C421.025 41.9814 420.478 43.0239 420.028 44.0895C431.698 36.8563 447.825 37.6377 462.816 50.9988C485.909 14.9793 503.318 2.01097 517.937 0.59024Z" fill="white"/>
            <path fill-rule="evenodd" clip-rule="evenodd" d="M635.918 203.27C653.547 209.549 671.05 230.962 688.443 282.62C708.308 272.209 728.771 274.983 743.459 287.321C743.233 285.866 742.88 284.407 742.397 282.951C726.043 233.693 684.834 183.745 635.918 203.27ZM581.967 221.183C533.044 234.864 527.935 299.466 544.29 348.725C544.774 350.181 545.363 351.561 546.053 352.863C548.311 335.518 562.071 320.228 587.333 316.191C570.376 264.387 571.596 236.757 581.967 221.183Z" fill="url(#paint12_linear_6931_112375)"/>
            <path fill-rule="evenodd" clip-rule="evenodd" d="M438.553 178.072L495.916 136.928C496.262 136.68 496.745 136.759 496.993 137.106C497.242 137.453 497.162 137.934 496.816 138.184L431.585 184.97L557.424 130.438C557.815 130.269 558.27 130.449 558.44 130.839C558.609 131.231 558.429 131.685 558.038 131.856L443.158 181.638L538.089 148.269C538.492 148.127 538.933 148.338 539.074 148.741C539.215 149.143 539.003 149.584 538.602 149.725L425.008 189.654L425.007 189.655L425.003 189.656L425 189.657L424.995 189.659L424.993 189.66L424.991 189.66L424.988 189.661L424.986 189.662L424.983 189.663L424.976 189.665L424.975 189.665L424.973 189.666L424.97 189.667L424.968 189.667L424.964 189.669L424.958 189.671L424.954 189.672L424.951 189.673V189.673L424.946 189.674L424.934 189.677L424.927 189.679L424.91 189.683L424.909 189.683L424.907 189.684L424.9 189.685L424.888 189.688L424.882 189.689V189.689L424.88 189.689L424.87 189.691L424.863 189.692L424.861 189.692L424.86 189.693L424.851 189.694L424.845 189.695L424.843 189.695L424.84 189.696L424.838 189.696V189.696L424.833 189.697L424.828 189.697L424.824 189.698L424.821 189.698L424.819 189.698L424.818 189.698L424.814 189.699L424.809 189.699L424.806 189.7L424.802 189.7L424.801 189.7L424.797 189.7L424.794 189.7L424.791 189.701L424.786 189.701L424.784 189.701L424.782 189.701L424.779 189.701L424.775 189.702H424.772L424.767 189.702L424.765 189.702L424.764 189.702H424.759H424.757L424.753 189.702H424.748H424.747L424.743 189.702L424.738 189.702H424.737H424.735H424.73H424.728H424.725L424.718 189.702H424.716L424.711 189.702H424.708L424.706 189.702L424.699 189.701V189.701L424.698 189.701L424.691 189.701L424.689 189.701L424.686 189.701L424.683 189.7L424.679 189.7L424.676 189.7L424.672 189.7L424.671 189.699L424.667 189.699L424.666 189.699L424.661 189.698L424.654 189.698L424.65 189.697L424.649 189.697H424.647C424.598 189.691 424.551 189.681 424.505 189.666V189.666L424.504 189.665L424.493 189.662L424.49 189.661L424.487 189.66L424.48 189.658L424.477 189.656L424.475 189.655L424.468 189.653L424.45 189.646C424.445 189.644 424.438 189.641 424.433 189.639L424.423 189.634L424.416 189.631L424.406 189.626L424.404 189.626V189.625L424.397 189.623L424.389 189.618L424.387 189.617L424.385 189.616L424.38 189.614L424.379 189.613L424.377 189.612L424.374 189.61L424.37 189.608L424.367 189.607L424.365 189.605L424.364 189.604L424.362 189.604L424.358 189.601L424.353 189.599L424.35 189.597L424.348 189.596L424.347 189.596V189.595L424.342 189.592L424.336 189.589L424.333 189.587L424.33 189.585L424.325 189.582L424.321 189.579L424.318 189.577L424.313 189.575L424.309 189.572L424.304 189.569L424.301 189.566L424.298 189.564L424.294 189.561L424.289 189.558L424.286 189.555L424.282 189.553L424.279 189.55L424.274 189.546L424.269 189.543L424.267 189.541L424.266 189.539L424.259 189.535L424.255 189.532C424.235 189.522 424.217 189.512 424.196 189.5L424.185 189.493L424.183 189.491L424.181 189.49L424.169 189.483V189.482C424.073 189.419 423.99 189.333 423.93 189.229V189.228L423.928 189.224L423.923 189.218L423.921 189.215L423.92 189.212L423.914 189.201V189.2C423.884 189.143 423.86 189.081 423.845 189.017L423.842 188.999C423.83 188.95 423.825 188.901 423.825 188.852L423.769 187.019L411.802 68.9288C411.76 68.5051 412.069 68.1253 412.493 68.0831C412.917 68.0392 413.295 68.3481 413.339 68.7718L423.113 165.23L419.456 43.8303C419.444 43.4049 419.779 43.0488 420.206 43.0369C420.631 43.0234 420.987 43.3593 421.001 43.7847L425.17 182.264L439.793 102.137C439.87 101.718 440.272 101.44 440.691 101.517C441.111 101.593 441.389 101.995 441.312 102.415L428.557 172.311L462.592 49.845C462.707 49.4348 463.132 49.1934 463.543 49.3082C463.954 49.4213 464.194 49.8467 464.08 50.2586L426.163 186.687L533.538 94.3767C533.862 94.0982 534.349 94.1353 534.627 94.4577C534.905 94.7818 534.868 95.2697 534.545 95.5465L438.553 178.072Z" fill="white"/>
            <path fill-rule="evenodd" clip-rule="evenodd" d="M345.452 217.091L383.84 254.401L433.929 273.29L434.644 272.166L399.088 230.396L346.167 215.966L345.452 217.091Z" fill="#000949"/>
            <g filter="url(#filter8_i_6931_112375)">
                <path fill-rule="evenodd" clip-rule="evenodd" d="M435.156 173.609L438.444 174.442L473.476 215.596L464.476 229.763L462.365 228.52L434.643 272.166L399.087 230.395L435.156 173.609Z" fill="#00417E"/>
            </g>
            <g filter="url(#filter9_ii_6931_112375)">
                <path fill-rule="evenodd" clip-rule="evenodd" d="M435.145 173.629L435.156 173.61L382.234 159.181L382.222 159.199L379.576 158.479L370.643 172.541L373.183 173.429L346.165 215.966L399.088 230.395L426.683 189.622L429.466 188.579L438.397 174.516L435.145 173.629Z" fill="#1D8ECA"/>
            </g>
            <path fill-rule="evenodd" clip-rule="evenodd" d="M429.445 188.612L370.654 172.525L372.089 175.152L426.381 190.097L461.732 229.518L464.489 229.744L429.445 188.612Z" fill="#000949"/>
            <path fill-rule="evenodd" clip-rule="evenodd" d="M403.119 189.465C404.008 191.292 404.498 193.347 404.498 195.56C404.498 204.782 396 213.268 385.517 214.514C377.551 215.461 370.73 211.954 367.916 206.168L369.285 209.223C372.1 215.009 378.92 218.516 386.887 217.569C397.369 216.322 405.867 207.836 405.867 198.615C405.867 196.402 405.377 194.347 404.488 192.52L403.119 189.465Z" fill="#002E7A"/>
            <path d="M404.497 195.56C404.497 204.782 396 213.268 385.517 214.514C375.035 215.761 366.537 209.295 366.537 200.074C366.537 190.852 375.035 182.366 385.517 181.12C396 179.873 404.497 186.339 404.497 195.56Z" fill="white"/>
            <path d="M395.431 194.081C393.899 193.642 391.841 193.863 389.311 194.735C388.112 195.148 387.001 195.64 386.148 196.044C386.148 196.044 386.148 196.044 386.15 196.05L386.153 196.045C386.153 196.045 386.548 197.122 387.002 198.284C387.81 197.892 388.949 197.368 390.158 196.948C392.408 196.173 393.574 196.208 394.16 196.376C396.363 197.007 397.289 199.077 396.229 200.989C395.176 202.889 392.52 203.931 390.314 203.313C390.214 203.284 390.093 203.235 389.947 203.159C390.453 203.589 391.045 203.965 391.701 204.153C395.737 205.31 397.827 203.192 397.973 203.037C398.329 202.643 398.64 202.211 398.897 201.749C400.655 198.577 399.1 195.133 395.431 194.081Z" fill="url(#paint13_linear_6931_112375)"/>
            <path d="M374.942 201.574C376.475 202.013 378.533 201.792 381.062 200.92C382.262 200.508 383.373 200.015 384.226 199.611C384.226 199.611 384.226 199.611 384.223 199.605L384.221 199.61C384.221 199.61 383.825 198.533 383.372 197.371C382.564 197.763 381.425 198.287 380.216 198.707C377.966 199.482 376.799 199.447 376.214 199.28C374.013 198.644 373.087 196.574 374.147 194.662C375.2 192.762 377.856 191.72 380.062 192.338C380.162 192.366 380.283 192.416 380.429 192.492C379.923 192.062 379.331 191.686 378.675 191.498C374.639 190.34 372.554 192.46 372.405 192.609C372.047 193.008 371.738 193.435 371.482 193.898C369.719 197.078 371.274 200.522 374.942 201.574Z" fill="url(#paint14_linear_6931_112375)"/>
            <path d="M391.721 204.099C389.681 203.461 388.339 201.395 388.101 200.909C387.485 199.651 386.271 196.379 386.177 196.121C385.324 193.66 383.916 190.779 381.336 190.04L381.332 190.038L381.327 190.037C378.189 189.152 374.509 190.288 372.406 192.61C372.55 192.459 374.908 190.364 378.649 191.535C380.689 192.173 382.029 194.263 382.271 194.75C382.887 196.008 384.101 199.28 384.195 199.538C385.05 201.995 386.459 204.876 389.038 205.616L389.043 205.617L389.048 205.618C392.186 206.503 395.871 205.368 397.969 203.046C397.82 203.195 395.469 205.268 391.721 204.099Z" fill="#29ABE2"/>
            <g clip-path="url(#clip2_6931_112375)">
                <path d="M239.675 111.904C243.957 111.454 246.875 115.023 246.193 119.873C245.512 124.724 241.488 129.022 237.207 129.472C232.925 129.922 230.007 126.353 230.689 121.503C231.37 116.652 235.394 112.354 239.675 111.904Z" fill="#3B00B9"/>
                <path fill-rule="evenodd" clip-rule="evenodd" d="M232.357 121.827C232.099 125.172 234.098 127.615 237.036 127.547L236.929 128.308C233.622 128.406 231.377 125.661 231.685 121.898L232.357 121.827Z" fill="url(#paint15_linear_6931_112375)"/>
                <path fill-rule="evenodd" clip-rule="evenodd" d="M238.95 113.922C235.944 114.479 233.188 117.422 232.5 120.812L231.828 120.883C232.576 117.073 235.681 113.756 239.057 113.161L238.95 113.922Z" fill="#29ABE2"/>
                <path fill-rule="evenodd" clip-rule="evenodd" d="M244.526 119.539C244.784 116.194 242.785 113.75 239.848 113.819L239.955 113.057C243.261 112.96 245.515 115.704 245.198 119.468L244.526 119.539Z" fill="url(#paint16_linear_6931_112375)"/>
                <path fill-rule="evenodd" clip-rule="evenodd" d="M237.932 127.453C240.938 126.897 243.694 123.953 244.382 120.563L245.054 120.493C244.306 124.302 241.202 127.609 237.825 128.214L237.932 127.453Z" fill="#29ABE2"/>
                <path d="M241.432 119.393C241.696 118.423 241.122 117.973 240.292 117.724L240.758 116.396L240.088 116.274L239.634 117.572C239.46 117.542 239.277 117.513 239.095 117.484L239.557 116.186L238.887 116.064L238.42 117.392C238.271 117.369 238.13 117.345 237.989 117.322L237.063 117.15L236.754 118.019C236.754 118.019 237.251 118.101 237.241 118.112C237.515 118.16 237.536 118.369 237.504 118.536C237.078 119.754 236.646 120.963 236.22 122.181C236.172 122.282 236.065 122.438 235.875 122.4C235.882 122.409 235.387 122.307 235.387 122.307L234.915 123.251L235.784 123.409C235.949 123.44 236.106 123.472 236.263 123.503L235.785 124.852L236.455 124.974L236.922 123.646C237.103 123.684 237.285 123.723 237.459 123.753L236.992 125.081L237.662 125.202L238.139 123.864C239.292 123.993 240.201 123.801 240.752 122.541C241.192 121.524 240.953 120.991 240.385 120.685C240.846 120.483 241.238 120.105 241.432 119.393ZM239.482 122.098C239.128 123.106 237.748 122.722 237.292 122.645L237.923 120.867C238.371 120.945 239.85 121.049 239.482 122.098ZM240.055 119.528C239.731 120.446 238.581 120.115 238.2 120.05L238.766 118.432C239.148 118.498 240.385 118.57 240.055 119.528Z" fill="white"/>
            </g>
            <g clip-path="url(#clip3_6931_112375)">
                <g clip-path="url(#clip4_6931_112375)">
                    <path d="M93.8641 73.2736C94.6773 71.4272 96.7471 71.02 98.4866 72.3642C100.226 73.7083 100.977 76.2954 100.164 78.1418C99.3508 79.9882 97.2809 80.3955 95.5415 79.0513C93.8021 77.7071 93.051 75.12 93.8641 73.2736Z" fill="#FEFFE5"/>
                    <path d="M97.3795 73.7469C97.1676 73.947 97.0104 74.2914 96.9119 74.7706C96.865 74.9978 96.8389 75.2185 96.823 75.3904C96.823 75.3904 96.823 75.3904 96.8241 75.3905L96.8236 75.3897C96.8236 75.3897 97.0299 75.4278 97.255 75.4648C97.2686 75.3012 97.2924 75.0731 97.339 74.8437C97.4268 74.4175 97.5409 74.2372 97.6219 74.1608C97.9267 73.873 98.3386 73.9202 98.5407 74.2652C98.7414 74.608 98.6577 75.123 98.3549 75.4125C98.3411 75.4255 98.322 75.44 98.2965 75.4558C98.4113 75.4163 98.5256 75.3583 98.6164 75.2725C99.1746 74.7455 99.0361 74.2192 99.0254 74.1818C98.9966 74.089 98.9577 73.9998 98.9089 73.9164C98.5737 73.3441 97.887 73.2677 97.3795 73.7469Z" fill="url(#paint17_linear_6931_112375)"/>
                    <path d="M96.6485 77.6687C96.8605 77.4686 97.0176 77.1242 97.1162 76.645C97.163 76.4178 97.1891 76.1971 97.205 76.0253C97.205 76.0253 97.205 76.0253 97.2039 76.0251L97.2044 76.0259C97.2044 76.0259 96.9981 75.9878 96.773 75.9508C96.7595 76.1145 96.7356 76.3425 96.689 76.5719C96.6013 76.9981 96.4871 77.1784 96.4061 77.2548C96.1009 77.5418 95.689 77.4947 95.4869 77.1496C95.2861 76.8069 95.3699 76.2918 95.6726 76.0024C95.6865 75.9893 95.7056 75.9748 95.7311 75.9591C95.6162 75.9986 95.502 76.0566 95.4111 76.1423C94.8529 76.6694 94.9921 77.195 95.0017 77.2323C95.0309 77.3259 95.0694 77.4143 95.1183 77.4977C95.4543 78.0715 96.141 78.1479 96.6485 77.6687Z" fill="url(#paint18_linear_6931_112375)"/>
                    <path d="M98.61 75.2644C98.3194 75.5257 97.8693 75.5443 97.7706 75.5364C97.5154 75.516 96.8874 75.402 96.8381 75.3928C96.3714 75.2976 95.7868 75.2507 95.4301 75.5875L95.4294 75.5881L95.4287 75.5888C94.997 76 94.8328 76.6849 95.002 77.2321C94.9917 77.1954 94.8819 76.6291 95.4148 76.1497C95.7054 75.8883 96.159 75.8723 96.2583 75.8795C96.5136 75.8999 97.1416 76.014 97.1909 76.0232C97.6572 76.1176 98.2417 76.1645 98.5985 75.8277L98.5991 75.8271L98.5998 75.8265C99.0316 75.4152 99.1964 74.7297 99.0266 74.1831C99.0362 74.2204 99.1431 74.7836 98.61 75.2644Z" fill="#29ABE2"/>
                </g>
            </g>
            <path opacity="0.8" d="M375.126 61.0649C377.398 60.1767 377.209 57.1315 377.724 56.8163C378.238 56.4994 379.022 60.9385 376.424 62.6491C373.826 64.3613 371.166 63.7276 367.986 66.0752C367.262 66.5956 366.664 67.2276 366.187 67.9713C367.225 68.7708 368.726 69.9872 368.375 70.3287C367.92 70.7686 365.881 70.3467 365.065 70.9262C364.331 71.4483 362.86 72.389 362.21 71.8833C361.747 71.5255 362.279 70.1957 362.43 69.2157C358.534 68.0714 356.208 69.6934 352.863 70.7046C349.488 71.7192 345.202 68.9924 345.462 68.5492C345.721 68.1059 347.865 68.6772 350.591 68.5492C353.317 68.4227 355.33 65.7583 358.121 65.5679C360.912 65.3775 362.692 67.8022 363.315 67.2801C363.771 66.8993 364.095 64.5534 366.431 63.2844C368.768 62.0154 372.854 61.9514 375.126 61.0649Z" fill="white"/>
            <path opacity="0.8" d="M71.8478 128.572C75.306 128.634 77.4526 127.316 78.6568 127.88C79.577 128.312 81.4016 129.642 83.6477 130.316C84.0456 130.141 84.4631 130.022 84.8977 129.962C85.9147 129.846 87.0142 129.969 87.3022 130.454C87.3297 130.505 87.344 130.559 87.3454 130.616C89.81 130.212 91.6294 128.712 92.2211 128.948C92.9279 129.231 93.8965 130.365 95.8612 131.868C97.8717 133.407 100.495 133.722 100.758 134.098C101.021 134.476 98.4005 134.602 95.8612 133.722C93.3206 132.842 92.3271 131.774 91.7538 131.586C91.263 131.424 88.4409 132.683 85.6699 132.781C85.4919 132.903 85.3035 133.008 85.1045 133.099C84.1856 133.514 81.8309 133.741 81.323 133.742C80.7772 133.742 80.4827 133.706 80.3296 133.876C80.0783 134.155 79.8623 134.386 79.683 134.386C79.5233 134.386 79.4683 134.094 79.5403 133.9C79.611 133.706 79.2654 133.513 79.3845 133.342C79.5037 133.173 80.0063 133.148 80.2432 133.002C80.3846 132.915 80.9579 132.427 81.505 131.94C79.7209 131.189 78.4238 130.166 78.0311 129.8C77.4578 129.27 74.9944 130.332 71.6947 130.271C68.3949 130.212 66.1436 127.881 66.4053 127.744C66.6671 127.606 68.3923 128.509 71.8478 128.572Z" fill="white"/>
            <path opacity="0.8" d="M163.044 30.3689C160.864 30.995 159.281 30.5245 158.614 31.0863C158.105 31.5161 157.175 32.6683 155.866 33.4761C155.585 33.433 155.3 33.4285 155.015 33.4638C154.351 33.5634 153.675 33.8276 153.575 34.184C153.566 34.2209 153.566 34.2572 153.575 34.2936C151.946 34.4559 150.539 33.8145 150.204 34.0648C149.804 34.3639 149.383 35.2462 148.394 36.5321C147.382 37.8481 145.774 38.4924 145.671 38.7753C145.569 39.059 147.25 38.6943 148.709 37.706C150.169 36.7175 150.617 35.8724 150.948 35.6559C151.231 35.4704 153.232 35.7886 155.004 35.3807C155.137 35.4273 155.275 35.4622 155.416 35.4861C156.068 35.5931 157.598 35.3372 157.92 35.2518C158.266 35.1592 158.446 35.0861 158.572 35.1677C158.779 35.3019 158.955 35.4113 159.068 35.3809C159.169 35.3538 159.155 35.1599 159.076 35.0492C158.998 34.9382 159.185 34.7573 159.08 34.6691C158.976 34.5825 158.653 34.6516 158.479 34.5996C158.374 34.5682 157.928 34.3565 157.499 34.1411C158.502 33.3625 159.15 32.4943 159.336 32.1962C159.609 31.763 161.35 32.0176 163.429 31.4191C165.509 30.8215 166.54 28.9634 166.351 28.921C166.161 28.8778 165.222 29.7425 163.044 30.3689Z" fill="white"/>
            <path d="M545.159 186.179C544.462 186.022 538.633 185.284 537.081 185.588C535.975 185.804 532.884 187.853 532.027 188.266C531.427 188.557 531.111 188.659 530.839 188.623C529.787 187.379 528.756 185.681 527.425 184.721C525.932 183.644 521.803 183.376 522.076 183.669C522.402 184.02 525.01 184.267 526.316 185.219C527.296 185.934 528.135 187.301 528.61 188.234C528.546 188.361 528.526 188.469 528.37 188.562C528.055 188.745 527.965 188.86 528.145 188.906C528.327 188.951 528.439 188.906 528.532 188.997C528.626 189.089 528.826 189.41 529.322 189.456C529.818 189.502 529.435 190.143 529.864 190.647C530.458 191.347 531.195 190.99 531.443 191.151C531.691 191.312 531.511 191.976 531.647 192.045C531.781 192.112 532.255 191.77 532.593 191.652C532.932 191.533 533.361 191.546 533.383 191.347C533.405 191.148 532.455 190.85 532.345 190.64C532.289 190.537 532.232 190.284 532.128 190C534.15 189.592 536.748 187.695 537.31 187.314C537.919 186.9 538.618 187.078 539.994 186.999C541.37 186.921 545.858 186.336 545.159 186.179Z" fill="#66ADE1"/>
            <path d="M273.363 224.291C273.92 224.165 278.59 223.574 279.834 223.817C280.72 223.991 283.197 225.632 283.883 225.963C284.364 226.196 284.617 226.278 284.835 226.249C285.677 225.252 286.504 223.892 287.57 223.123C288.766 222.26 292.074 222.045 291.856 222.28C291.594 222.561 289.505 222.759 288.459 223.522C287.673 224.095 287.001 225.19 286.621 225.937C286.672 226.039 286.688 226.126 286.813 226.2C287.065 226.347 287.137 226.439 286.993 226.475C286.848 226.512 286.758 226.475 286.683 226.549C286.608 226.622 286.448 226.879 286.05 226.916C285.653 226.953 285.959 227.467 285.616 227.87C285.14 228.431 284.55 228.146 284.351 228.274C284.152 228.404 284.297 228.935 284.188 228.99C284.08 229.045 283.7 228.77 283.429 228.675C283.158 228.58 282.815 228.591 282.797 228.431C282.779 228.272 283.54 228.033 283.628 227.865C283.673 227.782 283.719 227.58 283.802 227.352C282.182 227.025 280.1 225.506 279.65 225.2C279.163 224.869 278.602 225.011 277.5 224.948C276.398 224.885 272.802 224.417 273.363 224.291Z" fill="#66ADE1"/>
            <path opacity="0.2" d="M41.968 48.2867C29.8042 51.4966 3.24674 58.2206 -5.67337 59.4368L-17.3303 -27.23L35.317 -21.917C36.2906 -21.8188 36.7012 -20.5874 35.9848 -19.9209C30.3251 -14.6557 14.2732 1.6247 16.1201 15.3431C18.7972 35.2282 56.9608 33.9741 71.9609 32.6989C73.189 32.5945 73.7108 34.3259 72.6167 34.8934C64.8786 38.9076 50.5333 46.0264 41.968 48.2867Z" fill="#8FCCFB"/>
            <path d="M382.159 150.807C382.336 150.707 382.544 150.878 382.48 151.071L381.474 154.11C380.907 155.825 381.056 157.696 381.889 159.3L383.272 161.96C383.372 162.154 383.164 162.362 382.971 162.261L380.896 161.183C378.957 160.176 376.649 160.178 374.712 161.189L372.568 162.308C372.384 162.404 372.18 162.219 372.257 162.027L373.296 159.435C374.081 157.473 373.895 155.256 372.792 153.453L371.392 151.164C371.276 150.974 371.477 150.75 371.678 150.846L374.189 152.04C376.157 152.977 378.457 152.896 380.355 151.825L382.159 150.807Z" fill="white"/>
        </g>
        <path fill-rule="evenodd" clip-rule="evenodd" d="M3.052 132.251C1.7823 131.137 -1.55477 128.195 -4.5712 124.945C-4.97714 125.916 -5.14956 126.793 -4.98449 127.446C-6.20412 128.498 -6.94991 129.658 -7.2934 130.809C-5.37659 133.494 -3.56806 135.769 -3.13514 136.201C-0.885967 136.166 1.15944 134.674 2.99855 132.297L3.052 132.251ZM4.00281 116.712C3.28515 116.742 2.45174 117.084 1.58873 117.637C5.3134 120.011 8.79806 122.739 10.1448 123.78C12.1995 121.634 13.1742 119.267 12.937 117.058C12.423 116.716 9.89998 115.356 6.95383 113.948C5.79957 114.49 4.77312 115.414 4.00281 116.712ZM-4.95004 111.493C-3.91488 111.701 -3.91488 111.701 -4.95004 111.493V111.493ZM-11.6918 119.563C-11.3901 120.325 -11.3901 120.325 -11.6918 119.563V119.563Z" fill="#5E7BA9"/>
        <path fill-rule="evenodd" clip-rule="evenodd" d="M1.58853 117.635C-0.838519 119.188 -3.50883 122.394 -4.57233 124.946C-1.55507 128.197 1.78315 131.137 3.05213 132.252C5.5843 131.546 10.3476 125.634 10.1445 123.781C8.79666 122.74 5.31272 120.01 1.58853 117.635ZM7.02206 113.981C9.90324 115.361 12.3676 116.687 12.9169 117.046C13.1177 115.636 12.8999 114.537 12.2058 113.92C11.7693 113.554 11.1803 113.402 10.4788 113.441C9.27222 113.264 8.06957 113.43 6.97913 113.937L6.9549 113.949L7.02206 113.981ZM-7.06857 134.396C-6.98343 135.094 -6.73045 135.647 -6.29394 136.012L-6.26289 136.037L-6.23521 136.058L-6.20924 136.08L-6.18215 136.099L-6.15278 136.119L-6.12117 136.14L-6.09238 136.159L-6.06358 136.177L-6.03535 136.194L-6.00996 136.208L-5.98005 136.225L-5.95014 136.241L-5.9411 136.246C-5.92304 136.255 -5.90272 136.265 -5.88466 136.274L-5.85361 136.288L-5.84289 136.292C-5.82032 136.303 -5.79663 136.312 -5.77236 136.323L-5.74188 136.335L-5.73116 136.339C-5.71423 136.344 -5.69673 136.352 -5.6798 136.357L-5.64595 136.369L-5.62283 136.376C-4.95928 136.588 -4.11007 136.518 -3.13493 136.2C-3.56761 135.768 -5.37589 133.493 -7.2931 130.808C-7.665 132.061 -7.56038 133.305 -7.06857 134.396Z" fill="url(#paint19_linear_6931_112375)"/>
        <path fill-rule="evenodd" clip-rule="evenodd" d="M-12.7285 127.645C-11.8964 130.613 -10.1677 133.397 -7.59127 135.554C-7.01962 136.032 -6.35336 136.298 -5.61791 136.377C-5.87048 136.298 -6.09648 136.177 -6.29244 136.013C-6.73016 135.646 -6.98407 135.095 -7.0674 134.397C-7.23546 134.299 -7.39717 134.185 -7.55081 134.055C-9.64145 132.305 -11.5175 130.043 -12.7285 127.645ZM3.19957 109.094C5.6477 109.917 8.05918 111.351 10.0588 113.025C10.2142 113.154 10.3533 113.293 10.4798 113.44C11.1815 113.402 11.7694 113.554 12.2065 113.919C12.4025 114.084 12.5609 114.285 12.684 114.52C12.475 113.81 12.0989 113.201 11.5272 112.722C9.05277 110.651 6.14374 109.449 3.19957 109.094ZM4.00317 116.713C-4.58133 109.587 -8.12823 110.683 -10.5901 113.622C-13.0519 116.562 -13.5081 120.248 -4.98424 127.447C-5.73299 124.469 0.497011 116.853 4.00317 116.713Z" fill="#DEECFF"/>
        <path fill-rule="evenodd" clip-rule="evenodd" d="M-7.34865 111.467C-4.94319 110.951 -1.50761 112.136 4.00225 116.712C5.50455 114.177 7.98451 113.074 10.4785 113.44C10.3531 113.293 10.2132 113.155 10.0586 113.025C4.82912 108.646 -3.22677 105.906 -7.34865 111.467ZM-12.1439 117.195C-16.6686 122.1 -12.7801 129.677 -7.55068 134.056C-7.3961 134.185 -7.23512 134.299 -7.06831 134.395C-8.01369 132.302 -7.53023 129.641 -4.98535 127.447C-10.4579 122.825 -12.2277 119.651 -12.1439 117.195Z" fill="url(#paint20_linear_6931_112375)"/>
        <path fill-rule="evenodd" clip-rule="evenodd" d="M15.5743 134.256L10.0011 123.835C9.96834 123.771 9.99131 123.694 10.0549 123.659C10.1168 123.625 10.1963 123.65 10.2301 123.711L16.5665 135.563L10.2719 113.483C10.2526 113.414 10.2925 113.343 10.3612 113.323C10.4298 113.304 10.5014 113.344 10.5207 113.413L16.2665 133.569L12.8081 117.083C12.7922 117.013 12.8372 116.945 12.907 116.93C12.9773 116.915 13.045 116.96 13.0609 117.03L17.1997 136.758L17.2003 136.759L17.2009 136.761L17.2014 136.763L17.2003 136.765L17.2014 136.768L17.2026 136.772L17.202 136.776L17.2026 136.777L17.202 136.781L17.2032 136.785L17.2026 136.789L17.2032 136.79L17.202 136.793L17.2032 136.796L17.202 136.798L17.2026 136.8L17.2015 136.802L17.2009 136.806L17.2015 136.808L17.1998 136.808L17.2009 136.812L17.1998 136.814L17.2004 136.816L17.1987 136.816L17.1993 136.818C17.1965 136.826 17.1937 136.835 17.1903 136.842L17.1892 136.844L17.188 136.846L17.1886 136.848L17.1858 136.851L17.1847 136.853L17.1836 136.855L17.1808 136.858L17.1796 136.86L17.1785 136.862L17.1768 136.863L17.1757 136.865L17.1746 136.868L17.1729 136.868L17.1718 136.87L17.1706 136.873L17.1689 136.873L17.1678 136.875L17.1661 136.876L17.165 136.878L17.1633 136.879C17.1611 136.883 17.1583 136.886 17.1555 136.889L17.1543 136.891L17.1532 136.893C17.1391 136.908 17.1245 136.92 17.1065 136.928L17.1031 136.929L17.0998 136.93C17.0896 136.934 17.0789 136.935 17.0682 136.937L17.0643 136.936C17.057 136.937 17.048 136.938 17.0401 136.937L16.7348 136.906L-3.12706 136.306C-3.19746 136.303 -3.25332 136.243 -3.2523 136.173C-3.25016 136.101 -3.18998 136.045 -3.11789 136.047L13.1043 136.537L-7.12364 134.486C-7.19574 134.478 -7.2471 134.414 -7.24046 134.344C-7.23269 134.272 -7.16911 134.221 -7.09927 134.228L15.9756 136.569L2.99831 132.388C2.93069 132.365 2.89284 132.292 2.91526 132.224C2.936 132.157 3.00972 132.119 3.07735 132.142L14.3996 135.789L-5.18108 127.458C-5.24702 127.429 -5.27754 127.355 -5.24893 127.289C-5.222 127.223 -5.14601 127.192 -5.08064 127.219L16.7324 136.501L3.76233 116.658C3.72394 116.599 3.74182 116.518 3.80033 116.48C3.86053 116.441 3.9411 116.457 3.98006 116.517L15.5743 134.256Z" fill="white"/>
        <path fill-rule="evenodd" clip-rule="evenodd" d="M20.0112 150.564L27.0441 145.009L31.2761 137.11L31.1058 136.966L23.3954 141.953L19.8409 150.421L20.0112 150.564Z" fill="#5182B1"/>
        <path fill-rule="evenodd" clip-rule="evenodd" d="M14.7595 134.722L14.969 134.196L22.5667 129.282L24.7213 131.086L24.4684 131.409L31.1062 136.966L23.3945 141.953L14.7595 134.722Z" fill="#76AADB"/>
        <g filter="url(#filter10_i_6931_112375)">
            <path fill-rule="evenodd" clip-rule="evenodd" d="M14.7622 134.725L14.7595 134.722L11.2066 143.191L11.2088 143.192L11.0312 143.615L13.1702 145.407L13.373 145.005L19.8416 150.42L23.3945 141.952L17.232 136.48L17.1193 135.995L14.9808 134.205L14.7622 134.725Z" fill="#F2FAFF"/>
        </g>
        <path fill-rule="evenodd" clip-rule="evenodd" d="M17.1253 135.999L13.1668 145.403L13.634 145.224L17.3045 136.539L24.6201 131.536L24.7189 131.084L17.1253 135.999Z" fill="#5182B1"/>
        <path fill-rule="evenodd" clip-rule="evenodd" d="M16.6487 141.175C17.1889 140.976 18.2492 141.22 18.8623 141.69C19.9573 142.528 20.4866 144.177 20.0446 145.373C19.8501 145.899 19.5 146.25 19.0756 146.406L19.5811 146.238C20.0055 146.082 20.5085 145.727 20.703 145.2C21.145 144.005 20.6212 142.267 19.5263 141.429C18.808 140.879 17.6944 140.808 17.1542 141.007L16.6487 141.175Z" fill="#5182B1"/>
    </g>
    <defs>
        <filter id="filter0_d_6931_112375" x="-1.5" y="-71" width="644" height="404" filterUnits="userSpaceOnUse" color-interpolation-filters="sRGB">
            <feFlood flood-opacity="0" result="BackgroundImageFix"/>
            <feColorMatrix in="SourceAlpha" type="matrix" values="0 0 0 0 0 0 0 0 0 0 0 0 0 0 0 0 0 0 127 0" result="hardAlpha"/>
            <feOffset dy="1"/>
            <feGaussianBlur stdDeviation="1"/>
            <feComposite in2="hardAlpha" operator="out"/>
            <feColorMatrix type="matrix" values="0 0 0 0 0 0 0 0 0 0 0 0 0 0 0 0 0 0 0.1 0"/>
            <feBlend mode="normal" in2="BackgroundImageFix" result="effect1_dropShadow_6931_112375"/>
            <feBlend mode="normal" in="SourceGraphic" in2="effect1_dropShadow_6931_112375" result="shape"/>
        </filter>
        <filter id="filter1_ii_6931_112375" x="87.2725" y="61.6687" width="17.8899" height="25.8162" filterUnits="userSpaceOnUse" color-interpolation-filters="sRGB">
            <feFlood flood-opacity="0" result="BackgroundImageFix"/>
            <feBlend mode="normal" in="SourceGraphic" in2="BackgroundImageFix" result="shape"/>
            <feColorMatrix in="SourceAlpha" type="matrix" values="0 0 0 0 0 0 0 0 0 0 0 0 0 0 0 0 0 0 127 0" result="hardAlpha"/>
            <feOffset dy="1.1094"/>
            <feGaussianBlur stdDeviation="3.8829"/>
            <feComposite in2="hardAlpha" operator="arithmetic" k2="-1" k3="1"/>
            <feColorMatrix type="matrix" values="0 0 0 0 1 0 0 0 0 1 0 0 0 0 1 0 0 0 0.19 0"/>
            <feBlend mode="normal" in2="shape" result="effect1_innerShadow_6931_112375"/>
            <feColorMatrix in="SourceAlpha" type="matrix" values="0 0 0 0 0 0 0 0 0 0 0 0 0 0 0 0 0 0 127 0" result="hardAlpha"/>
            <feOffset dy="1.1094"/>
            <feComposite in2="hardAlpha" operator="arithmetic" k2="-1" k3="1"/>
            <feColorMatrix type="matrix" values="0 0 0 0 1 0 0 0 0 1 0 0 0 0 1 0 0 0 0.2 0"/>
            <feBlend mode="normal" in2="effect1_innerShadow_6931_112375" result="effect2_innerShadow_6931_112375"/>
        </filter>
        <filter id="filter2_f_6931_112375" x="-206.484" y="58.2798" width="585.858" height="391.797" filterUnits="userSpaceOnUse" color-interpolation-filters="sRGB">
            <feFlood flood-opacity="0" result="BackgroundImageFix"/>
            <feBlend mode="normal" in="SourceGraphic" in2="BackgroundImageFix" result="shape"/>
            <feGaussianBlur stdDeviation="62" result="effect1_foregroundBlur_6931_112375"/>
        </filter>
        <filter id="filter3_f_6931_112375" x="120.664" y="58.2798" width="585.858" height="391.797" filterUnits="userSpaceOnUse" color-interpolation-filters="sRGB">
            <feFlood flood-opacity="0" result="BackgroundImageFix"/>
            <feBlend mode="normal" in="SourceGraphic" in2="BackgroundImageFix" result="shape"/>
            <feGaussianBlur stdDeviation="62" result="effect1_foregroundBlur_6931_112375"/>
        </filter>
        <filter id="filter4_f_6931_112375" x="268.542" y="58.2798" width="585.858" height="391.797" filterUnits="userSpaceOnUse" color-interpolation-filters="sRGB">
            <feFlood flood-opacity="0" result="BackgroundImageFix"/>
            <feBlend mode="normal" in="SourceGraphic" in2="BackgroundImageFix" result="shape"/>
            <feGaussianBlur stdDeviation="62" result="effect1_foregroundBlur_6931_112375"/>
        </filter>
        <filter id="filter5_f_6931_112375" x="-55.9636" y="112.924" width="486.127" height="391.797" filterUnits="userSpaceOnUse" color-interpolation-filters="sRGB">
            <feFlood flood-opacity="0" result="BackgroundImageFix"/>
            <feBlend mode="normal" in="SourceGraphic" in2="BackgroundImageFix" result="shape"/>
            <feGaussianBlur stdDeviation="62" result="effect1_foregroundBlur_6931_112375"/>
        </filter>
        <filter id="filter6_i_6931_112375" x="252.166" y="97.8071" width="25.4771" height="39.2546" filterUnits="userSpaceOnUse" color-interpolation-filters="sRGB">
            <feFlood flood-opacity="0" result="BackgroundImageFix"/>
            <feBlend mode="normal" in="SourceGraphic" in2="BackgroundImageFix" result="shape"/>
            <feColorMatrix in="SourceAlpha" type="matrix" values="0 0 0 0 0 0 0 0 0 0 0 0 0 0 0 0 0 0 127 0" result="hardAlpha"/>
            <feOffset dx="2.2188" dy="2.2188"/>
            <feComposite in2="hardAlpha" operator="arithmetic" k2="-1" k3="1"/>
            <feColorMatrix type="matrix" values="0 0 0 0 0 0 0 0 0 0 0 0 0 0 0 0 0 0 0.25 0"/>
            <feBlend mode="normal" in2="shape" result="effect1_innerShadow_6931_112375"/>
        </filter>
        <filter id="filter7_ii_6931_112375" x="226.612" y="97.8474" width="27.0518" height="40.3238" filterUnits="userSpaceOnUse" color-interpolation-filters="sRGB">
            <feFlood flood-opacity="0" result="BackgroundImageFix"/>
            <feBlend mode="normal" in="SourceGraphic" in2="BackgroundImageFix" result="shape"/>
            <feColorMatrix in="SourceAlpha" type="matrix" values="0 0 0 0 0 0 0 0 0 0 0 0 0 0 0 0 0 0 127 0" result="hardAlpha"/>
            <feOffset dy="1.1094"/>
            <feGaussianBlur stdDeviation="3.8829"/>
            <feComposite in2="hardAlpha" operator="arithmetic" k2="-1" k3="1"/>
            <feColorMatrix type="matrix" values="0 0 0 0 1 0 0 0 0 1 0 0 0 0 1 0 0 0 0.2 0"/>
            <feBlend mode="normal" in2="shape" result="effect1_innerShadow_6931_112375"/>
            <feColorMatrix in="SourceAlpha" type="matrix" values="0 0 0 0 0 0 0 0 0 0 0 0 0 0 0 0 0 0 127 0" result="hardAlpha"/>
            <feOffset dy="0.554701"/>
            <feComposite in2="hardAlpha" operator="arithmetic" k2="-1" k3="1"/>
            <feColorMatrix type="matrix" values="0 0 0 0 1 0 0 0 0 1 0 0 0 0 1 0 0 0 1 0"/>
            <feBlend mode="normal" in2="effect1_innerShadow_6931_112375" result="effect2_innerShadow_6931_112375"/>
        </filter>
        <filter id="filter8_i_6931_112375" x="399.087" y="173.609" width="74.3892" height="98.5564" filterUnits="userSpaceOnUse" color-interpolation-filters="sRGB">
            <feFlood flood-opacity="0" result="BackgroundImageFix"/>
            <feBlend mode="normal" in="SourceGraphic" in2="BackgroundImageFix" result="shape"/>
            <feColorMatrix in="SourceAlpha" type="matrix" values="0 0 0 0 0 0 0 0 0 0 0 0 0 0 0 0 0 0 127 0" result="hardAlpha"/>
            <feOffset dx="1.17138" dy="3.51414"/>
            <feComposite in2="hardAlpha" operator="arithmetic" k2="-1" k3="1"/>
            <feColorMatrix type="matrix" values="0 0 0 0 0 0 0 0 0 0 0 0 0 0 0 0 0 0 0.25 0"/>
            <feBlend mode="normal" in2="shape" result="effect1_innerShadow_6931_112375"/>
        </filter>
        <filter id="filter9_ii_6931_112375" x="346.165" y="158.479" width="92.2322" height="73.0876" filterUnits="userSpaceOnUse" color-interpolation-filters="sRGB">
            <feFlood flood-opacity="0" result="BackgroundImageFix"/>
            <feBlend mode="normal" in="SourceGraphic" in2="BackgroundImageFix" result="shape"/>
            <feColorMatrix in="SourceAlpha" type="matrix" values="0 0 0 0 0 0 0 0 0 0 0 0 0 0 0 0 0 0 127 0" result="hardAlpha"/>
            <feOffset dy="1.17138"/>
            <feGaussianBlur stdDeviation="4.09983"/>
            <feComposite in2="hardAlpha" operator="arithmetic" k2="-1" k3="1"/>
            <feColorMatrix type="matrix" values="0 0 0 0 1 0 0 0 0 1 0 0 0 0 1 0 0 0 0.19 0"/>
            <feBlend mode="normal" in2="shape" result="effect1_innerShadow_6931_112375"/>
            <feColorMatrix in="SourceAlpha" type="matrix" values="0 0 0 0 0 0 0 0 0 0 0 0 0 0 0 0 0 0 127 0" result="hardAlpha"/>
            <feOffset dy="0.585689"/>
            <feComposite in2="hardAlpha" operator="arithmetic" k2="-1" k3="1"/>
            <feColorMatrix type="matrix" values="0 0 0 0 1 0 0 0 0 1 0 0 0 0 1 0 0 0 1 0"/>
            <feBlend mode="normal" in2="effect1_innerShadow_6931_112375" result="effect2_innerShadow_6931_112375"/>
        </filter>
        <filter id="filter10_i_6931_112375" x="11.0312" y="134.205" width="12.3633" height="17.2151" filterUnits="userSpaceOnUse" color-interpolation-filters="sRGB">
            <feFlood flood-opacity="0" result="BackgroundImageFix"/>
            <feBlend mode="normal" in="SourceGraphic" in2="BackgroundImageFix" result="shape"/>
            <feColorMatrix in="SourceAlpha" type="matrix" values="0 0 0 0 0 0 0 0 0 0 0 0 0 0 0 0 0 0 127 0" result="hardAlpha"/>
            <feOffset dy="1"/>
            <feGaussianBlur stdDeviation="3.5"/>
            <feComposite in2="hardAlpha" operator="arithmetic" k2="-1" k3="1"/>
            <feColorMatrix type="matrix" values="0 0 0 0 1 0 0 0 0 1 0 0 0 0 1 0 0 0 0.19 0"/>
            <feBlend mode="normal" in2="shape" result="effect1_innerShadow_6931_112375"/>
        </filter>
        <linearGradient id="paint0_linear_6931_112375" x1="320" y1="-43.9258" x2="320" y2="400" gradientUnits="userSpaceOnUse">
            <stop stop-color="#0061D8"/>
            <stop offset="0.526006" stop-color="#97CFFC"/>
            <stop offset="1" stop-color="#ACDEFB"/>
        </linearGradient>
        <linearGradient id="paint1_linear_6931_112375" x1="87.6033" y1="33.128" x2="77.0348" y2="47.9953" gradientUnits="userSpaceOnUse">
            <stop stop-color="#5C91E0"/>
            <stop offset="1" stop-color="#B6CEEF"/>
        </linearGradient>
        <linearGradient id="paint2_linear_6931_112375" x1="599.994" y1="226.467" x2="599.994" y2="246.436" gradientUnits="userSpaceOnUse">
            <stop stop-color="white"/>
            <stop offset="1" stop-color="#81B3FF"/>
        </linearGradient>
        <linearGradient id="paint3_linear_6931_112375" x1="85.7053" y1="35.0753" x2="97.513" y2="16.1735" gradientUnits="userSpaceOnUse">
            <stop stop-color="#669BEA"/>
            <stop offset="1" stop-color="#5277AE"/>
        </linearGradient>
        <linearGradient id="paint4_linear_6931_112375" x1="490.355" y1="-50.6087" x2="683.23" y2="45.6254" gradientUnits="userSpaceOnUse">
            <stop stop-color="white"/>
            <stop offset="1" stop-color="white" stop-opacity="0"/>
        </linearGradient>
        <linearGradient id="paint5_linear_6931_112375" x1="491.036" y1="-48.6694" x2="681.328" y2="52.5762" gradientUnits="userSpaceOnUse">
            <stop stop-color="white"/>
            <stop offset="1" stop-color="white" stop-opacity="0"/>
        </linearGradient>
        <linearGradient id="paint6_linear_6931_112375" x1="258.161" y1="42.3173" x2="247.784" y2="66.8967" gradientUnits="userSpaceOnUse">
            <stop stop-color="#3579DE"/>
            <stop offset="1" stop-color="#E2EEFF"/>
        </linearGradient>
        <linearGradient id="paint7_linear_6931_112375" x1="258.487" y1="28.9205" x2="272.743" y2="-2.63851" gradientUnits="userSpaceOnUse">
            <stop stop-color="#2C7DF8"/>
            <stop offset="1" stop-color="#0B4CAF"/>
        </linearGradient>
        <linearGradient id="paint8_linear_6931_112375" x1="495.388" y1="53.2861" x2="450.876" y2="114.198" gradientUnits="userSpaceOnUse">
            <stop stop-color="#3579DE"/>
            <stop offset="1" stop-color="#E2EEFF"/>
        </linearGradient>
        <linearGradient id="paint9_linear_6931_112375" x1="568.374" y1="304.439" x2="598.869" y2="373.444" gradientUnits="userSpaceOnUse">
            <stop stop-color="#3579DE"/>
            <stop offset="1" stop-color="#E2EEFF"/>
        </linearGradient>
        <linearGradient id="paint10_linear_6931_112375" x1="507.102" y1="63.2425" x2="555.714" y2="-14.0685" gradientUnits="userSpaceOnUse">
            <stop stop-color="#0066FF"/>
            <stop offset="1" stop-color="#003D99"/>
        </linearGradient>
        <linearGradient id="paint11_linear_6931_112375" x1="612.5" y1="262.596" x2="615.008" y2="361.836" gradientUnits="userSpaceOnUse">
            <stop stop-color="white"/>
            <stop offset="1" stop-color="#3579DE"/>
        </linearGradient>
        <linearGradient id="paint12_linear_6931_112375" x1="628.996" y1="268.438" x2="594.101" y2="162.8" gradientUnits="userSpaceOnUse">
            <stop stop-color="#0066FF"/>
            <stop offset="1" stop-color="#003D99"/>
        </linearGradient>
        <linearGradient id="paint13_linear_6931_112375" x1="391.544" y1="193.848" x2="395.819" y2="204.853" gradientUnits="userSpaceOnUse">
            <stop offset="0.21" stop-color="#F15A24"/>
            <stop offset="0.6841" stop-color="#FBB03B"/>
        </linearGradient>
        <linearGradient id="paint14_linear_6931_112375" x1="378.83" y1="201.807" x2="374.554" y2="190.802" gradientUnits="userSpaceOnUse">
            <stop offset="0.21" stop-color="#ED1E79"/>
            <stop offset="0.8929" stop-color="#522785"/>
        </linearGradient>
        <linearGradient id="paint15_linear_6931_112375" x1="235.467" y1="126.968" x2="231.555" y2="123.76" gradientUnits="userSpaceOnUse">
            <stop offset="0.21" stop-color="#ED1E79"/>
            <stop offset="1" stop-color="#522785"/>
        </linearGradient>
        <linearGradient id="paint16_linear_6931_112375" x1="244.401" y1="117.324" x2="240.489" y2="114.116" gradientUnits="userSpaceOnUse">
            <stop offset="0.21" stop-color="#F15A24"/>
            <stop offset="0.68" stop-color="#FBB03B"/>
        </linearGradient>
        <linearGradient id="paint17_linear_6931_112375" x1="96.9805" y1="74.3367" x2="99.1104" y2="74.6899" gradientUnits="userSpaceOnUse">
            <stop offset="0.21" stop-color="#F15A24"/>
            <stop offset="0.6841" stop-color="#FBB03B"/>
        </linearGradient>
        <linearGradient id="paint18_linear_6931_112375" x1="97.0475" y1="77.0789" x2="94.9176" y2="76.7257" gradientUnits="userSpaceOnUse">
            <stop offset="0.21" stop-color="#ED1E79"/>
            <stop offset="0.8929" stop-color="#522785"/>
        </linearGradient>
        <linearGradient id="paint19_linear_6931_112375" x1="-11.5162" y1="116.877" x2="-1.01483" y2="129.322" gradientUnits="userSpaceOnUse">
            <stop stop-color="#3579DE"/>
            <stop offset="1" stop-color="#B6CEEF"/>
        </linearGradient>
        <linearGradient id="paint20_linear_6931_112375" x1="0.20525" y1="118.065" x2="-17.5372" y2="106.45" gradientUnits="userSpaceOnUse">
            <stop stop-color="#6CA0EE"/>
            <stop offset="1" stop-color="#5478AD"/>
        </linearGradient>
        <clipPath id="clip0_6931_112375">
            <rect width="640" height="400" fill="white" transform="translate(0.5 -70)"/>
        </clipPath>
        <clipPath id="clip1_6931_112375">
            <rect width="640" height="400" fill="white" transform="translate(0.5 -70)"/>
        </clipPath>
        <clipPath id="clip2_6931_112375">
            <path d="M230.838 120.438C231.437 116.175 235.394 112.354 239.675 111.904C243.957 111.454 246.942 114.545 246.343 118.808L246.044 120.937C245.445 125.201 241.488 129.021 237.207 129.471C232.925 129.921 229.94 126.83 230.539 122.567L230.838 120.438Z" fill="white"/>
        </clipPath>
        <clipPath id="clip3_6931_112375">
            <path d="M95.2103 78.7954C93.6536 77.5924 93.0509 75.1202 93.8641 73.2736C94.6774 71.427 96.5986 70.9052 98.1554 72.1082L98.8178 72.6201C100.374 73.8231 100.977 76.2952 100.164 78.1418C99.3507 79.9884 97.4294 80.5102 95.8727 79.3072L95.2103 78.7954Z" fill="white"/>
        </clipPath>
        <clipPath id="clip4_6931_112375">
            <rect width="7.21626" height="8.06421" fill="white" transform="matrix(0.408116 -0.926676 0.781204 0.603683 92.3916 76.6172)"/>
        </clipPath>
    </defs>
</svg>