<svg width="332" height="114" viewBox="0 0 332 114" fill="none" xmlns="http://www.w3.org/2000/svg">
<g clip-path="url(#clip0_241_36835)">
<rect width="332" height="114" rx="8" fill="#EDE1F7"/>
<path d="M-187 78.9969C-175.898 63.0372 -87.4046 33.6331 -19.0878 31.1179C59.4145 28.2276 97.3268 79.4591 175.885 78.9969C252.605 78.5454 298.801 66.9114 366 31.1179" stroke="#F0722B"/>
<path d="M-218 82.9968C-206.959 66.7047 -118.945 36.6879 -50.9988 34.1203C27.0776 31.1699 64.7843 83.4687 142.916 82.9968C219.22 82.536 265.166 70.6595 332 34.1203" stroke="#1C32FF"/>
<path d="M-141 78.9969C-129.959 63.0372 -41.9449 33.6331 26.0012 31.1179C104.078 28.2276 141.784 79.4591 219.916 78.9969C296.22 78.5454 342.166 66.9114 409 31.1179" stroke="#30AF91"/>
</g>
<defs>
<clipPath id="clip0_241_36835">
<rect width="332" height="114" rx="8" fill="white"/>
</clipPath>
</defs>
</svg>
