<svg width="332" height="114" viewBox="0 0 416 143" fill="none" xmlns="http://www.w3.org/2000/svg">
    <g clip-path="url(#clip0_15_704)">
        <rect width="416" height="142.843" rx="10.0241" fill="#E9F0F7"/>
        <g opacity="0.75" filter="url(#filter0_b_15_704)">
            <rect x="306.699" y="-90.2134" width="379.445" height="379.445" rx="189.722" transform="rotate(140.977 306.699 -90.2134)" fill="url(#paint0_linear_15_704)" fill-opacity="0.44"/>
            <rect x="306.299" y="-90.2552" width="378.876" height="378.876" rx="189.438" transform="rotate(140.977 306.299 -90.2552)" stroke="url(#paint1_linear_15_704)" stroke-opacity="0.6" stroke-width="0.568243"/>
        </g>
        <g opacity="0.75" filter="url(#filter1_b_15_704)">
            <rect x="208" y="44" width="462.125" height="462.125" rx="231.062" fill="url(#paint2_linear_15_704)" fill-opacity="0.44"/>
            <rect x="208.346" y="44.346" width="461.433" height="461.433" rx="230.716" stroke="url(#paint3_linear_15_704)" stroke-opacity="0.6" stroke-width="0.692063"/>
        </g>
        <path fill-rule="evenodd" clip-rule="evenodd" d="M221.406 103.231V105.972C221.406 106.771 220.793 107.436 219.997 107.493C217.411 107.677 214.773 107.806 212.094 107.889C211.234 107.916 210.525 107.224 210.525 106.363V104.225C209.552 104.253 208.57 104.268 207.58 104.27C206.686 104.268 205.799 104.256 204.92 104.233V109.432C204.92 110.292 204.211 110.984 203.352 110.958C200.674 110.877 198.036 110.752 195.45 110.571C194.653 110.516 194.038 109.85 194.038 109.051V103.281C178.279 100.753 166.931 92.968 167 75.2753V70.9438C166.931 53.2163 178.279 45.451 194.038 42.9336V38.304C194.038 37.5047 194.653 36.8391 195.45 36.7835C198.036 36.6032 200.674 36.4784 203.352 36.3974C204.211 36.3714 204.92 37.0633 204.92 37.9233V41.9861C205.799 41.9633 206.686 41.9513 207.58 41.9495C208.57 41.9495 209.552 41.9623 210.525 41.9888V32.5696C210.525 31.7091 211.234 31.017 212.094 31.0438C214.773 31.1274 217.411 31.2555 219.997 31.44C220.793 31.4968 221.406 32.1619 221.406 32.9602V42.9696C236.977 45.5383 248.115 53.3638 248.115 70.9438V75.2753C248.184 92.8524 236.984 100.651 221.406 103.231Z" fill="#0172FF"/>
        <path fill-rule="evenodd" clip-rule="evenodd" d="M239.766 74.1835V71.5262C240.012 53.8909 225.115 50.6699 207.598 50.4283C190 50.6699 175.104 53.8909 175.349 71.5262V74.1835C175.104 91.8993 190 95.1203 207.598 95.3619C225.115 95.1203 240.012 91.8993 239.766 74.1835Z" fill="white"/>
        <path fill-rule="evenodd" clip-rule="evenodd" d="M208.36 69.4208C205.241 65.8947 201.059 62 196.886 62C191.841 62 187.442 65.5451 186.298 70.2424C186.386 69.933 187.988 65.6303 194.009 65.6303C197.066 65.6303 200.295 67.6586 201.88 69.1312C203.612 70.742 208.374 75.9823 208.395 76.0059L208.395 76.0065L208.395 76.0068C208.384 75.9941 207.013 74.4852 205.475 72.8389C204.645 73.8396 203.447 75.2034 202.071 76.4274C199.506 78.709 197.839 79.1872 196.886 79.1872C193.289 79.1872 190.355 76.2917 190.355 72.7332C190.355 69.1747 193.286 66.3012 196.886 66.2791C197.017 66.2791 197.174 66.2925 197.366 66.3272C196.285 65.9058 195.135 65.6303 194.009 65.6303C187.991 65.6303 186.386 69.9307 186.299 70.2417C186.103 71.0419 186 71.8761 186 72.7324C186 78.6506 190.81 83.4655 196.809 83.4655C199.31 83.4655 202.111 82.1641 204.996 79.5984C206.359 78.3858 207.542 77.0887 208.43 76.0456C211.548 79.5708 215.731 83.4655 219.903 83.4655C224.948 83.4655 229.347 79.9204 230.491 75.223C230.481 75.2591 230.45 75.3493 230.394 75.4807C230.45 75.3503 230.48 75.2607 230.491 75.2246C230.686 74.4244 230.789 73.5902 230.789 72.7339C230.79 66.8149 225.902 62 219.903 62C217.403 62 214.679 63.3014 211.794 65.8671C210.43 67.08 209.248 68.3775 208.36 69.4208ZM208.395 69.4595C208.405 69.4721 209.776 70.9811 211.314 72.6274C212.144 71.6267 213.342 70.2629 214.718 69.0389C217.283 66.7573 218.95 66.279 219.903 66.279C223.501 66.279 226.435 69.1746 226.435 72.7331C226.435 76.2719 223.504 79.1651 219.903 79.1872C219.773 79.1872 219.615 79.1738 219.423 79.1391C220.099 79.4025 220.801 79.6088 221.508 79.7265C218.862 79.286 216.275 77.6042 214.909 76.335C213.177 74.7243 208.416 69.484 208.395 69.4603L208.394 69.4595H208.395Z" fill="#0172FF"/>
    </g>
    <defs>
        <filter id="filter0_b_15_704" x="-159.539" y="-317.539" width="398.777" height="398.777" filterUnits="userSpaceOnUse" color-interpolation-filters="sRGB">
            <feFlood flood-opacity="0" result="BackgroundImageFix"/>
            <feGaussianBlur in="BackgroundImageFix" stdDeviation="4.83007"/>
            <feComposite in2="SourceAlpha" operator="in" result="effect1_backgroundBlur_15_704"/>
            <feBlend mode="normal" in="SourceGraphic" in2="effect1_backgroundBlur_15_704" result="shape"/>
        </filter>
        <filter id="filter1_b_15_704" x="196.235" y="32.2349" width="485.655" height="485.655" filterUnits="userSpaceOnUse" color-interpolation-filters="sRGB">
            <feFlood flood-opacity="0" result="BackgroundImageFix"/>
            <feGaussianBlur in="BackgroundImageFix" stdDeviation="5.88253"/>
            <feComposite in2="SourceAlpha" operator="in" result="effect1_backgroundBlur_15_704"/>
            <feBlend mode="normal" in="SourceGraphic" in2="effect1_backgroundBlur_15_704" result="shape"/>
        </filter>
        <linearGradient id="paint0_linear_15_704" x1="459.09" y1="-80.523" x2="590.347" y2="57.4896" gradientUnits="userSpaceOnUse">
            <stop stop-color="#92C2FA"/>
            <stop offset="1" stop-color="#F0F5F9"/>
        </linearGradient>
        <linearGradient id="paint1_linear_15_704" x1="306.699" y1="-90.2134" x2="754.04" y2="174.486" gradientUnits="userSpaceOnUse">
            <stop stop-color="white"/>
            <stop offset="0.5" stop-color="white" stop-opacity="0"/>
            <stop offset="1" stop-color="white"/>
        </linearGradient>
        <linearGradient id="paint2_linear_15_704" x1="282.916" y1="98.1539" x2="273.14" y2="326.362" gradientUnits="userSpaceOnUse">
            <stop stop-color="#92C2FA"/>
            <stop offset="1" stop-color="#F0F5F9"/>
        </linearGradient>
        <linearGradient id="paint3_linear_15_704" x1="208" y1="44" x2="752.816" y2="366.377" gradientUnits="userSpaceOnUse">
            <stop stop-color="white"/>
            <stop offset="0.5" stop-color="white" stop-opacity="0"/>
            <stop offset="1" stop-color="white"/>
        </linearGradient>
        <clipPath id="clip0_15_704">
            <rect width="416" height="142.843" rx="10.0241" fill="white"/>
        </clipPath>
    </defs>
</svg>
