<!-- source: DFINITY foundation -->
<svg width="332" height="114" viewBox="0 0 332 114" fill="none" xmlns="http://www.w3.org/2000/svg">
    <g clip-path="url(#clip0_453_29578)">
        <rect width="332" height="114" rx="8" fill="#EDE7FB"/>
        <path d="M192.326 72.4933L205.829 82.4733L223.69 80.8972L197.364 179.146L166 170.742L192.326 72.4933Z" fill="url(#paint0_linear_453_29578)"/>
        <g clip-path="url(#clip1_453_29578)">
            <path d="M223.61 73.2453C226.073 81.6287 220.294 90.1461 211.911 92.6057C203.527 95.069 194.735 90.2652 192.275 81.8817C189.812 73.502 194.467 63.6153 202.85 61.152C211.234 58.6887 221.146 64.8619 223.61 73.2453Z" fill="url(#paint1_linear_453_29578)"/>
            <path d="M223.056 81.4902C225.893 73.1975 221.471 64.1745 213.178 61.3369C204.886 58.4993 195.863 62.9215 193.025 71.2143C190.187 79.507 194.61 88.5299 202.902 91.3676C211.195 94.2052 220.218 89.7829 223.056 81.4902Z" fill="url(#paint2_linear_453_29578)"/>
            <path style="mix-blend-mode:screen" d="M203.568 61.126C199.278 62.3874 195.925 65.301 193.998 68.9661C195.959 65.5019 199.215 62.7632 203.338 61.5539C211.747 59.0832 220.566 63.9019 223.037 72.3113C224.246 76.4305 223.703 80.6464 221.85 84.1702C223.889 80.5645 224.529 76.1737 223.267 71.8834C220.797 63.4739 211.978 58.6553 203.568 61.126Z" fill="url(#paint3_linear_453_29578)"/>
            <path style="mix-blend-mode:screen" d="M220.153 73.2193C222.162 80.0622 218.244 87.2363 211.401 89.2456C204.558 91.2549 197.384 87.3367 195.378 80.4938C193.369 73.6509 197.287 66.4768 204.13 64.4675C210.973 62.4581 218.147 66.3763 220.157 73.2193H220.153Z" fill="url(#paint4_linear_453_29578)"/>
            <path d="M220.663 79.0928C222.175 72.1239 217.751 65.2489 210.782 63.737C203.813 62.2252 196.938 66.6491 195.426 73.618C193.914 80.5869 198.338 87.4619 205.307 88.9738C212.276 90.4856 219.151 86.0617 220.663 79.0928Z" fill="url(#paint5_linear_453_29578)"/>
            <path style="mix-blend-mode:multiply" opacity="0.3" d="M204.402 63.9688C200.826 65.0182 198.054 67.4777 196.502 70.5662C198.11 67.8498 200.707 65.7103 203.974 64.754C210.817 62.7446 217.991 66.6628 220 73.5058C220.96 76.7728 220.566 80.1143 219.148 82.9348C220.905 79.9617 221.478 76.3002 220.428 72.7244C218.419 65.8814 211.245 61.9669 204.406 63.9726L204.402 63.9688Z" fill="url(#paint6_linear_453_29578)"/>
            <path d="M208.687 77.7717L213.327 79.013C213.426 79.0395 213.473 79.052 213.515 78.9242C213.679 78.4623 213.806 77.9876 213.894 77.5048C213.919 77.4131 213.883 77.363 213.784 77.3364L204.549 74.8659C204.435 74.8353 204.394 74.865 204.366 74.9722L204.002 76.3306C203.955 76.5059 203.955 76.5059 204.138 76.5548L208.687 77.7717ZM213.877 75.6007C213.868 75.5632 213.868 75.58 213.864 75.5424C213.832 75.353 213.783 75.1674 213.717 74.9878C213.625 74.6866 213.5 74.3981 213.342 74.1267C213.275 73.9704 213.188 73.823 213.083 73.6893C212.572 72.9505 211.894 72.3426 211.103 71.9167C210.703 71.7072 210.28 71.5452 209.842 71.4323L205.744 70.3359C205.63 70.3053 205.602 70.3468 205.576 70.4463L204.851 73.1554C204.82 73.2697 204.812 73.3004 204.957 73.3392L213.764 75.6953C213.764 75.6953 213.845 75.7004 213.872 75.6589L213.876 75.6258L213.877 75.6007ZM212.537 80.5028C212.411 80.4538 212.28 80.4188 212.147 80.3984L203.683 78.1342C203.569 78.1037 203.531 78.0934 203.49 78.2461L202.781 80.8948C202.748 81.0167 202.74 81.0475 202.893 81.0884L206.801 82.1337C206.984 82.198 207.174 82.2348 207.367 82.2448C207.945 82.3558 208.536 82.3819 209.122 82.3215C209.333 82.3062 209.544 82.2688 209.748 82.211L209.801 82.2253C210.845 81.9939 211.789 81.4445 212.504 80.6513C212.504 80.6513 212.588 80.5502 212.537 80.5039L212.537 80.5028ZM200.839 82.0104L200.851 81.9648L201.327 80.1866L201.488 79.5838L201.968 77.7902C201.995 77.6908 201.999 77.6759 201.877 77.6433L200.221 77.2002C200.129 77.1757 200.091 77.1655 200.124 77.0435L200.511 75.5934L202.282 76.067C202.381 76.0935 202.419 76.1038 202.454 75.9741L202.838 74.5394C202.862 74.4476 202.868 74.4251 202.746 74.3924L201.09 73.9493C200.998 73.9248 200.961 73.9147 200.993 73.7927L201.352 72.4497C201.375 72.3656 201.381 72.3431 201.503 72.3757L203.144 72.8147C203.258 72.8452 203.289 72.8535 203.328 72.7084L204.428 68.5948C204.461 68.4728 204.469 68.442 204.622 68.4829L210.345 70.0141C210.756 70.1417 211.157 70.2977 211.545 70.4823C212.345 70.8628 213.073 71.3797 213.697 72.0065C214.11 72.4262 214.468 72.8952 214.762 73.4038C214.981 73.7985 215.162 74.211 215.307 74.6372C215.449 75.068 215.544 75.5132 215.591 75.9644C215.582 76.0762 215.665 76.1755 215.776 76.1859L217.142 76.5514C217.318 76.5983 217.318 76.5983 217.28 76.7685L216.945 78.0202C216.913 78.1422 216.859 78.1608 216.736 78.128L215.683 77.8462C215.576 77.8177 215.546 77.8095 215.517 77.9489C215.434 78.4249 215.309 78.8915 215.143 79.3452C215.108 79.4749 215.104 79.4903 215.25 79.5292L216.455 79.8516C216.49 79.9345 216.418 79.989 216.4 80.0582C216.384 80.1487 216.36 80.2383 216.328 80.3247L216.081 81.2484C216.047 81.3781 215.998 81.4064 215.884 81.3757L214.441 80.9898C214.346 80.9437 214.231 80.9818 214.181 81.0757C213.598 81.8767 212.835 82.5303 211.953 82.9822C211.631 83.1464 211.3 83.2933 210.961 83.4199C210.608 83.514 210.262 83.6175 209.91 83.6787C209.264 83.7839 208.609 83.8134 207.956 83.7689C207.339 83.7168 206.728 83.6048 206.131 83.4362L200.834 82.0192L200.837 82.0115L200.839 82.0104Z" fill="#FEFEFD"/>
            <g opacity="0.5">
                <path d="M221.058 67.03C219.755 68.2809 215.87 67.5134 212.381 65.317C208.892 63.1205 207.121 60.3254 208.425 59.0744C209.729 57.8235 213.614 58.591 217.102 60.7896C220.591 62.986 222.362 65.7811 221.058 67.0321L221.058 67.03Z" fill="url(#paint7_radial_453_29578)" style="mix-blend-mode:screen"/>
                <path d="M217.651 64.4479C217.128 65.1014 215.361 64.9438 213.705 64.0964C212.049 63.2491 211.131 62.0321 211.654 61.3785C212.177 60.725 213.943 60.8826 215.599 61.731C217.255 62.5784 218.173 63.7953 217.65 64.4489L217.651 64.4479Z" fill="url(#paint8_radial_453_29578)" style="mix-blend-mode:screen"/>
            </g>
        </g>
        <path d="M293.81 72.4933L307.313 82.4733L325.174 80.8972L298.848 179.146L267.484 170.742L293.81 72.4933Z" fill="url(#paint9_linear_453_29578)"/>
        <g clip-path="url(#clip2_453_29578)">
            <path d="M325.094 73.2453C327.557 81.6287 321.778 90.1461 313.395 92.6057C305.011 95.069 296.219 90.2652 293.759 81.8817C291.296 73.502 295.951 63.6153 304.334 61.152C312.718 58.6887 322.63 64.8619 325.094 73.2453Z" fill="url(#paint10_linear_453_29578)"/>
            <path d="M324.54 81.4902C327.377 73.1975 322.955 64.1745 314.662 61.3369C306.37 58.4993 297.347 62.9215 294.509 71.2143C291.671 79.507 296.094 88.5299 304.386 91.3676C312.679 94.2052 321.702 89.7829 324.54 81.4902Z" fill="url(#paint11_linear_453_29578)"/>
            <path style="mix-blend-mode:screen" d="M305.052 61.126C300.762 62.3874 297.409 65.301 295.482 68.9661C297.443 65.5019 300.699 62.7632 304.822 61.5539C313.231 59.0832 322.05 63.9019 324.521 72.3113C325.73 76.4305 325.187 80.6464 323.334 84.1702C325.373 80.5645 326.013 76.1737 324.751 71.8834C322.28 63.4739 313.462 58.6553 305.052 61.126Z" fill="url(#paint12_linear_453_29578)"/>
            <path style="mix-blend-mode:screen" d="M321.637 73.2193C323.646 80.0622 319.728 87.2363 312.885 89.2456C306.042 91.2549 298.868 87.3367 296.862 80.4938C294.853 73.6509 298.771 66.4768 305.614 64.4675C312.457 62.4581 319.631 66.3763 321.64 73.2193H321.637Z" fill="url(#paint13_linear_453_29578)"/>
            <path d="M322.147 79.0928C323.658 72.1239 319.235 65.2489 312.266 63.737C305.297 62.2252 298.422 66.6491 296.91 73.618C295.398 80.5869 299.822 87.4619 306.791 88.9738C313.76 90.4856 320.635 86.0617 322.147 79.0928Z" fill="url(#paint14_linear_453_29578)"/>
            <path style="mix-blend-mode:multiply" opacity="0.3" d="M305.886 63.9688C302.31 65.0182 299.538 67.4777 297.986 70.5662C299.594 67.8498 302.191 65.7103 305.458 64.754C312.301 62.7446 319.475 66.6628 321.484 73.5058C322.444 76.7728 322.05 80.1143 320.632 82.9348C322.388 79.9617 322.961 76.3002 321.912 72.7244C319.903 65.8814 312.729 61.9669 305.889 63.9726L305.886 63.9688Z" fill="url(#paint15_linear_453_29578)"/>
            <g clip-path="url(#clip3_453_29578)">
                <path d="M309.067 69.7141C308.873 69.6294 308.866 69.6239 308.965 69.6352C309.155 69.6556 309.576 69.8071 309.855 69.9556C310.505 70.3025 311.024 70.889 311.501 71.8131L311.627 72.0584L311.894 72.0852C313.018 72.1981 314.078 72.6245 314.885 73.2881C315.107 73.4712 315.444 73.8068 315.477 73.8788C315.489 73.9027 315.487 74.031 315.47 74.1661C315.42 74.6342 315.296 74.9688 315.089 75.1893C314.977 75.3093 314.961 75.3523 314.98 75.4862C314.991 75.5423 315.017 75.5941 315.056 75.6358C315.096 75.6775 315.146 75.7073 315.201 75.722C315.429 75.7823 315.771 75.4812 316.019 75.0009L316.118 74.8094L316.181 74.9342C316.526 75.6175 316.712 76.4729 316.636 77.0263L316.617 77.1707L316.568 77.0221C316.501 76.7961 316.385 76.5875 316.229 76.4107C315.957 76.1073 315.628 75.9408 314.719 75.6488C313.897 75.3855 313.445 75.1898 313.018 74.9146C312.291 74.446 311.981 73.9978 311.361 72.5166C311.086 71.8577 310.908 71.487 310.714 71.1754C310.274 70.466 309.775 70.0231 309.067 69.7152L309.067 69.7141Z" fill="white"/>
                <path d="M315.954 72.8417C316.071 72.4812 316.185 72.2521 316.344 72.0582C316.381 72.0083 316.423 71.9622 316.469 71.9208C316.475 71.9222 316.44 71.9822 316.393 72.0537C316.263 72.2496 316.172 72.539 316.134 72.8938C316.084 73.3436 316.103 73.4154 316.439 74.0041C316.597 74.2809 316.775 74.6227 316.835 74.7664L316.944 75.0255L316.819 74.8278C316.666 74.5859 316.299 74.0948 316.209 74.0148C316.15 73.9621 316.139 73.9593 316.086 73.9902C316.036 74.0184 316.013 74.0745 315.934 74.3484C315.812 74.7759 315.68 75.0358 315.466 75.2727C315.35 75.4032 315.346 75.3678 315.46 75.217C315.544 75.1058 315.565 75.0512 315.674 74.6357C315.895 73.8015 315.847 73.5735 315.353 73.0767C315.204 72.9283 315.047 72.787 314.885 72.6534C314.803 72.5926 314.726 72.5261 314.654 72.4542C314.674 72.4424 315.201 72.7589 315.407 72.9067C315.715 73.1286 315.766 73.1595 315.812 73.1555C315.842 73.1519 315.877 73.0748 315.953 72.8415L315.954 72.8417ZM308.76 72.468C308.498 71.7977 308.471 70.8681 308.697 70.2382L308.766 70.0433L308.856 70.0842C309.024 70.1632 309.296 70.3551 309.416 70.4787C309.742 70.8161 309.83 71.1697 309.791 72.0093C309.78 72.2552 309.776 72.5352 309.782 72.6336C309.793 72.7895 309.89 73.1732 309.982 73.4302C310.048 73.6158 309.957 73.6713 309.724 73.5866C309.368 73.4579 308.963 72.9882 308.76 72.468ZM313.971 78.322C312.254 77.0469 311.754 76.2008 312.051 75.076C312.095 74.9102 312.136 74.776 312.144 74.778C312.15 74.7797 312.21 74.8532 312.277 74.9432C312.584 75.3562 312.985 75.6038 314.146 76.0986C314.83 76.3897 315.206 76.5779 315.543 76.7971C316.614 77.4937 317.131 78.4688 317.022 79.5835C316.99 79.9066 316.808 80.4804 316.644 80.7653C316.515 80.9904 316.204 81.3745 316.148 81.3781C316.132 81.3795 316.132 81.3209 316.149 81.2447C316.235 80.8392 316.134 80.3944 315.869 80.0111C315.567 79.5755 315.115 79.1713 313.971 78.322ZM312.539 78.2854C312.552 78.1431 312.557 78.0002 312.553 77.8573L312.542 77.6989L312.606 77.8254C312.695 77.9986 312.748 78.2048 312.768 78.467C312.785 78.6671 312.777 78.7226 312.698 79.0197C312.621 79.3114 312.596 79.3705 312.493 79.5182C312.346 79.7389 312.149 79.922 311.918 80.0527C311.474 80.3151 310.971 80.3918 310.298 80.3015C310.181 80.2856 309.846 80.2222 309.552 80.1607C308.811 80.0052 308.309 79.9566 307.838 79.9931C307.794 80 307.75 79.9988 307.706 79.9895C307.694 79.9677 308.035 79.8713 308.308 79.8191C308.694 79.7449 309.058 79.7457 309.856 79.8218C310.249 79.859 310.66 79.8859 310.767 79.8819C311.777 79.8447 312.452 79.2367 312.539 78.2854Z" fill="white"/>
                <path d="M313.008 80.0725C312.897 79.4604 312.977 78.9184 313.247 78.4646C313.276 78.4147 313.311 78.379 313.326 78.383C313.34 78.3867 313.393 78.4352 313.44 78.4904C313.538 78.6003 313.738 78.7947 314.276 79.301C314.948 79.9334 315.309 80.38 315.513 80.837C315.692 81.2356 315.757 81.6548 315.716 82.1322C315.693 82.4025 315.501 83.0197 315.365 83.2626C314.937 84.0291 314.278 84.5458 313.478 84.7376C313.362 84.7654 313.258 84.7865 313.247 84.7836C313.238 84.781 313.3 84.6974 313.386 84.5967C313.75 84.1703 313.903 83.7028 313.865 83.1273C313.841 82.7743 313.724 82.3206 313.452 81.5338C313.136 80.6211 313.064 80.3798 313.008 80.0725ZM305.017 81.1072C305.889 80.6974 306.887 80.5075 307.73 80.5899C308.16 80.6465 308.578 80.7746 308.967 80.9687C309.449 81.2366 309.833 81.6539 309.981 82.0671C310.125 82.4725 310.147 82.7975 310.077 83.4905C310.049 83.7629 310.024 84.0386 310.021 84.1012C310.009 84.4664 310.09 84.7827 310.243 84.9705C310.486 85.2698 311.004 85.4215 311.567 85.3586C311.627 85.3482 311.688 85.3456 311.748 85.3511C311.761 85.3742 311.459 85.4773 311.254 85.5199C311.009 85.5773 310.754 85.5716 310.512 85.5035C310.044 85.3797 309.718 85.0402 309.52 84.472C309.455 84.2363 309.405 83.9968 309.369 83.7549C309.232 82.8883 309.125 82.6079 308.797 82.2435C308.51 81.9258 308.074 81.7679 307.694 81.8427C307.196 81.9413 306.926 82.4686 307.148 82.9075C307.256 83.0992 307.422 83.2508 307.624 83.3395C307.704 83.373 307.79 83.3887 307.877 83.3858C307.964 83.3828 308.05 83.3612 308.128 83.3224C308.206 83.2835 308.274 83.2284 308.329 83.1607C308.384 83.093 308.423 83.0144 308.445 82.9301C308.506 82.6965 308.451 82.5402 308.251 82.3768C307.977 82.1557 307.601 82.2303 307.526 82.5202C307.493 82.644 307.527 82.736 307.637 82.826C307.707 82.8826 307.709 82.8853 307.647 82.8551C307.378 82.7207 307.402 82.3619 307.69 82.1962C308.037 81.9978 308.574 82.2675 308.67 82.6903C308.711 82.868 308.639 83.1806 308.518 83.3491C308.246 83.7262 307.722 83.824 307.281 83.5782C306.979 83.411 306.872 83.2883 306.589 82.7884C306.097 81.919 305.871 81.7153 304.937 81.3073L304.758 81.2288L305.017 81.1072Z" fill="white"/>
                <path fill-rule="evenodd" clip-rule="evenodd" d="M305.119 67.9023C306.655 71.2171 307.911 72.7494 308.021 73.0317C308.111 73.2652 308.011 73.4275 307.731 73.5009C307.535 73.5421 307.333 73.5446 307.136 73.5083C306.978 73.4665 306.939 73.3917 306.939 73.3917C306.87 73.2814 306.815 73.2828 306.564 72.3286C306.328 71.6004 306.087 70.8741 305.841 70.1497C305.815 70.1083 305.816 70.1086 306.442 72.5232C306.517 73.0117 306.321 73.1317 306.305 73.1941C306.271 73.3211 306.218 73.3785 306.015 73.5124C305.675 73.7336 305.471 74.0298 305.207 74.6843C304.912 75.4182 304.503 75.8836 303.52 76.606C302.945 77.0287 302.848 77.1079 302.681 77.2963C302.471 77.5322 302.393 77.6751 302.287 78.0145C302.175 78.3751 302.144 78.618 302.164 78.9953C302.18 79.3266 302.23 79.5541 302.386 80.0259C302.52 80.4333 302.581 80.7258 302.554 80.8269C302.533 80.9066 302.548 80.9106 302.92 80.9248C303.804 80.9583 304.571 80.8085 305.06 80.5037C305.363 80.3155 305.454 80.1922 305.547 79.8494C305.608 79.6258 305.613 79.5765 305.585 79.4311C305.542 79.195 305.407 78.9717 305.081 78.5952C304.652 78.1017 304.503 77.7573 304.547 77.3485C304.58 77.0119 304.7 76.8004 305.147 76.275C305.611 75.7298 305.756 75.4835 305.972 74.8694C306.112 74.4721 306.199 74.3234 306.35 74.2252C306.508 74.1242 306.63 74.108 306.944 74.1474C307.456 74.2102 307.803 74.167 308.124 73.9985C308.25 73.9404 308.362 73.8554 308.451 73.7494C308.541 73.6433 308.606 73.5189 308.643 73.3849L308.713 73.1617L308.626 72.9842C308.311 72.3391 304.925 67.4088 304.897 67.4014C304.892 67.3999 304.991 67.6254 305.119 67.9023ZM303.377 78.7448C303.45 78.6707 303.491 78.5719 303.494 78.4683C303.497 78.3647 303.461 78.2638 303.393 78.1858C303.26 78.0354 302.993 78.0202 302.956 78.1591C302.945 78.2021 302.96 78.2396 303.007 78.2807C303.085 78.3509 303.078 78.4043 302.979 78.4921C302.878 78.5796 302.86 78.6749 302.925 78.7612C303.03 78.8984 303.232 78.8919 303.377 78.7448ZM308.634 74.7218C308.384 74.7306 308.094 74.9155 307.955 75.1529C307.872 75.2979 307.824 75.5789 307.866 75.6797C307.933 75.8437 308.023 75.9054 308.293 75.9757C308.821 76.1119 309.339 76.0082 309.468 75.7404C309.572 75.5214 309.455 75.1496 309.214 74.9352C309.046 74.8087 308.844 74.7345 308.634 74.7218ZM309.125 75.3642C309.236 75.2703 309.233 75.1372 309.117 75.0165C308.896 74.7867 308.462 74.8135 308.397 75.0611C308.364 75.1849 308.536 75.3743 308.727 75.4247C308.854 75.4583 309.048 75.429 309.125 75.3642Z" fill="white"/>
            </g>
            <g opacity="0.8">
                <path d="M323.058 67.03C321.755 68.2809 317.87 67.5134 314.381 65.317C310.892 63.1205 309.121 60.3254 310.425 59.0744C311.729 57.8235 315.614 58.591 319.102 60.7896C322.591 62.986 324.362 65.7811 323.058 67.0321L323.058 67.03Z" fill="url(#paint16_radial_453_29578)" style="mix-blend-mode:screen"/>
                <path d="M319.651 64.4479C319.128 65.1014 317.361 64.9438 315.705 64.0964C314.049 63.2491 313.131 62.0321 313.654 61.3785C314.177 60.725 315.943 60.8826 317.599 61.731C319.255 62.5784 320.173 63.7953 319.65 64.4489L319.651 64.4479Z" fill="url(#paint17_radial_453_29578)" style="mix-blend-mode:screen"/>
            </g>
        </g>
        <path d="M31.1566 63.8024L53.2926 80.163L82.573 77.5793L39.4161 238.643L-12.0003 224.866L31.1566 63.8024Z" fill="url(#paint18_linear_453_29578)"/>
        <g clip-path="url(#clip4_453_29578)">
            <path d="M82.4417 65.0352C86.4799 78.7785 77.0066 92.7414 63.2633 96.7735C49.52 100.812 35.1057 92.9366 31.0736 79.1933C27.0354 65.4561 34.6665 49.2484 48.4098 45.2102C62.1531 41.172 78.4035 51.2919 82.4417 65.0352Z" fill="url(#paint19_linear_453_29578)"/>
            <path d="M81.5336 78.5515C86.1855 64.9568 78.9359 50.1651 65.3412 45.5132C51.7466 40.8614 36.9549 48.111 32.303 61.7057C27.6512 75.3003 34.9008 90.092 48.4954 94.7439C62.0901 99.3957 76.8818 92.1461 81.5336 78.5515Z" fill="url(#paint20_linear_453_29578)"/>
            <path style="mix-blend-mode:screen" d="M49.587 45.1675C42.5537 47.2354 37.0576 52.0117 33.8978 58.0202C37.1125 52.3411 42.45 47.8515 49.2088 45.869C62.9948 41.8186 77.4518 49.7181 81.5022 63.5041C83.4847 70.2568 82.5941 77.1681 79.5563 82.9448C82.8991 77.0339 83.9483 69.8359 81.8804 62.8026C77.83 49.0166 63.373 41.1171 49.587 45.1675Z" fill="url(#paint21_linear_453_29578)"/>
            <path style="mix-blend-mode:screen" d="M76.7748 64.9925C80.0688 76.2104 73.6455 87.9712 62.4276 91.2652C51.2097 94.5592 39.4489 88.1359 36.161 76.918C32.867 65.7001 39.2903 53.9393 50.5082 50.6453C61.7261 47.3513 73.4869 53.7746 76.7809 64.9925H76.7748Z" fill="url(#paint22_linear_453_29578)"/>
            <path d="M77.6107 74.6213C80.0891 63.1968 72.8369 51.9263 61.4124 49.4479C49.9879 46.9695 38.7174 54.2217 36.239 65.6462C33.7606 77.0707 41.0128 88.3412 52.4373 90.8196C63.8618 93.298 75.1323 86.0458 77.6107 74.6213Z" fill="url(#paint23_linear_453_29578)"/>
            <path style="mix-blend-mode:multiply" opacity="0.3" d="M50.9535 49.8279C45.0914 51.5481 40.5469 55.5802 38.0032 60.6432C40.6384 56.1902 44.8962 52.6827 50.252 51.115C61.4699 47.821 73.2307 54.2443 76.5247 65.4622C78.0985 70.818 77.4519 76.2958 75.1278 80.9196C78.007 76.0457 78.9464 70.0433 77.2262 64.1812C73.9322 52.9633 62.1714 46.5461 50.9596 49.834L50.9535 49.8279Z" fill="url(#paint24_linear_453_29578)"/>
            <path fill-rule="evenodd" clip-rule="evenodd" d="M59.0781 75.2358C58.9445 75.2134 58.2566 75.0874 56.7443 74.716C55.5415 74.4207 54.6963 74.1749 54.4002 74.0871C49.802 72.7412 46.531 71.08 46.7689 70.1112C47.0068 69.1423 50.6749 69.1862 55.3743 70.1199L54.5981 73.2812C54.8967 73.3777 55.7545 73.6428 56.9573 73.9382C58.4007 74.2926 59.1383 74.41 59.2714 74.4299L60.0474 71.2697C64.6352 72.6154 67.8985 74.2747 67.6612 75.2413C67.4238 76.208 63.7642 76.1673 59.074 75.2336L59.0781 75.2358ZM60.1321 70.9438L60.8267 68.115L67.3002 69.7046L68.3594 65.3907L50.7345 61.0629L49.6753 65.3767L56.1476 66.966L55.4533 69.7938C50.1331 68.7436 45.921 68.8142 45.6143 70.063C45.3077 71.3118 49.0083 73.3243 54.2095 74.8588L51.9836 83.9239L56.6615 85.0726L58.8883 76.0042C64.1964 77.0514 68.4017 76.9803 68.7081 75.7326C69.0145 74.4849 65.3237 72.4749 60.1312 70.9425L60.1321 70.9438Z" fill="white"/>
        </g>
        <g opacity="0.7">
            <path d="M80.2606 55.2984C78.1961 57.2792 72.0446 56.0638 66.5201 52.5859C60.9957 49.108 58.1917 44.6821 60.2562 42.7013C62.3207 40.7205 68.4722 41.9358 73.996 45.4171C79.5205 48.895 82.3245 53.3209 80.26 55.3017L80.2606 55.2984Z" fill="url(#paint25_radial_453_29578)" style="mix-blend-mode:screen"/>
            <path d="M74.8644 51.2097C74.0364 52.2446 71.2397 51.995 68.6176 50.6533C65.9955 49.3115 64.5415 47.3845 65.3695 46.3497C66.1975 45.3148 68.9942 45.5644 71.6162 46.9078C74.2383 48.2495 75.6923 50.1765 74.8643 51.2113L74.8644 51.2097Z" fill="url(#paint26_radial_453_29578)" style="mix-blend-mode:screen"/>
        </g>
        <path d="M87.5941 36.1589L123.883 62.9797L171.883 58.7441L101.134 322.783L16.8451 300.198L87.5941 36.1589Z" fill="url(#paint27_linear_453_29578)"/>
        <g clip-path="url(#clip5_453_29578)">
            <path d="M171.668 38.18C178.288 60.71 162.758 83.6 140.228 90.21C117.698 96.83 94.068 83.92 87.458 61.39C80.838 38.87 93.348 12.3 115.878 5.68C138.408 -0.940004 165.048 15.65 171.668 38.18Z" fill="url(#paint28_linear_453_29578)"/>
            <path d="M170.179 60.3378C177.805 38.0515 165.921 13.8028 143.634 6.17679C121.348 -1.44918 97.0994 10.4354 89.4734 32.7217C81.8475 55.008 93.732 79.2567 116.018 86.8827C138.305 94.5087 162.553 82.6241 170.179 60.3378Z" fill="url(#paint29_linear_453_29578)"/>
            <path style="mix-blend-mode:screen" d="M117.808 5.60999C106.278 8.99999 97.268 16.83 92.088 26.68C97.358 17.37 106.108 10.01 117.188 6.75999C139.788 0.119995 163.488 13.07 170.128 35.67C173.378 46.74 171.918 58.07 166.938 67.54C172.418 57.85 174.138 46.05 170.748 34.52C164.108 11.92 140.408 -1.03001 117.808 5.60999Z" fill="url(#paint30_linear_453_29578)"/>
            <path style="mix-blend-mode:screen" d="M162.378 38.11C167.778 56.5 157.248 75.78 138.858 81.18C120.468 86.58 101.188 76.05 95.798 57.66C90.398 39.27 100.928 19.99 119.318 14.59C137.708 9.18999 156.988 19.72 162.388 38.11H162.378Z" fill="url(#paint31_linear_453_29578)"/>
            <path d="M163.748 53.8949C167.811 35.1662 155.922 16.69 137.194 12.627C118.465 8.56407 99.9888 20.4529 95.9259 39.1816C91.8629 57.9102 103.752 76.3865 122.48 80.4494C141.209 84.5124 159.685 72.6235 163.748 53.8949Z" fill="url(#paint32_linear_453_29578)"/>
            <path style="mix-blend-mode:multiply" opacity="0.3" d="M120.048 13.25C110.438 16.07 102.988 22.68 98.818 30.98C103.138 23.68 110.118 17.93 118.898 15.36C137.288 9.96 156.568 20.49 161.968 38.88C164.548 47.66 163.488 56.64 159.678 64.22C164.398 56.23 165.938 46.39 163.118 36.78C157.718 18.39 138.438 7.87 120.058 13.26L120.048 13.25Z" fill="url(#paint33_linear_453_29578)"/>
            <g opacity="0.7">
                <path d="M162.261 18.2984C160.196 20.2792 154.045 19.0638 148.52 15.5859C142.996 12.108 140.192 7.68208 142.256 5.70127C144.321 3.72046 150.472 4.9358 155.996 8.41707C161.521 11.895 164.324 16.3209 162.26 18.3017L162.261 18.2984Z" fill="url(#paint34_radial_453_29578)" style="mix-blend-mode:screen"/>
                <path d="M156.864 14.2097C156.036 15.2446 153.24 14.995 150.618 13.6533C147.995 12.3115 146.541 10.3845 147.369 9.34967C148.197 8.31483 150.994 8.56443 153.616 9.90777C156.238 11.2495 157.692 13.1765 156.864 14.2113L156.864 14.2097Z" fill="url(#paint35_radial_453_29578)" style="mix-blend-mode:screen"/>
            </g>
        </g>
        <path d="M136.719 19.5803L131.074 40.6475L146.748 53.3753L136.719 19.5803Z" fill="white" fill-opacity="0.6"/>
        <path d="M136.719 19.5803L111.133 43.8324L131.074 40.6475L136.719 19.5803Z" fill="white"/>
        <g filter="url(#filter0_b_453_29578)">
            <path d="M125.284 62.2563L121.448 76.5711L145.871 56.6942L125.284 62.2563Z" fill="white" fill-opacity="0.6"/>
        </g>
        <path d="M121.448 76.5711L125.284 62.2539L110.245 47.148L121.448 76.5711Z" fill="white"/>
        <path d="M126.171 58.943L146.748 53.3753L131.072 40.6523L126.171 58.943Z" fill="white" fill-opacity="0.2"/>
        <path d="M111.133 43.8323L126.171 58.943L131.072 40.6523L111.133 43.8323Z" fill="white" fill-opacity="0.6"/>
        <path d="M224.439 56.2033L246.575 72.5639L275.855 69.9802L232.698 231.044L181.282 217.267L224.439 56.2033Z" fill="url(#paint36_linear_453_29578)"/>
        <g clip-path="url(#clip6_453_29578)">
            <path d="M275.724 57.4361C279.762 71.1794 270.289 85.1423 256.546 89.1744C242.802 93.2126 228.388 85.3375 224.356 71.5942C220.318 57.857 227.949 41.6493 241.692 37.6111C255.435 33.5729 271.686 43.6928 275.724 57.4361Z" fill="url(#paint37_linear_453_29578)"/>
            <path d="M274.816 70.9524C279.468 57.3577 272.218 42.566 258.624 37.9142C245.029 33.2623 230.237 40.5119 225.585 54.1066C220.934 67.7012 228.183 82.4929 241.778 87.1448C255.372 91.7966 270.164 84.547 274.816 70.9524Z" fill="url(#paint38_linear_453_29578)"/>
            <path style="mix-blend-mode:screen" d="M242.869 37.5684C235.836 39.6363 230.34 44.4126 227.18 50.4211C230.395 44.742 235.732 40.2524 242.491 38.2699C256.277 34.2195 270.734 42.119 274.785 55.905C276.767 62.6577 275.876 69.569 272.839 75.3457C276.181 69.4348 277.231 62.2368 275.163 55.2035C271.112 41.4175 256.655 33.518 242.869 37.5684Z" fill="url(#paint39_linear_453_29578)"/>
            <path style="mix-blend-mode:screen" d="M270.057 57.3934C273.351 68.6113 266.928 80.3721 255.71 83.6661C244.492 86.9601 232.731 80.5368 229.443 69.3189C226.149 58.101 232.573 46.3402 243.791 43.0462C255.008 39.7522 266.769 46.1755 270.063 57.3934H270.057Z" fill="url(#paint40_linear_453_29578)"/>
            <path d="M270.893 67.0222C273.371 55.5977 266.119 44.3272 254.695 41.8488C243.27 39.3704 232 46.6226 229.521 58.0471C227.043 69.4716 234.295 80.7421 245.72 83.2205C257.144 85.6989 268.415 78.4467 270.893 67.0222Z" fill="url(#paint41_linear_453_29578)"/>
            <path style="mix-blend-mode:multiply" opacity="0.3" d="M244.236 42.2288C238.374 43.949 233.829 47.9811 231.286 53.0441C233.921 48.5911 238.179 45.0836 243.534 43.5159C254.752 40.2219 266.513 46.6452 269.807 57.8631C271.381 63.2189 270.734 68.6967 268.41 73.3205C271.289 68.4466 272.229 62.4442 270.509 56.5821C267.215 45.3642 255.454 38.947 244.242 42.2349L244.236 42.2288Z" fill="url(#paint42_linear_453_29578)"/>
            <g opacity="0.5">
                <path d="M273.261 47.2984C271.196 49.2792 265.045 48.0638 259.52 44.5859C253.996 41.108 251.192 36.6821 253.256 34.7013C255.321 32.7205 261.472 33.9358 266.996 37.4171C272.521 40.895 275.324 45.3209 273.26 47.3017L273.261 47.2984Z" fill="url(#paint43_radial_453_29578)" style="mix-blend-mode:screen"/>
                <path d="M267.864 43.2097C267.036 44.2446 264.24 43.995 261.618 42.6533C258.995 41.3115 257.541 39.3845 258.369 38.3497C259.197 37.3148 261.994 37.5644 264.616 38.9078C267.238 40.2495 268.692 42.1765 267.864 43.2113L267.864 43.2097Z" fill="url(#paint44_radial_453_29578)" style="mix-blend-mode:screen"/>
            </g>
        </g>
        <path d="M254.274 67.3864C255.337 64.5401 253.994 62.9262 250.73 61.2434C248.412 60.0065 248.167 59.1736 248.593 58.035C249.018 56.8963 250.105 56.4685 251.731 57.0762C253.195 57.6232 253.826 58.415 253.777 59.7867C253.767 60.0611 253.95 60.3148 254.194 60.406L255.495 60.8921C255.821 61.0137 256.156 60.8609 256.277 60.5357L256.308 60.4544C256.651 58.5436 255.704 56.6143 253.894 55.7528L254.623 53.8011C254.745 53.4757 254.592 53.1406 254.216 52.9073L252.996 52.4515C252.671 52.3299 252.336 52.4828 252.102 52.8591L251.403 54.7294C248.842 54.1432 246.69 55.1923 245.93 57.2254C244.927 59.9091 246.159 61.5738 249.422 63.2568C251.547 64.5142 252.097 65.2756 251.611 66.5768C251.124 67.878 249.652 68.347 248.107 67.7698C245.992 66.9797 245.594 65.8115 245.806 64.5005C245.847 64.145 245.663 63.8911 245.419 63.7999L244.037 63.2833C243.712 63.1618 243.377 63.3146 243.255 63.64L243.225 63.7214C242.79 65.8758 243.544 67.8258 246.076 69.2353L245.347 71.187C245.225 71.5122 245.378 71.8473 245.754 72.0806L246.974 72.5364C247.299 72.658 247.635 72.5052 247.868 72.129L248.597 70.1773C251.189 70.6821 253.453 69.5821 254.274 67.3864Z" fill="white"/>
        <path d="M241.569 72.37C236.076 67.723 235.467 59.4325 240.165 54.0518C242.661 51.092 246.317 49.4925 250.107 49.5185C250.493 49.4775 250.747 49.2943 250.899 48.8875L251.324 47.7491C251.446 47.4237 251.374 47.119 251.079 46.9162C250.998 46.8858 250.835 46.8251 250.724 46.8759C242.087 46.4289 234.789 53.0625 234.342 61.6996C234.104 66.8005 236.294 71.6041 240.301 74.7695C240.566 75.0536 240.952 75.0126 241.155 74.7176C241.266 74.6668 241.297 74.5855 241.358 74.4229L241.783 73.2842C241.874 73.0403 241.752 72.6239 241.569 72.37ZM259.669 50.2184C259.405 49.9343 259.019 49.9753 258.816 50.2703C258.704 50.3213 258.674 50.4024 258.613 50.5652L258.187 51.7037C258.066 52.029 258.188 52.4453 258.371 52.6993C263.864 57.3463 264.473 65.6368 259.775 71.0175C257.279 73.9773 253.623 75.5768 249.833 75.5508C249.447 75.5918 249.193 75.775 249.041 76.1818L248.616 77.3202C248.494 77.6456 248.566 77.9503 248.861 78.153C248.942 78.1835 249.105 78.2442 249.216 78.1934C257.854 78.6404 265.151 72.0068 265.598 63.3697C265.867 58.1874 263.595 53.3534 259.669 50.2184Z" fill="white"/>
    </g>
    <defs>
        <filter id="filter0_b_453_29578" x="111.273" y="46.5194" width="44.773" height="40.2264" filterUnits="userSpaceOnUse" color-interpolation-filters="sRGB">
            <feFlood flood-opacity="0" result="BackgroundImageFix"/>
            <feGaussianBlur in="BackgroundImageFix" stdDeviation="5.08737"/>
            <feComposite in2="SourceAlpha" operator="in" result="effect1_backgroundBlur_453_29578"/>
            <feBlend mode="normal" in="SourceGraphic" in2="effect1_backgroundBlur_453_29578" result="shape"/>
        </filter>
        <linearGradient id="paint0_linear_453_29578" x1="214.188" y1="67.9969" x2="159.832" y2="125.82" gradientUnits="userSpaceOnUse">
            <stop offset="0.159882" stop-color="#F15A24"/>
            <stop offset="0.442417" stop-color="#FBB03B" stop-opacity="0.55"/>
            <stop offset="0.66289" stop-color="#FBB03B" stop-opacity="0"/>
        </linearGradient>
        <linearGradient id="paint1_linear_453_29578" x1="207.098" y1="78.2607" x2="197.447" y2="95.9272" gradientUnits="userSpaceOnUse">
            <stop stop-color="#ACC0FF"/>
            <stop offset="0.3" stop-color="#8AC2FF"/>
            <stop offset="1" stop-color="#F3CDAA"/>
        </linearGradient>
        <linearGradient id="paint2_linear_453_29578" x1="215.865" y1="61.9831" x2="197.695" y2="95.2543" gradientUnits="userSpaceOnUse">
            <stop stop-color="#D2DCFF"/>
            <stop offset="0.3" stop-color="#BCD9FF"/>
            <stop offset="1" stop-color="#9AD5FF"/>
        </linearGradient>
        <linearGradient id="paint3_linear_453_29578" x1="215.76" y1="62.2031" x2="206.533" y2="79.0974" gradientUnits="userSpaceOnUse">
            <stop stop-color="#D2DCFF"/>
            <stop offset="0.3" stop-color="#BCD9FF"/>
            <stop offset="1" stop-color="#9AD5FF"/>
        </linearGradient>
        <linearGradient id="paint4_linear_453_29578" x1="193.329" y1="98.3072" x2="217.532" y2="62.3227" gradientUnits="userSpaceOnUse">
            <stop stop-color="#D2DCFF"/>
            <stop offset="0.3" stop-color="#BCD9FF"/>
            <stop offset="1" stop-color="#9AD5FF"/>
        </linearGradient>
        <linearGradient id="paint5_linear_453_29578" x1="193.62" y1="97.8247" x2="217.821" y2="61.8448" gradientUnits="userSpaceOnUse">
            <stop stop-color="#D2DCFF"/>
            <stop offset="0.3" stop-color="#BCD9FF"/>
            <stop offset="1" stop-color="#9AD5FF"/>
        </linearGradient>
        <linearGradient id="paint6_linear_453_29578" x1="203.043" y1="83.7479" x2="216.674" y2="63.482" gradientUnits="userSpaceOnUse">
            <stop stop-color="#D2DCFF"/>
            <stop offset="0.3" stop-color="#BCD9FF"/>
            <stop offset="1" stop-color="#9AD5FF"/>
        </linearGradient>
        <radialGradient id="paint7_radial_453_29578" cx="0" cy="0" r="1" gradientUnits="userSpaceOnUse" gradientTransform="translate(214.899 63.1949) rotate(32.2093) scale(7.44875 3.1724)">
            <stop offset="0.05" stop-color="#FEFFFE"/>
            <stop offset="0.5" stop-color="#F6F7FE" stop-opacity="0.5"/>
            <stop offset="1" stop-color="#B4DCFF" stop-opacity="0"/>
        </radialGradient>
        <radialGradient id="paint8_radial_453_29578" cx="0" cy="0" r="1" gradientUnits="userSpaceOnUse" gradientTransform="translate(214.729 62.9718) rotate(27.1163) scale(3.36091 1.48373)">
            <stop offset="0.05" stop-color="#FEFFFE"/>
            <stop offset="1" stop-color="white" stop-opacity="0"/>
        </radialGradient>
        <linearGradient id="paint9_linear_453_29578" x1="315.672" y1="67.9969" x2="254.239" y2="143.241" gradientUnits="userSpaceOnUse">
            <stop offset="0.0955355" stop-color="#FF007A"/>
            <stop offset="0.302619" stop-color="#E22EFF" stop-opacity="0.65"/>
            <stop offset="0.565002" stop-color="#AD00FF" stop-opacity="0"/>
        </linearGradient>
        <linearGradient id="paint10_linear_453_29578" x1="308.582" y1="78.2607" x2="298.931" y2="95.9272" gradientUnits="userSpaceOnUse">
            <stop stop-color="#ACC0FF"/>
            <stop offset="0.3" stop-color="#8AC2FF"/>
            <stop offset="1" stop-color="#DE9BF9"/>
        </linearGradient>
        <linearGradient id="paint11_linear_453_29578" x1="317.349" y1="61.9831" x2="299.179" y2="95.2543" gradientUnits="userSpaceOnUse">
            <stop stop-color="#D2DCFF"/>
            <stop offset="0.3" stop-color="#BCD9FF"/>
            <stop offset="1" stop-color="#9AD5FF"/>
        </linearGradient>
        <linearGradient id="paint12_linear_453_29578" x1="317.244" y1="62.2031" x2="308.017" y2="79.0974" gradientUnits="userSpaceOnUse">
            <stop stop-color="#D2DCFF"/>
            <stop offset="0.3" stop-color="#BCD9FF"/>
            <stop offset="1" stop-color="#9AD5FF"/>
        </linearGradient>
        <linearGradient id="paint13_linear_453_29578" x1="294.813" y1="98.3072" x2="319.016" y2="62.3227" gradientUnits="userSpaceOnUse">
            <stop stop-color="#D2DCFF"/>
            <stop offset="0.3" stop-color="#BCD9FF"/>
            <stop offset="1" stop-color="#9AD5FF"/>
        </linearGradient>
        <linearGradient id="paint14_linear_453_29578" x1="295.104" y1="97.8247" x2="319.304" y2="61.8448" gradientUnits="userSpaceOnUse">
            <stop stop-color="#D2DCFF"/>
            <stop offset="0.3" stop-color="#BCD9FF"/>
            <stop offset="1" stop-color="#9AD5FF"/>
        </linearGradient>
        <linearGradient id="paint15_linear_453_29578" x1="304.527" y1="83.7479" x2="318.158" y2="63.482" gradientUnits="userSpaceOnUse">
            <stop stop-color="#D2DCFF"/>
            <stop offset="0.3" stop-color="#BCD9FF"/>
            <stop offset="1" stop-color="#9AD5FF"/>
        </linearGradient>
        <radialGradient id="paint16_radial_453_29578" cx="0" cy="0" r="1" gradientUnits="userSpaceOnUse" gradientTransform="translate(316.899 63.1949) rotate(32.2093) scale(7.44875 3.1724)">
            <stop offset="0.05" stop-color="#FEFFFE"/>
            <stop offset="0.5" stop-color="#F6F7FE" stop-opacity="0.5"/>
            <stop offset="1" stop-color="#B4DCFF" stop-opacity="0"/>
        </radialGradient>
        <radialGradient id="paint17_radial_453_29578" cx="0" cy="0" r="1" gradientUnits="userSpaceOnUse" gradientTransform="translate(316.729 62.9718) rotate(27.1163) scale(3.36091 1.48373)">
            <stop offset="0.05" stop-color="#FEFFFE"/>
            <stop offset="1" stop-color="white" stop-opacity="0"/>
        </radialGradient>
        <linearGradient id="paint18_linear_453_29578" x1="78.0107" y1="56.4231" x2="-50.6378" y2="262.281" gradientUnits="userSpaceOnUse">
            <stop offset="0.10552" stop-color="#137E7E"/>
            <stop offset="0.129579" stop-color="#50AF95"/>
            <stop offset="0.320046" stop-color="#25B6AD" stop-opacity="0"/>
        </linearGradient>
        <linearGradient id="paint19_linear_453_29578" x1="55.3739" y1="73.2571" x2="39.5523" y2="102.219" gradientUnits="userSpaceOnUse">
            <stop stop-color="#ACC0FF"/>
            <stop offset="0.3" stop-color="#8AC2FF"/>
            <stop offset="1" stop-color="#88FFEE"/>
        </linearGradient>
        <linearGradient id="paint20_linear_453_29578" x1="69.7462" y1="46.5725" x2="39.959" y2="101.116" gradientUnits="userSpaceOnUse">
            <stop stop-color="#D2DCFF"/>
            <stop offset="0.3" stop-color="#BCD9FF"/>
            <stop offset="1" stop-color="#9AD5FF"/>
        </linearGradient>
        <linearGradient id="paint21_linear_453_29578" x1="69.573" y1="46.9333" x2="54.4478" y2="74.6288" gradientUnits="userSpaceOnUse">
            <stop stop-color="#D2DCFF"/>
            <stop offset="0.3" stop-color="#BCD9FF"/>
            <stop offset="1" stop-color="#9AD5FF"/>
        </linearGradient>
        <linearGradient id="paint22_linear_453_29578" x1="32.8018" y1="106.12" x2="72.4787" y2="47.1293" gradientUnits="userSpaceOnUse">
            <stop stop-color="#D2DCFF"/>
            <stop offset="0.3" stop-color="#BCD9FF"/>
            <stop offset="1" stop-color="#9AD5FF"/>
        </linearGradient>
        <linearGradient id="paint23_linear_453_29578" x1="33.2787" y1="105.329" x2="72.9515" y2="46.3458" gradientUnits="userSpaceOnUse">
            <stop stop-color="#D2DCFF"/>
            <stop offset="0.3" stop-color="#BCD9FF"/>
            <stop offset="1" stop-color="#9AD5FF"/>
        </linearGradient>
        <linearGradient id="paint24_linear_453_29578" x1="48.7264" y1="82.2526" x2="71.0721" y2="49.0298" gradientUnits="userSpaceOnUse">
            <stop stop-color="#D2DCFF"/>
            <stop offset="0.3" stop-color="#BCD9FF"/>
            <stop offset="1" stop-color="#9AD5FF"/>
        </linearGradient>
        <radialGradient id="paint25_radial_453_29578" cx="0" cy="0" r="1" gradientUnits="userSpaceOnUse" gradientTransform="translate(70.5078 49.2258) rotate(32.2093) scale(11.7946 5.02328)">
            <stop offset="0.05" stop-color="#FEFFFE"/>
            <stop offset="0.5" stop-color="#F6F7FE" stop-opacity="0.5"/>
            <stop offset="1" stop-color="#B4DCFF" stop-opacity="0"/>
        </radialGradient>
        <radialGradient id="paint26_radial_453_29578" cx="0" cy="0" r="1" gradientUnits="userSpaceOnUse" gradientTransform="translate(70.2385 48.8726) rotate(27.1163) scale(5.32176 2.34938)">
            <stop offset="0.05" stop-color="#FEFFFE"/>
            <stop offset="1" stop-color="white" stop-opacity="0"/>
        </radialGradient>
        <linearGradient id="paint27_linear_453_29578" x1="38.506" y1="280.075" x2="187.868" y2="87.5436" gradientUnits="userSpaceOnUse">
            <stop offset="0.628007" stop-color="#ED1E79" stop-opacity="0"/>
            <stop offset="0.798188" stop-color="#ED1E79" stop-opacity="0.53"/>
            <stop offset="0.983589" stop-color="#522785"/>
        </linearGradient>
        <linearGradient id="paint28_linear_453_29578" x1="127.295" y1="51.6585" x2="101.358" y2="99.1366" gradientUnits="userSpaceOnUse">
            <stop stop-color="#ACC0FF"/>
            <stop offset="0.3" stop-color="#8AC2FF"/>
            <stop offset="1" stop-color="#EDAAD3"/>
        </linearGradient>
        <linearGradient id="paint29_linear_453_29578" x1="150.856" y1="7.91331" x2="102.024" y2="97.3281" gradientUnits="userSpaceOnUse">
            <stop stop-color="#D2DCFF"/>
            <stop offset="0.3" stop-color="#BCD9FF"/>
            <stop offset="1" stop-color="#9AD5FF"/>
        </linearGradient>
        <linearGradient id="paint30_linear_453_29578" x1="150.572" y1="8.50473" x2="125.776" y2="53.9072" gradientUnits="userSpaceOnUse">
            <stop stop-color="#D2DCFF"/>
            <stop offset="0.3" stop-color="#BCD9FF"/>
            <stop offset="1" stop-color="#9AD5FF"/>
        </linearGradient>
        <linearGradient id="paint31_linear_453_29578" x1="90.2911" y1="105.533" x2="155.335" y2="8.82602" gradientUnits="userSpaceOnUse">
            <stop stop-color="#D2DCFF"/>
            <stop offset="0.3" stop-color="#BCD9FF"/>
            <stop offset="1" stop-color="#9AD5FF"/>
        </linearGradient>
        <linearGradient id="paint32_linear_453_29578" x1="91.0729" y1="104.236" x2="156.11" y2="7.54164" gradientUnits="userSpaceOnUse">
            <stop stop-color="#D2DCFF"/>
            <stop offset="0.3" stop-color="#BCD9FF"/>
            <stop offset="1" stop-color="#9AD5FF"/>
        </linearGradient>
        <linearGradient id="paint33_linear_453_29578" x1="116.397" y1="66.4051" x2="153.029" y2="11.9417" gradientUnits="userSpaceOnUse">
            <stop stop-color="#D2DCFF"/>
            <stop offset="0.3" stop-color="#BCD9FF"/>
            <stop offset="1" stop-color="#9AD5FF"/>
        </linearGradient>
        <radialGradient id="paint34_radial_453_29578" cx="0" cy="0" r="1" gradientUnits="userSpaceOnUse" gradientTransform="translate(152.508 12.2258) rotate(32.2093) scale(11.7946 5.02328)">
            <stop offset="0.05" stop-color="#FEFFFE"/>
            <stop offset="0.5" stop-color="#F6F7FE" stop-opacity="0.5"/>
            <stop offset="1" stop-color="#B4DCFF" stop-opacity="0"/>
        </radialGradient>
        <radialGradient id="paint35_radial_453_29578" cx="0" cy="0" r="1" gradientUnits="userSpaceOnUse" gradientTransform="translate(152.239 11.8726) rotate(27.1163) scale(5.32176 2.34938)">
            <stop offset="0.05" stop-color="#FEFFFE"/>
            <stop offset="1" stop-color="white" stop-opacity="0"/>
        </radialGradient>
        <linearGradient id="paint36_linear_453_29578" x1="271.293" y1="48.824" x2="225.268" y2="257.253" gradientUnits="userSpaceOnUse">
            <stop offset="0.04446" stop-color="#3B00B9"/>
            <stop offset="0.260155" stop-color="#2586B6" stop-opacity="0.51"/>
            <stop offset="0.33887" stop-color="#2586B6" stop-opacity="0"/>
        </linearGradient>
        <linearGradient id="paint37_linear_453_29578" x1="248.656" y1="65.658" x2="232.835" y2="94.6196" gradientUnits="userSpaceOnUse">
            <stop stop-color="#ACC0FF"/>
            <stop offset="0.3" stop-color="#8AC2FF"/>
            <stop offset="1" stop-color="#88FFEE"/>
        </linearGradient>
        <linearGradient id="paint38_linear_453_29578" x1="263.029" y1="38.9734" x2="233.241" y2="93.5165" gradientUnits="userSpaceOnUse">
            <stop stop-color="#D2DCFF"/>
            <stop offset="0.3" stop-color="#BCD9FF"/>
            <stop offset="1" stop-color="#9AD5FF"/>
        </linearGradient>
        <linearGradient id="paint39_linear_453_29578" x1="262.855" y1="39.3342" x2="247.73" y2="67.0297" gradientUnits="userSpaceOnUse">
            <stop stop-color="#D2DCFF"/>
            <stop offset="0.3" stop-color="#BCD9FF"/>
            <stop offset="1" stop-color="#9AD5FF"/>
        </linearGradient>
        <linearGradient id="paint40_linear_453_29578" x1="226.084" y1="98.5212" x2="265.761" y2="39.5302" gradientUnits="userSpaceOnUse">
            <stop stop-color="#D2DCFF"/>
            <stop offset="0.3" stop-color="#BCD9FF"/>
            <stop offset="1" stop-color="#9AD5FF"/>
        </linearGradient>
        <linearGradient id="paint41_linear_453_29578" x1="226.561" y1="97.7302" x2="266.234" y2="38.7467" gradientUnits="userSpaceOnUse">
            <stop stop-color="#D2DCFF"/>
            <stop offset="0.3" stop-color="#BCD9FF"/>
            <stop offset="1" stop-color="#9AD5FF"/>
        </linearGradient>
        <linearGradient id="paint42_linear_453_29578" x1="242.009" y1="74.6535" x2="264.354" y2="41.4307" gradientUnits="userSpaceOnUse">
            <stop stop-color="#D2DCFF"/>
            <stop offset="0.3" stop-color="#BCD9FF"/>
            <stop offset="1" stop-color="#9AD5FF"/>
        </linearGradient>
        <radialGradient id="paint43_radial_453_29578" cx="0" cy="0" r="1" gradientUnits="userSpaceOnUse" gradientTransform="translate(263.508 41.2258) rotate(32.2093) scale(11.7946 5.02328)">
            <stop offset="0.05" stop-color="#FEFFFE"/>
            <stop offset="0.5" stop-color="#F6F7FE" stop-opacity="0.5"/>
            <stop offset="1" stop-color="#B4DCFF" stop-opacity="0"/>
        </radialGradient>
        <radialGradient id="paint44_radial_453_29578" cx="0" cy="0" r="1" gradientUnits="userSpaceOnUse" gradientTransform="translate(263.239 40.8726) rotate(27.1163) scale(5.32176 2.34938)">
            <stop offset="0.05" stop-color="#FEFFFE"/>
            <stop offset="1" stop-color="white" stop-opacity="0"/>
        </radialGradient>
        <clipPath id="clip0_453_29578">
            <rect width="332" height="114" rx="8" fill="white"/>
        </clipPath>
        <clipPath id="clip1_453_29578">
            <rect width="33.2211" height="35.703" fill="white" transform="translate(191.616 57.5501)"/>
        </clipPath>
        <clipPath id="clip2_453_29578">
            <rect width="33.2211" height="35.703" fill="white" transform="translate(293.1 57.5501)"/>
        </clipPath>
        <clipPath id="clip3_453_29578">
            <rect width="15.5871" height="16.7005" fill="white" transform="translate(305.04 66.8632) rotate(14.8078)"/>
        </clipPath>
        <clipPath id="clip4_453_29578">
            <rect width="54.4608" height="58.5295" fill="white" transform="translate(29.9939 39.3054)"/>
        </clipPath>
        <clipPath id="clip5_453_29578">
            <rect width="89.28" height="95.95" fill="white" transform="translate(85.688 -4)"/>
        </clipPath>
        <clipPath id="clip6_453_29578">
            <rect width="54.4608" height="58.5295" fill="white" transform="translate(223.276 31.7063)"/>
        </clipPath>
    </defs>
</svg>
