<svg width="416" height="143" viewBox="0 0 416 143" fill="none" xmlns="http://www.w3.org/2000/svg">
    <rect width="416" height="142.843" rx="8" fill="#14141A"/>
    <path d="M203.461 113.831H206.7V101.263C205.59 100.848 204.509 100.374 203.461 99.8449V113.831Z" fill="url(#paint0_linear_2088_1035)"/>
    <path d="M201.223 98.6013L198.295 113.323L195.118 112.691L198.317 96.6081C199.247 97.3232 200.217 97.9889 201.223 98.6013Z" fill="url(#paint1_linear_2088_1035)"/>
    <path d="M196.731 95.3067L190.154 111.184L187.162 109.945L194.233 92.8743C195.021 93.729 195.855 94.5411 196.731 95.3067Z" fill="url(#paint2_linear_2088_1035)"/>
    <path d="M193.169 91.6623L182.587 107.498L179.894 105.699L191.11 88.9137C191.748 89.8668 192.435 90.7843 193.169 91.6623Z" fill="url(#paint3_linear_2088_1035)"/>
    <path d="M190.431 87.8569L175.882 102.407L173.591 100.117L188.815 84.8924C189.304 85.9112 189.843 86.9005 190.431 87.8569Z" fill="url(#paint4_linear_2088_1035)"/>
    <path d="M188.406 84.003L170.294 96.1049L168.495 93.4119L187.221 80.8994C187.564 81.9589 187.96 82.9945 188.406 84.003Z" fill="url(#paint5_linear_2088_1035)"/>
    <path d="M186.992 80.1623L166.054 88.8351L164.815 85.8427L186.219 76.9767C186.424 78.0586 186.683 79.1214 186.992 80.1623Z" fill="url(#paint6_linear_2088_1035)"/>
    <path d="M186.106 76.3416L163.306 80.8766L162.674 77.7L185.727 73.1146C185.8 74.206 185.927 75.2825 186.106 76.3416Z" fill="url(#paint7_linear_2088_1035)"/>
    <path d="M185.693 72.5355H162.166V69.2966H185.693C185.666 69.8331 185.653 70.373 185.653 70.9161C185.653 71.4591 185.666 71.999 185.693 72.5355Z" fill="url(#paint8_linear_2088_1035)"/>
    <path d="M185.727 68.7174L162.674 64.132L163.306 60.9553L186.106 65.4904C185.927 66.5495 185.8 67.626 185.727 68.7174Z" fill="url(#paint9_linear_2088_1035)"/>
    <path d="M186.219 64.8563L164.812 55.9893L166.052 52.9969L186.992 61.6707C186.682 62.7116 186.424 63.7744 186.219 64.8563Z" fill="url(#paint10_linear_2088_1035)"/>
    <path d="M187.222 60.9308L168.498 48.4201L170.297 45.7271L188.407 57.8273C187.961 58.8358 187.565 59.8714 187.222 60.9308Z" fill="url(#paint11_linear_2088_1035)"/>
    <path d="M188.815 56.9401L173.591 41.7155L175.881 39.4253L190.431 53.9756C189.843 54.932 189.303 55.9213 188.815 56.9401Z" fill="url(#paint12_linear_2088_1035)"/>
    <path d="M191.108 52.9217L179.89 36.133L182.583 34.3336L193.166 50.1727C192.433 51.0508 191.746 51.9684 191.108 52.9217Z" fill="url(#paint13_linear_2088_1035)"/>
    <path d="M194.232 48.9585L187.161 31.8872L190.153 30.6478L196.73 46.526C195.855 47.2917 195.021 48.1038 194.232 48.9585Z" fill="url(#paint14_linear_2088_1035)"/>
    <path d="M198.32 45.2218L195.122 29.1414L198.298 28.5095L201.226 43.2291C200.22 43.8413 199.25 44.5069 198.32 45.2218Z" fill="url(#paint15_linear_2088_1035)"/>
    <path d="M203.461 41.9873V28.0008H206.7V40.5688C205.59 40.9838 204.509 41.4579 203.461 41.9873Z" fill="url(#paint16_linear_2088_1035)"/>
    <path d="M209.652 39.6244L211.863 28.5095L215.04 29.1414L213.098 38.9022C211.928 39.0814 210.778 39.3234 209.652 39.6244Z" fill="url(#paint17_linear_2088_1035)"/>
    <path d="M216.733 38.5532L220.008 30.6478L223 31.8872L220.22 38.5993C219.5 38.5515 218.774 38.5272 218.042 38.5272C217.604 38.5272 217.167 38.5359 216.733 38.5532Z" fill="url(#paint18_linear_2088_1035)"/>
    <path d="M224.365 39.1441L227.579 34.3337L230.272 36.1331L227.695 39.9901C226.608 39.6513 225.497 39.3682 224.365 39.1441Z" fill="url(#paint19_linear_2088_1035)"/>
    <path d="M232.018 41.6896L234.283 39.4253L236.573 41.7155L234.983 43.3056C234.026 42.7175 233.037 42.1777 232.018 41.6896Z" fill="url(#paint20_linear_2088_1035)"/>
    <path d="M239.053 46.2663L239.86 45.7271L241.659 48.4201L241.467 48.5487C240.702 47.7476 239.896 46.9857 239.053 46.2663Z" fill="url(#paint21_linear_2088_1035)"/>
    <path d="M241.468 93.282L241.663 93.4118L239.863 96.1049L239.055 95.5645C239.898 94.8451 240.703 94.0832 241.468 93.282Z" fill="url(#paint22_linear_2088_1035)"/>
    <path d="M234.982 98.5268L236.572 100.116L234.282 102.407L232.018 100.143C233.037 99.6546 234.026 99.1149 234.982 98.5268Z" fill="url(#paint23_linear_2088_1035)"/>
    <path d="M227.691 101.843L230.268 105.699L227.575 107.498L224.361 102.689C225.493 102.465 226.605 102.182 227.691 101.843Z" fill="url(#paint24_linear_2088_1035)"/>
    <path d="M220.219 103.233L222.999 109.945L220.007 111.184L216.732 103.279C217.167 103.296 217.603 103.305 218.042 103.305C218.774 103.305 219.499 103.281 220.219 103.233Z" fill="url(#paint25_linear_2088_1035)"/>
    <path d="M213.101 102.93L215.043 112.691L211.866 113.323L209.656 102.209C210.781 102.51 211.931 102.751 213.101 102.93Z" fill="url(#paint26_linear_2088_1035)"/>
    <path d="M205.896 40.8809C205.349 41.1025 204.809 41.3386 204.276 41.5888V51.4985C204.545 51.4875 204.815 51.4819 205.086 51.4819C205.358 51.4819 205.627 51.4875 205.896 51.4985V40.8809Z" fill="url(#paint27_linear_2088_1035)"/>
    <path d="M200.493 43.6882L202.089 51.7117C201.552 51.7949 201.022 51.9 200.5 52.0262L199.04 44.6836C199.515 44.3391 199.999 44.0071 200.493 43.6882Z" fill="url(#paint28_linear_2088_1035)"/>
    <path d="M196.094 47.0969L198.399 52.6631C197.89 52.8496 197.391 53.0568 196.903 53.2837L194.844 48.3123C195.25 47.8961 195.666 47.4908 196.094 47.0969Z" fill="url(#paint29_linear_2088_1035)"/>
    <path d="M192.635 50.8249L194.97 54.3193C194.509 54.6013 194.06 54.902 193.625 55.2203L191.605 52.1986C191.937 51.7314 192.28 51.2733 192.635 50.8249Z" fill="url(#paint30_linear_2088_1035)"/>
    <path d="M190.004 54.69C189.722 55.1761 189.453 55.6702 189.196 56.1718L190.783 57.7594C191.149 57.362 191.531 56.9799 191.928 56.6142L190.004 54.69Z" fill="url(#paint31_linear_2088_1035)"/>
    <path d="M188.085 58.5802L189.391 59.4534C189.073 59.8886 188.772 60.3375 188.49 60.799L187.492 60.1316C187.676 59.6082 187.874 59.0909 188.085 58.5802Z" fill="url(#paint32_linear_2088_1035)"/>
    <path d="M186.77 62.4526C186.628 62.9784 186.499 63.5094 186.383 64.0453L186.833 64.2317C187.019 63.7227 187.226 63.2237 187.453 62.7357L186.77 62.4526Z" fill="url(#paint33_linear_2088_1035)"/>
    <path d="M185.981 66.2895L186.197 66.3324C186.07 66.8541 185.965 67.384 185.882 67.9211L185.791 67.903C185.841 67.3612 185.905 66.8233 185.981 66.2895Z" fill="url(#paint34_linear_2088_1035)"/>
    <path d="M185.663 70.1054C185.656 70.3746 185.653 70.6446 185.653 70.9153C185.653 71.186 185.656 71.4558 185.663 71.7249H185.67C185.659 71.4564 185.653 71.1866 185.653 70.9153C185.653 70.6441 185.659 70.374 185.67 70.1054H185.663Z" fill="url(#paint35_linear_2088_1035)"/>
    <path d="M185.791 73.9273L185.882 73.9092C185.965 74.4463 186.07 74.9762 186.197 75.4979L185.981 75.5408C185.905 75.007 185.841 74.4691 185.791 73.9273Z" fill="url(#paint36_linear_2088_1035)"/>
    <path d="M186.383 77.7846C186.499 78.3206 186.628 78.8516 186.77 79.3773L187.453 79.0943C187.226 78.6063 187.019 78.1073 186.833 77.5983L186.383 77.7846Z" fill="url(#paint37_linear_2088_1035)"/>
    <path d="M187.491 81.6984L188.49 81.031C188.772 81.4926 189.073 81.9415 189.391 82.3767L188.084 83.2498C187.874 82.7391 187.676 82.2218 187.491 81.6984Z" fill="url(#paint38_linear_2088_1035)"/>
    <path d="M189.195 85.6584C189.452 86.1601 189.722 86.6541 190.004 87.1402L191.928 85.216C191.531 84.8503 191.149 84.4682 190.783 84.0708L189.195 85.6584Z" fill="url(#paint39_linear_2088_1035)"/>
    <path d="M191.605 89.6319L193.624 86.6101C194.06 86.9284 194.509 87.2291 194.97 87.5111L192.635 91.0056C192.28 90.5572 191.937 90.0991 191.605 89.6319Z" fill="url(#paint40_linear_2088_1035)"/>
    <path d="M194.847 93.5211C195.252 93.9372 195.669 94.3424 196.096 94.7362L198.402 89.1685C197.894 88.9821 197.395 88.775 196.907 88.5482L194.847 93.5211Z" fill="url(#paint41_linear_2088_1035)"/>
    <path d="M199.043 97.1494L200.504 89.8051C201.026 89.9312 201.555 90.0363 202.093 90.1193L200.496 98.1447C200.002 97.8258 199.518 97.4939 199.043 97.1494Z" fill="url(#paint42_linear_2088_1035)"/>
    <path d="M204.276 100.242C204.809 100.492 205.349 100.728 205.896 100.95V90.332C205.627 90.343 205.358 90.3485 205.086 90.3485C204.815 90.3485 204.545 90.343 204.276 90.3319V100.242Z" fill="url(#paint43_linear_2088_1035)"/>
    <path d="M210.526 102.428L208.078 90.1197C208.615 90.0368 209.145 89.9318 209.666 89.8058L212.248 102.787C211.669 102.683 211.094 102.563 210.526 102.428Z" fill="url(#paint44_linear_2088_1035)"/>
    <path d="M217.621 103.301C217.761 103.303 217.902 103.304 218.042 103.304C218.485 103.304 218.926 103.295 219.364 103.278L213.264 88.5494C212.776 88.7761 212.277 88.9831 211.768 89.1695L217.621 103.301Z" fill="url(#paint45_linear_2088_1035)"/>
    <path d="M225.22 102.506L215.201 87.512C215.663 87.2301 216.112 86.9295 216.547 86.6112L226.884 102.082C226.335 102.238 225.78 102.379 225.22 102.506Z" fill="url(#paint46_linear_2088_1035)"/>
    <path d="M228.252 107.045L228.254 107.048L229.601 106.148L229.599 106.145L228.252 107.045Z" fill="url(#paint47_linear_2088_1035)"/>
    <path d="M234.856 101.832L234.857 101.833L236.002 100.688L236.001 100.687L234.856 101.832Z" fill="url(#paint48_linear_2088_1035)"/>
    <path d="M232.785 99.7616C233.287 99.5047 233.781 99.2351 234.267 98.9532L219.387 84.0734C219.022 84.4707 218.64 84.8527 218.242 85.2184L232.785 99.7616Z" fill="url(#paint49_linear_2088_1035)"/>
    <path d="M239.688 95.0085L220.782 82.3757C221.101 81.9405 221.401 81.4916 221.683 81.03L240.895 93.8669C240.503 94.2575 240.1 94.6382 239.688 95.0085Z" fill="url(#paint50_linear_2088_1035)"/>
    <path d="M240.315 95.4274L240.321 95.4308L241.22 94.0843L241.215 94.0809L240.315 95.4274Z" fill="url(#paint51_linear_2088_1035)"/>
    <path d="M222.719 79.0961L244.423 88.0863L245.043 86.5901L223.339 77.6002C223.153 78.1092 222.946 78.6081 222.719 79.0961Z" fill="url(#paint52_linear_2088_1035)"/>
    <path d="M247.018 80.0817L223.976 75.4984C224.102 74.9768 224.207 74.4469 224.29 73.9098L247.334 78.4934L247.018 80.0817Z" fill="url(#paint53_linear_2088_1035)"/>
    <path d="M224.503 71.7249H248V70.1054H224.503C224.514 70.374 224.52 70.644 224.52 70.9152C224.52 71.1864 224.514 71.4564 224.503 71.7249Z" fill="url(#paint54_linear_2088_1035)"/>
    <path d="M247.334 63.337L224.29 67.9205C224.207 67.3834 224.102 66.8535 223.976 66.3319L247.018 61.7486L247.334 63.337Z" fill="url(#paint55_linear_2088_1035)"/>
    <path d="M223.339 64.2298L245.042 55.2403L244.422 53.7442L222.719 62.7339C222.946 63.2218 223.153 63.7208 223.339 64.2298Z" fill="url(#paint56_linear_2088_1035)"/>
    <path d="M240.894 47.9633L221.683 60.8001C221.401 60.3385 221.1 59.8895 220.782 59.4543L239.688 46.8218C240.1 47.192 240.502 47.5727 240.894 47.9633Z" fill="url(#paint57_linear_2088_1035)"/>
    <path d="M241.213 47.7507L241.22 47.746L240.32 46.3995L240.313 46.4042L241.213 47.7507Z" fill="url(#paint58_linear_2088_1035)"/>
    <path d="M232.785 42.0688L218.242 56.6118C218.639 56.9775 219.021 57.3595 219.387 57.7568L234.267 42.8772C233.781 42.5953 233.287 42.3257 232.785 42.0688Z" fill="url(#paint59_linear_2088_1035)"/>
    <path d="M226.884 39.7483L216.547 55.2193C216.112 54.901 215.663 54.6003 215.201 54.3184L225.22 39.3246C225.78 39.4514 226.335 39.5928 226.884 39.7483Z" fill="url(#paint60_linear_2088_1035)"/>
    <path d="M229.6 35.6835L229.601 35.6824L228.254 34.7827L228.254 34.7838L229.6 35.6835Z" fill="url(#paint61_linear_2088_1035)"/>
    <path d="M222.257 31.5787L222.258 31.5766L220.762 30.9568L220.761 30.959L222.257 31.5787Z" fill="url(#paint62_linear_2088_1035)"/>
    <path d="M219.368 38.5532L213.267 53.2825C212.779 53.0557 212.28 52.8486 211.771 52.6622L217.625 38.5291C217.764 38.5274 217.903 38.5265 218.042 38.5265C218.486 38.5265 218.928 38.5355 219.368 38.5532Z" fill="url(#paint63_linear_2088_1035)"/>
    <path d="M212.252 39.0425L209.67 52.0256C209.148 51.8994 208.618 51.7944 208.081 51.7113L210.53 39.4022C211.098 39.2671 211.673 39.1471 212.252 39.0425Z" fill="url(#paint64_linear_2088_1035)"/>
    <path d="M214.253 28.9825L214.253 28.9842L212.665 28.6683L212.665 28.6666L214.253 28.9825Z" fill="url(#paint65_linear_2088_1035)"/>
    <defs>
        <linearGradient id="paint0_linear_2088_1035" x1="201.914" y1="113.831" x2="201.914" y2="28.0008" gradientUnits="userSpaceOnUse">
            <stop stop-color="#00CADD"/>
            <stop offset="1" stop-color="#016DFC"/>
        </linearGradient>
        <linearGradient id="paint1_linear_2088_1035" x1="201.914" y1="113.831" x2="201.914" y2="28.0008" gradientUnits="userSpaceOnUse">
            <stop stop-color="#00CADD"/>
            <stop offset="1" stop-color="#016DFC"/>
        </linearGradient>
        <linearGradient id="paint2_linear_2088_1035" x1="201.914" y1="113.831" x2="201.914" y2="28.0008" gradientUnits="userSpaceOnUse">
            <stop stop-color="#00CADD"/>
            <stop offset="1" stop-color="#016DFC"/>
        </linearGradient>
        <linearGradient id="paint3_linear_2088_1035" x1="201.914" y1="113.831" x2="201.914" y2="28.0008" gradientUnits="userSpaceOnUse">
            <stop stop-color="#00CADD"/>
            <stop offset="1" stop-color="#016DFC"/>
        </linearGradient>
        <linearGradient id="paint4_linear_2088_1035" x1="201.914" y1="113.831" x2="201.914" y2="28.0008" gradientUnits="userSpaceOnUse">
            <stop stop-color="#00CADD"/>
            <stop offset="1" stop-color="#016DFC"/>
        </linearGradient>
        <linearGradient id="paint5_linear_2088_1035" x1="201.914" y1="113.831" x2="201.914" y2="28.0008" gradientUnits="userSpaceOnUse">
            <stop stop-color="#00CADD"/>
            <stop offset="1" stop-color="#016DFC"/>
        </linearGradient>
        <linearGradient id="paint6_linear_2088_1035" x1="201.914" y1="113.831" x2="201.914" y2="28.0008" gradientUnits="userSpaceOnUse">
            <stop stop-color="#00CADD"/>
            <stop offset="1" stop-color="#016DFC"/>
        </linearGradient>
        <linearGradient id="paint7_linear_2088_1035" x1="201.914" y1="113.831" x2="201.914" y2="28.0008" gradientUnits="userSpaceOnUse">
            <stop stop-color="#00CADD"/>
            <stop offset="1" stop-color="#016DFC"/>
        </linearGradient>
        <linearGradient id="paint8_linear_2088_1035" x1="201.914" y1="113.831" x2="201.914" y2="28.0008" gradientUnits="userSpaceOnUse">
            <stop stop-color="#00CADD"/>
            <stop offset="1" stop-color="#016DFC"/>
        </linearGradient>
        <linearGradient id="paint9_linear_2088_1035" x1="201.914" y1="113.831" x2="201.914" y2="28.0008" gradientUnits="userSpaceOnUse">
            <stop stop-color="#00CADD"/>
            <stop offset="1" stop-color="#016DFC"/>
        </linearGradient>
        <linearGradient id="paint10_linear_2088_1035" x1="201.914" y1="113.831" x2="201.914" y2="28.0008" gradientUnits="userSpaceOnUse">
            <stop stop-color="#00CADD"/>
            <stop offset="1" stop-color="#016DFC"/>
        </linearGradient>
        <linearGradient id="paint11_linear_2088_1035" x1="201.914" y1="113.831" x2="201.914" y2="28.0008" gradientUnits="userSpaceOnUse">
            <stop stop-color="#00CADD"/>
            <stop offset="1" stop-color="#016DFC"/>
        </linearGradient>
        <linearGradient id="paint12_linear_2088_1035" x1="201.914" y1="113.831" x2="201.914" y2="28.0008" gradientUnits="userSpaceOnUse">
            <stop stop-color="#00CADD"/>
            <stop offset="1" stop-color="#016DFC"/>
        </linearGradient>
        <linearGradient id="paint13_linear_2088_1035" x1="201.914" y1="113.831" x2="201.914" y2="28.0008" gradientUnits="userSpaceOnUse">
            <stop stop-color="#00CADD"/>
            <stop offset="1" stop-color="#016DFC"/>
        </linearGradient>
        <linearGradient id="paint14_linear_2088_1035" x1="201.914" y1="113.831" x2="201.914" y2="28.0008" gradientUnits="userSpaceOnUse">
            <stop stop-color="#00CADD"/>
            <stop offset="1" stop-color="#016DFC"/>
        </linearGradient>
        <linearGradient id="paint15_linear_2088_1035" x1="201.914" y1="113.831" x2="201.914" y2="28.0008" gradientUnits="userSpaceOnUse">
            <stop stop-color="#00CADD"/>
            <stop offset="1" stop-color="#016DFC"/>
        </linearGradient>
        <linearGradient id="paint16_linear_2088_1035" x1="201.914" y1="113.831" x2="201.914" y2="28.0008" gradientUnits="userSpaceOnUse">
            <stop stop-color="#00CADD"/>
            <stop offset="1" stop-color="#016DFC"/>
        </linearGradient>
        <linearGradient id="paint17_linear_2088_1035" x1="201.914" y1="113.831" x2="201.914" y2="28.0008" gradientUnits="userSpaceOnUse">
            <stop stop-color="#00CADD"/>
            <stop offset="1" stop-color="#016DFC"/>
        </linearGradient>
        <linearGradient id="paint18_linear_2088_1035" x1="201.914" y1="113.831" x2="201.914" y2="28.0008" gradientUnits="userSpaceOnUse">
            <stop stop-color="#00CADD"/>
            <stop offset="1" stop-color="#016DFC"/>
        </linearGradient>
        <linearGradient id="paint19_linear_2088_1035" x1="201.914" y1="113.831" x2="201.914" y2="28.0008" gradientUnits="userSpaceOnUse">
            <stop stop-color="#00CADD"/>
            <stop offset="1" stop-color="#016DFC"/>
        </linearGradient>
        <linearGradient id="paint20_linear_2088_1035" x1="201.914" y1="113.831" x2="201.914" y2="28.0008" gradientUnits="userSpaceOnUse">
            <stop stop-color="#00CADD"/>
            <stop offset="1" stop-color="#016DFC"/>
        </linearGradient>
        <linearGradient id="paint21_linear_2088_1035" x1="201.914" y1="113.831" x2="201.914" y2="28.0008" gradientUnits="userSpaceOnUse">
            <stop stop-color="#00CADD"/>
            <stop offset="1" stop-color="#016DFC"/>
        </linearGradient>
        <linearGradient id="paint22_linear_2088_1035" x1="201.914" y1="113.831" x2="201.914" y2="28.0008" gradientUnits="userSpaceOnUse">
            <stop stop-color="#00CADD"/>
            <stop offset="1" stop-color="#016DFC"/>
        </linearGradient>
        <linearGradient id="paint23_linear_2088_1035" x1="201.914" y1="113.831" x2="201.914" y2="28.0008" gradientUnits="userSpaceOnUse">
            <stop stop-color="#00CADD"/>
            <stop offset="1" stop-color="#016DFC"/>
        </linearGradient>
        <linearGradient id="paint24_linear_2088_1035" x1="201.914" y1="113.831" x2="201.914" y2="28.0008" gradientUnits="userSpaceOnUse">
            <stop stop-color="#00CADD"/>
            <stop offset="1" stop-color="#016DFC"/>
        </linearGradient>
        <linearGradient id="paint25_linear_2088_1035" x1="201.914" y1="113.831" x2="201.914" y2="28.0008" gradientUnits="userSpaceOnUse">
            <stop stop-color="#00CADD"/>
            <stop offset="1" stop-color="#016DFC"/>
        </linearGradient>
        <linearGradient id="paint26_linear_2088_1035" x1="201.914" y1="113.831" x2="201.914" y2="28.0008" gradientUnits="userSpaceOnUse">
            <stop stop-color="#00CADD"/>
            <stop offset="1" stop-color="#016DFC"/>
        </linearGradient>
        <linearGradient id="paint27_linear_2088_1035" x1="230.145" y1="65.1247" x2="187.066" y2="67.3389" gradientUnits="userSpaceOnUse">
            <stop stop-color="#02E9C6"/>
            <stop offset="1" stop-opacity="0"/>
        </linearGradient>
        <linearGradient id="paint28_linear_2088_1035" x1="230.145" y1="65.1247" x2="187.066" y2="67.3389" gradientUnits="userSpaceOnUse">
            <stop stop-color="#02E9C6"/>
            <stop offset="1" stop-opacity="0"/>
        </linearGradient>
        <linearGradient id="paint29_linear_2088_1035" x1="230.145" y1="65.1247" x2="187.066" y2="67.3389" gradientUnits="userSpaceOnUse">
            <stop stop-color="#02E9C6"/>
            <stop offset="1" stop-opacity="0"/>
        </linearGradient>
        <linearGradient id="paint30_linear_2088_1035" x1="230.145" y1="65.1247" x2="187.066" y2="67.3389" gradientUnits="userSpaceOnUse">
            <stop stop-color="#02E9C6"/>
            <stop offset="1" stop-opacity="0"/>
        </linearGradient>
        <linearGradient id="paint31_linear_2088_1035" x1="230.145" y1="65.1247" x2="187.066" y2="67.3389" gradientUnits="userSpaceOnUse">
            <stop stop-color="#02E9C6"/>
            <stop offset="1" stop-opacity="0"/>
        </linearGradient>
        <linearGradient id="paint32_linear_2088_1035" x1="230.145" y1="65.1247" x2="187.066" y2="67.3389" gradientUnits="userSpaceOnUse">
            <stop stop-color="#02E9C6"/>
            <stop offset="1" stop-opacity="0"/>
        </linearGradient>
        <linearGradient id="paint33_linear_2088_1035" x1="230.145" y1="65.1247" x2="187.066" y2="67.3389" gradientUnits="userSpaceOnUse">
            <stop stop-color="#02E9C6"/>
            <stop offset="1" stop-opacity="0"/>
        </linearGradient>
        <linearGradient id="paint34_linear_2088_1035" x1="230.145" y1="65.1247" x2="187.066" y2="67.3389" gradientUnits="userSpaceOnUse">
            <stop stop-color="#02E9C6"/>
            <stop offset="1" stop-opacity="0"/>
        </linearGradient>
        <linearGradient id="paint35_linear_2088_1035" x1="230.145" y1="65.1247" x2="187.066" y2="67.3389" gradientUnits="userSpaceOnUse">
            <stop stop-color="#02E9C6"/>
            <stop offset="1" stop-opacity="0"/>
        </linearGradient>
        <linearGradient id="paint36_linear_2088_1035" x1="230.145" y1="65.1247" x2="187.066" y2="67.3389" gradientUnits="userSpaceOnUse">
            <stop stop-color="#02E9C6"/>
            <stop offset="1" stop-opacity="0"/>
        </linearGradient>
        <linearGradient id="paint37_linear_2088_1035" x1="230.145" y1="65.1247" x2="187.066" y2="67.3389" gradientUnits="userSpaceOnUse">
            <stop stop-color="#02E9C6"/>
            <stop offset="1" stop-opacity="0"/>
        </linearGradient>
        <linearGradient id="paint38_linear_2088_1035" x1="230.145" y1="65.1247" x2="187.066" y2="67.3389" gradientUnits="userSpaceOnUse">
            <stop stop-color="#02E9C6"/>
            <stop offset="1" stop-opacity="0"/>
        </linearGradient>
        <linearGradient id="paint39_linear_2088_1035" x1="230.145" y1="65.1247" x2="187.066" y2="67.3389" gradientUnits="userSpaceOnUse">
            <stop stop-color="#02E9C6"/>
            <stop offset="1" stop-opacity="0"/>
        </linearGradient>
        <linearGradient id="paint40_linear_2088_1035" x1="230.145" y1="65.1247" x2="187.066" y2="67.3389" gradientUnits="userSpaceOnUse">
            <stop stop-color="#02E9C6"/>
            <stop offset="1" stop-opacity="0"/>
        </linearGradient>
        <linearGradient id="paint41_linear_2088_1035" x1="230.145" y1="65.1247" x2="187.066" y2="67.3389" gradientUnits="userSpaceOnUse">
            <stop stop-color="#02E9C6"/>
            <stop offset="1" stop-opacity="0"/>
        </linearGradient>
        <linearGradient id="paint42_linear_2088_1035" x1="230.145" y1="65.1247" x2="187.066" y2="67.3389" gradientUnits="userSpaceOnUse">
            <stop stop-color="#02E9C6"/>
            <stop offset="1" stop-opacity="0"/>
        </linearGradient>
        <linearGradient id="paint43_linear_2088_1035" x1="230.145" y1="65.1247" x2="187.066" y2="67.3389" gradientUnits="userSpaceOnUse">
            <stop stop-color="#02E9C6"/>
            <stop offset="1" stop-opacity="0"/>
        </linearGradient>
        <linearGradient id="paint44_linear_2088_1035" x1="230.145" y1="65.1247" x2="187.066" y2="67.3389" gradientUnits="userSpaceOnUse">
            <stop stop-color="#02E9C6"/>
            <stop offset="1" stop-opacity="0"/>
        </linearGradient>
        <linearGradient id="paint45_linear_2088_1035" x1="230.145" y1="65.1247" x2="187.066" y2="67.3389" gradientUnits="userSpaceOnUse">
            <stop stop-color="#02E9C6"/>
            <stop offset="1" stop-opacity="0"/>
        </linearGradient>
        <linearGradient id="paint46_linear_2088_1035" x1="230.145" y1="65.1247" x2="187.066" y2="67.3389" gradientUnits="userSpaceOnUse">
            <stop stop-color="#02E9C6"/>
            <stop offset="1" stop-opacity="0"/>
        </linearGradient>
        <linearGradient id="paint47_linear_2088_1035" x1="230.145" y1="65.1247" x2="187.066" y2="67.3389" gradientUnits="userSpaceOnUse">
            <stop stop-color="#02E9C6"/>
            <stop offset="1" stop-opacity="0"/>
        </linearGradient>
        <linearGradient id="paint48_linear_2088_1035" x1="230.145" y1="65.1247" x2="187.066" y2="67.3389" gradientUnits="userSpaceOnUse">
            <stop stop-color="#02E9C6"/>
            <stop offset="1" stop-opacity="0"/>
        </linearGradient>
        <linearGradient id="paint49_linear_2088_1035" x1="230.145" y1="65.1247" x2="187.066" y2="67.3389" gradientUnits="userSpaceOnUse">
            <stop stop-color="#02E9C6"/>
            <stop offset="1" stop-opacity="0"/>
        </linearGradient>
        <linearGradient id="paint50_linear_2088_1035" x1="230.145" y1="65.1247" x2="187.066" y2="67.3389" gradientUnits="userSpaceOnUse">
            <stop stop-color="#02E9C6"/>
            <stop offset="1" stop-opacity="0"/>
        </linearGradient>
        <linearGradient id="paint51_linear_2088_1035" x1="230.145" y1="65.1247" x2="187.066" y2="67.3389" gradientUnits="userSpaceOnUse">
            <stop stop-color="#02E9C6"/>
            <stop offset="1" stop-opacity="0"/>
        </linearGradient>
        <linearGradient id="paint52_linear_2088_1035" x1="230.145" y1="65.1247" x2="187.066" y2="67.3389" gradientUnits="userSpaceOnUse">
            <stop stop-color="#02E9C6"/>
            <stop offset="1" stop-opacity="0"/>
        </linearGradient>
        <linearGradient id="paint53_linear_2088_1035" x1="230.145" y1="65.1247" x2="187.066" y2="67.3389" gradientUnits="userSpaceOnUse">
            <stop stop-color="#02E9C6"/>
            <stop offset="1" stop-opacity="0"/>
        </linearGradient>
        <linearGradient id="paint54_linear_2088_1035" x1="230.145" y1="65.1247" x2="187.066" y2="67.3389" gradientUnits="userSpaceOnUse">
            <stop stop-color="#02E9C6"/>
            <stop offset="1" stop-opacity="0"/>
        </linearGradient>
        <linearGradient id="paint55_linear_2088_1035" x1="230.145" y1="65.1247" x2="187.066" y2="67.3389" gradientUnits="userSpaceOnUse">
            <stop stop-color="#02E9C6"/>
            <stop offset="1" stop-opacity="0"/>
        </linearGradient>
        <linearGradient id="paint56_linear_2088_1035" x1="230.145" y1="65.1247" x2="187.066" y2="67.3389" gradientUnits="userSpaceOnUse">
            <stop stop-color="#02E9C6"/>
            <stop offset="1" stop-opacity="0"/>
        </linearGradient>
        <linearGradient id="paint57_linear_2088_1035" x1="230.145" y1="65.1247" x2="187.066" y2="67.3389" gradientUnits="userSpaceOnUse">
            <stop stop-color="#02E9C6"/>
            <stop offset="1" stop-opacity="0"/>
        </linearGradient>
        <linearGradient id="paint58_linear_2088_1035" x1="230.145" y1="65.1247" x2="187.066" y2="67.3389" gradientUnits="userSpaceOnUse">
            <stop stop-color="#02E9C6"/>
            <stop offset="1" stop-opacity="0"/>
        </linearGradient>
        <linearGradient id="paint59_linear_2088_1035" x1="230.145" y1="65.1247" x2="187.066" y2="67.3389" gradientUnits="userSpaceOnUse">
            <stop stop-color="#02E9C6"/>
            <stop offset="1" stop-opacity="0"/>
        </linearGradient>
        <linearGradient id="paint60_linear_2088_1035" x1="230.145" y1="65.1247" x2="187.066" y2="67.3389" gradientUnits="userSpaceOnUse">
            <stop stop-color="#02E9C6"/>
            <stop offset="1" stop-opacity="0"/>
        </linearGradient>
        <linearGradient id="paint61_linear_2088_1035" x1="230.145" y1="65.1247" x2="187.066" y2="67.3389" gradientUnits="userSpaceOnUse">
            <stop stop-color="#02E9C6"/>
            <stop offset="1" stop-opacity="0"/>
        </linearGradient>
        <linearGradient id="paint62_linear_2088_1035" x1="230.145" y1="65.1247" x2="187.066" y2="67.3389" gradientUnits="userSpaceOnUse">
            <stop stop-color="#02E9C6"/>
            <stop offset="1" stop-opacity="0"/>
        </linearGradient>
        <linearGradient id="paint63_linear_2088_1035" x1="230.145" y1="65.1247" x2="187.066" y2="67.3389" gradientUnits="userSpaceOnUse">
            <stop stop-color="#02E9C6"/>
            <stop offset="1" stop-opacity="0"/>
        </linearGradient>
        <linearGradient id="paint64_linear_2088_1035" x1="230.145" y1="65.1247" x2="187.066" y2="67.3389" gradientUnits="userSpaceOnUse">
            <stop stop-color="#02E9C6"/>
            <stop offset="1" stop-opacity="0"/>
        </linearGradient>
        <linearGradient id="paint65_linear_2088_1035" x1="230.145" y1="65.1247" x2="187.066" y2="67.3389" gradientUnits="userSpaceOnUse">
            <stop stop-color="#02E9C6"/>
            <stop offset="1" stop-opacity="0"/>
        </linearGradient>
    </defs>
</svg>
