<svg width="513" height="120" viewBox="0 0 513 120" fill="none" xmlns="http://www.w3.org/2000/svg">
    <g clip-path="url(#clip0_17203_23893)">
        <rect width="513" height="120" rx="16" fill="url(#paint0_linear_17203_23893)"/>
        <path d="M454.129 180.534L458.471 177.696C459.701 176.891 460.473 175.536 460.536 174.057C460.879 166.128 462.205 139.407 465.445 113.31C469.002 84.6827 473.441 38.58 474.126 31.4098C474.175 30.889 473.792 30.4285 473.273 30.3872L382.065 23.3101C381.606 23.2745 381.145 23.3194 380.701 23.4393L376.216 24.659L454.129 180.534Z" fill="black"/>
        <path d="M431.233 172.084L454.13 180.534L469.588 32.8036C469.641 32.3008 469.273 31.8544 468.774 31.8175L376.217 24.6589L365.809 145.154L431.233 172.084Z" fill="#0066FF"/>
        <path d="M415.747 161.949C412.034 172.096 416.667 183.401 426.432 188.024C426.847 188.22 427.341 188.025 427.511 187.594C431.261 178.081 467.422 84.9603 469.332 26.814C469.341 26.529 469.132 26.2838 468.85 26.2482C466.923 26.0034 465.083 27.1235 464.416 28.9475L415.747 161.949Z" fill="url(#paint1_linear_17203_23893)"/>
        <path d="M465.788 19.6762C462.321 20.2371 408.664 21.2188 362.313 7.85499C362.012 7.76645 361.708 7.98454 361.694 8.29899C361.306 16.006 357.495 92.1918 317.863 135.544C315.131 138.532 321.961 131.061 319.676 138.167C319.008 140.244 318.631 155.387 319.195 157.494C321.124 164.706 309.618 150.788 314.22 156.355C315.432 157.821 316.882 159.451 318.617 161.26C324.052 166.925 330.488 171.015 337.377 171.681C345.601 172.476 358.821 174.74 365.538 177.417C384.687 185.05 393.321 187.557 400.828 187.853C401.856 187.894 402.855 187.51 403.599 186.788C410.846 179.75 449.456 137.423 466.412 20.3034C466.464 19.9354 466.151 19.6172 465.788 19.6762Z" fill="white"/>
        <path d="M433.421 88.5762C436.71 88.8859 438.642 89.032 438.705 89.0364C438.953 89.055 439.169 88.8693 439.186 88.6218C439.206 88.3777 439.024 88.1645 438.78 88.1414C438.777 88.1412 438.774 88.1409 438.771 88.1406C438.565 88.1254 417.832 86.5588 395.448 82.643C395.203 82.6006 394.971 82.7638 394.93 83.0084C394.886 83.2527 395.05 83.4853 395.293 83.528C410.956 86.2679 425.812 87.8598 433.421 88.5762Z" fill="#CADDFF"/>
        <path d="M406.192 95.3971C406.427 95.4192 406.641 95.2529 406.676 95.0152C406.714 94.7704 406.543 94.5416 406.3 94.5058C388.351 91.8542 374.042 88.7021 363.766 85.1364C363.533 85.0552 363.274 85.1788 363.192 85.4132C363.113 85.6479 363.236 85.9038 363.472 85.9852C373.798 89.5689 388.163 92.7347 406.168 95.3942C406.174 95.3954 406.183 95.3962 406.192 95.3971Z" fill="#CADDFF"/>
        <path d="M432.879 98.6227C435.026 98.8248 436.256 98.9238 436.286 98.9263C436.534 98.9461 436.75 98.7615 436.77 98.5144C436.79 98.2669 436.606 98.0469 436.358 98.0308C436.284 98.0247 429.011 97.4392 418.746 96.1824C418.505 96.1558 418.279 96.3279 418.246 96.5739C418.217 96.8202 418.392 97.0442 418.638 97.0743C424.725 97.8198 429.767 98.3297 432.879 98.6227Z" fill="#CADDFF"/>
        <path d="M431.658 108.608C431.903 108.631 432.121 108.452 432.147 108.206C432.171 107.959 431.993 107.739 431.745 107.714C431.233 107.662 380.396 102.423 354.919 93.001C354.687 92.915 354.429 93.0339 354.341 93.2665C354.256 93.4992 354.376 93.7577 354.608 93.8437C380.193 103.306 431.143 108.556 431.655 108.608C431.655 108.608 431.655 108.608 431.658 108.608Z" fill="#CADDFF"/>
        <path d="M421.477 131.278C421.71 131.3 421.924 131.137 421.961 130.902C422.002 130.657 421.834 130.427 421.588 130.387C421.257 130.334 388.161 124.997 362.931 118.023C362.694 117.956 362.446 118.097 362.382 118.336C362.314 118.576 362.453 118.823 362.693 118.889C387.97 125.876 421.116 131.221 421.448 131.275C421.457 131.276 421.465 131.277 421.477 131.278Z" fill="#CADDFF"/>
        <path d="M395.669 35.7387C395.913 35.7617 396.131 35.5867 396.157 35.3425C396.187 35.0956 396.009 34.8744 395.762 34.8451C387.53 33.9166 377.288 32.092 367.506 30.3017C367.261 30.2546 367.029 30.4162 366.985 30.6617C366.941 30.9043 367.103 31.139 367.345 31.1829C377.144 32.9778 387.401 34.8068 395.663 35.7381C395.666 35.7384 395.666 35.7384 395.669 35.7387Z" fill="#ABC5F4"/>
        <path d="M393.851 45.3223C394.093 45.345 394.311 45.17 394.34 44.9261C394.369 44.6792 394.192 44.4579 393.945 44.4287C383.558 43.2191 374.899 41.745 365.865 39.6462C365.624 39.5904 365.381 39.739 365.325 39.9804C365.269 40.2218 365.418 40.4643 365.662 40.5204C374.728 42.6283 383.42 44.1085 393.843 45.3214C393.846 45.3217 393.848 45.322 393.851 45.3223Z" fill="#ABC5F4"/>
        <path d="M396.138 55.7405C396.382 55.7635 396.6 55.5855 396.627 55.3383C396.653 55.0911 396.472 54.8726 396.228 54.8466C383.927 53.553 373.727 51.4165 363.863 49.3478C363.621 49.298 363.384 49.4531 363.331 49.6948C363.281 49.9367 363.436 50.1769 363.678 50.2268C373.566 52.2977 383.789 54.4424 396.132 55.7399C396.135 55.7402 396.135 55.7402 396.138 55.7405Z" fill="#ABC5F4"/>
        <path d="M386.859 81.9475C387.083 81.9686 387.293 81.8157 387.341 81.5883C387.388 81.3452 387.23 81.1083 386.988 81.0597C380.543 79.7689 374.623 78.3728 369.388 76.9102C369.151 76.8437 368.903 76.9831 368.836 77.2221C368.768 77.4609 368.907 77.7086 369.148 77.7755C374.402 79.2442 380.346 80.6458 386.812 81.9406C386.827 81.9435 386.841 81.9458 386.859 81.9475Z" fill="#CADDFF"/>
        <path d="M213.665 107.989L221.518 107.046L213.775 101.112C213.637 100.949 213.469 100.82 213.272 100.725L213.26 100.715L213.258 100.717C213.136 100.659 213.003 100.615 212.861 100.583L212.863 100.579L212.739 100.559C212.688 100.551 212.637 100.54 212.583 100.535L149.709 90.5821L145.591 89.9092C145.429 89.8482 145.251 89.7991 145.043 89.7736L132.081 87.8027C131.901 87.7535 131.706 87.723 131.496 87.7146H131.492C130.582 87.6807 129.404 88.0398 128.161 88.8076C125.615 90.3771 123.764 93.0495 124.024 94.7764C124.147 95.6087 124.743 96.0662 125.604 96.1459L139.291 98.0576C139.434 98.0745 139.579 98.0829 139.728 98.0812L141.783 98.3558L206.664 108.64C206.877 108.709 207.115 108.748 207.373 108.753L207.386 108.755V108.753C207.691 108.756 208.027 108.712 208.38 108.624L213.665 107.989Z" fill="#D3E1F7"/>
        <path d="M142.023 85.1782L129.296 83.092C129.106 83.036 128.911 83.0038 128.711 83.0005H128.708C127.84 82.9835 126.894 83.4462 126.066 84.4037C124.372 86.3645 123.812 89.6371 124.815 91.7165C125.296 92.7181 126.054 93.2554 126.898 93.3299L140.552 95.2891C144.855 95.8348 146.328 85.7239 142.023 85.1782Z" fill="white"/>
        <path d="M141.31 95.2719L139.412 90.5046L124.463 87.854C124.198 89.2301 124.293 90.6351 124.815 91.7163C125.296 92.7179 126.054 93.2552 126.898 93.3297L140.552 95.2889C140.815 95.3211 141.068 95.3143 141.31 95.2719Z" fill="#CBD1F2"/>
        <path d="M134.782 94.4601C134.782 94.4601 133.726 92.179 134.261 89.5911C134.624 87.8387 136.29 85.0085 138.363 84.5204L147.026 85.9982L143.016 95.5854L134.782 94.4601Z" fill="#F9A56E"/>
        <path d="M143.313 85.3862L210.557 96.458L209.018 106.469L142.218 95.4547L143.313 85.3862Z" fill="#F9A56E"/>
        <path d="M221.501 104.046L211.647 97.0784C211.446 96.8852 211.229 96.7343 211.002 96.6242L210.988 96.6124V96.6157C209.882 96.0903 208.527 96.5327 207.48 97.9325C205.986 99.9323 205.687 103.12 206.813 105.052C207.561 106.335 208.744 106.738 209.892 106.286L221.501 104.046Z" fill="white"/>
        <path d="M206.138 101.951C206.096 103.09 206.314 104.195 206.812 105.052C207.56 106.335 208.744 106.738 209.892 106.286L221.501 104.046L206.138 101.951Z" fill="#CBD1F2"/>
        <path d="M221.501 104.046L216.599 100.581C216.599 100.581 213.298 100.893 214.563 105.384L221.501 104.046Z" fill="#85A0CD"/>
        <path d="M253.672 52.9955L252.434 46.2383C252.253 45.3108 252.863 44.4114 253.795 44.2626C255.827 43.9379 257.848 43.6534 259.83 43.4096C260.699 43.302 261.499 43.8931 261.666 44.7532L262.942 51.7461C262.942 51.7461 253.321 53.0532 253.672 52.9955Z" fill="#0166FF"/>
        <path d="M262.944 51.7503C262.944 51.7503 261.55 51.9344 260.702 52.0494L259.43 45.0882C259.264 44.2276 258.464 43.637 257.594 43.7442C256.326 43.9005 255.026 44.1002 253.733 44.2892C253.756 44.2846 253.774 44.2693 253.797 44.2654C255.828 43.9407 257.849 43.6566 259.831 43.4123C260.701 43.3052 261.5 43.8958 261.667 44.7563L262.944 51.7503Z" fill="#448EFF"/>
        <path d="M253.679 53.3288C253.679 53.3288 255.04 52.9781 255.871 52.7673L254.446 45.8357C254.279 44.9751 254.8 44.1285 255.647 43.9027C256.881 43.5734 258.162 43.2722 259.432 42.9646C259.408 42.9689 259.387 42.961 259.364 42.9664C257.358 43.4246 255.378 43.9166 253.449 44.4311C252.602 44.6568 252.081 45.5035 252.248 46.364L253.679 53.3288Z" fill="#0E469B"/>
        <path d="M260.96 101.252L261.031 108.12C261.031 109.063 261.8 109.832 262.745 109.8C264.8 109.733 266.838 109.626 268.83 109.491C269.705 109.43 270.377 108.697 270.377 107.821L270.299 100.711C270.299 100.711 260.604 101.263 260.96 101.252Z" fill="#0166FF"/>
        <path d="M270.3 100.707C270.3 100.707 268.897 100.793 268.042 100.843L268.12 107.917C268.12 108.793 267.447 109.526 266.573 109.587C265.298 109.676 263.984 109.726 262.679 109.786C262.702 109.786 262.722 109.797 262.746 109.797C264.801 109.729 266.839 109.623 268.832 109.487C269.706 109.427 270.378 108.693 270.378 107.817L270.3 100.707Z" fill="#448EFF"/>
        <path d="M260.902 100.925C260.902 100.925 262.305 101.01 263.161 101.056L263.083 108.134C263.083 109.01 263.755 109.74 264.629 109.801C265.904 109.89 267.219 109.943 268.523 110.004C268.5 110.004 268.48 110.014 268.457 110.014C266.401 109.947 264.363 109.84 262.371 109.701C261.496 109.64 260.824 108.911 260.824 108.035L260.902 100.925Z" fill="#0E469B"/>
        <path d="M260.96 101.252L261.031 108.12C261.031 109.063 261.8 109.832 262.745 109.8C264.8 109.733 266.838 109.626 268.83 109.491C269.705 109.43 270.377 108.697 270.377 107.821L270.299 100.711C270.299 100.711 260.604 101.263 260.96 101.252Z" stroke="black" stroke-width="0.79237" stroke-miterlimit="10" stroke-linecap="round" stroke-linejoin="round"/>
        <path d="M248.995 53.5884L247.617 46.8579C247.437 45.9307 246.535 45.3244 245.615 45.5348C243.609 45.993 241.629 46.4851 239.699 46.9999C238.853 47.2256 238.332 48.0723 238.499 48.9328L239.929 55.8958C239.929 55.8958 249.342 53.5104 248.995 53.5884Z" fill="#0166FF"/>
        <path d="M239.929 55.9002C239.929 55.9002 241.29 55.5495 242.121 55.3391L240.696 48.4071C240.529 47.5469 241.05 46.6999 241.897 46.4742C243.131 46.1448 244.412 45.844 245.682 45.536C245.658 45.5403 245.637 45.5325 245.614 45.5378C243.608 45.996 241.628 46.488 239.699 47.0025C238.852 47.2282 238.331 48.0753 238.498 48.9354L239.929 55.9002Z" fill="#0E469B"/>
        <path d="M249.113 53.8992C249.113 53.8992 247.72 54.0829 246.871 54.1983L245.6 47.2367C245.433 46.3762 244.633 45.7855 243.763 45.8927C242.495 46.049 241.195 46.2487 239.902 46.4377C239.925 46.4331 239.943 46.4178 239.966 46.4143C241.997 46.0892 244.018 45.8051 246 45.5608C246.87 45.4537 247.669 46.0443 247.836 46.9049L249.113 53.8992Z" fill="#448EFF"/>
        <path d="M256.255 101.562L256.184 108.43C256.184 109.373 255.415 110.142 254.471 110.11C252.415 110.043 250.377 109.936 248.385 109.797C247.51 109.736 246.838 109.006 246.838 108.131L246.916 101.021C246.916 101.021 256.61 101.569 256.255 101.562Z" fill="#0166FF"/>
        <path d="M246.915 101.017C246.915 101.017 248.318 101.103 249.174 101.149L249.096 108.227C249.096 109.103 249.768 109.836 250.642 109.897C251.917 109.982 253.231 110.036 254.536 110.096C254.513 110.096 254.493 110.107 254.47 110.107C252.413 110.039 250.376 109.933 248.383 109.797C247.509 109.737 246.837 109.003 246.837 108.127L246.915 101.017Z" fill="#0E469B"/>
        <path d="M256.312 101.231C256.312 101.231 254.909 101.316 254.053 101.366L254.131 108.441C254.131 109.32 253.459 110.05 252.585 110.11C251.31 110.199 249.995 110.253 248.69 110.31C248.714 110.313 248.734 110.324 248.757 110.324C250.813 110.256 252.851 110.15 254.843 110.011C255.717 109.95 256.39 109.22 256.39 108.341L256.312 101.231Z" fill="#448EFF"/>
        <path d="M256.255 101.562L256.184 108.43C256.184 109.373 255.415 110.142 254.471 110.11C252.415 110.043 250.377 109.936 248.385 109.797C247.51 109.736 246.838 109.006 246.838 108.131L246.916 101.021C246.916 101.021 256.61 101.569 256.255 101.562Z" stroke="black" stroke-width="0.79237" stroke-miterlimit="10" stroke-linecap="round" stroke-linejoin="round"/>
        <path fill-rule="evenodd" clip-rule="evenodd" d="M249.7 106.052L259.038 105.108C259.863 104.973 260.693 104.827 261.529 104.667C262.282 104.517 263.027 104.36 263.765 104.2L272.784 101.615C285.659 96.9085 293.954 88.4883 291.001 73.58L290.293 69.9281C287.452 54.9692 276.613 50.2781 262.913 50.7331L253.584 51.714C252.838 51.8386 252.088 51.9735 251.335 52.1181C250.5 52.2805 249.674 52.4517 248.858 52.6333L239.843 55.2402C227.135 59.9527 219.024 68.3729 221.899 83.1976L222.608 86.8469C225.424 101.679 236.144 106.422 249.7 106.052Z" fill="#0166FF"/>
        <path d="M250.958 52.1736L243.044 55.5449C230.335 60.2578 222.221 68.6727 225.096 83.4966L225.806 87.1531C228.119 99.3331 235.803 104.642 245.969 105.966C234.219 105.389 225.157 100.277 222.607 86.8469L221.899 83.1975C219.024 68.375 227.136 59.9491 239.844 55.2362C239.844 55.2362 250.739 52.2594 250.958 52.1736Z" fill="#0E469B"/>
        <path d="M260.394 50.5128C260.504 50.5412 260.67 50.5979 260.801 50.6263C261.464 50.7698 262.181 50.7039 262.875 50.564L262.907 50.7282C276.606 50.2728 287.455 54.9703 290.296 69.9292L291.004 73.5771C293.888 88.139 285.995 96.4881 273.627 101.259C273.588 101.195 273.533 101.141 273.49 101.081C284.568 96.1819 291.387 88.0002 288.678 74.323L287.97 70.6751C285.129 55.7162 274.282 51.0297 260.583 51.4847L260.394 50.5128Z" fill="#448EFF"/>
        <path d="M259.83 43.4144C260.7 43.3068 261.499 43.889 261.666 44.7495L262.768 50.7466C262.772 50.7462 262.912 50.7352 262.912 50.7352C276.612 50.2802 287.453 54.9688 290.293 69.928L291.005 73.5774C293.958 88.4846 285.655 96.9049 272.781 101.615C272.781 101.615 267.303 103.556 261.532 104.663C255.761 105.774 249.705 106.055 249.705 106.055C236.149 106.429 225.43 101.683 222.613 86.8504L221.901 83.1903C219.03 68.3896 227.117 59.9804 239.792 55.2636L238.502 48.9329C238.335 48.0724 238.856 47.2225 239.703 46.9968C241.633 46.4823 243.606 45.9974 245.611 45.5395C245.841 45.4868 246.073 45.4755 246.29 45.5171C246.94 45.6424 247.479 46.1679 247.614 46.8633L248.815 52.6934C249.654 52.4965 250.482 52.2829 251.341 52.1148C252.06 51.9745 252.746 51.8845 253.455 51.7702L252.431 46.2402C252.251 45.3131 252.867 44.4088 253.8 44.2599C255.831 43.9349 257.848 43.6586 259.83 43.4144Z" stroke="black" stroke-width="0.79237" stroke-miterlimit="10" stroke-linecap="round" stroke-linejoin="round"/>
        <path fill-rule="evenodd" clip-rule="evenodd" d="M231.902 89.0008L231.504 86.9429C228.669 73.3413 239.63 68.6302 253.049 65.8332C266.604 63.3976 278.53 63.6689 280.988 77.3442L281.386 79.3985C284.233 93.0667 273.273 97.7771 259.791 100.586C246.299 103.011 234.372 102.737 231.902 89.0008Z" fill="#EAF2FF"/>
        <path d="M281.688 81.4267C281.618 80.4281 281.495 79.4 281.243 78.2902L280.811 76.2353C278.12 62.4842 266.142 62.3946 252.576 65.0517C239.542 67.9811 228.905 72.7158 231.105 85.4985C230.315 74.2194 240.5 69.835 252.828 67.0645C266.394 64.4074 278.372 64.497 281.063 78.2481L281.495 80.3033C281.582 80.6936 281.623 81.0522 281.688 81.4267Z" fill="#B3CCF6"/>
        <path d="M231.109 85.426C231.178 86.4246 231.412 87.598 231.661 88.7088L232.093 90.7644C234.787 104.514 246.762 104.605 260.328 101.95C273.362 99.0182 283.999 94.2857 281.802 81.5016C282.589 92.7789 272.403 97.1634 260.076 99.9345C246.51 102.593 234.535 102.502 231.841 88.7527L231.409 86.6971C231.322 86.3069 231.177 85.8001 231.109 85.426Z" fill="#054FBE"/>
        <path d="M244.882 83.8933C244.342 84.0285 243.797 83.7022 243.664 83.1641L242.054 76.7567C241.917 76.219 242.242 75.6736 242.782 75.5384L245.444 74.8693C245.98 74.7344 246.528 75.0604 246.662 75.5985L248.271 82.0059C248.408 82.5437 248.08 83.0893 247.543 83.2242L244.882 83.8933Z" fill="black" stroke="black" stroke-width="0.7571" stroke-miterlimit="10" stroke-linecap="round" stroke-linejoin="round"/>
        <path d="M255.638 80.296C256.81 76.2273 262.317 75.3543 264.484 78.2537" stroke="black" stroke-width="2.01893" stroke-miterlimit="10" stroke-linecap="round" stroke-linejoin="round"/>
        <path d="M259.055 88.2766C257.227 93.4045 250.107 94.1592 247.566 90.304" stroke="black" stroke-width="3.0284" stroke-miterlimit="10" stroke-linecap="round" stroke-linejoin="round"/>
        <path d="M232.723 91.9595C232.401 91.016 232.116 90.0227 231.916 88.9083L231.518 86.8539C228.671 73.19 239.629 68.4754 253.111 65.6662C266.21 63.3132 277.806 63.5446 280.732 76.1301C277.093 65.4704 266.047 65.386 253.659 67.6112C240.177 70.4204 229.218 75.1353 232.065 88.8014L232.463 90.8558C232.534 91.2438 232.638 91.5892 232.723 91.9595Z" fill="#B3CCF6"/>
        <path d="M280.698 76.066C281.021 77.0095 281.262 78.1773 281.463 79.2917L281.861 81.3461C284.708 95.0107 273.749 99.7282 260.267 102.537C247.168 104.891 235.572 104.659 232.646 92.0734C236.285 102.733 247.331 102.815 259.72 100.59C273.202 97.7807 284.16 93.0668 281.314 79.4021L280.915 77.3478C280.845 76.9561 280.784 76.4363 280.698 76.066Z" fill="#0E469B"/>
        <path d="M79.0854 193.303H163.256C166.837 193.303 169.74 190.357 169.74 186.724L161.534 13.5862C161.534 9.95204 158.631 7.00864 155.05 7.00864H70.8794C67.2982 7.00864 64.3957 9.95204 64.3957 13.5862L72.6015 186.724C72.6015 190.357 75.5045 193.303 79.0854 193.303Z" fill="black"/>
        <path d="M82.5561 192.891H166.727C170.308 192.891 173.211 189.958 173.211 186.341L165.005 13.9602C165.005 10.3424 162.102 7.40988 158.521 7.40988H74.3501C70.7691 7.40988 67.8659 10.3424 67.8659 13.9602L76.0722 186.341C76.0722 189.958 78.9752 192.891 82.5561 192.891Z" fill="white"/>
        <path d="M158.519 7.8192C161.869 7.8192 164.594 10.5742 164.594 13.9599L172.801 186.36C172.8 189.728 170.075 192.481 166.725 192.481H82.5547C79.2053 192.481 76.4804 189.728 76.4804 186.341L68.2735 13.9408C68.2741 10.5742 70.999 7.8192 74.3487 7.8192H158.519ZM82.5547 193.3H166.725C170.527 193.3 173.619 190.179 173.619 186.341L165.413 13.9408C165.413 10.1237 162.321 7.00006 158.519 7.00006H74.3487C70.5474 7.00006 67.4549 10.1237 67.4549 13.9599L75.6615 186.36C75.6612 190.179 78.7537 193.3 82.5547 193.3Z" fill="black"/>
        <path d="M134.271 7.04406L132.24 10.0666C131.007 11.9042 128.941 13.0046 126.729 13.0046H106.233C104.069 13.0046 102.041 11.9506 100.798 10.1786L98.5996 7.04406H134.271Z" fill="black"/>
        <path d="M141.722 35.1559H153.086C154.191 35.1559 155.088 34.2603 155.088 33.1545C155.088 32.0487 154.191 31.1531 153.086 31.1531H141.722C140.616 31.1531 139.719 32.0487 139.719 33.1545C139.719 34.2603 140.616 35.1559 141.722 35.1559Z" fill="#CADDFF"/>
        <path d="M81.6355 46.5449H153.561C154.667 46.5449 155.563 45.6466 155.563 44.5408C155.563 43.435 154.667 42.5394 153.561 42.5394H81.6355C80.5297 42.5394 79.6333 43.435 79.6333 44.5408C79.6333 45.6466 80.5297 46.5449 81.6355 46.5449Z" fill="#CADDFF"/>
        <path d="M121.44 35.1559H132.804C133.91 35.1559 134.807 34.2603 134.807 33.1545C134.807 32.0487 133.91 31.1531 132.804 31.1531H121.44C120.335 31.1531 119.438 32.0487 119.438 33.1545C119.438 34.2603 120.335 35.1559 121.44 35.1559Z" fill="#CADDFF"/>
        <path d="M101.159 35.1559H112.523C113.629 35.1559 114.525 34.2603 114.525 33.1545C114.525 32.0487 113.629 31.1531 112.523 31.1531H101.159C100.053 31.1531 99.1564 32.0487 99.1564 33.1545C99.1564 34.2603 100.053 35.1559 101.159 35.1559Z" fill="#CADDFF"/>
        <path d="M80.8769 35.1559H92.241C93.3468 35.1559 94.2432 34.2603 94.2432 33.1545C94.2432 32.0487 93.3468 31.1531 92.241 31.1531H80.8769C79.7711 31.1531 78.8747 32.0487 78.8747 33.1545C78.8747 34.2603 79.7711 35.1559 80.8769 35.1559Z" fill="#CADDFF"/>
        <path d="M157.51 94.7079C157.51 94.7079 153.39 93.8506 151.979 93.1448C150.567 92.439 150.088 93.1622 150.021 93.5691C149.963 93.921 151.352 95.1175 152.755 95.5645C152.883 95.6054 152.866 95.7927 152.732 95.8108C151.437 95.9836 149.847 96.6605 147.301 95.805C145.556 95.2185 143.977 96.6195 144.16 97.9986C144.387 99.7133 149.574 105.082 159.541 99.1757L157.51 94.7079Z" fill="white"/>
        <path d="M159.015 99.0086C153.007 102.457 149.093 101.52 147.28 100.64C145.561 99.8056 144.644 98.5387 144.565 97.9448C144.5 97.4514 144.741 96.9127 145.195 96.5386C145.739 96.09 146.477 95.9609 147.17 96.1935C149.3 96.9092 150.784 96.6069 151.977 96.3642C152.264 96.3055 152.535 96.2506 152.786 96.217C153.037 96.1834 153.227 95.9841 153.25 95.7321C153.272 95.4806 153.119 95.2512 152.879 95.1745C151.668 94.7887 150.618 93.8765 150.44 93.575C150.465 93.5027 150.523 93.385 150.657 93.3167C150.896 93.195 151.3 93.2638 151.795 93.5114C153.071 94.1492 156.36 94.8805 157.223 95.0656L159.015 99.0086ZM151.093 102.276C153.315 102.276 156.207 101.627 159.75 99.5285L160.065 99.3411L157.797 94.3494L157.593 94.3071C157.553 94.2986 153.51 93.4527 152.161 92.7786C151.406 92.4012 150.775 92.3368 150.284 92.5872C149.931 92.7677 149.681 93.1098 149.616 93.5027C149.518 94.1023 150.643 95.0145 151.737 95.577C150.602 95.8074 149.311 96.0485 147.431 95.417C146.469 95.0934 145.438 95.2766 144.674 95.9065C143.994 96.4671 143.649 97.2696 143.753 98.0527C143.876 98.978 145.028 100.457 146.922 101.377C147.832 101.818 149.226 102.276 151.093 102.276Z" fill="black"/>
        <path d="M120.464 98.7185H131.928C132.884 98.7185 133.659 97.9433 133.659 96.9871V89.5219C133.659 88.5654 132.884 87.7902 131.928 87.7902H120.464C119.508 87.7902 118.733 88.5654 118.733 89.5219V96.9871C118.733 97.9433 119.508 98.7185 120.464 98.7185Z" fill="#CADDFF"/>
        <path d="M120.43 109.524H133.342C134.02 109.524 134.57 108.974 134.57 108.296V106.747C134.57 106.069 134.02 105.52 133.342 105.52H120.43C119.751 105.52 119.202 106.069 119.202 106.747V108.296C119.202 108.974 119.751 109.524 120.43 109.524Z" fill="#CADDFF"/>
        <path d="M110.155 121.418H135.331C135.984 121.418 136.513 120.888 136.513 120.236C136.513 119.583 135.984 119.053 135.331 119.053H110.155C109.502 119.053 108.972 119.583 108.972 120.236C108.972 120.888 109.502 121.418 110.155 121.418Z" fill="black"/>
        <path d="M100.909 109.524H113.822C114.5 109.524 115.05 108.974 115.05 108.296V106.747C115.05 106.069 114.5 105.52 113.822 105.52H100.909C100.231 105.52 99.6813 106.069 99.6813 106.747V108.296C99.6813 108.974 100.231 109.524 100.909 109.524Z" fill="#CADDFF"/>
        <path d="M81.3887 109.524H94.3014C94.9797 109.524 95.5293 108.974 95.5293 108.296V106.747C95.5293 106.069 94.9797 105.52 94.3014 105.52H81.3887C80.7107 105.52 80.1608 106.069 80.1608 106.747V108.296C80.1608 108.974 80.7107 109.524 81.3887 109.524Z" fill="#CADDFF"/>
        <path d="M88.8266 53.2274C84.0066 63.1894 88.1746 75.1724 98.1366 79.9927C108.099 84.8127 120.082 80.6444 124.902 70.6827C129.722 60.7208 125.553 48.7375 115.592 43.9183C105.63 39.0964 93.6467 43.2657 88.8266 53.2274Z" fill="white"/>
        <path d="M106.881 42.3152C109.802 42.3152 112.707 42.976 115.414 44.2866C125.157 48.9993 129.248 60.7614 124.534 70.5039C119.82 80.2466 108.058 84.3379 98.3158 79.6235C93.5962 77.34 90.0486 73.3553 88.3262 68.4034C86.6036 63.4515 86.9127 58.1252 89.1961 53.4057C91.4799 48.6853 95.4644 45.1385 100.417 43.4156C102.528 42.6811 104.709 42.3152 106.881 42.3152ZM106.833 82.4009C114.434 82.4014 121.745 78.1491 125.271 70.8607C130.182 60.7117 125.92 48.4587 115.771 43.5494C110.855 41.1684 105.306 40.849 100.147 42.6429C94.9887 44.4368 90.8377 48.131 88.4589 53.0491C83.5482 63.1981 87.8099 75.4503 97.9592 80.361C100.82 81.745 103.849 82.4006 106.833 82.4009Z" fill="black"/>
        <path d="M90.5656 54.0685C86.21 63.0707 89.9767 73.899 98.9786 78.2549C107.981 82.6105 118.809 78.8438 123.165 69.8419C127.52 60.8399 123.754 50.0127 114.752 45.6549C105.75 41.2999 94.9215 45.0652 90.5656 54.0685Z" fill="#CADDFF"/>
        <path d="M92.4477 54.9793C88.5951 62.942 91.9268 72.5203 99.8895 76.373C107.852 80.2256 117.43 76.894 121.283 68.9315C125.136 60.9687 121.804 51.3918 113.842 47.5364C105.879 43.6838 96.3006 47.0176 92.4477 54.9793Z" fill="white"/>
        <path d="M106.839 78.8871C113.133 78.8877 119.188 75.3662 122.108 69.3304C126.175 60.9258 122.645 50.7801 114.241 46.7118C109.17 44.2599 103.229 44.4838 98.3501 47.3179C98.1544 47.4299 98.0877 47.6811 98.2013 47.8777C98.3149 48.0715 98.5656 48.1398 98.7613 48.0251C103.405 45.3302 109.058 45.1145 113.884 47.449C121.882 51.3207 125.241 60.9755 121.371 68.9738C117.501 76.972 107.845 80.3307 99.8472 76.4606C95.9725 74.5859 93.0599 71.3146 91.6459 67.2492C90.232 63.1842 90.4857 58.8114 92.3604 54.9369C92.459 54.7335 92.3738 54.4883 92.1701 54.3897C91.9664 54.2914 91.7215 54.3766 91.6229 54.5803C89.6529 58.6517 89.3864 63.2464 90.8723 67.5185C92.3582 71.7905 95.4188 75.2281 99.4904 77.1981C101.859 78.3443 104.368 78.8868 106.839 78.8871Z" fill="black"/>
        <path d="M103.825 71.0856L104.792 69.0856C106.234 69.7048 107.786 69.988 108.81 69.9121L109.37 67.1429C108.251 67.1994 106.795 67.0402 105.427 66.3781C104.226 65.7976 103.63 64.937 104.037 64.0946C104.424 63.2946 105.342 63.1152 107.155 63.3427C109.775 63.6749 111.821 63.3659 112.81 61.3235C113.706 59.4706 113.104 57.3862 111.065 55.8539L112.033 53.8536L109.969 52.8554L109.072 54.7082C107.631 54.0887 106.541 53.9251 105.683 53.9257L105.143 56.6004C105.802 56.6337 107.005 56.6182 108.521 57.3516C109.889 58.0137 110.047 58.8173 109.761 59.4068C109.425 60.1017 108.474 60.1874 106.358 59.9952C103.425 59.667 101.854 60.3362 100.937 62.2311C100.03 64.105 100.582 66.347 102.8 67.9396L101.761 70.0874L103.825 71.0856Z" fill="#0066FF"/>
        <path d="M83.5433 18.2957C83.6481 18.2957 83.753 18.2575 83.833 18.1756L84.6554 17.3537C84.8154 17.1926 84.8154 16.9332 84.6554 16.7749C84.4954 16.6138 84.2363 16.6138 84.0763 16.7749L83.2539 17.5967C83.0939 17.7578 83.0939 18.0172 83.2539 18.1756C83.3339 18.2575 83.4385 18.2957 83.5433 18.2957Z" fill="black"/>
        <path d="M80.6646 21.1768C80.7694 21.1768 80.8743 21.1358 80.9543 21.0566L81.777 20.2348C81.937 20.0737 81.937 19.8143 81.777 19.6532C81.6172 19.4948 81.3579 19.4948 81.1978 19.6532L80.3751 20.4778C80.2151 20.6361 80.2151 20.8955 80.3751 21.0566C80.4549 21.1358 80.5597 21.1768 80.6646 21.1768Z" fill="black"/>
        <path d="M84.366 21.1768C84.4708 21.1768 84.5754 21.1358 84.6554 21.0566C84.8154 20.8955 84.8154 20.6361 84.6554 20.4778L83.833 19.6532C83.673 19.4948 83.4136 19.4948 83.2539 19.6532C83.0939 19.8143 83.0939 20.0737 83.2539 20.232L84.0763 21.0566C84.1563 21.1358 84.2611 21.1768 84.366 21.1768Z" fill="black"/>
        <path d="M81.4873 18.2957C81.5921 18.2957 81.697 18.2575 81.777 18.1756C81.937 18.0172 81.937 17.7578 81.777 17.5967L80.9543 16.7749C80.7943 16.6138 80.5349 16.6138 80.3751 16.7749C80.2151 16.9332 80.2151 17.1926 80.3751 17.3537L81.1978 18.1756C81.2778 18.2575 81.3827 18.2957 81.4873 18.2957Z" fill="black"/>
        <path d="M138.339 70.2274C138.492 70.2274 138.639 70.1411 138.709 69.9934L143.157 60.6234C143.254 60.4191 143.167 60.1748 142.963 60.0778C142.759 59.9809 142.514 60.0677 142.417 60.2722L137.969 69.642C137.872 69.8465 137.959 70.0909 138.164 70.1878C138.22 70.2145 138.28 70.2274 138.339 70.2274Z" fill="black"/>
        <path d="M141.127 71.8287C141.199 71.8287 141.272 71.8098 141.338 71.7703L160.671 60.1468C160.865 60.03 160.927 59.7785 160.81 59.5846C160.694 59.3908 160.442 59.3282 160.249 59.4446L140.916 71.068C140.722 71.1846 140.659 71.4363 140.776 71.6302C140.853 71.758 140.988 71.8287 141.127 71.8287Z" fill="black"/>
        <path d="M142.312 75.1495C142.33 75.1495 142.348 75.1484 142.366 75.146L148.652 74.3156C148.876 74.2859 149.034 74.0803 149.005 73.8558C148.975 73.6317 148.769 73.4736 148.545 73.5036L142.259 74.3339C142.035 74.3634 141.877 74.569 141.906 74.7935C141.933 74.9996 142.109 75.1495 142.312 75.1495Z" fill="black"/>
        <path d="M79.0854 193.303H163.256C166.837 193.303 169.74 190.357 169.74 186.724L161.534 13.5862C161.534 9.95204 158.631 7.00864 155.05 7.00864H70.8794C67.2982 7.00864 64.3957 9.95204 64.3957 13.5862L72.6015 186.724C72.6015 190.357 75.5045 193.303 79.0854 193.303Z" fill="black"/>
        <path d="M82.5561 192.891H166.727C170.308 192.891 173.211 189.958 173.211 186.341L165.005 13.9602C165.005 10.3424 162.102 7.40988 158.521 7.40988H74.3501C70.7691 7.40988 67.8659 10.3424 67.8659 13.9602L76.0722 186.341C76.0722 189.958 78.9752 192.891 82.5561 192.891Z" fill="white"/>
        <path d="M158.519 7.8192C161.869 7.8192 164.594 10.5742 164.594 13.9599L172.801 186.36C172.8 189.728 170.075 192.481 166.725 192.481H82.5547C79.2053 192.481 76.4804 189.728 76.4804 186.341L68.2735 13.9408C68.2741 10.5742 70.999 7.8192 74.3487 7.8192H158.519ZM82.5547 193.3H166.725C170.527 193.3 173.619 190.179 173.619 186.341L165.413 13.9408C165.413 10.1237 162.321 7.00006 158.519 7.00006H74.3487C70.5474 7.00006 67.4549 10.1237 67.4549 13.9599L75.6615 186.36C75.6612 190.179 78.7537 193.3 82.5547 193.3Z" fill="black"/>
        <path d="M134.271 7.04406L132.24 10.0666C131.007 11.9042 128.941 13.0046 126.729 13.0046H106.233C104.069 13.0046 102.041 11.9506 100.798 10.1786L98.5996 7.04406H134.271Z" fill="black"/>
        <path d="M141.722 35.1559H153.086C154.191 35.1559 155.088 34.2603 155.088 33.1545C155.088 32.0487 154.191 31.1531 153.086 31.1531H141.722C140.616 31.1531 139.719 32.0487 139.719 33.1545C139.719 34.2603 140.616 35.1559 141.722 35.1559Z" fill="#CADDFF"/>
        <path d="M81.6355 46.5449H153.561C154.667 46.5449 155.563 45.6466 155.563 44.5408C155.563 43.435 154.667 42.5394 153.561 42.5394H81.6355C80.5297 42.5394 79.6333 43.435 79.6333 44.5408C79.6333 45.6466 80.5297 46.5449 81.6355 46.5449Z" fill="#CADDFF"/>
        <path d="M121.44 35.1559H132.804C133.91 35.1559 134.807 34.2603 134.807 33.1545C134.807 32.0487 133.91 31.1531 132.804 31.1531H121.44C120.335 31.1531 119.438 32.0487 119.438 33.1545C119.438 34.2603 120.335 35.1559 121.44 35.1559Z" fill="#CADDFF"/>
        <path d="M101.159 35.1559H112.523C113.629 35.1559 114.525 34.2603 114.525 33.1545C114.525 32.0487 113.629 31.1531 112.523 31.1531H101.159C100.053 31.1531 99.1564 32.0487 99.1564 33.1545C99.1564 34.2603 100.053 35.1559 101.159 35.1559Z" fill="#CADDFF"/>
        <path d="M80.8769 35.1559H92.241C93.3468 35.1559 94.2432 34.2603 94.2432 33.1545C94.2432 32.0487 93.3468 31.1531 92.241 31.1531H80.8769C79.7711 31.1531 78.8747 32.0487 78.8747 33.1545C78.8747 34.2603 79.7711 35.1559 80.8769 35.1559Z" fill="#CADDFF"/>
        <path d="M157.51 94.7079C157.51 94.7079 153.39 93.8506 151.979 93.1448C150.567 92.439 150.088 93.1622 150.021 93.5691C149.963 93.921 151.352 95.1175 152.755 95.5645C152.883 95.6054 152.866 95.7927 152.732 95.8108C151.437 95.9836 149.847 96.6605 147.301 95.805C145.556 95.2185 143.977 96.6195 144.16 97.9986C144.387 99.7133 149.574 105.082 159.541 99.1757L157.51 94.7079Z" fill="white"/>
        <path d="M159.015 99.0086C153.007 102.457 149.093 101.52 147.28 100.64C145.561 99.8056 144.644 98.5387 144.565 97.9448C144.5 97.4514 144.741 96.9127 145.195 96.5386C145.739 96.09 146.477 95.9609 147.17 96.1935C149.3 96.9092 150.784 96.6069 151.977 96.3642C152.264 96.3055 152.535 96.2506 152.786 96.217C153.037 96.1834 153.227 95.9841 153.25 95.7321C153.272 95.4806 153.119 95.2512 152.879 95.1745C151.668 94.7887 150.618 93.8765 150.44 93.575C150.465 93.5027 150.523 93.385 150.657 93.3167C150.896 93.195 151.3 93.2638 151.795 93.5114C153.071 94.1492 156.36 94.8805 157.223 95.0656L159.015 99.0086ZM151.093 102.276C153.315 102.276 156.207 101.627 159.75 99.5285L160.065 99.3411L157.797 94.3494L157.593 94.3071C157.553 94.2986 153.51 93.4527 152.161 92.7786C151.406 92.4012 150.775 92.3368 150.284 92.5872C149.931 92.7677 149.681 93.1098 149.616 93.5027C149.518 94.1023 150.643 95.0145 151.737 95.577C150.602 95.8074 149.311 96.0485 147.431 95.417C146.469 95.0934 145.438 95.2766 144.674 95.9065C143.994 96.4671 143.649 97.2696 143.753 98.0527C143.876 98.978 145.028 100.457 146.922 101.377C147.832 101.818 149.226 102.276 151.093 102.276Z" fill="black"/>
        <path d="M120.464 98.7185H131.928C132.884 98.7185 133.659 97.9433 133.659 96.9871V89.5219C133.659 88.5654 132.884 87.7902 131.928 87.7902H120.464C119.508 87.7902 118.733 88.5654 118.733 89.5219V96.9871C118.733 97.9433 119.508 98.7185 120.464 98.7185Z" fill="#CADDFF"/>
        <path d="M120.43 109.524H133.342C134.02 109.524 134.57 108.974 134.57 108.296V106.747C134.57 106.069 134.02 105.52 133.342 105.52H120.43C119.751 105.52 119.202 106.069 119.202 106.747V108.296C119.202 108.974 119.751 109.524 120.43 109.524Z" fill="#CADDFF"/>
        <path d="M110.155 121.418H135.331C135.984 121.418 136.513 120.888 136.513 120.236C136.513 119.583 135.984 119.053 135.331 119.053H110.155C109.502 119.053 108.972 119.583 108.972 120.236C108.972 120.888 109.502 121.418 110.155 121.418Z" fill="black"/>
        <path d="M100.909 109.524H113.822C114.5 109.524 115.05 108.974 115.05 108.296V106.747C115.05 106.069 114.5 105.52 113.822 105.52H100.909C100.231 105.52 99.6813 106.069 99.6813 106.747V108.296C99.6813 108.974 100.231 109.524 100.909 109.524Z" fill="#CADDFF"/>
        <path d="M81.3887 109.524H94.3014C94.9797 109.524 95.5293 108.974 95.5293 108.296V106.747C95.5293 106.069 94.9797 105.52 94.3014 105.52H81.3887C80.7107 105.52 80.1608 106.069 80.1608 106.747V108.296C80.1608 108.974 80.7107 109.524 81.3887 109.524Z" fill="#CADDFF"/>
        <path d="M88.8266 53.2274C84.0066 63.1894 88.1746 75.1724 98.1366 79.9927C108.099 84.8127 120.082 80.6444 124.902 70.6827C129.722 60.7208 125.553 48.7375 115.592 43.9183C105.63 39.0964 93.6467 43.2657 88.8266 53.2274Z" fill="white"/>
        <path d="M106.881 42.3152C109.802 42.3152 112.707 42.976 115.414 44.2866C125.157 48.9993 129.248 60.7614 124.534 70.5039C119.82 80.2466 108.058 84.3379 98.3158 79.6235C93.5962 77.34 90.0486 73.3553 88.3262 68.4034C86.6036 63.4515 86.9127 58.1252 89.1961 53.4057C91.4799 48.6853 95.4644 45.1385 100.417 43.4156C102.528 42.6811 104.709 42.3152 106.881 42.3152ZM106.833 82.4009C114.434 82.4014 121.745 78.1491 125.271 70.8607C130.182 60.7117 125.92 48.4587 115.771 43.5494C110.855 41.1684 105.306 40.849 100.147 42.6429C94.9887 44.4368 90.8377 48.131 88.4589 53.0491C83.5482 63.1981 87.8099 75.4503 97.9592 80.361C100.82 81.745 103.849 82.4006 106.833 82.4009Z" fill="black"/>
        <path d="M90.5656 54.0685C86.21 63.0707 89.9767 73.899 98.9786 78.2549C107.981 82.6105 118.809 78.8438 123.165 69.8419C127.52 60.8399 123.754 50.0127 114.752 45.6549C105.75 41.2999 94.9215 45.0652 90.5656 54.0685Z" fill="#CADDFF"/>
        <path d="M92.4477 54.9793C88.5951 62.942 91.9268 72.5203 99.8895 76.373C107.852 80.2256 117.43 76.894 121.283 68.9315C125.136 60.9687 121.804 51.3918 113.842 47.5364C105.879 43.6838 96.3006 47.0176 92.4477 54.9793Z" fill="white"/>
        <path d="M106.839 78.8871C113.133 78.8877 119.188 75.3662 122.108 69.3304C126.175 60.9258 122.645 50.7801 114.241 46.7118C109.17 44.2599 103.229 44.4838 98.3501 47.3179C98.1544 47.4299 98.0877 47.6811 98.2013 47.8777C98.3149 48.0715 98.5656 48.1398 98.7613 48.0251C103.405 45.3302 109.058 45.1145 113.884 47.449C121.882 51.3207 125.241 60.9755 121.371 68.9738C117.501 76.972 107.845 80.3307 99.8472 76.4606C95.9725 74.5859 93.0599 71.3146 91.6459 67.2492C90.232 63.1842 90.4857 58.8114 92.3604 54.9369C92.459 54.7335 92.3738 54.4883 92.1701 54.3897C91.9664 54.2914 91.7215 54.3766 91.6229 54.5803C89.6529 58.6517 89.3864 63.2464 90.8723 67.5185C92.3582 71.7905 95.4188 75.2281 99.4904 77.1981C101.859 78.3443 104.368 78.8868 106.839 78.8871Z" fill="black"/>
        <path d="M103.825 71.0856L104.792 69.0856C106.234 69.7048 107.786 69.988 108.81 69.9121L109.37 67.1429C108.251 67.1994 106.795 67.0402 105.427 66.3781C104.226 65.7976 103.63 64.937 104.037 64.0946C104.424 63.2946 105.342 63.1152 107.155 63.3427C109.775 63.6749 111.821 63.3659 112.81 61.3235C113.706 59.4706 113.104 57.3862 111.065 55.8539L112.033 53.8536L109.969 52.8554L109.072 54.7082C107.631 54.0887 106.541 53.9251 105.683 53.9257L105.143 56.6004C105.802 56.6337 107.005 56.6182 108.521 57.3516C109.889 58.0137 110.047 58.8173 109.761 59.4068C109.425 60.1017 108.474 60.1874 106.358 59.9952C103.425 59.667 101.854 60.3362 100.937 62.2311C100.03 64.105 100.582 66.347 102.8 67.9396L101.761 70.0874L103.825 71.0856Z" fill="#0066FF"/>
        <path d="M83.5433 18.2957C83.6481 18.2957 83.753 18.2575 83.833 18.1756L84.6554 17.3537C84.8154 17.1926 84.8154 16.9332 84.6554 16.7749C84.4954 16.6138 84.2363 16.6138 84.0763 16.7749L83.2539 17.5967C83.0939 17.7578 83.0939 18.0172 83.2539 18.1756C83.3339 18.2575 83.4385 18.2957 83.5433 18.2957Z" fill="black"/>
        <path d="M80.6646 21.1768C80.7694 21.1768 80.8743 21.1358 80.9543 21.0566L81.777 20.2348C81.937 20.0737 81.937 19.8143 81.777 19.6532C81.6172 19.4948 81.3579 19.4948 81.1978 19.6532L80.3751 20.4778C80.2151 20.6361 80.2151 20.8955 80.3751 21.0566C80.4549 21.1358 80.5597 21.1768 80.6646 21.1768Z" fill="black"/>
        <path d="M84.366 21.1768C84.4708 21.1768 84.5754 21.1358 84.6554 21.0566C84.8154 20.8955 84.8154 20.6361 84.6554 20.4778L83.833 19.6532C83.673 19.4948 83.4136 19.4948 83.2539 19.6532C83.0939 19.8143 83.0939 20.0737 83.2539 20.232L84.0763 21.0566C84.1563 21.1358 84.2611 21.1768 84.366 21.1768Z" fill="black"/>
        <path d="M81.4873 18.2957C81.5921 18.2957 81.697 18.2575 81.777 18.1756C81.937 18.0172 81.937 17.7578 81.777 17.5967L80.9543 16.7749C80.7943 16.6138 80.5349 16.6138 80.3751 16.7749C80.2151 16.9332 80.2151 17.1926 80.3751 17.3537L81.1978 18.1756C81.2778 18.2575 81.3827 18.2957 81.4873 18.2957Z" fill="black"/>
        <path d="M138.339 70.2274C138.492 70.2274 138.639 70.1411 138.709 69.9934L143.157 60.6234C143.254 60.4191 143.167 60.1748 142.963 60.0778C142.759 59.9809 142.514 60.0677 142.417 60.2722L137.969 69.642C137.872 69.8465 137.959 70.0909 138.164 70.1878C138.22 70.2145 138.28 70.2274 138.339 70.2274Z" fill="black"/>
        <path d="M141.127 71.8287C141.199 71.8287 141.272 71.8098 141.338 71.7703L160.671 60.1468C160.865 60.03 160.927 59.7785 160.81 59.5846C160.694 59.3908 160.442 59.3282 160.249 59.4446L140.916 71.068C140.722 71.1846 140.659 71.4363 140.776 71.6302C140.853 71.758 140.988 71.8287 141.127 71.8287Z" fill="black"/>
        <path d="M142.312 75.1495C142.33 75.1495 142.348 75.1484 142.366 75.146L148.652 74.3156C148.876 74.2859 149.034 74.0803 149.005 73.8558C148.975 73.6317 148.769 73.4736 148.545 73.5036L142.259 74.3339C142.035 74.3634 141.877 74.569 141.906 74.7935C141.933 74.9996 142.109 75.1495 142.312 75.1495Z" fill="black"/>
        <path d="M79.0854 193.303H163.256C166.837 193.303 169.74 190.357 169.74 186.724L161.534 13.5862C161.534 9.95204 158.631 7.00864 155.05 7.00864H70.8794C67.2982 7.00864 64.3957 9.95204 64.3957 13.5862L72.6015 186.724C72.6015 190.357 75.5045 193.303 79.0854 193.303Z" fill="black"/>
        <path d="M82.5561 192.891H166.727C170.308 192.891 173.211 189.958 173.211 186.341L165.005 13.9602C165.005 10.3424 162.102 7.40988 158.521 7.40988H74.3501C70.7691 7.40988 67.8659 10.3424 67.8659 13.9602L76.0722 186.341C76.0722 189.958 78.9752 192.891 82.5561 192.891Z" fill="white"/>
        <path d="M158.519 7.8192C161.869 7.8192 164.594 10.5742 164.594 13.9599L172.801 186.36C172.8 189.728 170.075 192.481 166.725 192.481H82.5547C79.2053 192.481 76.4804 189.728 76.4804 186.341L68.2735 13.9408C68.2741 10.5742 70.999 7.8192 74.3487 7.8192H158.519ZM82.5547 193.3H166.725C170.527 193.3 173.619 190.179 173.619 186.341L165.413 13.9408C165.413 10.1237 162.321 7.00006 158.519 7.00006H74.3487C70.5474 7.00006 67.4549 10.1237 67.4549 13.9599L75.6615 186.36C75.6612 190.179 78.7537 193.3 82.5547 193.3Z" fill="black"/>
        <path d="M134.271 7.04406L132.24 10.0666C131.007 11.9042 128.941 13.0046 126.729 13.0046H106.233C104.069 13.0046 102.041 11.9506 100.798 10.1786L98.5996 7.04406H134.271Z" fill="black"/>
        <path d="M141.722 35.1559H153.086C154.191 35.1559 155.088 34.2603 155.088 33.1545C155.088 32.0487 154.191 31.1531 153.086 31.1531H141.722C140.616 31.1531 139.719 32.0487 139.719 33.1545C139.719 34.2603 140.616 35.1559 141.722 35.1559Z" fill="#CADDFF"/>
        <path d="M81.6355 46.5449H153.561C154.667 46.5449 155.563 45.6466 155.563 44.5408C155.563 43.435 154.667 42.5394 153.561 42.5394H81.6355C80.5297 42.5394 79.6333 43.435 79.6333 44.5408C79.6333 45.6466 80.5297 46.5449 81.6355 46.5449Z" fill="#CADDFF"/>
        <path d="M121.44 35.1559H132.804C133.91 35.1559 134.807 34.2603 134.807 33.1545C134.807 32.0487 133.91 31.1531 132.804 31.1531H121.44C120.335 31.1531 119.438 32.0487 119.438 33.1545C119.438 34.2603 120.335 35.1559 121.44 35.1559Z" fill="#CADDFF"/>
        <path d="M101.159 35.1559H112.523C113.629 35.1559 114.525 34.2603 114.525 33.1545C114.525 32.0487 113.629 31.1531 112.523 31.1531H101.159C100.053 31.1531 99.1564 32.0487 99.1564 33.1545C99.1564 34.2603 100.053 35.1559 101.159 35.1559Z" fill="#CADDFF"/>
        <path d="M80.8769 35.1559H92.241C93.3468 35.1559 94.2432 34.2603 94.2432 33.1545C94.2432 32.0487 93.3468 31.1531 92.241 31.1531H80.8769C79.7711 31.1531 78.8747 32.0487 78.8747 33.1545C78.8747 34.2603 79.7711 35.1559 80.8769 35.1559Z" fill="#CADDFF"/>
        <path d="M157.51 94.7079C157.51 94.7079 153.39 93.8506 151.979 93.1448C150.567 92.439 150.088 93.1622 150.021 93.5691C149.963 93.921 151.352 95.1175 152.755 95.5645C152.883 95.6054 152.866 95.7927 152.732 95.8108C151.437 95.9836 149.847 96.6605 147.301 95.805C145.556 95.2185 143.977 96.6195 144.16 97.9986C144.387 99.7133 149.574 105.082 159.541 99.1757L157.51 94.7079Z" fill="white"/>
        <path d="M159.015 99.0086C153.007 102.457 149.093 101.52 147.28 100.64C145.561 99.8056 144.644 98.5387 144.565 97.9448C144.5 97.4514 144.741 96.9127 145.195 96.5386C145.739 96.09 146.477 95.9609 147.17 96.1935C149.3 96.9092 150.784 96.6069 151.977 96.3642C152.264 96.3055 152.535 96.2506 152.786 96.217C153.037 96.1834 153.227 95.9841 153.25 95.7321C153.272 95.4806 153.119 95.2512 152.879 95.1745C151.668 94.7887 150.618 93.8765 150.44 93.575C150.465 93.5027 150.523 93.385 150.657 93.3167C150.896 93.195 151.3 93.2638 151.795 93.5114C153.071 94.1492 156.36 94.8805 157.223 95.0656L159.015 99.0086ZM151.093 102.276C153.315 102.276 156.207 101.627 159.75 99.5285L160.065 99.3411L157.797 94.3494L157.593 94.3071C157.553 94.2986 153.51 93.4527 152.161 92.7786C151.406 92.4012 150.775 92.3368 150.284 92.5872C149.931 92.7677 149.681 93.1098 149.616 93.5027C149.518 94.1023 150.643 95.0145 151.737 95.577C150.602 95.8074 149.311 96.0485 147.431 95.417C146.469 95.0934 145.438 95.2766 144.674 95.9065C143.994 96.4671 143.649 97.2696 143.753 98.0527C143.876 98.978 145.028 100.457 146.922 101.377C147.832 101.818 149.226 102.276 151.093 102.276Z" fill="black"/>
        <path d="M120.464 98.7185H131.928C132.884 98.7185 133.659 97.9433 133.659 96.9871V89.5219C133.659 88.5654 132.884 87.7902 131.928 87.7902H120.464C119.508 87.7902 118.733 88.5654 118.733 89.5219V96.9871C118.733 97.9433 119.508 98.7185 120.464 98.7185Z" fill="#CADDFF"/>
        <path d="M120.43 109.524H133.342C134.02 109.524 134.57 108.974 134.57 108.296V106.747C134.57 106.069 134.02 105.52 133.342 105.52H120.43C119.751 105.52 119.202 106.069 119.202 106.747V108.296C119.202 108.974 119.751 109.524 120.43 109.524Z" fill="#CADDFF"/>
        <path d="M110.155 121.418H135.331C135.984 121.418 136.513 120.888 136.513 120.236C136.513 119.583 135.984 119.053 135.331 119.053H110.155C109.502 119.053 108.972 119.583 108.972 120.236C108.972 120.888 109.502 121.418 110.155 121.418Z" fill="black"/>
        <path d="M100.909 109.524H113.822C114.5 109.524 115.05 108.974 115.05 108.296V106.747C115.05 106.069 114.5 105.52 113.822 105.52H100.909C100.231 105.52 99.6813 106.069 99.6813 106.747V108.296C99.6813 108.974 100.231 109.524 100.909 109.524Z" fill="#CADDFF"/>
        <path d="M81.3887 109.524H94.3014C94.9797 109.524 95.5293 108.974 95.5293 108.296V106.747C95.5293 106.069 94.9797 105.52 94.3014 105.52H81.3887C80.7107 105.52 80.1608 106.069 80.1608 106.747V108.296C80.1608 108.974 80.7107 109.524 81.3887 109.524Z" fill="#CADDFF"/>
        <path d="M88.8266 53.2274C84.0066 63.1894 88.1746 75.1724 98.1366 79.9927C108.099 84.8127 120.082 80.6444 124.902 70.6827C129.722 60.7208 125.553 48.7375 115.592 43.9183C105.63 39.0964 93.6467 43.2657 88.8266 53.2274Z" fill="white"/>
        <path d="M106.881 42.3152C109.802 42.3152 112.707 42.976 115.414 44.2866C125.157 48.9993 129.248 60.7614 124.534 70.5039C119.82 80.2466 108.058 84.3379 98.3158 79.6235C93.5962 77.34 90.0486 73.3553 88.3262 68.4034C86.6036 63.4515 86.9127 58.1252 89.1961 53.4057C91.4799 48.6853 95.4644 45.1385 100.417 43.4156C102.528 42.6811 104.709 42.3152 106.881 42.3152ZM106.833 82.4009C114.434 82.4014 121.745 78.1491 125.271 70.8607C130.182 60.7117 125.92 48.4587 115.771 43.5494C110.855 41.1684 105.306 40.849 100.147 42.6429C94.9887 44.4368 90.8377 48.131 88.4589 53.0491C83.5482 63.1981 87.8099 75.4503 97.9592 80.361C100.82 81.745 103.849 82.4006 106.833 82.4009Z" fill="black"/>
        <path d="M90.5656 54.0685C86.21 63.0707 89.9767 73.899 98.9786 78.2549C107.981 82.6105 118.809 78.8438 123.165 69.8419C127.52 60.8399 123.754 50.0127 114.752 45.6549C105.75 41.2999 94.9215 45.0652 90.5656 54.0685Z" fill="#CADDFF"/>
        <path d="M92.4477 54.9793C88.5951 62.942 91.9268 72.5203 99.8895 76.373C107.852 80.2256 117.43 76.894 121.283 68.9315C125.136 60.9687 121.804 51.3918 113.842 47.5364C105.879 43.6838 96.3006 47.0176 92.4477 54.9793Z" fill="white"/>
        <path d="M106.839 78.8871C113.133 78.8877 119.188 75.3662 122.108 69.3304C126.175 60.9258 122.645 50.7801 114.241 46.7118C109.17 44.2599 103.229 44.4838 98.3501 47.3179C98.1544 47.4299 98.0877 47.6811 98.2013 47.8777C98.3149 48.0715 98.5656 48.1398 98.7613 48.0251C103.405 45.3302 109.058 45.1145 113.884 47.449C121.882 51.3207 125.241 60.9755 121.371 68.9738C117.501 76.972 107.845 80.3307 99.8472 76.4606C95.9725 74.5859 93.0599 71.3146 91.6459 67.2492C90.232 63.1842 90.4857 58.8114 92.3604 54.9369C92.459 54.7335 92.3738 54.4883 92.1701 54.3897C91.9664 54.2914 91.7215 54.3766 91.6229 54.5803C89.6529 58.6517 89.3864 63.2464 90.8723 67.5185C92.3582 71.7905 95.4188 75.2281 99.4904 77.1981C101.859 78.3443 104.368 78.8868 106.839 78.8871Z" fill="black"/>
        <path d="M103.825 71.0856L104.792 69.0856C106.234 69.7048 107.786 69.988 108.81 69.9121L109.37 67.1429C108.251 67.1994 106.795 67.0402 105.427 66.3781C104.226 65.7976 103.63 64.937 104.037 64.0946C104.424 63.2946 105.342 63.1152 107.155 63.3427C109.775 63.6749 111.821 63.3659 112.81 61.3235C113.706 59.4706 113.104 57.3862 111.065 55.8539L112.033 53.8536L109.969 52.8554L109.072 54.7082C107.631 54.0887 106.541 53.9251 105.683 53.9257L105.143 56.6004C105.802 56.6337 107.005 56.6182 108.521 57.3516C109.889 58.0137 110.047 58.8173 109.761 59.4068C109.425 60.1017 108.474 60.1874 106.358 59.9952C103.425 59.667 101.854 60.3362 100.937 62.2311C100.03 64.105 100.582 66.347 102.8 67.9396L101.761 70.0874L103.825 71.0856Z" fill="#0066FF"/>
        <path d="M83.5433 18.2957C83.6481 18.2957 83.753 18.2575 83.833 18.1756L84.6554 17.3537C84.8154 17.1926 84.8154 16.9332 84.6554 16.7749C84.4954 16.6138 84.2363 16.6138 84.0763 16.7749L83.2539 17.5967C83.0939 17.7578 83.0939 18.0172 83.2539 18.1756C83.3339 18.2575 83.4385 18.2957 83.5433 18.2957Z" fill="black"/>
        <path d="M80.6646 21.1768C80.7694 21.1768 80.8743 21.1358 80.9543 21.0566L81.777 20.2348C81.937 20.0737 81.937 19.8143 81.777 19.6532C81.6172 19.4948 81.3579 19.4948 81.1978 19.6532L80.3751 20.4778C80.2151 20.6361 80.2151 20.8955 80.3751 21.0566C80.4549 21.1358 80.5597 21.1768 80.6646 21.1768Z" fill="black"/>
        <path d="M84.366 21.1768C84.4708 21.1768 84.5754 21.1358 84.6554 21.0566C84.8154 20.8955 84.8154 20.6361 84.6554 20.4778L83.833 19.6532C83.673 19.4948 83.4136 19.4948 83.2539 19.6532C83.0939 19.8143 83.0939 20.0737 83.2539 20.232L84.0763 21.0566C84.1563 21.1358 84.2611 21.1768 84.366 21.1768Z" fill="black"/>
        <path d="M81.4873 18.2957C81.5921 18.2957 81.697 18.2575 81.777 18.1756C81.937 18.0172 81.937 17.7578 81.777 17.5967L80.9543 16.7749C80.7943 16.6138 80.5349 16.6138 80.3751 16.7749C80.2151 16.9332 80.2151 17.1926 80.3751 17.3537L81.1978 18.1756C81.2778 18.2575 81.3827 18.2957 81.4873 18.2957Z" fill="black"/>
        <path d="M138.339 70.2274C138.492 70.2274 138.639 70.1411 138.709 69.9934L143.157 60.6234C143.254 60.4191 143.167 60.1748 142.963 60.0778C142.759 59.9809 142.514 60.0677 142.417 60.2722L137.969 69.642C137.872 69.8465 137.959 70.0909 138.164 70.1878C138.22 70.2145 138.28 70.2274 138.339 70.2274Z" fill="black"/>
        <path d="M141.127 71.8287C141.199 71.8287 141.272 71.8098 141.338 71.7703L160.671 60.1468C160.865 60.03 160.927 59.7785 160.81 59.5846C160.694 59.3908 160.442 59.3282 160.249 59.4446L140.916 71.068C140.722 71.1846 140.659 71.4363 140.776 71.6302C140.853 71.758 140.988 71.8287 141.127 71.8287Z" fill="black"/>
        <path d="M142.312 75.1495C142.33 75.1495 142.348 75.1484 142.366 75.146L148.652 74.3156C148.876 74.2859 149.034 74.0803 149.005 73.8558C148.975 73.6317 148.769 73.4736 148.545 73.5036L142.259 74.3339C142.035 74.3634 141.877 74.569 141.906 74.7935C141.933 74.9996 142.109 75.1495 142.312 75.1495Z" fill="black"/>
        <path d="M161.521 13.5872L169.727 186.724C169.727 190.349 166.829 193.289 163.256 193.289H79.085C75.5119 193.289 72.6152 190.349 72.6152 186.724L64.4092 13.5852C64.4097 9.959 67.306 7.02297 70.8789 7.02271H155.05C158.623 7.02271 161.52 9.95937 161.521 13.5862V13.5872Z" fill="black" stroke="black" stroke-width="0.0273043"/>
        <path d="M82.5561 192.891H166.727C170.308 192.891 173.211 189.958 173.211 186.341L165.005 13.9602C165.005 10.3424 162.102 7.40988 158.521 7.40988H74.3501C70.7691 7.40988 67.8659 10.3424 67.8659 13.9602L76.0722 186.341C76.0722 189.958 78.9752 192.891 82.5561 192.891Z" fill="white"/>
        <path d="M158.519 7.81918C161.869 7.81918 164.594 10.5742 164.594 13.9599L172.801 186.36C172.8 189.728 170.075 192.481 166.725 192.481H82.5547C79.2053 192.481 76.4804 189.728 76.4804 186.341L68.2735 13.9408C68.2741 10.5742 70.999 7.81918 74.3487 7.81918H158.519ZM82.5547 193.3H166.725C170.527 193.3 173.619 190.179 173.619 186.341L165.413 13.9408C165.413 10.1237 162.321 7.00006 158.519 7.00006H74.3487C70.5474 7.00006 67.4549 10.1237 67.4549 13.9599L75.6615 186.36C75.6612 190.179 78.7537 193.3 82.5547 193.3Z" fill="#054FBE" stroke="black" stroke-width="1.05043"/>
        <path d="M79.5263 103.905H90.8904C91.9962 103.905 92.8926 103.009 92.8926 101.903C92.8926 100.798 91.9962 99.902 90.8904 99.902H79.5263C78.4205 99.902 77.5241 100.798 77.5241 101.903C77.5241 103.009 78.4205 103.905 79.5263 103.905Z" fill="#CADDFF" fill-opacity="0.6"/>
        <path d="M157.51 94.7079C157.51 94.7079 153.39 93.8506 151.979 93.1448C150.567 92.439 150.088 93.1622 150.021 93.5691C149.963 93.921 151.352 95.1175 152.755 95.5645C152.883 95.6054 152.866 95.7927 152.732 95.8108C151.437 95.9836 149.847 96.6605 147.301 95.805C145.556 95.2185 143.977 96.6195 144.16 97.9986C144.387 99.7133 149.574 105.082 159.541 99.1757L157.51 94.7079Z" fill="white"/>
        <path d="M145.684 93.1862H52.3745C49.8333 93.1862 47.7421 91.1824 47.6353 88.6422V88.6412L45.3481 34.7125C45.2328 32.0153 47.3892 29.7663 50.0874 29.7662H143.398C145.941 29.7662 148.032 31.7709 148.14 34.3112L150.426 88.2399C150.541 90.9371 148.384 93.1862 145.684 93.1862Z" fill="#0066FF" stroke="black" stroke-width="1.05043"/>
        <path opacity="0.6" d="M75.5221 51.6274H121.872C123.024 51.6274 123.958 50.6934 123.958 49.5412V40.5462C123.958 39.3937 123.024 38.4597 121.872 38.4597H75.5221C74.3696 38.4597 73.4356 39.3937 73.4356 40.5462V49.5412C73.4356 50.6934 74.3696 51.6274 75.5221 51.6274Z" fill="#CADDFF"/>
        <path opacity="0.6" d="M89.0808 59.3726H108.316C109.468 59.3726 110.402 58.4385 110.402 57.2864V56.9681C110.402 55.8157 109.468 54.8817 108.316 54.8817H89.0808C87.9283 54.8817 86.9943 55.8157 86.9943 56.9681V57.2864C86.9943 58.4385 87.9283 59.3726 89.0808 59.3726Z" fill="#CADDFF"/>
        <path d="M125.048 84.0348H140.606C141.423 84.0348 142.086 83.3722 142.086 82.555V69.8433C142.086 69.0261 141.423 68.3639 140.606 68.3639H125.048C124.23 68.3639 123.568 69.0261 123.568 69.8433V82.555C123.568 83.3722 124.23 84.0348 125.048 84.0348Z" fill="white"/>
        <path d="M78.0082 84.0348H93.5669C94.3841 84.0348 95.0464 83.3722 95.0464 82.555V69.8433C95.0464 69.0261 94.3841 68.3639 93.5669 68.3639H78.0082C77.1913 68.3639 76.5287 69.0261 76.5287 69.8433V82.555C76.5287 83.3722 77.1913 84.0348 78.0082 84.0348Z" fill="white"/>
        <path d="M80.875 145.728H163.944C164.762 145.728 165.424 145.065 165.424 144.248L163.624 109.033C163.624 108.215 162.961 107.553 162.144 107.553H79.0747C78.2579 107.553 77.5953 108.215 77.5953 109.033L79.3955 144.248C79.3955 145.065 80.0581 145.728 80.875 145.728Z" fill="#CADDFF" fill-opacity="0.6"/>
        <path d="M101.489 84.0348H117.047C117.865 84.0348 118.527 83.3722 118.527 82.555V69.8433C118.527 69.0261 117.865 68.3639 117.047 68.3639H101.489C100.672 68.3639 100.009 69.0261 100.009 69.8433V82.555C100.009 83.3722 100.672 84.0348 101.489 84.0348Z" fill="white"/>
        <path d="M54.4903 84.0348H70.0473C70.8646 84.0348 71.5269 83.3722 71.5269 82.555V69.8433C71.5269 69.0261 70.8646 68.3639 70.0473 68.3639H54.4903C53.6711 68.3639 53.0098 69.0261 53.0098 69.8433V82.555C53.0098 83.3722 53.6711 84.0348 54.4903 84.0348Z" fill="white"/>
        <path d="M174.223 35C163.054 35 154 44.1399 154 55.4148C154 66.6917 163.054 75.8315 174.223 75.8315C185.393 75.8315 194.447 66.6917 194.447 55.4148C194.447 44.1399 185.393 35 174.223 35Z" fill="white"/>
        <path d="M174.223 73.1414C164.526 73.1414 156.665 65.2049 156.665 55.4148C156.665 45.6266 164.526 37.6901 174.223 37.6901C183.922 37.6901 191.782 45.6266 191.782 55.4148C191.782 65.2049 183.922 73.1414 174.223 73.1414ZM174.223 35C163.054 35 154 44.1399 154 55.4148C154 66.6917 163.054 75.8315 174.223 75.8315C185.393 75.8315 194.447 66.6917 194.447 55.4148C194.447 44.1399 185.393 35 174.223 35Z" fill="black"/>
        <path d="M174.961 42.6139C181.559 42.6139 186.908 47.9628 186.908 54.5612" stroke="#CADDFF" stroke-width="1.4765" stroke-linecap="round"/>
        <path d="M192.838 81.036C192.274 81.4543 191.48 81.3306 191.065 80.7596L185.158 72.6226L187.208 71.1087L193.112 79.2451C193.528 79.8157 193.405 80.6177 192.838 81.036Z" fill="black"/>
        <path d="M42.8727 98.8031C45.5639 92.3833 52.9017 89.3406 59.2607 92.0063C65.6198 94.672 68.5944 102.038 65.9032 108.457C63.2121 114.877 55.8743 117.92 49.5153 115.254C43.1562 112.588 40.1816 105.223 42.8727 98.8031Z" fill="#16B364"/>
        <path d="M56.3829 109.651C56.328 109.628 56.2759 109.593 56.2306 109.547C54.5261 107.8 51.4219 106.331 51.3911 106.317C51.2314 106.242 51.1634 106.052 51.2392 105.893C51.313 105.734 51.5006 105.665 51.6627 105.74C51.7859 105.798 54.5171 107.09 56.3314 108.757C56.1357 106.883 55.8862 102.187 57.3313 96.4649C57.3747 96.2954 57.5477 96.1905 57.7182 96.2343C57.8895 96.2762 57.9916 96.4503 57.9499 96.6212C56.3831 102.826 56.8406 107.789 57.0199 109.164C57.0451 109.362 56.9416 109.554 56.7625 109.641C56.641 109.7 56.5024 109.701 56.3829 109.651Z" fill="white" stroke="white" stroke-width="0.350145"/>
        <rect x="99.9722" y="14.7036" width="32.9136" height="10.1542" rx="3.50145" fill="black"/>
        <path d="M283.065 17.0969C284.297 19.0077 289.448 27.9913 287.821 42.4843C287.804 42.6524 287.926 42.7981 288.093 42.8017C290.59 42.832 307.666 43.4473 315.187 54.3363C315.308 54.5053 315.558 54.4987 315.662 54.3146C317.049 51.8834 324.145 38.4788 318.456 27.7953C318.439 27.7707 318.431 27.754 318.413 27.7304C317.768 26.8721 307.574 13.8856 283.275 16.6582C283.065 16.683 282.95 16.9188 283.065 17.0969Z" fill="white"/>
        <path d="M294.876 39.3011C294.615 39.2482 294.44 38.9944 294.487 38.7313C296.107 29.4646 293.086 21.813 293.053 21.7392C292.95 21.4829 293.073 21.1947 293.328 21.095C293.581 20.9914 293.87 21.1136 293.97 21.366C294.1 21.6883 297.131 29.3419 295.462 38.9014C295.414 39.1709 295.159 39.3515 294.889 39.3038C294.886 39.3031 294.88 39.3018 294.876 39.3011Z" fill="#CADDFF"/>
        <path d="M301.462 40.2387C301.194 40.1845 301.021 39.9242 301.075 39.6559C302.821 31.0168 300.913 22.8132 300.897 22.7291C300.833 22.4638 300.997 22.1977 301.263 22.1336C301.527 22.0727 301.794 22.2343 301.857 22.5028C301.878 22.5843 303.834 30.9994 302.045 39.8519C301.99 40.1202 301.73 40.2929 301.462 40.2387Z" fill="#CADDFF"/>
        <path d="M307.29 42.9944C307.251 42.9866 307.21 42.9716 307.17 42.9535C306.925 42.8333 306.824 42.5369 306.944 42.2921C309.723 36.6304 308.231 25.8532 308.216 25.7458C308.176 25.4755 308.365 25.2243 308.635 25.1847C308.905 25.1484 309.156 25.3371 309.196 25.6075C309.259 26.061 310.746 36.7967 307.832 42.7272C307.733 42.9326 307.506 43.0382 307.29 42.9944Z" fill="#CADDFF"/>
        <path d="M312.642 45.5232C312.609 45.5167 312.575 45.5063 312.54 45.4926C312.29 45.3815 312.178 45.0896 312.289 44.8396C313.477 42.1396 314.243 39.1826 314.563 36.0515C314.59 35.7812 314.833 35.5813 315.103 35.609C315.376 35.6373 315.573 35.8789 315.545 36.1524C315.214 39.3857 314.425 42.4422 313.194 45.2379C313.1 45.4543 312.865 45.5683 312.642 45.5232Z" fill="#CADDFF"/>
        <path d="M347.39 97.7225C345.625 96.4638 337.892 90.3114 334.248 76.8676C334.205 76.7133 334.044 76.6262 333.896 76.6833C331.666 77.5404 316.277 83.0474 305.771 76.046C305.607 75.9359 305.386 76.0334 305.356 76.2313C304.979 78.881 303.383 93.2974 312.19 100.766C312.2 100.775 312.211 100.783 312.224 100.791C312.781 101.137 326.482 109.397 347.358 98.1853C347.536 98.0904 347.555 97.8395 347.39 97.7225Z" fill="white"/>
        <path d="M336.544 97.7902C336.458 97.7902 336.375 97.7568 336.31 97.6906C336.255 97.6326 330.73 91.7606 328.866 82.725C328.83 82.551 328.941 82.3812 329.115 82.3454C329.288 82.3094 329.46 82.4214 329.494 82.5952C331.321 91.4429 336.722 97.19 336.775 97.2472C336.897 97.3757 336.893 97.579 336.765 97.7013C336.702 97.7607 336.623 97.7902 336.544 97.7902Z" fill="#CADDFF"/>
        <path d="M329.184 99.6334C329.083 99.6334 328.982 99.5854 328.92 99.4963C328.873 99.4292 324.196 92.6787 322.684 84.2196C322.652 84.0448 322.768 83.8779 322.943 83.8464C323.117 83.8156 323.284 83.9317 323.316 84.1063C324.805 92.4217 329.4 99.0616 329.447 99.1276C329.548 99.2731 329.513 99.4736 329.368 99.5751C329.312 99.6145 329.248 99.6334 329.184 99.6334Z" fill="#CADDFF"/>
        <path d="M321.596 99.5141C321.485 99.5141 321.375 99.456 321.317 99.3519C321.101 98.9736 316.033 90.0081 316.534 83.7554C316.549 83.5783 316.703 83.4454 316.879 83.4607C317.057 83.4748 317.189 83.6297 317.174 83.8066C316.69 89.8635 321.823 98.9426 321.874 99.0336C321.962 99.1878 321.909 99.3841 321.754 99.4719C321.705 99.5006 321.649 99.5141 321.596 99.5141Z" fill="#CADDFF"/>
        <path d="M312.295 92.5083C312.153 92.5083 312.025 92.4155 311.984 92.2739C311.147 89.3021 310.778 86.3233 310.89 83.4204C310.896 83.2433 311.042 83.1057 311.224 83.1117C311.399 83.1186 311.539 83.2677 311.532 83.4451C311.423 86.2807 311.785 89.1924 312.603 92.0998C312.653 92.2705 312.552 92.4481 312.38 92.4961C312.353 92.5042 312.323 92.5083 312.295 92.5083Z" fill="#CADDFF"/>
    </g>
    <rect x="1" y="1" width="511" height="118" rx="15" stroke="#D3E1F7" stroke-width="2"/>
    <defs>
        <linearGradient id="paint0_linear_17203_23893" x1="256.5" y1="2.54237" x2="256.5" y2="120" gradientUnits="userSpaceOnUse">
            <stop stop-color="#C9DBF9"/>
            <stop offset="0.774342" stop-color="white"/>
            <stop offset="1" stop-color="#C9DBF9"/>
        </linearGradient>
        <linearGradient id="paint1_linear_17203_23893" x1="475.917" y1="43.3908" x2="389.264" y2="51.3749" gradientUnits="userSpaceOnUse">
            <stop stop-color="white"/>
            <stop offset="1" stop-color="#C9DAF5"/>
        </linearGradient>
        <clipPath id="clip0_17203_23893">
            <rect width="513" height="120" rx="16" fill="white"/>
        </clipPath>
    </defs>
</svg>
