<svg xmlns="http://www.w3.org/2000/svg" xmlns:xlink="http://www.w3.org/1999/xlink" width="1024" height="600" fill="none"><defs><path id="s" fill="#fff" d="M0 0h124v124H0z"/><path id="t" fill="#fff" d="M0 0h64v64H0z"/></defs><g clip-path="url(#a)"><rect width="1024" height="600" fill="url(#b)" rx="40"/><path fill="url(#c)" d="m520.5 303.5 203-174L796 212l-275.5 91.5Z" opacity=".6"/><circle cx="512" cy="300" r="209" stroke="#fff" stroke-width="2" opacity=".3"/><circle cx="512" cy="300" r="319" stroke="#fff" stroke-width="2" opacity=".3"/><circle cx="512" cy="300" r="429" stroke="#fff" stroke-width="2" opacity=".3"/><path fill="url(#d)" d="M518.5 302.5 228.5 164l72-78 218 216.5Z" opacity=".6"/><path fill="url(#e)" d="M510.5 298.499 265 460l-45.5-86.5 291-75.001Z" opacity=".6"/><path fill="url(#f)" d="M522.5 311.5 794 410l-55.5 82-216-180.5Z" opacity=".6"/><circle cx="512" cy="300" r="110" fill="url(#g)"/><path fill="#fff" fill-rule="evenodd" d="m521.603 356.513-3.447 12.864a1.754 1.754 0 0 1-2.019 1.272 341.239 341.239 0 0 1-15.031-3.228 1.756 1.756 0 0 1-1.289-2.165l3.2-11.943a185.19 185.19 0 0 1-4.93-1.241 192.004 192.004 0 0 1-4.419-1.249l-3.198 11.938a1.756 1.756 0 0 1-2.197 1.231 345.8 345.8 0 0 1-14.636-4.701 1.754 1.754 0 0 1-1.115-2.112l3.432-12.808c-25.141-11.262-40.575-29.34-32.538-58.87l1.939-7.237c7.821-29.651 30.217-37.556 57.616-34.722l3.43-12.801a1.753 1.753 0 0 1 2.022-1.271 346.24 346.24 0 0 1 15.025 3.247 1.756 1.756 0 0 1 1.287 2.164l-3.199 11.938c1.477.355 2.961.731 4.451 1.127 1.651.443 3.283.903 4.893 1.382l3.198-11.934a1.755 1.755 0 0 1 2.198-1.23 341.712 341.712 0 0 1 14.632 4.719 1.753 1.753 0 0 1 1.112 2.111l-3.439 12.833c24.809 11.248 39.873 29.298 32.003 58.671l-1.939 7.237c-7.754 29.399-29.918 37.427-57.042 34.778Zm38.788-41.431 1.091-4.072c7.615-26.929-13.688-37.928-40.194-45.427-26.828-6.792-50.777-7.918-57.646 19.21l-1.091 4.073c-7.648 27.052 13.655 38.051 40.285 45.583 26.704 6.759 50.653 7.885 57.555-19.367Z" clip-rule="evenodd"/><g clip-path="url(#h)"><circle cx="262.934" cy="121.934" r="61.75" fill="#fff" stroke="#DBD9D6" stroke-width=".5" transform="rotate(-15 262.934 121.934)"/><path fill="url(#i)" d="M278.383 97.469c-4.463 1.196-8.729 4.74-12.69 10.531-1.88 2.745-3.387 5.549-4.486 7.765l.017.01-.004-.014s3.209 1.993 6.731 4.105c1.022-2.122 2.527-5.043 4.413-7.818 3.524-5.15 6.282-6.777 7.988-7.234 6.418-1.72 12.966 1.867 14.607 7.99 1.63 6.083-2.261 12.466-8.656 14.223a6.167 6.167 0 0 1-1.173.169c2.083.286 4.246.317 6.159-.195 11.756-3.15 12.045-11.275 12.052-11.859a18.107 18.107 0 0 0-.623-4.432c-2.721-10.156-13.646-16.105-24.335-13.241Z"/><path fill="url(#j)" d="M247.218 145.402c4.464-1.197 8.729-4.741 12.69-10.531 1.88-2.745 3.387-5.55 4.487-7.766l-.018-.01.004.014s-3.208-1.993-6.731-4.105c-1.022 2.122-2.527 5.043-4.413 7.819-3.524 5.149-6.282 6.776-7.987 7.233-6.423 1.706-12.97-1.88-14.611-8.003-1.63-6.083 2.261-12.466 8.655-14.223a6.087 6.087 0 0 1 1.173-.169c-2.082-.286-4.245-.318-6.158.195-11.756 3.15-12.032 11.271-12.056 11.845.024 1.478.226 2.952.623 4.432 2.728 10.183 13.653 16.133 24.342 13.269Z"/><path fill="#29ABE2" d="M291.22 126.845c-6.057 1.462-13.554-1.506-15.138-2.318-4.1-2.103-13.876-8.142-14.642-8.621-7.214-4.63-16.603-9.448-24.117-7.435l-.014.004-.014.003c-9.111 2.485-15.154 10.595-15.041 19.223.01-.57.967-9.034 12.074-11.719 6.057-1.463 13.599 1.566 15.198 2.374 4.1 2.103 13.875 8.142 14.642 8.621 7.21 4.616 16.599 9.435 24.113 7.422l.014-.004.014-.004c9.111-2.485 15.168-10.598 15.041-19.223-.024.574-1.013 8.974-12.13 11.677Z"/></g><g clip-path="url(#k)"><path fill="#F7931A" d="M301.297 438.508c-12.611 31.824-48.638 47.4-80.469 34.787-31.818-12.609-47.397-48.635-34.783-80.455 12.608-31.828 48.635-47.406 80.457-34.797 31.829 12.611 47.406 48.64 34.794 80.465h.001Z"/><path fill="#fff" d="M271.942 410.539c2.317-8.015-3.322-13.243-11.445-17.314l4.244-10.709-6.519-2.582-4.132 10.427c-1.714-.68-3.479-1.34-5.233-1.995l4.16-10.495-6.515-2.582-4.245 10.705a224.449 224.449 0 0 1-4.171-1.588l.013-.034-8.99-3.565-2.757 6.962s4.85 1.816 4.735 1.873c2.64 1.046 2.892 2.92 2.618 4.342l-4.834 12.199c.182.073.417.175.671.319-.217-.086-.448-.179-.689-.271l-6.774 17.089c-.445.785-1.459 1.917-3.305 1.189.055.107-4.738-1.879-4.738-1.879l-4.381 7.272 8.484 3.361c1.578.627 3.121 1.27 4.643 1.883l-4.289 10.832 6.511 2.581 4.247-10.716c1.773.745 3.497 1.445 5.188 2.113l-4.23 10.665 6.52 2.583 4.286-10.811c11.209 3.714 19.974 3.993 25.004-5.921 4.053-7.982 1.62-13.224-4.009-17.183 4.542-.427 8.249-2.881 9.935-8.749l-.002-.002-.001.001Zm-18.298 19.544c-3.204 8.096-16.699 1.683-21.119-.063l5.689-14.35c4.418 1.753 18.776 5.971 15.431 14.413h-.001Zm4.991-21.447c-2.919 7.363-14.138 1.924-17.818.466l5.158-13.015c3.68 1.458 15.703 4.869 12.661 12.549h-.001Z"/></g><g clip-path="url(#l)"><path fill="#000" d="M824.148 483.988c-16.596 29.939-54.326 40.756-84.273 24.157-29.933-16.593-40.753-54.322-24.154-84.258 16.593-29.944 54.323-40.762 84.261-24.168 29.944 16.596 40.762 54.329 24.165 84.269h.001Z"/><path fill="url(#m)" d="m801.206 481.769-15.502 9.409a2.923 2.923 0 0 1-1.109.393 2.985 2.985 0 0 1-1.182-.074l-57.415-15.384a1.487 1.487 0 0 1-.711-.431 1.432 1.432 0 0 1-.357-.739 1.381 1.381 0 0 1 .658-1.41l15.511-9.406a2.905 2.905 0 0 1 1.105-.393 2.975 2.975 0 0 1 1.18.072l57.411 15.383c.274.074.521.223.711.431.19.208.314.464.358.739a1.39 1.39 0 0 1-.658 1.41Zm-5.284-28.727c-.19-.345-.45-.65-.763-.894a2.968 2.968 0 0 0-1.061-.527l-57.415-15.385a1.486 1.486 0 0 0-.831.018 1.428 1.428 0 0 0-.679.461 1.381 1.381 0 0 0-.135 1.55l8.73 15.902a2.96 2.96 0 0 0 1.818 1.42l57.411 15.383c.274.074.563.068.831-.017s.504-.245.68-.461a1.388 1.388 0 0 0 .135-1.55l-8.721-15.9Zm-57.037-25.024 57.415 15.384c.386.103.788.128 1.182.073a2.89 2.89 0 0 0 1.109-.393l15.502-9.408a1.388 1.388 0 0 0 .658-1.411 1.43 1.43 0 0 0-.358-.738 1.48 1.48 0 0 0-.711-.431l-57.411-15.383a2.975 2.975 0 0 0-1.18-.072 2.905 2.905 0 0 0-1.105.393l-15.508 9.407a1.397 1.397 0 0 0-.545.605c-.117.251-.157.53-.113.804.043.273.167.53.356.738.189.208.436.358.709.432Z"/></g><g clip-path="url(#n)"><circle cx="758.934" cy="164.934" r="62" fill="#627EEA" transform="rotate(15 758.934 164.934)"/><path fill="#C1CCF6" d="m769.44 124.958-1.033 1.693-14.294 53.343.397.685 28.682-8.002-13.752-47.719Z"/><path fill="#fff" d="m769.44 124.958-35.769 34.45 20.839 21.271 6.937-25.891 7.993-29.83Z"/><path fill="#C1CCF6" d="m753.254 185.367-.405.29-5.091 19.002.066.972 34.125-28.254-28.695 7.99Z"/><path fill="#fff" d="m747.824 205.631 5.43-20.264-20.842-21.263 15.412 41.527Z"/><path fill="#8198EE" d="m754.51 180.68 28.682-8.002-21.744-17.889-6.938 25.891Z"/><path fill="#C1CCF6" d="m733.671 159.408 20.839 21.271 6.937-25.891-27.776 4.62Z"/></g><g clip-path="url(#o)"><path fill="#0052FF" d="M812.91 310.101c17.071 4.575 34.618-5.556 39.192-22.627 4.574-17.071-5.557-34.618-22.627-39.192-17.071-4.574-34.618 5.557-39.192 22.628-4.574 17.071 5.556 34.617 22.627 39.191Z"/><path fill="#fff" d="M815.573 300.707c11.98 3.21 24.289-3.883 27.494-15.842 3.204-11.959-3.91-24.256-15.89-27.466-11.366-3.046-23.028 3.182-26.931 14.041l28.672 7.683-.975 3.64-28.672-7.682c-2.05 11.355 4.936 22.581 16.302 25.626Z"/></g><g clip-path="url(#p)"><path fill="#F0B90B" fill-rule="evenodd" d="M660.548 44.362c17.424-2.961 33.948 8.761 36.909 26.186 2.962 17.424-8.761 33.948-26.185 36.909-17.424 2.962-33.948-8.76-36.91-26.185-2.961-17.424 8.761-33.948 26.186-36.91Z" clip-rule="evenodd"/><path fill="#fff" d="m651.701 78.325 1.441 8.338 7.797 2.966.83 4.884-12.357-4.68-2.251-13.246 4.54 1.738Zm-1.418-8.342.826 4.861-4.543-1.74-.826-4.861 3.713-3.144 4.563 1.737-3.733 3.147Zm9.656-4.154 3.713-3.143 4.563 1.736-3.733 3.148-4.543-1.74Z"/><path fill="#fff" d="m655.808 84.43-.83-4.883 4.543 1.74.826 4.861-4.539-1.717Zm8.388 6.445 4.543 1.74 3.733-3.146.826 4.86-3.733 3.148-4.543-1.74-.826-4.862Zm9.939-27.459 3.713-3.143 4.563 1.737.827 4.86-3.733 3.148-.827-4.861-4.543-1.74Zm7.379 18.424-1.395-8.345 3.713-3.144 2.251 13.246-10.116 8.5-.83-4.884 6.377-5.373Z"/><path fill="#fff" d="m678.26 80.615-3.717 3.12-.826-4.86 3.713-3.144.83 4.884Z"/><path fill="#fff" d="m676.012 67.389.853 4.88-6.399 5.379 1.421 8.362-3.717 3.12-4.539-1.717-1.421-8.362-7.818-2.963-.83-4.883 3.731-3.147 7.778 2.99 6.396-5.399 4.563 1.737-.018.003Zm-23.87-4.523 10.092-8.52 12.361 4.704-3.713 3.143-7.821-2.983-6.376 5.396-4.543-1.74Z"/></g><g clip-path="url(#q)"><path fill="#6C00F6" d="M901 98c0-17.673-14.327-32-32-32-17.673 0-32 14.327-32 32 0 17.673 14.327 32 32 32 17.673 0 32-14.327 32-32Z"/><path fill="#fff" d="m875.898 83.704-8.93 5.129v16.007l-4.927 2.856-4.958-2.859v-5.715l4.958-2.83 3.187 1.848v-4.624l-3.215-1.825-8.928 5.187v10.26l8.958 5.159 8.928-5.159V91.133l4.957-2.859 4.955 2.859v5.69l-4.955 2.883-3.215-1.865v4.601l3.185 1.837 9.016-5.129V88.832l-9.016-5.128Z"/></g><path stroke="#8AB9FF" stroke-dasharray="8 8" stroke-width="2" d="M779.179 10.271a31.77 31.77 0 0 1 8.069 2.159l-.382.922a30.95 30.95 0 0 1 7.006 4.052l.607-.792a32.2 32.2 0 0 1 5.908 5.908l-.791.608a30.953 30.953 0 0 1 4.052 7.006l.921-.383a31.81 31.81 0 0 1 2.159 8.07l-.99.13A31.27 31.27 0 0 1 806 42a31.27 31.27 0 0 1-.262 4.05l.99.129a31.808 31.808 0 0 1-2.159 8.069l-.921-.382a30.953 30.953 0 0 1-4.052 7.006l.791.608a32.197 32.197 0 0 1-5.908 5.907l-.607-.791a30.95 30.95 0 0 1-7.006 4.052l.382.921a31.767 31.767 0 0 1-8.069 2.159l-.129-.99A31.31 31.31 0 0 1 775 73a31.31 31.31 0 0 1-4.05-.262l-.13.99a31.767 31.767 0 0 1-8.069-2.159l.383-.92a30.95 30.95 0 0 1-7.006-4.053l-.608.79a32.197 32.197 0 0 1-5.908-5.906l.792-.608a30.953 30.953 0 0 1-4.052-7.006l-.922.382a31.81 31.81 0 0 1-2.159-8.07l.991-.128A31.27 31.27 0 0 1 744 42c0-1.373.089-2.725.262-4.05l-.991-.13a31.81 31.81 0 0 1 2.159-8.069l.922.383a30.953 30.953 0 0 1 4.052-7.006l-.792-.608a32.2 32.2 0 0 1 5.908-5.908l.608.792a30.95 30.95 0 0 1 7.006-4.052l-.383-.922a31.77 31.77 0 0 1 8.069-2.159l.13.99A31.31 31.31 0 0 1 775 11c1.373 0 2.725.089 4.05.262l.129-.99Z"/><g clip-path="url(#r)"><path fill="#213147" d="M872.473 232c16.017 7.471 35.057.543 42.528-15.473 7.47-16.017.542-35.057-15.474-42.528-16.017-7.47-35.057-.542-42.527 15.474-7.471 16.017-.543 35.057 15.473 42.527Z"/><path fill="#213147" d="m872.159 186.162-7.954 17.053a3.354 3.354 0 0 0 .298 3.359l10.796 15.416a3.385 3.385 0 0 0 3.045 1.421l18.749-1.636a3.37 3.37 0 0 0 2.765-1.93l7.954-17.053a3.354 3.354 0 0 0-.298-3.359l-10.795-15.416a3.386 3.386 0 0 0-3.046-1.421l-18.749 1.636a3.354 3.354 0 0 0-2.748 1.939l-.017-.009Z"/><path fill="#12AAFF" d="m887.677 207.806-4.8 4.795a.919.919 0 0 0-.236.505l-1.015 11.624 5.322-.463 1.407-16.144a.4.4 0 0 0-.678-.317Zm8.757-7.737a.4.4 0 0 0-.679-.316l-4.8 4.795a.918.918 0 0 0-.235.504l-1.655 19.037 5.321-.463 2.04-23.539.008-.018Z"/><path fill="#9DCCED" d="M894.887 183.946a.647.647 0 0 1 .255.225l11.672 16.673c.143.194.15.451.053.66l-8.603 18.444a.695.695 0 0 1-.54.384l-20.275 1.772a.639.639 0 0 1-.336-.051.646.646 0 0 1-.255-.225l-11.672-16.673a.65.65 0 0 1-.052-.66l8.611-18.461a.692.692 0 0 1 .539-.384l20.275-1.772a.639.639 0 0 1 .336.051l-.008.017Zm1.258-2.697a3.663 3.663 0 0 0-1.856-.336l-20.275 1.772a3.621 3.621 0 0 0-2.984 2.083l-8.603 18.444a3.623 3.623 0 0 0 .322 3.625l11.672 16.672c.367.531.876.938 1.45 1.206a3.644 3.644 0 0 0 1.856.336l20.275-1.771a3.622 3.622 0 0 0 2.984-2.083l8.603-18.444a3.62 3.62 0 0 0-.322-3.625l-11.689-16.681a3.606 3.606 0 0 0-1.45-1.206l.017.008Z"/><path fill="#213147" d="m867.881 214.23 3.362-3.347 1.813 3.833-3.951 1.25-1.224-1.736Z"/><path fill="#fff" d="m889.561 191.822-4.054-1.891a.811.811 0 0 0-.898.153l-19.785 19.754 3.065 4.374 21.801-21.758a.396.396 0 0 0-.103-.642l-.026.01Zm7.1 3.311-4.054-1.891a.811.811 0 0 0-.898.154l-22.595 22.553 3.065 4.374 24.593-24.566a.395.395 0 0 0-.103-.641l-.008.017Z"/></g></g><defs><clipPath id="a"><rect width="1024" height="600" fill="#fff" rx="40"/></clipPath><clipPath id="h"><use xlink:href="#s" transform="rotate(-15 390.09 -671.156)"/></clipPath><clipPath id="k"><use xlink:href="#s" transform="rotate(7.616 -2503.801 1603.474)"/></clipPath><clipPath id="l"><path fill="#fff" d="M710.047 437.887c8.862-33.074 42.859-52.703 75.934-43.84 33.075 8.862 52.703 42.859 43.841 75.934-8.863 33.075-42.86 52.703-75.935 43.841-33.075-8.863-52.703-42.86-43.84-75.935Z"/></clipPath><clipPath id="n"><use xlink:href="#s" transform="rotate(15 19.536 2760.34)"/></clipPath><clipPath id="o"><use xlink:href="#t" transform="rotate(15 -512.208 3152.848)"/></clipPath><clipPath id="p"><use xlink:href="#t" transform="rotate(-9.647 609.142 -3702.26)"/></clipPath><clipPath id="q"><path fill="#fff" d="M837 98c0-17.673 14.327-32 32-32 17.673 0 32 14.327 32 32 0 17.673-14.327 32-32 32-17.673 0-32-14.327-32-32Z"/></clipPath><clipPath id="r"><use xlink:href="#t" transform="rotate(25.006 73.428 2043.103)"/></clipPath><linearGradient id="c" x1="742.748" x2="590.014" y1="294.469" y2="195.846" gradientUnits="userSpaceOnUse"><stop stop-color="#fff"/><stop offset="1" stop-color="#fff"/></linearGradient><linearGradient id="d" x1="373.5" x2="373.5" y1="86" y2="302.5" gradientUnits="userSpaceOnUse"><stop stop-color="#fff"/><stop offset="1" stop-color="#fff"/></linearGradient><linearGradient id="e" x1="310.33" x2="402.036" y1="292.468" y2="395.263" gradientUnits="userSpaceOnUse"><stop stop-color="#fff"/><stop offset="1" stop-color="#fff"/></linearGradient><linearGradient id="f" x1="666.094" x2="654.954" y1="496.194" y2="303.829" gradientUnits="userSpaceOnUse"><stop stop-color="#fff"/><stop offset="1" stop-color="#fff"/></linearGradient><linearGradient id="g" x1="512" x2="512" y1="190" y2="410" gradientUnits="userSpaceOnUse"><stop stop-color="#06F"/><stop offset="1" stop-color="#06F"/></linearGradient><linearGradient id="i" x1="268.94" x2="302.051" y1="102.609" y2="122.976" gradientUnits="userSpaceOnUse"><stop offset=".21" stop-color="#F15A24"/><stop offset=".684" stop-color="#FBB03B"/></linearGradient><linearGradient id="j" x1="256.661" x2="223.55" y1="140.261" y2="119.895" gradientUnits="userSpaceOnUse"><stop offset=".21" stop-color="#ED1E79"/><stop offset=".893" stop-color="#522785"/></linearGradient><linearGradient id="m" x1="730.377" x2="806.953" y1="478.919" y2="426.943" gradientUnits="userSpaceOnUse"><stop offset=".08" stop-color="#9945FF"/><stop offset=".3" stop-color="#8752F3"/><stop offset=".5" stop-color="#5497D5"/><stop offset=".6" stop-color="#43B4CA"/><stop offset=".72" stop-color="#28E0B9"/><stop offset=".97" stop-color="#19FB9B"/></linearGradient><radialGradient id="b" cx="0" cy="0" r="1" gradientTransform="matrix(0 255 -435.2 0 512 300)" gradientUnits="userSpaceOnUse"><stop stop-color="#ACF"/><stop offset="1" stop-color="#E8F1FF"/></radialGradient></defs></svg>