<svg width="512" height="316" viewBox="0 0 512 316" fill="none" xmlns="http://www.w3.org/2000/svg">
<g clip-path="url(#clip0_16745_4832)">
<rect y="0.5" width="512" height="315" rx="16" fill="url(#paint0_linear_16745_4832)"/>
<path d="M495.493 246.058C495.493 246.058 517.992 270.864 536.783 260.38C551.885 251.955 530.429 254.156 512.23 250.175C510.802 249.863 511.176 247.728 512.624 247.92C526.864 249.808 548.592 251.351 552.366 243.926C558.063 232.718 552.538 236.353 535.199 237.972C517.86 239.591 514.519 235.31 525.837 232.643C530.697 231.498 536.789 231.931 542.492 232.366C550.071 232.943 556.961 233.519 559.354 230.39C563.549 224.905 565.841 214.019 567.513 209.336C569.184 204.655 545.929 197.629 539.642 203.776C533.355 209.922 528.25 223.641 520.788 226.146C513.328 228.651 521.353 216.515 526.302 210.251C531.25 203.988 533.211 199.333 523.325 200.826C513.439 202.32 508.213 214.386 507.171 223.393C506.129 232.399 502.646 237.437 502.804 232.981C502.962 228.525 504.579 214.861 507.739 210.752C510.899 206.644 488.342 211.657 495.493 246.058Z" fill="#B3CCF6"/>
<path d="M123.565 254.219C123.565 254.219 74.1797 279.457 51.2445 252.198C32.812 230.289 64.7323 246.28 95.2408 250.784C97.635 251.137 98.3087 247.61 95.9534 247.059C72.8029 241.634 38.2635 231.285 36.7794 217.568C34.5378 196.862 40.957 205.734 66.847 218.409C92.7371 231.085 100.421 226.41 84.4666 215.642C77.6161 211.019 67.9301 208.118 58.8485 205.448C46.7777 201.897 35.7732 198.751 33.9054 192.499C30.6318 181.542 33.4719 163.332 33.6318 155.097C33.7918 146.864 73.9124 149.615 80.0373 162.823C86.1628 176.033 86.0146 200.282 96.094 208.538C106.173 216.792 100.872 193.285 96.8881 180.678C92.9039 168.073 92.5995 159.711 107.026 167.821C121.453 175.933 122.461 197.691 118.789 212.256C115.117 226.821 117.551 236.668 119.921 229.672C122.292 222.676 127.809 200.557 125.328 192.338C122.847 184.121 154.823 205.114 123.565 254.219Z" fill="#D3E1F7"/>
<path d="M100.927 224.161C80.6352 198.191 57.1741 177.39 56.8557 177.11C56.6527 176.931 56.6332 176.621 56.8121 176.417C56.9498 176.26 57.1679 176.212 57.3532 176.282C57.4065 176.302 57.4576 176.332 57.5031 176.373C57.81 176.642 79.5192 195.888 99.277 220.501C99.8115 221.717 100.363 222.94 100.927 224.161Z" fill="#B3CCF6"/>
<path d="M486.769 260.481C486.769 260.481 527.509 265.999 536.874 241.299C544.401 221.449 525.987 240.475 505.744 251.12C504.156 251.955 502.82 249.654 504.333 248.689C519.201 239.208 540.83 223.484 538.507 213.527C535 198.496 532.683 206.277 517.676 221.503C502.668 236.727 496.146 235.346 504.67 223.896C513.193 212.445 534.768 203.755 534.373 195.289C533.978 186.822 527.527 174.783 525.397 169.064C523.267 163.344 495.87 175.126 494.822 185.868C493.774 196.611 499.821 213.533 494.792 221.783C489.763 230.033 487.711 212.29 487.408 202.495C487.106 192.701 485.269 186.777 477.163 195.994C469.058 205.212 473.685 220.676 479.825 229.96C485.964 239.244 486.675 246.728 483.301 242.418C479.927 238.108 470.646 223.993 470.367 217.637C470.088 211.28 452.862 233.819 486.769 260.481Z" fill="#D3E1F7"/>
<path d="M488.52 259.274C488.574 259.28 488.627 259.272 488.676 259.256C488.798 259.213 488.894 259.106 488.915 258.968C493.703 227.834 514.423 190.698 514.631 190.327C514.729 190.152 514.667 189.931 514.493 189.832C514.448 189.807 514.4 189.792 514.352 189.787C514.213 189.773 514.072 189.841 513.998 189.971C513.788 190.343 493.005 227.591 488.197 258.858C488.167 259.056 488.303 259.241 488.501 259.272C488.507 259.273 488.514 259.274 488.52 259.274Z" fill="#B3CCF6"/>
<path d="M484.234 269.518L489.314 266.197C490.753 265.255 491.656 263.67 491.73 261.939C492.131 252.663 493.682 221.402 497.473 190.87C501.634 157.379 506.828 103.443 507.63 95.054C507.687 94.4447 507.238 93.9059 506.631 93.8576L399.925 85.578C399.388 85.5363 398.848 85.5888 398.33 85.7292L393.083 87.1561L484.234 269.518Z" fill="black"/>
<path d="M457.447 259.632L484.235 269.517L502.319 96.6846C502.381 96.0963 501.951 95.5742 501.367 95.531L393.083 87.1559L380.906 228.126L457.447 259.632Z" fill="#0066FF"/>
<path d="M439.332 247.775C434.988 259.646 440.408 272.871 451.833 278.28C452.318 278.51 452.895 278.281 453.094 277.777C457.481 266.648 499.787 157.704 502.022 89.6772C502.032 89.3438 501.788 89.057 501.458 89.0153C499.203 88.7289 497.051 90.0393 496.27 92.1733L439.332 247.775Z" fill="url(#paint1_linear_16745_4832)"/>
<path d="M497.874 81.3266C493.818 81.9829 431.044 83.1314 376.817 67.4968C376.464 67.3932 376.109 67.6483 376.092 68.0162C375.639 77.0328 371.18 166.164 324.814 216.882C321.618 220.378 329.609 211.638 326.935 219.952C326.153 222.382 325.712 240.097 326.372 242.563C328.629 250.999 315.168 234.717 320.552 241.23C321.97 242.944 323.666 244.852 325.696 246.968C332.054 253.596 339.585 258.381 347.644 259.16C357.265 260.09 372.732 262.739 380.59 265.871C402.992 274.801 413.094 277.734 421.876 278.081C423.079 278.128 424.247 277.678 425.118 276.835C433.597 268.6 478.767 219.081 498.604 82.0604C498.666 81.6299 498.299 81.2576 497.874 81.3266Z" fill="white"/>
<path d="M460.007 161.934C463.854 162.296 466.115 162.467 466.188 162.473C466.478 162.494 466.731 162.277 466.751 161.988C466.775 161.702 466.562 161.452 466.276 161.425C466.273 161.425 466.269 161.425 466.266 161.425C466.025 161.407 441.768 159.574 415.582 154.993C415.295 154.943 415.023 155.134 414.975 155.42C414.924 155.706 415.116 155.978 415.4 156.028C433.724 159.234 451.105 161.096 460.007 161.934Z" fill="#CADDFF"/>
<path d="M428.151 169.914C428.427 169.94 428.677 169.745 428.718 169.467C428.762 169.181 428.562 168.913 428.278 168.871C407.28 165.769 390.539 162.081 378.516 157.91C378.244 157.815 377.942 157.959 377.845 158.234C377.753 158.508 377.897 158.807 378.173 158.903C390.253 163.095 407.059 166.799 428.123 169.911C428.13 169.912 428.141 169.913 428.151 169.914Z" fill="#CADDFF"/>
<path d="M459.375 173.688C461.887 173.924 463.326 174.04 463.361 174.043C463.651 174.066 463.903 173.85 463.927 173.561C463.951 173.271 463.735 173.014 463.445 172.995C463.358 172.988 454.85 172.303 442.841 170.833C442.559 170.802 442.293 171.003 442.256 171.291C442.222 171.579 442.426 171.841 442.714 171.876C449.836 172.748 455.734 173.345 459.375 173.688Z" fill="#CADDFF"/>
<path d="M457.946 185.37C458.232 185.396 458.487 185.187 458.518 184.9C458.545 184.611 458.337 184.353 458.048 184.323C457.448 184.263 397.973 178.134 368.167 167.111C367.895 167.01 367.593 167.149 367.49 167.421C367.391 167.694 367.531 167.996 367.803 168.097C397.735 179.166 457.343 185.309 457.942 185.369C457.942 185.369 457.942 185.369 457.946 185.37Z" fill="#CADDFF"/>
<path d="M446.035 211.892C446.307 211.918 446.557 211.727 446.6 211.452C446.648 211.166 446.452 210.896 446.164 210.85C445.776 210.788 407.057 204.543 377.54 196.384C377.263 196.307 376.973 196.471 376.897 196.751C376.818 197.031 376.981 197.32 377.262 197.398C406.833 205.572 445.612 211.825 446 211.888C446.01 211.89 446.021 211.891 446.035 211.892Z" fill="#CADDFF"/>
<path d="M407.612 216.849C407.874 216.874 408.119 216.699 408.175 216.436C408.237 216.153 408.056 215.873 407.773 215.812C384.439 210.798 365.524 205.202 353.07 199.628C352.803 199.51 352.493 199.628 352.377 199.893C352.257 200.158 352.375 200.469 352.642 200.588C368.455 207.666 391.231 213.333 407.55 216.839C407.57 216.844 407.591 216.847 407.612 216.849Z" fill="#CADDFF"/>
<path d="M442.477 223.257C442.752 223.282 443.003 223.087 443.043 222.809C443.084 222.521 442.888 222.255 442.6 222.213C442.516 222.201 434.068 220.964 422.181 218.717C421.897 218.662 421.623 218.85 421.568 219.136C421.513 219.421 421.701 219.696 421.985 219.75C433.896 222.001 442.366 223.241 442.449 223.253C442.456 223.254 442.466 223.256 442.477 223.257Z" fill="#CADDFF"/>
<path d="M436.357 234.21C436.629 234.236 436.875 234.047 436.922 233.774C436.97 233.488 436.778 233.217 436.49 233.169C435.898 233.07 376.944 223.089 347.906 210.152C347.639 210.034 347.328 210.152 347.212 210.418C347.092 210.683 347.211 210.993 347.477 211.112C376.637 224.104 435.723 234.106 436.319 234.205C436.329 234.207 436.343 234.209 436.357 234.21Z" fill="#CADDFF"/>
<path d="M415.84 100.118C416.126 100.145 416.381 99.9406 416.411 99.655C416.446 99.3661 416.238 99.1072 415.949 99.073C406.318 97.9867 394.336 95.8521 382.892 93.7576C382.605 93.7024 382.334 93.8916 382.282 94.1788C382.231 94.4625 382.42 94.7372 382.704 94.7885C394.168 96.8884 406.167 99.0282 415.833 100.118C415.836 100.118 415.836 100.118 415.84 100.118Z" fill="#ABC5F4"/>
<path d="M413.715 111.33C413.997 111.357 414.252 111.152 414.286 110.867C414.321 110.578 414.113 110.319 413.824 110.285C401.672 108.87 391.542 107.145 380.973 104.69C380.691 104.624 380.407 104.798 380.341 105.081C380.276 105.363 380.45 105.647 380.736 105.713C391.342 108.179 401.511 109.91 413.704 111.329C413.708 111.33 413.711 111.33 413.715 111.33Z" fill="#ABC5F4"/>
<path d="M416.389 123.519C416.675 123.546 416.93 123.338 416.961 123.048C416.992 122.759 416.78 122.504 416.494 122.473C402.103 120.96 390.17 118.46 378.63 116.04C378.347 115.982 378.07 116.163 378.008 116.446C377.95 116.729 378.131 117.01 378.414 117.068C389.981 119.491 401.942 122 416.382 123.518C416.385 123.519 416.385 123.519 416.389 123.519Z" fill="#ABC5F4"/>
<path d="M405.534 154.179C405.796 154.204 406.042 154.025 406.098 153.759C406.153 153.474 405.968 153.197 405.685 153.14C398.145 151.63 391.219 149.997 385.095 148.286C384.817 148.208 384.527 148.371 384.448 148.651C384.369 148.93 384.532 149.22 384.813 149.298C390.961 151.016 397.915 152.656 405.479 154.171C405.496 154.174 405.514 154.177 405.534 154.179Z" fill="#CADDFF"/>
<path d="M299.73 179.895L297.866 169.722C297.595 168.326 298.512 166.972 299.916 166.748C302.974 166.259 306.016 165.831 309 165.464C310.309 165.302 311.512 166.192 311.764 167.487L313.686 178.014C313.686 178.014 299.201 179.981 299.73 179.895Z" fill="#0166FF"/>
<path d="M313.689 178.02C313.689 178.02 311.591 178.297 310.313 178.47L308.399 167.991C308.149 166.696 306.945 165.806 305.635 165.968C303.726 166.203 301.769 166.504 299.823 166.788C299.858 166.781 299.884 166.758 299.919 166.752C302.976 166.264 306.019 165.836 309.002 165.468C310.312 165.307 311.515 166.196 311.766 167.492L313.689 178.02Z" fill="#448EFF"/>
<path d="M299.74 180.396C299.74 180.396 301.789 179.868 303.04 179.551L300.896 169.116C300.644 167.821 301.428 166.546 302.703 166.206C304.561 165.711 306.489 165.257 308.4 164.794C308.366 164.801 308.333 164.789 308.299 164.797C305.279 165.487 302.298 166.227 299.394 167.002C298.119 167.342 297.335 168.616 297.587 169.912L299.74 180.396Z" fill="#0E469B"/>
<path d="M310.701 252.54L310.808 262.878C310.808 264.299 311.966 265.457 313.387 265.408C316.482 265.306 319.55 265.146 322.549 264.942C323.865 264.851 324.877 263.747 324.877 262.428L324.76 251.725C324.76 251.725 310.166 252.556 310.701 252.54Z" fill="#0166FF"/>
<path d="M324.762 251.72C324.762 251.72 322.65 251.848 321.362 251.924L321.479 262.573C321.479 263.892 320.467 264.996 319.151 265.087C317.232 265.221 315.253 265.296 313.288 265.387C313.324 265.387 313.354 265.403 313.389 265.403C316.484 265.301 319.552 265.141 322.551 264.937C323.867 264.846 324.879 263.742 324.879 262.423L324.762 251.72Z" fill="#448EFF"/>
<path d="M310.615 252.047C310.615 252.047 312.727 252.176 314.015 252.245L313.898 262.9C313.898 264.219 314.91 265.318 316.226 265.409C318.145 265.543 320.124 265.623 322.088 265.714C322.053 265.714 322.023 265.73 321.988 265.73C318.892 265.628 315.825 265.468 312.826 265.259C311.509 265.168 310.497 264.069 310.497 262.75L310.615 252.047Z" fill="#0E469B"/>
<path d="M310.701 252.539L310.808 262.878C310.808 264.299 311.966 265.456 313.387 265.408C316.482 265.306 319.55 265.146 322.549 264.942C323.865 264.851 324.877 263.747 324.877 262.428L324.76 251.725C324.76 251.725 310.166 252.556 310.701 252.539Z" stroke="black" stroke-width="1.19283" stroke-miterlimit="10" stroke-linecap="round" stroke-linejoin="round"/>
<path d="M292.689 180.787L290.615 170.655C290.344 169.259 288.987 168.347 287.601 168.663C284.582 169.353 281.601 170.094 278.696 170.869C277.421 171.209 276.638 172.483 276.889 173.779L279.042 184.261C279.042 184.261 293.212 180.67 292.689 180.787Z" fill="#0166FF"/>
<path d="M279.041 184.267C279.041 184.267 281.09 183.74 282.34 183.423L280.196 172.987C279.945 171.692 280.729 170.417 282.004 170.078C283.862 169.582 285.79 169.129 287.701 168.665C287.666 168.672 287.634 168.66 287.599 168.668C284.58 169.358 281.599 170.098 278.695 170.873C277.42 171.213 276.636 172.488 276.887 173.783L279.041 184.267Z" fill="#0E469B"/>
<path d="M292.867 181.255C292.867 181.255 290.769 181.532 289.491 181.705L287.578 171.225C287.326 169.93 286.123 169.041 284.814 169.202C282.905 169.437 280.947 169.738 279.001 170.023C279.036 170.016 279.062 169.993 279.097 169.987C282.155 169.498 285.196 169.07 288.18 168.703C289.489 168.541 290.693 169.43 290.944 170.726L292.867 181.255Z" fill="#448EFF"/>
<path d="M303.619 253.006L303.512 263.345C303.512 264.765 302.355 265.923 300.933 265.875C297.838 265.773 294.771 265.612 291.771 265.403C290.455 265.312 289.443 264.213 289.443 262.895L289.561 252.191C289.561 252.191 304.154 253.017 303.619 253.006Z" fill="#0166FF"/>
<path d="M289.558 252.187C289.558 252.187 291.671 252.315 292.958 252.385L292.841 263.04C292.841 264.358 293.853 265.463 295.169 265.554C297.088 265.682 299.067 265.763 301.031 265.854C300.996 265.854 300.966 265.87 300.931 265.87C297.836 265.768 294.768 265.607 291.769 265.404C290.453 265.313 289.441 264.208 289.441 262.89L289.558 252.187Z" fill="#0E469B"/>
<path d="M303.705 252.508C303.705 252.508 301.593 252.636 300.305 252.711L300.423 263.361C300.423 264.685 299.411 265.784 298.094 265.875C296.176 266.009 294.196 266.089 292.232 266.175C292.267 266.18 292.297 266.197 292.333 266.197C295.428 266.095 298.495 265.934 301.495 265.725C302.81 265.634 303.822 264.535 303.822 263.211L303.705 252.508Z" fill="#448EFF"/>
<path d="M303.619 253.006L303.512 263.345C303.512 264.765 302.355 265.923 300.933 265.875C297.838 265.773 294.771 265.612 291.771 265.403C290.455 265.312 289.443 264.213 289.443 262.895L289.561 252.191C289.561 252.191 304.154 253.017 303.619 253.006Z" stroke="black" stroke-width="1.19283" stroke-miterlimit="10" stroke-linecap="round" stroke-linejoin="round"/>
<path fill-rule="evenodd" clip-rule="evenodd" d="M293.752 259.765L307.808 258.344C309.05 258.141 310.301 257.921 311.558 257.68C312.692 257.455 313.814 257.219 314.925 256.978L328.502 253.087C347.883 246.001 360.371 233.325 355.926 210.882L354.859 205.385C350.583 182.866 334.266 175.804 313.643 176.489L299.598 177.966C298.476 178.153 297.347 178.356 296.212 178.574C294.955 178.818 293.712 179.076 292.483 179.35L278.913 183.274C259.782 190.368 247.572 203.044 251.9 225.361L252.967 230.854C257.207 253.183 273.344 260.322 293.752 259.765Z" fill="#0166FF"/>
<path d="M295.645 178.657L283.73 183.733C264.599 190.827 252.384 203.495 256.712 225.811L257.781 231.315C261.263 249.651 272.83 257.642 288.133 259.636C270.446 258.768 256.805 251.071 252.965 230.854L251.899 225.361C247.571 203.047 259.783 190.363 278.914 183.268C278.914 183.268 295.315 178.787 295.645 178.657Z" fill="#0E469B"/>
<path d="M309.85 176.157C310.016 176.2 310.266 176.285 310.463 176.328C311.461 176.544 312.541 176.445 313.584 176.234L313.632 176.481C334.256 175.796 350.587 182.868 354.864 205.387L355.929 210.878C360.272 232.799 348.39 245.368 329.771 252.55C329.713 252.454 329.63 252.373 329.565 252.282C346.242 244.907 356.506 232.59 352.428 212.001L351.362 206.509C347.086 183.99 330.757 176.935 310.134 177.62L309.85 176.157Z" fill="#448EFF"/>
<path d="M309 165.471C310.31 165.31 311.512 166.186 311.764 167.481L313.422 176.509C313.429 176.509 313.64 176.492 313.64 176.492C334.263 175.807 350.583 182.865 354.859 205.385L355.931 210.879C360.377 233.32 347.877 245.996 328.496 253.086C328.496 253.086 320.25 256.007 311.563 257.674C302.875 259.347 293.758 259.77 293.758 259.77C273.351 260.333 257.214 253.188 252.975 230.86L251.903 225.35C247.58 203.069 259.754 190.41 278.835 183.309L276.892 173.779C276.641 172.484 277.426 171.204 278.701 170.864C281.606 170.09 284.576 169.36 287.595 168.671C287.941 168.591 288.29 168.574 288.617 168.637C289.595 168.826 290.406 169.617 290.61 170.663L292.418 179.44C293.681 179.144 294.927 178.822 296.221 178.569C297.303 178.358 298.336 178.222 299.403 178.05L297.862 169.725C297.591 168.33 298.518 166.968 299.922 166.744C302.98 166.255 306.017 165.839 309 165.471Z" stroke="black" stroke-width="1.19283" stroke-miterlimit="10" stroke-linecap="round" stroke-linejoin="round"/>
<path fill-rule="evenodd" clip-rule="evenodd" d="M266.959 234.097L266.358 230.999C262.091 210.523 278.591 203.431 298.792 199.221C319.197 195.554 337.152 195.962 340.851 216.549L341.451 219.642C345.736 240.218 329.237 247.309 308.941 251.537C288.631 255.187 270.676 254.775 266.959 234.097Z" fill="#EAF2FF"/>
<path d="M341.906 222.695C341.801 221.191 341.617 219.644 341.237 217.973L340.586 214.88C336.535 194.179 318.504 194.044 298.082 198.044C278.46 202.454 262.447 209.581 265.76 228.824C264.57 211.845 279.903 205.245 298.461 201.074C318.883 197.074 336.915 197.209 340.966 217.91L341.616 221.004C341.748 221.591 341.81 222.131 341.906 222.695Z" fill="#B3CCF6"/>
<path d="M265.766 228.715C265.871 230.219 266.222 231.985 266.597 233.657L267.247 236.752C271.303 257.45 289.329 257.587 309.752 253.59C329.373 249.177 345.386 242.053 342.079 222.808C343.263 239.784 327.93 246.385 309.372 250.556C288.95 254.559 270.924 254.422 266.868 233.723L266.218 230.629C266.086 230.041 265.868 229.279 265.766 228.715Z" fill="#054FBE"/>
<path d="M286.5 226.408C285.687 226.612 284.867 226.12 284.666 225.31L282.243 215.665C282.036 214.855 282.526 214.034 283.339 213.831L287.345 212.824C288.153 212.62 288.978 213.111 289.179 213.921L291.602 223.567C291.809 224.376 291.314 225.198 290.506 225.401L286.5 226.408Z" fill="black" stroke="black" stroke-width="1.13973" stroke-miterlimit="10" stroke-linecap="round" stroke-linejoin="round"/>
<path d="M302.691 220.993C304.456 214.868 312.746 213.554 316.008 217.918" stroke="black" stroke-width="3.03928" stroke-miterlimit="10" stroke-linecap="round" stroke-linejoin="round"/>
<path d="M307.836 233.007C305.082 240.726 294.365 241.862 290.539 236.059" stroke="black" stroke-width="4.55893" stroke-miterlimit="10" stroke-linecap="round" stroke-linejoin="round"/>
<path d="M268.195 238.551C267.71 237.13 267.282 235.635 266.98 233.958L266.38 230.865C262.095 210.295 278.592 203.198 298.887 198.969C318.606 195.427 336.063 195.775 340.468 214.721C334.989 198.674 318.361 198.547 299.711 201.897C279.416 206.126 262.919 213.224 267.204 233.797L267.804 236.889C267.91 237.474 268.066 237.993 268.195 238.551Z" fill="#B3CCF6"/>
<path d="M340.418 214.625C340.903 216.045 341.266 217.803 341.568 219.481L342.168 222.573C346.454 243.144 329.957 250.246 309.661 254.475C289.942 258.017 272.485 257.669 268.08 238.722C273.559 254.769 290.187 254.893 308.837 251.543C329.132 247.314 345.629 240.218 341.344 219.647L340.744 216.555C340.639 215.965 340.547 215.182 340.418 214.625Z" fill="#0E469B"/>
<path d="M111.657 270.257H220.077C224.69 270.257 228.43 266.462 228.43 261.783L217.859 38.7628C217.859 34.0816 214.12 30.2901 209.507 30.2901H101.087C96.4735 30.2901 92.7349 34.0816 92.7349 38.7628L103.305 261.783C103.305 266.462 107.044 270.257 111.657 270.257Z" fill="black"/>
<path d="M116.126 269.726H224.546C229.159 269.726 232.898 265.948 232.898 261.29L222.328 39.2445C222.328 34.5844 218.589 30.807 213.976 30.807H105.555C100.943 30.807 97.2029 34.5844 97.2029 39.2445L107.774 261.29C107.774 265.948 111.513 269.726 116.126 269.726Z" fill="white"/>
<path d="M213.976 31.3342C218.29 31.3342 221.8 34.883 221.8 39.2441L232.371 261.314C232.371 265.652 228.861 269.198 224.546 269.198H116.125C111.811 269.198 108.301 265.652 108.301 261.289L97.7296 39.2195C97.7303 34.8829 101.24 31.3342 105.555 31.3342H213.976ZM116.125 270.253H224.546C229.442 270.253 233.426 266.233 233.426 261.289L222.855 39.2195C222.855 34.3026 218.872 30.2791 213.976 30.2791H105.555C100.659 30.2791 96.6752 34.3026 96.6752 39.2441L107.246 261.314C107.246 266.233 111.229 270.253 116.125 270.253Z" fill="black"/>
<path d="M182.739 30.3358L180.124 34.2292C178.536 36.5961 175.874 38.0135 173.025 38.0135H146.624C143.837 38.0135 141.224 36.656 139.623 34.3734L136.791 30.3358H182.739Z" fill="black"/>
<path d="M192.339 66.5469H206.977C208.401 66.5469 209.556 65.3933 209.556 63.9689C209.556 62.5444 208.401 61.3909 206.977 61.3909H192.339C190.914 61.3909 189.759 62.5444 189.759 63.9689C189.759 65.3933 190.914 66.5469 192.339 66.5469Z" fill="#CADDFF"/>
<path d="M114.94 81.2168H207.588C209.012 81.2168 210.167 80.0597 210.167 78.6353C210.167 77.2109 209.012 76.0573 207.588 76.0573H114.94C113.516 76.0573 112.361 77.2109 112.361 78.6353C112.361 80.0597 113.516 81.2168 114.94 81.2168Z" fill="#CADDFF"/>
<path d="M119.753 206.341H212.4C213.825 206.341 214.979 205.186 214.979 203.762C214.979 202.337 213.825 201.183 212.4 201.183H119.753C118.328 201.183 117.173 202.337 117.173 203.762C117.173 205.186 118.328 206.341 119.753 206.341Z" fill="#CADDFF"/>
<path d="M120.975 220.549H213.622C215.047 220.549 216.201 219.394 216.201 217.97C216.201 216.545 215.047 215.39 213.622 215.39H120.975C119.55 215.39 118.395 216.545 118.395 217.97C118.395 219.394 119.55 220.549 120.975 220.549Z" fill="#CADDFF"/>
<path d="M163.654 236.017H213.966C215.39 236.017 216.545 234.863 216.545 233.438C216.545 232.014 215.39 230.859 213.966 230.859H163.654C162.229 230.859 161.075 232.014 161.075 233.438C161.075 234.863 162.229 236.017 163.654 236.017Z" fill="#CADDFF"/>
<path d="M166.214 66.5469H180.852C182.276 66.5469 183.431 65.3933 183.431 63.9689C183.431 62.5444 182.276 61.3909 180.852 61.3909H166.214C164.789 61.3909 163.634 62.5444 163.634 63.9689C163.634 65.3933 164.789 66.5469 166.214 66.5469Z" fill="#CADDFF"/>
<path d="M140.089 66.5469H154.727C156.151 66.5469 157.306 65.3933 157.306 63.9689C157.306 62.5444 156.151 61.3909 154.727 61.3909H140.089C138.664 61.3909 137.509 62.5444 137.509 63.9689C137.509 65.3933 138.664 66.5469 140.089 66.5469Z" fill="#CADDFF"/>
<path d="M113.964 66.5469H128.602C130.026 66.5469 131.181 65.3933 131.181 63.9689C131.181 62.5444 130.026 61.3909 128.602 61.3909H113.964C112.539 61.3909 111.384 62.5444 111.384 63.9689C111.384 65.3933 112.539 66.5469 113.964 66.5469Z" fill="#CADDFF"/>
<path d="M212.675 143.256C212.675 143.256 207.368 142.152 205.55 141.243C203.731 140.333 203.114 141.265 203.028 141.789C202.953 142.242 204.742 143.784 206.549 144.359C206.715 144.412 206.694 144.653 206.521 144.677C204.853 144.899 202.804 145.771 199.525 144.669C197.277 143.914 195.243 145.718 195.478 147.495C195.772 149.704 202.452 156.618 215.291 149.011L212.675 143.256Z" fill="white"/>
<path d="M214.613 148.796C206.874 153.238 201.833 152.03 199.497 150.897C197.284 149.822 196.103 148.19 196.001 147.426C195.917 146.79 196.227 146.096 196.812 145.614C197.513 145.036 198.464 144.87 199.357 145.17C202.1 146.091 204.012 145.702 205.548 145.389C205.918 145.314 206.267 145.243 206.591 145.2C206.913 145.157 207.159 144.9 207.187 144.575C207.216 144.251 207.019 143.956 206.709 143.857C205.15 143.36 203.797 142.185 203.569 141.797C203.6 141.704 203.676 141.552 203.848 141.464C204.155 141.307 204.676 141.396 205.314 141.715C206.957 142.536 211.194 143.478 212.305 143.717L214.613 148.796ZM204.409 153.005C207.272 153.005 210.997 152.169 215.56 149.465L215.967 149.224L213.044 142.794L212.782 142.74C212.73 142.729 207.522 141.639 205.786 140.771C204.813 140.285 204 140.202 203.368 140.524C202.912 140.757 202.591 141.197 202.507 141.704C202.38 142.476 203.83 143.651 205.239 144.376C203.777 144.672 202.114 144.983 199.693 144.169C198.454 143.753 197.125 143.989 196.141 144.8C195.265 145.522 194.821 146.556 194.955 147.564C195.113 148.756 196.598 150.662 199.037 151.846C200.209 152.415 202.004 153.005 204.409 153.005Z" fill="black"/>
<path d="M164.957 148.422H179.723C180.955 148.422 181.953 147.424 181.953 146.192V136.576C181.953 135.344 180.955 134.345 179.723 134.345H164.957C163.725 134.345 162.726 135.344 162.726 136.576V146.192C162.726 147.424 163.725 148.422 164.957 148.422Z" fill="#CADDFF"/>
<path d="M164.91 162.341H181.543C182.417 162.341 183.125 161.632 183.125 160.759V158.764C183.125 157.891 182.417 157.183 181.543 157.183H164.91C164.037 157.183 163.329 157.891 163.329 158.764V160.759C163.329 161.632 164.037 162.341 164.91 162.341Z" fill="#CADDFF"/>
<path d="M151.676 177.661H184.106C184.947 177.661 185.629 176.979 185.629 176.138C185.629 175.297 184.947 174.615 184.106 174.615H151.676C150.836 174.615 150.154 175.297 150.154 176.138C150.154 176.979 150.836 177.661 151.676 177.661Z" fill="black"/>
<path d="M139.767 162.341H156.4C157.273 162.341 157.981 161.632 157.981 160.759V158.764C157.981 157.891 157.273 157.183 156.4 157.183H139.767C138.893 157.183 138.185 157.891 138.185 158.764V160.759C138.185 161.632 138.893 162.341 139.767 162.341Z" fill="#CADDFF"/>
<path d="M114.623 162.341H131.256C132.13 162.341 132.838 161.632 132.838 160.759V158.764C132.838 157.891 132.13 157.183 131.256 157.183H114.623C113.75 157.183 113.042 157.891 113.042 158.764V160.759C113.042 161.632 113.75 162.341 114.623 162.341Z" fill="#CADDFF"/>
<path d="M124.205 89.8246C117.996 102.657 123.365 118.092 136.197 124.301C149.029 130.51 164.464 125.141 170.673 112.309C176.882 99.4769 171.513 84.0411 158.681 77.8335C145.849 71.6223 130.413 76.9929 124.205 89.8246Z" fill="white"/>
<path d="M147.459 75.7688C151.221 75.7688 154.964 76.6199 158.451 78.3081C171 84.3786 176.27 99.5294 170.198 112.079C164.126 124.628 148.976 129.898 136.426 123.826C130.347 120.884 125.777 115.752 123.559 109.373C121.34 102.994 121.738 96.1337 124.679 90.0544C127.621 83.9741 132.754 79.4054 139.132 77.1862C141.853 76.2401 144.661 75.7688 147.459 75.7688ZM147.397 127.403C157.188 127.404 166.605 121.927 171.148 112.538C177.474 99.4654 171.984 83.6822 158.91 77.3585C152.578 74.2916 145.43 73.8801 138.786 76.1908C132.141 78.5015 126.794 83.2602 123.73 89.5951C117.404 102.668 122.894 118.45 135.967 124.776C139.652 126.559 143.554 127.403 147.397 127.403Z" fill="black"/>
<path d="M126.444 90.9081C120.833 102.504 125.685 116.452 137.28 122.063C148.876 127.673 162.824 122.821 168.435 111.226C174.045 99.6305 169.193 85.6839 157.598 80.0706C146.002 74.4609 132.054 79.3109 126.444 90.9081Z" fill="#CADDFF"/>
<path d="M128.867 92.0814C123.904 102.338 128.196 114.676 138.453 119.639C148.709 124.601 161.047 120.31 166.01 110.053C170.973 99.7965 166.681 87.4604 156.425 82.4943C146.168 77.5317 133.83 81.826 128.867 92.0814Z" fill="white"/>
<path d="M147.405 122.877C155.513 122.878 163.311 118.342 167.073 110.567C172.311 99.7412 167.765 86.6724 156.939 81.432C150.407 78.2736 142.755 78.5621 136.47 82.2128C136.218 82.357 136.132 82.6805 136.279 82.9338C136.425 83.1835 136.748 83.2714 137 83.1237C142.981 79.6523 150.263 79.3745 156.48 82.3816C166.782 87.3688 171.108 99.8052 166.124 110.108C161.138 120.41 148.701 124.737 138.399 119.752C133.408 117.337 129.656 113.123 127.835 107.886C126.013 102.65 126.34 97.0176 128.755 92.0268C128.882 91.7648 128.772 91.449 128.51 91.322C128.247 91.1954 127.932 91.3051 127.805 91.5675C125.267 96.8118 124.924 102.73 126.838 108.233C128.752 113.736 132.694 118.164 137.939 120.702C140.99 122.178 144.222 122.877 147.405 122.877Z" fill="black"/>
<path d="M143.521 112.828L144.768 110.252C146.625 111.05 148.624 111.414 149.943 111.317L150.665 107.749C149.224 107.822 147.348 107.617 145.585 106.764C144.039 106.017 143.27 104.908 143.795 103.823C144.294 102.792 145.477 102.561 147.812 102.854C151.186 103.282 153.822 102.884 155.095 100.254C156.25 97.8668 155.474 95.1819 152.847 93.2081L154.094 90.6315L151.436 89.3457L150.281 91.7324C148.425 90.9343 147.021 90.7237 145.916 90.7244L145.22 94.1697C146.069 94.2126 147.618 94.1925 149.571 95.1372C151.334 95.9901 151.536 97.0252 151.169 97.7845C150.735 98.6796 149.511 98.7901 146.785 98.5425C143.007 98.1197 140.983 98.9817 139.802 101.423C138.634 103.836 139.345 106.724 142.202 108.776L140.863 111.542L143.521 112.828Z" fill="#0066FF"/>
<path d="M144.211 246.167C144.912 246.167 145.483 246.738 145.483 247.439C145.483 248.141 144.912 248.711 144.211 248.711C143.51 248.711 142.939 248.141 142.939 247.439C142.939 246.738 143.51 246.167 144.211 246.167ZM144.211 249.767C145.494 249.767 146.538 248.722 146.538 247.439C146.538 246.156 145.494 245.112 144.211 245.112C142.928 245.112 141.884 246.156 141.884 247.439C141.884 248.722 142.928 249.767 144.211 249.767Z" fill="black"/>
<path d="M117.398 44.8291C117.533 44.8291 117.668 44.7798 117.771 44.6743L118.831 43.6157C119.037 43.4082 119.037 43.0741 118.831 42.8701C118.625 42.6626 118.291 42.6626 118.085 42.8701L117.025 43.9287C116.819 44.1363 116.819 44.4703 117.025 44.6743C117.129 44.7798 117.263 44.8291 117.398 44.8291Z" fill="black"/>
<path d="M113.689 48.5402C113.824 48.5402 113.96 48.4874 114.063 48.3854L115.122 47.3268C115.328 47.1193 115.328 46.7851 115.122 46.5776C114.917 46.3736 114.582 46.3736 114.376 46.5776L113.317 47.6398C113.11 47.8438 113.11 48.1779 113.317 48.3854C113.419 48.4874 113.554 48.5402 113.689 48.5402Z" fill="black"/>
<path d="M118.458 48.5402C118.593 48.5402 118.728 48.4874 118.831 48.3854C119.037 48.1779 119.037 47.8438 118.831 47.6398L117.771 46.5776C117.565 46.3736 117.231 46.3736 117.025 46.5776C116.819 46.7851 116.819 47.1193 117.025 47.3233L118.085 48.3854C118.188 48.4874 118.323 48.5402 118.458 48.5402Z" fill="black"/>
<path d="M114.75 44.8291C114.885 44.8291 115.02 44.7798 115.123 44.6743C115.329 44.4703 115.329 44.1363 115.123 43.9287L114.063 42.8701C113.857 42.6626 113.523 42.6626 113.317 42.8701C113.111 43.0741 113.111 43.4082 113.317 43.6157L114.377 44.6743C114.48 44.7798 114.615 44.8291 114.75 44.8291Z" fill="black"/>
<path d="M128.463 234.217C128.598 234.217 128.733 234.165 128.836 234.062L130.303 232.595C130.51 232.389 130.51 232.055 130.303 231.849C130.098 231.643 129.764 231.643 129.557 231.849L128.09 233.316C127.884 233.522 127.884 233.856 128.09 234.062C128.193 234.165 128.328 234.217 128.463 234.217Z" fill="black"/>
<path d="M123.327 239.353C123.462 239.353 123.597 239.301 123.7 239.198L125.167 237.731C125.373 237.525 125.373 237.19 125.167 236.984C124.961 236.779 124.627 236.779 124.421 236.984L122.954 238.452C122.748 238.658 122.748 238.992 122.954 239.198C123.057 239.301 123.192 239.353 123.327 239.353Z" fill="black"/>
<path d="M129.931 239.353C130.066 239.353 130.201 239.301 130.304 239.198C130.51 238.992 130.51 238.658 130.304 238.452L128.836 236.984C128.63 236.779 128.296 236.779 128.09 236.984C127.884 237.19 127.884 237.525 128.09 237.731L129.558 239.198C129.661 239.301 129.796 239.353 129.931 239.353Z" fill="black"/>
<path d="M124.795 234.217C124.93 234.217 125.065 234.165 125.168 234.062C125.374 233.856 125.374 233.522 125.168 233.316L123.7 231.849C123.494 231.643 123.161 231.643 122.954 231.849C122.748 232.055 122.748 232.389 122.954 232.595L124.422 234.062C124.525 234.165 124.66 234.217 124.795 234.217Z" fill="black"/>
<path d="M187.981 111.723C188.178 111.723 188.368 111.611 188.458 111.421L194.187 99.3516C194.312 99.0885 194.2 98.7737 193.937 98.6489C193.674 98.524 193.359 98.6358 193.234 98.8992L187.505 110.968C187.38 111.232 187.492 111.547 187.755 111.672C187.828 111.706 187.905 111.723 187.981 111.723Z" fill="black"/>
<path d="M191.572 113.785C191.665 113.785 191.758 113.761 191.844 113.71L216.746 98.7376C216.996 98.587 217.077 98.2631 216.926 98.0134C216.777 97.7637 216.452 97.6832 216.203 97.833L191.3 112.805C191.05 112.955 190.969 113.28 191.119 113.529C191.219 113.694 191.393 113.785 191.572 113.785Z" fill="black"/>
<path d="M193.099 118.063C193.122 118.063 193.145 118.061 193.169 118.058L201.266 116.989C201.555 116.95 201.758 116.685 201.72 116.396C201.681 116.107 201.416 115.904 201.128 115.943L193.03 117.012C192.742 117.05 192.538 117.315 192.576 117.604C192.612 117.87 192.838 118.063 193.099 118.063Z" fill="black"/>
<path d="M111.657 270.257H220.077C224.69 270.257 228.43 266.462 228.43 261.783L217.859 38.7628C217.859 34.0816 214.12 30.2901 209.507 30.2901H101.087C96.4735 30.2901 92.7349 34.0816 92.7349 38.7628L103.305 261.783C103.305 266.462 107.044 270.257 111.657 270.257Z" fill="black"/>
<path d="M116.126 269.726H224.546C229.159 269.726 232.898 265.948 232.898 261.29L222.328 39.2445C222.328 34.5844 218.589 30.807 213.976 30.807H105.555C100.943 30.807 97.2029 34.5844 97.2029 39.2445L107.774 261.29C107.774 265.948 111.513 269.726 116.126 269.726Z" fill="white"/>
<path d="M213.976 31.3342C218.29 31.3342 221.8 34.883 221.8 39.2441L232.371 261.314C232.371 265.652 228.861 269.198 224.546 269.198H116.125C111.811 269.198 108.301 265.652 108.301 261.289L97.7296 39.2195C97.7303 34.8829 101.24 31.3342 105.555 31.3342H213.976ZM116.125 270.253H224.546C229.442 270.253 233.426 266.233 233.426 261.289L222.855 39.2195C222.855 34.3026 218.872 30.2791 213.976 30.2791H105.555C100.659 30.2791 96.6752 34.3026 96.6752 39.2441L107.246 261.314C107.246 266.233 111.229 270.253 116.125 270.253Z" fill="black"/>
<path d="M182.739 30.3358L180.124 34.2292C178.536 36.5961 175.874 38.0135 173.025 38.0135H146.624C143.837 38.0135 141.224 36.656 139.623 34.3734L136.791 30.3358H182.739Z" fill="black"/>
<path d="M192.339 66.5469H206.977C208.401 66.5469 209.556 65.3933 209.556 63.9689C209.556 62.5444 208.401 61.3909 206.977 61.3909H192.339C190.914 61.3909 189.759 62.5444 189.759 63.9689C189.759 65.3933 190.914 66.5469 192.339 66.5469Z" fill="#CADDFF"/>
<path d="M114.94 81.2168H207.588C209.012 81.2168 210.167 80.0597 210.167 78.6353C210.167 77.2109 209.012 76.0573 207.588 76.0573H114.94C113.516 76.0573 112.361 77.2109 112.361 78.6353C112.361 80.0597 113.516 81.2168 114.94 81.2168Z" fill="#CADDFF"/>
<path d="M119.753 206.341H212.4C213.825 206.341 214.979 205.186 214.979 203.762C214.979 202.337 213.825 201.183 212.4 201.183H119.753C118.328 201.183 117.173 202.337 117.173 203.762C117.173 205.186 118.328 206.341 119.753 206.341Z" fill="#CADDFF"/>
<path d="M120.975 220.549H213.622C215.047 220.549 216.201 219.394 216.201 217.97C216.201 216.545 215.047 215.39 213.622 215.39H120.975C119.55 215.39 118.395 216.545 118.395 217.97C118.395 219.394 119.55 220.549 120.975 220.549Z" fill="#CADDFF"/>
<path d="M163.654 236.017H213.966C215.39 236.017 216.545 234.863 216.545 233.438C216.545 232.014 215.39 230.859 213.966 230.859H163.654C162.229 230.859 161.075 232.014 161.075 233.438C161.075 234.863 162.229 236.017 163.654 236.017Z" fill="#CADDFF"/>
<path d="M166.214 66.5469H180.852C182.276 66.5469 183.431 65.3933 183.431 63.9689C183.431 62.5444 182.276 61.3909 180.852 61.3909H166.214C164.789 61.3909 163.634 62.5444 163.634 63.9689C163.634 65.3933 164.789 66.5469 166.214 66.5469Z" fill="#CADDFF"/>
<path d="M140.089 66.5469H154.727C156.151 66.5469 157.306 65.3933 157.306 63.9689C157.306 62.5444 156.151 61.3909 154.727 61.3909H140.089C138.664 61.3909 137.509 62.5444 137.509 63.9689C137.509 65.3933 138.664 66.5469 140.089 66.5469Z" fill="#CADDFF"/>
<path d="M113.964 66.5469H128.602C130.026 66.5469 131.181 65.3933 131.181 63.9689C131.181 62.5444 130.026 61.3909 128.602 61.3909H113.964C112.539 61.3909 111.384 62.5444 111.384 63.9689C111.384 65.3933 112.539 66.5469 113.964 66.5469Z" fill="#CADDFF"/>
<path d="M212.675 143.256C212.675 143.256 207.368 142.152 205.55 141.243C203.731 140.333 203.114 141.265 203.028 141.789C202.953 142.242 204.742 143.784 206.549 144.359C206.715 144.412 206.694 144.653 206.521 144.677C204.853 144.899 202.804 145.771 199.525 144.669C197.277 143.914 195.243 145.718 195.478 147.495C195.772 149.704 202.452 156.618 215.291 149.011L212.675 143.256Z" fill="white"/>
<path d="M214.613 148.796C206.874 153.238 201.833 152.03 199.497 150.897C197.284 149.822 196.103 148.19 196.001 147.426C195.917 146.79 196.227 146.096 196.812 145.614C197.513 145.036 198.464 144.87 199.357 145.17C202.1 146.091 204.012 145.702 205.548 145.389C205.918 145.314 206.267 145.243 206.591 145.2C206.913 145.157 207.159 144.9 207.187 144.575C207.216 144.251 207.019 143.956 206.709 143.857C205.15 143.36 203.797 142.185 203.569 141.797C203.6 141.704 203.676 141.552 203.848 141.464C204.155 141.307 204.676 141.396 205.314 141.715C206.957 142.536 211.194 143.478 212.305 143.717L214.613 148.796ZM204.409 153.005C207.272 153.005 210.997 152.169 215.56 149.465L215.967 149.224L213.044 142.794L212.782 142.74C212.73 142.729 207.522 141.639 205.786 140.771C204.813 140.285 204 140.202 203.368 140.524C202.912 140.757 202.591 141.197 202.507 141.704C202.38 142.476 203.83 143.651 205.239 144.376C203.777 144.672 202.114 144.983 199.693 144.169C198.454 143.753 197.125 143.989 196.141 144.8C195.265 145.522 194.821 146.556 194.955 147.564C195.113 148.756 196.598 150.662 199.037 151.846C200.209 152.415 202.004 153.005 204.409 153.005Z" fill="black"/>
<path d="M164.957 148.422H179.723C180.955 148.422 181.953 147.424 181.953 146.192V136.576C181.953 135.344 180.955 134.345 179.723 134.345H164.957C163.725 134.345 162.726 135.344 162.726 136.576V146.192C162.726 147.424 163.725 148.422 164.957 148.422Z" fill="#CADDFF"/>
<path d="M164.91 162.341H181.543C182.417 162.341 183.125 161.632 183.125 160.759V158.764C183.125 157.891 182.417 157.183 181.543 157.183H164.91C164.037 157.183 163.329 157.891 163.329 158.764V160.759C163.329 161.632 164.037 162.341 164.91 162.341Z" fill="#CADDFF"/>
<path d="M151.676 177.661H184.106C184.947 177.661 185.629 176.979 185.629 176.138C185.629 175.297 184.947 174.615 184.106 174.615H151.676C150.836 174.615 150.154 175.297 150.154 176.138C150.154 176.979 150.836 177.661 151.676 177.661Z" fill="black"/>
<path d="M139.767 162.341H156.4C157.273 162.341 157.981 161.632 157.981 160.759V158.764C157.981 157.891 157.273 157.183 156.4 157.183H139.767C138.893 157.183 138.185 157.891 138.185 158.764V160.759C138.185 161.632 138.893 162.341 139.767 162.341Z" fill="#CADDFF"/>
<path d="M114.623 162.341H131.256C132.13 162.341 132.838 161.632 132.838 160.759V158.764C132.838 157.891 132.13 157.183 131.256 157.183H114.623C113.75 157.183 113.042 157.891 113.042 158.764V160.759C113.042 161.632 113.75 162.341 114.623 162.341Z" fill="#CADDFF"/>
<path d="M124.205 89.8246C117.996 102.657 123.365 118.092 136.197 124.301C149.029 130.51 164.464 125.141 170.673 112.309C176.882 99.4769 171.513 84.0411 158.681 77.8335C145.849 71.6223 130.413 76.9929 124.205 89.8246Z" fill="white"/>
<path d="M147.459 75.7688C151.221 75.7688 154.964 76.6199 158.451 78.3081C171 84.3786 176.27 99.5294 170.198 112.079C164.126 124.628 148.976 129.898 136.426 123.826C130.347 120.884 125.777 115.752 123.559 109.373C121.34 102.994 121.738 96.1337 124.679 90.0544C127.621 83.9741 132.754 79.4054 139.132 77.1862C141.853 76.2401 144.661 75.7688 147.459 75.7688ZM147.397 127.403C157.188 127.404 166.605 121.927 171.148 112.538C177.474 99.4654 171.984 83.6822 158.91 77.3585C152.578 74.2916 145.43 73.8801 138.786 76.1908C132.141 78.5015 126.794 83.2602 123.73 89.5951C117.404 102.668 122.894 118.45 135.967 124.776C139.652 126.559 143.554 127.403 147.397 127.403Z" fill="black"/>
<path d="M126.444 90.9081C120.833 102.504 125.685 116.452 137.28 122.063C148.876 127.673 162.824 122.821 168.435 111.226C174.045 99.6305 169.193 85.6839 157.598 80.0706C146.002 74.4609 132.054 79.3109 126.444 90.9081Z" fill="#CADDFF"/>
<path d="M128.867 92.0814C123.904 102.338 128.196 114.676 138.453 119.639C148.709 124.601 161.047 120.31 166.01 110.053C170.973 99.7965 166.681 87.4604 156.425 82.4943C146.168 77.5317 133.83 81.826 128.867 92.0814Z" fill="white"/>
<path d="M147.405 122.877C155.513 122.878 163.311 118.342 167.073 110.567C172.311 99.7412 167.765 86.6724 156.939 81.432C150.407 78.2736 142.755 78.5621 136.47 82.2128C136.218 82.357 136.132 82.6805 136.279 82.9338C136.425 83.1835 136.748 83.2714 137 83.1237C142.981 79.6523 150.263 79.3745 156.48 82.3816C166.782 87.3688 171.108 99.8052 166.124 110.108C161.138 120.41 148.701 124.737 138.399 119.752C133.408 117.337 129.656 113.123 127.835 107.886C126.013 102.65 126.34 97.0176 128.755 92.0268C128.882 91.7648 128.772 91.449 128.51 91.322C128.247 91.1954 127.932 91.3051 127.805 91.5675C125.267 96.8118 124.924 102.73 126.838 108.233C128.752 113.736 132.694 118.164 137.939 120.702C140.99 122.178 144.222 122.877 147.405 122.877Z" fill="black"/>
<path d="M143.521 112.828L144.768 110.252C146.625 111.05 148.624 111.414 149.943 111.317L150.665 107.749C149.224 107.822 147.348 107.617 145.585 106.764C144.039 106.017 143.27 104.908 143.795 103.823C144.294 102.792 145.477 102.561 147.812 102.854C151.186 103.282 153.822 102.884 155.095 100.254C156.25 97.8668 155.474 95.1819 152.847 93.2081L154.094 90.6315L151.436 89.3457L150.281 91.7324C148.425 90.9343 147.021 90.7237 145.916 90.7244L145.22 94.1697C146.069 94.2126 147.618 94.1925 149.571 95.1372C151.334 95.9901 151.536 97.0252 151.169 97.7845C150.735 98.6796 149.511 98.7901 146.785 98.5425C143.007 98.1197 140.983 98.9817 139.802 101.423C138.634 103.836 139.345 106.724 142.202 108.776L140.863 111.542L143.521 112.828Z" fill="#0066FF"/>
<path d="M144.211 246.167C144.912 246.167 145.483 246.738 145.483 247.439C145.483 248.141 144.912 248.711 144.211 248.711C143.51 248.711 142.939 248.141 142.939 247.439C142.939 246.738 143.51 246.167 144.211 246.167ZM144.211 249.767C145.494 249.767 146.538 248.722 146.538 247.439C146.538 246.156 145.494 245.112 144.211 245.112C142.928 245.112 141.884 246.156 141.884 247.439C141.884 248.722 142.928 249.767 144.211 249.767Z" fill="black"/>
<path d="M117.398 44.8291C117.533 44.8291 117.668 44.7798 117.771 44.6743L118.831 43.6157C119.037 43.4082 119.037 43.0741 118.831 42.8701C118.625 42.6626 118.291 42.6626 118.085 42.8701L117.025 43.9287C116.819 44.1363 116.819 44.4703 117.025 44.6743C117.129 44.7798 117.263 44.8291 117.398 44.8291Z" fill="black"/>
<path d="M113.689 48.5402C113.824 48.5402 113.96 48.4874 114.063 48.3854L115.122 47.3268C115.328 47.1193 115.328 46.7851 115.122 46.5776C114.917 46.3736 114.582 46.3736 114.376 46.5776L113.317 47.6398C113.11 47.8438 113.11 48.1779 113.317 48.3854C113.419 48.4874 113.554 48.5402 113.689 48.5402Z" fill="black"/>
<path d="M118.458 48.5402C118.593 48.5402 118.728 48.4874 118.831 48.3854C119.037 48.1779 119.037 47.8438 118.831 47.6398L117.771 46.5776C117.565 46.3736 117.231 46.3736 117.025 46.5776C116.819 46.7851 116.819 47.1193 117.025 47.3233L118.085 48.3854C118.188 48.4874 118.323 48.5402 118.458 48.5402Z" fill="black"/>
<path d="M114.75 44.8291C114.885 44.8291 115.02 44.7798 115.123 44.6743C115.329 44.4703 115.329 44.1363 115.123 43.9287L114.063 42.8701C113.857 42.6626 113.523 42.6626 113.317 42.8701C113.111 43.0741 113.111 43.4082 113.317 43.6157L114.377 44.6743C114.48 44.7798 114.615 44.8291 114.75 44.8291Z" fill="black"/>
<path d="M128.463 234.217C128.598 234.217 128.733 234.165 128.836 234.062L130.303 232.595C130.51 232.389 130.51 232.055 130.303 231.849C130.098 231.643 129.764 231.643 129.557 231.849L128.09 233.316C127.884 233.522 127.884 233.856 128.09 234.062C128.193 234.165 128.328 234.217 128.463 234.217Z" fill="black"/>
<path d="M123.327 239.353C123.462 239.353 123.597 239.301 123.7 239.198L125.167 237.731C125.373 237.525 125.373 237.19 125.167 236.984C124.961 236.779 124.627 236.779 124.421 236.984L122.954 238.452C122.748 238.658 122.748 238.992 122.954 239.198C123.057 239.301 123.192 239.353 123.327 239.353Z" fill="black"/>
<path d="M129.931 239.353C130.066 239.353 130.201 239.301 130.304 239.198C130.51 238.992 130.51 238.658 130.304 238.452L128.836 236.984C128.63 236.779 128.296 236.779 128.09 236.984C127.884 237.19 127.884 237.525 128.09 237.731L129.558 239.198C129.661 239.301 129.796 239.353 129.931 239.353Z" fill="black"/>
<path d="M124.795 234.217C124.93 234.217 125.065 234.165 125.168 234.062C125.374 233.856 125.374 233.522 125.168 233.316L123.7 231.849C123.494 231.643 123.161 231.643 122.954 231.849C122.748 232.055 122.748 232.389 122.954 232.595L124.422 234.062C124.525 234.165 124.66 234.217 124.795 234.217Z" fill="black"/>
<path d="M187.981 111.723C188.178 111.723 188.368 111.611 188.458 111.421L194.187 99.3516C194.312 99.0885 194.2 98.7737 193.937 98.6489C193.674 98.524 193.359 98.6358 193.234 98.8992L187.505 110.968C187.38 111.232 187.492 111.547 187.755 111.672C187.828 111.706 187.905 111.723 187.981 111.723Z" fill="black"/>
<path d="M191.572 113.785C191.665 113.785 191.758 113.761 191.844 113.71L216.746 98.7376C216.996 98.587 217.077 98.2631 216.926 98.0134C216.777 97.7637 216.452 97.6832 216.203 97.833L191.3 112.805C191.05 112.955 190.969 113.28 191.119 113.529C191.219 113.694 191.393 113.785 191.572 113.785Z" fill="black"/>
<path d="M193.099 118.063C193.122 118.063 193.145 118.061 193.169 118.058L201.266 116.989C201.555 116.95 201.758 116.685 201.72 116.396C201.681 116.107 201.416 115.904 201.128 115.943L193.03 117.012C192.742 117.05 192.538 117.315 192.576 117.604C192.612 117.87 192.838 118.063 193.099 118.063Z" fill="black"/>
<path d="M111.657 270.257H220.077C224.69 270.257 228.43 266.462 228.43 261.783L217.859 38.7628C217.859 34.0816 214.12 30.2901 209.507 30.2901H101.087C96.4735 30.2901 92.7349 34.0816 92.7349 38.7628L103.305 261.783C103.305 266.462 107.044 270.257 111.657 270.257Z" fill="black"/>
<path d="M116.126 269.726H224.546C229.159 269.726 232.898 265.948 232.898 261.29L222.328 39.2445C222.328 34.5844 218.589 30.807 213.976 30.807H105.555C100.943 30.807 97.2029 34.5844 97.2029 39.2445L107.774 261.29C107.774 265.948 111.513 269.726 116.126 269.726Z" fill="white"/>
<path d="M213.976 31.3342C218.29 31.3342 221.8 34.883 221.8 39.2441L232.371 261.314C232.371 265.652 228.861 269.198 224.546 269.198H116.125C111.811 269.198 108.301 265.652 108.301 261.289L97.7296 39.2195C97.7303 34.8829 101.24 31.3342 105.555 31.3342H213.976ZM116.125 270.253H224.546C229.442 270.253 233.426 266.233 233.426 261.289L222.855 39.2195C222.855 34.3026 218.872 30.2791 213.976 30.2791H105.555C100.659 30.2791 96.6752 34.3026 96.6752 39.2441L107.246 261.314C107.246 266.233 111.229 270.253 116.125 270.253Z" fill="black"/>
<path d="M182.739 30.3358L180.124 34.2292C178.536 36.5961 175.874 38.0135 173.025 38.0135H146.624C143.837 38.0135 141.224 36.656 139.623 34.3734L136.791 30.3358H182.739Z" fill="black"/>
<path d="M192.339 66.5469H206.977C208.401 66.5469 209.556 65.3933 209.556 63.9689C209.556 62.5444 208.401 61.3909 206.977 61.3909H192.339C190.914 61.3909 189.759 62.5444 189.759 63.9689C189.759 65.3933 190.914 66.5469 192.339 66.5469Z" fill="#CADDFF"/>
<path d="M114.94 81.2168H207.588C209.012 81.2168 210.167 80.0597 210.167 78.6353C210.167 77.2109 209.012 76.0573 207.588 76.0573H114.94C113.516 76.0573 112.361 77.2109 112.361 78.6353C112.361 80.0597 113.516 81.2168 114.94 81.2168Z" fill="#CADDFF"/>
<path d="M119.753 206.341H212.4C213.825 206.341 214.979 205.186 214.979 203.762C214.979 202.337 213.825 201.183 212.4 201.183H119.753C118.328 201.183 117.173 202.337 117.173 203.762C117.173 205.186 118.328 206.341 119.753 206.341Z" fill="#CADDFF"/>
<path d="M120.975 220.549H213.622C215.047 220.549 216.201 219.394 216.201 217.97C216.201 216.545 215.047 215.39 213.622 215.39H120.975C119.55 215.39 118.395 216.545 118.395 217.97C118.395 219.394 119.55 220.549 120.975 220.549Z" fill="#CADDFF"/>
<path d="M163.654 236.017H213.966C215.39 236.017 216.545 234.863 216.545 233.438C216.545 232.014 215.39 230.859 213.966 230.859H163.654C162.229 230.859 161.075 232.014 161.075 233.438C161.075 234.863 162.229 236.017 163.654 236.017Z" fill="#CADDFF"/>
<path d="M166.214 66.5469H180.852C182.276 66.5469 183.431 65.3933 183.431 63.9689C183.431 62.5444 182.276 61.3909 180.852 61.3909H166.214C164.789 61.3909 163.634 62.5444 163.634 63.9689C163.634 65.3933 164.789 66.5469 166.214 66.5469Z" fill="#CADDFF"/>
<path d="M140.089 66.5469H154.727C156.151 66.5469 157.306 65.3933 157.306 63.9689C157.306 62.5444 156.151 61.3909 154.727 61.3909H140.089C138.664 61.3909 137.509 62.5444 137.509 63.9689C137.509 65.3933 138.664 66.5469 140.089 66.5469Z" fill="#CADDFF"/>
<path d="M113.964 66.5469H128.602C130.026 66.5469 131.181 65.3933 131.181 63.9689C131.181 62.5444 130.026 61.3909 128.602 61.3909H113.964C112.539 61.3909 111.384 62.5444 111.384 63.9689C111.384 65.3933 112.539 66.5469 113.964 66.5469Z" fill="#CADDFF"/>
<path d="M212.675 143.256C212.675 143.256 207.368 142.152 205.55 141.243C203.731 140.333 203.114 141.265 203.028 141.789C202.953 142.242 204.742 143.784 206.549 144.359C206.715 144.412 206.694 144.653 206.521 144.677C204.853 144.899 202.804 145.771 199.525 144.669C197.277 143.914 195.243 145.718 195.478 147.495C195.772 149.704 202.452 156.618 215.291 149.011L212.675 143.256Z" fill="white"/>
<path d="M214.613 148.796C206.874 153.238 201.833 152.03 199.497 150.897C197.284 149.822 196.103 148.19 196.001 147.426C195.917 146.79 196.227 146.096 196.812 145.614C197.513 145.036 198.464 144.87 199.357 145.17C202.1 146.091 204.012 145.702 205.548 145.389C205.918 145.314 206.267 145.243 206.591 145.2C206.913 145.157 207.159 144.9 207.187 144.575C207.216 144.251 207.019 143.956 206.709 143.857C205.15 143.36 203.797 142.185 203.569 141.797C203.6 141.704 203.676 141.552 203.848 141.464C204.155 141.307 204.676 141.396 205.314 141.715C206.957 142.536 211.194 143.478 212.305 143.717L214.613 148.796ZM204.409 153.005C207.272 153.005 210.997 152.169 215.56 149.465L215.967 149.224L213.044 142.794L212.782 142.74C212.73 142.729 207.522 141.639 205.786 140.771C204.813 140.285 204 140.202 203.368 140.524C202.912 140.757 202.591 141.197 202.507 141.704C202.38 142.476 203.83 143.651 205.239 144.376C203.777 144.672 202.114 144.983 199.693 144.169C198.454 143.753 197.125 143.989 196.141 144.8C195.265 145.522 194.821 146.556 194.955 147.564C195.113 148.756 196.598 150.662 199.037 151.846C200.209 152.415 202.004 153.005 204.409 153.005Z" fill="black"/>
<path d="M164.957 148.422H179.723C180.955 148.422 181.953 147.424 181.953 146.192V136.576C181.953 135.344 180.955 134.345 179.723 134.345H164.957C163.725 134.345 162.726 135.344 162.726 136.576V146.192C162.726 147.424 163.725 148.422 164.957 148.422Z" fill="#CADDFF"/>
<path d="M164.91 162.341H181.543C182.417 162.341 183.125 161.632 183.125 160.759V158.764C183.125 157.891 182.417 157.183 181.543 157.183H164.91C164.037 157.183 163.329 157.891 163.329 158.764V160.759C163.329 161.632 164.037 162.341 164.91 162.341Z" fill="#CADDFF"/>
<path d="M151.676 177.661H184.106C184.947 177.661 185.629 176.979 185.629 176.138C185.629 175.297 184.947 174.615 184.106 174.615H151.676C150.836 174.615 150.154 175.297 150.154 176.138C150.154 176.979 150.836 177.661 151.676 177.661Z" fill="black"/>
<path d="M139.767 162.341H156.4C157.273 162.341 157.981 161.632 157.981 160.759V158.764C157.981 157.891 157.273 157.183 156.4 157.183H139.767C138.893 157.183 138.185 157.891 138.185 158.764V160.759C138.185 161.632 138.893 162.341 139.767 162.341Z" fill="#CADDFF"/>
<path d="M114.623 162.341H131.256C132.13 162.341 132.838 161.632 132.838 160.759V158.764C132.838 157.891 132.13 157.183 131.256 157.183H114.623C113.75 157.183 113.042 157.891 113.042 158.764V160.759C113.042 161.632 113.75 162.341 114.623 162.341Z" fill="#CADDFF"/>
<path d="M124.205 89.8246C117.996 102.657 123.365 118.092 136.197 124.301C149.029 130.51 164.464 125.141 170.673 112.309C176.882 99.4769 171.513 84.0411 158.681 77.8335C145.849 71.6223 130.413 76.9929 124.205 89.8246Z" fill="white"/>
<path d="M147.459 75.7688C151.221 75.7688 154.964 76.6199 158.451 78.3081C171 84.3786 176.27 99.5294 170.198 112.079C164.126 124.628 148.976 129.898 136.426 123.826C130.347 120.884 125.777 115.752 123.559 109.373C121.34 102.994 121.738 96.1337 124.679 90.0544C127.621 83.9741 132.754 79.4054 139.132 77.1862C141.853 76.2401 144.661 75.7688 147.459 75.7688ZM147.397 127.403C157.188 127.404 166.605 121.927 171.148 112.538C177.474 99.4654 171.984 83.6822 158.91 77.3585C152.578 74.2916 145.43 73.8801 138.786 76.1908C132.141 78.5015 126.794 83.2602 123.73 89.5951C117.404 102.668 122.894 118.45 135.967 124.776C139.652 126.559 143.554 127.403 147.397 127.403Z" fill="black"/>
<path d="M126.444 90.9081C120.833 102.504 125.685 116.452 137.28 122.063C148.876 127.673 162.824 122.821 168.435 111.226C174.045 99.6305 169.193 85.6839 157.598 80.0706C146.002 74.4609 132.054 79.3109 126.444 90.9081Z" fill="#CADDFF"/>
<path d="M128.867 92.0814C123.904 102.338 128.196 114.676 138.453 119.639C148.709 124.601 161.047 120.31 166.01 110.053C170.973 99.7965 166.681 87.4604 156.425 82.4943C146.168 77.5317 133.83 81.826 128.867 92.0814Z" fill="white"/>
<path d="M147.405 122.877C155.513 122.878 163.311 118.342 167.073 110.567C172.311 99.7412 167.765 86.6724 156.939 81.432C150.407 78.2736 142.755 78.5621 136.47 82.2128C136.218 82.357 136.132 82.6805 136.279 82.9338C136.425 83.1835 136.748 83.2714 137 83.1237C142.981 79.6523 150.263 79.3745 156.48 82.3816C166.782 87.3688 171.108 99.8052 166.124 110.108C161.138 120.41 148.701 124.737 138.399 119.752C133.408 117.337 129.656 113.123 127.835 107.886C126.013 102.65 126.34 97.0176 128.755 92.0268C128.882 91.7648 128.772 91.449 128.51 91.322C128.247 91.1954 127.932 91.3051 127.805 91.5675C125.267 96.8118 124.924 102.73 126.838 108.233C128.752 113.736 132.694 118.164 137.939 120.702C140.99 122.178 144.222 122.877 147.405 122.877Z" fill="black"/>
<path d="M143.521 112.828L144.768 110.252C146.625 111.05 148.624 111.414 149.943 111.317L150.665 107.749C149.224 107.822 147.348 107.617 145.585 106.764C144.039 106.017 143.27 104.908 143.795 103.823C144.294 102.792 145.477 102.561 147.812 102.854C151.186 103.282 153.822 102.884 155.095 100.254C156.25 97.8668 155.474 95.1819 152.847 93.2081L154.094 90.6315L151.436 89.3457L150.281 91.7324C148.425 90.9343 147.021 90.7237 145.916 90.7244L145.22 94.1697C146.069 94.2126 147.618 94.1925 149.571 95.1372C151.334 95.9901 151.536 97.0252 151.169 97.7845C150.735 98.6796 149.511 98.7901 146.785 98.5425C143.007 98.1197 140.983 98.9817 139.802 101.423C138.634 103.836 139.345 106.724 142.202 108.776L140.863 111.542L143.521 112.828Z" fill="#0066FF"/>
<path d="M144.211 246.167C144.912 246.167 145.483 246.738 145.483 247.439C145.483 248.141 144.912 248.711 144.211 248.711C143.51 248.711 142.939 248.141 142.939 247.439C142.939 246.738 143.51 246.167 144.211 246.167ZM144.211 249.767C145.494 249.767 146.538 248.722 146.538 247.439C146.538 246.156 145.494 245.112 144.211 245.112C142.928 245.112 141.884 246.156 141.884 247.439C141.884 248.722 142.928 249.767 144.211 249.767Z" fill="black"/>
<path d="M117.398 44.8291C117.533 44.8291 117.668 44.7798 117.771 44.6743L118.831 43.6157C119.037 43.4082 119.037 43.0741 118.831 42.8701C118.625 42.6626 118.291 42.6626 118.085 42.8701L117.025 43.9287C116.819 44.1363 116.819 44.4703 117.025 44.6743C117.129 44.7798 117.263 44.8291 117.398 44.8291Z" fill="black"/>
<path d="M113.689 48.5402C113.824 48.5402 113.96 48.4874 114.063 48.3854L115.122 47.3268C115.328 47.1193 115.328 46.7851 115.122 46.5776C114.917 46.3736 114.582 46.3736 114.376 46.5776L113.317 47.6398C113.11 47.8438 113.11 48.1779 113.317 48.3854C113.419 48.4874 113.554 48.5402 113.689 48.5402Z" fill="black"/>
<path d="M118.458 48.5402C118.593 48.5402 118.728 48.4874 118.831 48.3854C119.037 48.1779 119.037 47.8438 118.831 47.6398L117.771 46.5776C117.565 46.3736 117.231 46.3736 117.025 46.5776C116.819 46.7851 116.819 47.1193 117.025 47.3233L118.085 48.3854C118.188 48.4874 118.323 48.5402 118.458 48.5402Z" fill="black"/>
<path d="M114.75 44.8291C114.885 44.8291 115.02 44.7798 115.123 44.6743C115.329 44.4703 115.329 44.1363 115.123 43.9287L114.063 42.8701C113.857 42.6626 113.523 42.6626 113.317 42.8701C113.111 43.0741 113.111 43.4082 113.317 43.6157L114.377 44.6743C114.48 44.7798 114.615 44.8291 114.75 44.8291Z" fill="black"/>
<path d="M128.463 234.217C128.598 234.217 128.733 234.165 128.836 234.062L130.303 232.595C130.51 232.389 130.51 232.055 130.303 231.849C130.098 231.643 129.764 231.643 129.557 231.849L128.09 233.316C127.884 233.522 127.884 233.856 128.09 234.062C128.193 234.165 128.328 234.217 128.463 234.217Z" fill="black"/>
<path d="M123.327 239.353C123.462 239.353 123.597 239.301 123.7 239.198L125.167 237.731C125.373 237.525 125.373 237.19 125.167 236.984C124.961 236.779 124.627 236.779 124.421 236.984L122.954 238.452C122.748 238.658 122.748 238.992 122.954 239.198C123.057 239.301 123.192 239.353 123.327 239.353Z" fill="black"/>
<path d="M129.931 239.353C130.066 239.353 130.201 239.301 130.304 239.198C130.51 238.992 130.51 238.658 130.304 238.452L128.836 236.984C128.63 236.779 128.296 236.779 128.09 236.984C127.884 237.19 127.884 237.525 128.09 237.731L129.558 239.198C129.661 239.301 129.796 239.353 129.931 239.353Z" fill="black"/>
<path d="M124.795 234.217C124.93 234.217 125.065 234.165 125.168 234.062C125.374 233.856 125.374 233.522 125.168 233.316L123.7 231.849C123.494 231.643 123.161 231.643 122.954 231.849C122.748 232.055 122.748 232.389 122.954 232.595L124.422 234.062C124.525 234.165 124.66 234.217 124.795 234.217Z" fill="black"/>
<path d="M187.981 111.723C188.178 111.723 188.368 111.611 188.458 111.421L194.187 99.3516C194.312 99.0885 194.2 98.7737 193.937 98.6489C193.674 98.524 193.359 98.6358 193.234 98.8992L187.505 110.968C187.38 111.232 187.492 111.547 187.755 111.672C187.828 111.706 187.905 111.723 187.981 111.723Z" fill="black"/>
<path d="M191.572 113.785C191.665 113.785 191.758 113.761 191.844 113.71L216.746 98.7376C216.996 98.587 217.077 98.2631 216.926 98.0134C216.777 97.7637 216.452 97.6832 216.203 97.833L191.3 112.805C191.05 112.955 190.969 113.28 191.119 113.529C191.219 113.694 191.393 113.785 191.572 113.785Z" fill="black"/>
<path d="M193.099 118.063C193.122 118.063 193.145 118.061 193.169 118.058L201.266 116.989C201.555 116.95 201.758 116.685 201.72 116.396C201.681 116.107 201.416 115.904 201.128 115.943L193.03 117.012C192.742 117.05 192.538 117.315 192.576 117.604C192.612 117.87 192.838 118.063 193.099 118.063Z" fill="black"/>
<path d="M217.842 38.7637L228.412 261.783L228.401 262.218C228.178 266.685 224.536 270.239 220.077 270.239H111.657C107.055 270.239 103.322 266.453 103.322 261.783V261.782L92.7529 38.7617C92.7535 34.0904 96.4842 30.3076 101.087 30.3076H209.507C214.11 30.3076 217.842 34.091 217.842 38.7627V38.7637Z" fill="black" stroke="black" stroke-width="0.0351708"/>
<path d="M116.126 269.726H224.546C229.159 269.726 232.898 265.948 232.898 261.29L222.328 39.2445C222.328 34.5844 218.589 30.807 213.976 30.807H105.555C100.943 30.807 97.2029 34.5844 97.2029 39.2445L107.774 261.29C107.774 265.948 111.513 269.726 116.126 269.726Z" fill="white"/>
<path d="M213.976 31.3342C218.29 31.3342 221.8 34.883 221.8 39.2441L232.371 261.314C232.371 265.652 228.861 269.198 224.546 269.198H116.125C111.811 269.198 108.301 265.652 108.301 261.289L97.7296 39.2195C97.7303 34.8829 101.24 31.3342 105.555 31.3342H213.976ZM116.125 270.253H224.546C229.442 270.253 233.426 266.233 233.426 261.289L222.855 39.2195C222.855 34.3026 218.872 30.2791 213.976 30.2791H105.555C100.659 30.2791 96.6752 34.3026 96.6752 39.2441L107.246 261.314C107.246 266.233 111.229 270.253 116.125 270.253Z" fill="#054FBE" stroke="black" stroke-width="1.35307"/>
<path d="M115.793 223.514H156.265C157.689 223.514 158.844 222.359 158.844 220.935C158.844 219.51 157.689 218.356 156.265 218.356H115.793C114.369 218.356 113.214 219.51 113.214 220.935C113.214 222.359 114.369 223.514 115.793 223.514Z" fill="#CADDFF" fill-opacity="0.6"/>
<path d="M112.224 155.103H126.862C128.287 155.103 129.441 153.949 129.441 152.525C129.441 151.1 128.287 149.947 126.862 149.947H112.224C110.8 149.947 109.645 151.1 109.645 152.525C109.645 153.949 110.8 155.103 112.224 155.103Z" fill="#CADDFF" fill-opacity="0.6"/>
<path d="M212.675 143.256C212.675 143.256 207.368 142.152 205.55 141.243C203.731 140.333 203.114 141.265 203.028 141.789C202.953 142.242 204.742 143.784 206.549 144.359C206.715 144.412 206.694 144.653 206.521 144.677C204.853 144.899 202.804 145.771 199.525 144.669C197.277 143.914 195.243 145.718 195.478 147.495C195.772 149.704 202.452 156.618 215.291 149.011L212.675 143.256Z" fill="white"/>
<path d="M197.443 141.296H77.25C73.9766 141.296 71.2829 138.715 71.1455 135.442L68.2002 65.9764V65.9755C68.0516 62.5011 70.8291 59.6045 74.3047 59.6044H194.499C197.774 59.6044 200.468 62.1858 200.606 65.4579L203.551 134.925C203.698 138.399 200.921 141.296 197.443 141.296Z" fill="#0066FF" stroke="black" stroke-width="1.35307"/>
<path opacity="0.6" d="M107.067 87.7638H166.771C168.255 87.7638 169.458 86.5607 169.458 85.0766V73.4901C169.458 72.0056 168.255 70.8025 166.771 70.8025H107.067C105.582 70.8025 104.379 72.0056 104.379 73.4901V85.0766C104.379 86.5607 105.582 87.7638 107.067 87.7638Z" fill="#CADDFF"/>
<path opacity="0.6" d="M124.53 97.7402H149.307C150.791 97.7402 151.994 96.5371 151.994 95.0531V94.6431C151.994 93.1586 150.791 91.9555 149.307 91.9555H124.53C123.045 91.9555 121.842 93.1586 121.842 94.6431V95.0531C121.842 96.5371 123.045 97.7402 124.53 97.7402Z" fill="#CADDFF"/>
<path d="M170.861 129.508H190.902C191.954 129.508 192.808 128.654 192.808 127.602V111.228C192.808 110.175 191.954 109.322 190.902 109.322H170.861C169.808 109.322 168.955 110.175 168.955 111.228V127.602C168.955 128.654 169.808 129.508 170.861 129.508Z" fill="white"/>
<path d="M110.269 129.508H130.31C131.363 129.508 132.216 128.654 132.216 127.602V111.228C132.216 110.175 131.363 109.322 130.31 109.322H110.269C109.217 109.322 108.363 110.175 108.363 111.228V127.602C108.363 128.654 109.217 129.508 110.269 129.508Z" fill="white"/>
<path d="M113.96 208.975H220.962C222.015 208.975 222.868 208.121 222.868 207.068L220.549 161.708C220.549 160.655 219.696 159.802 218.643 159.802H111.641C110.589 159.802 109.736 160.655 109.736 161.708L112.055 207.068C112.055 208.121 112.908 208.975 113.96 208.975Z" fill="#CADDFF" fill-opacity="0.6"/>
<path d="M117.439 248.977H222.702C223.754 248.977 224.607 248.123 224.607 247.07L224.028 230.696C224.028 229.644 223.175 228.791 222.122 228.791H116.859C115.807 228.791 114.953 229.644 114.953 230.696L115.533 247.07C115.533 248.123 116.387 248.977 117.439 248.977Z" fill="#CADDFF" fill-opacity="0.6"/>
<path d="M140.513 129.508H160.554C161.607 129.508 162.46 128.654 162.46 127.602V111.228C162.46 110.175 161.607 109.322 160.554 109.322H140.513C139.461 109.322 138.607 110.175 138.607 111.228V127.602C138.607 128.654 139.461 129.508 140.513 129.508Z" fill="white"/>
<path d="M79.9745 129.508H100.014C101.066 129.508 101.919 128.654 101.919 127.602V111.228C101.919 110.175 101.066 109.322 100.014 109.322H79.9745C78.9193 109.322 78.0675 110.175 78.0675 111.228V127.602C78.0675 128.654 78.9193 129.508 79.9745 129.508Z" fill="white"/>
<path d="M234.462 116.526C214.225 116.526 197.817 133.088 197.817 153.519C197.817 173.953 214.225 190.515 234.462 190.515C254.703 190.515 271.11 173.953 271.11 153.519C271.11 133.088 254.703 116.526 234.462 116.526Z" fill="white"/>
<path d="M234.462 185.64C216.89 185.64 202.646 171.259 202.646 153.519C202.646 135.782 216.89 121.401 234.462 121.401C252.037 121.401 266.281 135.782 266.281 153.519C266.281 171.259 252.037 185.64 234.462 185.64ZM234.462 116.526C214.225 116.526 197.817 133.088 197.817 153.519C197.817 173.953 214.225 190.515 234.462 190.515C254.703 190.515 271.11 173.953 271.11 153.519C271.11 133.088 254.703 116.526 234.462 116.526Z" fill="black"/>
<path d="M235.8 130.323C247.757 130.323 257.449 140.015 257.449 151.972" stroke="#CADDFF" stroke-width="2.70614" stroke-linecap="round"/>
<path d="M268.194 199.945C267.171 200.703 265.732 200.479 264.98 199.445L254.277 184.7L257.991 181.957L268.69 196.7C269.443 197.734 269.221 199.187 268.194 199.945Z" fill="black"/>
<path d="M77.0768 158.875C80.5433 150.606 89.9952 146.686 98.1863 150.12C106.377 153.554 110.209 163.041 106.743 171.311C103.276 179.58 93.8243 183.499 85.6332 180.066C77.442 176.632 73.6104 167.144 77.0768 158.875Z" fill="#16B364"/>
<path d="M94.4805 172.848C94.4099 172.818 94.3427 172.773 94.2844 172.714C92.0888 170.463 88.0902 168.572 88.0506 168.553C87.8449 168.456 87.7573 168.212 87.855 168.008C87.9501 167.802 88.1917 167.714 88.4005 167.811C88.5592 167.885 92.0772 169.55 94.4142 171.697C94.1622 169.283 93.8408 163.234 95.7022 155.863C95.7582 155.645 95.9809 155.51 96.2005 155.566C96.4212 155.62 96.5527 155.844 96.499 156.064C94.4809 164.057 95.0701 170.45 95.3012 172.221C95.3335 172.476 95.2003 172.723 94.9695 172.835C94.813 172.911 94.6344 172.912 94.4805 172.848Z" fill="white" stroke="white" stroke-width="0.451023"/>
<rect x="138.56" y="40.2019" width="42.3962" height="13.0797" rx="4.51023" fill="black"/>
<path d="M292.046 281.082C289.148 279.016 276.451 268.914 270.468 246.842C270.398 246.589 270.134 246.446 269.892 246.54C266.23 247.947 240.964 256.988 223.716 245.494C223.445 245.313 223.083 245.473 223.034 245.798C222.415 250.148 219.794 273.817 234.253 286.078C234.271 286.094 234.288 286.107 234.309 286.12C235.224 286.689 257.719 300.25 291.993 281.842C292.285 281.686 292.316 281.274 292.046 281.082Z" fill="white"/>
<path d="M274.239 281.193C274.098 281.193 273.961 281.138 273.855 281.03C273.764 280.934 264.693 271.294 261.633 256.459C261.574 256.173 261.757 255.895 262.041 255.836C262.326 255.777 262.608 255.961 262.664 256.246C265.664 270.772 274.531 280.208 274.618 280.302C274.819 280.513 274.812 280.846 274.601 281.047C274.499 281.145 274.369 281.193 274.239 281.193Z" fill="#CADDFF"/>
<path d="M262.154 284.219C261.989 284.219 261.824 284.141 261.722 283.994C261.644 283.884 253.966 272.801 251.483 258.913C251.431 258.626 251.621 258.352 251.909 258.3C252.194 258.25 252.468 258.44 252.521 258.727C254.965 272.379 262.509 283.281 262.587 283.389C262.752 283.628 262.696 283.957 262.457 284.124C262.365 284.188 262.26 284.219 262.154 284.219Z" fill="#CADDFF"/>
<path d="M249.696 284.024C249.513 284.024 249.334 283.928 249.239 283.757C248.884 283.136 240.562 268.417 241.385 258.151C241.41 257.86 241.663 257.642 241.952 257.667C242.243 257.69 242.462 257.944 242.437 258.235C241.642 268.179 250.069 283.085 250.153 283.235C250.298 283.488 250.21 283.81 249.956 283.954C249.876 284.001 249.784 284.024 249.696 284.024Z" fill="#CADDFF"/>
<path d="M234.425 272.521C234.193 272.521 233.982 272.369 233.915 272.137C232.54 267.257 231.935 262.367 232.118 257.601C232.128 257.31 232.368 257.084 232.666 257.094C232.955 257.105 233.183 257.35 233.173 257.641C232.994 262.297 233.588 267.077 234.931 271.851C235.012 272.131 234.847 272.423 234.566 272.501C234.52 272.515 234.471 272.521 234.425 272.521Z" fill="#CADDFF"/>
<path d="M121.152 286.743L132.973 285.325L121.318 276.39C121.11 276.145 120.857 275.951 120.56 275.808L120.542 275.793L120.539 275.796C120.355 275.709 120.155 275.642 119.942 275.594L119.944 275.589L119.758 275.558C119.681 275.546 119.605 275.53 119.523 275.523L24.8729 260.539L18.6743 259.526C18.4296 259.434 18.1612 259.36 17.8482 259.322L-1.66338 256.355C-1.93437 256.281 -2.22905 256.235 -2.54477 256.222H-2.55004C-3.92079 256.171 -5.69408 256.712 -7.56472 257.868C-11.3981 260.231 -14.1843 264.254 -13.7923 266.853C-13.6082 268.106 -12.711 268.795 -11.4139 268.915L9.18952 271.793C9.40526 271.818 9.62364 271.831 9.84727 271.828L12.9413 272.242L110.612 287.723C110.933 287.827 111.291 287.886 111.68 287.894L111.699 287.896V287.894C112.159 287.899 112.664 287.832 113.196 287.7L121.152 286.743Z" fill="#D3E1F7"/>
<path d="M13.303 252.404L-5.85696 249.264C-6.1427 249.179 -6.4361 249.131 -6.73715 249.126H-6.74225C-8.0485 249.1 -9.47211 249.797 -10.7197 251.238C-13.2684 254.19 -14.1128 259.117 -12.6025 262.247C-11.8779 263.755 -10.7375 264.564 -9.46699 264.676L11.0884 267.625C17.5661 268.447 19.7831 253.226 13.303 252.404Z" fill="white"/>
<path d="M12.2292 267.599L9.37176 260.423L-13.1328 256.432C-13.5308 258.504 -13.388 260.619 -12.6022 262.247C-11.8776 263.755 -10.7372 264.563 -9.46668 264.676L11.0888 267.625C11.4842 267.673 11.8643 267.663 12.2292 267.599Z" fill="#CBD1F2"/>
<path d="M2.4015 266.377C2.4015 266.377 0.812091 262.943 1.61829 259.047C2.16426 256.409 4.67214 252.149 7.79232 251.414L20.8343 253.639L14.7981 268.071L2.4015 266.377Z" fill="#F9A56E"/>
<path d="M15.2448 252.717L116.473 269.385L114.157 284.455L13.5967 267.874L15.2448 252.717Z" fill="#F9A56E"/>
<path d="M132.948 280.807L118.113 270.319C117.81 270.028 117.484 269.801 117.142 269.635L117.121 269.617V269.622C115.456 268.831 113.417 269.497 111.841 271.604C109.592 274.615 109.142 279.414 110.836 282.322C111.962 284.254 113.743 284.861 115.472 284.18L132.948 280.807Z" fill="white"/>
<path d="M109.821 277.654C109.757 279.368 110.086 281.031 110.836 282.322C111.962 284.254 113.743 284.861 115.472 284.18L132.948 280.807L109.821 277.654Z" fill="#CBD1F2"/>
<path d="M132.948 280.807L125.569 275.592C125.569 275.592 120.599 276.061 122.504 282.822L132.948 280.807Z" fill="#85A0CD"/>
<path d="M294.677 51.6366C296.476 54.4268 303.998 67.545 301.622 88.7082C301.596 88.9537 301.775 89.1665 302.019 89.1717C305.665 89.2159 330.6 90.1145 341.583 106.015C341.759 106.262 342.124 106.252 342.277 105.983C344.301 102.433 354.663 82.8592 346.355 67.2588C346.331 67.2228 346.319 67.1985 346.293 67.164C345.351 65.9107 330.466 46.9472 294.983 50.996C294.676 51.0322 294.508 51.3765 294.677 51.6366Z" fill="white"/>
<path d="M311.924 84.0599C311.542 83.9827 311.287 83.612 311.355 83.2278C313.722 69.6962 309.309 58.523 309.262 58.4153C309.112 58.041 309.29 57.6202 309.663 57.4746C310.033 57.3233 310.454 57.5017 310.6 57.8703C310.79 58.3409 315.217 69.517 312.779 83.4762C312.709 83.8698 312.336 84.1335 311.943 84.0637C311.938 84.0628 311.929 84.0609 311.924 84.0599Z" fill="#CADDFF"/>
<path d="M321.541 85.429C321.149 85.3498 320.897 84.9697 320.976 84.578C323.525 71.9628 320.74 59.9836 320.715 59.8608C320.622 59.4734 320.862 59.0848 321.249 58.9912C321.636 58.9023 322.025 59.1382 322.118 59.5303C322.148 59.6493 325.004 71.9374 322.392 84.8642C322.312 85.2559 321.932 85.5082 321.541 85.429Z" fill="#CADDFF"/>
<path d="M330.051 89.453C329.994 89.4416 329.935 89.4198 329.877 89.3932C329.519 89.2178 329.371 88.785 329.546 88.4275C333.604 80.16 331.426 64.4228 331.403 64.266C331.346 63.8711 331.621 63.5044 332.016 63.4466C332.41 63.3936 332.777 63.6691 332.834 64.064C332.927 64.7261 335.098 80.4028 330.842 89.0627C330.698 89.3627 330.367 89.5169 330.051 89.453Z" fill="#CADDFF"/>
<path d="M337.866 93.1456C337.819 93.1361 337.768 93.1209 337.718 93.101C337.353 92.9388 337.189 92.5125 337.351 92.1474C339.086 88.2048 340.204 83.8869 340.671 79.3146C340.712 78.92 341.066 78.628 341.46 78.6685C341.86 78.7099 342.147 79.0627 342.105 79.4621C341.623 84.1835 340.47 88.6467 338.673 92.729C338.535 93.045 338.192 93.2115 337.866 93.1456Z" fill="#CADDFF"/>
</g>
<rect x="1" y="1.5" width="510" height="313" rx="15" stroke="#D3E1F7" stroke-width="2"/>
<defs>
<linearGradient id="paint0_linear_16745_4832" x1="256" y1="7.17373" x2="256" y2="315.5" gradientUnits="userSpaceOnUse">
<stop stop-color="#C9DBF9"/>
<stop offset="0.774342" stop-color="white"/>
<stop offset="1" stop-color="#C9DBF9"/>
</linearGradient>
<linearGradient id="paint1_linear_16745_4832" x1="509.726" y1="109.071" x2="408.348" y2="118.412" gradientUnits="userSpaceOnUse">
<stop stop-color="white"/>
<stop offset="1" stop-color="#C9DAF5"/>
</linearGradient>
<clipPath id="clip0_16745_4832">
<rect y="0.5" width="512" height="315" rx="16" fill="white"/>
</clipPath>
</defs>
</svg>
