<svg width="332" height="114" viewBox="0 0 332 114" fill="none" xmlns="http://www.w3.org/2000/svg">
    <g clip-path="url(#clip0_424_27400)">
        <rect width="332" height="114" rx="8" fill="#EDE7FB"/>
        <path d="M192.326 72.4937L205.829 82.4737L223.69 80.8976L197.364 179.146L166 170.743L192.326 72.4937Z" fill="url(#paint0_linear_424_27400)"/>
        <g clip-path="url(#clip1_424_27400)">
            <path d="M223.61 73.2455C226.073 81.6289 220.294 90.1463 211.911 92.6058C203.527 95.0691 194.735 90.2653 192.275 81.8819C189.812 73.5022 194.467 63.6155 202.85 61.1522C211.234 58.6889 221.146 64.8621 223.61 73.2455Z" fill="url(#paint1_linear_424_27400)"/>
            <path d="M223.056 81.4906C225.893 73.1978 221.471 64.1749 213.178 61.3373C204.886 58.4997 195.863 62.9219 193.025 71.2146C190.187 79.5074 194.61 88.5303 202.902 91.368C211.195 94.2056 220.218 89.7833 223.056 81.4906Z" fill="url(#paint2_linear_424_27400)"/>
            <path style="mix-blend-mode:screen" d="M203.568 61.1264C199.278 62.3878 195.925 65.3013 193.998 68.9665C195.959 65.5023 199.215 62.7636 203.338 61.5543C211.747 59.0835 220.566 63.9022 223.037 72.3117C224.246 76.4308 223.703 80.6467 221.85 84.1705C223.889 80.5649 224.529 76.1741 223.267 71.8838C220.797 63.4743 211.978 58.6556 203.568 61.1264Z" fill="url(#paint3_linear_424_27400)"/>
            <path style="mix-blend-mode:screen" d="M220.153 73.2197C222.162 80.0626 218.244 87.2367 211.401 89.246C204.558 91.2554 197.384 87.3372 195.378 80.4943C193.369 73.6513 197.287 66.4772 204.13 64.4679C210.973 62.4586 218.147 66.3768 220.157 73.2197H220.153Z" fill="url(#paint4_linear_424_27400)"/>
            <path d="M220.663 79.0933C222.175 72.1243 217.751 65.2493 210.782 63.7375C203.813 62.2257 196.938 66.6495 195.426 73.6185C193.914 80.5874 198.338 87.4624 205.307 88.9742C212.276 90.4861 219.151 86.0622 220.663 79.0933Z" fill="url(#paint5_linear_424_27400)"/>
            <path style="mix-blend-mode:multiply" opacity="0.3" d="M204.402 63.9692C200.826 65.0185 198.054 67.4781 196.502 70.5665C198.11 67.8502 200.707 65.7106 203.974 64.7543C210.817 62.745 217.991 66.6632 220 73.5061C220.96 76.7732 220.566 80.1146 219.148 82.9351C220.905 79.9621 221.478 76.3006 220.428 72.7247C218.419 65.8818 211.245 61.9673 204.406 63.9729L204.402 63.9692Z" fill="url(#paint6_linear_424_27400)"/>
            <path style="mix-blend-mode:screen" opacity="0.4" d="M224.491 69.104C223.115 71.6268 218.002 71.4892 213.072 68.7989C208.141 66.1086 205.261 61.8815 206.638 59.3587C208.015 56.8359 213.128 56.9735 218.058 59.6675C222.988 62.3578 225.868 66.5849 224.491 69.1077V69.104Z" fill="url(#paint7_radial_424_27400)"/>
            <path style="mix-blend-mode:color-dodge" opacity="0.4" d="M221.21 67.3104C220.339 68.9029 217.109 68.8174 213.991 67.1169C210.876 65.4164 209.057 62.7447 209.928 61.1521C210.798 59.5595 214.028 59.6451 217.146 61.3456C220.261 63.0461 222.08 65.7178 221.21 67.3104Z" fill="url(#paint8_radial_424_27400)"/>
            <path d="M208.687 77.7717L213.327 79.0131C213.426 79.0395 213.473 79.052 213.515 78.9242C213.679 78.4624 213.806 77.9876 213.894 77.5049C213.919 77.4131 213.883 77.363 213.784 77.3364L204.549 74.8659C204.435 74.8354 204.394 74.865 204.366 74.9722L204.002 76.3306C203.955 76.5059 203.955 76.5059 204.138 76.5548L208.687 77.7717ZM213.877 75.6007C213.868 75.5632 213.868 75.58 213.864 75.5424C213.832 75.353 213.783 75.1674 213.717 74.9878C213.625 74.6866 213.5 74.3981 213.342 74.1267C213.275 73.9704 213.188 73.823 213.083 73.6893C212.572 72.9505 211.894 72.3426 211.103 71.9168C210.703 71.7072 210.28 71.5452 209.842 71.4323L205.744 70.3359C205.63 70.3054 205.602 70.3469 205.576 70.4463L204.851 73.1554C204.82 73.2697 204.812 73.3004 204.957 73.3393L213.764 75.6953C213.764 75.6953 213.845 75.7004 213.872 75.6589L213.876 75.6258L213.877 75.6007ZM212.537 80.5028C212.411 80.4538 212.28 80.4189 212.147 80.3984L203.683 78.1343C203.569 78.1037 203.531 78.0934 203.49 78.2462L202.781 80.8948C202.748 81.0168 202.74 81.0475 202.893 81.0884L206.801 82.1338C206.984 82.198 207.174 82.2348 207.367 82.2448C207.945 82.3558 208.536 82.3819 209.122 82.3215C209.333 82.3062 209.544 82.2688 209.748 82.211L209.801 82.2253C210.845 81.9939 211.789 81.4445 212.504 80.6513C212.504 80.6513 212.588 80.5502 212.537 80.5039L212.537 80.5028ZM200.839 82.0105L200.851 81.9648L201.327 80.1866L201.488 79.5838L201.968 77.7902C201.995 77.6908 201.999 77.676 201.877 77.6433L200.221 77.2002C200.129 77.1757 200.091 77.1655 200.124 77.0436L200.511 75.5934L202.282 76.0671C202.381 76.0935 202.419 76.1038 202.454 75.9741L202.838 74.5394C202.862 74.4476 202.868 74.4251 202.746 74.3924L201.09 73.9494C200.998 73.9248 200.961 73.9147 200.993 73.7927L201.352 72.4497C201.375 72.3656 201.381 72.3431 201.503 72.3757L203.144 72.8147C203.258 72.8453 203.289 72.8535 203.328 72.7084L204.428 68.5948C204.461 68.4728 204.469 68.442 204.622 68.4829L210.345 70.0141C210.756 70.1418 211.157 70.2978 211.545 70.4823C212.345 70.8628 213.073 71.3797 213.697 72.0066C214.11 72.4262 214.468 72.8953 214.762 73.4039C214.981 73.7985 215.162 74.211 215.307 74.6373C215.449 75.068 215.544 75.5132 215.591 75.9645C215.582 76.0762 215.665 76.1755 215.776 76.1859L217.142 76.5514C217.318 76.5983 217.318 76.5983 217.28 76.7685L216.945 78.0203C216.913 78.1422 216.859 78.1608 216.736 78.128L215.683 77.8462C215.576 77.8177 215.546 77.8095 215.517 77.9489C215.434 78.425 215.309 78.8915 215.143 79.3452C215.108 79.4749 215.104 79.4903 215.25 79.5292L216.455 79.8516C216.49 79.9346 216.418 79.989 216.4 80.0582C216.384 80.1488 216.36 80.2383 216.328 80.3247L216.081 81.2485C216.047 81.3781 215.998 81.4065 215.884 81.3757L214.441 80.9898C214.346 80.9437 214.231 80.9818 214.181 81.0757C213.598 81.8767 212.835 82.5304 211.953 82.9823C211.631 83.1464 211.3 83.2933 210.961 83.4199C210.608 83.514 210.262 83.6175 209.91 83.6788C209.264 83.7839 208.609 83.8134 207.956 83.7689C207.339 83.7168 206.728 83.6048 206.131 83.4362L200.834 82.0192L200.837 82.0115L200.839 82.0105Z" fill="#FEFEFD"/>
        </g>
        <path d="M293.81 72.4937L307.313 82.4737L325.174 80.8976L298.848 179.146L267.484 170.743L293.81 72.4937Z" fill="url(#paint9_linear_424_27400)"/>
        <g clip-path="url(#clip2_424_27400)">
            <path d="M325.094 73.2455C327.557 81.6289 321.778 90.1463 313.395 92.6058C305.011 95.0691 296.219 90.2653 293.759 81.8819C291.296 73.5022 295.951 63.6155 304.334 61.1522C312.718 58.6889 322.63 64.8621 325.094 73.2455Z" fill="url(#paint10_linear_424_27400)"/>
            <path d="M324.54 81.4906C327.377 73.1978 322.955 64.1749 314.662 61.3373C306.37 58.4997 297.347 62.9219 294.509 71.2146C291.671 79.5074 296.094 88.5303 304.386 91.368C312.679 94.2056 321.702 89.7833 324.54 81.4906Z" fill="url(#paint11_linear_424_27400)"/>
            <path style="mix-blend-mode:screen" d="M305.052 61.1264C300.762 62.3878 297.409 65.3013 295.482 68.9665C297.443 65.5023 300.699 62.7636 304.822 61.5543C313.231 59.0835 322.05 63.9022 324.521 72.3117C325.73 76.4308 325.187 80.6467 323.334 84.1705C325.373 80.5649 326.013 76.1741 324.751 71.8838C322.281 63.4743 313.462 58.6556 305.052 61.1264Z" fill="url(#paint12_linear_424_27400)"/>
            <path style="mix-blend-mode:screen" d="M321.637 73.2197C323.646 80.0626 319.728 87.2367 312.885 89.246C306.042 91.2554 298.868 87.3372 296.862 80.4943C294.853 73.6513 298.771 66.4772 305.614 64.4679C312.457 62.4586 319.631 66.3768 321.641 73.2197H321.637Z" fill="url(#paint13_linear_424_27400)"/>
            <path d="M322.147 79.0933C323.659 72.1243 319.235 65.2493 312.266 63.7375C305.297 62.2257 298.422 66.6495 296.91 73.6185C295.398 80.5874 299.822 87.4624 306.791 88.9742C313.76 90.4861 320.635 86.0622 322.147 79.0933Z" fill="url(#paint14_linear_424_27400)"/>
            <path style="mix-blend-mode:multiply" opacity="0.3" d="M305.886 63.9692C302.31 65.0185 299.538 67.4781 297.986 70.5665C299.594 67.8502 302.191 65.7106 305.458 64.7543C312.301 62.745 319.475 66.6632 321.484 73.5061C322.444 76.7732 322.05 80.1146 320.632 82.9351C322.388 79.9621 322.961 76.3006 321.912 72.7247C319.903 65.8818 312.729 61.9673 305.889 63.9729L305.886 63.9692Z" fill="url(#paint15_linear_424_27400)"/>
            <path style="mix-blend-mode:screen" opacity="0.4" d="M325.975 69.104C324.599 71.6268 319.486 71.4892 314.556 68.7989C309.625 66.1086 306.745 61.8815 308.122 59.3587C309.499 56.8359 314.611 56.9735 319.542 59.6675C324.472 62.3578 327.352 66.5849 325.975 69.1077V69.104Z" fill="url(#paint16_radial_424_27400)"/>
            <path style="mix-blend-mode:color-dodge" opacity="0.4" d="M322.694 67.3104C321.823 68.9029 318.593 68.8174 315.475 67.1169C312.36 65.4164 310.541 62.7447 311.411 61.1521C312.282 59.5595 315.512 59.6451 318.63 61.3456C321.745 63.0461 323.564 65.7178 322.694 67.3104Z" fill="url(#paint17_radial_424_27400)"/>
            <g clip-path="url(#clip3_424_27400)">
                <path d="M309.067 69.7142C308.873 69.6295 308.866 69.624 308.965 69.6353C309.155 69.6557 309.576 69.8072 309.855 69.9557C310.505 70.3025 311.024 70.8891 311.501 71.8131L311.627 72.0584L311.894 72.0853C313.018 72.1982 314.078 72.6245 314.885 73.2881C315.107 73.4712 315.445 73.8069 315.477 73.8789C315.489 73.9028 315.487 74.031 315.47 74.1661C315.42 74.6343 315.296 74.9688 315.089 75.1894C314.977 75.3094 314.961 75.3524 314.98 75.4863C314.991 75.5423 315.017 75.5942 315.057 75.6358C315.096 75.6775 315.146 75.7074 315.201 75.7221C315.429 75.7824 315.771 75.4813 316.019 75.001L316.118 74.8095L316.181 74.9343C316.526 75.6176 316.712 76.4729 316.636 77.0263L316.617 77.1708L316.568 77.0222C316.501 76.7962 316.385 76.5876 316.229 76.4108C315.957 76.1074 315.628 75.9409 314.719 75.6489C313.897 75.3856 313.445 75.1899 313.018 74.9146C312.291 74.446 311.981 73.9979 311.361 72.5166C311.086 71.8578 310.908 71.487 310.714 71.1755C310.274 70.466 309.775 70.0232 309.067 69.7152L309.067 69.7142Z" fill="white"/>
                <path d="M315.954 72.8419C316.071 72.4814 316.185 72.2523 316.344 72.0584C316.381 72.0085 316.423 71.9624 316.469 71.921C316.475 71.9224 316.44 71.9824 316.393 72.0539C316.263 72.2498 316.172 72.5392 316.134 72.8941C316.084 73.3438 316.103 73.4157 316.439 74.0043C316.597 74.2811 316.775 74.623 316.835 74.7666L316.944 75.0257L316.819 74.828C316.667 74.5861 316.299 74.0951 316.209 74.015C316.15 73.9623 316.139 73.9595 316.086 73.9904C316.036 74.0186 316.013 74.0747 315.934 74.3486C315.813 74.7761 315.68 75.036 315.466 75.2729C315.35 75.4034 315.346 75.368 315.46 75.2172C315.544 75.106 315.565 75.0514 315.675 74.6359C315.895 73.8017 315.847 73.5737 315.353 73.0769C315.204 72.9285 315.047 72.7872 314.885 72.6536C314.803 72.5928 314.726 72.5263 314.654 72.4545C314.674 72.4426 315.201 72.7592 315.407 72.907C315.715 73.1288 315.766 73.1597 315.812 73.1557C315.842 73.1521 315.878 73.0751 315.953 72.8417L315.954 72.8419ZM308.76 72.4683C308.498 71.798 308.471 70.8683 308.697 70.2384L308.766 70.0435L308.856 70.0844C309.024 70.1634 309.296 70.3553 309.416 70.4789C309.742 70.8163 309.83 71.1699 309.791 72.0095C309.78 72.2554 309.776 72.5354 309.782 72.6338C309.793 72.7898 309.89 73.1735 309.982 73.4304C310.048 73.6161 309.957 73.6715 309.724 73.5868C309.368 73.4581 308.963 72.9884 308.76 72.4683ZM313.971 78.3222C312.254 77.0471 311.754 76.201 312.051 75.0762C312.095 74.9105 312.137 74.7763 312.144 74.7782C312.151 74.78 312.211 74.8534 312.277 74.9434C312.584 75.3564 312.985 75.6041 314.147 76.0988C314.83 76.3899 315.206 76.5781 315.543 76.7973C316.614 77.4939 317.131 78.469 317.022 79.5837C316.99 79.9068 316.808 80.4806 316.644 80.7655C316.515 80.9906 316.204 81.3748 316.148 81.3783C316.132 81.3797 316.132 81.3211 316.149 81.2449C316.235 80.8394 316.134 80.3946 315.869 80.0113C315.567 79.5757 315.115 79.1715 313.971 78.3222ZM312.539 78.2856C312.552 78.1434 312.557 78.0004 312.553 77.8575L312.542 77.6991L312.606 77.8256C312.695 77.9988 312.748 78.205 312.768 78.4672C312.785 78.6673 312.777 78.7228 312.698 79.0199C312.621 79.3116 312.596 79.3707 312.493 79.5184C312.346 79.7391 312.149 79.9222 311.919 80.0529C311.474 80.3154 310.971 80.392 310.298 80.3017C310.181 80.2858 309.846 80.2224 309.552 80.1609C308.811 80.0054 308.309 79.9568 307.838 79.9934C307.794 80.0002 307.75 79.999 307.707 79.9897C307.694 79.9679 308.035 79.8715 308.308 79.8193C308.694 79.7451 309.058 79.746 309.856 79.822C310.249 79.8592 310.66 79.8861 310.767 79.8821C311.777 79.8449 312.452 79.237 312.539 78.2856Z" fill="white"/>
                <path d="M313.008 80.0724C312.897 79.4603 312.977 78.9183 313.247 78.4645C313.276 78.4146 313.311 78.3789 313.326 78.3829C313.34 78.3866 313.393 78.4351 313.441 78.4903C313.538 78.6002 313.738 78.7946 314.277 79.3009C314.948 79.9333 315.309 80.3799 315.513 80.8369C315.692 81.2355 315.757 81.6547 315.716 82.1321C315.693 82.4024 315.501 83.0196 315.366 83.2625C314.937 84.0291 314.278 84.5457 313.478 84.7375C313.362 84.7653 313.258 84.7864 313.248 84.7835C313.238 84.781 313.3 84.6973 313.386 84.5966C313.751 84.1702 313.903 83.7027 313.865 83.1272C313.841 82.7742 313.724 82.3205 313.453 81.5337C313.136 80.621 313.064 80.3797 313.008 80.0724ZM305.017 81.1071C305.889 80.6973 306.887 80.5074 307.73 80.5898C308.16 80.6465 308.578 80.7745 308.967 80.9686C309.449 81.2365 309.833 81.6538 309.981 82.0671C310.125 82.4725 310.147 82.7974 310.077 83.4905C310.049 83.7628 310.024 84.0385 310.021 84.1011C310.009 84.4663 310.09 84.7826 310.243 84.9704C310.486 85.2697 311.004 85.4214 311.567 85.3585C311.627 85.3481 311.688 85.3455 311.748 85.351C311.761 85.3741 311.459 85.4772 311.254 85.5199C311.009 85.5772 310.754 85.5716 310.512 85.5034C310.044 85.3796 309.718 85.0401 309.52 84.4719C309.455 84.2362 309.405 83.9967 309.369 83.7548C309.232 82.8882 309.125 82.6078 308.797 82.2434C308.51 81.9257 308.074 81.7678 307.695 81.8426C307.196 81.9413 306.926 82.4685 307.148 82.9074C307.256 83.0991 307.423 83.2507 307.624 83.3394C307.704 83.3729 307.791 83.3887 307.878 83.3857C307.964 83.3828 308.05 83.3611 308.128 83.3223C308.206 83.2835 308.274 83.2283 308.329 83.1606C308.384 83.093 308.423 83.0143 308.445 82.93C308.506 82.6964 308.451 82.5401 308.251 82.3767C307.977 82.1557 307.601 82.2303 307.526 82.5201C307.493 82.6439 307.527 82.7359 307.637 82.826C307.708 82.8825 307.709 82.8852 307.647 82.855C307.378 82.7207 307.402 82.3618 307.69 82.1961C308.037 81.9977 308.574 82.2674 308.67 82.6903C308.711 82.868 308.639 83.1805 308.518 83.349C308.246 83.7261 307.722 83.8239 307.281 83.5781C306.979 83.4109 306.872 83.2882 306.589 82.7883C306.097 81.9189 305.871 81.7152 304.937 81.3073L304.758 81.2287L305.017 81.1071Z" fill="white"/>
                <path fill-rule="evenodd" clip-rule="evenodd" d="M305.12 67.9024C306.655 71.2172 307.912 72.7494 308.021 73.0317C308.111 73.2652 308.011 73.4275 307.731 73.501C307.535 73.5422 307.333 73.5447 307.136 73.5083C306.978 73.4665 306.939 73.3917 306.939 73.3917C306.87 73.2814 306.815 73.2828 306.564 72.3286C306.328 71.6005 306.087 70.8742 305.841 70.1498C305.815 70.1084 305.816 70.1087 306.442 72.5233C306.517 73.0117 306.321 73.1317 306.305 73.1942C306.271 73.3212 306.218 73.3785 306.015 73.5124C305.675 73.7336 305.471 74.0298 305.207 74.6844C304.912 75.4182 304.503 75.8837 303.52 76.6061C302.945 77.0288 302.848 77.108 302.681 77.2964C302.471 77.5323 302.393 77.6752 302.287 78.0145C302.175 78.3752 302.144 78.6181 302.164 78.9953C302.18 79.3267 302.231 79.5542 302.386 80.0259C302.52 80.4333 302.581 80.7258 302.554 80.827C302.533 80.9066 302.548 80.9106 302.92 80.9248C303.804 80.9583 304.571 80.8085 305.06 80.5037C305.363 80.3155 305.455 80.1923 305.547 79.8495C305.608 79.6259 305.613 79.5765 305.585 79.4311C305.542 79.195 305.407 78.9718 305.081 78.5953C304.652 78.1018 304.503 77.7573 304.547 77.3485C304.581 77.0119 304.7 76.8005 305.147 76.275C305.612 75.7298 305.756 75.4836 305.973 74.8694C306.112 74.4722 306.199 74.3234 306.35 74.2253C306.508 74.1243 306.63 74.1081 306.944 74.1474C307.456 74.2102 307.803 74.1671 308.124 73.9986C308.25 73.9405 308.362 73.8554 308.451 73.7494C308.541 73.6434 308.607 73.519 308.643 73.385L308.713 73.1618L308.626 72.9842C308.311 72.3392 304.925 67.4088 304.897 67.4014C304.892 67.4 304.991 67.6255 305.12 67.9024ZM303.377 78.7449C303.45 78.6707 303.492 78.572 303.494 78.4683C303.497 78.3647 303.461 78.2638 303.393 78.1858C303.26 78.0355 302.993 78.0203 302.956 78.1591C302.945 78.2022 302.96 78.2397 303.007 78.2808C303.085 78.351 303.078 78.4044 302.979 78.4921C302.879 78.5796 302.86 78.675 302.925 78.7612C303.03 78.8985 303.232 78.892 303.377 78.7449ZM308.634 74.7219C308.384 74.7307 308.094 74.9155 307.956 75.1529C307.872 75.2979 307.825 75.579 307.866 75.6797C307.933 75.8437 308.023 75.9054 308.293 75.9758C308.821 76.112 309.339 76.0082 309.468 75.7404C309.572 75.5215 309.455 75.1496 309.214 74.9352C309.046 74.8088 308.844 74.7346 308.634 74.7219ZM309.125 75.3642C309.236 75.2704 309.233 75.1372 309.117 75.0165C308.897 74.7867 308.462 74.8136 308.397 75.0611C308.364 75.1849 308.536 75.3744 308.727 75.4247C308.854 75.4583 309.048 75.4291 309.125 75.3642Z" fill="white"/>
            </g>
        </g>
        <path d="M31.1566 63.8022L53.2926 80.1629L82.573 77.5792L39.4161 238.643L-12.0003 224.866L31.1566 63.8022Z" fill="url(#paint18_linear_424_27400)"/>
        <g clip-path="url(#clip4_424_27400)">
            <path d="M82.4417 65.0351C86.4799 78.7784 77.0066 92.7413 63.2633 96.7734C49.52 100.812 35.1057 92.9365 31.0736 79.1932C27.0354 65.456 34.6665 49.2483 48.4098 45.2101C62.1531 41.1719 78.4035 51.2918 82.4417 65.0351Z" fill="url(#paint19_linear_424_27400)"/>
            <path d="M81.5336 78.5513C86.1855 64.9566 78.9359 50.1649 65.3412 45.5131C51.7466 40.8613 36.9549 48.1108 32.303 61.7055C27.6512 75.3002 34.9008 90.0919 48.4954 94.7437C62.0901 99.3955 76.8818 92.146 81.5336 78.5513Z" fill="url(#paint20_linear_424_27400)"/>
            <path style="mix-blend-mode:screen" d="M49.587 45.1677C42.5537 47.2356 37.0576 52.0119 33.8978 58.0204C37.1125 52.3413 42.45 47.8517 49.2088 45.8692C62.9948 41.8188 77.4518 49.7183 81.5022 63.5043C83.4847 70.257 82.5941 77.1683 79.5563 82.945C82.8991 77.0341 83.9483 69.8361 81.8804 62.8028C77.83 49.0168 63.373 41.1173 49.587 45.1677Z" fill="url(#paint21_linear_424_27400)"/>
            <path style="mix-blend-mode:screen" d="M76.7748 64.9925C80.0688 76.2104 73.6455 87.9712 62.4276 91.2652C51.2097 94.5592 39.4489 88.1359 36.161 76.918C32.867 65.7001 39.2903 53.9393 50.5082 50.6453C61.7261 47.3513 73.4869 53.7746 76.7809 64.9925H76.7748Z" fill="url(#paint22_linear_424_27400)"/>
            <path d="M77.6107 74.6213C80.0891 63.1968 72.8369 51.9263 61.4124 49.4479C49.9879 46.9695 38.7174 54.2217 36.239 65.6462C33.7606 77.0707 41.0128 88.3412 52.4373 90.8196C63.8618 93.298 75.1323 86.0458 77.6107 74.6213Z" fill="url(#paint23_linear_424_27400)"/>
            <path style="mix-blend-mode:multiply" opacity="0.3" d="M50.9535 49.828C45.0914 51.5482 40.5469 55.5803 38.0032 60.6433C40.6384 56.1903 44.8962 52.6828 50.252 51.1151C61.4699 47.8211 73.2307 54.2444 76.5247 65.4623C78.0985 70.8181 77.4519 76.2959 75.1278 80.9197C78.007 76.0458 78.9464 70.0434 77.2262 64.1813C73.9322 52.9634 62.1714 46.5462 50.9596 49.8341L50.9535 49.828Z" fill="url(#paint24_linear_424_27400)"/>
            <path style="mix-blend-mode:screen" opacity="0.4" d="M83.8874 58.2458C81.6304 62.3816 73.249 62.1559 65.1665 57.7456C57.084 53.3353 52.3626 46.4057 54.6196 42.2699C56.8766 38.1341 65.258 38.3598 73.3405 42.7762C81.423 47.1865 86.1444 54.1161 83.8874 58.2519V58.2458Z" fill="url(#paint25_radial_424_27400)"/>
            <path style="mix-blend-mode:color-dodge" opacity="0.4" d="M78.5072 55.3058C77.0798 57.9166 71.785 57.7763 66.6732 54.9886C61.5675 52.2009 58.5846 47.8211 60.012 45.2103C61.4394 42.5995 66.7342 42.7398 71.846 45.5275C76.9517 48.3152 79.9346 52.695 78.5072 55.3058Z" fill="url(#paint26_radial_424_27400)"/>
            <path fill-rule="evenodd" clip-rule="evenodd" d="M59.0781 75.2356C58.9445 75.2132 58.2566 75.0872 56.7443 74.7158C55.5415 74.4205 54.6963 74.1747 54.4002 74.0869C49.802 72.741 46.531 71.0798 46.7689 70.1109C47.0068 69.1421 50.6749 69.186 55.3743 70.1197L54.5981 73.281C54.8967 73.3775 55.7545 73.6426 56.9573 73.938C58.4007 74.2924 59.1383 74.4098 59.2714 74.4297L60.0474 71.2695C64.6352 72.6152 67.8985 74.2745 67.6612 75.2411C67.4238 76.2078 63.7642 76.1671 59.074 75.2334L59.0781 75.2356ZM60.1321 70.9436L60.8267 68.1147L67.3002 69.7043L68.3594 65.3905L50.7345 61.0626L49.6753 65.3765L56.1476 66.9658L55.4533 69.7936C50.1331 68.7434 45.921 68.814 45.6143 70.0628C45.3077 71.3116 49.0083 73.324 54.2095 74.8586L51.9836 83.9237L56.6615 85.0724L58.8883 76.004C64.1964 77.0512 68.4017 76.9801 68.7081 75.7324C69.0145 74.4847 65.3237 72.4747 60.1312 70.9423L60.1321 70.9436Z" fill="white"/>
        </g>
        <path d="M87.5941 36.1587L123.883 62.9794L171.883 58.7439L101.134 322.783L16.8451 300.198L87.5941 36.1587Z" fill="url(#paint27_linear_424_27400)"/>
        <g clip-path="url(#clip5_424_27400)">
            <path d="M171.668 38.1797C178.288 60.7097 162.758 83.5997 140.228 90.2097C117.698 96.8297 94.068 83.9197 87.458 61.3897C80.838 38.8697 93.348 12.2997 115.878 5.67967C138.408 -0.940329 165.048 15.6497 171.668 38.1797Z" fill="url(#paint28_linear_424_27400)"/>
            <path d="M170.179 60.3378C177.805 38.0515 165.921 13.8028 143.634 6.17684C121.348 -1.44913 97.0994 10.4354 89.4734 32.7218C81.8475 55.0081 93.732 79.2568 116.018 86.8827C138.305 94.5087 162.553 82.6241 170.179 60.3378Z" fill="url(#paint29_linear_424_27400)"/>
            <path style="mix-blend-mode:screen" d="M117.808 5.60988C106.278 8.99988 97.268 16.8299 92.088 26.6799C97.358 17.3699 106.108 10.0099 117.188 6.75988C139.788 0.119884 163.488 13.0699 170.128 35.6699C173.378 46.7399 171.918 58.0699 166.938 67.5399C172.418 57.8499 174.138 46.0499 170.748 34.5199C164.108 11.9199 140.408 -1.03012 117.808 5.60988Z" fill="url(#paint30_linear_424_27400)"/>
            <path style="mix-blend-mode:screen" d="M162.378 38.1098C167.778 56.4998 157.248 75.7797 138.858 81.1797C120.468 86.5798 101.188 76.0498 95.798 57.6598C90.398 39.2698 100.928 19.9898 119.318 14.5898C137.708 9.18975 156.988 19.7198 162.388 38.1098H162.378Z" fill="url(#paint31_linear_424_27400)"/>
            <path d="M163.748 53.8949C167.811 35.1662 155.922 16.69 137.194 12.627C118.465 8.56406 99.9888 20.4529 95.9259 39.1816C91.8629 57.9102 103.752 76.3865 122.48 80.4494C141.209 84.5124 159.685 72.6235 163.748 53.8949Z" fill="url(#paint32_linear_424_27400)"/>
            <path style="mix-blend-mode:multiply" opacity="0.3" d="M120.048 13.25C110.438 16.07 102.988 22.68 98.818 30.98C103.138 23.68 110.118 17.93 118.898 15.36C137.288 9.95998 156.568 20.49 161.968 38.88C164.548 47.66 163.488 56.64 159.678 64.22C164.398 56.23 165.938 46.39 163.118 36.78C157.718 18.39 138.438 7.86998 120.058 13.26L120.048 13.25Z" fill="url(#paint33_linear_424_27400)"/>
            <path style="mix-blend-mode:screen" d="M174.038 27.0499C170.338 33.8299 156.598 33.4599 143.348 26.2299C130.098 18.9999 122.358 7.63994 126.058 0.859939C129.758 -5.92006 143.498 -5.55006 156.748 1.68994C169.998 8.91994 177.738 20.2799 174.038 27.0599V27.0499Z" fill="url(#paint34_radial_424_27400)"/>
            <path style="mix-blend-mode:color-dodge" opacity="0.6" d="M165.218 22.2299C162.878 26.5099 154.198 26.2799 145.818 21.7099C137.448 17.1399 132.558 9.95994 134.898 5.67994C137.238 1.39994 145.918 1.62994 154.298 6.19994C162.668 10.7699 167.558 17.9499 165.218 22.2299Z" fill="url(#paint35_radial_424_27400)"/>
        </g>
        <path d="M136.719 19.5806L131.074 40.6478L146.748 53.3756L136.719 19.5806Z" fill="white" fill-opacity="0.6"/>
        <path d="M136.719 19.5804L111.133 43.8325L131.074 40.6476L136.719 19.5804Z" fill="white"/>
        <g filter="url(#filter0_b_424_27400)">
            <path d="M125.284 62.2564L121.448 76.5712L145.871 56.6943L125.284 62.2564Z" fill="white" fill-opacity="0.6"/>
        </g>
        <path d="M121.448 76.571L125.284 62.2539L110.245 47.1479L121.448 76.571Z" fill="white"/>
        <path d="M126.171 58.9431L146.748 53.3754L131.072 40.6523L126.171 58.9431Z" fill="white" fill-opacity="0.2"/>
        <path d="M111.133 43.8322L126.171 58.9429L131.072 40.6522L111.133 43.8322Z" fill="white" fill-opacity="0.6"/>
        <path d="M224.439 56.2036L246.575 72.5643L275.855 69.9806L232.698 231.044L181.282 217.267L224.439 56.2036Z" fill="url(#paint36_linear_424_27400)"/>
        <g clip-path="url(#clip6_424_27400)">
            <path d="M275.724 57.4365C279.762 71.1798 270.289 85.1427 256.546 89.1748C242.802 93.213 228.388 85.3379 224.356 71.5946C220.318 57.8574 227.949 41.6497 241.692 37.6115C255.435 33.5733 271.686 43.6932 275.724 57.4365Z" fill="url(#paint37_linear_424_27400)"/>
            <path d="M274.816 70.9527C279.468 57.358 272.218 42.5663 258.624 37.9145C245.029 33.2626 230.237 40.5122 225.585 54.1069C220.934 67.7015 228.183 82.4932 241.778 87.1451C255.372 91.7969 270.164 84.5473 274.816 70.9527Z" fill="url(#paint38_linear_424_27400)"/>
            <path style="mix-blend-mode:screen" d="M242.869 37.5691C235.836 39.637 230.34 44.4133 227.18 50.4218C230.395 44.7427 235.732 40.2531 242.491 38.2706C256.277 34.2202 270.734 42.1197 274.785 55.9057C276.767 62.6584 275.877 69.5697 272.839 75.3464C276.182 69.4355 277.231 62.2375 275.163 55.2042C271.112 41.4182 256.655 33.5187 242.869 37.5691Z" fill="url(#paint39_linear_424_27400)"/>
            <path style="mix-blend-mode:screen" d="M270.057 57.3939C273.351 68.6118 266.928 80.3726 255.71 83.6666C244.492 86.9606 232.731 80.5373 229.443 69.3194C226.149 58.1015 232.573 46.3407 243.791 43.0467C255.008 39.7527 266.769 46.176 270.063 57.3939H270.057Z" fill="url(#paint40_linear_424_27400)"/>
            <path d="M270.893 67.0227C273.371 55.5982 266.119 44.3277 254.695 41.8493C243.27 39.3709 232 46.6231 229.521 58.0476C227.043 69.472 234.295 80.7425 245.72 83.221C257.144 85.6994 268.415 78.4471 270.893 67.0227Z" fill="url(#paint41_linear_424_27400)"/>
            <path style="mix-blend-mode:multiply" opacity="0.3" d="M244.236 42.2293C238.374 43.9495 233.829 47.9816 231.286 53.0446C233.921 48.5916 238.179 45.0841 243.534 43.5164C254.752 40.2224 266.513 46.6457 269.807 57.8636C271.381 63.2194 270.734 68.6972 268.41 73.321C271.289 68.4471 272.229 62.4447 270.509 56.5826C267.215 45.3647 255.454 38.9475 244.242 42.2354L244.236 42.2293Z" fill="url(#paint42_linear_424_27400)"/>
            <path style="mix-blend-mode:screen" opacity="0.6" d="M277.17 50.6471C274.913 54.7829 266.531 54.5572 258.449 50.1469C250.366 45.7366 245.645 38.807 247.902 34.6712C250.159 30.5354 258.54 30.7611 266.623 35.1775C274.705 39.5878 279.427 46.5174 277.17 50.6532V50.6471Z" fill="url(#paint43_radial_424_27400)"/>
            <path style="mix-blend-mode:color-dodge" opacity="0.6" d="M271.79 47.7072C270.362 50.318 265.067 50.1777 259.956 47.39C254.85 44.6023 251.867 40.2225 253.294 37.6117C254.722 35.0009 260.017 35.1412 265.128 37.9289C270.234 40.7166 273.217 45.0964 271.79 47.7072Z" fill="url(#paint44_radial_424_27400)"/>
        </g>
        <path d="M254.274 67.3864C255.337 64.5402 253.994 62.9262 250.73 61.2435C248.412 60.0065 248.167 59.1737 248.593 58.0351C249.018 56.8964 250.105 56.4686 251.731 57.0763C253.195 57.6232 253.826 58.4151 253.777 59.7868C253.767 60.0612 253.95 60.3149 254.194 60.4061L255.495 60.8922C255.821 61.0138 256.156 60.861 256.277 60.5358L256.308 60.4544C256.651 58.5437 255.704 56.6143 253.894 55.7529L254.623 53.8012C254.745 53.4758 254.592 53.1407 254.216 52.9074L252.996 52.4516C252.671 52.33 252.336 52.4828 252.102 52.8592L251.403 54.7295C248.842 54.1433 246.69 55.1924 245.93 57.2255C244.927 59.9091 246.159 61.5739 249.422 63.2569C251.547 64.5142 252.097 65.2757 251.611 66.5769C251.124 67.8781 249.652 68.3471 248.107 67.7698C245.992 66.9797 245.594 65.8116 245.806 64.5006C245.847 64.1451 245.663 63.8912 245.419 63.8L244.037 63.2834C243.712 63.1619 243.377 63.3147 243.255 63.6401L243.225 63.7214C242.79 65.8759 243.544 67.8259 246.076 69.2354L245.347 71.1871C245.225 71.5123 245.378 71.8474 245.754 72.0807L246.974 72.5365C247.299 72.658 247.635 72.5052 247.868 72.1291L248.597 70.1774C251.189 70.6822 253.453 69.5821 254.274 67.3864Z" fill="white"/>
        <path d="M241.568 72.3704C236.076 67.7233 235.467 59.4328 240.165 54.0521C242.661 51.0924 246.317 49.4929 250.107 49.5188C250.493 49.4778 250.747 49.2946 250.899 48.8879L251.324 47.7494C251.446 47.4241 251.374 47.1194 251.079 46.9166C250.998 46.8862 250.835 46.8254 250.724 46.8762C242.086 46.4292 234.789 53.0628 234.342 61.6999C234.104 66.8009 236.294 71.6044 240.301 74.7698C240.566 75.054 240.952 75.013 241.155 74.718C241.266 74.6672 241.297 74.5858 241.357 74.4232L241.783 73.2846C241.874 73.0406 241.752 72.6243 241.568 72.3704ZM259.669 50.2187C259.405 49.9346 259.018 49.9756 258.816 50.2706C258.704 50.3216 258.674 50.4028 258.613 50.5656L258.187 51.704C258.066 52.0294 258.188 52.4457 258.371 52.6996C263.864 57.3466 264.473 65.6372 259.775 71.0179C257.279 73.9776 253.623 75.5771 249.833 75.5511C249.447 75.5921 249.193 75.7754 249.041 76.1821L248.616 77.3206C248.494 77.6459 248.566 77.9506 248.861 78.1534C248.942 78.1838 249.105 78.2445 249.216 78.1938C257.853 78.6408 265.151 72.0072 265.598 63.37C265.867 58.1877 263.595 53.3537 259.669 50.2187Z" fill="white"/>
    </g>
    <defs>
        <filter id="filter0_b_424_27400" x="111.273" y="46.5196" width="44.773" height="40.2265" filterUnits="userSpaceOnUse" color-interpolation-filters="sRGB">
            <feFlood flood-opacity="0" result="BackgroundImageFix"/>
            <feGaussianBlur in="BackgroundImageFix" stdDeviation="5.08737"/>
            <feComposite in2="SourceAlpha" operator="in" result="effect1_backgroundBlur_424_27400"/>
            <feBlend mode="normal" in="SourceGraphic" in2="effect1_backgroundBlur_424_27400" result="shape"/>
        </filter>
        <linearGradient id="paint0_linear_424_27400" x1="214.188" y1="67.9973" x2="159.832" y2="125.82" gradientUnits="userSpaceOnUse">
            <stop offset="0.159882" stop-color="#F15A24"/>
            <stop offset="0.442417" stop-color="#FBB03B" stop-opacity="0.55"/>
            <stop offset="0.66289" stop-color="#FBB03B" stop-opacity="0"/>
        </linearGradient>
        <linearGradient id="paint1_linear_424_27400" x1="207.098" y1="78.2608" x2="197.447" y2="95.9274" gradientUnits="userSpaceOnUse">
            <stop stop-color="#ACC0FF"/>
            <stop offset="0.3" stop-color="#8AC2FF"/>
            <stop offset="1" stop-color="#F3CDAA"/>
        </linearGradient>
        <linearGradient id="paint2_linear_424_27400" x1="215.865" y1="61.9834" x2="197.695" y2="95.2547" gradientUnits="userSpaceOnUse">
            <stop stop-color="#D2DCFF"/>
            <stop offset="0.3" stop-color="#BCD9FF"/>
            <stop offset="1" stop-color="#9AD5FF"/>
        </linearGradient>
        <linearGradient id="paint3_linear_424_27400" x1="215.76" y1="62.2035" x2="206.533" y2="79.0978" gradientUnits="userSpaceOnUse">
            <stop stop-color="#D2DCFF"/>
            <stop offset="0.3" stop-color="#BCD9FF"/>
            <stop offset="1" stop-color="#9AD5FF"/>
        </linearGradient>
        <linearGradient id="paint4_linear_424_27400" x1="193.329" y1="98.3077" x2="217.532" y2="62.3231" gradientUnits="userSpaceOnUse">
            <stop stop-color="#D2DCFF"/>
            <stop offset="0.3" stop-color="#BCD9FF"/>
            <stop offset="1" stop-color="#9AD5FF"/>
        </linearGradient>
        <linearGradient id="paint5_linear_424_27400" x1="193.62" y1="97.8252" x2="217.821" y2="61.8452" gradientUnits="userSpaceOnUse">
            <stop stop-color="#D2DCFF"/>
            <stop offset="0.3" stop-color="#BCD9FF"/>
            <stop offset="1" stop-color="#9AD5FF"/>
        </linearGradient>
        <linearGradient id="paint6_linear_424_27400" x1="203.043" y1="83.7482" x2="216.674" y2="63.4824" gradientUnits="userSpaceOnUse">
            <stop stop-color="#D2DCFF"/>
            <stop offset="0.3" stop-color="#BCD9FF"/>
            <stop offset="1" stop-color="#9AD5FF"/>
        </linearGradient>
        <radialGradient id="paint7_radial_424_27400" cx="0" cy="0" r="1" gradientUnits="userSpaceOnUse" gradientTransform="translate(215.797 64.427) rotate(28.64) scale(10.1484 5.20002)">
            <stop offset="0.05" stop-color="#FEFFFE"/>
            <stop offset="0.09" stop-color="#F6F7FE"/>
            <stop offset="0.16" stop-color="#E0E4FE"/>
            <stop offset="0.24" stop-color="#BDC4FE"/>
            <stop offset="0.26" stop-color="#B4BCFF"/>
            <stop offset="0.29" stop-color="#B4CEFF"/>
            <stop offset="0.31" stop-color="#B4DCFF"/>
            <stop offset="0.36" stop-color="#95B6D3"/>
            <stop offset="0.43" stop-color="#728BA2"/>
            <stop offset="0.49" stop-color="#536676"/>
            <stop offset="0.56" stop-color="#394652"/>
            <stop offset="0.63" stop-color="#242D34"/>
            <stop offset="0.71" stop-color="#14191D"/>
            <stop offset="0.79" stop-color="#080A0C"/>
            <stop offset="0.88" stop-color="#020203"/>
            <stop offset="0.99"/>
        </radialGradient>
        <radialGradient id="paint8_radial_424_27400" cx="0" cy="0" r="1" gradientUnits="userSpaceOnUse" gradientTransform="translate(215.805 64.4311) rotate(28.64) scale(6.41143 3.2852)">
            <stop offset="0.05" stop-color="#FEFFFE"/>
            <stop offset="0.08" stop-color="#F6FBFE"/>
            <stop offset="0.12" stop-color="#E0F0FE"/>
            <stop offset="0.17" stop-color="#BDDFFE"/>
            <stop offset="0.18" stop-color="#B3DAFF"/>
            <stop offset="0.24" stop-color="#94B4D3"/>
            <stop offset="0.31" stop-color="#718AA2"/>
            <stop offset="0.39" stop-color="#536576"/>
            <stop offset="0.48" stop-color="#394652"/>
            <stop offset="0.56" stop-color="#242C34"/>
            <stop offset="0.65" stop-color="#14181D"/>
            <stop offset="0.75" stop-color="#080A0C"/>
            <stop offset="0.86" stop-color="#020203"/>
            <stop offset="1"/>
        </radialGradient>
        <linearGradient id="paint9_linear_424_27400" x1="315.672" y1="67.9973" x2="254.239" y2="143.242" gradientUnits="userSpaceOnUse">
            <stop offset="0.0955355" stop-color="#FF007A"/>
            <stop offset="0.302619" stop-color="#E22EFF" stop-opacity="0.65"/>
            <stop offset="0.565002" stop-color="#AD00FF" stop-opacity="0"/>
        </linearGradient>
        <linearGradient id="paint10_linear_424_27400" x1="308.582" y1="78.2608" x2="298.931" y2="95.9274" gradientUnits="userSpaceOnUse">
            <stop stop-color="#ACC0FF"/>
            <stop offset="0.3" stop-color="#8AC2FF"/>
            <stop offset="1" stop-color="#DE9BF9"/>
        </linearGradient>
        <linearGradient id="paint11_linear_424_27400" x1="317.349" y1="61.9834" x2="299.179" y2="95.2547" gradientUnits="userSpaceOnUse">
            <stop stop-color="#D2DCFF"/>
            <stop offset="0.3" stop-color="#BCD9FF"/>
            <stop offset="1" stop-color="#9AD5FF"/>
        </linearGradient>
        <linearGradient id="paint12_linear_424_27400" x1="317.244" y1="62.2035" x2="308.017" y2="79.0978" gradientUnits="userSpaceOnUse">
            <stop stop-color="#D2DCFF"/>
            <stop offset="0.3" stop-color="#BCD9FF"/>
            <stop offset="1" stop-color="#9AD5FF"/>
        </linearGradient>
        <linearGradient id="paint13_linear_424_27400" x1="294.813" y1="98.3077" x2="319.016" y2="62.3231" gradientUnits="userSpaceOnUse">
            <stop stop-color="#D2DCFF"/>
            <stop offset="0.3" stop-color="#BCD9FF"/>
            <stop offset="1" stop-color="#9AD5FF"/>
        </linearGradient>
        <linearGradient id="paint14_linear_424_27400" x1="295.104" y1="97.8252" x2="319.305" y2="61.8452" gradientUnits="userSpaceOnUse">
            <stop stop-color="#D2DCFF"/>
            <stop offset="0.3" stop-color="#BCD9FF"/>
            <stop offset="1" stop-color="#9AD5FF"/>
        </linearGradient>
        <linearGradient id="paint15_linear_424_27400" x1="304.527" y1="83.7482" x2="318.158" y2="63.4824" gradientUnits="userSpaceOnUse">
            <stop stop-color="#D2DCFF"/>
            <stop offset="0.3" stop-color="#BCD9FF"/>
            <stop offset="1" stop-color="#9AD5FF"/>
        </linearGradient>
        <radialGradient id="paint16_radial_424_27400" cx="0" cy="0" r="1" gradientUnits="userSpaceOnUse" gradientTransform="translate(317.281 64.427) rotate(28.64) scale(10.1484 5.20002)">
            <stop offset="0.05" stop-color="#FEFFFE"/>
            <stop offset="0.09" stop-color="#F6F7FE"/>
            <stop offset="0.16" stop-color="#E0E4FE"/>
            <stop offset="0.24" stop-color="#BDC4FE"/>
            <stop offset="0.26" stop-color="#B4BCFF"/>
            <stop offset="0.29" stop-color="#B4CEFF"/>
            <stop offset="0.31" stop-color="#B4DCFF"/>
            <stop offset="0.36" stop-color="#95B6D3"/>
            <stop offset="0.43" stop-color="#728BA2"/>
            <stop offset="0.49" stop-color="#536676"/>
            <stop offset="0.56" stop-color="#394652"/>
            <stop offset="0.63" stop-color="#242D34"/>
            <stop offset="0.71" stop-color="#14191D"/>
            <stop offset="0.79" stop-color="#080A0C"/>
            <stop offset="0.88" stop-color="#020203"/>
            <stop offset="0.99"/>
        </radialGradient>
        <radialGradient id="paint17_radial_424_27400" cx="0" cy="0" r="1" gradientUnits="userSpaceOnUse" gradientTransform="translate(317.289 64.4311) rotate(28.64) scale(6.41143 3.2852)">
            <stop offset="0.05" stop-color="#FEFFFE"/>
            <stop offset="0.08" stop-color="#F6FBFE"/>
            <stop offset="0.12" stop-color="#E0F0FE"/>
            <stop offset="0.17" stop-color="#BDDFFE"/>
            <stop offset="0.18" stop-color="#B3DAFF"/>
            <stop offset="0.24" stop-color="#94B4D3"/>
            <stop offset="0.31" stop-color="#718AA2"/>
            <stop offset="0.39" stop-color="#536576"/>
            <stop offset="0.48" stop-color="#394652"/>
            <stop offset="0.56" stop-color="#242C34"/>
            <stop offset="0.65" stop-color="#14181D"/>
            <stop offset="0.75" stop-color="#080A0C"/>
            <stop offset="0.86" stop-color="#020203"/>
            <stop offset="1"/>
        </radialGradient>
        <linearGradient id="paint18_linear_424_27400" x1="78.0107" y1="56.423" x2="-50.6378" y2="262.28" gradientUnits="userSpaceOnUse">
            <stop offset="0.10552" stop-color="#137E7E"/>
            <stop offset="0.129579" stop-color="#50AF95"/>
            <stop offset="0.320046" stop-color="#25B6AD" stop-opacity="0"/>
        </linearGradient>
        <linearGradient id="paint19_linear_424_27400" x1="55.3739" y1="73.257" x2="39.5523" y2="102.219" gradientUnits="userSpaceOnUse">
            <stop stop-color="#ACC0FF"/>
            <stop offset="0.3" stop-color="#8AC2FF"/>
            <stop offset="1" stop-color="#88FFEE"/>
        </linearGradient>
        <linearGradient id="paint20_linear_424_27400" x1="69.7462" y1="46.5724" x2="39.959" y2="101.115" gradientUnits="userSpaceOnUse">
            <stop stop-color="#D2DCFF"/>
            <stop offset="0.3" stop-color="#BCD9FF"/>
            <stop offset="1" stop-color="#9AD5FF"/>
        </linearGradient>
        <linearGradient id="paint21_linear_424_27400" x1="69.573" y1="46.9335" x2="54.4478" y2="74.629" gradientUnits="userSpaceOnUse">
            <stop stop-color="#D2DCFF"/>
            <stop offset="0.3" stop-color="#BCD9FF"/>
            <stop offset="1" stop-color="#9AD5FF"/>
        </linearGradient>
        <linearGradient id="paint22_linear_424_27400" x1="32.8018" y1="106.12" x2="72.4787" y2="47.1293" gradientUnits="userSpaceOnUse">
            <stop stop-color="#D2DCFF"/>
            <stop offset="0.3" stop-color="#BCD9FF"/>
            <stop offset="1" stop-color="#9AD5FF"/>
        </linearGradient>
        <linearGradient id="paint23_linear_424_27400" x1="33.2787" y1="105.329" x2="72.9515" y2="46.3458" gradientUnits="userSpaceOnUse">
            <stop stop-color="#D2DCFF"/>
            <stop offset="0.3" stop-color="#BCD9FF"/>
            <stop offset="1" stop-color="#9AD5FF"/>
        </linearGradient>
        <linearGradient id="paint24_linear_424_27400" x1="48.7264" y1="82.2526" x2="71.0721" y2="49.0299" gradientUnits="userSpaceOnUse">
            <stop stop-color="#D2DCFF"/>
            <stop offset="0.3" stop-color="#BCD9FF"/>
            <stop offset="1" stop-color="#9AD5FF"/>
        </linearGradient>
        <radialGradient id="paint25_radial_424_27400" cx="0" cy="0" r="1" gradientUnits="userSpaceOnUse" gradientTransform="translate(69.6344 50.5785) rotate(28.64) scale(16.6368 8.52463)">
            <stop offset="0.05" stop-color="#FEFFFE"/>
            <stop offset="0.09" stop-color="#F6F7FE"/>
            <stop offset="0.16" stop-color="#E0E4FE"/>
            <stop offset="0.24" stop-color="#BDC4FE"/>
            <stop offset="0.26" stop-color="#B4BCFF"/>
            <stop offset="0.29" stop-color="#B4CEFF"/>
            <stop offset="0.31" stop-color="#B4DCFF"/>
            <stop offset="0.36" stop-color="#95B6D3"/>
            <stop offset="0.43" stop-color="#728BA2"/>
            <stop offset="0.49" stop-color="#536676"/>
            <stop offset="0.56" stop-color="#394652"/>
            <stop offset="0.63" stop-color="#242D34"/>
            <stop offset="0.71" stop-color="#14191D"/>
            <stop offset="0.79" stop-color="#080A0C"/>
            <stop offset="0.88" stop-color="#020203"/>
            <stop offset="0.99"/>
        </radialGradient>
        <radialGradient id="paint26_radial_424_27400" cx="0" cy="0" r="1" gradientUnits="userSpaceOnUse" gradientTransform="translate(69.6474 50.5858) rotate(28.64) scale(10.5105 5.38557)">
            <stop offset="0.05" stop-color="#FEFFFE"/>
            <stop offset="0.08" stop-color="#F6FBFE"/>
            <stop offset="0.12" stop-color="#E0F0FE"/>
            <stop offset="0.17" stop-color="#BDDFFE"/>
            <stop offset="0.18" stop-color="#B3DAFF"/>
            <stop offset="0.24" stop-color="#94B4D3"/>
            <stop offset="0.31" stop-color="#718AA2"/>
            <stop offset="0.39" stop-color="#536576"/>
            <stop offset="0.48" stop-color="#394652"/>
            <stop offset="0.56" stop-color="#242C34"/>
            <stop offset="0.65" stop-color="#14181D"/>
            <stop offset="0.75" stop-color="#080A0C"/>
            <stop offset="0.86" stop-color="#020203"/>
            <stop offset="1"/>
        </radialGradient>
        <linearGradient id="paint27_linear_424_27400" x1="38.506" y1="280.075" x2="187.868" y2="87.5434" gradientUnits="userSpaceOnUse">
            <stop offset="0.628007" stop-color="#ED1E79" stop-opacity="0"/>
            <stop offset="0.798188" stop-color="#ED1E79" stop-opacity="0.53"/>
            <stop offset="0.983589" stop-color="#522785"/>
        </linearGradient>
        <linearGradient id="paint28_linear_424_27400" x1="127.295" y1="51.6582" x2="101.358" y2="99.1363" gradientUnits="userSpaceOnUse">
            <stop stop-color="#ACC0FF"/>
            <stop offset="0.3" stop-color="#8AC2FF"/>
            <stop offset="1" stop-color="#EDAAD3"/>
        </linearGradient>
        <linearGradient id="paint29_linear_424_27400" x1="150.856" y1="7.91336" x2="102.024" y2="97.3282" gradientUnits="userSpaceOnUse">
            <stop stop-color="#D2DCFF"/>
            <stop offset="0.3" stop-color="#BCD9FF"/>
            <stop offset="1" stop-color="#9AD5FF"/>
        </linearGradient>
        <linearGradient id="paint30_linear_424_27400" x1="150.572" y1="8.50461" x2="125.776" y2="53.9071" gradientUnits="userSpaceOnUse">
            <stop stop-color="#D2DCFF"/>
            <stop offset="0.3" stop-color="#BCD9FF"/>
            <stop offset="1" stop-color="#9AD5FF"/>
        </linearGradient>
        <linearGradient id="paint31_linear_424_27400" x1="90.2911" y1="105.532" x2="155.335" y2="8.82578" gradientUnits="userSpaceOnUse">
            <stop stop-color="#D2DCFF"/>
            <stop offset="0.3" stop-color="#BCD9FF"/>
            <stop offset="1" stop-color="#9AD5FF"/>
        </linearGradient>
        <linearGradient id="paint32_linear_424_27400" x1="91.0729" y1="104.236" x2="156.11" y2="7.54162" gradientUnits="userSpaceOnUse">
            <stop stop-color="#D2DCFF"/>
            <stop offset="0.3" stop-color="#BCD9FF"/>
            <stop offset="1" stop-color="#9AD5FF"/>
        </linearGradient>
        <linearGradient id="paint33_linear_424_27400" x1="116.397" y1="66.4051" x2="153.029" y2="11.9416" gradientUnits="userSpaceOnUse">
            <stop stop-color="#D2DCFF"/>
            <stop offset="0.3" stop-color="#BCD9FF"/>
            <stop offset="1" stop-color="#9AD5FF"/>
        </linearGradient>
        <radialGradient id="paint34_radial_424_27400" cx="0" cy="0" r="1" gradientUnits="userSpaceOnUse" gradientTransform="translate(150.672 14.4806) rotate(28.64) scale(27.2734 13.9748)">
            <stop offset="0.05" stop-color="#FEFFFE"/>
            <stop offset="0.09" stop-color="#F6F7FE"/>
            <stop offset="0.16" stop-color="#E0E4FE"/>
            <stop offset="0.24" stop-color="#BDC4FE"/>
            <stop offset="0.26" stop-color="#B4BCFF"/>
            <stop offset="0.29" stop-color="#B4CEFF"/>
            <stop offset="0.31" stop-color="#B4DCFF"/>
            <stop offset="0.36" stop-color="#95B6D3"/>
            <stop offset="0.43" stop-color="#728BA2"/>
            <stop offset="0.49" stop-color="#536676"/>
            <stop offset="0.56" stop-color="#394652"/>
            <stop offset="0.63" stop-color="#242D34"/>
            <stop offset="0.71" stop-color="#14191D"/>
            <stop offset="0.79" stop-color="#080A0C"/>
            <stop offset="0.88" stop-color="#020203"/>
            <stop offset="0.99"/>
        </radialGradient>
        <radialGradient id="paint35_radial_424_27400" cx="0" cy="0" r="1" gradientUnits="userSpaceOnUse" gradientTransform="translate(150.694 14.4922) rotate(28.64) scale(17.2304 8.8288)">
            <stop offset="0.05" stop-color="#FEFFFE"/>
            <stop offset="0.08" stop-color="#F6FBFE"/>
            <stop offset="0.12" stop-color="#E0F0FE"/>
            <stop offset="0.17" stop-color="#BDDFFE"/>
            <stop offset="0.18" stop-color="#B3DAFF"/>
            <stop offset="0.24" stop-color="#94B4D3"/>
            <stop offset="0.31" stop-color="#718AA2"/>
            <stop offset="0.39" stop-color="#536576"/>
            <stop offset="0.48" stop-color="#394652"/>
            <stop offset="0.56" stop-color="#242C34"/>
            <stop offset="0.65" stop-color="#14181D"/>
            <stop offset="0.75" stop-color="#080A0C"/>
            <stop offset="0.86" stop-color="#020203"/>
            <stop offset="1"/>
        </radialGradient>
        <linearGradient id="paint36_linear_424_27400" x1="271.293" y1="48.8244" x2="225.268" y2="257.253" gradientUnits="userSpaceOnUse">
            <stop offset="0.04446" stop-color="#3B00B9"/>
            <stop offset="0.260155" stop-color="#2586B6" stop-opacity="0.51"/>
            <stop offset="0.33887" stop-color="#2586B6" stop-opacity="0"/>
        </linearGradient>
        <linearGradient id="paint37_linear_424_27400" x1="248.656" y1="65.6584" x2="232.835" y2="94.62" gradientUnits="userSpaceOnUse">
            <stop stop-color="#ACC0FF"/>
            <stop offset="0.3" stop-color="#8AC2FF"/>
            <stop offset="1" stop-color="#88FFEE"/>
        </linearGradient>
        <linearGradient id="paint38_linear_424_27400" x1="263.029" y1="38.9737" x2="233.241" y2="93.5168" gradientUnits="userSpaceOnUse">
            <stop stop-color="#D2DCFF"/>
            <stop offset="0.3" stop-color="#BCD9FF"/>
            <stop offset="1" stop-color="#9AD5FF"/>
        </linearGradient>
        <linearGradient id="paint39_linear_424_27400" x1="262.855" y1="39.3349" x2="247.73" y2="67.0304" gradientUnits="userSpaceOnUse">
            <stop stop-color="#D2DCFF"/>
            <stop offset="0.3" stop-color="#BCD9FF"/>
            <stop offset="1" stop-color="#9AD5FF"/>
        </linearGradient>
        <linearGradient id="paint40_linear_424_27400" x1="226.084" y1="98.5217" x2="265.761" y2="39.5307" gradientUnits="userSpaceOnUse">
            <stop stop-color="#D2DCFF"/>
            <stop offset="0.3" stop-color="#BCD9FF"/>
            <stop offset="1" stop-color="#9AD5FF"/>
        </linearGradient>
        <linearGradient id="paint41_linear_424_27400" x1="226.561" y1="97.7307" x2="266.234" y2="38.7472" gradientUnits="userSpaceOnUse">
            <stop stop-color="#D2DCFF"/>
            <stop offset="0.3" stop-color="#BCD9FF"/>
            <stop offset="1" stop-color="#9AD5FF"/>
        </linearGradient>
        <linearGradient id="paint42_linear_424_27400" x1="242.009" y1="74.654" x2="264.354" y2="41.4312" gradientUnits="userSpaceOnUse">
            <stop stop-color="#D2DCFF"/>
            <stop offset="0.3" stop-color="#BCD9FF"/>
            <stop offset="1" stop-color="#9AD5FF"/>
        </linearGradient>
        <radialGradient id="paint43_radial_424_27400" cx="0" cy="0" r="1" gradientUnits="userSpaceOnUse" gradientTransform="translate(262.917 42.9798) rotate(28.64) scale(16.6368 8.52463)">
            <stop offset="0.05" stop-color="#FEFFFE"/>
            <stop offset="0.09" stop-color="#F6F7FE"/>
            <stop offset="0.16" stop-color="#E0E4FE"/>
            <stop offset="0.24" stop-color="#BDC4FE"/>
            <stop offset="0.26" stop-color="#B4BCFF"/>
            <stop offset="0.29" stop-color="#B4CEFF"/>
            <stop offset="0.31" stop-color="#B4DCFF"/>
            <stop offset="0.36" stop-color="#95B6D3"/>
            <stop offset="0.43" stop-color="#728BA2"/>
            <stop offset="0.49" stop-color="#536676"/>
            <stop offset="0.56" stop-color="#394652"/>
            <stop offset="0.63" stop-color="#242D34"/>
            <stop offset="0.71" stop-color="#14191D"/>
            <stop offset="0.79" stop-color="#080A0C"/>
            <stop offset="0.88" stop-color="#020203"/>
            <stop offset="0.99"/>
        </radialGradient>
        <radialGradient id="paint44_radial_424_27400" cx="0" cy="0" r="1" gradientUnits="userSpaceOnUse" gradientTransform="translate(262.93 42.9872) rotate(28.64) scale(10.5105 5.38557)">
            <stop offset="0.05" stop-color="#FEFFFE"/>
            <stop offset="0.08" stop-color="#F6FBFE"/>
            <stop offset="0.12" stop-color="#E0F0FE"/>
            <stop offset="0.17" stop-color="#BDDFFE"/>
            <stop offset="0.18" stop-color="#B3DAFF"/>
            <stop offset="0.24" stop-color="#94B4D3"/>
            <stop offset="0.31" stop-color="#718AA2"/>
            <stop offset="0.39" stop-color="#536576"/>
            <stop offset="0.48" stop-color="#394652"/>
            <stop offset="0.56" stop-color="#242C34"/>
            <stop offset="0.65" stop-color="#14181D"/>
            <stop offset="0.75" stop-color="#080A0C"/>
            <stop offset="0.86" stop-color="#020203"/>
            <stop offset="1"/>
        </radialGradient>
        <clipPath id="clip0_424_27400">
            <rect width="332" height="114" rx="8" fill="white"/>
        </clipPath>
        <clipPath id="clip1_424_27400">
            <rect width="33.2211" height="35.703" fill="white" transform="translate(191.616 57.5503)"/>
        </clipPath>
        <clipPath id="clip2_424_27400">
            <rect width="33.2211" height="35.703" fill="white" transform="translate(293.1 57.5503)"/>
        </clipPath>
        <clipPath id="clip3_424_27400">
            <rect width="15.5871" height="16.7005" fill="white" transform="translate(305.04 66.8633) rotate(14.8078)"/>
        </clipPath>
        <clipPath id="clip4_424_27400">
            <rect width="54.4608" height="58.5295" fill="white" transform="translate(29.9939 39.3052)"/>
        </clipPath>
        <clipPath id="clip5_424_27400">
            <rect width="89.28" height="95.95" fill="white" transform="translate(85.688 -4)"/>
        </clipPath>
        <clipPath id="clip6_424_27400">
            <rect width="54.4608" height="58.5295" fill="white" transform="translate(223.276 31.7065)"/>
        </clipPath>
    </defs>
</svg>
