<svg width="1024" height="600" fill="none" xmlns="http://www.w3.org/2000/svg">
    <g clip-path="url(#a)">
        <rect width="1024" height="600" rx="32" fill="url(#b)"/>
        <circle opacity=".35" cx="511.763" cy="299.763" r="219.763" stroke="#fff" stroke-width="2"/>
        <circle opacity=".35" cx="511.739" cy="299.739" r="357.739" stroke="#fff" stroke-width="2"/>
        <path opacity=".5" d="M433.883 272.918 203.33 183.734l60-44 170.553 133.184Z" fill="url(#c)"/>
        <path opacity=".5" d="M592.556 277.628 783 85l21 66-211.444 126.628Z" fill="url(#d)"/>
        <path opacity=".5" d="M442.586 344.885 233.331 485.734l-9-74 218.255-66.849Z" fill="url(#e)"/>
        <path opacity=".5" d="m587.037 320.177 234.793 61.057-60 51-174.793-112.057Z" fill="url(#f)"/>
        <g filter="url(#g)">
            <circle cx="512.381" cy="300.381" r="110.381" fill="#0172FF"/>
            <circle cx="512.382" cy="300.381" r="68.263" stroke="#fff" stroke-width="12.899"/>
            <path fill-rule="evenodd" clip-rule="evenodd" d="m510.348 223.542 15.334 3.932-3.217 12.549a61.589 61.589 0 0 0-10.083-.827c-2.067 0-4.11.102-6.125.303l4.091-15.957Zm-32.627 127.261-4.195 16.362 15.334 3.932 3.32-12.95a60.932 60.932 0 0 1-14.459-7.344Zm24.686 9.949-3.324 12.966 15.334 3.932 4.205-16.403a61.838 61.838 0 0 1-6.24.314c-3.397 0-6.729-.276-9.975-.809Zm44.732-110.732 4.1-15.991-15.334-3.931-3.217 12.548a60.992 60.992 0 0 1 14.451 7.374Z" fill="#fff"/>
            <circle cx="512.381" cy="300.381" r="110.381" fill="url(#h)"/>
            <path fill-rule="evenodd" clip-rule="evenodd" d="m524.483 357.684-2.998 13.26a1.758 1.758 0 0 1-1.974 1.355 348.137 348.137 0 0 1-15.527-2.7 1.763 1.763 0 0 1-1.378-2.12l2.784-12.315c-1.683-.33-3.378-.686-5.081-1.068a194.71 194.71 0 0 1-4.558-1.097l-2.784 12.311a1.762 1.762 0 0 1-2.154 1.321 354.05 354.05 0 0 1-15.181-4.222 1.759 1.759 0 0 1-1.202-2.073l2.985-13.203c-26.11-10.47-42.594-28.264-35.597-58.653l1.683-7.447c6.77-30.502 29.298-39.441 57.368-37.644l2.983-13.195a1.76 1.76 0 0 1 1.978-1.355 354.831 354.831 0 0 1 15.521 2.721 1.761 1.761 0 0 1 1.376 2.119l-2.783 12.31c1.521.303 3.05.627 4.587.971 1.703.385 3.386.789 5.048 1.213l2.783-12.306a1.762 1.762 0 0 1 2.155-1.321 349.917 349.917 0 0 1 15.179 4.241 1.76 1.76 0 0 1 1.199 2.073l-2.991 13.228c25.77 10.468 41.875 28.249 35.043 58.472l-1.684 7.446c-6.712 30.244-28.998 39.298-56.78 37.678Zm37.885-43.728.948-4.19c6.671-27.723-15.512-38.077-42.86-44.66-27.648-5.851-52.129-6.046-58.031 21.85l-.948 4.191c-6.7 27.849 15.483 38.203 42.959 44.816 27.521 5.821 52.001 6.017 57.932-22.007Z" fill="#fff"/>
        </g>
        <g clip-path="url(#i)">
            <circle cx="230.629" cy="159.409" r="61.315" transform="rotate(-15 230.629 159.409)" fill="#fff" stroke="#DBD9D6" stroke-width=".594"/>
            <path d="M245.981 135.097c-4.435 1.189-8.674 4.71-12.61 10.465-1.868 2.727-3.366 5.515-4.459 7.716l.018.01-.004-.013s3.188 1.98 6.689 4.079c1.015-2.109 2.511-5.011 4.385-7.77 3.502-5.117 6.243-6.734 7.937-7.188 6.379-1.709 12.885 1.855 14.516 7.94 1.62 6.045-2.247 12.388-8.601 14.134a6.105 6.105 0 0 1-1.166.168c2.07.284 4.219.315 6.12-.194 11.682-3.13 11.97-11.204 11.977-11.785a18.024 18.024 0 0 0-.619-4.404c-2.704-10.092-13.561-16.004-24.183-13.158Z" fill="url(#j)"/>
            <path d="M215.011 182.73c4.436-1.189 8.675-4.711 12.611-10.465 1.868-2.728 3.365-5.515 4.458-7.717l-.017-.01.004.014s-3.188-1.98-6.689-4.079c-1.015 2.108-2.511 5.011-4.386 7.769-3.501 5.117-6.242 6.734-7.937 7.188-6.382 1.696-12.888-1.868-14.519-7.953-1.62-6.045 2.247-12.388 8.601-14.134a6.105 6.105 0 0 1 1.166-.168c-2.07-.284-4.219-.315-6.12.194-11.682 3.13-11.956 11.201-11.98 11.771.024 1.469.224 2.933.618 4.404 2.712 10.119 13.569 16.032 24.19 13.186Z" fill="url(#k)"/>
            <path d="M258.738 164.289c-6.019 1.453-13.469-1.496-15.043-2.304-4.074-2.089-13.789-8.091-14.551-8.566-7.168-4.601-16.499-9.39-23.965-7.389l-.014.004-.014.003c-9.054 2.47-15.06 10.529-14.947 19.103.01-.567.961-8.978 11.999-11.646 6.018-1.454 13.514 1.556 15.102 2.36 4.074 2.089 13.788 8.091 14.551 8.566 7.164 4.588 16.495 9.376 23.961 7.376l.014-.004.014-.004c9.054-2.469 15.073-10.532 14.947-19.102-.024.57-1.006 8.917-12.054 11.603Z" fill="#29ABE2"/>
        </g>
        <g clip-path="url(#l)">
            <circle cx="793.084" cy="116.487" r="51.514" transform="rotate(-15 793.084 116.487)" fill="#627EEA"/>
            <circle cx="793.084" cy="116.487" r="50.514" transform="rotate(-15 793.084 116.487)" stroke="#fff" stroke-opacity=".25" stroke-width="2"/>
            <g clip-path="url(#m)">
                <path d="m784.036 83.357-.041 1.648 11.876 44.321.57.328 17.314-17.673-29.719-28.624Z" fill="#C1CCF6"/>
                <path d="m784.036 83.358-11.427 39.648 23.832 6.648-5.764-21.512-6.641-24.784Z" fill="#fff"/>
                <path d="m797.485 133.549-.171.377 4.23 15.788.452.672 12.817-34.507-17.328 17.67Z" fill="#C1CCF6"/>
                <path d="m801.996 150.386-4.511-16.837-23.83-6.642 28.341 23.479Z" fill="#fff"/>
                <path d="m796.441 129.654 17.314-17.673-23.078-3.839 5.764 21.512Z" fill="#8198EE"/>
                <path d="m772.609 123.006 23.832 6.648-5.764-21.512-18.068 14.864Z" fill="#C1CCF6"/>
            </g>
        </g>
        <g clip-path="url(#n)">
            <path d="M286.457 474.984c-13.221 33.364-50.992 49.694-84.363 36.471-33.358-13.219-49.69-50.988-36.466-84.349 13.218-33.368 50.988-49.699 84.349-36.48 33.37 13.221 49.701 50.993 36.478 84.359l.001-.001h.001Z" fill="#F7931A"/>
            <path d="M255.682 445.662c2.429-8.403-3.483-13.884-11.999-18.152l4.449-11.227-6.835-2.707-4.331 10.931a299.948 299.948 0 0 0-5.487-2.091l4.362-11.003-6.831-2.706-4.45 11.222a242.77 242.77 0 0 1-4.373-1.664l.013-.036-9.425-3.738-2.89 7.299s5.085 1.904 4.964 1.963c2.768 1.098 3.032 3.062 2.746 4.553l-5.068 12.79c.19.076.436.183.703.334-.228-.09-.47-.188-.723-.285l-7.102 17.916c-.466.823-1.529 2.01-3.464 1.247.057.112-4.968-1.97-4.968-1.97l-4.592 7.623 8.894 3.524c1.655.658 3.272 1.332 4.867 1.975l-4.496 11.356 6.826 2.706 4.452-11.235a272.35 272.35 0 0 0 5.439 2.215l-4.434 11.182 6.835 2.707 4.493-11.334c11.752 3.894 20.941 4.186 26.215-6.208 4.249-8.368 1.698-13.863-4.204-18.013 4.763-.448 8.649-3.021 10.416-9.173l-.002-.002v.001Zm-19.184 20.49c-3.359 8.487-17.507 1.764-22.141-.067l5.964-15.043c4.632 1.837 19.685 6.26 16.178 15.11h-.001Zm5.233-22.485c-3.061 7.719-14.823 2.016-18.681.488l5.407-13.644c3.859 1.529 16.464 5.104 13.274 13.156Z" fill="#fff"/>
        </g>
        <g clip-path="url(#o)">
            <path d="M859.335 440.5c-16.989 30.649-55.614 41.722-86.27 24.73-30.643-16.987-41.719-55.61-24.727-86.255 16.987-30.654 55.611-41.729 86.258-24.741 30.654 16.989 41.728 55.616 24.738 86.266v-.001l.001.001Z" fill="#000"/>
            <path d="m835.849 438.228-15.869 9.632a2.985 2.985 0 0 1-1.135.402 3.05 3.05 0 0 1-1.21-.075l-58.775-15.749a1.519 1.519 0 0 1-.728-.441 1.464 1.464 0 0 1-.367-.756 1.427 1.427 0 0 1 .674-1.444l15.879-9.629a2.983 2.983 0 0 1 1.131-.402 3.04 3.04 0 0 1 1.208.073l58.772 15.748c.28.075.533.229.727.441.195.213.322.476.367.756a1.427 1.427 0 0 1-.674 1.444Zm-5.409-29.407a2.985 2.985 0 0 0-.781-.916 3.067 3.067 0 0 0-1.086-.54l-58.775-15.748a1.511 1.511 0 0 0-.851.018 1.459 1.459 0 0 0-.695.471 1.416 1.416 0 0 0-.312.771c-.025.282.035.565.173.817l8.937 16.278c.194.353.459.664.779.914s.688.434 1.082.54l58.772 15.748c.28.075.576.069.851-.018a1.47 1.47 0 0 0 .695-.472 1.42 1.42 0 0 0 .139-1.587l-8.928-16.276Zm-58.388-25.618 58.775 15.749c.395.106.807.131 1.21.075.404-.056.79-.193 1.135-.402l15.87-9.632c.244-.148.438-.364.558-.621.12-.256.16-.542.115-.823a1.464 1.464 0 0 0-.366-.755 1.522 1.522 0 0 0-.728-.442l-58.772-15.748a3.073 3.073 0 0 0-1.207-.073 2.983 2.983 0 0 0-1.131.402l-15.876 9.63a1.425 1.425 0 0 0-.674 1.442c.044.281.171.543.365.756.194.213.446.366.726.442Z" fill="url(#p)"/>
        </g>
        <rect x="734.765" y="428.691" width="122.093" height="38.611" rx="19.305" transform="rotate(15 734.765 428.691)" fill="#fff"/>
        <rect x="734.765" y="428.691" width="122.093" height="38.611" rx="19.305" transform="rotate(15 734.765 428.691)" stroke="#000" stroke-width="1.315"/>
        <path d="m770.194 455.123-3.105.04c.078-.698-.165-1.984-1.914-2.452-1.199-.322-2.173.224-2.385 1.016-.186.691.105 1.314 1.052 1.764l1.833.883c2.608 1.244 3.557 3.394 3.007 5.447-.604 2.256-3.11 4.047-6.546 3.126-3.984-1.068-5-4.107-4.658-6.194l3.138.078c-.232 1.354.352 2.753 2.324 3.281 1.26.338 2.196-.065 2.435-.96.196-.731-.251-1.418-1.158-1.857l-1.874-.894c-2.314-1.121-3.362-3.145-2.79-5.279.73-2.724 3.641-3.993 6.405-3.252 3.598.964 4.383 3.484 4.236 5.253Zm4.204 5.048c-.806 3.009.989 4.928 3.001 5.467 1.993.534 4.507-.231 5.313-3.239.806-3.009-.984-4.948-2.976-5.482-2.012-.539-4.532.246-5.338 3.254Zm-3.339-.873c1.225-4.574 5.45-6.601 9.516-5.511 4.045 1.084 6.691 4.952 5.465 9.526-1.22 4.553-5.445 6.58-9.49 5.496-4.066-1.089-6.711-4.957-5.491-9.511Zm19.915 5.315c-.806 3.008.989 4.927 3.001 5.466 1.993.534 4.507-.23 5.313-3.239.806-3.008-.984-4.947-2.976-5.481-2.012-.539-4.532.245-5.338 3.254Zm-3.339-.873c1.225-4.574 5.45-6.601 9.516-5.512 4.045 1.084 6.691 4.952 5.465 9.526-1.22 4.554-5.445 6.581-9.49 5.497-4.066-1.09-6.711-4.958-5.491-9.511Zm28.003 15.216-3.395-.91-3.397-11.063-2.539 9.473-3.191-.855 3.862-14.413 3.903 1.046 3.059 10.21 2.348-8.761 3.212.86-3.862 14.413Z" fill="#000"/>
        <path d="M972.959 251.195s-1.951-.325-5.122-.488c-.528 0-1.097-.041-1.707-.081-7.073-2.317-9.715-8.496-10.61-11.504-.04-3.171-.162-5.122-.325-5.122-.162 0-.325 1.951-.488 5.122 0 .447-.04.935-.081 1.423-1.748 6.422-7.805 9.471-10.61 10.569-.325 0-.65.04-.935.081-3.13.284-5.081.528-5.081.691 0 .162 1.992.203 5.122.162.61 0 1.301 0 2.032-.04 6.098 1.423 8.822 6.707 9.879 9.552.04.854.121 1.626.203 2.358.284 3.171.528 5.122.691 5.081.162 0 .203-1.991.162-5.121 0-.854-.04-1.748-.081-2.765 1.585-6.341 7.236-8.699 10.244-9.512 4.106-.081 6.748-.162 6.748-.366l-.041-.04Z" fill="#517BCF"/>
        <g clip-path="url(#q)">
            <path d="M72 223.228s7.135-1.921 7.352-8.228c0 0 1.025 6.656 7.648 7.956 0 0-6.84.757-7.372 7.044 0 0-1.38-6.501-7.628-6.772Z" fill="#fff"/>
        </g>
        <path d="M554 26.228s7.135-1.921 7.352-8.228c0 0 1.025 6.656 7.648 7.956 0 0-6.84.757-7.372 7.044 0 0-1.38-6.5-7.628-6.772Z" fill="#fff"/>
        <g clip-path="url(#r)">
            <path d="M789 46.228s7.135-1.921 7.352-8.228c0 0 1.025 6.656 7.648 7.956 0 0-6.84.757-7.372 7.044 0 0-1.38-6.5-7.628-6.772Z" fill="#fff"/>
        </g>
        <path d="M207 365.228s7.135-1.921 7.352-8.228c0 0 1.025 6.656 7.648 7.956 0 0-6.84.757-7.372 7.044 0 0-1.38-6.501-7.628-6.772ZM206 33.228s7.135-1.921 7.352-8.228c0 0 1.025 6.656 7.648 7.956 0 0-6.84.757-7.372 7.044 0 0-1.38-6.5-7.628-6.772ZM117 506.228s7.135-1.921 7.352-8.228c0 0 1.025 6.656 7.648 7.956 0 0-6.84.757-7.372 7.044 0 0-1.38-6.501-7.628-6.772ZM923 507.228s7.135-1.921 7.352-8.228c0 0 1.025 6.656 7.648 7.956 0 0-6.84.757-7.372 7.044 0 0-1.38-6.501-7.628-6.772ZM942 373.228s7.135-1.921 7.352-8.228c0 0 1.025 6.656 7.648 7.956 0 0-6.84.757-7.372 7.044 0 0-1.38-6.501-7.628-6.772Z" fill="#fff"/>
        <path d="M390.2 84.46s-.96-.16-2.52-.24c-.26 0-.54-.02-.84-.04-3.48-1.14-4.78-4.18-5.22-5.66-.02-1.56-.08-2.52-.16-2.52s-.16.96-.24 2.52c0 .22-.02.46-.04.7-.86 3.16-3.84 4.66-5.22 5.2-.16 0-.32.02-.46.04-1.54.14-2.5.26-2.5.34 0 .08.98.1 2.52.08.3 0 .64 0 1-.02 3 .7 4.34 3.3 4.86 4.7.02.42.06.8.1 1.16.14 1.56.26 2.52.34 2.5.08 0 .1-.98.08-2.52 0-.42-.02-.86-.04-1.36.78-3.12 3.56-4.28 5.04-4.68 2.02-.04 3.32-.08 3.32-.18l-.02-.02ZM57 158.756s-1.674-.279-4.395-.419c-.454 0-.942-.035-1.465-.07-6.07-1.988-8.338-7.29-9.105-9.872-.035-2.721-.14-4.395-.28-4.395-.139 0-.278 1.674-.418 4.395 0 .384-.035.803-.07 1.221-1.5 5.512-6.697 8.128-9.104 9.07-.28 0-.558.035-.802.07-2.687.244-4.361.453-4.361.593 0 .139 1.71.174 4.395.139.524 0 1.117 0 1.744-.035 5.233 1.221 7.57 5.756 8.477 8.198.035.733.105 1.396.175 2.023.244 2.721.453 4.396.593 4.361.14 0 .174-1.709.14-4.395 0-.733-.036-1.5-.07-2.373 1.36-5.441 6.209-7.465 8.79-8.162 3.523-.07 5.79-.14 5.79-.314l-.034-.035Z" fill="#517BCF"/>
        <g clip-path="url(#s)">
            <path d="M802 264.756s-1.674-.279-4.395-.419c-.454 0-.942-.035-1.465-.07-6.07-1.988-8.338-7.29-9.105-9.872-.035-2.721-.14-4.395-.279-4.395-.14 0-.279 1.674-.419 4.395 0 .384-.035.803-.07 1.221-1.5 5.512-6.697 8.128-9.104 9.07-.279 0-.558.035-.803.07-2.686.244-4.36.453-4.36.593 0 .139 1.709.174 4.395.139.524 0 1.117 0 1.745-.035 5.232 1.221 7.569 5.756 8.476 8.198.035.733.105 1.396.175 2.023.244 2.721.453 4.396.593 4.361.139 0 .174-1.709.139-4.395 0-.733-.035-1.5-.07-2.373 1.361-5.441 6.21-7.465 8.791-8.162 3.523-.07 5.791-.14 5.791-.314l-.035-.035Z" fill="#517BCF"/>
        </g>
        <path d="m69 63.278 7.194 4.11m0 0L87.5 73.557m-11.306-6.167L69 69.444m7.194-2.055-1.027-7.195M106 83.834l-7.194-4.112m0 0L87.5 73.556m11.306 6.166 1.027 7.195m-1.027-7.195L106 77.667m-18.5-4.111-11.306 6.166M87.5 73.556v-14.39m0 14.39v13.36m0-13.36 11.306-6.167M76.194 79.722 69 83.833m7.194-4.11L69 77.666m7.194 2.055-1.027 7.195M87.5 59.167V53m0 6.167-5.139-2.056m5.139 2.056 5.139-2.056M87.5 86.917v7.194m0-7.194L92.639 90M87.5 86.917 82.361 90m16.445-22.611L106 63.278m-7.194 4.11L106 69.445m-7.194-2.055 1.027-7.195M978 2.278l7.194 4.11m0 0 11.306 6.168m-11.306-6.167L978 8.444m7.194-2.055-1.027-7.195M1015 22.834l-7.19-4.112m0 0-11.31-6.166m11.31 6.166 1.02 7.195m-1.02-7.195 7.19-2.055m-18.5-4.111-11.306 6.166m11.306-6.166v-14.39m0 14.39v13.36m0-13.36 11.31-6.167m-22.616 12.333L978 22.833m7.194-4.11L978 16.666m7.194 2.055-1.027 7.195M996.5-1.833V-8m0 6.167-5.139-2.056m5.139 2.056 5.14-2.056m-5.14 29.806v7.194m0-7.194 5.14 3.083m-5.14-3.083L991.361 29m16.449-22.611 7.19-4.111m-7.19 4.11 7.19 2.056m-7.19-2.055 1.02-7.195M402-10.722l7.194 4.11m0 0L420.5-.443m-11.306-6.167L402-4.556m7.194-2.055-1.027-7.195M439 9.834l-7.194-4.112m0 0L420.5-.444m11.306 6.166 1.027 7.195m-1.027-7.195L439 3.667M420.5-.444l-11.306 6.166M420.5-.444v-14.39m0 14.39v13.36m0-13.36 11.306-6.167M409.194 5.722 402 9.833m7.194-4.11L402 3.666m7.194 2.055-1.027 7.195m12.333-27.75V-21m0 6.167-5.139-2.056m5.139 2.056 5.139-2.056M420.5 12.917v7.194m0-7.194L425.639 16m-5.139-3.083L415.361 16m16.445-22.611L439-10.722m-7.194 4.11L439-4.555m-7.194-2.055 1.027-7.195" stroke="#fff" stroke-width="2" stroke-linecap="round" stroke-linejoin="round"/>
        <path d="m635.625 70.847 5.396 3.084m0 0 8.479 4.625m-8.479-4.625-5.396 1.541m5.396-1.541-.771-5.396m23.125 17.729-5.396-3.083m0 0-8.479-4.625m8.479 4.625.771 5.395m-.771-5.395 5.396-1.542M649.5 78.556l-8.479 4.625m8.479-4.625V67.764m0 10.792v10.02m0-10.02 8.479-4.625m-16.958 9.25-5.396 3.083m5.396-3.083-5.396-1.542m5.396 1.542-.771 5.395m9.25-20.812v-4.625m0 4.625-3.854-1.542m3.854 1.542 3.854-1.542M649.5 88.576v5.396m0-5.396 3.854 2.313m-3.854-2.313-3.854 2.313m12.333-16.958 5.396-3.084m-5.396 3.084 5.396 1.541m-5.396-1.541.771-5.396" stroke="#fff" stroke-width="1.5" stroke-linecap="round" stroke-linejoin="round"/>
        <path d="m436.25 125.417 3.597 2.055m0 0 5.653 3.084m-5.653-3.084-3.597 1.028m3.597-1.028-.514-3.597m15.417 11.819-3.597-2.055m0 0-5.653-3.083m5.653 3.083.514 3.597m-.514-3.597 3.597-1.028m-9.25-2.055-5.653 3.083m5.653-3.083v-7.195m0 7.195v6.68m0-6.68 5.653-3.084m-11.306 6.167-3.597 2.055m3.597-2.055-3.597-1.028m3.597 1.028-.514 3.597m6.167-13.875v-3.083m0 3.083-2.569-1.028m2.569 1.028 2.569-1.028m-2.569 14.903v3.597m0-3.597 2.569 1.542m-2.569-1.542-2.569 1.542m8.222-11.306 3.597-2.055m-3.597 2.055 3.597 1.028m-3.597-1.028.514-3.597" stroke="#fff" stroke-linecap="round" stroke-linejoin="round"/>
        <path d="m908 118.278 7.194 4.111m0 0 11.306 6.167m-11.306-6.167L908 124.444m7.194-2.055-1.027-7.195M945 138.833l-7.194-4.111m0 0-11.306-6.166m11.306 6.166 1.027 7.195m-1.027-7.195 7.194-2.055m-18.5-4.111-11.306 6.166m11.306-6.166v-14.389m0 14.389v13.361m0-13.361 11.306-6.167m-22.612 12.333L908 138.833m7.194-4.111L908 132.667m7.194 2.055-1.027 7.195m12.333-27.75V108m0 6.167-5.139-2.056m5.139 2.056 5.139-2.056m-5.139 29.806v7.194m0-7.194 5.139 3.083m-5.139-3.083L921.361 145m16.445-22.611 7.194-4.111m-7.194 4.111 7.194 2.055m-7.194-2.055 1.027-7.195" stroke="#fff" stroke-width="2" stroke-linecap="round" stroke-linejoin="round"/>
    </g>
    <defs>
        <linearGradient id="b" x1="512" y1="0" x2="512" y2="600" gradientUnits="userSpaceOnUse">
            <stop stop-color="#5186FA"/>
            <stop offset=".693" stop-color="#91C9DD"/>
            <stop offset="1" stop-color="#DBEEF5"/>
        </linearGradient>
        <linearGradient id="c" x1="262.5" y1="174.473" x2="472.5" y2="288.973" gradientUnits="userSpaceOnUse">
            <stop stop-color="#fff"/>
            <stop offset="1" stop-color="#fff" stop-opacity="0"/>
        </linearGradient>
        <linearGradient id="d" x1="766.829" y1="126.744" x2="530.803" y2="168.855" gradientUnits="userSpaceOnUse">
            <stop stop-color="#fff"/>
            <stop offset="1" stop-color="#fff" stop-opacity="0"/>
        </linearGradient>
        <linearGradient id="e" x1="194.602" y1="385.457" x2="485.972" y2="304.6" gradientUnits="userSpaceOnUse">
            <stop stop-color="#fff"/>
            <stop offset="1" stop-color="#fff" stop-opacity="0"/>
        </linearGradient>
        <linearGradient id="f" x1="849.96" y1="436.794" x2="543.351" y2="273.72" gradientUnits="userSpaceOnUse">
            <stop stop-color="#fff"/>
            <stop offset="1" stop-color="#fff" stop-opacity="0"/>
        </linearGradient>
        <linearGradient id="h" x1="512.381" y1="190" x2="512.381" y2="410.763" gradientUnits="userSpaceOnUse">
            <stop stop-color="#06F"/>
            <stop offset="1" stop-color="#06F"/>
        </linearGradient>
        <linearGradient id="j" x1="236.597" y1="140.205" x2="269.501" y2="160.444" gradientUnits="userSpaceOnUse">
            <stop offset=".21" stop-color="#F15A24"/>
            <stop offset=".684" stop-color="#FBB03B"/>
        </linearGradient>
        <linearGradient id="k" x1="224.395" y1="177.621" x2="191.492" y2="157.382" gradientUnits="userSpaceOnUse">
            <stop offset=".21" stop-color="#ED1E79"/>
            <stop offset=".893" stop-color="#522785"/>
        </linearGradient>
        <linearGradient id="p" x1="763.342" y1="435.311" x2="841.733" y2="382.103" gradientUnits="userSpaceOnUse">
            <stop offset=".08" stop-color="#9945FF"/>
            <stop offset=".3" stop-color="#8752F3"/>
            <stop offset=".5" stop-color="#5497D5"/>
            <stop offset=".6" stop-color="#43B4CA"/>
            <stop offset=".72" stop-color="#28E0B9"/>
            <stop offset=".97" stop-color="#19FB9B"/>
        </linearGradient>
        <clipPath id="a">
            <rect width="1024" height="600" rx="32" fill="#fff"/>
        </clipPath>
        <clipPath id="i">
            <path fill="#fff" transform="rotate(-15 517.543 -531.399)" d="M0 0h123.223v123.223H0z"/>
        </clipPath>
        <clipPath id="l">
            <path fill="#fff" transform="rotate(-15 669.06 -2732.393)" d="M0 0h103.027v103.027H0z"/>
        </clipPath>
        <clipPath id="m">
            <path fill="#fff" transform="rotate(-15 719.25 -2855.104)" d="M0 0h42.61v69.393H0z"/>
        </clipPath>
        <clipPath id="n">
            <path fill="#fff" transform="rotate(7.616 -2754.275 1467.702)" d="M0 0h130v130H0z"/>
        </clipPath>
        <clipPath id="o">
            <path d="M742.53 393.307c9.072-33.859 43.875-53.952 77.733-44.88 33.859 9.072 53.952 43.875 44.88 77.734-9.073 33.858-43.875 53.952-77.734 44.879-33.858-9.072-53.952-43.875-44.879-77.733Z" fill="#fff"/>
        </clipPath>
        <clipPath id="q">
            <path fill="#fff" transform="translate(72 215)" d="M0 0h15v15H0z"/>
        </clipPath>
        <clipPath id="r">
            <path fill="#fff" transform="translate(789 38)" d="M0 0h15v15H0z"/>
        </clipPath>
        <clipPath id="s">
            <path fill="#fff" transform="translate(772 250)" d="M0 0h30v30H0z"/>
        </clipPath>
        <filter id="g" x="322" y="110" width="380.763" height="380.763" filterUnits="userSpaceOnUse" color-interpolation-filters="sRGB">
            <feFlood flood-opacity="0" result="BackgroundImageFix"/>
            <feColorMatrix in="SourceAlpha" values="0 0 0 0 0 0 0 0 0 0 0 0 0 0 0 0 0 0 127 0" result="hardAlpha"/>
            <feOffset/>
            <feGaussianBlur stdDeviation="40"/>
            <feComposite in2="hardAlpha" operator="out"/>
            <feColorMatrix values="0 0 0 0 0 0 0 0 0 0.4 0 0 0 0 1 0 0 0 0.25 0"/>
            <feBlend in2="BackgroundImageFix" result="effect1_dropShadow_5238_19504"/>
            <feColorMatrix in="SourceAlpha" values="0 0 0 0 0 0 0 0 0 0 0 0 0 0 0 0 0 0 127 0" result="hardAlpha"/>
            <feOffset dy="4"/>
            <feGaussianBlur stdDeviation="4"/>
            <feComposite in2="hardAlpha" operator="out"/>
            <feColorMatrix values="0 0 0 0 0 0 0 0 0 0 0 0 0 0 0 0 0 0 0.14 0"/>
            <feBlend in2="effect1_dropShadow_5238_19504" result="effect2_dropShadow_5238_19504"/>
            <feBlend in="SourceGraphic" in2="effect2_dropShadow_5238_19504" result="shape"/>
        </filter>
    </defs>
</svg>
