<svg xmlns="http://www.w3.org/2000/svg" xmlns:xlink="http://www.w3.org/1999/xlink" width="1024" height="600" fill="none">
  <defs>
    <path id="reuse-0" fill="#fff" d="M0 0h124v124H0z"/>
  </defs>
  <g clip-path="url(#a)">
    <rect width="1024" height="600" fill="#E8F1FF" rx="40"/>
    <circle cx="512" cy="300" r="209" stroke="#fff" stroke-width="2" opacity=".5"/>
    <circle cx="512" cy="300" r="319" stroke="#fff" stroke-width="2" opacity=".5"/>
    <circle cx="512" cy="300" r="429" stroke="#fff" stroke-width="2" opacity=".5"/>
    <path fill="url(#b)" d="M518.5 302.5 228.5 164l72-78 218 216.5Z" opacity=".6"/>
    <path fill="url(#c)" d="M520.5 303.5 767 93.5004 822 180.5l-301.5 123Z" opacity=".6"/>
    <path fill="url(#d)" d="M510.5 298.499 265 460l-45.5-86.5 291-75.001Z" opacity=".6"/>
    <path fill="url(#e)" d="M522.5 311.5 794 410l-55.5 82-216-180.5Z" opacity=".6"/>
    <g filter="url(#f)" opacity=".5">
      <circle cx="512" cy="300" r="110" fill="url(#g)"/>
    </g>
    <circle cx="512" cy="300" r="110" fill="url(#h)"/>
    <path fill="#fff" fill-rule="evenodd" d="m521.603 356.513-3.447 12.864c-.238.887-1.117 1.443-2.019 1.272-4.937-.937-9.955-2.025-15.031-3.228-.963-.228-1.545-1.208-1.289-2.165l3.2-11.943a185.19 185.19 0 0 1-4.93-1.241c-1.489-.402-2.962-.818-4.419-1.249l-3.198 11.938c-.257.956-1.249 1.514-2.197 1.231-4.999-1.491-9.89-3.052-14.636-4.701-.868-.302-1.353-1.224-1.115-2.112l3.432-12.808c-25.141-11.262-40.575-29.34-32.538-58.87l1.939-7.237c7.821-29.651 30.217-37.556 57.616-34.722l3.43-12.801c.238-.888 1.119-1.444 2.022-1.271 4.935.945 9.95 2.039 15.025 3.247.962.229 1.543 1.208 1.287 2.164l-3.199 11.938c1.477.355 2.961.731 4.451 1.127 1.651.443 3.283.903 4.893 1.382l3.198-11.934c.256-.956 1.25-1.514 2.198-1.23 4.997 1.496 9.887 3.062 14.632 4.719.867.303 1.35 1.224 1.112 2.111l-3.439 12.833c24.809 11.248 39.873 29.298 32.003 58.671l-1.939 7.237c-7.754 29.399-29.918 37.427-57.042 34.778Zm38.788-41.431 1.091-4.072c7.615-26.929-13.688-37.928-40.194-45.427-26.828-6.792-50.777-7.918-57.646 19.21l-1.091 4.073c-7.648 27.052 13.655 38.051 40.285 45.583 26.704 6.759 50.653 7.885 57.555-19.367Z" clip-rule="evenodd"/>
    <g clip-path="url(#i)">
      <circle cx="262.934" cy="121.934" r="61.75" fill="#fff" stroke="#DBD9D6" stroke-width=".5" transform="rotate(-15 262.934 121.934)"/>
      <path fill="url(#j)" d="M278.383 97.469c-4.463 1.196-8.729 4.74-12.69 10.531-1.88 2.745-3.387 5.549-4.486 7.765l.017.01-.004-.014s3.209 1.993 6.731 4.105c1.022-2.122 2.527-5.043 4.413-7.818 3.524-5.15 6.282-6.777 7.988-7.234 6.418-1.72 12.966 1.867 14.607 7.99 1.63 6.083-2.261 12.466-8.656 14.223-.291.078-.676.137-1.173.169 2.083.286 4.246.317 6.159-.195 11.756-3.15 12.045-11.275 12.052-11.859-.021-1.464-.226-2.952-.623-4.432-2.721-10.156-13.646-16.105-24.335-13.241Z"/>
      <path fill="url(#k)" d="M247.218 145.402c4.464-1.197 8.729-4.741 12.69-10.531 1.88-2.745 3.387-5.55 4.487-7.766l-.018-.01.004.014s-3.208-1.993-6.731-4.105c-1.022 2.122-2.527 5.043-4.413 7.819-3.524 5.149-6.282 6.776-7.987 7.233-6.423 1.706-12.97-1.88-14.611-8.003-1.63-6.083 2.261-12.466 8.655-14.223.291-.078.676-.138 1.173-.169-2.082-.286-4.245-.318-6.158.195-11.756 3.15-12.032 11.271-12.056 11.845.024 1.478.226 2.952.623 4.432 2.728 10.183 13.653 16.133 24.342 13.269Z"/>
      <path fill="#29ABE2" d="M291.22 126.845c-6.057 1.462-13.554-1.506-15.138-2.318-4.1-2.103-13.876-8.142-14.642-8.621-7.214-4.63-16.603-9.448-24.117-7.435l-.014.004-.014.003c-9.111 2.485-15.154 10.595-15.041 19.223.01-.57.967-9.034 12.074-11.719 6.057-1.463 13.599 1.566 15.198 2.374 4.1 2.103 13.875 8.142 14.642 8.621 7.21 4.616 16.599 9.435 24.113 7.422l.014-.004.014-.004c9.111-2.485 15.168-10.598 15.041-19.223-.024.574-1.013 8.974-12.13 11.677Z"/>
    </g>
    <g clip-path="url(#l)">
      <circle cx="793.934" cy="135.934" r="62" fill="#627EEA" transform="rotate(15 793.934 135.934)"/>
      <g clip-path="url(#m)">
        <path fill="#C1CCF6" d="m804.44 95.958-1.034 1.6934-14.293 53.3426.397.685 28.682-8.002-13.752-47.719Z"/>
        <path fill="#fff" d="m804.44 95.958-35.77 34.45 20.84 21.271 6.937-25.891 7.993-29.83Z"/>
        <path fill="#C1CCF6" d="m788.253 156.367-.404.29-5.092 19.001.067.972 34.125-28.253-28.696 7.99Z"/>
        <path fill="#fff" d="m782.824 176.631 5.43-20.264-20.842-21.263 15.412 41.527Z"/>
        <path fill="#8198EE" d="m789.51 151.679 28.682-8.001-21.745-17.89-6.937 25.891Z"/>
        <path fill="#C1CCF6" d="m768.67 130.408 20.84 21.271 6.937-25.891-27.777 4.62Z"/>
      </g>
    </g>
    <g clip-path="url(#n)">
      <path fill="#F7931A" d="M301.297 438.508c-12.611 31.824-48.638 47.4-80.469 34.787-31.818-12.609-47.397-48.635-34.783-80.455 12.608-31.828 48.635-47.406 80.457-34.797 31.829 12.611 47.406 48.64 34.794 80.465h.001Z"/>
      <path fill="#fff" d="M271.942 410.539c2.317-8.015-3.322-13.243-11.445-17.314l4.244-10.709-6.519-2.582-4.132 10.427c-1.714-.68-3.479-1.34-5.233-1.995l4.16-10.495-6.515-2.582-4.245 10.705c-1.422-.53-2.819-1.053-4.171-1.588l.013-.034-8.99-3.565-2.757 6.962s4.85 1.816 4.735 1.873c2.64 1.046 2.892 2.92 2.618 4.342l-4.834 12.199c.182.073.417.175.671.319-.217-.086-.448-.179-.689-.271l-6.774 17.089c-.445.785-1.459 1.917-3.305 1.189.055.107-4.738-1.879-4.738-1.879l-4.381 7.272 8.484 3.361c1.578.627 3.121 1.27 4.643 1.883l-4.289 10.832 6.511 2.581 4.247-10.716c1.773.745 3.497 1.445 5.188 2.113l-4.23 10.665 6.52 2.583 4.286-10.811c11.209 3.714 19.974 3.993 25.004-5.921 4.053-7.982 1.62-13.224-4.009-17.183 4.542-.427 8.249-2.881 9.935-8.749l-.002-.002-.001.001Zm-18.298 19.544c-3.204 8.096-16.699 1.683-21.119-.063l5.689-14.35c4.418 1.753 18.776 5.971 15.431 14.413h-.001Zm4.991-21.447c-2.919 7.363-14.138 1.924-17.818.466l5.158-13.015c3.68 1.458 15.703 4.869 12.661 12.549h-.001Z"/>
    </g>
    <g clip-path="url(#o)">
      <path fill="#000" d="M824.148 483.988c-16.596 29.939-54.326 40.756-84.273 24.157-29.933-16.593-40.753-54.322-24.154-84.258 16.593-29.944 54.323-40.762 84.261-24.168 29.944 16.596 40.762 54.329 24.165 84.269h.001Z"/>
      <path fill="url(#p)" d="m801.206 481.769-15.502 9.409c-.337.204-.715.338-1.109.393-.394.055-.796.029-1.182-.074l-57.415-15.384a1.4868 1.4868 0 0 1-.711-.431c-.189-.208-.314-.465-.357-.739-.044-.274-.005-.553.112-.804.117-.25.307-.461.546-.606l15.511-9.406c.336-.204.712-.338 1.105-.393.393-.055.795-.031 1.18.072l57.411 15.383c.274.074.521.223.711.431.19.208.314.464.358.739.043.274.004.553-.113.804-.117.25-.306.461-.545.606Zm-5.284-28.727c-.19-.345-.45-.65-.763-.894a2.9683 2.9683 0 0 0-1.061-.527l-57.415-15.385a1.4863 1.4863 0 0 0-.831.018 1.428 1.428 0 0 0-.679.461c-.175.215-.281.477-.305.752-.024.276.035.553.17.798l8.73 15.902c.189.344.448.648.761.892.312.245.672.424 1.057.528l57.411 15.383c.274.074.563.068.831-.017s.504-.245.68-.461c.174-.215.28-.477.304-.752.024-.276-.035-.553-.169-.798l-8.721-15.9Zm-57.037-25.024 57.415 15.384c.386.103.788.128 1.182.073.394-.054.772-.188 1.109-.393l15.502-9.408c.239-.145.428-.356.545-.607.117-.25.156-.53.113-.804-.044-.274-.168-.53-.358-.738-.19-.208-.437-.358-.711-.431l-57.411-15.383a2.9745 2.9745 0 0 0-1.18-.072c-.393.055-.769.189-1.105.393l-15.508 9.407c-.239.145-.429.355-.545.605-.117.251-.157.53-.113.804.043.273.167.53.356.738.189.208.436.358.709.432Z"/>
    </g>
  </g>
  <defs>
    <linearGradient id="b" x1="373.5" x2="373.5" y1="86" y2="302.5" gradientUnits="userSpaceOnUse">
      <stop stop-color="#fff"/>
      <stop offset="1" stop-color="#fff"/>
    </linearGradient>
    <linearGradient id="c" x1="761.346" x2="604.617" y1="274.434" y2="173.231" gradientUnits="userSpaceOnUse">
      <stop stop-color="#fff"/>
      <stop offset="1" stop-color="#fff"/>
    </linearGradient>
    <linearGradient id="d" x1="310.33" x2="402.036" y1="292.468" y2="395.263" gradientUnits="userSpaceOnUse">
      <stop stop-color="#fff"/>
      <stop offset="1" stop-color="#fff"/>
    </linearGradient>
    <linearGradient id="e" x1="666.094" x2="654.954" y1="496.194" y2="303.829" gradientUnits="userSpaceOnUse">
      <stop stop-color="#fff"/>
      <stop offset="1" stop-color="#fff"/>
    </linearGradient>
    <linearGradient id="g" x1="512" x2="512" y1="190" y2="410" gradientUnits="userSpaceOnUse">
      <stop stop-color="#06F"/>
      <stop offset="1" stop-color="#06F"/>
    </linearGradient>
    <linearGradient id="h" x1="512" x2="512" y1="190" y2="410" gradientUnits="userSpaceOnUse">
      <stop stop-color="#06F"/>
      <stop offset="1" stop-color="#06F"/>
    </linearGradient>
    <linearGradient id="j" x1="268.94" x2="302.051" y1="102.609" y2="122.976" gradientUnits="userSpaceOnUse">
      <stop offset=".21" stop-color="#F15A24"/>
      <stop offset=".6841" stop-color="#FBB03B"/>
    </linearGradient>
    <linearGradient id="k" x1="256.661" x2="223.55" y1="140.261" y2="119.895" gradientUnits="userSpaceOnUse">
      <stop offset=".21" stop-color="#ED1E79"/>
      <stop offset=".8929" stop-color="#522785"/>
    </linearGradient>
    <linearGradient id="p" x1="730.377" x2="806.953" y1="478.919" y2="426.943" gradientUnits="userSpaceOnUse">
      <stop offset=".08" stop-color="#9945FF"/>
      <stop offset=".3" stop-color="#8752F3"/>
      <stop offset=".5" stop-color="#5497D5"/>
      <stop offset=".6" stop-color="#43B4CA"/>
      <stop offset=".72" stop-color="#28E0B9"/>
      <stop offset=".97" stop-color="#19FB9B"/>
    </linearGradient>
    <clipPath id="a">
      <rect width="1024" height="600" fill="#fff" rx="40"/>
    </clipPath>
    <clipPath id="i">
      <use xlink:href="#reuse-0" transform="rotate(-15 390.0907 -671.1561)"/>
    </clipPath>
    <clipPath id="l">
      <use xlink:href="#reuse-0" transform="rotate(15 147.1744 2878.7648)"/>
    </clipPath>
    <clipPath id="m">
      <path fill="#fff" d="M0 0h51.2843v83.5194H0z" transform="rotate(15 50.601 3005.7866)"/>
    </clipPath>
    <clipPath id="n">
      <use xlink:href="#reuse-0" transform="rotate(7.616 -2503.801 1603.4743)"/>
    </clipPath>
    <clipPath id="o">
      <path fill="#fff" d="M710.047 437.887c8.862-33.074 42.859-52.703 75.934-43.84 33.075 8.862 52.703 42.859 43.841 75.934-8.863 33.075-42.86 52.703-75.935 43.841-33.075-8.863-52.703-42.86-43.84-75.935Z"/>
    </clipPath>
    <filter id="f" width="460" height="460" x="282" y="70.0005" color-interpolation-filters="sRGB" filterUnits="userSpaceOnUse">
      <feFlood flood-opacity="0" result="BackgroundImageFix"/>
      <feBlend in="SourceGraphic" in2="BackgroundImageFix" result="shape"/>
      <feGaussianBlur result="effect1_foregroundBlur_5948_17064" stdDeviation="60"/>
    </filter>
  </defs>
</svg>
