<svg width="416" height="143" viewBox="0 0 416 143" fill="none" xmlns="http://www.w3.org/2000/svg">
    <g clip-path="url(#clip0_2391_1848)">
        <rect width="416" height="142.843" rx="8" fill="#03035C"/>
        <g clip-path="url(#clip1_2391_1848)">
            <rect width="369.323" height="206.839" transform="translate(-164.145 -33.8313)" fill="url(#paint0_linear_2391_1848)"/>
            <rect width="372.491" height="206.839" transform="translate(-164.145 -33.8313)" fill="url(#paint1_linear_2391_1848)"/>
            <path d="M274.139 -9.32861C296.946 -11.7839 278.514 -21.291 227.101 -33.8314H225.052C269.793 -23.2948 286.96 -15.2135 269.023 -12.6922C243.425 -9.08087 148.404 -17.0907 37.9469 -33.8314H30.6645C143.811 -15.4116 243.934 -6.07515 274.139 -9.32861ZM113.678 173.007C185.151 161.201 244.239 151.26 294.388 142.666V135.825C234.384 146.065 161.53 158.175 69.9692 173.007H113.678ZM278.907 -5.51913C308.138 -7.92482 290.216 -19.0229 233.279 -33.8314H230.677C281.407 -21.2029 298.908 -11.6517 275.36 -9.10287C243.803 -5.69527 140.904 -15.0483 24.1379 -33.8314H15.4383C134.334 -13.2592 242.32 -2.49689 278.907 -5.51913ZM294.388 173.007V169.875C289.111 170.903 283.718 171.947 278.238 173.007H294.388ZM6.0976 173.007C128.563 154.304 221.083 139.721 294.388 127.788V122.081C213.568 135.293 109.143 151.646 -33.0154 173.007H6.0976ZM222.043 173.007C248.106 168.297 272.133 163.927 294.388 159.847V151.62C259.182 157.982 219.586 165.048 174.409 173.007H222.043ZM-98.271 173.007C77.9785 147.889 201.751 129.395 294.388 114.835V110.073C195.951 125.727 61.8148 145.704 -133.027 173.007H-98.271ZM-251.763 167.848C9.15298 134.871 177.723 111.497 294.388 93.5965V90.2577C178.13 108.472 8.70093 131.862 -251.763 163.778V167.848ZM-251.763 147.319C8.40875 118.086 179.264 95.3482 294.388 77.1519V74.7319C180.034 93.1517 7.49738 115.502 -251.763 142.107V147.319ZM-197.769 173.007C32.7867 142.164 185.529 120.302 294.388 103.521V99.5381C180.776 117.355 18.3091 140.527 -230.26 173.007H-197.769ZM-251.763 157.091C8.88699 125.836 178.377 102.832 294.388 84.87V82.0415C178.93 100.308 8.24161 123.194 -251.763 152.786V157.091ZM194.73 -33.1543C194.512 -33.369 194.134 -33.5947 193.611 -33.8314H186.59C185.311 -31.4753 158.812 -31.3597 119.914 -33.8314H115.045C164.336 -30.088 198.015 -29.9284 194.73 -33.1543ZM204.309 -31.3707C204.033 -32.0588 202.027 -32.8956 198.582 -33.8314H194.207C194.803 -33.5727 195.224 -33.325 195.457 -33.0882C198.844 -29.7027 164.321 -29.7852 113.519 -33.6387C112.69 -33.6993 111.876 -33.7709 111.048 -33.8314H107.065C108.344 -33.7213 109.608 -33.6057 110.888 -33.4956C166.371 -28.7448 205.69 -28.0071 204.309 -31.3707ZM171.487 -33.8314H137.895C153.201 -33.2699 164.917 -33.2919 171.487 -33.8314ZM185.82 -33.8314H173.755C166.807 -33.0112 151.893 -32.9671 131.776 -33.8314H124.348C159.801 -31.668 183.915 -31.756 185.82 -33.8314ZM214.077 -29.3834C214.368 -30.4954 210.094 -32.0313 202.158 -33.8314H199.338C202.797 -32.8736 204.803 -32.0093 205.08 -31.2991C206.519 -27.7649 166.24 -28.4365 109.143 -33.303C107.123 -33.4736 105.117 -33.6553 103.111 -33.8314H99.3898C101.57 -33.6222 103.736 -33.4075 105.916 -33.1983C167.868 -27.319 213.176 -25.9152 214.077 -29.3834ZM223.889 -27.1869C225.372 -28.6567 218.438 -31.0074 205.08 -33.8314H203.204C211.039 -32.0038 215.226 -30.4403 214.92 -29.2953C213.961 -25.651 167.461 -26.9997 103.707 -33.0222C100.916 -33.2864 98.1542 -33.5617 95.3924 -33.8314H91.7003C94.3603 -33.5452 97.0204 -33.2644 99.6949 -32.9836C168.478 -25.8161 220.328 -23.6361 223.889 -27.1869ZM260.417 -16.2099C273.151 -18.5715 256.493 -25.2546 217.537 -33.8314H216.214C248.106 -26.9116 262.307 -21.4341 253.135 -19.1385C237.974 -15.3401 160.803 -20.6414 66.2917 -33.0993C64.4602 -33.3415 62.6432 -33.5892 60.8117 -33.8314H55.4772C56.3493 -33.7048 57.2069 -33.5782 58.0936 -33.4516C157.577 -19.2486 241.216 -12.6536 260.417 -16.2099ZM252.059 -19.2927C260.97 -21.5167 246.23 -26.9557 213.83 -33.8314H212.667C238.076 -28.4365 250.024 -24.104 244.065 -22.0121C233.279 -18.1972 164.714 -22.3039 78.4727 -32.8405C75.7836 -33.1708 73.1235 -33.5011 70.478 -33.8314H65.7685C67.6727 -33.5727 69.5914 -33.3194 71.5101 -33.0662C162.882 -20.9497 237.64 -15.6869 252.059 -19.2927ZM267.86 -12.8903C285.215 -15.329 267.307 -23.3664 221.941 -33.8314H220.299C258.717 -25.194 274.691 -18.4724 261.551 -16.0337C241.375 -12.2903 154.815 -18.9568 51.7268 -33.5892C51.1744 -33.6718 50.6221 -33.7543 50.0552 -33.8314H43.863C150.919 -17.4485 243.352 -9.44418 267.86 -12.8903ZM243.047 -22.1498C248.818 -24.1756 236.477 -28.4805 210.647 -33.8314H209.469C228.555 -29.7962 237.96 -26.4877 234.558 -24.6601C227.523 -20.8726 166.938 -23.9279 88.5606 -32.769C85.4645 -33.1213 82.3975 -33.4736 79.3159 -33.8314H75.115C77.6442 -33.5121 80.188 -33.1983 82.7463 -32.8846C166.298 -22.6232 232.785 -18.522 243.047 -22.1498ZM233.599 -24.7812C236.898 -26.5593 227.232 -29.8293 207.812 -33.8314H206.417C219.572 -30.9798 226.316 -28.5962 224.79 -27.0823C221.04 -23.3499 167.766 -25.4968 96.8896 -32.8405C93.7498 -33.1653 90.6246 -33.4956 87.514 -33.8314H83.6911C86.4674 -33.5066 89.2583 -33.1818 92.0492 -32.868C168.042 -24.2472 226.912 -21.1754 233.599 -24.7812ZM-251.763 115.829C4.01604 99.0889 183.538 78.0724 294.388 58.6914V56.8252C182.157 76.1137 0.637924 94.4305 -251.763 102.992V115.829ZM240.591 -33.8314H237.393C270.462 -25.106 289.605 -17.8339 294.388 -12.8683V-14.8997C285.201 -19.9588 267.307 -26.3997 240.591 -33.8314ZM-58.9734 -33.8314H-78.7246C57.4104 -3.34465 202.434 14.2769 274.226 12.5759C281.872 12.3942 288.573 12.0144 294.388 11.4694V7.14793C290.506 7.48926 286.175 7.74796 281.364 7.9131C217.9 10.1096 79.185 -5.58519 -58.9734 -33.8314ZM280.157 -5.27141C242 -2.10602 130.962 -12.8793 8.17038 -33.8314H-2.28093C121.818 -10.9856 238.09 1.30157 281.829 -1.44542C287.076 -1.77573 291.233 -2.29868 294.388 -2.98129V-8.4698C292.338 -6.99446 287.701 -5.89348 280.157 -5.27141ZM-32.5154 -33.8314H-48.2911C84.5777 -6.03659 219.092 9.65819 280.142 7.57178C285.506 7.39012 290.23 7.08737 294.388 6.66899V2.41362C291.233 2.76044 287.672 3.03017 283.675 3.21733C229.747 5.77167 101.032 -8.15602 -32.5154 -33.8314ZM-251.763 137.807C7.60785 111.302 180.47 88.8517 294.388 70.307V68.1876C181.575 86.7774 6.47696 108.381 -251.763 130.874V137.807ZM249.094 -33.8314H245.111C268.543 -27.1979 284.91 -21.3681 294.388 -16.6007V-17.5311C284.387 -22.2324 269.371 -27.7098 249.094 -33.8314ZM283.994 -33.8314H276.814C283.326 -31.4037 289.169 -29.0641 294.388 -26.8235V-29.3669C293.661 -29.6972 292.919 -30.0275 292.164 -30.3633C289.547 -31.5138 286.8 -32.6699 283.994 -33.8314ZM259.007 -33.8314H254.138C271.523 -28.4916 284.867 -23.6527 294.388 -19.3918V-20.4763C285.404 -24.517 273.674 -28.987 259.007 -33.8314ZM290.87 -33.8314C292.062 -33.336 293.239 -32.8405 294.388 -32.3451V-33.8314H290.87ZM271.639 -33.4516C271.305 -33.5782 270.941 -33.7048 270.592 -33.8314H264.633C276.508 -29.8293 286.407 -26.0914 294.388 -22.6452V-24.2802C287.919 -27.1649 280.375 -30.2256 271.639 -33.4516ZM-10.4602 -33.8314H-23.2111C105.567 -8.57991 230.619 5.3423 282.41 2.90907C287.018 2.69438 290.986 2.36407 294.388 1.93468V-2.39778C291.35 -1.86929 287.599 -1.4509 283.079 -1.16464C237.523 1.71449 117.952 -10.5837 -10.4602 -33.8314ZM-251.763 37.7943V60.497C-176.289 64.9451 -99.6096 67.3563 -25.0395 67.3067C115.699 67.2187 223.206 57.706 294.388 44.56V42.0773C242.102 50.6651 168.551 56.3518 73.9521 56.3077C-28.7477 56.2527 -142.66 49.5255 -251.763 37.7943ZM-251.763 62.4734V82.6514C-226.41 82.8937 -201.187 82.9608 -176.189 82.8375C37.2928 81.7883 196.14 67.1196 294.388 49.0081V46.8776C221.985 59.2474 114.536 68.1765 -26.3899 68.4078C-99.8073 68.5289 -175.927 66.437 -251.763 62.4734ZM-251.763 84.2506V101.268C0.242538 92.8627 183 73.7801 294.388 53.6763V51.7495C194.599 69.0188 35.7084 82.979 -179.528 84.2831C-203.36 84.4273 -227.462 84.4136 -251.763 84.2506ZM-251.763 127.641C6.42899 105.077 182.157 83.1161 294.388 64.1964V62.2641C182.942 81.0638 4.46375 101.48 -251.763 118.146V127.641ZM-251.763 11.8877V34.8491C-144.642 47.7474 -29.9861 55.2783 74.2428 55.4214C169.336 55.5535 243.003 49.4044 294.388 40.1615V37.2328C256.9 42.9581 206.431 46.5143 142.634 46.4757C23.8036 46.4042 -121.967 33.4839 -251.763 11.8877ZM-131.003 -33.8314H-163.694C-23.7489 2.55122 147.503 24.7144 247.611 23.8447C266.188 23.685 281.698 22.7987 294.388 21.3343V16.9854C285.957 17.7395 276.189 18.2295 264.967 18.4057C177.156 19.793 14.4338 0.0299377 -131.003 -33.8314ZM-181.31 -33.8314H-224.791C-84.4706 5.8102 104.187 30.7424 223.918 30.302C252.626 30.1974 275.985 28.7331 294.388 26.2668V22.083C281.727 23.3712 266.566 24.1639 248.687 24.3291C144.756 25.2924 -33.2887 3.11275 -181.31 -33.8314ZM-251.763 -13.1215V7.63785C-125.938 31.1883 21.6233 45.573 142.329 45.7381C206.897 45.8317 257.525 41.9341 294.388 35.6969V32.2783C267.802 35.9172 233.424 38.0971 190.776 38.1412C65.0853 38.2733 -109.5 18.7305 -251.763 -13.1215ZM-91.1397 -33.8314H-116.361C22.1902 -0.493042 179.264 19.2645 263.819 17.9708C275.651 17.7891 285.797 17.2386 294.388 16.3688V11.9978C288.806 12.4603 282.512 12.7906 275.447 12.9612C200.85 14.7669 51.0001 -2.8602 -91.1397 -33.8314ZM-246.399 -33.8314H-251.763V-18.6926C-115.733 15.8293 62.4543 37.5521 190.137 37.5136C233.57 37.4971 268.165 35.0859 294.388 31.0727V27.2082C275.84 29.4157 252.772 30.7314 224.834 30.8525C100.509 31.3865 -96.4961 6.43227 -246.399 -33.8314Z" fill="#03035C"/>
            <rect width="369.323" height="206.839" transform="translate(208.085 -33.8313)" fill="url(#paint2_linear_2391_1848)"/>
            <g clip-path="url(#clip2_2391_1848)">
                <path d="M646.369 -9.32861C669.176 -11.7839 650.744 -21.291 599.331 -33.8314H597.281C642.023 -23.2948 659.189 -15.2135 641.252 -12.6922C615.655 -9.08087 520.634 -17.0907 410.177 -33.8314H402.894C516.041 -15.4116 616.164 -6.07515 646.369 -9.32861ZM485.908 173.007C557.381 161.201 616.469 151.26 666.617 142.666V135.825C606.613 146.065 533.76 158.175 442.199 173.007H485.908ZM651.137 -5.51913C680.368 -7.92482 662.445 -19.0229 605.509 -33.8314H602.907C653.637 -21.2029 671.138 -11.6517 647.59 -9.10287C616.033 -5.69527 513.134 -15.0483 396.368 -33.8314H387.668C506.564 -13.2592 614.55 -2.49689 651.137 -5.51913ZM666.617 173.007V169.875C661.341 170.903 655.948 171.947 650.468 173.007H666.617ZM378.327 173.007C500.793 154.304 593.313 139.721 666.617 127.788V122.081C585.798 135.293 481.373 151.646 339.214 173.007H378.327ZM594.273 173.007C620.335 168.297 644.363 163.927 666.617 159.847V151.62C631.412 157.982 591.816 165.048 546.639 173.007H594.273ZM273.959 173.007C450.208 147.889 573.981 129.395 666.617 114.835V110.073C568.181 125.727 434.044 145.704 239.202 173.007H273.959ZM120.467 167.848C381.383 134.871 549.953 111.497 666.617 93.5965V90.2577C550.36 108.472 380.931 131.862 120.467 163.778V167.848ZM120.467 147.319C380.638 118.086 551.494 95.3482 666.617 77.1519V74.7319C552.264 93.1517 379.727 115.502 120.467 142.107V147.319ZM174.461 173.007C405.016 142.164 557.759 120.302 666.617 103.521V99.5381C553.005 117.355 390.539 140.527 141.969 173.007H174.461ZM120.467 157.091C381.117 125.836 550.607 102.832 666.617 84.87V82.0415C551.159 100.308 380.471 123.194 120.467 152.786V157.091ZM566.96 -33.1543C566.742 -33.369 566.364 -33.5947 565.841 -33.8314H558.82C557.541 -31.4753 531.042 -31.3597 492.144 -33.8314H487.275C536.565 -30.088 570.245 -29.9284 566.96 -33.1543ZM576.539 -31.3707C576.263 -32.0588 574.257 -32.8956 570.812 -33.8314H566.436C567.032 -33.5727 567.454 -33.325 567.687 -33.0882C571.074 -29.7027 536.551 -29.7852 485.748 -33.6387C484.92 -33.6993 484.106 -33.7709 483.277 -33.8314H479.294C480.574 -33.7213 481.838 -33.6057 483.117 -33.4956C538.6 -28.7448 577.92 -28.0071 576.539 -31.3707ZM543.717 -33.8314H510.125C525.431 -33.2699 537.147 -33.2919 543.717 -33.8314ZM558.049 -33.8314H545.985C539.036 -33.0112 524.123 -32.9671 504.005 -33.8314H496.577C532.03 -31.668 556.145 -31.756 558.049 -33.8314ZM586.307 -29.3834C586.598 -30.4954 582.324 -32.0313 574.388 -33.8314H571.568C575.027 -32.8736 577.033 -32.0093 577.309 -31.2991C578.748 -27.7649 538.47 -28.4365 481.373 -33.303C479.352 -33.4736 477.347 -33.6553 475.341 -33.8314H471.62C473.8 -33.6222 475.966 -33.4075 478.146 -33.1983C540.098 -27.319 585.406 -25.9152 586.307 -29.3834ZM596.119 -27.1869C597.601 -28.6567 590.668 -31.0074 577.309 -33.8314H575.434C583.269 -32.0038 587.455 -30.4403 587.15 -29.2953C586.191 -25.651 539.691 -26.9997 475.937 -33.0222C473.146 -33.2864 470.384 -33.5617 467.622 -33.8314H463.93C466.59 -33.5452 469.25 -33.2644 471.925 -32.9836C540.708 -25.8161 592.557 -23.6361 596.119 -27.1869ZM632.647 -16.2099C645.38 -18.5715 628.722 -25.2546 589.766 -33.8314H588.444C620.335 -26.9116 634.537 -21.4341 625.365 -19.1385C610.204 -15.3401 533.033 -20.6414 438.521 -33.0993C436.69 -33.3415 434.873 -33.5892 433.041 -33.8314H427.707C428.579 -33.7048 429.437 -33.5782 430.323 -33.4516C529.806 -19.2486 613.445 -12.6536 632.647 -16.2099ZM624.289 -19.2927C633.199 -21.5167 618.46 -26.9557 586.06 -33.8314H584.897C610.306 -28.4365 622.254 -24.104 616.294 -22.0121C605.509 -18.1972 536.943 -22.3039 450.702 -32.8405C448.013 -33.1708 445.353 -33.5011 442.708 -33.8314H437.998C439.902 -33.5727 441.821 -33.3194 443.74 -33.0662C535.112 -20.9497 609.869 -15.6869 624.289 -19.2927ZM640.089 -12.8903C657.445 -15.329 639.537 -23.3664 594.171 -33.8314H592.528C630.946 -25.194 646.921 -18.4724 633.781 -16.0337C613.605 -12.2903 527.044 -18.9568 423.957 -33.5892C423.404 -33.6718 422.852 -33.7543 422.285 -33.8314H416.093C523.149 -17.4485 615.582 -9.44418 640.089 -12.8903ZM615.277 -22.1498C621.048 -24.1756 608.707 -28.4805 582.877 -33.8314H581.699C600.785 -29.7962 610.189 -26.4877 606.788 -24.6601C599.753 -20.8726 539.167 -23.9279 460.79 -32.769C457.694 -33.1213 454.627 -33.4736 451.546 -33.8314H447.345C449.874 -33.5121 452.418 -33.1983 454.976 -32.8846C538.528 -22.6232 605.015 -18.522 615.277 -22.1498ZM605.829 -24.7812C609.128 -26.5593 599.462 -29.8293 580.042 -33.8314H578.647C591.801 -30.9798 598.546 -28.5962 597.02 -27.0823C593.27 -23.3499 539.996 -25.4968 469.119 -32.8405C465.98 -33.1653 462.854 -33.4956 459.744 -33.8314H455.921C458.697 -33.5066 461.488 -33.1818 464.279 -32.868C540.272 -24.2472 599.142 -21.1754 605.829 -24.7812ZM120.467 115.829C376.246 99.0889 555.767 78.0724 666.617 58.6914V56.8252C554.386 76.1137 372.868 94.4305 120.467 102.992V115.829ZM612.82 -33.8314H609.622C642.691 -25.106 661.835 -17.8339 666.617 -12.8683V-14.8997C657.431 -19.9588 639.537 -26.3997 612.82 -33.8314ZM313.256 -33.8314H293.505C429.64 -3.34465 574.664 14.2769 646.456 12.5759C654.102 12.3942 660.803 12.0144 666.617 11.4694V7.14793C662.736 7.48926 658.405 7.74796 653.593 7.9131C590.13 10.1096 451.415 -5.58519 313.256 -33.8314ZM652.387 -5.27141C614.23 -2.10602 503.191 -12.8793 380.4 -33.8314H369.949C494.048 -10.9856 610.32 1.30157 654.058 -1.44542C659.306 -1.77573 663.463 -2.29868 666.617 -2.98129V-8.4698C664.568 -6.99446 659.931 -5.89348 652.387 -5.27141ZM339.714 -33.8314H323.939C456.807 -6.03659 591.322 9.65819 652.372 7.57178C657.736 7.39012 662.46 7.08737 666.617 6.66899V2.41362C663.463 2.76044 659.902 3.03017 655.904 3.21733C601.977 5.77167 473.262 -8.15602 339.714 -33.8314ZM120.467 137.807C379.838 111.302 552.7 88.8517 666.617 70.307V68.1876C553.805 86.7774 378.707 108.381 120.467 130.874V137.807ZM621.324 -33.8314H617.341C640.773 -27.1979 657.14 -21.3681 666.617 -16.6007V-17.5311C656.617 -22.2324 641.601 -27.7098 621.324 -33.8314ZM656.224 -33.8314H649.043C655.555 -31.4037 661.399 -29.0641 666.617 -26.8235V-29.3669C665.891 -29.6972 665.149 -30.0275 664.393 -30.3633C661.777 -31.5138 659.03 -32.6699 656.224 -33.8314ZM631.237 -33.8314H626.368C643.752 -28.4916 657.096 -23.6527 666.617 -19.3918V-20.4763C657.634 -24.517 645.904 -28.987 631.237 -33.8314ZM663.1 -33.8314C664.292 -33.336 665.469 -32.8405 666.617 -32.3451V-33.8314H663.1ZM643.869 -33.4516C643.534 -33.5782 643.171 -33.7048 642.822 -33.8314H636.862C648.738 -29.8293 658.637 -26.0914 666.617 -22.6452V-24.2802C660.149 -27.1649 652.605 -30.2256 643.869 -33.4516ZM361.77 -33.8314H349.019C477.797 -8.57991 602.849 5.3423 654.64 2.90907C659.248 2.69438 663.216 2.36407 666.617 1.93468V-2.39778C663.579 -1.86929 659.829 -1.4509 655.308 -1.16464C609.753 1.71449 490.182 -10.5837 361.77 -33.8314ZM120.467 37.7943V60.497C195.941 64.9451 272.62 67.3563 347.19 67.3067C487.929 67.2187 595.435 57.706 666.617 44.56V42.0773C614.332 50.6651 540.781 56.3518 446.182 56.3077C343.482 56.2527 229.569 49.5255 120.467 37.7943ZM120.467 62.4734V82.6514C145.82 82.8937 171.042 82.9608 196.041 82.8375C409.523 81.7883 568.37 67.1196 666.617 49.0081V46.8776C594.214 59.2474 486.766 68.1765 345.84 68.4078C272.422 68.5289 196.303 66.437 120.467 62.4734ZM120.467 84.2506V101.268C372.472 92.8627 555.229 73.7801 666.617 53.6763V51.7495C566.829 69.0188 407.938 82.979 192.702 84.2831C168.869 84.4273 144.768 84.4136 120.467 84.2506ZM120.467 127.641C378.659 105.077 554.386 83.1161 666.617 64.1964V62.2641C555.171 81.0638 376.693 101.48 120.467 118.146V127.641ZM120.467 11.8877V34.8491C227.588 47.7474 342.244 55.2783 446.473 55.4214C541.566 55.5535 615.233 49.4044 666.617 40.1615V37.2328C629.129 42.9581 578.661 46.5143 514.863 46.4757C396.033 46.4042 250.263 33.4839 120.467 11.8877ZM241.227 -33.8314H208.536C348.481 2.55122 519.733 24.7144 619.841 23.8447C638.418 23.685 653.927 22.7987 666.617 21.3343V16.9854C658.187 17.7395 648.418 18.2295 637.197 18.4057C549.386 19.793 386.664 0.0299377 241.227 -33.8314ZM190.92 -33.8314H147.439C287.759 5.8102 476.416 30.7424 596.148 30.302C624.856 30.1974 648.215 28.7331 666.617 26.2668V22.083C653.957 23.3712 638.796 24.1639 620.917 24.3291C516.986 25.2924 338.941 3.11275 190.92 -33.8314ZM120.467 -13.1215V7.63785C246.291 31.1883 393.853 45.573 514.558 45.7381C579.126 45.8317 629.754 41.9341 666.617 35.6969V32.2783C640.031 35.9172 605.654 38.0971 563.006 38.1412C437.315 38.2733 262.73 18.7305 120.467 -13.1215ZM281.09 -33.8314H255.869C394.42 -0.493042 551.494 19.2645 636.049 17.9708C647.881 17.7891 658.027 17.2386 666.617 16.3688V11.9978C661.036 12.4603 654.742 12.7906 647.677 12.9612C573.079 14.7669 423.23 -2.8602 281.09 -33.8314ZM125.83 -33.8314H120.467V-18.6926C256.497 15.8293 434.684 37.5521 562.366 37.5136C605.799 37.4971 640.395 35.0859 666.617 31.0727V27.2082C648.07 29.4157 625.001 30.7314 597.063 30.8525C472.739 31.3865 275.734 6.43227 125.83 -33.8314Z" fill="#03035C"/>
            </g>
            <rect opacity="0.15" width="416" height="142.843" fill="#010104"/>
            <g filter="url(#filter0_f_2391_1848)">
                <ellipse cx="206.747" cy="74.5541" rx="113.298" ry="80.8193" fill="#03035C"/>
            </g>
        </g>
        <circle cx="170.868" cy="71.241" r="18" fill="url(#paint3_linear_2391_1848)"/>
        <path d="M177.112 65.241C175.748 65.241 174.259 65.9667 172.683 67.4057C171.932 68.0814 171.281 68.8072 170.806 69.3953C170.806 69.3953 171.569 70.2587 172.407 71.1847C172.858 70.6216 173.521 69.8583 174.272 69.1701C175.673 67.8937 176.587 67.631 177.112 67.631C179.077 67.631 180.678 69.2451 180.678 71.2472C180.678 73.2243 179.089 74.8385 177.112 74.8635C177.025 74.8635 176.9 74.851 176.774 74.826C177.35 75.0887 177.963 75.2764 178.551 75.2764C182.155 75.2764 182.856 72.8364 182.906 72.6612C183.006 72.2107 183.068 71.7477 183.068 71.2597C183.043 67.9313 180.391 65.241 177.112 65.241Z" fill="#C4C7F6"/>
        <path d="M164.524 77.241C165.888 77.241 167.377 76.5153 168.954 75.0763C169.704 74.4006 170.355 73.6748 170.831 73.0867C170.831 73.0867 170.067 72.2233 169.229 71.2973C168.779 71.8604 168.115 72.6237 167.365 73.3119C165.963 74.5883 165.05 74.851 164.524 74.851C162.56 74.851 160.958 73.2368 160.958 71.2348C160.958 69.2577 162.547 67.6435 164.524 67.6185C164.612 67.6185 164.737 67.631 164.862 67.656C164.286 67.3933 163.673 67.2056 163.085 67.2056C159.481 67.2056 158.781 69.6456 158.731 69.8208C158.63 70.2713 158.568 70.7342 158.568 71.2223C158.58 74.5382 161.246 77.241 164.524 77.241Z" fill="#C4C7F6"/>
        <path fill-rule="evenodd" clip-rule="evenodd" d="M163.098 67.2681C164.95 67.3181 166.877 68.8447 167.264 69.2201C168.187 70.1084 169.058 71.1003 169.216 71.2809C169.232 71.2987 169.24 71.3087 169.242 71.3098C170.08 72.2358 170.843 73.0992 170.843 73.0992L170.856 73.0866C172.57 75.0512 174.86 77.241 177.137 77.241C179.928 77.2285 182.28 75.2639 182.906 72.6237C182.843 72.8114 181.917 75.2764 178.539 75.1888C176.699 75.1388 174.772 73.6247 174.384 73.2493C173.371 72.2733 172.42 71.1721 172.42 71.1721C171.581 70.2462 170.818 69.3828 170.818 69.3828C170.806 69.3828 170.806 69.3953 170.806 69.3953C169.104 67.4182 166.814 65.241 164.537 65.241C161.746 65.2535 159.394 67.2055 158.768 69.8333C158.843 69.5204 159.807 67.193 163.098 67.2681ZM158.756 69.8458V69.8207C158.768 69.8333 158.768 69.8458 158.756 69.8458Z" fill="white"/>
        <path d="M214.329 75.5953C211.925 85.2382 202.159 91.1067 192.515 88.7021C182.875 86.298 177.006 76.5307 179.411 66.8885C181.814 57.2445 191.581 51.3756 201.222 53.7796C210.865 56.1836 216.734 65.952 214.329 75.5954L214.329 75.5953H214.329Z" fill="url(#paint4_linear_2391_1848)"/>
        <path fill-rule="evenodd" clip-rule="evenodd" d="M204.807 68.6765C205.165 66.2811 203.342 64.9934 200.848 64.1345L201.657 60.8897L199.682 60.3975L198.894 63.5569C198.375 63.4274 197.842 63.3053 197.312 63.1843L198.105 60.0041L196.131 59.512L195.322 62.7557C194.892 62.6579 194.47 62.5612 194.06 62.4593L194.063 62.4491L191.339 61.7689L190.813 63.8785C190.813 63.8785 192.279 64.2144 192.248 64.2351C193.048 64.4348 193.192 64.9642 193.168 65.3839L192.247 69.0805C192.302 69.0945 192.373 69.1147 192.452 69.1464L192.395 69.132C192.346 69.1199 192.295 69.1072 192.243 69.0947L190.952 74.2731C190.854 74.5161 190.606 74.8808 190.047 74.7423C190.066 74.771 188.611 74.3841 188.611 74.3841L187.63 76.645L190.201 77.2858C190.482 77.3564 190.76 77.4289 191.036 77.5007L191.036 77.5008C191.228 77.5509 191.419 77.6007 191.609 77.6492L190.792 80.9312L192.765 81.4234L193.574 78.1762C194.113 78.3225 194.636 78.4575 195.148 78.5847L194.341 81.8165L196.317 82.3087L197.134 79.0329C200.502 79.6703 203.035 79.4133 204.101 76.3668C204.96 73.9141 204.058 72.4993 202.286 71.5767C203.577 71.2791 204.549 70.4302 204.808 68.6767L204.807 68.6763L204.807 68.6765ZM200.294 75.0047C199.734 77.255 196.212 76.3247 194.6 75.899L194.6 75.899C194.455 75.8607 194.326 75.8265 194.215 75.7991L195.3 71.451C195.435 71.4846 195.599 71.5215 195.786 71.5634C197.453 71.9375 200.868 72.704 200.294 75.0047H200.294ZM196.12 69.5453C197.463 69.9039 200.394 70.6861 200.905 68.6409H200.905C201.426 66.5491 198.578 65.9184 197.187 65.6104C197.03 65.5757 196.892 65.5452 196.779 65.517L195.796 69.4605C195.889 69.4836 195.998 69.5127 196.12 69.5453Z" fill="white"/>
        <circle cx="222.868" cy="71.241" r="17.9999" fill="url(#paint5_linear_2391_1848)"/>
        <path d="M222.819 60.4408L222.676 60.9272V75.0396L222.819 75.1825L229.369 71.3103L222.819 60.4408Z" fill="#DDDEFE"/>
        <path d="M222.819 60.4409L216.268 71.3104L222.819 75.1826V68.3328V60.4409Z" fill="white"/>
        <path d="M222.818 76.4225L222.738 76.521V81.548L222.818 81.7836L229.373 72.5524L222.818 76.4225Z" fill="#DDDEFE"/>
        <path d="M222.819 81.7836V76.4225L216.268 72.5524L222.819 81.7836Z" fill="white"/>
        <path d="M222.819 75.1826L229.369 71.3104L222.819 68.3328V75.1826Z" fill="#A4A8E8"/>
        <path d="M216.268 71.3104L222.819 75.1826V68.3328L216.268 71.3104Z" fill="#C4C7F6"/>
    </g>
    <defs>
        <filter id="filter0_f_2391_1848" x="41.6295" y="-58.0846" width="330.235" height="265.277" filterUnits="userSpaceOnUse" color-interpolation-filters="sRGB">
            <feFlood flood-opacity="0" result="BackgroundImageFix"/>
            <feBlend mode="normal" in="SourceGraphic" in2="BackgroundImageFix" result="shape"/>
            <feGaussianBlur stdDeviation="25.9097" result="effect1_foregroundBlur_2391_1848"/>
        </filter>
        <linearGradient id="paint0_linear_2391_1848" x1="184.661" y1="22.4038" x2="184.661" y2="188.961" gradientUnits="userSpaceOnUse">
            <stop stop-color="#010004"/>
            <stop offset="0.350072" stop-color="#3D45FF"/>
            <stop offset="0.52456" stop-color="#03E9C6"/>
            <stop offset="0.681152" stop-color="#3D45FF"/>
            <stop offset="1" stop-color="#03035C"/>
        </linearGradient>
        <linearGradient id="paint1_linear_2391_1848" x1="186.246" y1="22.4038" x2="186.246" y2="188.961" gradientUnits="userSpaceOnUse">
            <stop stop-color="#010004"/>
            <stop offset="0.350072" stop-color="#3D45FF"/>
            <stop offset="0.52456" stop-color="#03E9C6"/>
            <stop offset="0.681152" stop-color="#3D45FF"/>
            <stop offset="1" stop-color="#03035C"/>
        </linearGradient>
        <linearGradient id="paint2_linear_2391_1848" x1="184.661" y1="22.4038" x2="184.661" y2="188.961" gradientUnits="userSpaceOnUse">
            <stop stop-color="#010004"/>
            <stop offset="0.350072" stop-color="#3D45FF"/>
            <stop offset="0.52456" stop-color="#03E9C6"/>
            <stop offset="0.681152" stop-color="#3D45FF"/>
            <stop offset="1" stop-color="#03035C"/>
        </linearGradient>
        <linearGradient id="paint3_linear_2391_1848" x1="152.868" y1="71.241" x2="188.868" y2="71.241" gradientUnits="userSpaceOnUse">
            <stop stop-color="#016DFC"/>
            <stop offset="1" stop-color="#003A87"/>
        </linearGradient>
        <linearGradient id="paint4_linear_2391_1848" x1="178.872" y1="71.241" x2="214.868" y2="71.241" gradientUnits="userSpaceOnUse">
            <stop stop-color="#016DFC"/>
            <stop offset="1" stop-color="#003A87"/>
        </linearGradient>
        <linearGradient id="paint5_linear_2391_1848" x1="204.868" y1="71.241" x2="240.868" y2="71.241" gradientUnits="userSpaceOnUse">
            <stop stop-color="#016DFC"/>
            <stop offset="1" stop-color="#003A87"/>
        </linearGradient>
        <clipPath id="clip0_2391_1848">
            <rect width="416" height="142.843" rx="8" fill="white"/>
        </clipPath>
        <clipPath id="clip1_2391_1848">
            <rect width="605.355" height="182.119" fill="white" transform="translate(-95.9307 -16.2892)"/>
        </clipPath>
        <clipPath id="clip2_2391_1848">
            <rect width="372.491" height="206.839" fill="white" transform="translate(208.085 -33.8313)"/>
        </clipPath>
    </defs>
</svg>
