<svg width="1024" height="600" fill="none" xmlns="http://www.w3.org/2000/svg"><g clip-path="url(#a)"><rect width="1024" height="600" rx="32" fill="url(#b)"/><g clip-path="url(#c)" fill="#fff"><path d="M105.906 91.36c0 5.62-.064 10.726-.161 14.403-.096 3.693-.24 5.973-.385 5.973-.144 0-.289-2.28-.385-5.973-.097-3.693-.161-8.783-.161-14.403 0-5.62.064-10.71.161-14.387.096-3.677.241-5.957.385-5.957.145 0 .289 2.28.385 5.957.097 3.677.161 8.767.161 14.387Z"/><path d="M105.376 91.906c-5.62 0-10.726-.064-14.403-.16C87.28 91.648 85 91.503 85 91.36c0-.144 2.28-.289 5.973-.385 3.693-.097 8.783-.16 14.403-.16 5.62 0 10.71.063 14.387.16 3.677.096 5.957.24 5.957.385 0 .144-2.28.289-5.957.385-3.677.097-8.767.16-14.387.16Z"/><path d="M105.761 91.745a433.597 433.597 0 0 1-8.702 8.478c-2.264 2.136-3.726 3.388-3.838 3.276-.112-.112 1.156-1.558 3.276-3.838a433.819 433.819 0 0 1 8.478-8.702c3.355-3.356 6.422-6.343 8.702-8.462 2.264-2.12 3.725-3.388 3.838-3.276.112.112-1.156 1.558-3.276 3.838-2.119 2.264-5.122 5.347-8.462 8.702l-.016-.016Z"/><path d="M104.975 91.761a433.58 433.58 0 0 1-8.478-8.702c-2.12-2.264-3.388-3.725-3.276-3.838.112-.112 1.557 1.156 3.838 3.276 2.264 2.12 5.346 5.122 8.702 8.478s6.343 6.422 8.462 8.702c2.12 2.264 3.388 3.726 3.276 3.838-.113.112-1.558-1.156-3.838-3.276a474.547 474.547 0 0 1-8.703-8.462l.017-.016ZM105.36 74.886c-.225-.225-.434-.45-.642-.658-.145-.145-.289-.305-.418-.434-.257-.289-.498-.546-.674-.77-.386-.45-.578-.755-.53-.804.048-.048.353.145.803.53.225.193.481.418.77.675.225.208.45.433.707.674.257-.24.482-.466.706-.674.289-.257.546-.498.771-.675.45-.369.755-.578.803-.53.048.049-.144.354-.53.803-.193.225-.417.482-.674.771-.129.145-.273.289-.418.434-.208.208-.433.433-.642.658h-.032ZM105.36 107.834c.225.225.434.434.642.659.145.144.289.305.418.433.257.289.498.546.674.771.369.449.578.755.53.803-.048.048-.353-.161-.803-.53a58.125 58.125 0 0 1-.771-.675c-.224-.208-.449-.433-.706-.674-.257.241-.482.466-.707.674-.289.257-.545.498-.77.675-.45.369-.755.578-.803.53-.048-.048.144-.354.53-.803.192-.225.417-.482.674-.771.129-.144.273-.289.418-.433.208-.209.433-.434.642-.659h.032ZM121.834 91.36c.225-.225.45-.433.658-.658.145-.145.306-.29.434-.418.289-.257.546-.498.771-.674.449-.37.754-.578.803-.53.048.048-.145.353-.53.803a59.58 59.58 0 0 1-.675.77c-.208.225-.433.45-.674.707.241.257.466.498.674.707.257.289.498.545.675.77.369.45.578.755.53.803-.049.048-.354-.144-.803-.53a20.827 20.827 0 0 1-.771-.69c-.145-.129-.289-.273-.434-.418a23.592 23.592 0 0 0-.658-.642ZM88.886 91.36c-.225.225-.45.434-.659.658-.144.145-.305.29-.433.418-.29.257-.546.498-.77.69-.45.386-.756.578-.804.53-.048-.048.16-.353.53-.803.193-.224.418-.481.674-.754.21-.225.434-.466.675-.707-.241-.257-.466-.481-.675-.706a12.139 12.139 0 0 1-.674-.771c-.37-.45-.578-.755-.53-.803.048-.048.353.16.803.53.225.193.482.418.77.674.145.129.29.273.434.418.21.209.434.433.659.642v-.016ZM114.85 81.886v-.802c0-.177 0-.338.016-.498 0-.305.032-.594.064-.835.048-.482.112-.77.193-.77.08 0 .144.288.192.77.016.24.049.53.065.835 0 .16 0 .321.016.498v.257h.257c.176 0 .337 0 .497.016.321 0 .594.032.835.064.482.048.771.112.771.193 0 .08-.289.144-.771.192-.241.032-.53.048-.835.065h-1.3v.016ZM95.886 100.833V102.134c0 .321-.032.594-.064.835-.048.482-.112.771-.193.771-.08 0-.144-.289-.192-.771a10.49 10.49 0 0 1-.064-.835v-.755h-.257c-.177 0-.338 0-.498-.016-.321 0-.594-.032-.835-.064-.482-.048-.77-.112-.77-.193 0-.08.288-.144.77-.192.24-.032.514-.048.835-.064h1.3l-.032-.017Z"/><path d="M114.834 100.85h1.3c.321.016.594.032.835.064.482.048.771.112.771.192 0 .081-.289.145-.771.193-.241.016-.514.048-.835.064-.16 0-.321 0-.497.016h-.257v.257c0 .177 0 .338-.016.498 0 .321-.032.594-.065.835-.048.482-.112.771-.192.771-.081 0-.145-.289-.193-.771-.032-.241-.048-.53-.064-.835V100.833l-.016.017ZM95.886 81.887h-.802c-.177 0-.338 0-.498-.016-.321 0-.594-.033-.835-.065-.482-.048-.77-.112-.77-.192s.288-.145.77-.193c.24-.032.53-.048.835-.064.16 0 .321 0 .498-.016h.257v-.257c0-.16 0-.338.016-.498 0-.321.032-.594.064-.835.048-.482.112-.77.192-.77s.145.288.193.77c.032.24.048.514.064.835 0 .16 0 .321.016.498v.803Z"/></g><path d="M933.709 103.588c0 11.212-.128 21.399-.32 28.735-.192 7.368-.481 11.917-.769 11.917-.288 0-.577-4.549-.769-11.917-.192-7.368-.32-17.523-.32-28.735s.128-21.367.32-28.703c.192-7.336.481-11.885.769-11.885.288 0 .577 4.549.769 11.885.192 7.336.32 17.49.32 28.703Z" fill="#fff"/><path d="M932.652 104.677c-11.212 0-21.399-.128-28.735-.32-7.368-.192-11.917-.481-11.917-.769 0-.288 4.549-.577 11.917-.769 7.368-.192 17.523-.32 28.735-.32s21.367.128 28.703.32c7.336.192 11.885.481 11.885.769 0 .288-4.549.577-11.885.769-7.336.192-17.491.32-28.703.32Z" fill="#fff"/><path d="M933.421 104.357c-6.695 6.695-12.846 12.654-17.363 16.914-4.517 4.261-7.432 6.759-7.656 6.535-.224-.224 2.306-3.107 6.535-7.656 4.261-4.517 10.219-10.668 16.914-17.363 6.695-6.695 12.814-12.654 17.363-16.882 4.517-4.229 7.432-6.76 7.656-6.535.225.224-2.306 3.107-6.535 7.656-4.228 4.517-10.219 10.668-16.882 17.363l-.032-.032Z" fill="#fff"/><path d="M931.851 104.389c-6.695-6.695-12.653-12.846-16.914-17.363-4.229-4.517-6.759-7.432-6.535-7.656.224-.225 3.107 2.306 7.656 6.535 4.517 4.228 10.668 10.219 17.363 16.914 6.695 6.695 12.654 12.814 16.882 17.363 4.229 4.517 6.76 7.432 6.535 7.656-.224.224-3.107-2.306-7.656-6.535-4.517-4.26-10.668-10.219-17.363-16.882l.032-.032ZM932.62 70.72c-.448-.448-.865-.897-1.281-1.313-.288-.288-.577-.609-.833-.865-.513-.577-.993-1.09-1.346-1.538-.768-.897-1.153-1.505-1.057-1.601.096-.097.705.288 1.602 1.057.449.384.961.833 1.538 1.345.448.417.897.865 1.409 1.346.513-.48.961-.93 1.41-1.346.576-.512 1.089-.993 1.537-1.345.897-.737 1.506-1.153 1.602-1.057.096.096-.288.704-1.057 1.601-.384.449-.833.961-1.345 1.538-.257.288-.545.577-.833.865-.417.416-.865.865-1.282 1.313h-.064ZM932.62 136.456c.449.448.865.864 1.282 1.313.288.288.576.609.832.865.513.576.993 1.089 1.346 1.538.737.896 1.153 1.505 1.057 1.601-.096.096-.705-.32-1.602-1.057a115.05 115.05 0 0 1-1.537-1.345c-.449-.417-.897-.865-1.41-1.346-.512.481-.961.929-1.409 1.346-.577.512-1.09.993-1.538 1.345-.897.737-1.506 1.153-1.602 1.057-.096-.096.288-.705 1.057-1.601.385-.449.833-.962 1.346-1.538.256-.288.544-.577.833-.865.416-.417.865-.865 1.281-1.313h.064ZM965.488 103.588c.448-.449.897-.865 1.313-1.313.289-.289.609-.577.865-.833.577-.513 1.089-.993 1.538-1.346.897-.737 1.505-1.153 1.602-1.057.096.096-.289.705-1.058 1.602-.384.448-.832.961-1.345 1.537-.417.449-.865.897-1.346 1.41.481.512.929.993 1.346 1.409.513.577.993 1.09 1.345 1.538.737.897 1.154 1.506 1.058 1.602-.097.096-.705-.288-1.602-1.057a41.895 41.895 0 0 1-1.538-1.378 20.83 20.83 0 0 1-.865-.833c-.416-.416-.865-.865-1.313-1.281ZM899.752 103.588c-.448.448-.897.865-1.313 1.313-.288.289-.609.577-.865.833-.577.513-1.089.993-1.538 1.378-.897.769-1.505 1.153-1.601 1.057-.096-.096.32-.705 1.057-1.602.384-.448.833-.961 1.345-1.505.417-.449.865-.929 1.346-1.41-.481-.512-.929-.961-1.346-1.409a24.496 24.496 0 0 1-1.345-1.538c-.737-.897-1.153-1.506-1.057-1.602.096-.096.704.32 1.601 1.057.449.385.961.833 1.538 1.346.288.256.577.544.865.833.416.416.865.865 1.313 1.281v-.032ZM951.552 84.688v-1.602c0-.352 0-.673.032-.993 0-.609.064-1.186.129-1.666.096-.961.224-1.538.384-1.538s.288.577.384 1.538c.032.48.096 1.057.129 1.666 0 .32 0 .64.032.993v.512h.512c.352 0 .673 0 .993.032.641 0 1.185.065 1.666.129.961.096 1.538.224 1.538.384s-.577.288-1.538.384c-.481.064-1.057.097-1.666.129h-2.595v.032ZM913.72 122.488v2.595c0 .641-.065 1.186-.129 1.666-.096.961-.224 1.538-.384 1.538s-.288-.577-.384-1.538a20.437 20.437 0 0 1-.129-1.666v-1.505h-.512c-.353 0-.673 0-.993-.032-.641 0-1.186-.064-1.666-.129-.961-.096-1.538-.224-1.538-.384s.577-.288 1.538-.384c.48-.064 1.025-.096 1.666-.129h2.595l-.064-.032Z" fill="#fff"/><path d="M951.52 122.52h2.595c.641.033 1.185.065 1.666.129.961.096 1.538.224 1.538.384s-.577.288-1.538.384c-.481.033-1.025.097-1.666.129-.32 0-.64 0-.993.032h-.512v.512c0 .353 0 .673-.032.993 0 .641-.065 1.186-.129 1.666-.096.961-.224 1.538-.384 1.538s-.288-.577-.384-1.538c-.065-.48-.097-1.057-.129-1.666v-2.595l-.032.032ZM913.719 84.688h-1.601c-.353 0-.673 0-.993-.032a12.16 12.16 0 0 1-1.666-.129c-.961-.096-1.538-.224-1.538-.384s.577-.288 1.538-.384a22.2 22.2 0 0 1 1.666-.129c.32 0 .64 0 .993-.032h.512v-.512c0-.32 0-.673.032-.993 0-.64.064-1.186.128-1.666.097-.961.225-1.538.385-1.538s.288.577.384 1.538c.064.48.096 1.025.128 1.666 0 .32 0 .64.032.993v1.602Z" fill="#fff"/><circle opacity=".35" cx="511.763" cy="299.763" r="219.763" stroke="#fff" stroke-width="2"/><circle opacity=".35" cx="511.739" cy="299.739" r="357.739" stroke="#fff" stroke-width="2"/><path opacity=".5" d="M433.883 272.918 203.33 183.734l60-44 170.553 133.184Z" fill="url(#d)"/><path opacity=".5" d="M592.556 277.628 783 85l21 66-211.444 126.628Z" fill="url(#e)"/><path opacity=".5" d="M442.586 344.885 233.331 485.734l-9-74 218.255-66.849Z" fill="url(#f)"/><path opacity=".5" d="m587.037 320.177 234.793 61.057-60 51-174.793-112.057Z" fill="url(#g)"/><g filter="url(#h)"><circle cx="512.381" cy="300.381" r="110.381" fill="#0172FF"/><circle cx="512.382" cy="300.381" r="68.263" stroke="#fff" stroke-width="12.899"/><path fill-rule="evenodd" clip-rule="evenodd" d="m510.348 223.542 15.334 3.932-3.217 12.549a61.589 61.589 0 0 0-10.083-.827c-2.067 0-4.11.102-6.125.303l4.091-15.957Zm-32.627 127.261-4.195 16.362 15.334 3.932 3.32-12.95a60.932 60.932 0 0 1-14.459-7.344Zm24.686 9.949-3.324 12.966 15.334 3.932 4.205-16.403a61.838 61.838 0 0 1-6.24.314c-3.397 0-6.729-.276-9.975-.809Zm44.732-110.732 4.1-15.991-15.334-3.931-3.217 12.548a60.992 60.992 0 0 1 14.451 7.374Z" fill="#fff"/><circle cx="512.381" cy="300.381" r="110.381" fill="url(#i)"/><path fill-rule="evenodd" clip-rule="evenodd" d="m524.483 357.684-2.998 13.26a1.758 1.758 0 0 1-1.974 1.355 348.137 348.137 0 0 1-15.527-2.7 1.763 1.763 0 0 1-1.378-2.12l2.784-12.315c-1.683-.33-3.378-.686-5.081-1.068a194.71 194.71 0 0 1-4.558-1.097l-2.784 12.311a1.762 1.762 0 0 1-2.154 1.321 354.05 354.05 0 0 1-15.181-4.222 1.759 1.759 0 0 1-1.202-2.073l2.985-13.203c-26.11-10.47-42.594-28.264-35.597-58.653l1.683-7.447c6.77-30.502 29.298-39.441 57.368-37.644l2.983-13.195a1.76 1.76 0 0 1 1.978-1.355 354.831 354.831 0 0 1 15.521 2.721 1.761 1.761 0 0 1 1.376 2.119l-2.783 12.31c1.521.303 3.05.627 4.587.971 1.703.385 3.386.789 5.048 1.213l2.783-12.306a1.762 1.762 0 0 1 2.155-1.321 349.917 349.917 0 0 1 15.179 4.241 1.76 1.76 0 0 1 1.199 2.073l-2.991 13.228c25.77 10.468 41.875 28.249 35.043 58.472l-1.684 7.446c-6.712 30.244-28.998 39.298-56.78 37.678Zm37.885-43.728.948-4.19c6.671-27.723-15.512-38.077-42.86-44.66-27.648-5.851-52.129-6.046-58.031 21.85l-.948 4.191c-6.7 27.849 15.483 38.203 42.959 44.816 27.521 5.821 52.001 6.017 57.932-22.007Z" fill="#fff"/></g><g clip-path="url(#j)"><circle cx="230.629" cy="159.409" r="61.315" transform="rotate(-15 230.629 159.409)" fill="#fff" stroke="#DBD9D6" stroke-width=".594"/><path d="M245.981 135.097c-4.435 1.189-8.674 4.71-12.61 10.465-1.868 2.727-3.366 5.515-4.459 7.716l.018.01-.004-.013s3.188 1.98 6.689 4.079c1.015-2.109 2.511-5.011 4.385-7.77 3.502-5.117 6.243-6.734 7.937-7.188 6.379-1.709 12.885 1.855 14.516 7.94 1.62 6.045-2.247 12.388-8.601 14.134a6.105 6.105 0 0 1-1.166.168c2.07.284 4.219.315 6.12-.194 11.682-3.13 11.97-11.204 11.977-11.785a18.024 18.024 0 0 0-.619-4.404c-2.704-10.092-13.561-16.004-24.183-13.158Z" fill="url(#k)"/><path d="M215.011 182.73c4.436-1.189 8.675-4.711 12.611-10.465 1.868-2.728 3.365-5.515 4.458-7.717l-.017-.01.004.014s-3.188-1.98-6.689-4.079c-1.015 2.108-2.511 5.011-4.386 7.769-3.501 5.117-6.242 6.734-7.937 7.188-6.382 1.696-12.888-1.868-14.519-7.953-1.62-6.045 2.247-12.388 8.601-14.134a6.105 6.105 0 0 1 1.166-.168c-2.07-.284-4.219-.315-6.12.194-11.682 3.13-11.956 11.201-11.98 11.771.024 1.469.224 2.933.618 4.404 2.712 10.119 13.569 16.032 24.19 13.186Z" fill="url(#l)"/><path d="M258.738 164.289c-6.019 1.453-13.469-1.496-15.043-2.304-4.074-2.089-13.789-8.091-14.551-8.566-7.168-4.601-16.499-9.39-23.965-7.389l-.014.004-.014.003c-9.054 2.47-15.06 10.529-14.947 19.103.01-.567.961-8.978 11.999-11.646 6.018-1.454 13.514 1.556 15.102 2.36 4.074 2.089 13.788 8.091 14.551 8.566 7.164 4.588 16.495 9.376 23.961 7.376l.014-.004.014-.004c9.054-2.469 15.073-10.532 14.947-19.102-.024.57-1.006 8.917-12.054 11.603Z" fill="#29ABE2"/></g><g clip-path="url(#m)"><circle cx="793.084" cy="116.487" r="51.514" transform="rotate(-15 793.084 116.487)" fill="#627EEA"/><circle cx="793.084" cy="116.487" r="50.514" transform="rotate(-15 793.084 116.487)" stroke="#fff" stroke-opacity=".25" stroke-width="2"/><g clip-path="url(#n)"><path d="m784.036 83.357-.041 1.648 11.876 44.321.57.328 17.314-17.673-29.719-28.624Z" fill="#C1CCF6"/><path d="m784.036 83.358-11.427 39.648 23.832 6.648-5.764-21.512-6.641-24.784Z" fill="#fff"/><path d="m797.485 133.549-.171.377 4.23 15.788.452.672 12.817-34.507-17.328 17.67Z" fill="#C1CCF6"/><path d="m801.996 150.386-4.511-16.837-23.83-6.642 28.341 23.479Z" fill="#fff"/><path d="m796.441 129.654 17.314-17.673-23.078-3.839 5.764 21.512Z" fill="#8198EE"/><path d="m772.609 123.006 23.832 6.648-5.764-21.512-18.068 14.864Z" fill="#C1CCF6"/></g></g><g clip-path="url(#o)"><path d="M275.08 476.19c-12.094 30.519-46.644 45.457-77.171 33.361-30.514-12.092-45.454-46.641-33.357-77.158 12.09-30.524 46.641-45.463 77.159-33.371 30.525 12.094 45.463 46.647 33.368 77.168h.001Z" fill="#F7931A"/><path d="M246.929 449.367c2.221-7.686-3.186-12.701-10.976-16.605l4.069-10.27-6.252-2.476-3.962 9.999a271.8 271.8 0 0 0-5.019-1.912l3.99-10.065-6.248-2.476-4.071 10.266a218.58 218.58 0 0 1-4-1.523l.012-.032-8.622-3.42-2.644 6.677s4.652 1.742 4.541 1.796c2.532 1.004 2.774 2.801 2.512 4.164l-4.636 11.7c.174.07.399.167.643.305-.208-.082-.43-.171-.661-.26l-6.497 16.389c-.426.753-1.398 1.838-3.169 1.14.053.103-4.544-1.802-4.544-1.802l-4.201 6.974 8.136 3.223c1.514.602 2.993 1.218 4.453 1.807l-4.114 10.388 6.245 2.475 4.072-10.277c1.701.715 3.355 1.386 4.976 2.026l-4.057 10.229 6.253 2.476 4.11-10.368c10.75 3.562 19.156 3.83 23.98-5.678 3.887-7.655 1.553-12.682-3.845-16.478 4.356-.41 7.911-2.763 9.528-8.391l-.002-.002v.001Zm-17.548 18.743c-3.073 7.764-16.016 1.614-20.254-.061l5.455-13.761c4.238 1.681 18.007 5.726 14.799 13.822Zm4.786-20.568c-2.8 7.061-13.559 1.845-17.089.446l4.947-12.481c3.529 1.399 15.06 4.669 12.143 12.035h-.001Z" fill="#fff"/></g><g clip-path="url(#p)"><path d="M863.765 440.808c-16.989 30.649-55.613 41.722-86.27 24.73-30.643-16.987-41.719-55.61-24.727-86.255 16.987-30.653 55.611-41.728 86.258-24.741 30.654 16.99 41.728 55.616 24.738 86.266h.001Z" fill="#000"/><path d="m840.28 438.537-15.87 9.631a2.997 2.997 0 0 1-2.345.327l-58.775-15.749a1.516 1.516 0 0 1-.728-.441 1.456 1.456 0 0 1-.366-.756 1.413 1.413 0 0 1 .115-.823c.12-.256.314-.472.559-.621l15.878-9.629a3.036 3.036 0 0 1 2.339-.328l58.772 15.748c.28.075.533.228.728.441.194.212.321.475.366.756.045.28.005.566-.115.823a1.45 1.45 0 0 1-.558.621Zm-5.41-29.408a3.026 3.026 0 0 0-1.867-1.455l-58.775-15.749a1.52 1.52 0 0 0-.851.018 1.459 1.459 0 0 0-.695.472 1.417 1.417 0 0 0-.138 1.587l8.936 16.278c.194.353.459.664.779.914s.689.434 1.083.54l58.771 15.748c.281.075.576.069.851-.018.275-.087.516-.251.696-.471a1.422 1.422 0 0 0 .138-1.588l-8.928-16.276Zm-58.388-25.617 58.775 15.748c.395.106.807.132 1.211.076.403-.057.79-.193 1.134-.403l15.87-9.631a1.421 1.421 0 0 0 .674-1.444 1.468 1.468 0 0 0-.367-.756 1.511 1.511 0 0 0-.728-.441l-58.771-15.748a3.04 3.04 0 0 0-2.339.328l-15.876 9.63a1.42 1.42 0 0 0-.674 1.443c.044.28.171.543.365.755.194.213.446.367.726.443Z" fill="url(#q)"/></g><rect x="748.21" y="437.085" width="92.824" height="29.355" rx="14.677" transform="rotate(15 748.21 437.085)" fill="#fff"/><rect x="748.21" y="437.085" width="92.824" height="29.355" rx="14.677" transform="rotate(15 748.21 437.085)" stroke="#000"/><path d="m775.271 456.748-1.81.079c.074-.709-.229-1.867-1.697-2.261-1.113-.298-2.084.237-2.308 1.072-.186.695.106 1.336.906 1.75l1.49.747c1.828.904 2.536 2.402 2.122 3.947-.455 1.701-2.266 2.955-4.769 2.284-2.782-.746-3.585-2.882-3.332-4.504l1.863-.031c-.198 1.173.34 2.443 1.916 2.866 1.314.352 2.172-.131 2.399-.981.191-.711-.181-1.423-1.07-1.877l-1.459-.738c-1.578-.788-2.397-2.183-1.958-3.821.493-1.839 2.584-2.903 4.624-2.356 2.581.692 3.163 2.537 3.083 3.824Zm2.584 3.807c-.708 2.643.763 4.445 2.602 4.938 1.855.497 4.031-.328 4.739-2.971.708-2.643-.764-4.445-2.618-4.942-1.839-.493-4.015.332-4.723 2.975Zm-1.901-.51c.961-3.585 4.217-4.982 7.092-4.212 2.874.771 5.011 3.613 4.051 7.198-.965 3.601-4.237 4.994-7.112 4.224-2.874-.771-4.996-3.609-4.031-7.21Zm14.397 3.858c-.708 2.643.764 4.445 2.603 4.938 1.855.497 4.03-.328 4.738-2.971.709-2.642-.763-4.445-2.618-4.942-1.839-.492-4.014.333-4.723 2.975Zm-1.901-.509c.961-3.586 4.218-4.982 7.092-4.212 2.875.77 5.012 3.612 4.051 7.198-.964 3.601-4.236 4.993-7.111 4.223-2.875-.77-4.996-3.608-4.032-7.209Zm20.918 11.485-1.932-.517-3.185-9.749-2.224 8.299-1.854-.497 2.936-10.957 2.364.633 2.894 9.108 2.083-7.774 1.854.497-2.936 10.957Z" fill="#000"/><path d="M972.959 251.195s-1.951-.325-5.122-.488c-.528 0-1.097-.041-1.707-.081-7.073-2.317-9.715-8.496-10.61-11.504-.04-3.171-.162-5.122-.325-5.122-.162 0-.325 1.951-.488 5.122 0 .447-.04.935-.081 1.423-1.748 6.422-7.805 9.471-10.61 10.569-.325 0-.65.04-.935.081-3.13.284-5.081.528-5.081.691 0 .162 1.992.203 5.122.162.61 0 1.301 0 2.032-.04 6.098 1.423 8.822 6.707 9.879 9.552.04.854.121 1.626.203 2.358.284 3.171.528 5.122.691 5.081.162 0 .203-1.991.162-5.121 0-.854-.04-1.748-.081-2.765 1.585-6.341 7.236-8.699 10.244-9.512 4.106-.081 6.748-.162 6.748-.366l-.041-.04Z" fill="#517BCF"/><g clip-path="url(#r)"><path d="M72 223.228s7.135-1.921 7.352-8.228c0 0 1.025 6.656 7.648 7.956 0 0-6.84.757-7.372 7.044 0 0-1.38-6.501-7.628-6.772Z" fill="#fff"/></g><path d="M554 26.228s7.135-1.921 7.352-8.228c0 0 1.025 6.656 7.648 7.956 0 0-6.84.757-7.372 7.044 0 0-1.38-6.5-7.628-6.772Z" fill="#fff"/><g clip-path="url(#s)"><path d="M789 46.228s7.135-1.921 7.352-8.228c0 0 1.025 6.656 7.648 7.956 0 0-6.84.757-7.372 7.044 0 0-1.38-6.5-7.628-6.772Z" fill="#fff"/></g><path d="M207 365.228s7.135-1.921 7.352-8.228c0 0 1.025 6.656 7.648 7.956 0 0-6.84.757-7.372 7.044 0 0-1.38-6.501-7.628-6.772ZM206 33.228s7.135-1.921 7.352-8.228c0 0 1.025 6.656 7.648 7.956 0 0-6.84.757-7.372 7.044 0 0-1.38-6.5-7.628-6.772ZM117 506.228s7.135-1.921 7.352-8.228c0 0 1.025 6.656 7.648 7.956 0 0-6.84.757-7.372 7.044 0 0-1.38-6.501-7.628-6.772ZM923 507.228s7.135-1.921 7.352-8.228c0 0 1.025 6.656 7.648 7.956 0 0-6.84.757-7.372 7.044 0 0-1.38-6.501-7.628-6.772ZM942 373.228s7.135-1.921 7.352-8.228c0 0 1.025 6.656 7.648 7.956 0 0-6.84.757-7.372 7.044 0 0-1.38-6.501-7.628-6.772Z" fill="#fff"/><path d="M390.2 84.46s-.96-.16-2.52-.24c-.26 0-.54-.02-.84-.04-3.48-1.14-4.78-4.18-5.22-5.66-.02-1.56-.08-2.52-.16-2.52s-.16.96-.24 2.52c0 .22-.02.46-.04.7-.86 3.16-3.84 4.66-5.22 5.2-.16 0-.32.02-.46.04-1.54.14-2.5.26-2.5.34 0 .08.98.1 2.52.08.3 0 .64 0 1-.02 3 .7 4.34 3.3 4.86 4.7.02.42.06.8.1 1.16.14 1.56.26 2.52.34 2.5.08 0 .1-.98.08-2.52 0-.42-.02-.86-.04-1.36.78-3.12 3.56-4.28 5.04-4.68 2.02-.04 3.32-.08 3.32-.18l-.02-.02ZM67 379.756s-1.674-.279-4.395-.419c-.454 0-.942-.035-1.465-.07-6.07-1.988-8.338-7.29-9.105-9.872-.035-2.721-.14-4.395-.28-4.395-.139 0-.278 1.674-.418 4.395 0 .384-.035.803-.07 1.221-1.5 5.512-6.697 8.128-9.104 9.07-.28 0-.558.035-.802.07-2.687.244-4.361.453-4.361.593 0 .139 1.71.174 4.395.139.524 0 1.117 0 1.744-.035 5.233 1.221 7.57 5.756 8.477 8.198.035.733.105 1.396.175 2.023.244 2.721.453 4.396.593 4.361.14 0 .174-1.709.14-4.395 0-.733-.036-1.5-.07-2.373 1.36-5.441 6.209-7.465 8.79-8.162 3.523-.07 5.79-.14 5.79-.314l-.034-.035Z" fill="#517BCF"/><g clip-path="url(#t)"><path d="M802 264.756s-1.674-.279-4.395-.419c-.454 0-.942-.035-1.465-.07-6.07-1.988-8.338-7.29-9.105-9.872-.035-2.721-.14-4.395-.279-4.395-.14 0-.279 1.674-.419 4.395 0 .384-.035.803-.07 1.221-1.5 5.512-6.697 8.128-9.104 9.07-.279 0-.558.035-.803.07-2.686.244-4.36.453-4.36.593 0 .139 1.709.174 4.395.139.524 0 1.117 0 1.745-.035 5.232 1.221 7.569 5.756 8.476 8.198.035.733.105 1.396.175 2.023.244 2.721.453 4.396.593 4.361.139 0 .174-1.709.139-4.395 0-.733-.035-1.5-.07-2.373 1.361-5.441 6.21-7.465 8.791-8.162 3.523-.07 5.791-.14 5.791-.314l-.035-.035Z" fill="#517BCF"/></g></g><defs><clipPath id="a"><rect width="1024" height="600" rx="32" fill="#fff"/></clipPath><clipPath id="c"><path fill="#fff" transform="translate(85 71)" d="M0 0h40.72v40.72H0z"/></clipPath><clipPath id="j"><path fill="#fff" transform="rotate(-15 517.543 -531.399)" d="M0 0h123.223v123.223H0z"/></clipPath><clipPath id="m"><path fill="#fff" transform="rotate(-15 669.06 -2732.393)" d="M0 0h103.027v103.027H0z"/></clipPath><clipPath id="n"><path fill="#fff" transform="rotate(-15 719.25 -2855.104)" d="M0 0h42.61v69.393H0z"/></clipPath><clipPath id="o"><path fill="#fff" transform="rotate(7.616 -2826.167 1461.404)" d="M0 0h118.918v118.918H0z"/></clipPath><clipPath id="p"><path d="M746.96 393.615c9.072-33.859 43.875-53.952 77.734-44.879 33.858 9.072 53.952 43.874 44.879 77.733-9.072 33.859-43.875 53.952-77.733 44.88-33.859-9.073-53.952-43.875-44.88-77.734Z" fill="#fff"/></clipPath><clipPath id="r"><path fill="#fff" transform="translate(72 215)" d="M0 0h15v15H0z"/></clipPath><clipPath id="s"><path fill="#fff" transform="translate(789 38)" d="M0 0h15v15H0z"/></clipPath><clipPath id="t"><path fill="#fff" transform="translate(772 250)" d="M0 0h30v30H0z"/></clipPath><linearGradient id="b" x1="512" y1="0" x2="512" y2="600" gradientUnits="userSpaceOnUse"><stop stop-color="#5186FA"/><stop offset=".693" stop-color="#91C9DD"/><stop offset="1" stop-color="#DBEEF5"/></linearGradient><linearGradient id="d" x1="262.5" y1="174.473" x2="472.5" y2="288.973" gradientUnits="userSpaceOnUse"><stop stop-color="#fff"/><stop offset="1" stop-color="#fff" stop-opacity="0"/></linearGradient><linearGradient id="e" x1="766.829" y1="126.744" x2="530.803" y2="168.855" gradientUnits="userSpaceOnUse"><stop stop-color="#fff"/><stop offset="1" stop-color="#fff" stop-opacity="0"/></linearGradient><linearGradient id="f" x1="194.602" y1="385.457" x2="485.972" y2="304.6" gradientUnits="userSpaceOnUse"><stop stop-color="#fff"/><stop offset="1" stop-color="#fff" stop-opacity="0"/></linearGradient><linearGradient id="g" x1="849.96" y1="436.794" x2="543.351" y2="273.72" gradientUnits="userSpaceOnUse"><stop stop-color="#fff"/><stop offset="1" stop-color="#fff" stop-opacity="0"/></linearGradient><linearGradient id="i" x1="512.381" y1="190" x2="512.381" y2="410.763" gradientUnits="userSpaceOnUse"><stop stop-color="#06F"/><stop offset="1" stop-color="#06F"/></linearGradient><linearGradient id="k" x1="236.597" y1="140.205" x2="269.501" y2="160.444" gradientUnits="userSpaceOnUse"><stop offset=".21" stop-color="#F15A24"/><stop offset=".684" stop-color="#FBB03B"/></linearGradient><linearGradient id="l" x1="224.395" y1="177.621" x2="191.492" y2="157.382" gradientUnits="userSpaceOnUse"><stop offset=".21" stop-color="#ED1E79"/><stop offset=".893" stop-color="#522785"/></linearGradient><linearGradient id="q" x1="767.772" y1="435.619" x2="846.163" y2="382.411" gradientUnits="userSpaceOnUse"><stop offset=".08" stop-color="#9945FF"/><stop offset=".3" stop-color="#8752F3"/><stop offset=".5" stop-color="#5497D5"/><stop offset=".6" stop-color="#43B4CA"/><stop offset=".72" stop-color="#28E0B9"/><stop offset=".97" stop-color="#19FB9B"/></linearGradient><filter id="h" x="322" y="110" width="380.763" height="380.763" filterUnits="userSpaceOnUse" color-interpolation-filters="sRGB"><feFlood flood-opacity="0" result="BackgroundImageFix"/><feColorMatrix in="SourceAlpha" values="0 0 0 0 0 0 0 0 0 0 0 0 0 0 0 0 0 0 127 0" result="hardAlpha"/><feOffset/><feGaussianBlur stdDeviation="40"/><feComposite in2="hardAlpha" operator="out"/><feColorMatrix values="0 0 0 0 0 0 0 0 0 0.4 0 0 0 0 1 0 0 0 0.25 0"/><feBlend in2="BackgroundImageFix" result="effect1_dropShadow_5238_19504"/><feColorMatrix in="SourceAlpha" values="0 0 0 0 0 0 0 0 0 0 0 0 0 0 0 0 0 0 127 0" result="hardAlpha"/><feOffset dy="4"/><feGaussianBlur stdDeviation="4"/><feComposite in2="hardAlpha" operator="out"/><feColorMatrix values="0 0 0 0 0 0 0 0 0 0 0 0 0 0 0 0 0 0 0.14 0"/><feBlend in2="effect1_dropShadow_5238_19504" result="effect2_dropShadow_5238_19504"/><feBlend in="SourceGraphic" in2="effect2_dropShadow_5238_19504" result="shape"/></filter></defs></svg>