<svg xmlns="http://www.w3.org/2000/svg" width="332" height="114" fill="none">
    <g clip-path="url(#a)">
        <rect width="332" height="114" fill="#03035C" rx="8"/>
        <g clip-path="url(#b)">
            <path fill="url(#c)" d="M0 0h294.748v165.073H0z" transform="translate(-131 -26)"/>
            <path fill="url(#d)" d="M0 0h297.276v165.073H0z" transform="translate(-131 -26)"/>
            <path fill="#03035C" d="M270.284-6.445c22.806-1.96 4.375-9.547-47.038-19.555h-2.05c44.742 8.409 61.908 14.858 43.971 16.87C239.57-6.246 144.549-12.64 34.091-26H26.81C139.956-11.3 240.078-3.848 270.284-6.445ZM109.823 139.073c71.473-9.422 130.561-17.356 180.709-24.215v-5.459c-60.004 8.172-132.857 17.837-224.418 29.674h43.709ZM275.051-3.405C304.283-5.325 286.36-14.182 229.423-26h-2.601c50.73 10.078 68.231 17.701 44.683 19.735C239.947-3.545 137.049-11.01 20.282-26h-8.7C130.479-9.582 238.466-.993 275.052-3.405Zm15.481 142.478v-2.5c-5.276.821-10.669 1.654-16.149 2.5h16.149Zm-288.29 0c122.466-14.927 214.986-26.565 288.29-36.089V98.43c-80.819 10.544-185.244 23.595-327.403 40.643H2.242Zm215.945 0c26.063-3.759 50.091-7.247 72.345-10.503v-6.566a34044.262 34044.262 0 0 1-119.979 17.069h47.634Zm-320.313 0c176.249-20.047 300.021-34.806 392.658-46.426v-3.8c-98.436 12.493-232.573 28.436-427.415 50.226h34.757Zm-153.493-4.117C5.298 108.637 173.868 89.983 290.532 75.697v-2.664C174.275 87.569 4.845 106.236-255.619 131.707v3.249Zm0-16.384C4.553 95.242 175.409 77.095 290.532 62.573v-1.931c-114.353 14.7-286.89 32.537-546.151 53.77v4.16Zm53.995 20.501C28.931 114.458 181.673 97.01 290.532 83.618V80.44c-113.612 14.22-276.078 32.713-524.648 58.634h32.492Zm-53.995-12.702c260.65-24.945 430.141-43.303 546.151-57.638v-2.258C175.074 81.053 4.386 99.32-255.619 122.935v3.436Zm446.494-151.83c-.218-.172-.596-.352-1.12-.541h-7.02c-1.28 1.88-27.778 1.973-66.676 0h-4.87c49.291 2.987 82.971 3.115 79.686.54Zm9.579 1.423c-.277-.55-2.282-1.217-5.727-1.964h-4.376c.596.206 1.018.404 1.25.593 3.387 2.702-31.135 2.636-81.938-.44-.828-.048-1.642-.105-2.471-.153h-3.983c1.279.088 2.544.18 3.823.268 55.483 3.791 94.803 4.38 93.422 1.696ZM167.632-26H134.04c15.306.448 27.022.43 33.592 0Zm14.332 0h-12.065c-6.948.654-21.861.69-41.979 0h-7.428c35.453 1.727 59.568 1.656 61.472 0Zm28.258 3.55c.29-.888-3.983-2.113-11.92-3.55h-2.82c3.46.764 5.466 1.454 5.742 2.02 1.439 2.822-38.84 2.285-95.936-1.598-2.021-.137-4.027-.282-6.033-.422h-3.72c2.18.167 4.346.338 6.526.505 61.952 4.692 107.26 5.813 108.161 3.045Zm9.811 1.753c1.483-1.173-5.451-3.05-18.809-5.303h-1.875c7.835 1.459 12.021 2.706 11.716 3.62-.96 2.909-47.46 1.832-111.214-2.974-2.79-.211-5.552-.43-8.314-.646h-3.692c2.66.228 5.32.453 7.995.677 68.783 5.72 120.632 7.46 124.193 4.626Zm36.529 8.76c12.733-1.885-3.925-7.218-42.881-14.063h-1.322c31.891 5.522 46.093 9.894 36.92 11.726-15.16 3.031-92.331-1.2-186.843-11.142-1.831-.193-3.648-.39-5.48-.584h-5.334c.872.101 1.73.202 2.616.303 99.483 11.335 183.122 16.598 202.324 13.76Zm-8.358-2.46c8.91-1.775-5.829-6.116-38.229-11.603h-1.163c25.408 4.305 37.357 7.763 31.397 9.433-10.785 3.044-79.351-.233-165.592-8.642-2.689-.264-5.349-.527-7.995-.791h-4.709c1.904.206 3.823.409 5.742.61 91.372 9.67 166.129 13.87 180.549 10.993Zm15.8 5.11c17.356-1.947-.552-8.361-45.918-16.713h-1.643c38.418 6.893 54.393 12.258 41.253 14.204C237.52-8.81 150.959-14.13 47.871-25.806c-.552-.067-1.104-.133-1.671-.194h-6.193C147.065-12.925 239.498-6.537 264.005-9.287Zm-24.812-7.39c5.77-1.617-6.571-5.053-32.401-9.323h-1.177c19.085 3.22 28.49 5.86 25.089 7.32-7.036 3.022-67.621.584-145.998-6.472-3.096-.281-6.163-.563-9.245-.848h-4.2c2.529.255 5.072.505 7.63.756 83.553 8.189 150.039 11.462 160.302 8.567Zm-9.449-2.1c3.3-1.42-6.366-4.03-25.786-7.223h-1.396c13.155 2.276 19.9 4.178 18.374 5.386-3.751 2.979-57.024 1.266-127.9-4.595-3.14-.26-6.266-.523-9.376-.791h-3.823c2.776.26 5.567.518 8.358.769 75.993 6.88 134.863 9.331 141.549 6.454ZM-255.619 93.44C.161 80.08 179.682 63.308 290.532 47.84v-1.49C178.301 61.745-3.218 76.363-255.619 83.196V93.44ZM236.735-26h-3.198c33.069 6.963 52.213 12.767 56.995 16.73v-1.621c-9.187-4.038-27.08-9.178-53.797-15.11Zm-299.564 0H-82.58C53.555-1.67 198.579 12.394 270.37 11.037c7.646-.146 14.347-.449 20.161-.884V6.705c-3.881.272-8.213.478-13.024.61C214.045 9.068 75.33-3.457-62.829-26Zm339.13 22.793C238.145-.681 127.106-9.279 4.315-26H-6.136C117.963-7.767 234.235 2.039 277.973-.154c5.248-.263 9.405-.68 12.559-1.225v-4.38c-2.049 1.177-6.686 2.056-14.231 2.552ZM-36.371-26h-15.776C80.723-3.818 215.237 8.708 276.287 7.043c5.364-.145 10.088-.387 14.245-.72V2.925c-3.154.277-6.716.492-10.713.642C225.891 5.606 97.177-5.51-36.371-26ZM-255.619 110.98c259.371-21.154 432.234-39.07 546.151-53.87v-1.692C177.72 70.255 2.622 87.496-255.619 105.447v5.534ZM245.239-26h-3.983c23.431 5.294 39.799 9.947 49.276 13.751v-.742c-10.001-3.752-25.016-8.124-45.293-13.01Zm34.9 0h-7.181c6.512 1.937 12.356 3.805 17.574 5.593v-2.03c-.727-.264-1.468-.527-2.224-.795A473.027 473.027 0 0 0 280.139-26Zm-24.987 0h-4.87c17.385 4.262 30.729 8.123 40.25 11.524v-.866c-8.983-3.224-20.714-6.792-35.38-10.658Zm31.862 0c1.192.395 2.37.79 3.518 1.186V-26h-3.518Zm-19.23.303c-.335-.101-.698-.202-1.047-.303h-5.96c11.876 3.194 21.775 6.177 29.755 8.927v-1.305c-6.468-2.302-14.012-4.744-22.748-7.319ZM-14.316-26h-12.75C101.711-5.847 226.763 5.264 278.554 3.322c4.607-.172 8.576-.435 11.977-.778V-.914c-3.038.422-6.788.756-11.309.985C233.668 2.368 114.097-7.447-14.316-26Zm-241.303 57.163V49.28c75.475 3.55 152.154 5.474 226.724 5.435 140.739-.07 248.245-7.662 319.427-18.154v-1.981c-52.285 6.854-125.836 11.392-220.435 11.357-102.7-.044-216.613-5.413-325.716-14.775Zm0 19.695v16.104c25.354.194 50.576.247 75.575.149 213.481-.838 372.329-12.544 470.576-26.999v-1.7C218.129 48.284 110.681 55.41-30.245 55.595c-73.418.096-149.537-1.573-225.374-4.736Zm0 17.38V81.82c252.006-6.708 434.763-21.938 546.151-37.982V42.3c-99.788 13.782-258.68 24.924-473.915 25.964-23.833.115-47.935.105-72.236-.025Zm0 34.629C2.574 84.86 178.301 67.333 290.532 52.234v-1.542C179.086 65.695.608 81.989-255.619 95.289v7.578Zm0-92.38v18.325C-148.497 39.106-33.842 45.116 70.387 45.23c95.094.106 168.761-4.801 220.145-12.178v-2.337c-37.488 4.569-87.956 7.407-151.754 7.376-118.83-.057-264.601-10.368-394.397-27.604ZM-134.858-26h-32.691C-27.604 3.036 143.648 20.724 243.756 20.03c18.577-.128 34.086-.835 46.776-2.004v-3.47c-8.431.602-18.199.993-29.42 1.133C173.301 16.796 10.578 1.024-134.858-26Zm-50.307 0h-43.481c140.32 31.637 328.977 51.535 448.709 51.183 28.708-.083 52.067-1.252 70.469-3.22v-3.339c-12.661 1.028-27.821 1.66-45.701 1.793C140.9 21.184-37.144 3.483-185.165-26Zm-70.454 16.528V7.096C-129.794 25.89 17.768 37.37 138.473 37.502c64.568.075 115.196-3.035 152.059-8.013V26.76c-26.586 2.904-60.963 4.643-103.611 4.679-125.691.105-300.276-15.492-442.54-40.912ZM-94.995-26h-25.221C18.334.607 175.409 16.374 259.963 15.342c11.832-.145 21.978-.584 30.569-1.278v-3.489c-5.582.37-11.876.633-18.94.769C196.994 12.785 47.145-1.283-94.995-26Zm-155.26 0h-5.364v12.082c136.031 27.551 314.218 44.888 441.9 44.857 43.433-.014 78.029-1.938 104.251-5.14v-3.085c-18.548 1.762-41.616 2.812-69.554 2.909C96.654 26.049-100.352 6.133-250.255-26Z"/>
            <path fill="url(#e)" d="M0 0h294.748v165.073H0z" transform="translate(166.068 -26)"/>
            <g clip-path="url(#f)">
                <path fill="#03035C" d="M567.352-6.445c22.807-1.96 4.375-9.547-47.038-19.555h-2.049c44.741 8.409 61.908 14.858 43.97 16.87C536.638-6.246 441.617-12.64 331.16-26h-7.283C437.024-11.3 537.147-3.848 567.352-6.445ZM406.891 139.073c71.473-9.422 130.561-17.356 180.709-24.215v-5.459c-60.003 8.172-132.857 17.837-224.418 29.674h43.709ZM572.12-3.405c29.231-1.92 11.309-10.777-45.628-22.595h-2.602C574.62-15.922 592.121-8.3 568.573-6.265 537.016-3.545 434.117-11.01 317.351-26h-8.7C427.547-9.582 535.533-.993 572.12-3.405Zm15.48 142.478v-2.5c-5.276.821-10.669 1.654-16.149 2.5H587.6Zm-288.29 0c122.466-14.927 214.986-26.565 288.29-36.089V98.43c-80.819 10.544-185.244 23.595-327.402 40.643h39.112Zm215.946 0c26.062-3.759 50.09-7.247 72.344-10.503v-6.566a34040.927 34040.927 0 0 1-119.978 17.069h47.634Zm-320.314 0c176.249-20.047 300.022-34.806 392.658-46.426v-3.8c-98.436 12.493-232.572 28.436-427.415 50.226h34.757ZM41.45 134.956c260.916-26.319 429.486-44.973 546.15-59.259v-2.664c-116.257 14.536-285.686 33.203-546.15 58.674v3.249Zm0-16.384c260.172-23.33 431.027-41.477 546.15-55.999v-1.931c-114.353 14.7-286.89 32.537-546.15 53.77v4.16Zm53.994 20.501C326 114.458 478.742 97.01 587.6 83.618V80.44c-113.611 14.22-276.078 32.713-524.648 58.634h32.492ZM41.45 126.371C302.1 101.426 471.59 83.068 587.6 68.733v-2.258C472.143 81.053 301.454 99.32 41.45 122.935v3.436Zm446.493-151.83c-.218-.172-.596-.352-1.119-.541h-7.021c-1.279 1.88-27.778 1.973-66.676 0h-4.869c49.291 2.987 82.97 3.115 79.685.54Zm9.579 1.423c-.276-.55-2.282-1.217-5.727-1.964h-4.375c.596.206 1.017.404 1.25.593 3.387 2.702-31.136 2.636-81.939-.44-.828-.048-1.642-.105-2.471-.153h-3.982c1.279.088 2.543.18 3.822.268 55.484 3.791 94.803 4.38 93.422 1.696ZM464.7-26h-33.592c15.306.448 27.022.43 33.592 0Zm14.332 0h-12.064c-6.948.654-21.862.69-41.98 0h-7.427c35.452 1.727 59.567 1.656 61.471 0Zm28.258 3.55c.291-.888-3.983-2.113-11.919-3.55h-2.82c3.459.764 5.465 1.454 5.741 2.02 1.439 2.822-38.839 2.285-95.936-1.598-2.02-.137-4.026-.282-6.032-.422h-3.721c2.18.167 4.346.338 6.526.505 61.952 4.692 107.26 5.813 108.161 3.045Zm9.812 1.753c1.482-1.173-5.451-3.05-18.81-5.303h-1.875c7.835 1.459 12.021 2.706 11.716 3.62-.959 2.909-47.459 1.832-111.213-2.974-2.791-.211-5.553-.43-8.315-.646h-3.692c2.66.228 5.32.453 7.995.677 68.783 5.72 120.633 7.46 124.194 4.626Zm36.528 8.76c12.734-1.885-3.924-7.218-42.88-14.063h-1.323c31.891 5.522 46.093 9.894 36.921 11.726-15.161 3.031-92.332-1.2-186.843-11.142-1.832-.193-3.649-.39-5.48-.584h-5.335c.872.101 1.73.202 2.616.303C450.79-14.362 534.428-9.099 553.63-11.937Zm-8.358-2.46c8.911-1.775-5.829-6.116-38.229-11.603h-1.163c25.409 4.305 37.357 7.763 31.397 9.433-10.785 3.044-79.351-.233-165.591-8.642-2.69-.264-5.35-.527-7.995-.791h-4.71c1.905.206 3.823.409 5.742.61 91.372 9.67 166.13 13.87 180.549 10.993Zm15.801 5.11c17.355-1.947-.553-8.361-45.919-16.713h-1.643c38.419 6.893 54.393 12.258 41.253 14.204-20.176 2.987-106.736-2.333-209.824-14.01-.553-.067-1.105-.133-1.672-.194h-6.192C444.132-12.925 536.565-6.537 561.073-9.287Zm-24.813-7.39c5.771-1.617-6.57-5.053-32.4-9.323h-1.178c19.086 3.22 28.491 5.86 25.089 7.32-7.035 3.022-67.62.584-145.998-6.472a4908.9 4908.9 0 0 1-9.244-.848h-4.201c2.529.255 5.073.505 7.631.756 83.552 8.189 150.039 11.462 160.301 8.567Zm-9.448-2.1c3.299-1.42-6.367-4.03-25.787-7.223h-1.395c13.155 2.276 19.899 4.178 18.373 5.386-3.75 2.979-57.024 1.266-127.901-4.595-3.139-.26-6.264-.523-9.375-.791h-3.823c2.776.26 5.567.518 8.358.769 75.993 6.88 134.863 9.331 141.55 6.454ZM41.45 93.44c255.779-13.36 435.3-30.133 546.15-45.6v-1.49C475.37 61.745 293.851 76.363 41.45 83.196V93.44ZM533.803-26h-3.197c33.069 6.963 52.212 12.767 56.994 16.73v-1.621c-9.186-4.038-27.08-9.178-53.797-15.11ZM234.24-26h-19.752C350.623-1.67 495.647 12.394 567.439 11.037c7.646-.146 14.347-.449 20.161-.884V6.705c-3.881.272-8.212.478-13.024.61C511.113 9.068 372.398-3.457 234.24-26ZM573.37-3.207C535.213-.681 424.174-9.279 301.383-26h-10.451C415.031-7.767 531.303 2.039 575.041-.154c5.248-.263 9.405-.68 12.559-1.225v-4.38c-2.049 1.177-6.686 2.056-14.23 2.552ZM260.697-26h-15.775C377.791-3.818 512.305 8.708 573.355 7.043c5.364-.145 10.088-.387 14.245-.72V2.925c-3.154.277-6.715.492-10.712.642C522.96 5.606 394.245-5.51 260.697-26ZM41.45 110.98c259.371-21.154 432.233-39.07 546.15-53.87v-1.692C474.788 70.255 299.69 87.496 41.45 105.447v5.534ZM542.307-26h-3.983c23.432 5.294 39.799 9.947 49.276 13.751v-.742c-10-3.752-25.016-8.124-45.293-13.01Zm34.9 0h-7.18c6.512 1.937 12.355 3.805 17.573 5.593v-2.03c-.726-.264-1.468-.527-2.224-.795A470.147 470.147 0 0 0 577.207-26Zm-24.987 0h-4.869c17.385 4.262 30.728 8.123 40.249 11.524v-.866c-8.983-3.224-20.713-6.792-35.38-10.658Zm31.863 0c1.192.395 2.369.79 3.517 1.186V-26h-3.517Zm-19.231.303c-.334-.101-.698-.202-1.047-.303h-5.959c11.875 3.194 21.774 6.177 29.754 8.927v-1.305c-6.468-2.302-14.012-4.744-22.748-7.319ZM282.753-26h-12.751C398.78-5.847 523.832 5.264 575.623 3.322c4.608-.172 8.576-.435 11.977-.778V-.914c-3.038.422-6.788.756-11.308.985C530.736 2.368 411.165-7.447 282.753-26ZM41.45 31.163V49.28c75.474 3.55 152.153 5.474 226.723 5.435 140.739-.07 248.246-7.662 319.427-18.154v-1.981c-52.285 6.854-125.836 11.392-220.435 11.357-102.7-.044-216.612-5.413-325.715-14.775Zm0 19.695v16.104c25.353.194 50.575.247 75.574.149 213.482-.838 372.329-12.544 470.576-26.999v-1.7c-72.402 9.872-179.851 16.998-320.777 17.183-73.417.096-149.537-1.573-225.373-4.736Zm0 17.38V81.82c252.005-6.708 434.763-21.938 546.15-37.982V42.3c-99.788 13.782-258.679 24.924-473.915 25.964-23.833.115-47.934.105-72.235-.025Zm0 34.629C299.642 84.86 475.37 67.333 587.6 52.234v-1.542C476.154 65.695 297.677 81.989 41.45 95.289v7.578Zm0-92.38v18.325C148.57 39.106 263.227 45.116 367.456 45.23c95.093.106 168.76-4.801 220.144-12.178v-2.337c-37.487 4.569-87.956 7.407-151.753 7.376-118.831-.057-264.601-10.368-394.397-27.604ZM162.21-26h-32.691C269.464 3.036 440.716 20.724 540.824 20.03c18.577-.128 34.087-.835 46.776-2.004v-3.47c-8.43.602-18.198.993-29.42 1.133C470.369 16.796 307.647 1.024 162.21-26Zm-50.307 0h-43.48C208.741 5.637 397.4 25.535 517.13 25.183c28.708-.083 52.067-1.252 70.469-3.22v-3.339c-12.66 1.028-27.821 1.66-45.7 1.793C437.969 21.184 259.924 3.483 111.903-26ZM41.45-9.472V7.096C167.275 25.89 314.836 37.37 435.54 37.502c64.568.075 115.197-3.035 152.059-8.013V26.76c-26.586 2.904-60.963 4.643-103.611 4.679-125.691.105-300.276-15.492-442.54-40.912ZM202.073-26h-25.221C315.403.607 472.477 16.374 557.032 15.342c11.832-.145 21.978-.584 30.568-1.278v-3.489c-5.581.37-11.875.633-18.94.769C494.063 12.785 344.213-1.283 202.073-26Zm-155.26 0H41.45v12.082c136.03 27.551 314.217 44.888 441.9 44.857 43.433-.014 78.028-1.938 104.25-5.14v-3.085c-18.547 1.762-41.616 2.812-69.553 2.909C393.722 26.049 196.717 6.133 46.813-26Z"/>
            </g>
            <path fill="#010104" d="M0 0h332v114H0z" opacity=".15"/>
            <g fill="#03035C" filter="url(#g)">
                <ellipse cx="165" cy="59.5" rx="24" ry="64.5"/>
                <ellipse cx="165" cy="59.5" rx="24" ry="64.5"/>
            </g>
            <g fill="#03035C" filter="url(#h)">
                <ellipse cx="165" cy="59.5" rx="90.421" ry="64.5"/>
                <ellipse cx="165" cy="59.5" rx="90.421" ry="64.5"/>
            </g>
        </g>
        <circle cx="140" cy="56.856" r="18" fill="url(#i)"/>
        <path fill="#C4C7F6" d="M146.245 50.856c-1.364 0-2.853.726-4.43 2.165a17.673 17.673 0 0 0-1.877 1.99s.763.863 1.602 1.789a18.38 18.38 0 0 1 1.864-2.015c1.402-1.276 2.315-1.54 2.841-1.54 1.964 0 3.566 1.615 3.566 3.617a3.616 3.616 0 0 1-3.566 3.616c-.088 0-.213-.012-.338-.037.575.263 1.188.45 1.777.45 3.603 0 4.304-2.44 4.354-2.615.1-.45.163-.913.163-1.401-.025-3.329-2.678-6.019-5.956-6.019ZM133.656 62.856c1.364 0 2.853-.726 4.43-2.165a17.765 17.765 0 0 0 1.877-1.99s-.763-.863-1.602-1.789a18.372 18.372 0 0 1-1.864 2.015c-1.402 1.276-2.315 1.539-2.841 1.539-1.964 0-3.566-1.614-3.566-3.616a3.616 3.616 0 0 1 3.566-3.617c.088 0 .213.013.338.038-.575-.263-1.188-.45-1.777-.45-3.603 0-4.304 2.44-4.354 2.615-.1.45-.163.913-.163 1.401.013 3.316 2.678 6.019 5.956 6.019Z"/>
        <path fill="#fff" fill-rule="evenodd" d="M132.23 52.883c1.852.05 3.779 1.577 4.167 1.952.922.888 1.793 1.88 1.951 2.06l.026.03c.838.926 1.601 1.79 1.601 1.79l.013-.013c1.714 1.964 4.004 4.154 6.281 4.154 2.791-.013 5.143-1.977 5.769-4.617-.063.187-.989 2.652-4.367 2.565-1.84-.05-3.767-1.564-4.155-1.94a35.934 35.934 0 0 1-1.964-2.077c-.838-.926-1.602-1.79-1.602-1.79-.012 0-.012.013-.012.013-1.702-1.977-3.992-4.154-6.269-4.154-2.791.012-5.143 1.965-5.769 4.592.075-.313 1.039-2.64 4.33-2.565Zm-4.342 2.578v-.025c.012.012.012.025 0 .025Z" clip-rule="evenodd"/>
        <path fill="url(#j)" d="M183.461 61.21c-2.404 9.643-12.17 15.512-21.815 13.107-9.64-2.404-15.508-12.171-13.103-21.813 2.403-9.645 12.17-15.514 21.811-13.11 9.643 2.405 15.511 12.173 13.107 21.816Z"/>
        <path fill="#fff" fill-rule="evenodd" d="M173.939 54.291c.358-2.395-1.465-3.683-3.959-4.541l.809-3.245-1.975-.492-.788 3.159a80.836 80.836 0 0 0-1.582-.373l.793-3.18-1.974-.492-.81 3.244a67.07 67.07 0 0 1-1.261-.297l.002-.01-2.723-.68-.526 2.11s1.466.335 1.435.356c.8.2.944.73.92 1.149l-.921 3.697c.055.014.126.034.205.065l-.057-.014a19.27 19.27 0 0 0-.152-.037l-1.291 5.178c-.098.243-.346.608-.906.47.02.028-1.435-.359-1.435-.359l-.981 2.261 2.571.64c.281.071.559.144.835.216.192.05.383.1.573.148l-.817 3.282 1.972.492.81-3.247c.539.147 1.062.282 1.574.409l-.807 3.231 1.976.493.817-3.276c3.368.637 5.901.38 6.967-2.666.858-2.453-.043-3.868-1.815-4.79 1.29-.298 2.263-1.147 2.522-2.9h-.001Zm-4.513 6.329c-.56 2.25-4.082 1.32-5.694.894-.145-.038-.274-.073-.385-.1l1.085-4.348c.134.034.299.07.485.112 1.667.375 5.083 1.141 4.509 3.442Zm-4.174-5.46c1.343.359 4.274 1.141 4.785-.904.521-2.092-2.327-2.723-3.719-3.03-.156-.035-.294-.066-.407-.094l-.983 3.944c.093.023.201.052.324.084Z" clip-rule="evenodd"/>
        <circle cx="192" cy="56.856" r="18" fill="url(#k)"/>
        <path fill="#DDDEFE" d="m191.951 46.056-.143.486v14.113l.143.143 6.551-3.873-6.551-10.87Z"/>
        <path fill="#fff" d="m191.951 46.056-6.551 10.87 6.551 3.872V46.056Z"/>
        <path fill="#DDDEFE" d="m191.951 62.038-.081.098v5.027l.081.236 6.555-9.232-6.555 3.87Z"/>
        <path fill="#fff" d="M191.951 67.399v-5.361l-6.551-3.87 6.551 9.23Z"/>
        <path fill="#A4A8E8" d="m191.951 60.798 6.551-3.873-6.551-2.977v6.85Z"/>
        <path fill="#C4C7F6" d="m185.4 56.925 6.551 3.873v-6.85l-6.551 2.977Z"/>
    </g>
    <defs>
        <linearGradient id="c" x1="147.374" x2="147.374" y1="17.88" y2="150.806" gradientUnits="userSpaceOnUse">
            <stop stop-color="#010004"/>
            <stop offset=".35" stop-color="#3D45FF"/>
            <stop offset=".525" stop-color="#03E9C6"/>
            <stop offset=".681" stop-color="#3D45FF"/>
            <stop offset="1" stop-color="#03035C"/>
        </linearGradient>
        <linearGradient id="d" x1="148.638" x2="148.638" y1="17.88" y2="150.806" gradientUnits="userSpaceOnUse">
            <stop stop-color="#010004"/>
            <stop offset=".35" stop-color="#3D45FF"/>
            <stop offset=".525" stop-color="#03E9C6"/>
            <stop offset=".681" stop-color="#3D45FF"/>
            <stop offset="1" stop-color="#03035C"/>
        </linearGradient>
        <linearGradient id="e" x1="147.374" x2="147.374" y1="17.88" y2="150.806" gradientUnits="userSpaceOnUse">
            <stop stop-color="#010004"/>
            <stop offset=".35" stop-color="#3D45FF"/>
            <stop offset=".525" stop-color="#03E9C6"/>
            <stop offset=".681" stop-color="#3D45FF"/>
            <stop offset="1" stop-color="#03035C"/>
        </linearGradient>
        <linearGradient id="i" x1="122" x2="158" y1="56.856" y2="56.856" gradientUnits="userSpaceOnUse">
            <stop stop-color="#016DFC"/>
            <stop offset="1" stop-color="#003A87"/>
        </linearGradient>
        <linearGradient id="j" x1="148.004" x2="184" y1="56.856" y2="56.856" gradientUnits="userSpaceOnUse">
            <stop stop-color="#016DFC"/>
            <stop offset="1" stop-color="#003A87"/>
        </linearGradient>
        <linearGradient id="k" x1="174" x2="210" y1="56.856" y2="56.856" gradientUnits="userSpaceOnUse">
            <stop stop-color="#016DFC"/>
            <stop offset="1" stop-color="#003A87"/>
        </linearGradient>
        <clipPath id="a">
            <rect width="332" height="114" fill="#fff" rx="8"/>
        </clipPath>
        <clipPath id="b">
            <path fill="#fff" d="M-76.56-13h483.12v145.345H-76.56z"/>
        </clipPath>
        <clipPath id="f">
            <path fill="#fff" d="M166.068-26h297.276v165.073H166.068z"/>
        </clipPath>
        <filter id="g" width="151.639" height="232.639" x="89.18" y="-56.819" color-interpolation-filters="sRGB" filterUnits="userSpaceOnUse">
            <feFlood flood-opacity="0" result="BackgroundImageFix"/>
            <feBlend in="SourceGraphic" in2="BackgroundImageFix" result="shape"/>
            <feGaussianBlur result="effect1_foregroundBlur_2413_13335" stdDeviation="25.91"/>
        </filter>
        <filter id="h" width="284.48" height="232.639" x="22.76" y="-56.819" color-interpolation-filters="sRGB" filterUnits="userSpaceOnUse">
            <feFlood flood-opacity="0" result="BackgroundImageFix"/>
            <feBlend in="SourceGraphic" in2="BackgroundImageFix" result="shape"/>
            <feGaussianBlur result="effect1_foregroundBlur_2413_13335" stdDeviation="25.91"/>
        </filter>
    </defs>
</svg>
