<svg xmlns="http://www.w3.org/2000/svg" width="1024" height="600" fill="none"><g clip-path="url(#a)"><rect width="1024" height="600" fill="#D1E1FF" rx="40"/><circle cx="512" cy="300" r="209.07" stroke="#fff" stroke-width="1.85" opacity=".5"/><circle cx="512" cy="300" r="318.99" stroke="#fff" stroke-width="2.02" opacity=".5"/><circle cx="512" cy="300" r="428.96" stroke="#fff" stroke-width="2.08" opacity=".5"/><path fill="url(#b)" d="M518.5 302.5 228.5 164l72-78 218 216.5Z"/><path fill="url(#c)" d="M520.5 303.5 767 93.5l55 87-301.5 123Z"/><path fill="url(#d)" d="M510.5 298.5 265 460l-45.5-86.5 291-75Z"/><path fill="url(#e)" d="M522.5 311.5 794 410l-55.5 82-216-180.5Z"/><g filter="url(#f)"><circle cx="512" cy="300" r="110" fill="#0172FF"/><circle cx="512" cy="300" r="68.03" stroke="#fff" stroke-width="12.85"/><path fill="#fff" fill-rule="evenodd" d="m509.97 223.43 15.28 3.91-3.2 12.5a61.4 61.4 0 0 0-16.15-.51l4.07-15.9Zm-32.51 126.82-4.18 16.3 15.28 3.92 3.3-12.9c-5.15-1.8-9.98-4.28-14.4-7.32Zm24.6 9.91-3.31 12.92 15.28 3.92 4.19-16.35a61.74 61.74 0 0 1-16.16-.49Zm44.58-110.35 4.08-15.93-15.28-3.92-3.2 12.5a60.75 60.75 0 0 1 14.4 7.35Z" clip-rule="evenodd"/><circle cx="512" cy="300" r="110" fill="url(#g)"/><path fill="#fff" fill-rule="evenodd" d="m521.6 356.51-3.44 12.87a1.75 1.75 0 0 1-2.02 1.27c-4.94-.94-9.96-2.02-15.03-3.23a1.76 1.76 0 0 1-1.3-2.16l3.2-11.95a185.19 185.19 0 0 1-9.34-2.49l-3.2 11.94a1.76 1.76 0 0 1-2.2 1.23c-5-1.49-9.89-3.05-14.63-4.7a1.75 1.75 0 0 1-1.12-2.11l3.43-12.8c-25.14-11.27-40.57-29.35-32.53-58.88l1.94-7.24c7.82-29.65 30.21-37.55 57.61-34.72l3.43-12.8a1.75 1.75 0 0 1 2.02-1.27c4.94.95 9.95 2.04 15.03 3.25.96.23 1.54 1.2 1.28 2.16l-3.2 11.94a192.24 192.24 0 0 1 9.35 2.5l3.2-11.92a1.76 1.76 0 0 1 2.2-1.24c5 1.5 9.88 3.07 14.63 4.72.87.3 1.35 1.23 1.11 2.12l-3.44 12.83c24.81 11.25 39.87 29.3 32 58.67l-1.94 7.24c-7.75 29.4-29.91 37.42-57.04 34.77Zm38.8-41.43 1.08-4.07c7.62-26.93-13.69-37.93-40.2-45.43-26.82-6.79-50.77-7.91-57.64 19.21l-1.09 4.08c-7.65 27.05 13.66 38.05 40.29 45.58 26.7 6.76 50.65 7.88 57.55-19.37Z" clip-rule="evenodd"/></g><g clip-path="url(#h)"><circle cx="262.93" cy="121.93" r="61.75" fill="#fff" stroke="#DBD9D6" stroke-width=".5" transform="rotate(-15 262.93 121.93)"/><path fill="url(#i)" d="M278.38 97.47c-4.46 1.2-8.73 4.74-12.69 10.53a65.03 65.03 0 0 0-4.48 7.77h.01s3.2 1.98 6.73 4.1a62 62 0 0 1 4.41-7.82c3.53-5.15 6.29-6.78 8-7.24 6.41-1.72 12.96 1.87 14.6 8 1.63 6.08-2.26 12.46-8.66 14.22-.29.07-.67.13-1.17.16 2.08.3 4.25.32 6.16-.19 11.75-3.15 12.04-11.28 12.05-11.86a18.1 18.1 0 0 0-.62-4.43c-2.72-10.16-13.65-16.1-24.34-13.24Z"/><path fill="url(#j)" d="M247.22 145.4c4.46-1.2 8.73-4.74 12.69-10.53a64.88 64.88 0 0 0 4.48-7.77h-.01s-3.2-1.98-6.73-4.1a62 62 0 0 1-4.41 7.82c-3.53 5.15-6.28 6.78-8 7.24-6.41 1.7-12.96-1.88-14.6-8-1.63-6.09 2.26-12.47 8.65-14.23.3-.08.68-.14 1.18-.17a15.88 15.88 0 0 0-6.16.2c-11.76 3.15-12.03 11.27-12.06 11.84.03 1.48.23 2.95.63 4.43 2.72 10.19 13.65 16.14 24.34 13.27Z"/><path fill="#29ABE2" d="M291.22 126.84c-6.06 1.47-13.55-1.5-15.14-2.31-4.1-2.1-13.87-8.14-14.64-8.62-7.21-4.63-16.6-9.45-24.12-7.44h-.02c-9.12 2.5-15.16 10.6-15.05 19.23.01-.57.97-9.03 12.08-11.72 6.05-1.46 13.6 1.57 15.2 2.38 4.1 2.1 13.87 8.14 14.64 8.62 7.2 4.61 16.6 9.43 24.11 7.42h.02c9.12-2.5 15.18-10.6 15.05-19.23-.02.57-1.01 8.97-12.13 11.67Z"/></g><g clip-path="url(#k)"><circle cx="793.93" cy="135.93" r="62" fill="#627EEA" transform="rotate(15 793.93 135.93)"/><g clip-path="url(#l)"><path fill="#C1CCF6" d="m804.44 95.96-1.03 1.7-14.3 53.33.4.69 28.68-8-13.75-47.72Z"/><path fill="#fff" d="m804.44 95.96-35.77 34.45 20.84 21.27 6.94-25.9 7.99-29.82Z"/><path fill="#C1CCF6" d="m788.25 156.37-.4.29-5.1 19 .07.97 34.13-28.25-28.7 7.99Z"/><path fill="#fff" d="m782.82 176.63 5.43-20.26-20.84-21.27 15.41 41.53Z"/><path fill="#8198EE" d="m789.51 151.68 28.68-8-21.74-17.9-6.94 25.9Z"/><path fill="#C1CCF6" d="m768.67 130.4 20.84 21.28 6.94-25.9-27.78 4.63Z"/></g></g><g clip-path="url(#m)"><path fill="#F7931A" d="M301.3 438.5a62 62 0 1 1-115.26-45.68 62 62 0 0 1 115.26 45.69Z"/><path fill="#fff" d="M271.94 410.54c2.32-8.02-3.32-13.24-11.44-17.31l4.24-10.71-6.52-2.59-4.13 10.43c-1.71-.68-3.48-1.34-5.23-2l4.16-10.49-6.52-2.58-4.24 10.7c-1.42-.53-2.82-1.05-4.17-1.58v-.04l-8.98-3.56-2.76 6.96s4.85 1.81 4.74 1.87c2.64 1.05 2.89 2.92 2.62 4.34l-4.84 12.2c.18.08.42.18.67.32l-.69-.27-6.77 17.09c-.45.79-1.46 1.92-3.3 1.19.05.1-4.74-1.88-4.74-1.88l-4.38 7.27 8.48 3.36c1.58.63 3.12 1.27 4.64 1.89l-4.29 10.83 6.51 2.58 4.25-10.72c1.77.75 3.5 1.45 5.19 2.12l-4.23 10.66 6.52 2.58 4.28-10.8c11.21 3.7 19.98 3.99 25-5.93 4.06-7.98 1.63-13.22-4-17.18 4.54-.43 8.25-2.88 9.94-8.75Zm-18.3 19.54c-3.2 8.1-16.7 1.69-21.11-.06l5.68-14.35c4.42 1.75 18.78 5.97 15.44 14.41Zm5-21.44c-2.92 7.36-14.14 1.92-17.82.46l5.16-13.01c3.68 1.46 15.7 4.87 12.66 12.55Z"/></g><g clip-path="url(#n)"><path fill="#000" d="M824.15 483.99a62 62 0 1 1-108.43-60.12 62 62 0 0 1 108.43 60.12Z"/><path fill="url(#o)" d="m801.2 481.77-15.5 9.4a2.92 2.92 0 0 1-2.29.33L726 476.1a1.48 1.48 0 0 1-1.07-1.17 1.38 1.38 0 0 1 .66-1.4l15.5-9.41a2.9 2.9 0 0 1 2.3-.32l57.4 15.38a1.48 1.48 0 0 1 1.07 1.17 1.38 1.38 0 0 1-.65 1.4Zm-5.28-28.73a2.9 2.9 0 0 0-1.82-1.42l-57.42-15.38a1.48 1.48 0 0 0-1.5.47 1.38 1.38 0 0 0-.14 1.56l8.73 15.9a2.9 2.9 0 0 0 1.82 1.42l57.4 15.38c.28.07.57.07.84-.02a1.38 1.38 0 0 0 .81-2.01l-8.72-15.9Zm-57.03-25.02 57.41 15.38a2.97 2.97 0 0 0 2.3-.32l15.5-9.4a1.4 1.4 0 0 0 .65-1.42 1.43 1.43 0 0 0-.36-.74 1.5 1.5 0 0 0-.7-.43l-57.42-15.38a2.99 2.99 0 0 0-2.28.32l-15.51 9.4a1.4 1.4 0 0 0-.66 1.42 1.49 1.49 0 0 0 1.07 1.17Z"/></g></g><defs><linearGradient id="b" x1="373.5" x2="373.5" y1="86" y2="302.5" gradientUnits="userSpaceOnUse"><stop stop-color="#fff"/><stop offset="1" stop-color="#fff" stop-opacity=".35"/></linearGradient><linearGradient id="c" x1="761.35" x2="604.62" y1="274.43" y2="173.23" gradientUnits="userSpaceOnUse"><stop stop-color="#fff"/><stop offset="1" stop-color="#fff" stop-opacity=".35"/></linearGradient><linearGradient id="d" x1="310.33" x2="402.04" y1="292.47" y2="395.26" gradientUnits="userSpaceOnUse"><stop stop-color="#fff"/><stop offset="1" stop-color="#fff" stop-opacity=".35"/></linearGradient><linearGradient id="e" x1="666.09" x2="654.95" y1="496.19" y2="303.83" gradientUnits="userSpaceOnUse"><stop stop-color="#fff"/><stop offset="1" stop-color="#fff" stop-opacity=".35"/></linearGradient><linearGradient id="g" x1="512" x2="512" y1="190" y2="410" gradientUnits="userSpaceOnUse"><stop stop-color="#06F"/><stop offset="1" stop-color="#06F"/></linearGradient><linearGradient id="i" x1="268.94" x2="302.05" y1="102.61" y2="122.97" gradientUnits="userSpaceOnUse"><stop offset=".21" stop-color="#F15A24"/><stop offset=".68" stop-color="#FBB03B"/></linearGradient><linearGradient id="j" x1="256.66" x2="223.55" y1="140.26" y2="119.89" gradientUnits="userSpaceOnUse"><stop offset=".21" stop-color="#ED1E79"/><stop offset=".89" stop-color="#522785"/></linearGradient><linearGradient id="o" x1="730.38" x2="806.95" y1="478.92" y2="426.94" gradientUnits="userSpaceOnUse"><stop offset=".08" stop-color="#9945FF"/><stop offset=".3" stop-color="#8752F3"/><stop offset=".5" stop-color="#5497D5"/><stop offset=".6" stop-color="#43B4CA"/><stop offset=".72" stop-color="#28E0B9"/><stop offset=".97" stop-color="#19FB9B"/></linearGradient><clipPath id="a"><rect width="1024" height="600" fill="#fff" rx="40"/></clipPath><clipPath id="h"><path fill="#fff" d="M187 78.1 306.77 46l32.1 119.78-119.78 32.09z"/></clipPath><clipPath id="k"><path fill="#fff" d="m750.1 60 119.77 32.1-32.1 119.77L718 179.77z"/></clipPath><clipPath id="l"><path fill="#fff" d="m779.68 89.32 49.53 13.28-21.61 80.67L758.06 170z"/></clipPath><clipPath id="m"><path fill="#fff" d="m190.44 346 122.9 16.43-16.43 122.91L174 468.91z"/></clipPath><clipPath id="n"><path fill="#fff" d="M710.05 437.89a62 62 0 1 1 119.77 32.09 62 62 0 0 1-119.77-32.1Z"/></clipPath><filter id="f" width="379.45" height="379.45" x="322.28" y="110.28" color-interpolation-filters="sRGB" filterUnits="userSpaceOnUse"><feFlood flood-opacity="0" result="BackgroundImageFix"/><feColorMatrix in="SourceAlpha" result="hardAlpha" values="0 0 0 0 0 0 0 0 0 0 0 0 0 0 0 0 0 0 127 0"/><feOffset/><feGaussianBlur stdDeviation="39.86"/><feComposite in2="hardAlpha" operator="out"/><feColorMatrix values="0 0 0 0 0 0 0 0 0 0.4 0 0 0 0 1 0 0 0 0.25 0"/><feBlend in2="BackgroundImageFix" result="effect1_dropShadow_5948_17064"/><feColorMatrix in="SourceAlpha" result="hardAlpha" values="0 0 0 0 0 0 0 0 0 0 0 0 0 0 0 0 0 0 127 0"/><feOffset dy="3.99"/><feGaussianBlur stdDeviation="3.99"/><feComposite in2="hardAlpha" operator="out"/><feColorMatrix values="0 0 0 0 0 0 0 0 0 0 0 0 0 0 0 0 0 0 0.14 0"/><feBlend in2="effect1_dropShadow_5948_17064" result="effect2_dropShadow_5948_17064"/><feBlend in="SourceGraphic" in2="effect2_dropShadow_5948_17064" result="shape"/></filter></defs></svg>