<svg width="20" height="20" viewBox="0 0 20 20" fill="none" xmlns="http://www.w3.org/2000/svg">
<g clip-path="url(#clip0_754_3778)">
<path d="M19.7022 12.2293C18.3871 17.5041 13.0446 20.7142 7.76925 19.3989C2.49602 18.0838 -0.714141 12.741 0.601551 7.46655C1.91601 2.19116 7.25848 -1.0193 12.5323 0.295782C17.8074 1.61086 21.0173 6.95424 19.7022 12.2293Z" fill="#F7931A"/>
<path d="M14.4932 8.44471C14.6892 7.13456 13.6917 6.43025 12.3277 5.9604L12.7701 4.18563L11.6898 3.9164L11.2591 5.6444C10.9751 5.57363 10.6834 5.50687 10.3935 5.44071L10.8274 3.70132L9.74768 3.43209L9.30491 5.20624C9.06984 5.15271 8.83907 5.09979 8.61507 5.0441L8.6163 5.03856L7.12646 4.66655L6.83907 5.8204C6.83907 5.8204 7.64061 6.00409 7.62369 6.01548C8.06122 6.12471 8.1403 6.41424 8.12707 6.64378L7.62307 8.66563C7.65322 8.67332 7.6923 8.6844 7.73538 8.70163C7.69938 8.69271 7.66092 8.68286 7.62123 8.67332L6.91476 11.5056C6.86122 11.6386 6.72553 11.8379 6.41969 11.7622C6.43046 11.7779 5.63446 11.5662 5.63446 11.5662L5.09814 12.8029L6.50399 13.1533C6.76553 13.2189 7.02183 13.2875 7.27414 13.3521L6.82707 15.1472L7.90615 15.4164L8.34891 13.6404C8.64368 13.7204 8.92984 13.7943 9.20984 13.8638L8.76861 15.6315L9.84892 15.9007L10.296 14.109C12.1381 14.4576 13.5234 14.317 14.1065 12.6509C14.5763 11.3093 14.0831 10.5355 13.1138 10.0309C13.8197 9.8681 14.3514 9.40379 14.4932 8.44471ZM12.0249 11.9059C11.6911 13.2475 9.4323 12.5222 8.69999 12.3404L9.29322 9.96224C10.0255 10.145 12.3738 10.5069 12.0249 11.9059ZM12.3591 8.42532C12.0545 9.64563 10.1745 9.02563 9.5646 8.87363L10.1025 6.71671C10.7123 6.86871 12.6763 7.1524 12.3591 8.42532Z" fill="white"/>
</g>
<defs>
<clipPath id="clip0_754_3778">
<rect width="20" height="20" fill="white"/>
</clipPath>
</defs>
</svg>
