<svg width="46" height="46" viewBox="0 0 120 120" fill="none" xmlns="http://www.w3.org/2000/svg">
<g clip-path="url(#clip0_470_829)">
<circle cx="60" cy="60" r="60" fill="#F5AC37"/>
<path d="M65.4748 64.2186H85.614C86.0433 64.2186 86.246 64.2186 86.277 63.6558C86.4416 61.607 86.4416 59.5464 86.277 57.4952C86.277 57.0969 86.0791 56.9324 85.6474 56.9324H45.5671C45.071 56.9324 44.9374 57.0969 44.9374 57.562V63.4578C44.9374 64.2186 44.9374 64.2186 45.7316 64.2186H65.4748ZM84.0279 50.042C84.0852 49.8918 84.0852 49.7272 84.0279 49.5793C83.6917 48.8471 83.2934 48.1483 82.8307 47.4924C82.1342 46.3715 81.3138 45.3388 80.3789 44.411C79.9376 43.8505 79.4272 43.3473 78.8548 42.9204C75.988 40.4805 72.5798 38.7537 68.9164 37.8856C67.068 37.4706 65.1791 37.2726 63.2854 37.2893H45.4979C45.0018 37.2893 44.935 37.4873 44.935 37.919V49.6771C44.935 50.1732 44.935 50.3068 45.5647 50.3068H83.7894C83.7894 50.3068 84.121 50.24 84.1877 50.042H84.0256H84.0279ZM84.0279 71.1089C83.4651 71.0469 82.8974 71.0469 82.3346 71.1089H45.6004C45.1044 71.1089 44.9374 71.1089 44.9374 71.772V83.2678C44.9374 83.7973 44.9374 83.9308 45.6004 83.9308H62.5603C63.3713 83.9928 64.1822 83.9356 64.9764 83.7663C67.4377 83.5898 69.8585 83.0555 72.1672 82.1755C73.0068 81.8845 73.8177 81.5053 74.5833 81.0497H74.8146C78.7904 78.9819 82.0198 75.7335 84.0566 71.7457C84.0566 71.7457 84.2879 71.2449 84.0279 71.1137V71.1089ZM38.2808 89.891V89.6931V81.9751V79.3587V71.574C38.2808 71.1423 38.2808 71.0779 37.7513 71.0779H30.5629C30.1646 71.0779 30 71.0779 30 70.5485V64.2544H37.6845C38.1139 64.2544 38.2808 64.2544 38.2808 63.6915V57.4642C38.2808 57.0659 38.2808 56.9681 37.7513 56.9681H30.5629C30.1646 56.9681 30 56.9681 30 56.4387V50.6097C30 50.2448 30 50.147 30.5295 50.147H37.6512C38.1472 50.147 38.2808 50.147 38.2808 49.5173V31.663C38.2808 31.1336 38.2808 31 38.9438 31H63.7862C65.5893 31.0716 67.3805 31.2695 69.1526 31.5963C72.804 32.2712 76.3124 33.5758 79.5202 35.4385C81.6477 36.6907 83.6058 38.2028 85.3492 39.9438C86.661 41.3057 87.844 42.7796 88.8934 44.349C89.9356 45.9398 90.8014 47.6403 91.4812 49.4172C91.5646 49.8799 92.0082 50.1923 92.4709 50.1136H98.4001C99.1609 50.1136 99.1609 50.1136 99.1943 50.8434V56.2765C99.1943 56.806 98.9964 56.9395 98.4645 56.9395H93.8924C93.4297 56.9395 93.2962 56.9395 93.3295 57.5358C93.5108 59.5535 93.5108 61.5784 93.3295 63.5961C93.3295 64.159 93.3295 64.2258 93.9616 64.2258H99.1919C99.4233 64.5239 99.1919 64.822 99.1919 65.1225C99.2253 65.5065 99.2253 65.8953 99.1919 66.2793V70.2885C99.1919 70.8514 99.0274 71.0183 98.5289 71.0183H92.2682C91.8317 70.9348 91.4072 71.2139 91.307 71.648C89.8164 75.5236 87.4314 78.9986 84.3499 81.7843C83.2242 82.7979 82.0412 83.752 80.8058 84.632C79.4797 85.3952 78.1894 86.1895 76.8299 86.8191C74.3281 87.9448 71.7045 88.7748 69.0118 89.3019C66.4551 89.7598 63.8626 89.9673 61.2605 89.9316H38.2713V89.8982L38.2808 89.891Z" fill="#FEFEFD"/>
</g>
<defs>
<clipPath id="clip0_470_829">
<rect width="120" height="120" fill="white"/>
</clipPath>
</defs>
</svg>
