<!-- source: DFINITY foundation -->
<svg width="512" height="274" viewBox="0 0 512 274" fill="none" xmlns="http://www.w3.org/2000/svg">
    <path d="M235.947 132.122C233.97 130.991 231.87 130.117 229.706 129.487C231.879 128.053 248.121 119.45 248.121 119.45L256.008 120.377L254.152 130.114C254.152 130.114 241.657 135.914 241.323 136.108C239.712 134.595 237.918 133.25 235.947 132.122ZM327.768 140.887L299.363 132.924C295.937 132.008 292.427 131.846 289.023 132.397C285.797 129.746 282.027 127.567 278.303 125.419L271.419 121.441V127.796L265.287 132.122L272.4 135.518C273.999 136.44 275.455 137.291 276.78 138.109C273.108 141.271 270.465 145.438 269.175 150.194C268.338 153.287 268.152 156.4 268.511 159.401H273.242C275.974 159.401 278.42 158.196 280.09 156.299C280.11 155.283 280.248 154.254 280.526 153.229C281.294 150.391 282.989 147.959 285.351 146.247C285.855 147.467 286.121 148.803 286.121 150.337C286.121 154.387 284.074 158.317 280.778 160.691C280.776 160.683 280.774 160.675 280.772 160.668C278.659 162.175 276.073 163.071 273.268 163.071L245.503 163.131C246.661 159.036 246.764 154.591 245.573 150.193C243.89 143.98 239.684 138.565 234.074 135.355C229.441 132.705 223.874 131.604 218.532 132.301C215.64 132.678 184.238 140.886 184.238 140.886C177.894 142.584 172.591 146.642 169.304 152.313C166.017 157.984 165.147 164.579 166.855 170.881C168.562 177.184 172.646 182.453 178.354 185.718C182.152 187.891 186.359 189 190.619 189C192.762 189 194.919 188.719 197.043 188.151L228.189 180.187C232.129 179.133 235.584 177.177 238.4 174.61C239.416 174.738 240.449 174.811 241.5 174.811C241.5 174.811 273.241 174.812 273.244 174.812C279.55 174.657 285.743 172.32 290.312 167.956C292.171 166.178 293.751 164.113 294.978 161.835C294.988 161.817 294.996 161.799 295.006 161.781C297.421 157.278 298.325 152.039 297.651 146.987C297.533 146.101 297.374 145.247 297.165 144.432L324.711 152.165C328.027 153.051 330.799 155.172 332.518 158.138C334.236 161.103 334.691 164.55 333.798 167.845C331.952 174.658 324.872 178.709 318.016 176.874L293.59 169.975C290.039 173.607 285.518 176.298 280.442 177.621C282.313 178.722 284.355 179.6 286.556 180.188L314.962 188.151C317.085 188.719 319.241 189 321.385 189C325.645 189 329.852 187.89 333.65 185.718C339.358 182.453 343.442 177.184 345.15 170.881C348.682 157.85 340.883 144.395 327.768 140.887ZM233.967 160.693C230.802 158.415 228.715 154.75 228.631 150.598C227.98 149.859 227.218 149.212 226.335 148.707C224.942 147.91 223.371 147.424 221.796 147.489C219.714 147.574 216.941 148.467 216.941 148.467C216.897 149.075 216.868 149.695 216.868 150.337C216.868 157.715 220.176 164.337 225.391 168.827C225.304 168.852 225.222 168.886 225.135 168.91L193.987 176.874C190.672 177.761 187.202 177.309 184.218 175.601C181.234 173.894 179.098 171.14 178.206 167.845C176.36 161.032 180.436 153.998 187.293 152.164C190.847 151.214 211.639 146.077 214.313 145.306C217.07 144.511 219.9 143.688 222.802 143.816C224.692 143.899 226.578 144.539 228.21 145.472C231.138 147.148 233.344 149.986 234.222 153.228C234.912 155.781 234.773 158.364 233.967 160.693Z" fill="#DC3545"/>
    <path d="M257.473 89.0003C256.933 89.0015 256.404 89.138 255.941 89.393C254.86 89.988 254.209 91.1327 254.246 92.3873L254.612 104.937C254.665 106.789 256.197 108.29 258.035 108.27C258.575 108.268 259.103 108.132 259.566 107.877C260.647 107.282 261.299 106.137 261.261 104.883L260.895 92.3325C260.865 91.4344 260.501 90.5915 259.85 89.9582C259.204 89.3349 258.359 88.9886 257.473 89.0003Z" fill="#DC3545"/>
    <path d="M238.69 96.8283C237.628 95.7905 236.055 95.5617 234.781 96.263C234.492 96.4224 234.23 96.6312 233.999 96.8742C232.741 98.1979 232.803 100.341 234.137 101.641L243.159 110.43C244.221 111.468 245.794 111.697 247.068 110.995C247.357 110.836 247.619 110.627 247.85 110.384C248.462 109.738 248.777 108.895 248.757 107.991C248.727 107.093 248.363 106.25 247.712 105.617L238.69 96.8283Z" fill="#DC3545"/>
    <path d="M268.195 110.995C269.257 112.033 270.83 112.262 272.104 111.56C272.393 111.401 272.656 111.192 272.886 110.949L281.383 101.994C282.64 100.671 282.578 98.5279 281.24 97.2423C280.178 96.2045 278.605 95.9756 277.331 96.677C277.042 96.8364 276.78 97.0453 276.549 97.2883L268.047 106.233C266.79 107.557 266.861 109.694 268.195 110.995Z" fill="#DC3545"/>
</svg>