<svg width="513" height="180" viewBox="0 0 513 180" fill="none" xmlns="http://www.w3.org/2000/svg">
    <rect width="513" height="180" rx="16" fill="url(#paint0_linear_10066_130052)"/>
    <g filter="url(#filter0_d_10066_130052)">
        <rect x="133.792" y="29" width="247.17" height="32.34" rx="7.7" fill="white"/>
    </g>
    <path d="M208.093 49.5994H213.031C213.701 49.5994 214.027 49.271 214.027 48.5527V44.7868C214.027 44.1403 213.758 43.8068 213.203 43.7504V42.4574C213.203 40.5231 211.921 39.5894 210.562 39.5894C209.203 39.5894 207.922 40.5231 207.922 42.4574V43.776C207.414 43.853 207.097 44.1813 207.097 44.7868V48.5527C207.097 49.271 207.424 49.5994 208.093 49.5994ZM208.757 42.3497C208.757 41.0619 209.592 40.3795 210.562 40.3795C211.532 40.3795 212.368 41.0619 212.368 42.3497V43.7452L208.757 43.7504V42.3497Z" fill="#676769"/>
    <path d="M221.477 40.6403C221.071 40.6403 220.739 40.3086 220.739 39.9026C220.739 39.4898 221.071 39.1649 221.477 39.1649C221.889 39.1649 222.214 39.4898 222.214 39.9026C222.214 40.3086 221.889 40.6403 221.477 40.6403ZM220.888 48.8696V41.8313H222.065V48.8696H220.888ZM226.454 49.005C224.654 49.005 223.463 47.5703 223.463 45.3505V45.3437C223.463 43.124 224.667 41.696 226.434 41.696C227.429 41.696 228.247 42.1968 228.687 43.0089H228.714V39.104H229.892V48.8696H228.714V47.6785H228.687C228.247 48.4974 227.462 49.005 226.454 49.005ZM226.684 47.9628C227.875 47.9628 228.721 46.9273 228.721 45.3505V45.3437C228.721 43.7736 227.868 42.7382 226.684 42.7382C225.439 42.7382 224.667 43.7398 224.667 45.3437V45.3505C224.667 46.9679 225.439 47.9628 226.684 47.9628ZM234.517 49.005C232.494 49.005 231.276 47.5906 231.276 45.3776V45.3708C231.276 43.1916 232.521 41.696 234.443 41.696C236.365 41.696 237.536 43.124 237.536 45.2354V45.6686H232.467C232.494 47.1168 233.293 47.9628 234.545 47.9628C235.438 47.9628 236.067 47.5161 236.27 46.9138L236.291 46.8529H237.448L237.434 46.9206C237.204 48.0846 236.054 49.005 234.517 49.005ZM234.436 42.7382C233.414 42.7382 232.616 43.4353 232.487 44.7482H236.338C236.223 43.3811 235.465 42.7382 234.436 42.7382ZM238.865 48.8696V41.8313H240.043V42.8329H240.07C240.449 42.1765 241.166 41.696 242.236 41.696C243.779 41.696 244.672 42.6976 244.672 44.3015V48.8696H243.495V44.5113C243.495 43.3676 242.96 42.7382 241.877 42.7382C240.767 42.7382 240.043 43.53 240.043 44.7279V48.8696H238.865ZM248.601 49.005C247.308 49.005 246.672 48.423 246.672 47.0762V42.8059H245.643V41.8313H246.672V39.9297H247.89V41.8313H249.23V42.8059H247.89V47.0695C247.89 47.8207 248.222 48.0304 248.851 48.0304C248.993 48.0304 249.128 48.0101 249.23 48.0034V48.9576C249.081 48.9779 248.831 49.005 248.601 49.005ZM251.297 40.6403C250.891 40.6403 250.56 40.3086 250.56 39.9026C250.56 39.4898 250.891 39.1649 251.297 39.1649C251.71 39.1649 252.035 39.4898 252.035 39.9026C252.035 40.3086 251.71 40.6403 251.297 40.6403ZM250.708 48.8696V41.8313H251.886V48.8696H250.708ZM255.916 49.005C254.623 49.005 253.987 48.423 253.987 47.0762V42.8059H252.959V41.8313H253.987V39.9297H255.205V41.8313H256.545V42.8059H255.205V47.0695C255.205 47.8207 255.537 48.0304 256.166 48.0304C256.309 48.0304 256.444 48.0101 256.545 48.0034V48.9576C256.396 48.9779 256.146 49.005 255.916 49.005ZM258.626 51.2383C258.396 51.2383 258.146 51.2112 257.997 51.1841V50.2231C258.098 50.2434 258.234 50.2638 258.376 50.2638C259.12 50.2638 259.533 50.0743 259.817 49.2757L259.959 48.8764L257.347 41.8313H258.606L260.548 47.6921H260.575L262.524 41.8313H263.763L261.015 49.3095C260.514 50.6563 259.899 51.2383 258.626 51.2383ZM264.538 48.9644C264.104 48.9644 263.766 48.626 263.766 48.1929C263.766 47.7597 264.104 47.4214 264.538 47.4214C264.971 47.4214 265.309 47.7597 265.309 48.1929C265.309 48.626 264.971 48.9644 264.538 48.9644ZM267.593 40.6403C267.187 40.6403 266.855 40.3086 266.855 39.9026C266.855 39.4898 267.187 39.1649 267.593 39.1649C268.006 39.1649 268.331 39.4898 268.331 39.9026C268.331 40.3086 268.006 40.6403 267.593 40.6403ZM267.004 48.8696V41.8313H268.182V48.8696H267.004ZM272.841 49.005C270.845 49.005 269.579 47.5838 269.579 45.3437V45.337C269.579 43.1172 270.872 41.696 272.828 41.696C274.58 41.696 275.616 42.86 275.765 44.0646L275.772 44.1188H274.621L274.607 44.0646C274.432 43.3608 273.863 42.7382 272.828 42.7382C271.603 42.7382 270.784 43.7533 270.784 45.3505V45.3573C270.784 46.995 271.623 47.9628 272.841 47.9628C273.802 47.9628 274.418 47.4214 274.614 46.6363L274.628 46.5822H275.785L275.778 46.6296C275.589 47.9695 274.432 49.005 272.841 49.005ZM280.438 49.0321C278.191 49.0321 276.858 47.0898 276.858 43.9902V43.9767C276.858 40.8771 278.191 38.9416 280.438 38.9416C282.684 38.9416 284.031 40.8771 284.031 43.9767V43.9902C284.031 47.0898 282.684 49.0321 280.438 49.0321ZM280.438 47.9695C281.926 47.9695 282.806 46.4401 282.806 43.9902V43.9767C282.806 41.5268 281.926 40.0109 280.438 40.0109C278.949 40.0109 278.083 41.5268 278.083 43.9767V43.9902C278.083 46.4401 278.949 47.9695 280.438 47.9695ZM286.004 48.9644C285.571 48.9644 285.232 48.626 285.232 48.1929C285.232 47.7597 285.571 47.4214 286.004 47.4214C286.437 47.4214 286.775 47.7597 286.775 48.1929C286.775 48.626 286.437 48.9644 286.004 48.9644ZM290.453 49.005C289.052 49.005 288.112 48.159 288.112 46.88V46.8664C288.112 45.6686 289.046 44.9174 290.663 44.8226L292.68 44.7076V44.1188C292.68 43.2593 292.118 42.7382 291.137 42.7382C290.23 42.7382 289.662 43.1713 289.526 43.8007L289.513 43.8616H288.376L288.383 43.7872C288.484 42.6299 289.492 41.696 291.15 41.696C292.815 41.696 293.857 42.5961 293.857 44.0037V48.8696H292.68V47.7259H292.653C292.24 48.4974 291.394 49.005 290.453 49.005ZM289.316 46.88C289.316 47.5567 289.871 47.9831 290.717 47.9831C291.827 47.9831 292.68 47.2183 292.68 46.1964V45.6212L290.799 45.7362C289.858 45.7904 289.316 46.21 289.316 46.8664V46.88ZM295.492 51.2383V41.8313H296.669V43.0224H296.696C297.136 42.2036 297.921 41.696 298.93 41.696C300.73 41.696 301.921 43.1307 301.921 45.3505V45.3573C301.921 47.577 300.716 49.005 298.95 49.005C297.955 49.005 297.136 48.5042 296.696 47.6921H296.669V51.2383H295.492ZM298.7 47.9628C299.945 47.9628 300.716 46.9612 300.716 45.3573V45.3505C300.716 43.733 299.945 42.7382 298.7 42.7382C297.508 42.7382 296.663 43.7736 296.663 45.3505V45.3573C296.663 46.9273 297.515 47.9628 298.7 47.9628ZM303.251 51.2383V41.8313H304.428V43.0224H304.455C304.895 42.2036 305.68 41.696 306.689 41.696C308.489 41.696 309.68 43.1307 309.68 45.3505V45.3573C309.68 47.577 308.475 49.005 306.709 49.005C305.714 49.005 304.895 48.5042 304.455 47.6921H304.428V51.2383H303.251ZM306.458 47.9628C307.704 47.9628 308.475 46.9612 308.475 45.3573V45.3505C308.475 43.733 307.704 42.7382 306.458 42.7382C305.267 42.7382 304.421 43.7736 304.421 45.3505V45.3573C304.421 46.9273 305.274 47.9628 306.458 47.9628Z" fill="#676769"/>
    <path d="M257.068 94.4419C257.312 94.686 257.707 94.686 257.951 94.4419L261.929 90.4645C262.173 90.2204 262.173 89.8247 261.929 89.5806C261.685 89.3365 261.289 89.3365 261.045 89.5806L257.51 93.1161L253.974 89.5806C253.73 89.3365 253.334 89.3365 253.09 89.5806C252.846 89.8247 252.846 90.2204 253.09 90.4645L257.068 94.4419ZM258.135 94L258.135 70L256.885 70L256.885 94L258.135 94Z" fill="url(#paint1_linear_10066_130052)"/>
    <g filter="url(#filter1_d_10066_130052)">
        <rect x="72" y="103" width="370.755" height="48.51" rx="11.55" fill="white"/>
    </g>
    <path d="M118.507 135.161H125.522C126.472 135.161 126.936 134.695 126.936 133.674V128.325C126.936 127.407 126.553 126.933 125.765 126.853V125.016C125.765 122.269 123.945 120.942 122.014 120.942C120.084 120.942 118.264 122.269 118.264 125.016V126.889C117.542 126.999 117.093 127.465 117.093 128.325V133.674C117.093 134.695 117.557 135.161 118.507 135.161ZM119.45 124.863C119.45 123.034 120.637 122.065 122.014 122.065C123.392 122.065 124.578 123.034 124.578 124.863V126.846L119.45 126.853V124.863Z" fill="#676769"/>
    <path d="M136.944 123.067C136.416 123.067 135.986 122.637 135.986 122.109C135.986 121.573 136.416 121.151 136.944 121.151C137.48 121.151 137.902 121.573 137.902 122.109C137.902 122.637 137.48 123.067 136.944 123.067ZM136.179 133.755V124.614H137.708V133.755H136.179ZM143.408 133.931C141.07 133.931 139.523 132.067 139.523 129.185V129.176C139.523 126.293 141.087 124.438 143.381 124.438C144.673 124.438 145.737 125.089 146.308 126.144H146.343V121.072H147.873V133.755H146.343V132.208H146.308C145.737 133.271 144.717 133.931 143.408 133.931ZM143.707 132.577C145.254 132.577 146.352 131.232 146.352 129.185V129.176C146.352 127.137 145.245 125.792 143.707 125.792C142.089 125.792 141.087 127.093 141.087 129.176V129.185C141.087 131.285 142.089 132.577 143.707 132.577ZM153.88 133.931C151.252 133.931 149.67 132.094 149.67 129.22V129.211C149.67 126.381 151.287 124.438 153.783 124.438C156.279 124.438 157.8 126.293 157.8 129.035V129.598H151.217C151.252 131.479 152.289 132.577 153.915 132.577C155.075 132.577 155.892 131.997 156.156 131.215L156.183 131.136H157.685L157.668 131.224C157.369 132.735 155.875 133.931 153.88 133.931ZM153.774 125.792C152.447 125.792 151.41 126.697 151.243 128.402H156.244C156.095 126.627 155.11 125.792 153.774 125.792ZM159.527 133.755V124.614H161.056V125.915H161.091C161.583 125.062 162.515 124.438 163.904 124.438C165.907 124.438 167.068 125.739 167.068 127.822V133.755H165.538V128.095C165.538 126.609 164.844 125.792 163.438 125.792C161.996 125.792 161.056 126.82 161.056 128.376V133.755H159.527ZM172.169 133.931C170.491 133.931 169.665 133.175 169.665 131.426V125.88H168.329V124.614H169.665V122.145H171.247V124.614H172.987V125.88H171.247V131.417C171.247 132.393 171.677 132.665 172.495 132.665C172.679 132.665 172.855 132.639 172.987 132.63V133.869C172.794 133.896 172.468 133.931 172.169 133.931ZM175.672 123.067C175.144 123.067 174.714 122.637 174.714 122.109C174.714 121.573 175.144 121.151 175.672 121.151C176.208 121.151 176.63 121.573 176.63 122.109C176.63 122.637 176.208 123.067 175.672 123.067ZM174.907 133.755V124.614H176.436V133.755H174.907ZM181.67 133.931C179.991 133.931 179.165 133.175 179.165 131.426V125.88H177.829V124.614H179.165V122.145H180.747V124.614H182.487V125.88H180.747V131.417C180.747 132.393 181.178 132.665 181.995 132.665C182.18 132.665 182.356 132.639 182.487 132.63V133.869C182.294 133.896 181.969 133.931 181.67 133.931ZM185.19 136.831C184.891 136.831 184.566 136.796 184.373 136.761V135.513C184.504 135.539 184.68 135.565 184.865 135.565C185.832 135.565 186.368 135.319 186.737 134.282L186.921 133.764L183.529 124.614H185.164L187.686 132.226H187.721L190.252 124.614H191.861L188.292 134.326C187.642 136.075 186.842 136.831 185.19 136.831ZM192.867 133.878C192.305 133.878 191.865 133.438 191.865 132.876C191.865 132.313 192.305 131.874 192.867 131.874C193.43 131.874 193.869 132.313 193.869 132.876C193.869 133.438 193.43 133.878 192.867 133.878ZM196.835 123.067C196.308 123.067 195.877 122.637 195.877 122.109C195.877 121.573 196.308 121.151 196.835 121.151C197.371 121.151 197.793 121.573 197.793 122.109C197.793 122.637 197.371 123.067 196.835 123.067ZM196.07 133.755V124.614H197.6V133.755H196.07ZM199.863 133.755V124.614H201.392V125.915H201.427C201.919 125.062 202.851 124.438 204.24 124.438C206.244 124.438 207.404 125.739 207.404 127.822V133.755H205.874V128.095C205.874 126.609 205.18 125.792 203.774 125.792C202.332 125.792 201.392 126.82 201.392 128.376V133.755H199.863ZM212.506 133.931C210.827 133.931 210.001 133.175 210.001 131.426V125.88H208.665V124.614H210.001V122.145H211.583V124.614H213.323V125.88H211.583V131.417C211.583 132.393 212.013 132.665 212.831 132.665C213.015 132.665 213.191 132.639 213.323 132.63V133.869C213.13 133.896 212.804 133.931 212.506 133.931ZM218.645 133.931C216.017 133.931 214.435 132.094 214.435 129.22V129.211C214.435 126.381 216.052 124.438 218.548 124.438C221.044 124.438 222.565 126.293 222.565 129.035V129.598H215.982C216.017 131.479 217.054 132.577 218.68 132.577C219.84 132.577 220.657 131.997 220.921 131.215L220.947 131.136H222.45L222.433 131.224C222.134 132.735 220.64 133.931 218.645 133.931ZM218.539 125.792C217.212 125.792 216.175 126.697 216.008 128.402H221.009C220.859 126.627 219.875 125.792 218.539 125.792ZM224.291 133.755V124.614H225.821V126.161H225.856C226.164 125.106 226.955 124.438 227.983 124.438C228.247 124.438 228.475 124.482 228.598 124.5V125.985C228.475 125.941 228.15 125.897 227.781 125.897C226.594 125.897 225.821 126.724 225.821 128.112V133.755H224.291ZM230.026 133.755V124.614H231.555V125.915H231.591C232.083 125.062 233.014 124.438 234.403 124.438C236.407 124.438 237.567 125.739 237.567 127.822V133.755H236.038V128.095C236.038 126.609 235.344 125.792 233.937 125.792C232.496 125.792 231.555 126.82 231.555 128.376V133.755H230.026ZM243.46 133.931C240.832 133.931 239.25 132.094 239.25 129.22V129.211C239.25 126.381 240.867 124.438 243.363 124.438C245.859 124.438 247.38 126.293 247.38 129.035V129.598H240.797C240.832 131.479 241.869 132.577 243.495 132.577C244.655 132.577 245.473 131.997 245.736 131.215L245.763 131.136H247.266L247.248 131.224C246.949 132.735 245.455 133.931 243.46 133.931ZM243.355 125.792C242.027 125.792 240.99 126.697 240.823 128.402H245.824C245.675 126.627 244.69 125.792 243.355 125.792ZM252.078 133.931C250.399 133.931 249.573 133.175 249.573 131.426V125.88H248.237V124.614H249.573V122.145H251.155V124.614H252.895V125.88H251.155V131.417C251.155 132.393 251.585 132.665 252.403 132.665C252.587 132.665 252.763 132.639 252.895 132.63V133.869C252.702 133.896 252.376 133.931 252.078 133.931ZM258.243 133.931C255.65 133.931 254.007 132.085 254.007 129.176V129.167C254.007 126.284 255.685 124.438 258.225 124.438C260.502 124.438 261.846 125.95 262.04 127.515L262.049 127.585H260.554L260.537 127.515C260.308 126.601 259.57 125.792 258.225 125.792C256.634 125.792 255.571 127.11 255.571 129.185V129.193C255.571 131.32 256.661 132.577 258.243 132.577C259.491 132.577 260.291 131.874 260.546 130.854L260.563 130.784H262.066L262.057 130.846C261.811 132.586 260.308 133.931 258.243 133.931ZM267.44 133.931C264.9 133.931 263.204 132.094 263.204 129.185V129.167C263.204 126.258 264.909 124.438 267.432 124.438C269.954 124.438 271.668 126.249 271.668 129.167V129.185C271.668 132.103 269.963 133.931 267.44 133.931ZM267.449 132.577C269.058 132.577 270.104 131.329 270.104 129.185V129.167C270.104 127.022 269.049 125.792 267.432 125.792C265.841 125.792 264.769 127.031 264.769 129.167V129.185C264.769 131.338 265.832 132.577 267.449 132.577ZM273.395 133.755V124.614H274.924V125.95H274.959C275.372 125.045 276.286 124.438 277.464 124.438C278.712 124.438 279.635 125.08 280.031 126.196H280.066C280.576 125.098 281.648 124.438 282.931 124.438C284.742 124.438 285.91 125.625 285.91 127.444V133.755H284.381V127.796C284.381 126.539 283.687 125.792 282.483 125.792C281.27 125.792 280.417 126.697 280.417 127.945V133.755H278.888V127.629C278.888 126.521 278.15 125.792 277.016 125.792C275.803 125.792 274.924 126.75 274.924 128.024V133.755H273.395ZM288.042 136.831V124.614H289.571V126.161H289.606C290.177 125.098 291.197 124.438 292.507 124.438C294.844 124.438 296.391 126.302 296.391 129.185V129.193C296.391 132.076 294.827 133.931 292.533 133.931C291.241 133.931 290.177 133.28 289.606 132.226H289.571V136.831H288.042ZM292.208 132.577C293.825 132.577 294.827 131.276 294.827 129.193V129.185C294.827 127.084 293.825 125.792 292.208 125.792C290.661 125.792 289.562 127.137 289.562 129.185V129.193C289.562 131.232 290.67 132.577 292.208 132.577ZM301.238 133.931C299.234 133.931 298.074 132.63 298.074 130.547V124.614H299.604V130.274C299.604 131.76 300.298 132.577 301.704 132.577C303.146 132.577 304.086 131.549 304.086 129.993V124.614H305.615V133.755H304.086V132.454H304.051C303.559 133.307 302.627 133.931 301.238 133.931ZM310.761 133.931C309.082 133.931 308.256 133.175 308.256 131.426V125.88H306.92V124.614H308.256V122.145H309.838V124.614H311.578V125.88H309.838V131.417C309.838 132.393 310.269 132.665 311.086 132.665C311.271 132.665 311.447 132.639 311.578 132.63V133.869C311.385 133.896 311.06 133.931 310.761 133.931ZM316.9 133.931C314.272 133.931 312.69 132.094 312.69 129.22V129.211C312.69 126.381 314.307 124.438 316.803 124.438C319.299 124.438 320.82 126.293 320.82 129.035V129.598H314.237C314.272 131.479 315.309 132.577 316.935 132.577C318.095 132.577 318.913 131.997 319.176 131.215L319.203 131.136H320.706L320.688 131.224C320.389 132.735 318.895 133.931 316.9 133.931ZM316.795 125.792C315.467 125.792 314.43 126.697 314.263 128.402H319.264C319.115 126.627 318.13 125.792 316.795 125.792ZM322.547 133.755V124.614H324.076V126.161H324.111C324.419 125.106 325.21 124.438 326.238 124.438C326.502 124.438 326.73 124.482 326.853 124.5V125.985C326.73 125.941 326.405 125.897 326.036 125.897C324.85 125.897 324.076 126.724 324.076 128.112V133.755H322.547ZM328.343 133.878C327.781 133.878 327.341 133.438 327.341 132.876C327.341 132.313 327.781 131.874 328.343 131.874C328.906 131.874 329.345 132.313 329.345 132.876C329.345 133.438 328.906 133.878 328.343 133.878ZM334.711 133.931C332.171 133.931 330.474 132.094 330.474 129.185V129.167C330.474 126.258 332.179 124.438 334.702 124.438C337.224 124.438 338.938 126.249 338.938 129.167V129.185C338.938 132.103 337.233 133.931 334.711 133.931ZM334.719 132.577C336.328 132.577 337.374 131.329 337.374 129.185V129.167C337.374 127.022 336.319 125.792 334.702 125.792C333.111 125.792 332.039 127.031 332.039 129.167V129.185C332.039 131.338 333.102 132.577 334.719 132.577ZM340.665 133.755V124.614H342.194V126.161H342.229C342.537 125.106 343.328 124.438 344.356 124.438C344.62 124.438 344.849 124.482 344.972 124.5V125.985C344.849 125.941 344.523 125.897 344.154 125.897C342.968 125.897 342.194 126.724 342.194 128.112V133.755H340.665ZM349.827 137.007C347.569 137.007 346.145 135.943 345.846 134.59L345.828 134.511H347.366L347.402 134.59C347.692 135.249 348.562 135.653 349.81 135.653C351.418 135.653 352.332 134.766 352.332 133.351V132.182H352.297C351.752 133.192 350.697 133.843 349.388 133.843C347.085 133.843 345.512 131.988 345.512 129.132V129.123C345.512 126.284 347.103 124.438 349.423 124.438C350.715 124.438 351.735 125.142 352.297 126.161H352.332V124.614H353.862V133.5C353.862 135.618 352.306 137.007 349.827 137.007ZM349.722 132.489C351.278 132.489 352.332 131.162 352.332 129.132V129.123C352.332 127.11 351.269 125.792 349.722 125.792C348.096 125.792 347.076 127.093 347.076 129.123V129.132C347.076 131.206 348.096 132.489 349.722 132.489Z" fill="#202124"/>
    <rect x="359.968" y="119.309" width="42.32" height="18.3925" rx="3.39251" fill="#16B364" fill-opacity="0.1"/>
    <path d="M375.21 133.005H373.726L369.57 126.629V133.005H368.145V124.586H369.962L373.785 130.559V124.586H375.21V133.005ZM382.53 133.005H377.329V124.586H382.53V125.916H378.754V128.149H382.173V129.443H378.754V131.675H382.53V133.005ZM392.041 130.784L393.692 124.586H395.164L392.801 133.005H391.329L389.287 126.641L387.244 133.005H385.784L383.397 124.586H384.893L386.58 130.737L388.551 124.586H390.035L392.041 130.784Z" fill="#16B364"/>
    <defs>
        <filter id="filter0_d_10066_130052" x="124.552" y="21.3" width="265.65" height="50.8198" filterUnits="userSpaceOnUse" color-interpolation-filters="sRGB">
            <feFlood flood-opacity="0" result="BackgroundImageFix"/>
            <feColorMatrix in="SourceAlpha" type="matrix" values="0 0 0 0 0 0 0 0 0 0 0 0 0 0 0 0 0 0 127 0" result="hardAlpha"/>
            <feOffset dy="1.54"/>
            <feGaussianBlur stdDeviation="4.62"/>
            <feComposite in2="hardAlpha" operator="out"/>
            <feColorMatrix type="matrix" values="0 0 0 0 0 0 0 0 0 0 0 0 0 0 0 0 0 0 0.13 0"/>
            <feBlend mode="normal" in2="BackgroundImageFix" result="effect1_dropShadow_10066_130052"/>
            <feBlend mode="normal" in="SourceGraphic" in2="effect1_dropShadow_10066_130052" result="shape"/>
        </filter>
        <filter id="filter1_d_10066_130052" x="58.14" y="91.45" width="398.475" height="76.2298" filterUnits="userSpaceOnUse" color-interpolation-filters="sRGB">
            <feFlood flood-opacity="0" result="BackgroundImageFix"/>
            <feColorMatrix in="SourceAlpha" type="matrix" values="0 0 0 0 0 0 0 0 0 0 0 0 0 0 0 0 0 0 127 0" result="hardAlpha"/>
            <feOffset dy="2.31"/>
            <feGaussianBlur stdDeviation="6.93"/>
            <feComposite in2="hardAlpha" operator="out"/>
            <feColorMatrix type="matrix" values="0 0 0 0 0 0 0 0 0 0 0 0 0 0 0 0 0 0 0.13 0"/>
            <feBlend mode="normal" in2="BackgroundImageFix" result="effect1_dropShadow_10066_130052"/>
            <feBlend mode="normal" in="SourceGraphic" in2="effect1_dropShadow_10066_130052" result="shape"/>
        </filter>
        <linearGradient id="paint0_linear_10066_130052" x1="256.5" y1="0" x2="256.5" y2="180" gradientUnits="userSpaceOnUse">
            <stop stop-color="#E8F1FF"/>
            <stop offset="1" stop-color="#D3E4FF"/>
        </linearGradient>
        <linearGradient id="paint1_linear_10066_130052" x1="258.01" y1="70" x2="258.01" y2="94" gradientUnits="userSpaceOnUse">
            <stop stop-color="#D6D6D6"/>
            <stop offset="1" stop-color="#676769"/>
        </linearGradient>
    </defs>
</svg>