<svg width="512" height="120" viewBox="0 0 512 120" fill="none" xmlns="http://www.w3.org/2000/svg">
    <g clip-path="url(#clip0_10072_19091)">
        <rect width="513" height="120" rx="16" fill="url(#paint0_linear_10072_19091)"/>
        <path d="M245.832 28.7898L243.464 19.9255C243.15 18.7033 241.904 17.9663 240.692 18.3196C238.052 19.089 235.451 19.9017 232.921 20.74C231.809 21.1081 231.181 22.2784 231.471 23.412L233.93 32.5831C233.93 32.5831 246.289 28.6586 245.832 28.7898Z" fill="#0166FF"/>
        <path d="M233.93 32.5894C233.93 32.5894 235.718 32.0145 236.807 31.6678L234.362 22.5382C234.072 21.4045 234.7 20.2342 235.808 19.8662C237.429 19.3298 239.113 18.8271 240.782 18.3164C240.749 18.3235 240.72 18.315 240.692 18.324C238.052 19.0934 235.451 19.9061 232.921 20.7445C231.809 21.1125 231.181 22.2828 231.471 23.4165L233.93 32.5894Z" fill="#448EFF"/>
        <path d="M246.018 29.1944C246.018 29.1944 244.173 29.5496 243.05 29.7703L240.806 20.5892C240.516 19.4551 239.403 18.7308 238.252 18.9424C236.574 19.2511 234.857 19.6201 233.145 19.9744C233.178 19.9663 233.197 19.9444 233.231 19.9377C235.913 19.3438 238.585 18.8055 241.205 18.3233C242.356 18.1117 243.469 18.8359 243.759 19.9701L246.018 29.1944Z" fill="#054FBE"/>
        <path d="M245.832 28.7898L243.464 19.9255C243.15 18.7033 241.904 17.9663 240.692 18.3196C238.052 19.089 235.451 19.9017 232.921 20.74C231.809 21.1081 231.181 22.2784 231.471 23.412L233.93 32.5831C233.93 32.5831 246.289 28.6586 245.832 28.7898Z" stroke="black" stroke-width="1.21412" stroke-miterlimit="10" stroke-linecap="round" stroke-linejoin="round"/>
        <path d="M254.054 94.0022L253.959 103.178C253.959 104.439 252.932 105.463 251.672 105.422C248.928 105.331 246.203 105.189 243.545 105.005C242.375 104.925 241.476 103.946 241.476 102.776L241.581 93.2827C241.581 93.2827 254.53 94.016 254.054 94.0022Z" fill="#0166FF"/>
        <path d="M241.581 93.2764C241.581 93.2764 243.454 93.39 244.596 93.4547L244.491 102.906C244.491 104.077 245.39 105.054 246.56 105.135C248.262 105.253 250.017 105.322 251.762 105.402C251.729 105.403 251.7 105.419 251.672 105.417C248.923 105.327 246.203 105.185 243.54 105.001C242.375 104.921 241.476 103.942 241.476 102.772L241.581 93.2764Z" fill="#448EFF"/>
        <path d="M254.13 93.5645C254.13 93.5645 252.257 93.6776 251.115 93.7428L251.22 103.194C251.22 104.364 250.321 105.342 249.156 105.423C247.454 105.541 245.694 105.61 243.954 105.69C243.982 105.69 244.011 105.706 244.044 105.705C246.788 105.614 249.508 105.473 252.171 105.289C253.336 105.209 254.235 104.231 254.235 103.06L254.13 93.5645Z" fill="#054FBE"/>
        <path d="M254.054 94.0022L253.959 103.178C253.959 104.439 252.932 105.463 251.672 105.422C248.928 105.331 246.203 105.189 243.545 105.005C242.375 104.925 241.476 103.946 241.476 102.776L241.581 93.2827C241.581 93.2827 254.53 94.016 254.054 94.0022Z" stroke="black" stroke-width="1.21412" stroke-miterlimit="10" stroke-linecap="round" stroke-linejoin="round"/>
        <path d="M251.819 26.8298L249.632 17.9184C249.322 16.6963 250.06 15.449 251.296 15.1765C253.978 14.583 256.646 14.0442 259.271 13.5621C260.421 13.3504 261.534 14.0752 261.824 15.2088L264.083 24.4312C264.083 24.4312 251.358 26.9344 251.819 26.8298Z" fill="#0166FF"/>
        <path d="M264.083 24.4367C264.083 24.4367 262.243 24.7924 261.116 25.0131L258.871 15.8315C258.581 14.6979 257.468 13.9732 256.318 14.1853C254.639 14.4934 252.922 14.8624 251.215 15.2167C251.244 15.2091 251.267 15.1872 251.296 15.1805C253.978 14.5866 256.65 14.0483 259.275 13.5661C260.426 13.354 261.539 14.0787 261.829 15.2124L264.083 24.4367Z" fill="#054FBE"/>
        <path d="M251.852 27.273C251.852 27.273 253.64 26.6981 254.734 26.3514L252.285 17.2217C251.995 16.0881 252.623 14.9178 253.731 14.5497C255.352 14.0133 257.036 13.5107 258.705 13C258.676 13.0076 258.643 12.9986 258.614 13.0076C255.975 13.777 253.374 14.5897 250.844 15.428C249.731 15.7961 249.104 16.9664 249.394 18.1L251.852 27.273Z" fill="#448EFF"/>
        <path d="M268.643 92.4935L271.011 101.358C271.325 102.58 272.576 103.318 273.784 102.964C276.423 102.194 279.024 101.382 281.559 100.543C282.667 100.176 283.294 99.0054 283.004 97.8713L280.546 88.7007C280.546 88.7007 268.187 92.6248 268.643 92.4935Z" fill="#0166FF"/>
        <path d="M280.546 88.6948C280.546 88.6948 278.763 89.2697 277.669 89.6164L280.118 98.7456C280.408 99.8797 279.78 101.05 278.667 101.418C277.051 101.954 275.363 102.457 273.698 102.968C273.727 102.96 273.755 102.969 273.789 102.96C276.423 102.191 279.024 101.378 281.559 100.539C282.667 100.172 283.294 99.0014 283.004 97.8673L280.546 88.6948Z" fill="#054FBE"/>
        <path d="M268.463 92.0885C268.463 92.0885 270.303 91.7333 271.425 91.5122L273.67 100.694C273.964 101.827 275.077 102.552 276.228 102.34C277.907 102.032 279.623 101.663 281.33 101.309C281.302 101.317 281.278 101.338 281.25 101.345C278.568 101.939 275.895 102.477 273.27 102.96C272.119 103.171 271.007 102.447 270.717 101.313L268.463 92.0885Z" fill="#448EFF"/>
        <path fill-rule="evenodd" clip-rule="evenodd" d="M280.964 90.5563L269.157 94.7595C268.082 95.0677 266.998 95.3639 265.895 95.6478C264.906 95.9003 263.917 96.139 262.932 96.364L250.568 98.4045C232.337 100.083 217.51 94.6625 212.545 74.9813L211.313 70.168C206.187 50.4877 216.592 38.6275 233.388 31.3429L245.209 27.192C246.179 26.9162 247.159 26.6504 248.153 26.3941C249.256 26.1116 250.35 25.8462 251.439 25.599L263.807 23.5908C281.844 22.012 296.447 27.5368 301.455 47.0729L302.686 51.8863C307.77 71.3991 297.541 83.2546 280.964 90.5563Z" fill="#0166FF"/>
        <path d="M248.642 26.2449L260.122 25.7889C278.154 24.2096 292.762 29.7272 297.765 49.2629L299.001 54.0852C303.176 70.1087 296.932 80.907 285.425 88.3215C299.277 80.9056 307.29 69.5528 302.686 51.8831L301.455 47.075C296.452 27.5393 281.839 22.0079 263.807 23.5867C263.807 23.5867 248.952 26.2235 248.642 26.2449Z" fill="#054FBE"/>
        <path d="M236.303 29.6367C236.184 29.7342 236.017 29.8978 235.875 30.0072C235.157 30.5588 234.253 30.8893 233.335 31.1175L233.392 31.3334C216.597 38.618 206.187 50.4915 211.313 70.1718L212.545 74.9799C217.391 94.207 231.69 99.7716 249.346 98.4554C249.356 98.355 249.394 98.2618 249.408 98.1629C233.235 98.5828 220.329 92.6064 215.779 74.55L214.547 69.7419C209.421 50.0617 219.835 38.2024 236.631 30.9178L236.303 29.6367Z" fill="#448EFF"/>
        <path d="M259.271 13.559C256.646 14.0412 253.973 14.5852 251.291 15.1787C250.059 15.4512 249.327 16.6909 249.641 17.913L251.529 25.6403C250.402 25.8829 249.289 26.1087 248.153 26.3983C240.549 28.3366 233.383 31.3467 233.383 31.3467C216.587 38.6313 206.192 50.4815 211.313 70.1618L212.55 74.9765C217.51 94.6578 232.327 100.09 250.564 98.4111C250.564 98.4111 258.296 97.6094 265.899 95.6473C267.036 95.3535 268.12 95.013 269.228 94.6815L271.011 101.354C271.32 102.576 272.576 103.312 273.788 102.959C276.428 102.189 279.029 101.375 281.559 100.536C282.671 100.169 283.294 99.0103 282.999 97.8762L281.04 90.5207C297.57 83.216 307.765 71.3673 302.691 51.8839L301.459 47.0691C296.462 27.5605 281.877 22.033 263.878 23.5899L261.824 15.2086C261.534 14.0745 260.421 13.3474 259.271 13.559Z" stroke="black" stroke-width="1.21412" stroke-miterlimit="10" stroke-linecap="round" stroke-linejoin="round"/>
        <path fill-rule="evenodd" clip-rule="evenodd" d="M289.947 53.986L289.253 51.2774C284.892 33.2372 268.971 33.8178 251.172 38.1152C233.421 42.9266 219.179 50.0743 224.034 67.987L224.728 70.6956C229.108 88.8176 245.028 88.237 262.908 83.9182C280.579 79.1287 294.821 71.981 289.947 53.986Z" fill="#E8F1FF"/>
        <path d="M290.646 58.0283C290.494 56.7059 290.27 55.3454 289.876 53.8841L289.181 51.1778C284.807 33.0559 268.881 33.6313 251.001 37.95C233.844 42.6002 219.982 49.5106 223.644 66.3739C221.942 51.4275 235.228 45.0088 251.453 40.6111C269.333 36.2919 285.258 35.7165 289.633 53.8389L290.327 56.5451C290.465 57.0573 290.537 57.5333 290.646 58.0283Z" fill="#B3CCF6"/>
        <path d="M223.649 66.2793C223.801 67.6017 224.176 69.1501 224.571 70.6109L225.265 73.3171C229.645 91.4395 245.571 90.8642 263.446 86.5449C280.603 81.8952 294.469 74.9848 290.803 58.1211C292.505 73.0679 279.224 79.4862 262.994 83.8843C245.119 88.2031 229.193 88.7785 224.814 70.6565L224.119 67.9498C223.981 67.4381 223.758 66.7738 223.649 66.2793Z" fill="#054FBE"/>
        <path d="M262.927 55.7121C262.219 55.9147 261.482 55.5034 261.277 54.7939L258.866 46.3404C258.667 45.6309 259.076 44.8919 259.784 44.6898L263.298 43.6884C264.007 43.4858 264.744 43.8971 264.948 44.6066L267.359 53.0601C267.559 53.7696 267.15 54.5086 266.442 54.7107L262.927 55.7121Z" fill="black" stroke="black" stroke-width="1.21412" stroke-miterlimit="10" stroke-linecap="round" stroke-linejoin="round"/>
        <path d="M243.207 61.0444C242.499 61.247 241.757 60.8357 241.557 60.1262L239.146 51.6727C238.942 50.9632 239.355 50.2242 240.064 50.0217L243.573 49.0202C244.287 48.8181 245.024 49.2294 245.228 49.9389L247.634 58.3919C247.839 59.1014 247.43 59.8409 246.717 60.043L243.207 61.0444Z" fill="black" stroke="black" stroke-width="1.21412" stroke-miterlimit="10" stroke-linecap="round" stroke-linejoin="round"/>
        <path d="M262.699 35.7303L258.543 35.5405" stroke="black" stroke-width="1.21412" stroke-miterlimit="10" stroke-linecap="round" stroke-linejoin="round"/>
        <path d="M235.855 42.2206L239.289 39.8657" stroke="black" stroke-width="1.21412" stroke-miterlimit="10" stroke-linecap="round" stroke-linejoin="round"/>
        <path d="M253.251 70.4182C253.163 71.2935 253.425 72.2681 254.524 72.8942C256.017 73.7454 257.878 74.0262 259.733 73.5275C261.459 73.0636 262.852 72.0123 263.736 70.672C264.498 69.5121 264.239 68.5337 263.677 67.7702C263.113 67.0066 261.483 67.6177 261.483 67.6177L255.656 69.1841C255.656 69.1841 253.341 69.543 253.251 70.4182Z" fill="black" stroke="black" stroke-width="0.512534" stroke-miterlimit="10" stroke-linecap="round" stroke-linejoin="round"/>
        <g opacity="0.1" filter="url(#filter0_f_10072_19091)">
            <path d="M88.4442 174.908L65.5456 188.936C63.4329 186.439 61.3203 183.943 59.3719 180.763C52.4875 169.525 50.7873 156.278 57.2873 139.758L62.7883 125.89C66.2913 117.328 65.5405 109.915 61.6437 103.555C55.6687 93.8014 42.9566 88.7588 28.751 97.4617C13.6973 106.684 14.5284 122.796 21.8024 134.669C23.3612 137.214 25.002 139.416 26.8071 140.935L-0.557362 156.241C-3.22396 153.792 -5.51427 150.53 -7.46267 147.349C-21.4911 124.451 -17.8261 91.8791 13.5535 72.6549C46.4172 52.5215 76.3206 62.7785 89.4398 84.1929C99.7014 100.943 98.4945 118.012 91.4406 134.581L86.5145 146.055C82.341 155.902 82.3392 164.942 87.6648 173.635L88.4442 174.908ZM79.5035 222.667C73.7882 213.338 76.5329 201.159 85.862 195.444C95.191 189.728 107.5 192.685 113.215 202.014C118.931 211.343 115.844 223.44 106.515 229.155C97.1859 234.871 85.2188 231.996 79.5035 222.667Z" fill="#054FBE"/>
        </g>
        <g opacity="0.1" filter="url(#filter1_f_10072_19091)">
            <path d="M407.506 91.6677L384.502 85.504C384.818 82.6209 385.134 79.7378 385.99 76.5429C389.015 65.2542 396.497 56.073 411.092 50.1674L423.37 45.239C431.016 42.2653 435.326 37.2563 437.038 30.8665C439.663 21.0687 435.146 9.8136 420.875 5.98979C405.752 1.9377 395.896 12.3092 392.7 24.2369C392.015 26.7928 391.601 29.1928 391.726 31.281L365.174 23.025C365.121 19.8148 365.821 16.3498 366.677 13.1549C372.841 -9.84855 396.029 -27.3772 427.552 -18.9306C460.566 -10.0845 472.226 15.4118 466.462 36.9243C461.953 53.7509 450.237 63.3957 435.274 68.9742L424.886 72.8111C416.004 76.1385 410.188 81.657 407.848 90.3897L407.506 91.6677ZM371.328 115.076C373.839 105.704 383.348 100.033 392.72 102.545C402.092 105.056 407.705 114.778 405.194 124.15C402.683 133.522 393.018 138.922 383.646 136.411C374.274 133.9 368.817 124.447 371.328 115.076Z" fill="#054FBE"/>
        </g>
    </g>
    <defs>
        <filter id="filter0_f_10072_19091" x="-29.2666" y="47.8115" width="159.36" height="198.28" filterUnits="userSpaceOnUse" color-interpolation-filters="sRGB">
            <feFlood flood-opacity="0" result="BackgroundImageFix"/>
            <feBlend mode="normal" in="SourceGraphic" in2="BackgroundImageFix" result="shape"/>
            <feGaussianBlur stdDeviation="7" result="effect1_foregroundBlur_10072_19091"/>
        </filter>
        <filter id="filter1_f_10072_19091" x="351.171" y="-35.0884" width="130.703" height="186.114" filterUnits="userSpaceOnUse" color-interpolation-filters="sRGB">
            <feFlood flood-opacity="0" result="BackgroundImageFix"/>
            <feBlend mode="normal" in="SourceGraphic" in2="BackgroundImageFix" result="shape"/>
            <feGaussianBlur stdDeviation="7" result="effect1_foregroundBlur_10072_19091"/>
        </filter>
        <linearGradient id="paint0_linear_10072_19091" x1="256.5" y1="0" x2="256.5" y2="120" gradientUnits="userSpaceOnUse">
            <stop stop-color="#E8F1FF"/>
            <stop offset="1" stop-color="#E8F1FF"/>
        </linearGradient>
        <clipPath id="clip0_10072_19091">
            <rect width="513" height="120" rx="16" fill="white"/>
        </clipPath>
    </defs>
</svg>