<svg width="46" height="46" viewBox="0 0 120 120" fill="none" xmlns="http://www.w3.org/2000/svg">
    <g clip-path="url(#clip0_550_4484)">
        <mask id="mask0_550_4484" style="mask-type:alpha" maskUnits="userSpaceOnUse" x="0" y="0" width="120" height="120">
            <circle cx="60" cy="60" r="60" fill="white"/>
        </mask>
        <g mask="url(#mask0_550_4484)">
            <circle cx="60" cy="60" r="60" fill="white"/>
            <path fill-rule="evenodd" clip-rule="evenodd" d="M14.1263 63.4479C15.7693 86.1072 33.9085 104.235 56.5825 105.877V111C31.0825 109.292 10.7088 88.9314 9 63.4479H14.1263Z" fill="#627EEA"/>
            <path fill-rule="evenodd" clip-rule="evenodd" d="M56.5825 14.1886C33.9085 15.8306 15.7693 33.958 14.1263 56.6173H9C10.643 31.1338 31.0825 10.7076 56.5825 9.06567V14.1886Z" fill="#C1CCF6"/>
            <path fill-rule="evenodd" clip-rule="evenodd" d="M105.874 56.5516C104.231 33.8923 86.0915 15.7649 63.4175 14.123V9C88.9175 10.7077 109.357 31.0681 111 56.5516H105.874Z" fill="#627EEA"/>
            <path fill-rule="evenodd" clip-rule="evenodd" d="M63.4175 105.877C86.0915 104.235 104.231 86.1072 105.874 63.4479H111C109.357 88.9314 88.9175 109.292 63.4175 111V105.877Z" fill="#C1CCF6"/>
            <path d="M80.1626 69.925C75.8266 69.925 71.2479 67.0889 69.0009 65.0327C66.5438 62.7829 59.7917 55.4581 59.7617 55.4254C55.333 50.484 49.3799 45 43.4404 45C36.2874 45 30.048 49.955 28.4254 56.519C28.5509 56.0881 30.8225 50.075 39.3608 50.075C43.6968 50.075 48.2755 52.9111 50.5225 54.9673C52.9796 57.2171 59.7317 64.5419 59.7617 64.5746C64.1904 69.516 70.1435 75 76.0829 75C83.2359 75 89.4754 70.045 91.0979 63.481C90.9725 63.9119 88.7009 69.925 80.1626 69.925Z" fill="#29ABE2"/>
            <path d="M59.759 64.5719C59.7426 64.5528 57.7982 62.4448 55.6193 60.1459C54.4413 61.5449 52.7423 63.4511 50.7925 65.1609C47.1546 68.3488 44.7903 69.0169 43.4377 69.0169C38.3354 69.0169 34.174 64.97 34.174 59.9987C34.174 55.0273 38.33 51.0104 43.4377 50.9804C43.6231 50.9804 43.8468 50.9995 44.1195 51.0486C42.5841 50.4595 40.9561 50.075 39.3581 50.075C30.8225 50.075 28.5481 56.0854 28.4227 56.519C28.1473 57.6371 28 58.8015 28 59.9987C28 68.2697 34.823 74.9973 43.3286 74.9973C46.8765 74.9973 50.847 73.1784 54.9376 69.5923C56.871 67.8961 58.5482 66.0826 59.808 64.6264C59.7917 64.6073 59.7753 64.591 59.759 64.5719Z" fill="url(#paint0_linear_550_4484)"/>
            <path d="M59.759 55.4254C59.7753 55.4445 61.7197 57.5525 63.8986 59.8514C65.0767 58.4524 66.7756 56.5462 68.7254 54.8364C72.3633 51.6485 74.7276 50.9804 76.0802 50.9804C81.1825 50.9804 85.3439 55.0273 85.3439 59.9986C85.3439 64.9427 81.1879 68.9869 76.0802 69.0169C75.8948 69.0169 75.6712 68.9978 75.3984 68.9487C76.9338 69.5378 78.5618 69.9223 80.1598 69.9223C88.6954 69.9223 90.9698 63.9119 91.0952 63.4783C91.3706 62.3602 91.5179 61.1958 91.5179 59.9986C91.5179 51.7276 84.5858 45 76.0775 45C72.5296 45 68.6681 46.8189 64.5776 50.405C62.6441 52.1012 60.967 53.9146 59.7071 55.3709C59.7235 55.39 59.7399 55.4063 59.7562 55.4254H59.759Z" fill="url(#paint1_linear_550_4484)"/>
        </g>
    </g>
    <defs>
        <linearGradient id="paint0_linear_550_4484" x1="51.4415" y1="73.0338" x2="30.5498" y2="51.4003" gradientUnits="userSpaceOnUse">
            <stop offset="0.22" stop-color="#ED1E79"/>
            <stop offset="0.89" stop-color="#522785"/>
        </linearGradient>
        <linearGradient id="paint1_linear_550_4484" x1="68.0627" y1="46.9771" x2="88.9572" y2="68.6106" gradientUnits="userSpaceOnUse">
            <stop offset="0.21" stop-color="#F15A24"/>
            <stop offset="0.68" stop-color="#FBB03B"/>
        </linearGradient>
        <clipPath id="clip0_550_4484">
            <rect width="120" height="120" fill="white"/>
        </clipPath>
    </defs>
</svg>
