<svg width="46" height="46" viewBox="0 0 120 120" fill="none" xmlns="http://www.w3.org/2000/svg">
<g clip-path="url(#clip0_470_15002)">
<circle cx="60" cy="60" r="59.5" fill="white" stroke="#DBD9D6"/>
<path d="M80.5691 41C76.097 41 71.2217 43.2445 66.069 47.6654C63.6244 49.7603 61.5132 52.0047 59.9301 53.8003C59.9301 53.8003 59.9301 53.8003 59.944 53.8139V53.8003C59.944 53.8003 62.4438 56.4665 65.2079 59.3231C66.6941 57.5956 68.8331 55.2423 71.2912 53.1202C75.8747 49.189 78.8607 48.3592 80.5691 48.3592C87 48.3592 92.2222 53.3514 92.2222 59.4864C92.2222 65.5805 86.9861 70.5727 80.5691 70.6135C80.2774 70.6135 79.9024 70.5727 79.4301 70.4775C81.3052 71.2665 83.3192 71.8378 85.236 71.8378C97.0137 71.8378 99.3194 64.3154 99.4722 63.7713C99.8194 62.3974 100 60.9555 100 59.4728C100 49.2978 91.2777 41 80.5691 41Z" fill="url(#paint0_linear_470_15002)"/>
<path d="M39.4308 78C43.9031 78 48.7782 75.7554 53.9311 71.3345C56.3756 69.2396 58.4868 66.9952 60.0699 65.1996C60.0699 65.1996 60.0699 65.1996 60.056 65.186V65.1996C60.056 65.1996 57.5562 62.5334 54.7921 59.6768C53.306 61.4044 51.1671 63.7577 48.7088 65.8797C44.1254 69.8109 41.1392 70.6407 39.4308 70.6407C33.0002 70.6272 27.7779 65.6349 27.7779 59.4999C27.7779 53.4058 33.0141 48.4136 39.4308 48.3728C39.7225 48.3728 40.0975 48.4136 40.5697 48.5088C38.6947 47.7198 36.6808 47.1485 34.7641 47.1485C22.9862 47.1485 20.6945 54.6709 20.5278 55.2014C20.1806 56.5889 20 58.0172 20 59.4999C20 69.7022 28.7223 78 39.4308 78Z" fill="url(#paint1_linear_470_15002)"/>
<path d="M85.2104 71.6746C79.1823 71.5249 72.9185 66.8727 71.6406 65.7165C68.3352 62.7238 60.7098 54.6301 60.1129 53.9908C54.5293 47.8559 46.9598 41 39.4319 41H39.418H39.4041C30.2651 41.0408 22.5844 47.1077 20.5289 55.2014C20.6816 54.6709 23.6956 46.9989 34.7513 47.2709C40.7791 47.4206 47.0709 52.1408 48.3626 53.297C51.6682 56.2897 59.2934 64.3834 59.8907 65.0227C65.474 71.144 73.0435 78 80.5713 78H80.5852H80.5991C89.7381 77.9592 97.4326 71.8922 99.4744 63.7985C99.3077 64.329 96.2798 71.933 85.2104 71.6746Z" fill="#29ABE2"/>
</g>
<defs>
<linearGradient id="paint0_linear_470_15002" x1="70.4543" y1="43.4396" x2="96.304" y2="70.771" gradientUnits="userSpaceOnUse">
<stop offset="0.21" stop-color="#F15A24"/>
<stop offset="0.6841" stop-color="#FBB03B"/>
</linearGradient>
<linearGradient id="paint1_linear_470_15002" x1="49.5456" y1="75.5602" x2="23.6959" y2="48.2289" gradientUnits="userSpaceOnUse">
<stop offset="0.21" stop-color="#ED1E79"/>
<stop offset="0.8929" stop-color="#522785"/>
</linearGradient>
<clipPath id="clip0_470_15002">
<rect width="120" height="120" fill="white"/>
</clipPath>
</defs>
</svg>
