<svg xmlns="http://www.w3.org/2000/svg" xml:space="preserve" viewBox="0 0 360 360">
  <style>
    .st4{fill:url(#SVGID_00000072977826573920158100000003846691608688022923_)}
  </style>
  <g id="Token_Background">
    <circle cx="180" cy="180" r="179" fill="#fff" transform="rotate(-45.001 179.999 180.003)"/>
    <path fill="#ddddde" d="M180 2c24 0 47.3 4.7 69.3 14 21.2 9 40.2 21.8 56.6 38.1 16.3 16.3 29.2 35.4 38.1 56.6 9.3 21.9 14 45.3 14 69.3s-4.7 47.3-14 69.3c-9 21.2-21.8 40.2-38.1 56.6-16.3 16.3-35.4 29.2-56.6 38.1-21.9 9.3-45.3 14-69.3 14s-47.3-4.7-69.3-14c-21.2-9-40.2-21.8-56.6-38.1C37.8 289.5 25 270.5 16 249.3 6.7 227.3 2 204 2 180s4.7-47.3 14-69.3c9-21.2 21.8-40.2 38.1-56.6C70.5 37.8 89.5 25 110.7 16 132.7 6.7 156 2 180 2m0-2C80.6 0 0 80.6 0 180s80.6 180 180 180 180-80.6 180-180S279.4 0 180 0z"/>
  </g>
  <g id="Infinity_Mark">
    <g id="Infinity_Mark_00000183241977157726863500000003439855629791590060_">
      <path fill="#29abe2" d="M254.8 217.4c-15.9 0-32.7-10.4-40.9-17.9-9-8.3-33.8-35.1-33.9-35.2-16.2-18.1-38.1-38.2-59.9-38.2-26.2 0-49.1 18.2-55.1 42.2.5-1.6 8.8-23.6 40.1-23.6 15.9 0 32.7 10.4 40.9 17.9 9 8.3 33.8 35.1 33.9 35.2 16.2 18.1 38.1 38.2 59.9 38.2 26.2 0 49.1-18.2 55.1-42.2-.4 1.5-8.8 23.6-40.1 23.6z"/>
      <linearGradient id="SVGID_1_" x1="149.498" x2="72.885" y1="228.805" y2="149.47" gradientUnits="userSpaceOnUse">
        <stop offset=".22" stop-color="#ed1e79"/>
        <stop offset=".892" stop-color="#522785"/>
      </linearGradient>
      <path fill="url(#SVGID_1_)" d="M180 197.8c-.1-.1-7.2-7.8-15.2-16.2-4.3 5.1-10.5 12.1-17.7 18.4-13.3 11.7-22 14.1-27 14.1-18.7 0-34-14.8-34-33.1 0-18.1 15.2-33 34-33.1.7 0 1.5.1 2.5.2-5.6-2.2-11.6-3.6-17.5-3.6-31.3 0-39.6 22-40.1 23.6-1 4.1-1.6 8.4-1.6 12.8 0 30.3 25 55 56.2 55 13 0 27.6-6.7 42.6-19.8 7.1-6.2 13.2-12.9 17.9-18.2 0 0 0-.1-.1-.1z"/>
      <linearGradient id="SVGID_00000107588343898637627670000013329189978103955082_" x1="75.257" x2="-1.356" y1="-296.506" y2="-375.841" gradientTransform="rotate(180 142.855 -81.632)" gradientUnits="userSpaceOnUse">
        <stop offset=".21" stop-color="#f15a24"/>
        <stop offset=".684" stop-color="#fbb03b"/>
      </linearGradient>
      <path fill="url(#SVGID_00000107588343898637627670000013329189978103955082_)" d="M180 164.2c.1.1 7.2 7.8 15.2 16.2 4.3-5.1 10.5-12.1 17.7-18.4 13.3-11.7 22-14.1 27-14.1 18.7 0 34 14.8 34 33.1 0 18.1-15.2 33-34 33.1-.7 0-1.5-.1-2.5-.2 5.6 2.2 11.6 3.6 17.5 3.6 31.3 0 39.6-22 40.1-23.6 1-4.1 1.6-8.4 1.6-12.8 0-30.3-25.4-55-56.6-55-13 0-27.2 6.7-42.2 19.8-7.1 6.2-13.2 12.9-17.9 18.2 0 0 0 .1.1.1z"/>
    </g>
  </g>
</svg>
