<svg width="46" height="44" viewBox="0 0 46 44" fill="none" xmlns="http://www.w3.org/2000/svg">
<path d="M3.17189 42.0749C3.45626 42.0751 3.68986 42.3104 3.69002 42.5968C3.69002 42.8834 3.45636 43.1196 3.17189 43.1198C2.88725 43.1198 2.65268 42.8835 2.65268 42.5968C2.65284 42.3103 2.88735 42.0749 3.17189 42.0749Z" fill="white"/>
<path d="M8.4067 42.0749C8.69124 42.0749 8.92575 42.3103 8.92591 42.5968C8.92591 42.8835 8.69134 43.1198 8.4067 43.1198C8.12227 43.1196 7.88857 42.8834 7.88857 42.5968C7.88873 42.3104 8.12237 42.0752 8.4067 42.0749Z" fill="white"/>
<path d="M13.6426 42.0846C13.9168 42.0847 14.1403 42.3098 14.1404 42.5861C14.1404 42.8625 13.9169 43.0885 13.6426 43.0886C13.3681 43.0886 13.1448 42.8625 13.1448 42.5861C13.1449 42.3097 13.3682 42.0846 13.6426 42.0846Z" fill="white"/>
<path d="M18.8881 42.1363C19.1349 42.1365 19.3347 42.3385 19.3347 42.5871C19.3345 42.8357 19.1348 43.0367 18.8881 43.037C18.6412 43.037 18.4406 42.8358 18.4405 42.5871C18.4405 42.3383 18.6411 42.1363 18.8881 42.1363Z" fill="white"/>
<path d="M24.1229 42.1858C24.3465 42.1858 24.5192 42.3598 24.5193 42.585C24.5193 42.8103 24.3364 42.9842 24.1229 42.9842C23.8994 42.9841 23.7266 42.8102 23.7266 42.585C23.7266 42.3598 23.8994 42.1859 24.1229 42.1858Z" fill="white"/>
<path d="M29.3588 42.2191C29.5621 42.2192 29.7242 42.3835 29.7242 42.5882C29.7239 42.7928 29.5619 42.9562 29.3588 42.9562C29.1556 42.9562 28.9926 42.7928 28.9924 42.5882C28.9924 42.3834 29.1555 42.2191 29.3588 42.2191Z" fill="white"/>
<path d="M34.6043 42.2686C34.7783 42.2687 34.9195 42.4108 34.9195 42.5861C34.9194 42.7613 34.7783 42.9034 34.6043 42.9035C34.4303 42.9035 34.2892 42.7614 34.2892 42.5861C34.2892 42.4108 34.4303 42.2686 34.6043 42.2686Z" fill="white"/>
<path d="M39.8391 42.288C40.0019 42.288 40.134 42.421 40.134 42.585C40.134 42.749 40.0019 42.882 39.8391 42.882C39.6763 42.882 39.5443 42.749 39.5443 42.585C39.5443 42.421 39.6763 42.288 39.8391 42.288Z" fill="white"/>
<path d="M45.075 42.288C45.2375 42.2882 45.3699 42.4213 45.3699 42.585C45.3698 42.7487 45.2374 42.8818 45.075 42.882C44.9124 42.882 44.7802 42.7488 44.7802 42.585C44.7802 42.4212 44.9124 42.288 45.075 42.288Z" fill="white"/>
<path d="M0.549131 36.7611C0.854079 36.7611 1.09825 37.007 1.09825 37.3142C1.09816 37.6213 0.854018 37.8673 0.549131 37.8673C0.244221 37.8673 0.000105619 37.6213 8.58307e-06 37.3142C8.58307e-06 37.007 0.24416 36.7611 0.549131 36.7611Z" fill="white"/>
<path d="M5.78395 36.7912C6.06849 36.7912 6.30193 37.0266 6.30209 37.3131C6.30209 37.5998 6.06859 37.8361 5.78395 37.8361C5.4994 37.836 5.26582 37.5998 5.26582 37.3131C5.26598 37.0266 5.4995 36.7913 5.78395 36.7912Z" fill="white"/>
<path d="M11.0295 36.8106C11.3045 36.8106 11.5272 37.0351 11.5273 37.312C11.5273 37.5892 11.3046 37.8146 11.0295 37.8146C10.7544 37.8145 10.5316 37.5891 10.5316 37.312C10.5318 37.0351 10.7545 36.8107 11.0295 36.8106Z" fill="white"/>
<path d="M16.2653 36.8622C16.5123 36.8624 16.7119 37.0644 16.7119 37.3131C16.7117 37.5617 16.5121 37.7628 16.2653 37.7629C16.0184 37.7629 15.8179 37.5618 15.8177 37.3131C15.8177 37.0643 16.0183 36.8622 16.2653 36.8622Z" fill="white"/>
<path d="M21.5002 36.8934C21.7303 36.8934 21.9167 37.0813 21.9168 37.3131C21.9168 37.545 21.7304 37.7328 21.5002 37.7328C21.2701 37.7327 21.0835 37.5449 21.0835 37.3131C21.0836 37.0814 21.2701 36.8936 21.5002 36.8934Z" fill="white"/>
<path d="M26.7457 36.9021C26.9693 36.9021 27.142 37.0761 27.142 37.3013C27.142 37.5266 26.9591 37.7005 26.7457 37.7005C26.5222 37.7004 26.3493 37.5265 26.3493 37.3013C26.3494 37.0762 26.5222 36.9022 26.7457 36.9021Z" fill="white"/>
<path d="M31.9816 36.9451C32.1847 36.9453 32.3469 37.1095 32.3469 37.3142C32.3467 37.5187 32.1846 37.6821 31.9816 37.6822C31.7784 37.6822 31.6154 37.5188 31.6151 37.3142C31.6151 37.1094 31.7782 36.9451 31.9816 36.9451Z" fill="white"/>
<path d="M37.2164 36.9946C37.3904 36.9946 37.5315 37.1367 37.5315 37.312C37.5315 37.4874 37.3904 37.6295 37.2164 37.6295C37.0424 37.6294 36.9012 37.4873 36.9012 37.312C36.9012 37.1368 37.0424 36.9947 37.2164 36.9946Z" fill="white"/>
<path d="M42.4619 37.0172C42.6247 37.0172 42.7567 37.1502 42.7567 37.3142C42.7567 37.4782 42.6247 37.6112 42.4619 37.6112C42.2991 37.6112 42.1671 37.4781 42.167 37.3142C42.167 37.1502 42.2991 37.0172 42.4619 37.0172Z" fill="white"/>
<path d="M3.17189 31.5269C3.44679 31.527 3.66957 31.7515 3.66973 32.0283C3.66973 32.3054 3.44688 32.5308 3.17189 32.5309C2.89679 32.5309 2.67404 32.3055 2.67404 32.0283C2.6742 31.7514 2.89688 31.5269 3.17189 31.5269Z" fill="white"/>
<path d="M8.4067 31.5269C8.68108 31.5269 8.90546 31.752 8.90562 32.0283C8.90562 32.3048 8.68118 32.5309 8.4067 32.5309C8.13242 32.5307 7.90886 32.3047 7.90886 32.0283C7.90902 31.7521 8.13251 31.5271 8.4067 31.5269Z" fill="white"/>
<path d="M13.6426 31.5592C13.9068 31.5593 14.1105 31.7643 14.1105 32.0305C14.1104 32.2965 13.8966 32.5007 13.6426 32.5008C13.3784 32.5008 13.1748 32.2966 13.1747 32.0305C13.1747 31.7643 13.3783 31.5592 13.6426 31.5592Z" fill="white"/>
<path d="M18.8881 31.5893C19.1319 31.5894 19.3249 31.7838 19.325 32.0294C19.325 32.2751 19.132 32.4694 18.8881 32.4696C18.6441 32.4696 18.4511 32.2752 18.4511 32.0294C18.4512 31.7838 18.6442 31.5893 18.8881 31.5893Z" fill="white"/>
<path d="M24.1229 31.6614C24.3262 31.6614 24.4894 31.8257 24.4894 32.0305C24.4891 32.2351 24.3261 32.3985 24.1229 32.3985C23.9198 32.3984 23.7578 32.235 23.7575 32.0305C23.7575 31.8258 23.9197 31.6615 24.1229 31.6614Z" fill="white"/>
<path d="M29.3588 31.6915C29.5439 31.6917 29.6943 31.8429 29.6943 32.0294C29.6943 32.2159 29.5439 32.3671 29.3588 32.3673C29.1735 32.3673 29.0233 32.216 29.0233 32.0294C29.0234 31.8428 29.1735 31.6915 29.3588 31.6915Z" fill="white"/>
<path d="M34.6043 31.7227C34.7725 31.7228 34.9085 31.8601 34.9088 32.0294C34.9088 32.199 34.7727 32.3371 34.6043 32.3372C34.4359 32.3372 34.2988 32.1991 34.2988 32.0294C34.299 31.86 34.436 31.7227 34.6043 31.7227Z" fill="white"/>
<path d="M39.8391 31.7626C39.9916 31.7626 40.1137 31.8855 40.1137 32.0391C40.1136 32.1927 39.9916 32.3157 39.8391 32.3157C39.6867 32.3156 39.5646 32.1926 39.5646 32.0391C39.5646 31.8856 39.6867 31.7626 39.8391 31.7626Z" fill="white"/>
<path d="M45.075 31.7626C45.2273 31.7628 45.3485 31.8857 45.3485 32.0391C45.3485 32.1925 45.2273 32.3154 45.075 32.3157C44.9226 32.3157 44.8005 32.1927 44.8004 32.0391C44.8004 31.8855 44.9225 31.7626 45.075 31.7626Z" fill="white"/>
<path d="M0.549131 26.255C0.823332 26.2552 1.04683 26.4803 1.04698 26.7565C1.04698 27.0328 0.823421 27.2588 0.549131 27.259C0.274657 27.259 0.0502243 27.033 0.0502243 26.7565C0.050369 26.4801 0.274746 26.255 0.549131 26.255Z" fill="white"/>
<path d="M5.78395 26.2852C6.04221 26.2852 6.25188 26.4963 6.25188 26.7565C6.25171 27.0165 6.04211 27.2267 5.78395 27.2267C5.52594 27.2266 5.31726 27.0164 5.31709 26.7565C5.31709 26.4964 5.52583 26.2853 5.78395 26.2852Z" fill="white"/>
<path d="M11.0295 26.3153C11.2734 26.3153 11.4663 26.5097 11.4664 26.7554C11.4664 27.0012 11.2734 27.1955 11.0295 27.1955C10.7856 27.1954 10.5925 27.0011 10.5925 26.7554C10.5926 26.5098 10.7857 26.3154 11.0295 26.3153Z" fill="white"/>
<path d="M16.2653 26.3465C16.4889 26.3466 16.6713 26.5313 16.6713 26.7565C16.6711 26.9815 16.4887 27.1653 16.2653 27.1654C16.0418 27.1654 15.8585 26.9816 15.8583 26.7565C15.8583 26.5312 16.0417 26.3465 16.2653 26.3465Z" fill="white"/>
<path d="M21.5002 26.3874C21.7035 26.3874 21.8666 26.5517 21.8666 26.7565C21.8664 26.9611 21.7033 27.1245 21.5002 27.1245C21.2972 27.1243 21.135 26.9609 21.1348 26.7565C21.1348 26.5518 21.297 26.3876 21.5002 26.3874Z" fill="white"/>
<path d="M26.7457 26.4175C26.9286 26.4175 27.0811 26.5711 27.0811 26.7554C27.0811 26.9397 26.9287 27.0933 26.7457 27.0933C26.5628 27.0931 26.4102 26.9396 26.4102 26.7554C26.4102 26.5712 26.5628 26.4177 26.7457 26.4175Z" fill="white"/>
<path d="M31.9816 26.4487C32.1496 26.4489 32.2858 26.5861 32.286 26.7554C32.286 26.9249 32.1498 27.0629 31.9816 27.0632C31.8131 27.0632 31.676 26.9251 31.676 26.7554C31.6763 26.586 31.8133 26.4487 31.9816 26.4487Z" fill="white"/>
<path d="M37.2164 26.4788C37.3689 26.4788 37.4909 26.6018 37.4909 26.7554C37.4909 26.909 37.3688 27.032 37.2164 27.032C37.064 27.0319 36.9419 26.9089 36.9418 26.7554C36.9418 26.6019 37.064 26.4789 37.2164 26.4788Z" fill="white"/>
<path d="M42.4619 26.5208C42.594 26.5208 42.6958 26.6234 42.6958 26.7565C42.6958 26.8895 42.594 26.9922 42.4619 26.9922C42.3299 26.992 42.228 26.8894 42.2279 26.7565C42.2279 26.6235 42.3299 26.521 42.4619 26.5208Z" fill="white"/>
<path d="M3.17189 21.0316C3.41883 21.0317 3.61845 21.2337 3.61845 21.4825C3.61827 21.7311 3.41871 21.9322 3.17189 21.9323C2.92497 21.9323 2.72443 21.7311 2.72425 21.4825C2.72425 21.2336 2.92486 21.0316 3.17189 21.0316Z" fill="white"/>
<path d="M8.4067 21.0316C8.65373 21.0316 8.85434 21.2336 8.85434 21.4825C8.85416 21.7311 8.65362 21.9323 8.4067 21.9323C8.15987 21.9322 7.96032 21.7311 7.96014 21.4825C7.96014 21.2337 8.15976 21.0317 8.4067 21.0316Z" fill="white"/>
<path d="M13.6426 21.0735C13.8661 21.0737 14.0486 21.2584 14.0486 21.4835C14.0483 21.7085 13.866 21.8923 13.6426 21.8925C13.4191 21.8925 13.2358 21.7086 13.2356 21.4835C13.2356 21.2583 13.4189 21.0735 13.6426 21.0735Z" fill="white"/>
<path d="M18.8881 21.1037C19.0913 21.1038 19.2641 21.2778 19.2641 21.4825C19.2641 21.6872 19.1015 21.8612 18.8881 21.8613C18.6848 21.8613 18.512 21.6873 18.512 21.4825C18.5121 21.2777 18.6848 21.1037 18.8881 21.1037Z" fill="white"/>
<path d="M24.1229 21.165C24.2957 21.165 24.4381 21.3084 24.4381 21.4825C24.4381 21.6565 24.2957 21.7999 24.1229 21.7999C23.9502 21.7999 23.8078 21.6565 23.8078 21.4825C23.8078 21.3084 23.9501 21.1651 24.1229 21.165Z" fill="white"/>
<path d="M29.3588 21.2048C29.5111 21.205 29.6334 21.3279 29.6334 21.4814C29.6333 21.6348 29.5111 21.7578 29.3588 21.758C29.2063 21.758 29.0843 21.6349 29.0842 21.4814C29.0842 21.3278 29.2063 21.2048 29.3588 21.2048Z" fill="white"/>
<path d="M34.6032 21.2371C34.7353 21.2371 34.8477 21.3495 34.8479 21.4825C34.8479 21.6156 34.7354 21.7289 34.6032 21.7289C34.4713 21.7286 34.3597 21.6154 34.3597 21.4825C34.3599 21.3497 34.4714 21.2374 34.6032 21.2371Z" fill="white"/>
<path d="M39.8391 21.2672C39.9509 21.2672 40.0528 21.3698 40.0528 21.4825C40.0527 21.595 39.961 21.6977 39.8391 21.6977C39.7274 21.6976 39.6256 21.595 39.6255 21.4825C39.6255 21.3699 39.7274 21.2674 39.8391 21.2672Z" fill="white"/>
<path d="M45.0739 21.2672C45.1858 21.2672 45.2876 21.3698 45.2876 21.4825C45.2875 21.595 45.1959 21.6977 45.0739 21.6977C44.9624 21.6974 44.8615 21.5949 44.8613 21.4825C44.8613 21.37 44.9623 21.2676 45.0739 21.2672Z" fill="white"/>
<path d="M0.549131 15.7274C0.813192 15.7276 1.02655 15.9425 1.02668 16.2085C1.02668 16.4746 0.813274 16.6893 0.549131 16.6895C0.284823 16.6895 0.0705228 16.4747 0.0705228 16.2085C0.0706544 15.9423 0.284904 15.7274 0.549131 15.7274Z" fill="white"/>
<path d="M5.78395 15.7479C6.03098 15.7479 6.23158 15.9499 6.23158 16.1988C6.2314 16.4474 6.03087 16.6486 5.78395 16.6486C5.53718 16.6484 5.33757 16.4473 5.33739 16.1988C5.33739 15.95 5.53707 15.7481 5.78395 15.7479Z" fill="white"/>
<path d="M11.0295 15.7898C11.2531 15.7898 11.4365 15.9746 11.4365 16.1998C11.4363 16.4249 11.253 16.6088 11.0295 16.6088C10.8061 16.6086 10.6237 16.4248 10.6235 16.1998C10.6235 15.9747 10.8059 15.79 11.0295 15.7898Z" fill="white"/>
<path d="M16.2653 15.8286C16.4685 15.8288 16.6414 16.0027 16.6414 16.2074C16.6414 16.4121 16.4787 16.586 16.2653 16.5862C16.062 16.5862 15.8893 16.4122 15.8893 16.2074C15.8893 16.0026 16.0621 15.8286 16.2653 15.8286Z" fill="white"/>
<path d="M21.5002 15.8619C21.6933 15.8619 21.8463 16.016 21.8463 16.2106C21.846 16.4049 21.6931 16.5582 21.5002 16.5582C21.3074 16.558 21.1554 16.4048 21.1551 16.2106C21.1551 16.0162 21.3072 15.8622 21.5002 15.8619Z" fill="white"/>
<path d="M26.7457 15.8813C26.9197 15.8813 27.0608 16.0235 27.0608 16.1988C27.0608 16.3741 26.9197 16.5162 26.7457 16.5162C26.5718 16.516 26.4305 16.3739 26.4305 16.1988C26.4305 16.0236 26.5718 15.8815 26.7457 15.8813Z" fill="white"/>
<path d="M31.9816 15.933C32.1339 15.9331 32.2561 16.056 32.2561 16.2095C32.2561 16.363 32.1339 16.486 31.9816 16.4861C31.8291 16.4861 31.707 16.3631 31.707 16.2095C31.707 16.0559 31.8291 15.933 31.9816 15.933Z" fill="white"/>
<path d="M37.2164 15.9631C37.3484 15.9631 37.4608 16.0755 37.461 16.2085C37.461 16.3416 37.3485 16.4549 37.2164 16.4549C37.0843 16.4547 36.9728 16.3415 36.9728 16.2085C36.973 16.0756 37.0845 15.9632 37.2164 15.9631Z" fill="white"/>
<path d="M42.4619 15.9932C42.5737 15.9932 42.6755 16.0958 42.6755 16.2085C42.6754 16.321 42.5838 16.4237 42.4619 16.4237C42.3503 16.4235 42.2494 16.3209 42.2493 16.2085C42.2493 16.0959 42.3502 15.9934 42.4619 15.9932Z" fill="white"/>
<path d="M3.17189 10.5158C3.3964 10.5159 3.57785 10.6997 3.57785 10.9258C3.57764 11.1518 3.39626 11.3347 3.17189 11.3347C2.94745 11.3347 2.76506 11.1519 2.76485 10.9258C2.76485 10.6996 2.94731 10.5158 3.17189 10.5158Z" fill="white"/>
<path d="M8.4067 10.5158C8.63035 10.5158 8.81374 10.7006 8.81374 10.9258C8.81353 11.1509 8.63021 11.3347 8.4067 11.3347C8.18328 11.3346 8.00095 11.1508 8.00074 10.9258C8.00074 10.7006 8.18315 10.5159 8.4067 10.5158Z" fill="white"/>
<path d="M13.6426 10.5578C13.8459 10.5578 14.008 10.7221 14.008 10.9269C14.0077 11.1314 13.8457 11.2949 13.6426 11.2949C13.4394 11.2949 13.2764 11.1315 13.2762 10.9269C13.2762 10.7221 13.4393 10.5578 13.6426 10.5578Z" fill="white"/>
<path d="M18.8881 10.5879C19.071 10.588 19.2235 10.7416 19.2235 10.9258C19.2235 11.1101 19.071 11.2637 18.8881 11.2637C18.7051 11.2637 18.5526 11.1101 18.5526 10.9258C18.5527 10.7415 18.7051 10.5879 18.8881 10.5879Z" fill="white"/>
<path d="M24.1229 10.6493C24.2745 10.6493 24.3975 10.7731 24.3975 10.9258C24.3974 11.0785 24.2745 11.2024 24.1229 11.2024C23.9715 11.2022 23.8484 11.0784 23.8484 10.9258C23.8484 10.7732 23.9715 10.6494 24.1229 10.6493Z" fill="white"/>
<path d="M29.3588 10.6794C29.4933 10.6795 29.6022 10.7893 29.6024 10.9247C29.6024 11.0604 29.4934 11.171 29.3588 11.1712C29.2241 11.1712 29.1142 11.0605 29.1142 10.9247C29.1144 10.7892 29.2242 10.6794 29.3588 10.6794Z" fill="white"/>
<path d="M34.6043 10.7095C34.716 10.7097 34.818 10.8122 34.818 10.9247C34.8179 11.0372 34.7261 11.1398 34.6043 11.14C34.4925 11.14 34.3907 11.0373 34.3906 10.9247C34.3906 10.8121 34.4925 10.7095 34.6043 10.7095Z" fill="white"/>
<path d="M39.8391 10.7321C39.9509 10.7321 40.0325 10.8143 40.0325 10.9269C40.0324 11.0394 39.9407 11.1217 39.8391 11.1217C39.7275 11.1216 39.6459 11.0394 39.6458 10.9269C39.6458 10.8143 39.7274 10.7322 39.8391 10.7321Z" fill="white"/>
<path d="M45.075 10.7321C45.1867 10.7323 45.2673 10.8144 45.2673 10.9269C45.2672 11.0393 45.1765 11.1215 45.075 11.1217C44.9633 11.1217 44.8818 11.0394 44.8816 10.9269C44.8816 10.8143 44.9632 10.7321 45.075 10.7321Z" fill="white"/>
<path d="M0.549131 5.24073C0.772649 5.24089 0.955102 5.42555 0.955102 5.65073C0.954876 5.87572 0.772511 6.0595 0.549131 6.05965C0.325623 6.05965 0.142323 5.87582 0.142098 5.65073C0.142098 5.42546 0.325486 5.24073 0.549131 5.24073Z" fill="white"/>
<path d="M5.78395 5.27409C5.98724 5.27409 6.15996 5.44812 6.16 5.65288C6.16 5.85768 5.99743 6.03167 5.78395 6.03167C5.58073 6.03155 5.4079 5.8576 5.4079 5.65288C5.40794 5.4482 5.58076 5.27422 5.78395 5.27409Z" fill="white"/>
<path d="M11.0295 5.30422C11.2203 5.30422 11.3756 5.46061 11.3756 5.65288C11.3753 5.84493 11.2202 6.00047 11.0295 6.00047C10.8389 6.00024 10.6847 5.84478 10.6844 5.65288C10.6844 5.46075 10.8388 5.30445 11.0295 5.30422Z" fill="white"/>
<path d="M16.2653 5.33435C16.4393 5.33444 16.5805 5.47655 16.5805 5.65181C16.5805 5.82706 16.4393 5.96917 16.2653 5.96926C16.0913 5.96926 15.9502 5.82711 15.9502 5.65181C15.9502 5.4765 16.0913 5.33435 16.2653 5.33435Z" fill="white"/>
<path d="M21.5002 5.35588C21.663 5.35588 21.795 5.48888 21.795 5.65288C21.795 5.81686 21.663 5.94989 21.5002 5.94989C21.3374 5.94981 21.2053 5.8168 21.2053 5.65288C21.2053 5.48893 21.3374 5.35596 21.5002 5.35588Z" fill="white"/>
<path d="M26.7457 5.37632C26.8878 5.37632 27.0093 5.49895 27.0095 5.64212C27.0095 5.78548 26.888 5.909 26.7457 5.909C26.6034 5.90898 26.4818 5.78546 26.4818 5.64212C26.482 5.49896 26.6035 5.37635 26.7457 5.37632Z" fill="white"/>
<path d="M31.9816 5.41614C32.1136 5.41628 32.2155 5.51878 32.2155 5.65181C32.2154 5.78475 32.1135 5.88733 31.9816 5.88748C31.8494 5.88748 31.7477 5.78485 31.7476 5.65181C31.7476 5.51869 31.8494 5.41614 31.9816 5.41614Z" fill="white"/>
<path d="M37.2164 5.44735C37.3282 5.44735 37.4097 5.52949 37.4097 5.64212C37.4096 5.75465 37.318 5.8369 37.2164 5.8369C37.1047 5.83681 37.0231 5.75458 37.023 5.64212C37.023 5.52955 37.1046 5.44744 37.2164 5.44735Z" fill="white"/>
<path d="M42.4619 5.48716C42.5516 5.48716 42.6241 5.56037 42.6243 5.65073C42.6243 5.74122 42.5517 5.81538 42.4619 5.81538C42.3721 5.8153 42.2995 5.74117 42.2995 5.65073C42.2996 5.56042 42.3722 5.48724 42.4619 5.48716Z" fill="white"/>
<path d="M3.17189 7.56495e-05C3.37513 0.00012929 3.54789 0.174139 3.54793 0.378867C3.54793 0.583631 3.38532 0.757606 3.17189 0.757657C2.96858 0.757657 2.79583 0.583661 2.79583 0.378867C2.79588 0.174108 2.9686 7.56495e-05 3.17189 7.56495e-05Z" fill="white"/>
<path d="M8.4067 7.56495e-05C8.60999 7.56495e-05 8.78271 0.174108 8.78275 0.378867C8.78275 0.583661 8.62018 0.757657 8.4067 0.757657C8.20354 0.757454 8.03065 0.583541 8.03065 0.378867C8.0307 0.174227 8.20357 0.000278406 8.4067 7.56495e-05Z" fill="white"/>
<path d="M13.6426 0.0302068C13.8356 0.0303883 13.9877 0.184427 13.9877 0.378867C13.9874 0.573066 13.8354 0.726269 13.6426 0.72645C13.4496 0.72645 13.2967 0.573182 13.2965 0.378867C13.2965 0.184312 13.4494 0.0302068 13.6426 0.0302068Z" fill="white"/>
<path d="M18.8881 0.0495767C19.062 0.0496987 19.2032 0.191792 19.2032 0.367029C19.2032 0.542255 19.062 0.68436 18.8881 0.684482C18.7141 0.684482 18.573 0.542331 18.5729 0.367029C18.5729 0.191717 18.7141 0.0495767 18.8881 0.0495767Z" fill="white"/>
<path d="M24.1229 0.102306C24.2651 0.102306 24.3876 0.224936 24.3879 0.368105C24.3879 0.511461 24.2652 0.634981 24.1229 0.634981C23.9807 0.634805 23.859 0.511358 23.859 0.368105C23.8593 0.225039 23.9809 0.102482 24.1229 0.102306Z" fill="white"/>
<path d="M29.3588 0.131361C29.4908 0.13152 29.5928 0.234016 29.5928 0.367029C29.5927 0.499969 29.4908 0.602539 29.3588 0.602697C29.2267 0.602697 29.1249 0.500072 29.1248 0.367029C29.1248 0.233913 29.2266 0.131361 29.3588 0.131361Z" fill="white"/>
<path d="M34.6043 0.173329C34.7108 0.173593 34.7966 0.260819 34.7966 0.368105C34.7965 0.475292 34.7107 0.562619 34.6043 0.562881C34.4977 0.562881 34.4111 0.475454 34.4109 0.368105C34.4109 0.260656 34.4976 0.173329 34.6043 0.173329Z" fill="white"/>
<path d="M39.8391 0.20346C39.9289 0.20346 40.0014 0.27667 40.0015 0.367029C40.0015 0.457513 39.929 0.530598 39.8391 0.530598C39.7494 0.530524 39.6767 0.457468 39.6767 0.367029C39.6769 0.276715 39.7494 0.203534 39.8391 0.20346Z" fill="white"/>
<path d="M45.075 0.20346C45.1662 0.203669 45.2373 0.275136 45.2374 0.367029C45.2374 0.459052 45.1663 0.530389 45.075 0.530598C44.9835 0.530598 44.9116 0.459187 44.9116 0.367029C44.9117 0.275002 44.9836 0.20346 45.075 0.20346Z" fill="white"/>
</svg>
