<svg xmlns="http://www.w3.org/2000/svg" width="533" height="42" fill="none"><g fill="#000"><path d="M263.661 38.099c.818 0 1.478.66 1.478 1.478s-.66 1.477-1.478 1.477l-.004-.001-.003.001c-.817 0-1.477-.66-1.477-1.477s.66-1.477 1.477-1.478h.007zm4.786 0c.818 0 1.478.66 1.478 1.478s-.66 1.477-1.478 1.477l-.004-.001-.003.001c-.817 0-1.477-.66-1.477-1.477s.66-1.478 1.477-1.478h.007zm-9.588.019c.809 0 1.459.651 1.459 1.459s-.65 1.459-1.459 1.459-1.459-.651-1.459-1.459.651-1.459 1.459-1.459zm14.383 0c.808 0 1.458.651 1.458 1.459s-.65 1.459-1.458 1.459-1.459-.651-1.459-1.459.651-1.459 1.459-1.459z"/><use href="#B"/><use href="#B" x="4.795"/><path d="M254.074 38.126a1.45 1.45 0 0 1 1.449 1.449 1.45 1.45 0 0 1-1.449 1.45 1.45 1.45 0 0 1-1.449-1.45 1.45 1.45 0 0 1 1.449-1.449zm23.953 0c.799 0 1.45.65 1.451 1.449s-.651 1.45-1.451 1.45a1.45 1.45 0 0 1-1.449-1.45 1.45 1.45 0 0 1 1.449-1.449z"/><use href="#C"/><use href="#C" x="4.795"/><use href="#D"/><use href="#D" x="4.795"/><use href="#E"/><use href="#F"/><path d="M297.18 38.155c.785 0 1.422.637 1.422 1.422s-.637 1.422-1.422 1.422-1.422-.637-1.422-1.422a1.42 1.42 0 0 1 1.422-1.422z"/><use href="#F" x="9.581"/><use href="#G"/><use href="#G" x="81.418"/><use href="#H"/><path d="M220.557 38.21a1.37 1.37 0 0 1 1.365 1.366 1.37 1.37 0 0 1-1.365 1.366 1.37 1.37 0 0 1-1.367-1.366 1.37 1.37 0 0 1 1.367-1.366z"/><use href="#H" x="95.784"/><use href="#I"/><use href="#J"/><use href="#K"/><use href="#L"/><use href="#M"/><use href="#L" x="9.581"/><use href="#L" x="129.302"/><use href="#M" x="129.311"/><use href="#L" x="138.883"/><use href="#N"/><use href="#O"/><use href="#P"/><use href="#P" x="158.044"/><path d="M182.243 38.341c.683 0 1.236.554 1.236 1.236s-.553 1.235-1.236 1.235-1.235-.553-1.235-1.235.553-1.236 1.235-1.236zm167.615 0c.683 0 1.236.554 1.236 1.236s-.553 1.235-1.236 1.235-1.236-.553-1.236-1.235.554-1.236 1.236-1.236z"/><use href="#Q"/><path d="M354.653 38.358c.673 0 1.217.545 1.217 1.218s-.545 1.217-1.217 1.217-1.217-.545-1.217-1.217a1.22 1.22 0 0 1 1.217-1.218zm-186.776.019a1.2 1.2 0 0 1 1.199 1.199 1.2 1.2 0 0 1-1.199 1.198 1.2 1.2 0 0 1-1.198-1.198 1.2 1.2 0 0 1 1.198-1.199z"/><use href="#R"/><path d="M359.438 38.377c.66 0 1.2.539 1.2 1.199s-.54 1.198-1.2 1.198a1.2 1.2 0 0 1-1.198-1.198 1.2 1.2 0 0 1 1.198-1.199zm4.787 0a1.2 1.2 0 0 1 1.198 1.199 1.2 1.2 0 0 1-1.198 1.198c-.66 0-1.199-.539-1.2-1.198s.54-1.199 1.2-1.199zm-201.143.029c.65 0 1.171.52 1.171 1.171s-.521 1.171-1.171 1.171a1.17 1.17 0 0 1-1.171-1.171c0-.651.521-1.171 1.171-1.171zm205.938 0c.65 0 1.17.52 1.17 1.171a1.17 1.17 0 0 1-1.17 1.171c-.651 0-1.171-.52-1.171-1.171s.52-1.171 1.171-1.171zm-210.723.018a1.16 1.16 0 0 1 1.152 1.152 1.16 1.16 0 0 1-1.152 1.152 1.15 1.15 0 0 1-1.152-1.152 1.16 1.16 0 0 1 1.152-1.152z"/><use href="#S"/><use href="#T"/><use href="#U"/><use href="#V"/><path d="M383.386 38.489a1.09 1.09 0 0 1 1.087 1.087 1.09 1.09 0 0 1-1.087 1.088c-.601 0-1.087-.487-1.087-1.088s.486-1.087 1.087-1.087zm-239.455.037c.576 0 1.049.474 1.049 1.05s-.473 1.05-1.049 1.05-1.05-.474-1.05-1.05.474-1.05 1.05-1.05z"/><use href="#W"/><path d="M134.35 38.555c.566 0 1.032.465 1.032 1.031s-.466 1.031-1.032 1.031a1.03 1.03 0 0 1-1.032-1.031c0-.567.465-1.031 1.032-1.031zm4.795 0c.566 0 1.031.465 1.031 1.031s-.465 1.031-1.031 1.031a1.03 1.03 0 0 1-1.032-1.031c0-.567.465-1.031 1.032-1.031z"/><use href="#X"/><use href="#X" x="4.795"/><path d="M129.564 38.564c.56 0 1.013.453 1.013 1.013s-.453 1.013-1.013 1.013-1.012-.453-1.012-1.013.453-1.013 1.012-1.013z"/><use href="#Y"/><use href="#Z"/><use href="#a"/><path d="M119.983 38.62a.96.96 0 0 1 .958.957.96.96 0 0 1-.958.957.96.96 0 0 1-.957-.957.96.96 0 0 1 .957-.957zm292.135 0c.529 0 .957.429.957.957s-.428.957-.957.957a.96.96 0 0 1-.957-.957.96.96 0 0 1 .957-.957z"/><use href="#b"/><use href="#c"/><use href="#d"/><use href="#d" x="311.276"/><use href="#e"/><path d="M105.617 38.713a.87.87 0 0 1 .864.864.87.87 0 0 1-.864.864.87.87 0 0 1-.864-.864.87.87 0 0 1 .864-.864zm320.867 0a.87.87 0 0 1 .865.864.87.87 0 0 1-.865.864.87.87 0 0 1-.864-.864.87.87 0 0 1 .864-.864zm4.786 0c.477 0 .864.387.864.864s-.387.864-.864.864-.865-.387-.865-.864.387-.864.865-.864zm-335.223.027c.462 0 .836.374.836.836s-.374.837-.836.837a.84.84 0 0 1-.837-.837c0-.462.375-.836.837-.836zm340.008 0a.84.84 0 0 1 .837.836.84.84 0 0 1-.837.837c-.462 0-.836-.375-.836-.837s.374-.836.836-.836z"/><use href="#f"/><use href="#g"/><use href="#h"/><path d="M445.636 38.805a.77.77 0 0 1 0 1.543.77.77 0 1 1 0-1.543z"/><use href="#i"/><use href="#j"/><use href="#k"/><path d="M455.216 38.87c.39 0 .707.316.707.706s-.317.706-.707.706-.706-.316-.706-.706.316-.706.706-.706zm-387.911.046a.66.66 0 1 1-.66.66.66.66 0 0 1 .66-.66zm4.795 0a.66.66 0 0 1 .66.66.66.66 0 0 1-.66.659.66.66 0 0 1-.659-.659.66.66 0 0 1 .659-.66z"/><use href="#l"/><use href="#m"/><path d="M62.52 38.937c.353 0 .641.289.641.642s-.288.641-.641.641-.641-.288-.642-.641.289-.642.642-.642zm407.062 0c.353 0 .642.288.642.642s-.289.641-.642.641-.64-.288-.641-.641.288-.641.641-.642zm-411.849.026c.344 0 .613.27.613.613s-.27.613-.613.613c-.334 0-.613-.27-.613-.613s.27-.613.613-.613zm416.635 0c.344 0 .613.27.613.613s-.278.613-.613.613c-.344 0-.613-.27-.613-.613s.269-.613.613-.613z"/><use href="#n"/><use href="#o"/><use href="#p"/><path d="M483.948 39.047a.53.53 0 0 1 .531.529.53.53 0 1 1-1.06 0 .53.53 0 0 1 .529-.529z"/><use href="#q"/><use href="#q" x="445.367"/><use href="#r"/><path d="M38.572 39.112a.48.48 0 0 1 .475.474c.001.26-.214.475-.475.475s-.474-.214-.474-.475.214-.474.474-.474zm454.957 0c.26 0 .474.214.474.474a.48.48 0 0 1-.474.475c-.26.001-.474-.214-.474-.475s.214-.474.474-.474z"/><use href="#s"/><use href="#t"/><path d="M503.101 39.121c.25 0 .455.204.455.455s-.205.456-.455.456-.455-.205-.455-.456.204-.455.455-.455z"/><use href="#u"/><path d="M507.896 39.168a.41.41 0 0 1 .408.409.41.41 0 0 1-.408.408.41.41 0 0 1-.41-.408.41.41 0 0 1 .41-.409z"/><use href="#v"/><path d="M512.681 39.213c.204 0 .362.158.362.362s-.167.362-.362.362c-.205 0-.363-.158-.363-.362s.158-.362.363-.362z"/><use href="#w"/><path d="M517.467 39.243c.186 0 .334.149.334.335s-.149.334-.334.334-.335-.148-.335-.334.149-.335.335-.335z"/><use href="#x"/><use href="#x" x="512.422"/><use href="#y"/><use href="#y" x="4.785"/><path d="M527.047 39.306a.27.27 0 1 1 0 .54.27.27 0 1 1 0-.54zm4.786 0a.27.27 0 1 1-.27.27.27.27 0 0 1 .27-.27zm-265.774-6.001c.817 0 1.477.66 1.477 1.478s-.66 1.478-1.477 1.478a1.48 1.48 0 0 1-1.494-1.478c0-.818.66-1.478 1.478-1.478h.016z"/><use href="#z"/><use href="#AA"/><use href="#z" x="14.373"/><use href="#AA" x="14.373"/><path d="M246.891 33.34a1.45 1.45 0 1 1-1.45 1.449 1.45 1.45 0 0 1 1.45-1.449zm4.786 0a1.45 1.45 0 0 1 1.449 1.449 1.45 1.45 0 0 1-1.449 1.45c-.799 0-1.45-.651-1.45-1.45a1.45 1.45 0 0 1 1.45-1.449z"/><use href="#B" x="35.932" y="-4.786"/><path d="M285.211 33.34a1.45 1.45 0 0 1 1.449 1.449 1.45 1.45 0 0 1-1.449 1.45 1.45 1.45 0 0 1-1.45-1.45 1.45 1.45 0 0 1 1.45-1.449zm-43.106.02a1.431 1.431 0 1 1 0 2.862 1.431 1.431 0 1 1 0-2.862zm47.891 0a1.43 1.43 0 0 1 1.432 1.431c0 .79-.642 1.432-1.432 1.432a1.431 1.431 0 1 1 0-2.862z"/><use href="#AB"/><path d="M237.311 33.37c.789 0 1.421.632 1.421 1.422s-.632 1.422-1.421 1.422a1.42 1.42 0 0 1-1.422-1.422c0-.79.632-1.422 1.422-1.422zm57.48 0c.79 0 1.422.632 1.422 1.422a1.42 1.42 0 0 1-1.422 1.422c-.79 0-1.422-.632-1.422-1.422s.632-1.422 1.422-1.422zm4.785 0c.79 0 1.422.632 1.422 1.422a1.42 1.42 0 0 1-1.422 1.422c-.789 0-1.421-.632-1.421-1.422s.632-1.422 1.421-1.422z"/><use href="#AC"/><use href="#AC" x="76.623"/><path d="M222.944 33.406c.765 0 1.385.62 1.385 1.385s-.62 1.385-1.385 1.385-1.384-.62-1.384-1.385.62-1.385 1.384-1.385zm86.213 0c.765 0 1.385.62 1.385 1.385s-.62 1.385-1.385 1.385-1.384-.62-1.385-1.385.621-1.385 1.385-1.385zm-90.998.018c.754 0 1.365.612 1.365 1.366s-.611 1.366-1.365 1.366-1.366-.612-1.366-1.366.612-1.366 1.366-1.366zm95.783 0c.755 0 1.367.612 1.367 1.366a1.37 1.37 0 0 1-1.367 1.366c-.754 0-1.365-.612-1.365-1.366s.611-1.366 1.365-1.366z"/><use href="#K" x="-107.753" y="-4.784"/><use href="#J" x="107.753" y="-4.784"/><use href="#AD"/><path d="M323.523 33.453c.734 0 1.338.604 1.338 1.338a1.34 1.34 0 0 1-1.338 1.338c-.734 0-1.337-.604-1.337-1.338s.603-1.338 1.337-1.338z"/><use href="#M" x="-2.389" y="-4.794"/><use href="#M" x="2.397" y="-4.794"/><use href="#M" x="126.914" y="-4.794"/><use href="#M" x="131.699" y="-4.794"/><path d="M194.212 33.498c.713 0 1.292.579 1.292 1.292a1.292 1.292 0 1 1-2.584 0c0-.713.579-1.292 1.292-1.292zm143.678 0c.713 0 1.292.579 1.292 1.292a1.29 1.29 0 0 1-1.292 1.291 1.291 1.291 0 1 1 0-2.583zm-148.463.021c.703 0 1.272.57 1.272 1.273a1.27 1.27 0 0 1-1.272 1.273c-.703 0-1.273-.57-1.274-1.273s.571-1.273 1.274-1.273zm153.248 0c.703 0 1.273.57 1.273 1.273s-.57 1.273-1.273 1.273-1.272-.57-1.273-1.273.57-1.273 1.273-1.273zm-158.043.008c.698 0 1.263.566 1.264 1.264s-.566 1.264-1.264 1.264-1.264-.566-1.264-1.264.566-1.264 1.264-1.264zm162.838 0c.698 0 1.263.566 1.263 1.264s-.565 1.264-1.263 1.264-1.264-.566-1.264-1.264.566-1.263 1.264-1.264zm-167.624.028c.678 0 1.236.558 1.236 1.236a1.24 1.24 0 0 1-1.236 1.235c-.678 0-1.235-.548-1.236-1.235s.557-1.236 1.236-1.236zm172.41 0c.678 0 1.236.549 1.236 1.236s-.558 1.235-1.236 1.235a1.24 1.24 0 0 1-1.236-1.235c0-.678.558-1.236 1.236-1.236zm-177.195.018a1.22 1.22 0 0 1 1.216 1.218 1.22 1.22 0 0 1-1.216 1.217c-.679 0-1.218-.548-1.218-1.217s.548-1.218 1.218-1.218zm181.98 0c.669 0 1.218.549 1.218 1.218s-.54 1.217-1.218 1.217a1.22 1.22 0 0 1-1.217-1.217c0-.669.548-1.217 1.217-1.218z"/><use href="#AE"/><path d="M361.836 33.583a1.2 1.2 0 0 1 1.199 1.198c0 .66-.539 1.199-1.199 1.199a1.2 1.2 0 0 1-1.198-1.199 1.2 1.2 0 0 1 1.198-1.198z"/><use href="#AF"/><use href="#AF" x="201.143"/><use href="#AG"/><use href="#AG" x="210.713"/><path d="M155.899 33.668c.621 0 1.124.503 1.124 1.124s-.503 1.125-1.124 1.125-1.124-.504-1.124-1.125.504-1.124 1.124-1.124z"/><use href="#T" x="222.691" y="-4.783"/><path d="M151.113 33.676c.613 0 1.107.492 1.107 1.105s-.493 1.107-1.107 1.107a1.11 1.11 0 0 1-1.105-1.107 1.1 1.1 0 0 1 1.105-1.105zm229.875 0c.613 0 1.106.492 1.106 1.105a1.11 1.11 0 0 1-1.106 1.107c-.613 0-1.106-.493-1.106-1.107a1.1 1.1 0 0 1 1.106-1.105zm-234.66.027a1.08 1.08 0 0 1 1.087 1.087c0 .604-.483 1.088-1.087 1.088s-1.088-.484-1.088-1.088.484-1.087 1.088-1.087z"/><use href="#AH"/><use href="#W" x="-246.638" y="-4.785"/><path d="M390.568 33.741c.576 0 1.051.474 1.051 1.05s-.474 1.05-1.051 1.05-1.049-.474-1.049-1.05.473-1.05 1.049-1.05zm-253.821.019a1.032 1.032 0 1 1 0 2.063 1.031 1.031 0 1 1 0-2.062zm258.607 0a1.032 1.032 0 1 1 0 2.063c-.569 0-1.032-.462-1.032-1.031s.463-1.031 1.032-1.031z"/><use href="#Y" x="-270.575" y="-4.786"/><path d="M400.14 33.778c.559 0 1.012.453 1.012 1.013s-.453 1.013-1.012 1.013-1.013-.453-1.013-1.013.453-1.012 1.013-1.013z"/><use href="#a" x="-280.156" y="-4.785"/><path d="M404.935 33.806c.544 0 .985.441.985.985s-.442.984-.985.984-.985-.441-.985-.984.441-.985.985-.985zm-282.554.028c.529 0 .957.427.957.957s-.427.957-.957.957-.957-.427-.957-.957.427-.957.957-.957zm287.34 0c.529 0 .957.427.957.957s-.428.957-.957.957-.957-.427-.957-.957.427-.957.957-.957z"/><use href="#AI"/><path d="M414.506 33.853c.52 0 .938.418.938.938s-.418.939-.938.939-.939-.418-.939-.939.419-.938.939-.938z"/><use href="#AJ"/><path d="M419.301 33.861c.511 0 .92.409.92.92s-.418.92-.92.92c-.511 0-.92-.409-.92-.92s.409-.92.92-.92zm-311.286.057c.482 0 .873.391.874.873s-.392.874-.874.874-.873-.392-.873-.874.391-.873.873-.873zm316.072 0c.482 0 .873.391.873.873s-.391.874-.873.874-.874-.392-.874-.874.392-.873.874-.873zm-320.858.009c.478 0 .865.387.865.864s-.387.864-.865.864-.864-.387-.864-.864.387-.864.864-.864z"/><use href="#e" x="328.04" y="-4.786"/><use href="#AK"/><use href="#AK" x="335.232"/><use href="#AL"/><use href="#g" x="-2.397" y="-4.785"/><use href="#h" x="2.397" y="-4.786"/><use href="#h" x="356.772" y="-4.786"/><use href="#AM"/><use href="#AM" x="363.965"/><path d="M79.283 34.057c.405 0 .733.329.733.734s-.328.733-.733.733-.734-.328-.734-.733.329-.734.734-.734zm373.535 0c.406 0 .735.329.735.734s-.329.733-.735.733a.73.73 0 0 1-.733-.733c0-.405.328-.734.733-.734z"/><use href="#k" x="-2.398" y="-4.786"/><use href="#k" x="380.728" y="-4.786"/><use href="#AN"/><path d="M462.399 34.132c.363 0 .661.298.661.66s-.298.659-.661.659a.66.66 0 0 1-.66-.659c0-.362.298-.66.66-.66zm-397.482.009c.353 0 .641.289.641.642a.64.64 0 0 1-.641.641c-.353 0-.641-.288-.642-.641s.288-.642.642-.642zm402.268 0c.353 0 .641.288.641.642a.64.64 0 0 1-.641.641c-.353 0-.641-.288-.641-.641s.288-.641.641-.642zm-407.064.036c.344 0 .614.269.614.613s-.27.613-.614.613c-.334 0-.613-.27-.613-.613s.27-.613.613-.613zm411.858 0c.344 0 .614.269.614.613s-.279.613-.614.613c-.343 0-.613-.27-.613-.613s.27-.613.613-.613z"/><use href="#AO"/><path d="M476.766 34.195c.328 0 .594.266.594.595s-.266.595-.594.595-.595-.266-.595-.595.266-.595.595-.595z"/><use href="#AP"/><use href="#AQ"/><path d="M45.756 34.261c.288 0 .529.242.529.529s-.241.53-.529.53a.53.53 0 0 1-.53-.53c0-.288.242-.529.53-.529zm440.59 0c.288 0 .53.241.53.529a.53.53 0 0 1-.53.53c-.288 0-.53-.242-.53-.53s.242-.529.53-.529z"/><use href="#q" x="-2.397" y="-4.784"/><use href="#q" x="447.765" y="-4.784"/><use href="#AR"/><path d="M495.917 34.317c.26 0 .473.214.474.474s-.214.475-.474.475-.474-.215-.474-.475.214-.473.474-.474z"/><use href="#AS"/><use href="#AS" x="469.322"/><use href="#u" x="2.398" y="-4.786"/><path d="M505.498 34.382a.41.41 0 0 1 .408.409c0 .226-.182.408-.408.408a.41.41 0 0 1-.409-.408.41.41 0 0 1 .409-.409zm-483.68.028a.381.381 0 0 1 0 .762.381.381 0 1 1 0-.762zm488.465 0a.381.381 0 1 1 0 .762.381.381 0 1 1 0-.762z"/><use href="#v" x="-2.398" y="-4.795"/><path d="M515.078 34.418c.205 0 .362.158.362.362s-.167.362-.362.362c-.204 0-.362-.158-.362-.362s.158-.362.362-.362z"/><use href="#w" x="-2.398" y="-4.786"/><path d="M519.864 34.457c.186 0 .334.149.334.335s-.148.334-.334.334-.334-.148-.335-.334.149-.335.335-.335z"/><use href="#x" x="-2.388" y="-4.786"/><path d="M524.649 34.502c.16 0 .289.129.289.288a.29.29 0 0 1-.289.288c-.159 0-.288-.129-.288-.288s.129-.288.288-.288z"/><use href="#y" x="2.387" y="-4.783"/><use href="#AT"/><path d="M263.661 28.546a1.45 1.45 0 0 1 1.45 1.449c0 .799-.651 1.45-1.45 1.45l-.004-.001-.003.001a1.45 1.45 0 0 1-1.449-1.45 1.45 1.45 0 0 1 1.449-1.449h.007zm4.786 0a1.45 1.45 0 0 1 1.449 1.449 1.45 1.45 0 0 1-1.449 1.45l-.004-.001-.003.001c-.799 0-1.45-.651-1.45-1.45a1.45 1.45 0 0 1 1.45-1.449h.007zm-9.588.028c.79 0 1.432.641 1.432 1.431s-.642 1.432-1.432 1.432a1.43 1.43 0 0 1 0-2.863zm14.383 0a1.43 1.43 0 0 1 1.431 1.431c0 .79-.641 1.431-1.431 1.432a1.43 1.43 0 0 1 0-2.863z"/><use href="#AB" x="11.968" y="-4.796"/><path d="M249.288 28.574c.79 0 1.422.632 1.422 1.422s-.632 1.422-1.422 1.422a1.42 1.42 0 0 1-1.421-1.422c0-.79.631-1.422 1.421-1.422z"/><use href="#E" x="14.366" y="-9.581"/><path d="M278.027 28.574a1.42 1.42 0 0 1 1.422 1.422c0 .785-.637 1.422-1.422 1.422s-1.421-.637-1.422-1.422.637-1.422 1.422-1.422z"/><use href="#AU"/><use href="#AU" x="4.795"/><path d="M234.922 28.602c.77 0 1.394.624 1.394 1.393s-.624 1.395-1.394 1.395-1.394-.625-1.394-1.395.624-1.393 1.394-1.393zm4.786 0c.77 0 1.393.624 1.394 1.393s-.624 1.395-1.394 1.395-1.394-.625-1.394-1.395.624-1.393 1.394-1.393zm52.686 0c.769 0 1.393.624 1.393 1.393s-.624 1.395-1.393 1.395S291 30.765 291 29.995s.624-1.393 1.394-1.393zm4.786 0c.769 0 1.393.624 1.393 1.393s-.624 1.394-1.393 1.395-1.395-.625-1.395-1.395.625-1.393 1.395-1.393zm-67.053.008c.765 0 1.385.62 1.385 1.385s-.62 1.385-1.385 1.385-1.384-.62-1.384-1.385.619-1.384 1.384-1.385zm71.848 0c.764 0 1.383.62 1.383 1.385s-.619 1.385-1.383 1.385-1.385-.62-1.385-1.385.62-1.385 1.385-1.385z"/><use href="#AV"/><use href="#AV" x="81.418"/><path d="M215.761 28.667c.734 0 1.338.604 1.339 1.338s-.605 1.338-1.339 1.338a1.34 1.34 0 0 1-1.338-1.338c0-.734.604-1.338 1.338-1.338zm4.796 0c.733 0 1.337.604 1.338 1.338s-.604 1.338-1.338 1.338a1.34 1.34 0 0 1-1.339-1.338c0-.734.605-1.338 1.339-1.338zm90.988 0c.734 0 1.339.604 1.339 1.338a1.34 1.34 0 0 1-1.339 1.338c-.734 0-1.338-.604-1.338-1.338s.604-1.338 1.338-1.338zm4.796 0c.734 0 1.338.604 1.338 1.338a1.34 1.34 0 0 1-1.338 1.338c-.734 0-1.339-.604-1.339-1.338s.605-1.338 1.339-1.338z"/><use href="#AW"/><use href="#AX"/><use href="#AY"/><use href="#O" x="-138.891" y="-9.579"/><path d="M206.19 28.705a1.29 1.29 0 0 1 0 2.583c-.713 0-1.291-.578-1.292-1.291s.579-1.292 1.292-1.292z"/><use href="#AZ"/><use href="#AZ" x="4.795"/><use href="#AY" x="138.883"/><path d="M191.814 28.732c.697 0 1.264.567 1.264 1.264s-.567 1.264-1.264 1.264-1.263-.567-1.263-1.264.567-1.264 1.263-1.264zm148.473 0c.697 0 1.264.567 1.264 1.264s-.567 1.264-1.264 1.264-1.264-.567-1.264-1.264.567-1.264 1.264-1.264zm-153.258.018c.688 0 1.245.558 1.245 1.245s-.557 1.245-1.245 1.245-1.245-.557-1.245-1.245.558-1.245 1.245-1.245z"/><use href="#Aa"/><use href="#Ab"/><use href="#Ab" x="167.615"/><path d="M177.448 28.798a1.2 1.2 0 0 1 1.199 1.199 1.2 1.2 0 0 1-1.199 1.198 1.2 1.2 0 0 1-1.198-1.198 1.2 1.2 0 0 1 1.198-1.199zm177.205 0a1.2 1.2 0 0 1 1.199 1.199 1.2 1.2 0 0 1-1.199 1.198 1.2 1.2 0 0 1-1.199-1.198c0-.659.54-1.199 1.199-1.199zm-186.776.027c.65 0 1.171.52 1.171 1.171s-.521 1.171-1.171 1.171c-.641 0-1.171-.521-1.171-1.171s.521-1.171 1.171-1.171zm4.786 0c.65 0 1.171.521 1.171 1.171s-.521 1.171-1.171 1.171c-.641 0-1.171-.521-1.171-1.171s.521-1.171 1.171-1.171zm186.775 0c.651 0 1.171.52 1.171 1.171a1.17 1.17 0 0 1-1.171 1.171c-.65 0-1.17-.521-1.17-1.171s.52-1.171 1.17-1.171zm4.787 0c.65 0 1.171.521 1.171 1.171s-.53 1.171-1.171 1.171c-.651 0-1.171-.521-1.171-1.171s.52-1.171 1.171-1.171z"/><use href="#Ac"/><use href="#Ad"/><use href="#U" x="-220.294" y="-9.579"/><path d="M373.805 28.872c.621 0 1.124.503 1.125 1.124s-.504 1.125-1.125 1.125-1.124-.504-1.124-1.125.503-1.124 1.124-1.124zm-220.294.019c.61 0 1.106.495 1.106 1.105s-.496 1.106-1.106 1.106-1.106-.496-1.106-1.106.495-1.105 1.106-1.105zm225.08 0c.61 0 1.105.495 1.105 1.105s-.494 1.106-1.105 1.106-1.106-.496-1.106-1.106.495-1.105 1.106-1.105zm-229.875.055c.576 0 1.05.474 1.051 1.05s-.475 1.05-1.051 1.05-1.05-.474-1.05-1.05.474-1.05 1.05-1.05zm234.67 0c.576 0 1.049.474 1.05 1.05s-.474 1.05-1.05 1.05-1.05-.474-1.05-1.05.474-1.05 1.05-1.05zm-239.455.028c.566 0 1.031.465 1.031 1.031s-.465 1.031-1.031 1.031a1.03 1.03 0 0 1-1.032-1.031c.001-.567.465-1.031 1.032-1.031zm244.24 0c.567 0 1.031.464 1.031 1.031a1.03 1.03 0 0 1-1.031 1.031c-.567 0-1.031-.464-1.031-1.031s.464-1.031 1.031-1.031z"/><use href="#Ae"/><use href="#Ae" x="4.795"/><use href="#Ae" x="258.607"/><use href="#Ae" x="263.402"/><use href="#Af"/><path d="M402.537 29.01c.544 0 .985.441.985.985s-.441.984-.985.984-.984-.441-.984-.984.44-.985.984-.985z"/><use href="#Ag"/><path d="M407.323 29.03c.534 0 .966.433.966.967s-.432.965-.966.966a.97.97 0 0 1-.967-.966.97.97 0 0 1 .967-.967z"/><use href="#Ah"/><use href="#Ah" x="292.135"/><path d="M115.198 29.105a.89.89 0 0 1 .892.892c0 .493-.399.893-.892.893s-.891-.4-.891-.893a.89.89 0 0 1 .891-.892z"/><use href="#Ai"/><path d="M110.413 29.132a.87.87 0 0 1 .863.864.87.87 0 0 1-.863.864.87.87 0 0 1-.864-.864.87.87 0 0 1 .864-.864zm311.275 0a.87.87 0 0 1 .865.864.87.87 0 0 1-.865.864.87.87 0 0 1-.863-.864.87.87 0 0 1 .863-.864z"/><use href="#Aj"/><path d="M105.618 29.149c.467 0 .845.379.845.846s-.378.845-.845.846-.845-.379-.846-.846.379-.846.846-.846zm320.865 0c.467 0 .846.379.846.846s-.379.846-.846.846-.844-.379-.844-.846.378-.845.844-.846z"/><use href="#Ak"/><use href="#f" x="4.795" y="-9.578"/><use href="#g" x="-4.795" y="-9.578"/><path d="M91.252 29.224c.427 0 .78.353.78.78s-.353.781-.78.781a.78.78 0 0 1-.781-.781c0-.427.354-.78.781-.78zm349.598 0c.427 0 .781.353.781.78a.78.78 0 0 1-.781.781c-.428 0-.781-.354-.781-.781s.353-.78.781-.78z"/><use href="#AM" x="2.398" y="-4.783"/><use href="#AM" x="361.568" y="-4.783"/><use href="#Al"/><path d="M450.431 29.29c.39 0 .706.316.706.706s-.316.706-.706.706-.706-.316-.706-.706.315-.706.706-.706z"/><use href="#Am"/><use href="#Am" x="378.331"/><use href="#An"/><use href="#An" x="4.795"/><use href="#An" x="392.697"/><path d="M464.797 29.346c.362 0 .65.288.65.65s-.288.65-.65.65-.651-.288-.651-.65.289-.65.651-.65zm-402.277.036a.62.62 0 1 1 0 1.245.62.62 0 0 1-.623-.622c0-.344.279-.623.623-.623zm407.062 0c.344 0 .623.279.623.623a.62.62 0 1 1-1.245 0c0-.343.278-.623.622-.623z"/><use href="#n" x="4.794" y="-9.57"/><use href="#o" x="-4.795" y="-9.57"/><path d="M52.939 29.439c.306 0 .567.26.567.566s-.261.567-.567.567a.57.57 0 0 1-.566-.567c0-.306.26-.566.566-.566zm426.224 0c.306 0 .566.26.566.566a.57.57 0 0 1-.566.567c-.307 0-.567-.261-.567-.567s.261-.566.567-.566z"/><use href="#Ao"/><use href="#Ao" x="435.795"/><path d="M43.367 29.531a.48.48 0 0 1 .475.474c.001.26-.214.475-.475.475s-.474-.215-.474-.475.214-.473.474-.474zm445.367 0c.26 0 .474.214.474.474s-.213.474-.474.475-.473-.214-.473-.475.213-.474.473-.474z"/><use href="#Ap"/><use href="#t" x="9.571" y="-9.581"/><path d="M493.529 29.54c.252 0 .455.204.455.455s-.203.456-.455.456-.455-.205-.455-.456.204-.455.455-.455zm4.785 0a.46.46 0 0 1 .457.455.46.46 0 0 1-.457.456c-.25 0-.455-.205-.455-.456s.205-.455.455-.455zm-469.313.029a.428.428 0 1 1 0 .855c-.232 0-.427-.185-.427-.427a.42.42 0 0 1 .427-.428zm474.1 0a.42.42 0 0 1 .427.428c0 .241-.195.427-.427.427a.428.428 0 1 1 0-.855zm-478.895.028c.223 0 .4.177.4.399s-.177.399-.4.399-.399-.176-.399-.399.177-.399.399-.399zm483.69 0c.222 0 .399.177.399.399s-.177.399-.399.399-.4-.176-.4-.399.177-.399.4-.399zm-488.475.065c.186 0 .335.149.335.335s-.149.334-.335.334-.335-.148-.335-.334.149-.335.335-.335zm493.26 0c.186 0 .335.149.335.335s-.15.334-.335.334-.334-.148-.334-.334.148-.335.334-.335zm-498.045.028c.169 0 .307.137.307.307s-.137.306-.307.307-.308-.137-.308-.307.138-.307.308-.307zm502.831 0c.169 0 .306.137.306.307s-.137.306-.306.307-.307-.137-.307-.307.137-.307.307-.307z"/><use href="#Aq"/><path d="M522.262 29.718a.28.28 0 0 1 .278.278.28.28 0 0 1-.278.279.28.28 0 0 1-.28-.279.28.28 0 0 1 .28-.278z"/><use href="#Ar"/><use href="#Ar" x="4.785"/><use href="#Ar" x="526.777"/><use href="#Ar" x="531.563"/><path d="M266.059 23.826c.764 0 1.384.62 1.384 1.385s-.62 1.385-1.384 1.385c-.781 0-1.401-.62-1.401-1.385s.62-1.385 1.385-1.385h.016zm-9.587.019a1.37 1.37 0 0 1 1.366 1.366 1.37 1.37 0 0 1-1.366 1.366 1.37 1.37 0 0 1-1.367-1.366 1.37 1.37 0 0 1 1.367-1.366z"/><use href="#H" x="45.496" y="-14.365"/><use href="#I" x="-45.496" y="-14.365"/><path d="M275.63 23.845a1.37 1.37 0 0 1 1.366 1.366 1.37 1.37 0 0 1-1.366 1.366 1.37 1.37 0 0 1-1.366-1.366 1.37 1.37 0 0 1 1.366-1.366zm-28.739.009c.752 0 1.357.604 1.357 1.357s-.605 1.357-1.357 1.357a1.36 1.36 0 0 1-1.357-1.357c0-.753.604-1.356 1.357-1.357zm4.786 0a1.35 1.35 0 0 1 0 2.714 1.36 1.36 0 0 1-1.357-1.357 1.35 1.35 0 0 1 1.357-1.357zm28.748 0c.752 0 1.357.604 1.357 1.357a1.36 1.36 0 0 1-1.357 1.357c-.753 0-1.357-.605-1.357-1.357s.604-1.356 1.357-1.357zm4.786 0a1.35 1.35 0 0 1 1.356 1.357 1.36 1.36 0 0 1-1.356 1.357c-.753 0-1.357-.605-1.357-1.357a1.35 1.35 0 0 1 1.357-1.357zm-43.106.018c.734 0 1.338.604 1.338 1.338s-.603 1.338-1.338 1.338a1.34 1.34 0 0 1-1.337-1.338c0-.734.603-1.338 1.337-1.338z"/><use href="#As"/><use href="#AW" x="26.335" y="-4.786"/><use href="#At"/><use href="#L" x="31.13" y="-14.365"/><use href="#L" x="35.915" y="-14.365"/><use href="#Au"/><use href="#L" x="107.753" y="-14.365"/><path d="M222.944 23.91c.716 0 1.301.585 1.301 1.301s-.585 1.301-1.301 1.301-1.3-.585-1.3-1.301.585-1.301 1.3-1.301zm86.213 0c.716 0 1.301.585 1.301 1.301s-.585 1.301-1.301 1.301-1.301-.585-1.301-1.301.586-1.301 1.301-1.301z"/><use href="#AY" x="21.549" y="-4.785"/><use href="#AY" x="117.334" y="-4.785"/><use href="#P" x="26.344" y="-14.365"/><use href="#P" x="131.7" y="-14.365"/><path d="M208.578 23.946c.698 0 1.264.566 1.264 1.264s-.566 1.264-1.264 1.264-1.264-.566-1.264-1.264.566-1.264 1.264-1.264z"/><use href="#Av"/><use href="#Aa" x="-141.28" y="-4.785"/><use href="#Aw"/><path d="M199.007 24.003c.669 0 1.218.549 1.218 1.218s-.549 1.217-1.218 1.217c-.678 0-1.218-.548-1.218-1.217s.549-1.218 1.218-1.218zm134.088 0a1.22 1.22 0 0 1 1.217 1.218c-.001.669-.539 1.217-1.217 1.217-.669 0-1.218-.548-1.218-1.217s.549-1.218 1.218-1.218z"/><use href="#Ax"/><use href="#Ax" x="143.678"/><use href="#Ay"/><use href="#Ay" x="153.249"/><use href="#Az"/><path d="M347.47 24.039c.65 0 1.171.52 1.171 1.171s-.53 1.171-1.171 1.171c-.651 0-1.171-.521-1.171-1.171s.52-1.171 1.171-1.171z"/><use href="#BA"/><path d="M352.256 24.06a1.16 1.16 0 0 1 1.152 1.152 1.15 1.15 0 0 1-1.152 1.152 1.16 1.16 0 0 1-1.152-1.152 1.16 1.16 0 0 1 1.152-1.152zm-177.195.035c.622 0 1.123.502 1.124 1.124s-.502 1.125-1.124 1.125-1.125-.503-1.125-1.125.502-1.124 1.125-1.124zm181.98 0c.622 0 1.125.502 1.125 1.124s-.502 1.125-1.125 1.125-1.124-.503-1.124-1.125.502-1.124 1.124-1.124zm-186.775 0c.615 0 1.115.5 1.115 1.115s-.5 1.115-1.115 1.115-1.116-.499-1.116-1.115.5-1.115 1.116-1.115z"/><use href="#BB"/><use href="#AH" x="-220.294" y="-9.58"/><use href="#BC"/><use href="#BD"/><path d="M371.408 24.132a1.08 1.08 0 0 1 1.077 1.078 1.08 1.08 0 0 1-1.077 1.078 1.08 1.08 0 0 1-1.078-1.078 1.08 1.08 0 0 1 1.078-1.078z"/><use href="#W" x="-232.272" y="-14.366"/><use href="#BE"/><path d="M151.113 24.188a1.04 1.04 0 0 1 1.033 1.031c.001.566-.466 1.031-1.033 1.031a1.03 1.03 0 0 1-1.031-1.031c0-.567.465-1.031 1.031-1.031zm229.875 0c.567 0 1.031.465 1.032 1.031a1.03 1.03 0 0 1-1.032 1.031c-.567 0-1.031-.464-1.031-1.031s.465-1.031 1.031-1.031z"/><use href="#Ae" x="11.978" y="-4.786"/><use href="#Ae" x="251.423" y="-4.786"/><use href="#Af" x="11.969" y="-4.784"/><use href="#Z" x="265.79" y="-14.365"/><path d="M136.747 24.244c.534 0 .967.433.967.967s-.433.966-.967.966-.966-.432-.966-.966.433-.966.966-.967z"/><use href="#BF"/><path d="M131.962 24.28c.52 0 .938.418.938.939s-.418.938-.938.938-.939-.418-.939-.938.419-.939.939-.939zm268.178 0c.52 0 .938.418.938.939s-.418.938-.938.938-.939-.418-.939-.938.418-.938.939-.939z"/><use href="#AJ" x="14.366" y="-9.57"/><path d="M404.935 24.291c.511 0 .919.409.919.92a.92.92 0 0 1-.919.92c-.511 0-.92-.409-.92-.92s.409-.92.92-.92zm-282.554.019a.91.91 0 0 1 .901.901.91.91 0 0 1-.901.901c-.502 0-.902-.409-.902-.901a.91.91 0 0 1 .902-.901z"/><use href="#BG"/><path d="M117.596 24.336a.87.87 0 0 1 .873.873c0 .483-.39.874-.873.874s-.873-.391-.873-.874a.87.87 0 0 1 .873-.873z"/><use href="#BH"/><use href="#Ak" x="-318.469" y="-4.786"/><use href="#Ak" x="-11.969" y="-4.786"/><path d="M108.015 24.383a.83.83 0 0 1 .827.827.83.83 0 0 1-.827.827c-.457 0-.827-.371-.827-.827s.37-.827.827-.827z"/><use href="#BI"/><path d="M103.229 24.411c.446 0 .799.353.799.799s-.353.8-.799.8a.8.8 0 0 1-.798-.8c0-.446.353-.799.798-.799zm325.643 0c.446 0 .8.353.8.799a.8.8 0 0 1-.8.8c-.446 0-.799-.354-.799-.8s.353-.799.799-.799z"/><use href="#h" x="11.969" y="-14.366"/><use href="#h" x="347.201" y="-14.366"/><path d="M93.649 24.468c.409 0 .743.334.743.743s-.334.743-.743.743-.744-.334-.744-.743.335-.743.744-.743z"/><use href="#BJ"/><path d="M88.863 24.494c.39 0 .716.326.716.716s-.326.715-.716.715c-.399 0-.716-.325-.716-.715s.326-.716.716-.716zm354.375 0c.391 0 .716.326.716.716s-.316.715-.716.715c-.39 0-.715-.325-.716-.715s.326-.716.716-.716z"/><use href="#Al" x="2.397" y="-4.786"/><use href="#Al" x="366.362" y="-4.786"/><use href="#BK"/><path d="M452.818 24.56c.363 0 .661.298.661.66s-.298.659-.661.659a.66.66 0 0 1-.659-.659c0-.362.297-.66.659-.66zm-378.331.008c.353 0 .642.288.642.642s-.289.641-.642.641a.64.64 0 0 1-.641-.641c0-.353.288-.641.641-.642zm383.127 0c.353 0 .641.288.641.642s-.288.64-.641.641a.64.64 0 0 1-.641-.641c0-.353.288-.642.641-.642zm-387.912.029c.344 0 .613.27.613.613s-.269.613-.613.613a.61.61 0 0 1-.613-.613c0-.344.269-.613.613-.613zm392.697 0c.344 0 .614.27.614.613s-.279.613-.614.613c-.343 0-.613-.269-.613-.613s.27-.613.613-.613zm-397.482.019a.6.6 0 0 1 .595.595.6.6 0 0 1-.595.595c-.335 0-.595-.27-.595-.595a.6.6 0 0 1 .595-.595z"/><use href="#BL"/><use href="#AP" x="9.571" y="-9.581"/><use href="#BM"/><use href="#BN"/><path d="M476.766 24.682c.288 0 .529.241.529.529a.53.53 0 0 1-.529.53c-.288 0-.53-.242-.53-.53s.242-.529.53-.529z"/><use href="#q" x="7.184" y="-14.365"/><use href="#q" x="438.184" y="-14.365"/><use href="#r" x="11.969" y="-14.368"/><path d="M486.346 24.744c.26 0 .473.214.473.474s-.213.475-.473.475-.474-.214-.474-.475.214-.474.474-.474z"/><use href="#t" x="11.969" y="-14.365"/><path d="M491.132 24.756c.25 0 .455.204.455.455s-.204.456-.455.456-.456-.205-.456-.456.205-.455.456-.455z"/><use href="#BO"/><path d="M495.917 24.783a.43.43 0 0 1 .428.428c0 .236-.192.427-.428.427s-.427-.191-.427-.427a.43.43 0 0 1 .427-.428zm-464.527.028c.223 0 .399.177.399.399s-.177.399-.399.399-.399-.176-.399-.399.176-.399.399-.399zm469.322 0c.223 0 .399.176.399.399s-.176.399-.399.399-.4-.177-.4-.399.177-.399.4-.399z"/><use href="#BP"/><path d="M505.498 24.839c.204 0 .371.168.371.372s-.167.371-.371.371-.372-.167-.372-.371.168-.372.372-.372zm-483.68.037c.186 0 .334.149.334.335s-.148.334-.334.334-.335-.148-.335-.334.149-.335.335-.335zm488.465 0c.186 0 .335.149.335.335s-.149.334-.335.334-.334-.148-.334-.334.149-.335.334-.335z"/><use href="#BQ"/><use href="#BQ" x="498.055"/><use href="#Aq" x="2.397" y="-4.786"/><path d="M519.864 24.932a.28.28 0 0 1 .279.278.28.28 0 0 1-.279.279.28.28 0 0 1-.279-.279.28.28 0 0 1 .279-.278z"/><use href="#Ar" x="7.182" y="-4.795"/><use href="#Ar" x="524.379" y="-4.795"/><path d="M2.657 24.997a.214.214 0 1 1 0 .428.214.214 0 1 1 0-.428zm526.787 0a.214.214 0 1 1 0 .428c-.12 0-.213-.093-.214-.214a.21.21 0 0 1 .214-.214zm-265.783-5.93c.753 0 1.357.604 1.358 1.356s-.605 1.357-1.358 1.357l-.004-.001-.003.001c-.752 0-1.356-.605-1.356-1.357a1.35 1.35 0 0 1 1.356-1.356h.007zm4.786 0a1.35 1.35 0 1 1 0 2.713l-.004-.001-.003.001c-.752 0-1.356-.605-1.356-1.357a1.35 1.35 0 0 1 1.356-1.356h.007zm-9.588.02c.734 0 1.339.604 1.339 1.338s-.605 1.338-1.339 1.338a1.34 1.34 0 0 1-1.338-1.338c.001-.734.605-1.338 1.338-1.338z"/><use href="#As" x="-16.754" y="-4.785"/><use href="#At" x="-45.503" y="-4.786"/><use href="#AX" x="-67.052" y="-9.572"/><use href="#AX" x="-43.099" y="-9.572"/><path d="M282.813 19.095a1.33 1.33 0 0 1 1.33 1.329 1.33 1.33 0 0 1-1.33 1.328 1.33 1.33 0 0 1-1.329-1.328 1.33 1.33 0 0 1 1.329-1.329z"/><use href="#L" x="47.884" y="-19.161"/><use href="#Au" x="-11.969" y="-4.796"/><path d="M234.923 19.124c.715 0 1.301.585 1.301 1.301s-.586 1.301-1.301 1.301-1.302-.585-1.302-1.301.586-1.301 1.302-1.301z"/><use href="#BR"/><use href="#BS"/><path d="M297.18 19.124c.715 0 1.3.585 1.3 1.301s-.585 1.3-1.3 1.301-1.302-.585-1.302-1.301.586-1.301 1.302-1.301z"/><use href="#AY" x="28.733" y="-9.581"/><use href="#AY" x="33.518" y="-9.581"/><use href="#AY" x="105.366" y="-9.581"/><use href="#AY" x="110.151" y="-9.581"/><use href="#BT"/><use href="#BT" x="4.795"/><path d="M311.546 19.16c.697 0 1.264.567 1.264 1.264s-.567 1.263-1.264 1.264-1.265-.567-1.265-1.264.568-1.264 1.265-1.264zm4.794 0c.697 0 1.264.567 1.264 1.264s-.567 1.264-1.264 1.264-1.264-.567-1.264-1.264.567-1.263 1.264-1.264z"/><use href="#Aw" x="-117.334" y="-4.785"/><path d="M321.126 19.18c.688 0 1.245.557 1.245 1.245s-.557 1.245-1.245 1.245-1.245-.557-1.245-1.245.557-1.245 1.245-1.245zm-119.73.027a1.22 1.22 0 0 1 1.216 1.218 1.22 1.22 0 0 1-1.216 1.217c-.679 0-1.218-.548-1.218-1.217a1.22 1.22 0 0 1 1.218-1.218zm4.794 0c.669 0 1.217.549 1.217 1.218a1.22 1.22 0 0 1-1.217 1.217c-.678 0-1.217-.548-1.217-1.217a1.22 1.22 0 0 1 1.217-1.218z"/><use href="#BU"/><use href="#BU" x="4.795"/><path d="M196.609 19.217c.66 0 1.199.539 1.2 1.198s-.54 1.199-1.2 1.199a1.2 1.2 0 0 1-1.198-1.199 1.2 1.2 0 0 1 1.198-1.198zm138.883 0a1.2 1.2 0 0 1 1.198 1.198 1.2 1.2 0 0 1-1.198 1.199c-.66 0-1.199-.54-1.199-1.199s.54-1.198 1.199-1.198zm-143.678.027a1.18 1.18 0 0 1 1.181 1.18c0 .651-.53 1.181-1.181 1.181a1.18 1.18 0 1 1 0-2.36zm148.473 0a1.18 1.18 0 1 1 0 2.36c-.65 0-1.18-.53-1.18-1.181a1.18 1.18 0 0 1 1.18-1.18zm-153.258.029a1.16 1.16 0 0 1 1.153 1.152 1.16 1.16 0 0 1-1.153 1.152 1.15 1.15 0 0 1-1.152-1.152 1.16 1.16 0 0 1 1.152-1.152zm158.043 0a1.16 1.16 0 0 1 1.153 1.152c0 .632-.512 1.152-1.153 1.152a1.16 1.16 0 0 1-1.151-1.152 1.16 1.16 0 0 1 1.151-1.152zm-162.829.027c.623 0 1.125.502 1.125 1.124s-.502 1.125-1.125 1.125-1.124-.503-1.124-1.125.502-1.124 1.124-1.124zm167.615 0a1.12 1.12 0 0 1 1.124 1.124c0 .622-.501 1.125-1.124 1.125s-1.125-.502-1.125-1.125.503-1.124 1.125-1.124z"/><use href="#BV"/><use href="#BW"/><path d="M167.877 19.338c.604 0 1.088.483 1.088 1.087s-.484 1.088-1.088 1.088-1.087-.484-1.087-1.088a1.08 1.08 0 0 1 1.087-1.087zm4.786 0a1.08 1.08 0 0 1 1.087 1.087c0 .604-.483 1.088-1.087 1.088s-1.088-.484-1.088-1.088.484-1.087 1.088-1.087z"/><use href="#AH" x="-26.335" y="-14.365"/><path d="M364.225 19.338c.603 0 1.086.483 1.087 1.087s-.483 1.088-1.087 1.088-1.088-.484-1.088-1.088.484-1.087 1.088-1.087z"/><use href="#BD" x="2.388" y="-4.784"/><path d="M369.02 19.348a1.08 1.08 0 0 1 1.078 1.078 1.08 1.08 0 0 1-1.078 1.078 1.08 1.08 0 0 1-1.079-1.078 1.08 1.08 0 0 1 1.079-1.078z"/><use href="#W" x="-229.874" y="-19.151"/><use href="#W" x="-14.366" y="-19.151"/><use href="#Ae" x="19.161" y="-9.573"/><use href="#Ae" x="244.241" y="-9.573"/><path d="M148.716 19.44a.985.985 0 1 1 0 1.97c-.539 0-.985-.436-.986-.984a.98.98 0 0 1 .986-.985zm234.67 0a.98.98 0 0 1 .985.985c0 .548-.446.984-.985.984a.985.985 0 1 1 0-1.97z"/><use href="#BX"/><path d="M388.171 19.458c.534 0 .967.433.967.967a.97.97 0 0 1-.967.966c-.534 0-.966-.432-.966-.966s.432-.967.966-.967z"/><use href="#AI" x="16.754" y="-14.368"/><path d="M139.145 19.485c.52 0 .939.418.939.938s-.419.939-.939.939-.939-.418-.939-.939.418-.938.939-.938zm253.812 0c.52 0 .938.418.939.938s-.419.938-.939.939-.938-.418-.938-.939.418-.938.938-.938zm4.795 0c.52 0 .938.418.938.938s-.418.938-.938.939-.939-.418-.939-.939.419-.938.939-.938zm-268.188.011c.511 0 .92.409.92.92s-.409.92-.92.92a.92.92 0 0 1-.919-.92c0-.511.408-.92.919-.92z"/><use href="#c" x="-14.366" y="-19.16"/><path d="M124.778 19.523a.91.91 0 0 1 .902.901c0 .492-.4.901-.902.901a.9.9 0 0 1-.901-.901.91.91 0 0 1 .901-.901zm282.545 0a.91.91 0 0 1 .902.901c0 .492-.4.901-.902.901a.9.9 0 0 1-.901-.901.91.91 0 0 1 .901-.901z"/><use href="#d" x="9.571" y="-19.153"/><use href="#d" x="301.705" y="-19.153"/><use href="#BY"/><use href="#BY" x="301.705"/><use href="#BZ"/><use href="#BZ" x="311.277"/><use href="#h" x="14.366" y="-19.151"/><use href="#h" x="19.152" y="-19.151"/><use href="#h" x="340.018" y="-19.151"/><use href="#h" x="344.804" y="-19.151"/><use href="#AM" x="11.979" y="-14.365"/><use href="#AM" x="351.988" y="-14.365"/><path d="M91.252 19.682a.73.73 0 0 1 0 1.468c-.399 0-.734-.325-.734-.733a.73.73 0 0 1 .734-.734z"/><use href="#j" x="-9.581" y="-19.16"/><use href="#Al" x="4.795" y="-9.582"/><use href="#Al" x="363.965" y="-9.582"/><use href="#An" x="14.366" y="-9.573"/><path d="M450.431 19.773c.362 0 .65.288.65.65s-.288.65-.65.65-.651-.288-.651-.65.288-.65.651-.65z"/><use href="#Ba"/><path d="M455.216 19.804c.344 0 .623.279.623.623s-.28.622-.623.622a.62.62 0 0 1-.622-.622c0-.344.278-.623.622-.623z"/><use href="#n" x="14.366" y="-19.151"/><use href="#n" x="19.161" y="-19.151"/><use href="#Bb"/><use href="#Bb" x="4.795"/><path d="M62.52 19.857c.306 0 .566.26.566.566s-.26.567-.566.567a.57.57 0 0 1-.567-.567c0-.306.261-.566.567-.566zm407.062 0c.307 0 .567.26.567.566a.57.57 0 0 1-.567.567c-.306 0-.566-.261-.566-.567s.26-.566.566-.566zm-411.849.009c.306 0 .549.241.549.548s-.242.549-.549.549a.55.55 0 0 1-.548-.549c0-.306.241-.548.548-.548zm416.635 0c.307 0 .548.242.548.548a.55.55 0 0 1-.548.549c-.306 0-.549-.242-.549-.549s.243-.548.549-.548z"/><use href="#Ao" x="4.786" y="-9.579"/><use href="#Ao" x="431.01" y="-9.579"/><use href="#Ap" x="14.366" y="-9.579"/><path d="M483.948 19.961c.251 0 .456.204.456.455s-.205.456-.456.456-.455-.205-.455-.456.205-.455.455-.455zm-440.581.027c.242 0 .436.195.437.437s-.195.436-.437.436-.436-.195-.436-.436.195-.436.436-.437zm445.367 0c.242 0 .437.195.437.437s-.195.436-.437.436-.436-.195-.436-.436.195-.437.436-.437z"/><use href="#Bc"/><use href="#u" x="14.366" y="-19.152"/><use href="#Bc" x="459.742"/><path d="M498.314 20.016a.41.41 0 0 1 .41.409.41.41 0 0 1-.41.408.41.41 0 0 1-.408-.408.41.41 0 0 1 .408-.409z"/><use href="#BP" x="2.397" y="-4.785"/><use href="#Bd"/><use href="#Be"/><path d="M507.896 20.081a.35.35 0 0 1 .343.344c0 .186-.148.344-.343.344a.35.35 0 0 1-.344-.344.35.35 0 0 1 .344-.344z"/><use href="#Bf"/><use href="#Bf" x="493.26"/><use href="#Ar" x="14.365" y="-9.581"/><use href="#Ar" x="517.197" y="-9.581"/><path d="M9.84 20.202c.121 0 .223.102.224.223s-.103.224-.224.224-.223-.103-.223-.224.102-.222.223-.223zm512.421 0c.12 0 .223.102.223.223s-.102.224-.223.224-.223-.103-.223-.224.102-.222.223-.223z"/><use href="#Bg"/><use href="#Bh"/><path d="M527.047 20.23c.102 0 .195.093.195.195s-.084.195-.195.195c-.102 0-.195-.093-.195-.195s.093-.195.195-.195zm4.785 0c.102 0 .195.093.195.195s-.084.195-.195.195c-.102 0-.194-.093-.194-.195s.092-.195.194-.195zm-265.773-5.957c.752 0 1.357.604 1.357 1.356a1.36 1.36 0 0 1-1.357 1.357c-.759 0-1.372-.605-1.372-1.357a1.35 1.35 0 0 1 1.356-1.356h.016z"/><use href="#AD" x="52.679" y="-19.151"/><path d="M270.845 14.302c.734 0 1.337.604 1.338 1.338a1.34 1.34 0 0 1-1.338 1.338c-.734 0-1.338-.604-1.338-1.338s.604-1.338 1.338-1.338z"/><use href="#AX" x="-69.449" y="-14.365"/><path d="M256.472 14.302a1.33 1.33 0 0 1 1.328 1.329 1.33 1.33 0 0 1-1.328 1.328 1.33 1.33 0 0 1-1.329-1.328 1.33 1.33 0 0 1 1.329-1.329z"/><use href="#At" x="-19.161" y="-9.579"/><use href="#AX" x="-40.701" y="-14.365"/><use href="#L" x="45.496" y="-23.946"/><use href="#Au" x="-52.686" y="-9.581"/><use href="#M" x="83.815" y="-23.946"/><use href="#L" x="93.387" y="-23.946"/><use href="#BS" x="-55.083" y="-4.795"/><use href="#BR" x="55.083" y="-4.795"/><use href="#AY" x="31.13" y="-14.366"/><use href="#N" x="40.71" y="-23.945"/><use href="#O" x="-40.71" y="-23.945"/><use href="#AY" x="107.753" y="-14.366"/><path d="M218.158 14.365c.698 0 1.265.566 1.265 1.264s-.567 1.264-1.265 1.264-1.263-.566-1.263-1.264.565-1.263 1.263-1.264z"/><use href="#Bi"/><use href="#Bi" x="86.213"/><path d="M313.943 14.365c.698 0 1.264.566 1.264 1.264s-.566 1.263-1.264 1.264-1.264-.566-1.264-1.264.566-1.264 1.264-1.264z"/><use href="#Bj"/><path d="M318.729 14.386c.687 0 1.245.557 1.245 1.245s-.558 1.245-1.245 1.245-1.246-.557-1.246-1.245.558-1.245 1.246-1.245zm-114.937.036c.669 0 1.218.549 1.218 1.218s-.549 1.217-1.218 1.217c-.678 0-1.217-.548-1.217-1.217s.548-1.217 1.217-1.218z"/><use href="#Bk"/><path d="M323.523 14.422a1.22 1.22 0 0 1 1.217 1.218c0 .669-.538 1.217-1.217 1.217a1.22 1.22 0 0 1-1.217-1.217 1.22 1.22 0 0 1 1.217-1.218zm4.787 0a1.22 1.22 0 0 1 1.216 1.218c0 .669-.538 1.217-1.216 1.217-.669 0-1.218-.548-1.218-1.217s.549-1.218 1.218-1.218z"/><use href="#Bl"/><path d="M333.095 14.431a1.2 1.2 0 0 1 1.198 1.198 1.2 1.2 0 0 1-1.198 1.199c-.659 0-1.199-.539-1.199-1.199a1.2 1.2 0 0 1 1.199-1.198zm-138.883.029c.65 0 1.18.529 1.181 1.18s-.531 1.181-1.181 1.181-1.18-.53-1.18-1.181a1.18 1.18 0 0 1 1.18-1.18zm143.678 0a1.18 1.18 0 1 1 0 2.36c-.651 0-1.181-.53-1.181-1.181a1.18 1.18 0 0 1 1.181-1.18zm-153.258.027a1.16 1.16 0 0 1 1.152 1.152 1.16 1.16 0 0 1-1.152 1.152c-.641 0-1.152-.521-1.153-1.152a1.16 1.16 0 0 1 1.153-1.152z"/><use href="#BA" x="9.581" y="-9.573"/><use href="#S" x="-31.13" y="-23.937"/><use href="#S" x="-26.335" y="-23.937"/><path d="M179.846 14.515c.622 0 1.125.502 1.125 1.124s-.503 1.125-1.125 1.125-1.124-.503-1.124-1.125a1.12 1.12 0 0 1 1.124-1.124z"/><use href="#Bm"/><path d="M175.061 14.515c.615 0 1.115.499 1.115 1.115s-.5 1.115-1.115 1.115-1.116-.499-1.116-1.115.5-1.115 1.116-1.115z"/><use href="#BB" x="-4.795" y="-9.58"/><use href="#Bn"/><use href="#V" x="213.12" y="-23.946"/><use href="#Bo"/><use href="#BD" x="205.928" y="-9.58"/><use href="#Bp"/><use href="#Bp" x="210.713"/><use href="#Ae" x="21.549" y="-14.367"/><use href="#Ae" x="241.853" y="-14.367"/><path d="M151.113 14.617c.558 0 1.014.455 1.014 1.013s-.456 1.013-1.014 1.013-1.012-.455-1.012-1.013.455-1.012 1.012-1.013zm229.875 0c.558 0 1.013.455 1.013 1.013s-.455 1.013-1.013 1.013-1.012-.455-1.012-1.013.455-1.013 1.012-1.013z"/><use href="#a" x="-260.995" y="-23.946"/><use href="#Bq"/><path d="M141.533 14.662c.534 0 .966.433.966.967s-.432.966-.966.966a.97.97 0 0 1-.967-.966c0-.534.433-.967.967-.967zm249.035 0c.534 0 .967.433.967.967s-.433.966-.967.966-.965-.432-.965-.966.432-.966.965-.967zm-253.821.03a.94.94 0 0 1 .94.939.94.94 0 0 1-.94.938.94.94 0 0 1-.938-.938.94.94 0 0 1 .938-.939zm258.607 0a.94.94 0 0 1 .939.939.94.94 0 0 1-.939.938.94.94 0 0 1-.938-.938.94.94 0 0 1 .938-.939z"/><use href="#b" x="16.764" y="-23.946"/><use href="#Br"/><path d="M127.167 14.737a.91.91 0 0 1 .901.901.91.91 0 0 1-.901.901.9.9 0 0 1-.901-.901.91.91 0 0 1 .901-.901z"/><use href="#BG" x="-4.786" y="-9.573"/><use href="#BH" x="-292.125" y="-9.569"/><use href="#d" x="299.308" y="-23.937"/><use href="#Ak" x="-313.674" y="-14.364"/><use href="#Aj" x="313.674" y="-14.364"/><path d="M112.801 14.803c.457 0 .827.37.827.827a.83.83 0 0 1-.827.827c-.457 0-.827-.37-.827-.827s.37-.827.827-.827z"/><use href="#BI" x="-4.786" y="-9.58"/><use href="#g" x="-332.835" y="-23.946"/><use href="#AL" x="330.438" y="-19.161"/><use href="#h" x="16.763" y="-23.946"/><use href="#h" x="342.406" y="-23.946"/><use href="#AM" x="14.367" y="-19.151"/><use href="#AM" x="349.599" y="-19.151"/><use href="#i" x="11.978" y="-23.946"/><path d="M438.452 14.896a.73.73 0 0 1 .735.734c-.001.409-.335.733-.735.733a.73.73 0 1 1 0-1.468z"/><use href="#Al" x="7.192" y="-14.366"/><use href="#Al" x="361.567" y="-14.366"/><use href="#Bs"/><use href="#Bs" x="363.965"/><use href="#An" x="11.978" y="-14.367"/><path d="M452.818 14.979c.363 0 .652.288.652.65s-.289.65-.652.65-.65-.288-.65-.65.288-.65.65-.65zm-378.33.038a.62.62 0 1 1 0 1.245c-.343 0-.623-.278-.623-.622s.279-.623.623-.623z"/><use href="#Ba" x="380.728" y="-4.787"/><path d="M69.702 15.044a.6.6 0 0 1 .595.595.6.6 0 0 1-.595.595c-.334 0-.595-.269-.595-.595a.6.6 0 0 1 .595-.595zm392.697 0a.6.6 0 0 1 .595.595c0 .325-.26.595-.595.595a.6.6 0 0 1-.594-.595.6.6 0 0 1 .594-.595zm-397.482.019c.313 0 .566.254.566.566a.57.57 0 0 1-.566.567.57.57 0 0 1-.567-.567c0-.313.255-.566.567-.566zm402.268 0a.57.57 0 0 1 .567.566.57.57 0 0 1-.567.567.57.57 0 0 1-.567-.567c0-.313.254-.566.567-.566zm-407.063.02a.55.55 0 0 1 .548.548.55.55 0 0 1-.548.549.55.55 0 0 1-.549-.549.55.55 0 0 1 .549-.548zm411.857 0a.55.55 0 0 1 .549.548.55.55 0 0 1-.549.549.55.55 0 0 1-.547-.549.55.55 0 0 1 .547-.548z"/><use href="#Ao" x="7.183" y="-14.366"/><use href="#Ao" x="428.613" y="-14.366"/><use href="#AR" x="14.366" y="-19.151"/><path d="M481.551 15.166c.26 0 .474.214.474.474s-.214.475-.474.475-.474-.215-.474-.475.214-.473.474-.474z"/><use href="#Ap" x="11.969" y="-14.365"/><use href="#t" x="457.345" y="-23.946"/><path d="M40.97 15.202c.242 0 .437.195.438.437s-.196.436-.437.436-.437-.195-.437-.436.195-.436.437-.437zm450.162 0c.241 0 .436.195.436.437s-.195.436-.436.436-.438-.195-.438-.436.196-.437.438-.437z"/><use href="#Bc" x="2.398" y="-4.795"/><use href="#Bt"/><use href="#Bu"/><use href="#BP" x="474.108" y="-9.58"/><path d="M26.604 15.294a.35.35 0 0 1 .345.344.35.35 0 0 1-.345.344c-.195 0-.344-.158-.344-.344a.35.35 0 0 1 .344-.344z"/><use href="#Bv"/><path d="M21.818 15.324c.176 0 .315.14.315.316s-.139.315-.315.316-.316-.139-.316-.316.14-.316.316-.316zm488.465 0c.177 0 .317.14.317.316s-.14.316-.317.316-.315-.139-.315-.316.139-.316.315-.316z"/><use href="#x" x="7.183" y="-23.946"/><use href="#x" x="505.238" y="-23.946"/><use href="#Ar" x="11.967" y="-14.365"/><use href="#Ar" x="519.594" y="-14.365"/><path d="M7.452 15.416c.121 0 .222.102.223.223s-.102.223-.223.224-.223-.103-.223-.224.102-.223.223-.223zm517.197 0c.121 0 .224.102.224.223s-.103.224-.224.224-.222-.103-.222-.224.102-.223.222-.223z"/><use href="#Bh" x="-2.398" y="-4.787"/><path d="M529.444 15.443c.103 0 .196.093.196.195s-.084.195-.196.195c-.102 0-.194-.093-.194-.195s.092-.195.194-.195zm-265.783-5.89a1.292 1.292 0 1 1 0 2.583l-.004-.001-.003.001a1.32 1.32 0 0 1-.245-.024c-.6-.12-1.046-.641-1.046-1.267a1.29 1.29 0 0 1 1.291-1.292h.007zm4.786 0a1.29 1.29 0 0 1 .254 2.557 1.32 1.32 0 0 1-.254.026l-.004-.001-.003.001a1.292 1.292 0 1 1 0-2.583h.007zm-9.588.017c.703 0 1.274.57 1.274 1.273s-.571 1.272-1.274 1.272a1.27 1.27 0 0 1-1.272-1.272c0-.702.569-1.273 1.272-1.273zm14.383 0c.703 0 1.273.57 1.273 1.273s-.57 1.272-1.273 1.272-1.273-.569-1.273-1.272.57-1.273 1.273-1.273zm-28.749.011c.697 0 1.265.567 1.265 1.264s-.568 1.264-1.265 1.264-1.264-.567-1.264-1.264.567-1.263 1.264-1.264zm4.795 0c.698 0 1.265.566 1.265 1.264s-.567 1.264-1.265 1.264-1.264-.566-1.264-1.264.566-1.263 1.264-1.264z"/><use href="#Bi" x="31.13" y="-4.784"/><use href="#Av" x="-45.496" y="-14.365"/><use href="#Av" x="-40.71" y="-14.365"/><path d="M287.608 9.581c.697 0 1.264.567 1.264 1.264s-.567 1.264-1.264 1.264-1.263-.567-1.263-1.264.566-1.264 1.263-1.264zm-52.686.027c.682 0 1.236.554 1.236 1.236s-.554 1.235-1.236 1.235-1.235-.553-1.235-1.235.553-1.236 1.235-1.236zm4.786 0c.683 0 1.235.554 1.235 1.236s-.553 1.235-1.235 1.235-1.236-.553-1.236-1.235.553-1.236 1.236-1.236zm52.686 0c.682 0 1.236.554 1.236 1.236s-.554 1.235-1.236 1.235-1.236-.553-1.236-1.235.553-1.236 1.236-1.236z"/><use href="#Bw"/><use href="#Bx"/><use href="#Bx" x="4.785"/><path d="M301.975 9.627c.672 0 1.216.546 1.216 1.218s-.544 1.217-1.216 1.217-1.218-.545-1.218-1.217a1.22 1.22 0 0 1 1.218-1.218z"/><use href="#By"/><path d="M215.762 9.645c.659 0 1.198.54 1.198 1.199a1.2 1.2 0 0 1-1.198 1.198c-.66 0-1.199-.539-1.2-1.198s.54-1.199 1.2-1.199zm4.794 0c.659 0 1.199.539 1.199 1.199a1.2 1.2 0 0 1-1.199 1.198c-.659 0-1.198-.539-1.199-1.198s.539-1.199 1.199-1.199z"/><use href="#R" x="138.883" y="-28.732"/><path d="M316.341 9.645c.659 0 1.198.54 1.198 1.199a1.2 1.2 0 0 1-1.198 1.198 1.2 1.2 0 0 1-1.199-1.198 1.2 1.2 0 0 1 1.199-1.199zm-105.365.019a1.18 1.18 0 0 1 1.18 1.18c0 .65-.53 1.181-1.18 1.181a1.18 1.18 0 1 1 0-2.36zm110.15 0c.65 0 1.179.529 1.18 1.18a1.18 1.18 0 0 1-1.18 1.181c-.65 0-1.181-.53-1.181-1.181s.531-1.18 1.181-1.18zm-119.73.027c.636 0 1.152.516 1.152 1.152s-.516 1.152-1.152 1.152-1.153-.516-1.153-1.152.516-1.152 1.153-1.152z"/><use href="#AG" x="45.496" y="-23.947"/><use href="#Bz"/><use href="#Bz" x="4.795"/><path d="M196.609 9.701c.632 0 1.144.511 1.144 1.143s-.512 1.143-1.144 1.143a1.14 1.14 0 1 1 0-2.286zm138.883 0a1.14 1.14 0 1 1 0 2.286c-.632 0-1.143-.512-1.143-1.143a1.14 1.14 0 0 1 1.143-1.143zm-143.678.028a1.125 1.125 0 0 1 0 2.249c-.622 0-1.124-.502-1.124-1.125a1.12 1.12 0 0 1 1.124-1.124zm148.473 0a1.125 1.125 0 0 1 0 2.249c-.622 0-1.124-.502-1.124-1.125a1.12 1.12 0 0 1 1.124-1.124z"/><use href="#BW" x="-167.624" y="-9.581"/><path d="M345.072 9.729c.616 0 1.116.499 1.116 1.115s-.5 1.115-1.116 1.115-1.114-.5-1.114-1.115.499-1.115 1.114-1.115z"/><use href="#BD" x="21.549" y="-14.365"/><use href="#Bo" x="184.379" y="-4.785"/><use href="#W" x="-210.723" y="-28.732"/><use href="#CA"/><path d="M167.877 9.822c.567 0 1.032.465 1.032 1.031s-.465 1.031-1.032 1.031a1.03 1.03 0 0 1-1.031-1.031c0-.567.464-1.031 1.031-1.031zm4.786 0c.567 0 1.031.465 1.031 1.031s-.464 1.031-1.031 1.031a1.03 1.03 0 0 1-1.031-1.031c0-.567.464-1.031 1.031-1.031zm186.775 0c.567 0 1.033.465 1.033 1.031a1.03 1.03 0 0 1-1.033 1.031c-.566 0-1.031-.465-1.031-1.031s.465-1.031 1.031-1.031zm4.787 0c.566 0 1.031.465 1.031 1.031a1.03 1.03 0 0 1-1.031 1.031c-.567 0-1.032-.464-1.032-1.031s.465-1.031 1.032-1.031z"/><use href="#Ae" x="28.732" y="-19.152"/><use href="#Ae" x="234.67" y="-19.152"/><use href="#CB"/><use href="#CB" x="215.508"/><path d="M153.511 9.859c.544 0 .985.441.985.985s-.441.984-.985.984-.984-.441-.985-.984.441-.985.985-.985zm225.08 0c.544 0 .984.441.984.985s-.44.984-.984.984-.985-.441-.986-.984.442-.985.986-.985z"/><use href="#CC"/><use href="#CC" x="234.67"/><use href="#b" x="28.733" y="-28.731"/><use href="#c" x="-28.732" y="-28.731"/><use href="#CD"/><use href="#CD" x="4.795"/><use href="#CE"/><use href="#CE" x="4.795"/><path d="M129.564 9.972c.483 0 .873.39.874.873s-.39.874-.874.874-.874-.391-.874-.874.391-.873.874-.873z"/><use href="#BH" x="-11.969" y="-14.364"/><path d="M124.778 9.999c.467 0 .846.379.846.846s-.379.846-.846.846-.845-.379-.845-.846.378-.845.845-.846z"/><use href="#CF"/><path d="M119.984 10.017c.457 0 .827.37.827.827a.83.83 0 0 1-.827.827.83.83 0 0 1-.827-.827.83.83 0 0 1 .827-.827zm292.134 0c.457 0 .826.37.826.827s-.369.827-.826.827-.827-.37-.827-.827.37-.827.827-.827zm-296.92.047c.428 0 .78.353.781.78s-.353.781-.781.781a.78.78 0 0 1-.78-.781c0-.427.353-.78.78-.78zm301.705 0c.428 0 .78.353.781.78a.78.78 0 0 1-.781.781c-.427 0-.78-.354-.78-.781s.353-.78.78-.78z"/><use href="#AM" x="26.344" y="-23.937"/><use href="#AM" x="337.621" y="-23.937"/><path d="M100.832 10.1c.409 0 .743.334.743.743s-.334.743-.743.743-.743-.334-.743-.743.334-.743.743-.743z"/><use href="#BJ" x="-332.835" y="-14.368"/><use href="#CG"/><path d="M431.27 10.1c.408 0 .743.335.743.743s-.335.743-.743.743-.744-.334-.744-.743.335-.743.744-.743z"/><use href="#k" x="19.161" y="-28.732"/><path d="M436.056 10.138c.389 0 .706.316.706.706s-.317.706-.706.706a.71.71 0 0 1-.707-.706c0-.39.317-.706.707-.706zm-344.804.018a.69.69 0 0 1 .688.688.69.69 0 0 1-.687.687.69.69 0 0 1-.688-.687.69.69 0 0 1 .688-.688zm349.599 0a.69.69 0 0 1 .687.688.69.69 0 0 1-.687.687.69.69 0 0 1-.689-.687.69.69 0 0 1 .689-.688z"/><use href="#AN" x="16.764" y="-23.94"/><path d="M445.636 10.192c.362 0 .66.298.66.66s-.298.659-.66.659a.66.66 0 0 1-.66-.659c0-.362.297-.66.66-.66zm-363.965.039c.344 0 .613.269.613.613s-.269.613-.613.613c-.334 0-.613-.27-.613-.613s.27-.613.613-.613zm368.76 0c.343 0 .613.27.613.613s-.279.613-.613.613c-.344 0-.614-.269-.614-.613s.27-.613.614-.613z"/><use href="#CH"/><use href="#CH" x="378.331"/><use href="#AP" x="16.754" y="-23.946"/><use href="#AP" x="21.549" y="-23.946"/><use href="#AP" x="409.451" y="-23.946"/><use href="#AQ" x="-16.754" y="-23.946"/><use href="#p" x="14.367" y="-28.732"/><use href="#p" x="421.43" y="-28.732"/><use href="#q" x="14.366" y="-28.732"/><use href="#q" x="431.001" y="-28.732"/><path d="M52.939 10.38a.48.48 0 0 1 .475.474c.001.26-.214.475-.475.475s-.474-.214-.474-.475.214-.473.474-.474zm426.224 0c.26 0 .474.214.474.474s-.214.475-.474.475-.474-.214-.474-.475.214-.474.474-.474zm-431.01.036a.43.43 0 0 1 .428.428c0 .236-.192.427-.428.427s-.428-.191-.428-.427a.43.43 0 0 1 .428-.428zm435.795 0a.43.43 0 0 1 .428.428c0 .236-.192.427-.428.427s-.426-.191-.427-.427.191-.428.427-.428zm-440.581.029a.4.4 0 0 1 .399.399.4.4 0 0 1-.399.399.4.4 0 0 1-.399-.399.4.4 0 0 1 .399-.399zm445.367 0a.4.4 0 0 1 .4.399.4.4 0 0 1-.4.399.4.4 0 0 1-.399-.399.4.4 0 0 1 .399-.399z"/><use href="#Bu" x="2.397" y="-4.786"/><path d="M38.572 10.473c.205 0 .372.167.372.372s-.167.371-.372.371a.372.372 0 1 1 0-.743zm454.957 0a.372.372 0 1 1 0 .743c-.205 0-.372-.166-.372-.371s.167-.372.372-.372zm4.785 0c.205 0 .373.168.373.372s-.168.371-.373.371-.37-.167-.371-.371.167-.372.371-.372z"/><use href="#w" x="14.366" y="-28.732"/><path d="M503.101 10.511c.185 0 .334.149.334.335s-.149.334-.334.334-.335-.148-.335-.334.149-.335.335-.335z"/><use href="#BQ" x="7.183" y="-14.365"/><path d="M507.896 10.538a.31.31 0 0 1 .306.307.31.31 0 0 1-.306.307.31.31 0 0 1-.307-.307.31.31 0 0 1 .307-.307zm-488.475.056a.25.25 0 0 1 .251.251c0 .139-.113.251-.251.251a.251.251 0 1 1 0-.502zm493.26 0c.138 0 .251.112.251.251s-.113.251-.251.251a.251.251 0 1 1 0-.502zm-498.046.027c.123 0 .223.1.224.223s-.101.224-.224.224-.223-.101-.223-.224.1-.223.223-.223zm502.832 0c.123 0 .222.1.222.223s-.099.223-.222.224-.224-.1-.224-.224.101-.223.224-.223z"/><use href="#Bg" x="9.571" y="-9.582"/><path d="M522.262 10.648c.102 0 .195.093.195.195s-.084.195-.195.195c-.102 0-.195-.093-.196-.195s.093-.195.196-.195zM.269 10.669a.17.17 0 0 1 .177.177c0 .102-.075.177-.177.177-.093 0-.176-.075-.176-.177a.17.17 0 0 1 .176-.177zm4.786 0c.102 0 .177.075.177.177s-.075.177-.177.177c-.093 0-.177-.075-.177-.177a.17.17 0 0 1 .177-.177zm521.992 0c.102 0 .177.075.177.177s-.084.177-.177.177c-.102 0-.177-.075-.177-.177s.075-.177.177-.177zm4.786 0a.17.17 0 0 1 .176.177c0 .102-.083.177-.176.177-.102 0-.177-.075-.177-.177s.075-.177.177-.177zM266.059 4.795c.698 0 1.263.566 1.263 1.264s-.565 1.264-1.263 1.264c-.714 0-1.28-.566-1.28-1.264s.566-1.264 1.264-1.264h.016z"/><use href="#Bj" x="47.884" y="-9.573"/><path d="M270.845 4.813c.687 0 1.245.558 1.245 1.245s-.558 1.245-1.245 1.245-1.245-.557-1.245-1.245.557-1.245 1.245-1.245z"/><use href="#Bw" x="-45.503" y="-4.786"/><use href="#Bw" x="-40.708" y="-4.786"/><path d="M275.63 4.822c.682 0 1.236.554 1.236 1.236s-.554 1.235-1.236 1.235-1.235-.553-1.235-1.235.552-1.236 1.235-1.236zm4.795 0c.682 0 1.236.554 1.236 1.236s-.554 1.235-1.236 1.235-1.235-.553-1.236-1.235.553-1.236 1.236-1.236zm-38.32.019a1.22 1.22 0 0 1 1.218 1.218 1.22 1.22 0 0 1-1.218 1.217c-.673 0-1.217-.545-1.217-1.217a1.22 1.22 0 0 1 1.217-1.218zm4.786 0a1.22 1.22 0 0 1 1.217 1.218c0 .672-.545 1.217-1.217 1.217s-1.217-.545-1.217-1.217a1.22 1.22 0 0 1 1.217-1.218z"/><use href="#By" x="-21.549" y="-4.786"/><use href="#Q" x="112.548" y="-33.517"/><path d="M237.311 4.85c.669 0 1.208.539 1.208 1.208s-.539 1.208-1.208 1.208-1.208-.539-1.208-1.208.538-1.208 1.208-1.208z"/><use href="#Ax" x="100.579" y="-19.153"/><path d="M227.739 4.85a1.2 1.2 0 0 1 1.199 1.199 1.2 1.2 0 0 1-1.199 1.198 1.2 1.2 0 0 1-1.199-1.198c0-.659.539-1.199 1.199-1.199zm4.786 0c.66 0 1.199.54 1.199 1.199a1.2 1.2 0 0 1-1.199 1.198 1.2 1.2 0 0 1-1.199-1.198c0-.659.54-1.199 1.199-1.199zm67.052 0a1.2 1.2 0 0 1 1.198 1.199 1.2 1.2 0 0 1-1.198 1.198c-.659 0-1.199-.539-1.199-1.198s.539-1.199 1.199-1.199zm4.785 0c.66 0 1.2.539 1.2 1.199s-.54 1.198-1.2 1.198a1.2 1.2 0 0 1-1.198-1.198 1.2 1.2 0 0 1 1.198-1.199z"/><use href="#CI"/><use href="#CI" x="86.213"/><use href="#AF" x="52.68" y="-28.732"/><use href="#AF" x="148.463" y="-28.732"/><use href="#Ac" x="50.291" y="-23.947"/><use href="#Ad" x="-50.291" y="-23.947"/><path d="M208.578 4.915c.632 0 1.142.511 1.143 1.143s-.511 1.144-1.143 1.144a1.143 1.143 0 1 1 0-2.286zm114.945 0a1.14 1.14 0 0 1 1.143 1.143c0 .632-.511 1.144-1.143 1.144a1.14 1.14 0 1 1 0-2.287z"/><use href="#Bm" x="-148.463" y="-9.58"/><path d="M328.309 4.935c.622 0 1.124.502 1.125 1.124s-.503 1.125-1.125 1.125-1.124-.503-1.124-1.125a1.12 1.12 0 0 1 1.124-1.124z"/><use href="#BV" x="21.559" y="-14.366"/><path d="M333.095 4.944c.616 0 1.115.499 1.115 1.115s-.499 1.115-1.115 1.115-1.115-.499-1.116-1.115.5-1.115 1.116-1.115z"/><use href="#Bn" x="19.161" y="-9.571"/><path d="M194.212 4.972a1.09 1.09 0 0 1 1.087 1.087 1.09 1.09 0 0 1-1.087 1.088c-.601 0-1.087-.487-1.087-1.088s.487-1.087 1.087-1.087zm143.678 0a1.09 1.09 0 0 1 1.087 1.087 1.09 1.09 0 0 1-1.087 1.088c-.601 0-1.087-.487-1.087-1.088s.486-1.087 1.087-1.087z"/><use href="#V" x="193.959" y="-33.517"/><path d="M184.632 4.999a1.06 1.06 0 1 1 0 2.12 1.06 1.06 0 1 1 0-2.12zm162.838 0a1.06 1.06 0 1 1 0 2.12 1.06 1.06 0 1 1 0-2.12z"/><use href="#W" x="-208.325" y="-33.517"/><use href="#W" x="-35.915" y="-33.517"/><use href="#Ae" x="40.711" y="-23.938"/><path d="M357.041 5.036a1.02 1.02 0 0 1 1.022 1.022 1.022 1.022 0 1 1-2.043 0 1.02 1.02 0 0 1 1.021-1.022zm-186.775.01a1.01 1.01 0 0 1 0 2.026c-.559 0-1.013-.453-1.013-1.013s.453-1.013 1.013-1.013zm191.57 0c.559 0 1.014.453 1.014 1.013s-.455 1.013-1.014 1.013-1.013-.453-1.013-1.013.454-1.013 1.013-1.013z"/><use href="#Bq" x="-220.294" y="-9.572"/><use href="#a" x="-40.701" y="-33.518"/><use href="#BF" x="-234.66" y="-19.151"/><use href="#Ag" x="246.629" y="-23.937"/><use href="#CJ"/><use href="#CJ" x="220.303"/><path d="M151.113 5.129c.511 0 .93.419.93.93s-.419.929-.93.929a.93.93 0 0 1-.928-.929.93.93 0 0 1 .928-.93zm229.875 0c.511 0 .929.419.929.93a.93.93 0 0 1-.929.929.93.93 0 0 1-.929-.929c0-.511.418-.93.929-.93z"/><use href="#b" x="31.13" y="-33.527"/><path d="M385.773 5.129c.512 0 .92.409.92.92a.92.92 0 0 1-.92.92c-.511 0-.919-.409-.919-.92s.408-.92.919-.92zm-244.24.027a.89.89 0 0 1 .892.892c0 .492-.399.893-.892.893s-.892-.4-.892-.893a.89.89 0 0 1 .892-.892z"/><use href="#Ai" x="-26.335" y="-23.949"/><path d="M136.747 5.186c.482 0 .874.391.874.873s-.392.874-.874.874-.873-.392-.873-.874.391-.873.873-.873zm258.607 0c.483 0 .873.391.874.873s-.391.874-.874.874-.874-.392-.874-.874.392-.873.874-.873z"/><use href="#Aj" x="31.13" y="-23.936"/><use href="#Ak" x="-31.13" y="-23.936"/><use href="#BI" x="-296.92" y="-19.153"/><path d="M404.935 5.23a.83.83 0 0 1 .827.827.83.83 0 0 1-.827.827.83.83 0 0 1-.828-.827.83.83 0 0 1 .828-.827z"/><use href="#CK"/><use href="#CK" x="287.339"/><path d="M117.596 5.277c.427 0 .78.353.78.78s-.353.781-.78.781a.78.78 0 0 1-.781-.781c.001-.427.353-.78.781-.78zm296.91 0c.427 0 .78.353.78.78a.78.78 0 0 1-.78.781c-.428 0-.78-.354-.78-.781s.353-.78.78-.78z"/><use href="#AM" x="28.733" y="-28.732"/><use href="#AM" x="335.233" y="-28.732"/><path d="M108.015 5.314c.41 0 .744.333.744.743s-.334.743-.744.743-.744-.333-.744-.743.333-.743.744-.743zm316.072 0c.41 0 .743.333.743.743s-.333.743-.743.743-.744-.333-.744-.743.333-.743.744-.743zm-320.858.039a.71.71 0 0 1 .707.706c0 .39-.316.706-.707.706s-.706-.316-.706-.706.317-.706.706-.706z"/><use href="#Al" x="347.201" y="-23.937"/><path d="M98.435 5.37a.69.69 0 0 1 .688.688.69.69 0 0 1-.687.688.69.69 0 0 1-.687-.687.69.69 0 0 1 .688-.687zm335.232 0c.38 0 .687.308.687.688s-.307.688-.687.688a.69.69 0 0 1-.688-.687.69.69 0 0 1 .688-.687z"/><use href="#BK" x="14.366" y="-19.161"/><path d="M438.452 5.399c.363 0 .66.298.66.66s-.298.659-.66.659a.66.66 0 0 1-.659-.659c0-.362.297-.66.659-.66zm-349.589.01c.353 0 .642.288.642.642s-.289.641-.642.641a.64.64 0 0 1-.641-.641c0-.353.287-.641.641-.642zm354.375 0c.353 0 .641.289.641.642a.641.641 0 1 1-1.282 0c0-.353.288-.642.641-.642zm-359.17.036c.339 0 .613.275.613.613s-.275.613-.613.613-.613-.275-.613-.613.275-.613.613-.613zm363.965 0c.339 0 .613.275.613.613s-.274.613-.613.613-.613-.275-.613-.613.275-.613.613-.613z"/><use href="#AO" x="23.947" y="-28.732"/><path d="M452.818 5.463c.329 0 .595.266.595.595s-.266.595-.595.595-.594-.266-.594-.595.266-.595.594-.595z"/><use href="#AP" x="23.937" y="-28.732"/><use href="#BM" x="-14.366" y="-19.151"/><use href="#BN" x="14.366" y="-19.154"/><path d="M462.399 5.528c.288 0 .529.241.53.529a.53.53 0 0 1-.53.53c-.288 0-.53-.242-.53-.53s.242-.529.53-.529z"/><use href="#Ao" x="16.764" y="-23.947"/><use href="#Ao" x="419.032" y="-23.947"/><use href="#r" x="26.335" y="-33.527"/><use href="#s" x="-26.335" y="-33.527"/><use href="#t" x="26.335" y="-33.518"/><path d="M476.766 5.603c.251 0 .455.204.455.455s-.204.456-.455.456-.455-.205-.455-.456.203-.455.455-.455z"/><use href="#BO" x="14.366" y="-19.151"/><path d="M481.552 5.632c.236 0 .427.192.427.428s-.191.426-.427.427-.428-.191-.428-.427a.43.43 0 0 1 .428-.428z"/><use href="#Bc" x="11.969" y="-14.366"/><use href="#Bt" x="-9.571" y="-9.571"/><use href="#BP" x="14.366" y="-19.153"/><use href="#Bd" x="-11.969" y="-14.368"/><use href="#Be" x="11.979" y="-14.365"/><use href="#Bv" x="-9.581" y="-9.578"/><path d="M31.39 5.743c.174 0 .316.142.316.316s-.141.315-.316.315-.316-.141-.316-.315.142-.316.316-.316zm469.322 0c.174 0 .316.142.316.316s-.142.315-.316.315-.315-.141-.316-.315.142-.316.316-.316z"/><use href="#x" x="16.764" y="-33.517"/><use href="#x" x="495.658" y="-33.517"/><use href="#y" x="21.548" y="-33.516"/><use href="#AT" x="-19.161" y="-28.733"/><path d="M17.023 5.809c.13 0 .242.111.242.241s-.112.242-.242.242-.241-.112-.241-.242.111-.241.241-.241zm498.055 0c.13 0 .241.111.241.241s-.111.242-.241.242-.241-.112-.241-.242.111-.241.241-.241z"/><use href="#CL"/><path d="M519.864 5.845a.21.21 0 0 1 .214.214.214.214 0 0 1-.428 0 .21.21 0 0 1 .214-.214zM7.452 5.873a.17.17 0 0 1 .177.177c0 .102-.075.177-.177.177-.093 0-.177-.075-.177-.177a.17.17 0 0 1 .177-.177zm517.197 0a.17.17 0 0 1 .177.177c0 .102-.084.177-.177.177a.17.17 0 0 1-.176-.177.17.17 0 0 1 .176-.177zM2.657 5.909c.082 0 .148.066.148.148s-.066.149-.148.149-.148-.067-.148-.149.066-.148.148-.148zm526.787 0c.082 0 .149.066.149.148a.15.15 0 0 1-.149.149c-.082 0-.148-.067-.148-.149s.066-.148.148-.148zM263.661 0c.698 0 1.264.566 1.264 1.264s-.566 1.264-1.264 1.264l-.004-.001-.003.001c-.698 0-1.263-.566-1.263-1.264S262.957 0 263.654 0h.007zm4.786 0c.698 0 1.264.566 1.264 1.264s-.566 1.264-1.264 1.264l-.004-.001-.003.001c-.698 0-1.263-.566-1.263-1.264S267.742 0 268.44 0h.007zm-9.588.019c.688 0 1.245.557 1.245 1.245s-.557 1.245-1.245 1.245-1.245-.558-1.245-1.245.558-1.245 1.245-1.245zm14.383 0c.688 0 1.245.557 1.245 1.245s-.557 1.245-1.245 1.245-1.245-.557-1.245-1.245.558-1.245 1.245-1.245zm-23.954.008c.678 0 1.236.549 1.236 1.236s-.558 1.235-1.236 1.235-1.235-.548-1.235-1.235.557-1.236 1.235-1.236zm4.786 0c.683 0 1.237.554 1.237 1.236s-.554 1.235-1.237 1.235-1.236-.553-1.236-1.235.554-1.236 1.236-1.236zm23.953 0c.683 0 1.237.554 1.237 1.236s-.554 1.235-1.237 1.235-1.235-.553-1.235-1.235.553-1.236 1.235-1.236zm4.786 0c.679 0 1.236.549 1.236 1.236s-.557 1.235-1.236 1.235-1.236-.548-1.236-1.235.558-1.236 1.236-1.236z"/><use href="#Bk" x="35.915" y="-14.366"/><path d="M287.608.056c.669 0 1.217.549 1.217 1.218s-.539 1.217-1.217 1.217a1.22 1.22 0 0 1-1.217-1.217 1.22 1.22 0 0 1 1.217-1.218zm-52.686 0c.669 0 1.209.539 1.209 1.208s-.54 1.208-1.209 1.208-1.208-.539-1.208-1.208.539-1.208 1.208-1.208z"/><use href="#Ax" x="45.496" y="-23.947"/><use href="#Ax" x="98.182" y="-23.947"/><use href="#Ax" x="102.968" y="-23.947"/><use href="#Bl" x="26.335" y="-14.366"/><use href="#Ay" x="40.701" y="-23.947"/><use href="#AE" x="131.709" y="-33.518"/><path d="M306.76.065a1.2 1.2 0 0 1 1.198 1.198 1.2 1.2 0 0 1-1.198 1.199c-.659 0-1.199-.539-1.199-1.199A1.2 1.2 0 0 1 306.76.065zm-90.998.028c.65 0 1.17.521 1.17 1.171s-.52 1.171-1.17 1.171a1.17 1.17 0 0 1-1.171-1.171c0-.651.52-1.171 1.171-1.171z"/><use href="#Az" x="35.924" y="-23.946"/><path d="M311.546.093c.65 0 1.171.521 1.171 1.171s-.53 1.171-1.171 1.171c-.651 0-1.171-.52-1.171-1.171s.52-1.171 1.171-1.171zm4.795 0c.65 0 1.17.521 1.17 1.171a1.17 1.17 0 0 1-1.17 1.171c-.651 0-1.171-.52-1.171-1.171s.52-1.171 1.171-1.171zM210.976.12a1.16 1.16 0 0 1 1.152 1.152 1.16 1.16 0 0 1-1.152 1.152c-.641 0-1.153-.521-1.153-1.152A1.16 1.16 0 0 1 210.976.12zm110.15 0a1.16 1.16 0 0 1 1.152 1.152 1.15 1.15 0 0 1-1.152 1.152 1.16 1.16 0 0 1-1.152-1.152A1.16 1.16 0 0 1 321.126.12zm-119.73.02c.62 0 1.123.503 1.124 1.124s-.504 1.125-1.124 1.125-1.125-.504-1.125-1.125.504-1.124 1.125-1.124zm4.794 0c.621 0 1.124.503 1.124 1.124s-.503 1.125-1.124 1.125-1.125-.504-1.125-1.125S205.57.14 206.19.14zm119.722 0c.621 0 1.124.503 1.124 1.124s-.503 1.125-1.124 1.125-1.125-.504-1.125-1.125.504-1.124 1.125-1.124z"/><use href="#T" x="177.195" y="-38.311"/><path d="M196.609.148c.616 0 1.116.499 1.116 1.115s-.5 1.115-1.116 1.115-1.115-.499-1.115-1.115.5-1.115 1.115-1.115z"/><use href="#BV" x="158.044" y="-19.162"/><path d="M191.814.186a1.08 1.08 0 0 1 1.087 1.087c0 .604-.483 1.088-1.087 1.088a1.08 1.08 0 0 1-1.086-1.088 1.08 1.08 0 0 1 1.086-1.087z"/><use href="#BC" x="-26.335" y="-23.937"/><path d="M187.029.176c.601 0 1.087.487 1.087 1.087a1.09 1.09 0 0 1-1.087 1.088 1.09 1.09 0 0 1-1.088-1.088 1.09 1.09 0 0 1 1.088-1.087z"/><use href="#V" x="196.356" y="-38.313"/><use href="#BE" x="-193.959" y="-23.946"/><use href="#CA" x="-4.795" y="-9.58"/><path d="M177.448.241a1.02 1.02 0 0 1 1.023 1.022 1.022 1.022 0 0 1-2.044 0 1.02 1.02 0 0 1 1.021-1.022zm177.205 0a1.02 1.02 0 0 1 1.023 1.022 1.023 1.023 0 1 1-2.045 0 1.02 1.02 0 0 1 1.022-1.022zm-186.776.01c.557 0 1.014.455 1.014 1.013s-.457 1.013-1.014 1.013-1.013-.455-1.013-1.013.456-1.013 1.013-1.013zm4.786 0c.557 0 1.013.455 1.013 1.013s-.456 1.012-1.013 1.013-1.014-.455-1.014-1.013a1.02 1.02 0 0 1 1.014-1.013zm186.775 0c.558 0 1.014.455 1.014 1.013s-.456 1.013-1.014 1.013-1.012-.455-1.012-1.013.455-1.013 1.012-1.013zm4.787 0c.557 0 1.012.455 1.012 1.013s-.455 1.013-1.012 1.013-1.013-.455-1.013-1.013.455-1.013 1.013-1.013zM163.082.278a.98.98 0 0 1 .985.985.98.98 0 0 1-.985.984c-.539 0-.984-.436-.984-.984a.98.98 0 0 1 .984-.985zm205.938 0a.98.98 0 0 1 .984.985c0 .548-.446.984-.984.984a.98.98 0 0 1-.986-.984.98.98 0 0 1 .986-.985z"/><use href="#BX" x="14.366" y="-19.16"/><path d="M373.805.298c.533 0 .966.433.966.967s-.433.966-.966.966-.966-.432-.966-.966.432-.967.966-.967zM153.511.307a.96.96 0 0 1 .958.957.96.96 0 0 1-.958.957c-.529 0-.957-.429-.957-.957s.428-.957.957-.957zm225.08 0a.96.96 0 0 1 .957.957.96.96 0 0 1-.957.957c-.529 0-.957-.428-.957-.957s.428-.957.957-.957z"/><use href="#AJ" x="35.915" y="-33.518"/><use href="#Br" x="-16.754" y="-14.367"/><path d="M143.931.372a.89.89 0 0 1 .891.892c0 .492-.399.892-.891.893s-.893-.4-.893-.893.4-.892.893-.892zm244.24 0a.89.89 0 0 1 .892.892c0 .493-.4.893-.892.893s-.892-.4-.892-.893.4-.891.892-.892zM134.35.399c.483 0 .873.39.874.873s-.391.874-.874.874-.873-.391-.873-.874a.87.87 0 0 1 .873-.873zm4.795 0c.483 0 .873.39.874.873s-.391.874-.874.874-.874-.391-.874-.874.391-.873.874-.873z"/><use href="#d" x="282.544" y="-38.305"/><use href="#d" x="287.339" y="-38.305"/><use href="#CF" x="-277.759" y="-9.582"/><use href="#Aj" x="301.705" y="-28.732"/><path d="M124.778.436c.457 0 .827.37.827.827s-.37.827-.827.827a.83.83 0 0 1-.827-.827.83.83 0 0 1 .827-.827zm282.545 0c.457 0 .827.37.827.827s-.37.827-.827.827a.83.83 0 0 1-.827-.827c0-.457.37-.827.827-.827zm-287.34.019a.81.81 0 0 1 .809.809.81.81 0 0 1-.809.809.81.81 0 0 1-.807-.809.81.81 0 0 1 .807-.809z"/><use href="#g" x="-28.732" y="-38.312"/><use href="#CM"/><use href="#CM" x="301.705"/><path d="M110.412.521c.409 0 .744.334.744.743s-.335.743-.744.743-.743-.334-.743-.743.334-.743.743-.743z"/><use href="#CG" x="-4.795" y="-9.579"/><use href="#Al" x="19.161" y="-28.733"/><use href="#k" x="28.732" y="-38.313"/><use href="#k" x="349.598" y="-38.313"/><path d="M431.27.557c.39 0 .705.316.706.706s-.316.706-.706.706-.707-.316-.707-.706a.71.71 0 0 1 .707-.706zM96.046.575a.69.69 0 0 1 .688.688.69.69 0 0 1-.688.688.69.69 0 0 1-.687-.687.69.69 0 0 1 .688-.688zm340.01 0a.69.69 0 0 1 .687.688.69.69 0 0 1-.687.688.69.69 0 0 1-.689-.687.69.69 0 0 1 .689-.688z"/><use href="#l" x="-368.75" y="-38.312"/><use href="#m" x="-23.947" y="-38.312"/><path d="M86.466.622c.353 0 .642.288.642.642s-.289.641-.642.641a.64.64 0 0 1-.641-.641c0-.353.288-.642.641-.642zm359.17 0c.353 0 .641.289.641.642a.64.64 0 0 1-.641.641c-.353 0-.642-.288-.642-.641s.289-.642.642-.642z"/><use href="#n" x="28.732" y="-38.302"/><use href="#BL" x="-16.754" y="-23.937"/><use href="#CN"/><use href="#CN" x="378.331"/><use href="#CO"/><use href="#CO" x="4.795"/><use href="#CP"/><use href="#CP" x="4.795"/><path d="M62.52.742a.52.52 0 1 1 0 1.041.52.52 0 0 1-.52-.52.52.52 0 0 1 .52-.521z"/><use href="#Ao" x="421.429" y="-28.733"/><path d="M57.733.799c.26 0 .473.214.474.474s-.213.475-.474.475-.474-.214-.474-.475.214-.474.474-.474zm416.635 0c.26 0 .474.214.474.474s-.214.475-.474.475-.473-.214-.473-.475.213-.474.473-.474z"/><use href="#t" x="23.938" y="-38.313"/><use href="#AS" x="447.773" y="-33.527"/><use href="#Bc" x="14.366" y="-19.161"/><use href="#u" x="459.742" y="-38.313"/><use href="#BP" x="16.763" y="-23.948"/><path d="M488.734.891c.205 0 .371.168.371.372a.37.37 0 0 1-.371.371c-.204 0-.371-.167-.372-.371s.168-.372.372-.372z"/><use href="#Be" x="9.581" y="-19.151"/><use href="#Be" x="14.366" y="-19.151"/><path d="M493.529.93a.35.35 0 0 1 .344.344c0 .186-.149.344-.344.344a.35.35 0 0 1-.343-.344.35.35 0 0 1 .343-.344zm4.785 0a.35.35 0 0 1 .344.344c0 .186-.148.344-.344.344a.35.35 0 0 1-.343-.344.35.35 0 0 1 .343-.344zM29.001.957c.176 0 .316.14.316.316s-.14.315-.316.315-.315-.139-.316-.315.139-.316.316-.316zm474.1 0c.176 0 .315.14.315.316s-.139.315-.315.315-.317-.139-.317-.315.14-.316.317-.316z"/><use href="#x" x="14.366" y="-38.313"/><path d="M507.896.975c.159 0 .288.129.288.288s-.129.288-.288.288a.29.29 0 0 1-.289-.288c0-.159.129-.288.289-.288zm-488.475.047c.13 0 .241.111.241.241s-.111.242-.241.242-.242-.112-.242-.242.112-.241.242-.241zm493.26 0c.13 0 .242.111.242.241s-.112.242-.242.242-.242-.112-.242-.242.112-.241.242-.241z"/><use href="#CL" x="2.398" y="-4.796"/><path d="M517.467 1.049a.21.21 0 0 1 .214.214.21.21 0 1 1-.428 0 .21.21 0 0 1 .214-.214zM9.84 1.087c.098 0 .177.079.177.177s-.079.177-.177.177-.176-.08-.176-.177.078-.177.176-.177zm512.422 0c.097 0 .176.079.176.177s-.079.177-.176.177-.177-.079-.177-.177.079-.177.177-.177zM.269 1.114c.084 0 .149.065.149.148s-.066.148-.149.148S.12 1.346.12 1.263s.065-.148.148-.148zm4.786 0c.082 0 .148.066.148.148s-.066.148-.148.148-.148-.066-.148-.148.066-.148.148-.148zm521.992 0c.082 0 .148.066.148.148s-.066.148-.148.148-.149-.066-.149-.148a.15.15 0 0 1 .149-.148zm4.786 0c.083 0 .148.065.148.148s-.065.148-.148.148-.149-.065-.149-.148.065-.148.149-.148z"/></g><defs ><path id="B" d="M244.493 38.126a1.45 1.45 0 0 1 1.45 1.449c0 .799-.651 1.45-1.45 1.45a1.45 1.45 0 0 1-1.449-1.45 1.45 1.45 0 0 1 1.449-1.449z"/><path id="C" d="M282.813 38.126c.799 0 1.449.65 1.45 1.449s-.651 1.45-1.45 1.45-1.45-.651-1.45-1.45a1.45 1.45 0 0 1 1.45-1.449z"/><path id="D" d="M230.127 38.155c.785 0 1.422.637 1.422 1.422s-.637 1.422-1.422 1.422a1.42 1.42 0 1 1 0-2.844z"/><path id="E" d="M239.708 38.155c.785 0 1.422.637 1.422 1.422s-.637 1.422-1.422 1.422-1.422-.637-1.422-1.422.637-1.422 1.422-1.422z"/><path id="F" d="M292.394 38.155a1.42 1.42 0 1 1 0 2.844 1.42 1.42 0 1 1 0-2.844z"/><path id="G" d="M225.342 38.183c.769 0 1.393.624 1.393 1.394s-.623 1.395-1.393 1.395-1.394-.625-1.394-1.395.624-1.394 1.394-1.394z"/><path id="H" d="M215.761 38.21a1.37 1.37 0 0 1 1.366 1.366 1.37 1.37 0 0 1-1.366 1.366 1.37 1.37 0 0 1-1.365-1.366 1.37 1.37 0 0 1 1.365-1.366z"/><path id="I" d="M316.341 38.21a1.37 1.37 0 0 1 1.365 1.366 1.37 1.37 0 0 1-1.365 1.366 1.37 1.37 0 0 1-1.366-1.366 1.37 1.37 0 0 1 1.366-1.366z"/><path id="J" d="M210.976 38.219c.749 0 1.356.607 1.356 1.356s-.607 1.357-1.356 1.357-1.357-.608-1.357-1.357.607-1.356 1.357-1.356z"/><path id="K" d="M321.126 38.219c.749 0 1.356.607 1.356 1.356s-.607 1.357-1.356 1.357-1.356-.608-1.356-1.357.607-1.356 1.356-1.356z"/><path id="L" d="M196.609 38.275a1.31 1.31 0 1 1 0 2.62 1.31 1.31 0 0 1 0-2.62z"/><path id="M" d="M201.396 38.275a1.31 1.31 0 0 1 0 2.62 1.31 1.31 0 1 1 0-2.62z"/><path id="N" d="M191.814 38.284a1.29 1.29 0 1 1 0 2.583 1.29 1.29 0 0 1 0-2.583z"/><path id="O" d="M340.287 38.284a1.29 1.29 0 0 1 0 2.583 1.29 1.29 0 1 1 0-2.583z"/><path id="P" d="M187.029 38.303a1.27 1.27 0 1 1 0 2.546 1.27 1.27 0 1 1 0-2.546z"/><path id="Q" d="M177.448 38.358a1.22 1.22 0 0 1 1.218 1.218 1.22 1.22 0 0 1-1.218 1.217 1.22 1.22 0 0 1-1.217-1.217 1.22 1.22 0 0 1 1.217-1.218z"/><path id="R" d="M172.663 38.377a1.2 1.2 0 0 1 1.198 1.199 1.2 1.2 0 0 1-1.198 1.198 1.2 1.2 0 0 1-1.199-1.198c0-.66.539-1.199 1.199-1.199z"/><path id="S" d="M373.806 38.424a1.16 1.16 0 0 1 1.151 1.152 1.15 1.15 0 0 1-1.151 1.152 1.16 1.16 0 0 1-1.153-1.152 1.16 1.16 0 0 1 1.153-1.152z"/><path id="T" d="M153.511 38.451c.621 0 1.125.503 1.125 1.124s-.504 1.125-1.125 1.125-1.124-.504-1.124-1.125.503-1.124 1.124-1.124z"/><path id="U" d="M378.591 38.451c.621 0 1.124.503 1.124 1.124s-.503 1.125-1.124 1.125-1.124-.504-1.124-1.125.503-1.124 1.124-1.124z"/><path id="V" d="M148.716 38.489a1.09 1.09 0 0 1 1.088 1.087 1.09 1.09 0 0 1-1.088 1.088 1.09 1.09 0 0 1-1.087-1.088 1.09 1.09 0 0 1 1.087-1.087z"/><path id="W" d="M388.171 38.526c.576 0 1.05.474 1.05 1.05s-.474 1.05-1.05 1.05-1.05-.474-1.05-1.05.474-1.05 1.05-1.05z"/><path id="X" d="M392.957 38.555c.567 0 1.031.465 1.031 1.031a1.03 1.03 0 0 1-1.031 1.031c-.567 0-1.031-.464-1.031-1.031s.464-1.031 1.031-1.031z"/><path id="Y" d="M402.537 38.564c.559 0 1.013.453 1.013 1.013s-.454 1.013-1.013 1.013-1.013-.453-1.013-1.013.454-1.013 1.013-1.013z"/><path id="Z" d="M124.778 38.591c.544 0 .986.441.986.985s-.442.984-.986.984-.984-.441-.984-.984.44-.985.984-.985z"/><path id="a" d="M407.323 38.591c.544 0 .985.441.985.985s-.441.984-.985.984-.985-.441-.985-.984.441-.985.985-.985z"/><path id="b" d="M115.198 38.656c.511 0 .92.409.92.92s-.409.92-.92.92a.92.92 0 0 1-.92-.92c0-.511.409-.92.92-.92z"/><path id="c" d="M416.903 38.656c.511 0 .92.409.92.92a.92.92 0 0 1-.92.92c-.511 0-.92-.409-.92-.92s.409-.92.92-.92z"/><path id="d" d="M110.413 38.704a.87.87 0 0 1 .873.873c0 .483-.39.874-.873.874s-.874-.391-.874-.874.391-.873.874-.873z"/><path id="e" d="M100.832 38.713c.477 0 .864.387.864.864s-.387.864-.864.864-.864-.387-.864-.864.387-.864.864-.864z"/><path id="f" d="M91.252 38.767a.81.81 0 0 1 .809.809.81.81 0 0 1-.809.809.81.81 0 0 1-.809-.809.81.81 0 0 1 .809-.809z"/><path id="g" d="M440.85 38.767a.81.81 0 0 1 .808.809.81.81 0 0 1-.808.809.81.81 0 0 1-.808-.809.81.81 0 0 1 .808-.809z"/><path id="h" d="M86.466 38.805a.77.77 0 1 1 0 1.543.77.77 0 1 1 0-1.543z"/><path id="i" d="M81.671 38.842a.73.73 0 1 1 0 1.468c-.4 0-.734-.325-.734-.733a.73.73 0 0 1 .734-.734z"/><path id="j" d="M450.431 38.842a.73.73 0 0 1 .734.734c0 .409-.335.733-.734.733a.73.73 0 1 1 0-1.468z"/><path id="k" d="M76.886 38.87c.39 0 .706.316.706.706s-.316.706-.706.706-.707-.316-.707-.706.317-.706.707-.706z"/><path id="l" d="M460.002 38.916a.66.66 0 0 1 .659.66.66.66 0 0 1-.659.659.66.66 0 0 1-.66-.659.66.66 0 0 1 .66-.66z"/><path id="m" d="M464.797 38.916a.66.66 0 0 1 .66.66.66.66 0 0 1-1.32 0 .66.66 0 0 1 .66-.66z"/><path id="n" d="M52.939 38.981a.6.6 0 0 1 .595.595.6.6 0 0 1-.595.595c-.334 0-.595-.27-.595-.595a.6.6 0 0 1 .595-.595z"/><path id="o" d="M479.163 38.981a.6.6 0 0 1 .595.595c0 .325-.26.595-.595.595a.6.6 0 0 1-.595-.595.6.6 0 0 1 .595-.595z"/><path id="p" d="M48.153 39.047a.53.53 0 0 1 .529.529.53.53 0 0 1-.529.53.53.53 0 0 1-.53-.53.53.53 0 0 1 .53-.529z"/><path id="q" d="M43.367 39.074a.5.5 0 1 1 0 1.004.5.5 0 1 1 0-1.004z"/><path id="r" d="M33.787 39.112c.26 0 .473.214.474.474s-.214.474-.474.475-.475-.214-.475-.475.215-.474.475-.474z"/><path id="s" d="M498.314 39.112c.261 0 .475.214.475.474s-.214.475-.475.475-.473-.215-.473-.475.214-.473.473-.474z"/><path id="t" d="M29.001 39.121c.251 0 .456.204.456.455s-.205.456-.456.456-.455-.205-.455-.456.204-.455.455-.455z"/><path id="u" d="M24.206 39.168a.41.41 0 0 1 .409.409.41.41 0 0 1-.409.408.41.41 0 0 1-.408-.408.41.41 0 0 1 .408-.409z"/><path id="v" d="M19.421 39.213c.204 0 .362.158.362.362s-.158.362-.362.362c-.195 0-.362-.158-.362-.362s.158-.362.362-.362z"/><path id="w" d="M14.635 39.243c.186 0 .335.149.335.335s-.149.334-.335.334-.334-.148-.334-.334.148-.335.334-.335z"/><path id="x" d="M9.84 39.288c.159 0 .288.129.288.288s-.129.288-.288.288-.288-.129-.288-.288.129-.288.288-.288z"/><path id="y" d="M.27 39.306a.27.27 0 0 1 .27.27.27.27 0 0 1-.27.27.27.27 0 0 1-.27-.27.27.27 0 0 1 .27-.27z"/><path id="z" d="M256.472 33.332c.808 0 1.459.651 1.459 1.459s-.651 1.459-1.459 1.459-1.459-.651-1.459-1.459.65-1.459 1.459-1.459z"/><path id="AA" d="M261.257 33.332c.808 0 1.459.651 1.459 1.459s-.651 1.459-1.459 1.459-1.459-.651-1.459-1.459.651-1.459 1.459-1.459z"/><path id="AB" d="M232.525 33.37c.79 0 1.422.632 1.422 1.422s-.632 1.422-1.422 1.422a1.42 1.42 0 0 1-1.421-1.422c0-.79.632-1.422 1.421-1.422z"/><path id="AC" d="M227.739 33.397c.77 0 1.394.624 1.394 1.393s-.624 1.395-1.394 1.395-1.393-.625-1.393-1.395.624-1.393 1.393-1.393z"/><path id="AD" d="M208.578 33.453c.734 0 1.338.604 1.338 1.338s-.604 1.338-1.338 1.338a1.34 1.34 0 0 1-1.338-1.338c0-.734.604-1.338 1.338-1.338z"/><path id="AE" d="M170.266 33.583a1.2 1.2 0 0 1 1.198 1.198c0 .66-.539 1.199-1.198 1.199s-1.2-.539-1.2-1.199.54-1.198 1.2-1.198z"/><path id="AF" d="M165.479 33.62a1.17 1.17 0 1 1 0 2.342 1.17 1.17 0 1 1 0-2.342z"/><path id="AG" d="M160.694 33.638c.637 0 1.153.516 1.153 1.152s-.516 1.152-1.153 1.152-1.152-.516-1.152-1.152.516-1.152 1.152-1.152z"/><path id="AH" d="M385.773 33.703c.604 0 1.088.483 1.088 1.087s-.484 1.088-1.088 1.088-1.086-.484-1.086-1.088a1.08 1.08 0 0 1 1.086-1.087z"/><path id="AI" d="M117.596 33.853c.52 0 .938.418.938.938s-.418.939-.938.939-.939-.418-.939-.939.418-.938.939-.938z"/><path id="AJ" d="M112.801 33.861c.511 0 .92.409.92.92s-.409.92-.92.92c-.502 0-.92-.409-.92-.92s.409-.92.92-.92z"/><path id="AK" d="M98.435 33.954c.462 0 .836.374.836.836s-.374.837-.836.837-.836-.375-.836-.837.374-.836.836-.836z"/><path id="AL" d="M93.649 33.982a.81.81 0 0 1 .808.809.81.81 0 0 1-.808.809.81.81 0 0 1-.809-.809.81.81 0 0 1 .809-.809z"/><path id="AM" d="M84.068 34.037a.75.75 0 1 1 0 1.506.75.75 0 1 1 0-1.506z"/><path id="AN" d="M69.702 34.132c.362 0 .66.298.66.66s-.298.659-.66.659a.66.66 0 0 1-.659-.659c0-.362.297-.66.659-.66z"/><path id="AO" d="M55.336 34.195c.328 0 .595.266.595.595s-.266.595-.595.595-.595-.266-.595-.595.266-.595.595-.595z"/><path id="AP" d="M50.551 34.233a.56.56 0 0 1 .558.558.56.56 0 0 1-.558.558.56.56 0 0 1-.558-.558.56.56 0 0 1 .558-.558z"/><path id="AQ" d="M481.551 34.233c.308 0 .557.25.557.558s-.249.558-.557.558a.56.56 0 0 1-.558-.558.56.56 0 0 1 .558-.558z"/><path id="AR" d="M36.185 34.317c.26 0 .473.214.474.474s-.214.475-.474.475-.475-.214-.475-.475.215-.474.475-.474z"/><path id="AS" d="M31.39 34.335c.251 0 .455.204.455.455s-.204.456-.455.456-.455-.205-.455-.456.204-.455.455-.455z"/><path id="AT" d="M529.444 34.523a.27.27 0 0 1 .27.27.27.27 0 0 1-.27.27.27.27 0 0 1-.269-.27.27.27 0 0 1 .269-.27z"/><path id="AU" d="M282.813 28.574c.79 0 1.422.632 1.422 1.422s-.641 1.422-1.422 1.422c-.789 0-1.421-.632-1.421-1.422s.632-1.422 1.421-1.422z"/><path id="AV" d="M225.342 28.631c.754 0 1.366.612 1.366 1.366s-.612 1.366-1.366 1.366-1.366-.612-1.366-1.366.611-1.366 1.366-1.366z"/><path id="AW" d="M210.976 28.667a1.33 1.33 0 0 1 1.329 1.329 1.33 1.33 0 0 1-1.329 1.328 1.33 1.33 0 0 1-1.33-1.328 1.33 1.33 0 0 1 1.33-1.329z"/><path id="AX" d="M321.126 28.667a1.33 1.33 0 0 1 1.329 1.329 1.33 1.33 0 0 1-1.329 1.328 1.33 1.33 0 0 1-1.329-1.328 1.33 1.33 0 0 1 1.329-1.329z"/><path id="AY" d="M196.609 28.705a1.29 1.29 0 1 1 0 2.583 1.29 1.29 0 1 1 0-2.583z"/><path id="AZ" d="M325.912 28.705a1.29 1.29 0 0 1 0 2.583 1.29 1.29 0 0 1-1.292-1.291c0-.713.579-1.292 1.292-1.292z"/><path id="Aa" d="M345.072 28.75c.688 0 1.246.558 1.246 1.245s-.558 1.245-1.246 1.245-1.245-.558-1.245-1.245.558-1.245 1.245-1.245z"/><path id="Ab" d="M182.243 28.788a1.21 1.21 0 0 1 1.208 1.208 1.21 1.21 0 0 1-1.208 1.208 1.21 1.21 0 0 1-1.208-1.208 1.21 1.21 0 0 1 1.208-1.208z"/><path id="Ac" d="M163.082 28.853a1.16 1.16 0 0 1 1.152 1.152 1.16 1.16 0 0 1-1.152 1.152c-.641 0-1.152-.521-1.152-1.152a1.16 1.16 0 0 1 1.152-1.152z"/><path id="Ad" d="M369.02 28.853a1.16 1.16 0 0 1 1.152 1.152c0 .632-.511 1.152-1.152 1.152a1.16 1.16 0 0 1-1.153-1.152 1.16 1.16 0 0 1 1.153-1.152z"/><path id="Ae" d="M134.35 28.974a1.02 1.02 0 1 1 0 2.044 1.02 1.02 0 1 1 0-2.044z"/><path id="Af" d="M129.564 29.01c.544 0 .986.441.986.985s-.442.984-.986.984-.985-.441-.985-.984.441-.985.985-.985z"/><path id="Ag" d="M124.778 29.03c.534 0 .967.433.967.967s-.433.966-.967.966-.965-.432-.966-.966.433-.967.966-.967z"/><path id="Ah" d="M119.983 29.058a.94.94 0 0 1 .939.938.94.94 0 0 1-.939.939.94.94 0 0 1-.938-.939.94.94 0 0 1 .938-.938z"/><path id="Ai" d="M416.903 29.105c.493 0 .893.399.893.892s-.4.893-.893.893-.891-.4-.891-.893a.89.89 0 0 1 .891-.892z"/><path id="Aj" d="M100.832 29.149c.467 0 .846.379.846.846s-.379.846-.846.846-.846-.379-.846-.846.379-.846.846-.846z"/><path id="Ak" d="M431.27 29.149c.467 0 .845.379.845.846s-.378.846-.845.846-.846-.379-.846-.846.379-.846.846-.846z"/><path id="Al" d="M81.671 29.29c.39 0 .706.316.706.706s-.316.706-.706.706-.706-.316-.706-.706.316-.706.706-.706z"/><path id="Am" d="M76.886 29.316a.68.68 0 0 1 .678.679.68.68 0 0 1-.678.678.68.68 0 0 1-.679-.678.68.68 0 0 1 .679-.679z"/><path id="An" d="M67.305 29.346c.362 0 .65.288.65.65s-.288.65-.65.65-.65-.288-.65-.65.288-.65.65-.65z"/><path id="Ao" d="M48.153 29.475a.52.52 0 1 1 0 1.041.52.52 0 1 1 0-1.041z"/><path id="Ap" d="M33.787 29.54c.251 0 .455.204.455.455s-.204.456-.455.456-.456-.205-.456-.456.205-.455.456-.455z"/><path id="Aq" d="M9.84 29.718a.28.28 0 0 1 .279.278.28.28 0 0 1-.279.279.28.28 0 0 1-.278-.279.28.28 0 0 1 .278-.278z"/><path id="Ar" d="M.27 29.754a.25.25 0 1 1 0 .502.25.25 0 1 1 0-.502z"/><path id="As" d="M289.996 23.872c.734 0 1.338.604 1.338 1.338a1.34 1.34 0 0 1-1.338 1.338c-.734 0-1.338-.604-1.338-1.338s.604-1.338 1.338-1.338z"/><path id="At" d="M294.791 23.881a1.33 1.33 0 0 1 1.329 1.329 1.33 1.33 0 0 1-1.329 1.328 1.33 1.33 0 0 1-1.328-1.328 1.33 1.33 0 0 1 1.328-1.329z"/><path id="Au" d="M299.577 23.91a1.31 1.31 0 0 1 0 2.62 1.31 1.31 0 0 1 0-2.62z"/><path id="Av" d="M323.523 23.946c.698 0 1.264.566 1.264 1.264s-.566 1.264-1.264 1.264-1.263-.566-1.263-1.264.566-1.264 1.263-1.264z"/><path id="Aw" d="M328.31 23.965c.687 0 1.245.558 1.245 1.245s-.558 1.245-1.245 1.245-1.246-.557-1.246-1.245.558-1.245 1.246-1.245z"/><path id="Ax" d="M194.212 24.003c.669 0 1.208.539 1.208 1.208s-.539 1.208-1.208 1.208-1.208-.539-1.208-1.208.539-1.208 1.208-1.208z"/><path id="Ay" d="M189.427 24.012a1.2 1.2 0 0 1 1.198 1.198c0 .66-.539 1.199-1.198 1.199s-1.199-.539-1.199-1.199a1.2 1.2 0 0 1 1.199-1.198z"/><path id="Az" d="M184.632 24.039c.65 0 1.171.52 1.171 1.171s-.521 1.171-1.171 1.171c-.641 0-1.171-.521-1.171-1.171s.52-1.171 1.171-1.171z"/><path id="BA" d="M179.846 24.06a1.16 1.16 0 0 1 1.152 1.152 1.16 1.16 0 0 1-1.152 1.152c-.641 0-1.153-.521-1.153-1.152a1.16 1.16 0 0 1 1.153-1.152z"/><path id="BB" d="M361.836 24.095c.616 0 1.115.499 1.115 1.115s-.499 1.115-1.115 1.115-1.114-.5-1.114-1.115.498-1.115 1.114-1.115z"/><path id="BC" d="M366.622 24.123a1.08 1.08 0 0 1 1.087 1.087c0 .604-.483 1.088-1.087 1.088s-1.087-.484-1.087-1.088a1.08 1.08 0 0 1 1.087-1.087z"/><path id="BD" d="M160.694 24.132a1.08 1.08 0 0 1 1.078 1.078 1.08 1.08 0 0 1-1.078 1.078 1.08 1.08 0 0 1-1.078-1.078 1.08 1.08 0 0 1 1.078-1.078z"/><path id="BE" d="M376.202 24.16c.576 0 1.051.474 1.051 1.05s-.475 1.05-1.051 1.05-1.05-.474-1.05-1.05.474-1.05 1.05-1.05z"/><path id="BF" d="M395.354 24.244c.534 0 .966.433.966.967s-.432.966-.966.966-.966-.432-.966-.966.433-.967.966-.967z"/><path id="BG" d="M409.721 24.31a.91.91 0 0 1 .901.901c0 .492-.4.901-.901.901a.91.91 0 0 1-.902-.901.91.91 0 0 1 .902-.901z"/><path id="BH" d="M414.506 24.336c.483 0 .874.39.874.873s-.391.874-.874.874-.873-.391-.873-.874a.87.87 0 0 1 .873-.873z"/><path id="BI" d="M424.087 24.383c.457 0 .827.37.827.827s-.37.827-.827.827-.827-.37-.827-.827.37-.827.827-.827z"/><path id="BJ" d="M438.452 24.468c.409 0 .744.334.744.743s-.335.743-.744.743-.743-.334-.743-.743.335-.743.743-.743z"/><path id="BK" d="M79.283 24.56c.362 0 .659.298.659.66a.66.66 0 0 1-.659.659c-.362 0-.66-.297-.66-.659s.298-.66.66-.66z"/><path id="BL" d="M467.185 24.616a.6.6 0 0 1 .594.595c0 .325-.26.595-.594.595a.6.6 0 0 1-.595-.595.6.6 0 0 1 .595-.595z"/><path id="BM" d="M471.979 24.652a.56.56 0 0 1 .558.558.56.56 0 0 1-.558.558.56.56 0 0 1-.557-.558.56.56 0 0 1 .557-.558z"/><path id="BN" d="M55.336 24.682c.288 0 .53.241.53.529s-.242.53-.53.53a.53.53 0 0 1-.529-.53c0-.288.241-.529.529-.529z"/><path id="BO" d="M36.185 24.783c.236 0 .427.192.427.428s-.191.427-.427.427-.428-.191-.428-.427a.43.43 0 0 1 .428-.428z"/><path id="BP" d="M26.604 24.839c.204 0 .372.168.372.372s-.168.371-.372.371-.371-.167-.371-.371.167-.372.371-.372z"/><path id="BQ" d="M17.023 24.903a.31.31 0 0 1 .307.307.31.31 0 0 1-.307.307.31.31 0 0 1-.307-.307.31.31 0 0 1 .307-.307z"/><path id="BR" d="M239.708 19.124c.715 0 1.301.585 1.301 1.301s-.585 1.301-1.301 1.301-1.301-.585-1.301-1.301.586-1.301 1.301-1.301z"/><path id="BS" d="M292.394 19.124c.715 0 1.3.585 1.3 1.301s-.585 1.301-1.3 1.301-1.301-.585-1.301-1.301.585-1.301 1.301-1.301z"/><path id="BT" d="M215.762 19.16c.696 0 1.263.567 1.263 1.264s-.567 1.264-1.263 1.264-1.265-.567-1.265-1.264.568-1.264 1.265-1.264z"/><path id="BU" d="M325.911 19.207c.669 0 1.218.549 1.218 1.218s-.54 1.217-1.218 1.217c-.669 0-1.216-.548-1.217-1.217s.548-1.218 1.217-1.218z"/><path id="BV" d="M177.448 19.31c.616 0 1.115.499 1.115 1.115s-.499 1.115-1.115 1.115-1.115-.499-1.115-1.115.499-1.115 1.115-1.115z"/><path id="BW" d="M354.653 19.31c.616 0 1.116.499 1.116 1.115s-.5 1.115-1.116 1.115-1.115-.499-1.115-1.115.499-1.115 1.115-1.115z"/><path id="BX" d="M143.931 19.458c.533 0 .966.433.966.967s-.433.966-.966.966-.967-.432-.967-.966.433-.967.967-.967z"/><path id="BY" d="M115.198 19.588a.83.83 0 0 1 .827.827.83.83 0 0 1-.827.827.83.83 0 0 1-.827-.827.83.83 0 0 1 .827-.827z"/><path id="BZ" d="M110.412 19.615a.81.81 0 0 1 .809.809.81.81 0 0 1-.809.809.81.81 0 0 1-.808-.809.81.81 0 0 1 .808-.809z"/><path id="Ba" d="M76.885 19.804c.344 0 .623.279.623.623s-.279.622-.623.622-.622-.279-.622-.622.279-.623.622-.623z"/><path id="Bb" d="M460.002 19.83a.6.6 0 0 1 .595.595c0 .325-.261.595-.595.595a.6.6 0 0 1-.595-.595.6.6 0 0 1 .595-.595z"/><path id="Bc" d="M33.787 20.016a.41.41 0 0 1 .409.409.41.41 0 0 1-.409.408.41.41 0 0 1-.409-.408.41.41 0 0 1 .409-.409z"/><path id="Bd" d="M503.101 20.054c.204 0 .371.168.371.372s-.167.371-.371.371-.372-.167-.372-.371.167-.372.372-.372z"/><path id="Be" d="M24.206 20.081a.35.35 0 0 1 .344.344.35.35 0 0 1-.344.344c-.195 0-.344-.158-.344-.344a.35.35 0 0 1 .344-.344z"/><path id="Bf" d="M19.421 20.137a.29.29 0 0 1 .288.288.29.29 0 0 1-.288.288.29.29 0 0 1-.288-.288.29.29 0 0 1 .288-.288z"/><path id="Bg" d="M.269 20.23c.102 0 .195.093.195.195s-.093.195-.195.195c-.111 0-.194-.093-.194-.195s.092-.195.194-.195z"/><path id="Bh" d="M5.055 20.23c.102 0 .195.093.195.195s-.093.195-.195.195c-.111 0-.195-.093-.195-.195s.093-.195.195-.195z"/><path id="Bi" d="M222.944 14.365c.698 0 1.264.566 1.264 1.264s-.566 1.264-1.264 1.264-1.263-.566-1.263-1.264.565-1.264 1.263-1.264z"/><path id="Bj" d="M213.373 14.386c.688 0 1.245.557 1.245 1.245s-.557 1.245-1.245 1.245-1.245-.558-1.245-1.245.557-1.245 1.245-1.245z"/><path id="Bk" d="M208.578 14.422c.669 0 1.218.549 1.218 1.218s-.549 1.217-1.218 1.217c-.678 0-1.216-.548-1.217-1.217a1.22 1.22 0 0 1 1.217-1.218z"/><path id="Bl" d="M199.007 14.431c.659 0 1.199.539 1.199 1.198s-.539 1.199-1.199 1.199a1.2 1.2 0 0 1-1.198-1.199 1.2 1.2 0 0 1 1.198-1.198z"/><path id="Bm" d="M352.256 14.515c.622 0 1.124.502 1.124 1.124s-.502 1.125-1.124 1.125-1.125-.502-1.125-1.125.502-1.124 1.125-1.124z"/><path id="Bn" d="M170.266 14.543a1.09 1.09 0 0 1 1.087 1.087 1.09 1.09 0 0 1-1.087 1.088 1.09 1.09 0 0 1-1.088-1.088 1.09 1.09 0 0 1 1.088-1.087z"/><path id="Bo" d="M165.479 14.552a1.08 1.08 0 0 1 1.079 1.078 1.08 1.08 0 0 1-1.079 1.078 1.08 1.08 0 0 1-1.078-1.078 1.08 1.08 0 0 1 1.078-1.078z"/><path id="Bp" d="M160.694 14.58c.576 0 1.05.474 1.05 1.05s-.474 1.051-1.05 1.051-1.05-.475-1.05-1.051.474-1.05 1.05-1.05z"/><path id="Bq" d="M385.773 14.645c.544 0 .986.441.986.985s-.442.984-.986.984-.984-.441-.984-.984.441-.985.984-.985z"/><path id="Br" d="M400.14 14.71c.511 0 .92.409.92.92s-.419.92-.92.92c-.511 0-.92-.409-.92-.92s.409-.92.92-.92z"/><path id="Bs" d="M84.068 14.951a.68.68 0 0 1 .679.679.68.68 0 0 1-.679.678.68.68 0 0 1-.679-.678.68.68 0 0 1 .679-.679z"/><path id="Bt" d="M495.917 15.221a.41.41 0 0 1 .409.409.41.41 0 0 1-.409.408c-.226 0-.408-.183-.408-.408a.41.41 0 0 1 .408-.409z"/><path id="Bu" d="M31.39 15.259c.204 0 .372.168.372.372s-.168.371-.372.371-.372-.167-.372-.371.168-.372.372-.372z"/><path id="Bv" d="M505.498 15.294a.35.35 0 0 1 .344.344c0 .186-.149.344-.344.344a.35.35 0 0 1-.344-.344.35.35 0 0 1 .344-.344z"/><path id="Bw" d="M297.18 9.608c.682 0 1.235.554 1.235 1.236s-.553 1.235-1.235 1.235-1.236-.553-1.237-1.235.554-1.236 1.237-1.236z"/><path id="Bx" d="M225.342 9.627a1.22 1.22 0 0 1 1.218 1.218 1.22 1.22 0 0 1-1.218 1.217c-.672 0-1.217-.545-1.217-1.217a1.22 1.22 0 0 1 1.217-1.218z"/><path id="By" d="M306.76 9.627a1.22 1.22 0 0 1 1.217 1.218 1.22 1.22 0 0 1-1.217 1.217 1.22 1.22 0 0 1-1.218-1.217 1.22 1.22 0 0 1 1.218-1.218z"/><path id="Bz" d="M325.912 9.691a1.15 1.15 0 1 1 0 2.305c-.636 0-1.152-.516-1.152-1.152s.516-1.152 1.152-1.152z"/><path id="CA" d="M354.653 9.794c.576 0 1.05.474 1.05 1.05s-.474 1.05-1.05 1.05-1.049-.474-1.049-1.05.473-1.05 1.049-1.05z"/><path id="CB" d="M158.297 9.85c.549 0 .994.445.994.994s-.445.994-.994.994-.994-.445-.994-.994.445-.994.994-.994z"/><path id="CC" d="M148.716 9.906a.94.94 0 0 1 .938.938.94.94 0 0 1-.938.939.94.94 0 0 1-.939-.939.94.94 0 0 1 .939-.938z"/><path id="CD" d="M134.35 9.951c.492 0 .892.399.892.892s-.4.893-.892.893-.892-.4-.892-.893a.89.89 0 0 1 .892-.892z"/><path id="CE" d="M392.957 9.951c.492 0 .891.399.892.892s-.4.892-.892.893-.893-.4-.893-.893.401-.892.893-.892z"/><path id="CF" d="M407.323 9.999c.467 0 .846.379.846.846s-.379.846-.846.846-.845-.379-.845-.846.378-.846.845-.846z"/><path id="CG" d="M426.484 10.1c.409 0 .743.335.744.743s-.335.743-.744.743-.744-.334-.744-.743.336-.743.744-.743z"/><path id="CH" d="M76.886 10.258c.325 0 .585.26.585.585s-.26.586-.585.586-.586-.261-.586-.586.261-.585.586-.585z"/><path id="CI" d="M222.944 4.879a1.18 1.18 0 0 1 1.181 1.18c0 .65-.53 1.181-1.181 1.181a1.18 1.18 0 0 1 0-2.36z"/><path id="CJ" d="M155.899 5.102c.529 0 .957.428.957.957s-.428.957-.957.957a.96.96 0 0 1-.957-.957.96.96 0 0 1 .957-.957z"/><path id="CK" d="M122.382 5.251a.81.81 0 0 1 .807.809.81.81 0 0 1-.807.809.81.81 0 0 1-.809-.809.81.81 0 0 1 .809-.809z"/><path id="CL" d="M12.237 5.845a.21.21 0 0 1 .214.214.21.21 0 1 1-.427 0 .21.21 0 0 1 .213-.214z"/><path id="CM" d="M115.198.521a.75.75 0 0 1 .753.753.75.75 0 1 1-1.506 0 .75.75 0 0 1 .753-.753z"/><path id="CN" d="M76.886.706c.308 0 .557.25.557.558s-.249.557-.557.558a.56.56 0 0 1-.558-.558.56.56 0 0 1 .558-.558z"/><path id="CO" d="M67.305.733a.53.53 0 0 1 .53.529.53.53 0 0 1-.53.53.53.53 0 0 1-.529-.53.53.53 0 0 1 .529-.529z"/><path id="CP" d="M460.002.733a.53.53 0 0 1 .529.529.53.53 0 0 1-.529.53.53.53 0 0 1-.529-.53.53.53 0 0 1 .529-.529z"/></defs></svg>