<svg xmlns="http://www.w3.org/2000/svg" width="46" height="44" fill="none"><g fill="#fff"><path d="M3.172 42.075c.284 0 .518.236.518.522s-.234.523-.518.523-.519-.236-.519-.523.235-.522.519-.522zm5.235 0c.285 0 .519.235.519.522s-.235.523-.519.523-.518-.236-.518-.523.234-.522.518-.522z"/><use href="#B"/><use href="#C"/><path d="M24.123 42.186a.39.39 0 0 1 .396.399.4.4 0 0 1-.396.399.39.39 0 1 1 0-.798z"/><use href="#D"/><path d="M34.604 42.269c.174 0 .315.142.315.318s-.141.317-.315.317-.315-.142-.315-.317.141-.318.315-.318z"/><use href="#E"/><path d="M45.075 42.288c.162 0 .295.133.295.297s-.133.297-.295.297-.295-.133-.295-.297.132-.297.295-.297zM.549 36.761a.553.553 0 1 1 0 1.106.553.553 0 1 1 0-1.106zm5.235.03a.52.52 0 0 1 .518.522c0 .287-.233.523-.518.523s-.518-.236-.518-.523.234-.522.518-.522z"/><use href="#B" x="-2.613" y="-5.274"/><use href="#C" x="-2.623" y="-5.274"/><path d="M21.5 36.893a.42.42 0 0 1 .417.42c0 .232-.186.42-.417.42a.42.42 0 0 1 0-.84zm5.246.009a.39.39 0 0 1 .396.399.4.4 0 0 1-.396.399.39.39 0 1 1 0-.798z"/><use href="#D" x="2.623" y="-5.274"/><path d="M37.216 36.995c.174 0 .315.142.315.317s-.141.318-.315.318-.315-.142-.315-.318.141-.317.315-.317z"/><use href="#E" x="2.623" y="-5.271"/><use href="#B" x="-10.471" y="-10.558"/><path d="M8.407 31.527a.5.5 0 0 1 .499.501c0 .276-.224.503-.499.503a.502.502 0 1 1 0-1.004zm5.236.032a.46.46 0 0 1 .468.471.47.47 0 0 1-.468.47.471.471 0 1 1 0-.942z"/><use href="#F"/><path d="M24.123 31.661c.203 0 .366.164.366.369s-.163.368-.366.368-.365-.163-.365-.368.162-.369.365-.369zm5.236.031c.185 0 .335.151.335.338s-.15.338-.335.338-.335-.151-.335-.338.15-.338.335-.338zm5.245.031c.168 0 .304.137.304.307s-.136.308-.304.308-.306-.138-.306-.308.137-.307.306-.307z"/><use href="#G"/><path d="M45.075 31.763c.152 0 .273.123.273.276s-.121.276-.273.277-.275-.123-.275-.277.122-.276.275-.276zM.549 26.255a.5.5 0 1 1 0 1.005c-.274 0-.499-.226-.499-.503a.5.5 0 0 1 .499-.502zm5.235.03a.471.471 0 1 1 0 .942.471.471 0 1 1 0-.942z"/><use href="#F" x="-7.858" y="-5.274"/><use href="#H"/><path d="M21.5 26.387c.203 0 .366.164.366.369s-.163.368-.366.368-.365-.164-.365-.368.162-.369.365-.369z"/><use href="#I"/><path d="M31.982 26.449c.168 0 .304.137.304.307s-.136.307-.304.308-.306-.138-.306-.308.137-.307.306-.307zm5.234.03c.152 0 .275.123.275.277s-.122.277-.275.277-.275-.123-.275-.277.122-.277.275-.277zm5.246.042a.236.236 0 0 1 0 .471c-.132 0-.234-.103-.234-.236s.102-.235.234-.236z"/><use href="#C" x="-15.716" y="-21.104"/><use href="#C" x="-10.481" y="-21.104"/><use href="#H" x="-2.622" y="-5.273"/><use href="#J"/><path d="M24.123 21.165c.173 0 .315.143.315.318s-.142.317-.315.317-.315-.143-.315-.317a.32.32 0 0 1 .315-.318zm5.236.04c.152 0 .275.123.275.277s-.122.276-.275.277-.274-.123-.275-.277.122-.277.275-.277z"/><use href="#K"/><use href="#L"/><path d="M45.074 21.267c.112 0 .214.103.214.215s-.092.215-.214.215c-.111 0-.212-.103-.213-.215s.101-.215.213-.215zM.549 15.727a.481.481 0 1 1 0 .962.48.48 0 0 1-.479-.481.48.48 0 0 1 .479-.481z"/><use href="#C" x="-13.104" y="-26.388"/><use href="#M"/><use href="#J" x="-2.623" y="-5.275"/><path d="M21.5 15.862c.193 0 .346.154.346.349s-.153.348-.346.348-.345-.153-.345-.348.152-.348.345-.349z"/><use href="#N"/><use href="#G" x="-7.857" y="-15.83"/><use href="#K" x="2.613" y="-5.274"/><path d="M42.462 15.993c.112 0 .214.103.214.215s-.092.215-.214.215c-.112 0-.212-.103-.213-.215s.101-.215.213-.215zm-39.29-5.477c.225 0 .406.184.406.41s-.182.409-.406.409a.41.41 0 0 1-.407-.409.41.41 0 0 1 .407-.41z"/><use href="#M" x="-2.623" y="-5.274"/><use href="#D" x="-15.716" y="-31.661"/><use href="#I" x="-7.858" y="-15.83"/><path d="M24.123 10.649c.152 0 .275.124.275.277s-.123.277-.275.277-.274-.124-.274-.277.123-.276.274-.277zm5.236.03c.135 0 .243.11.244.245s-.109.246-.244.247-.245-.111-.245-.247.11-.245.245-.245z"/><use href="#L" x="-5.235" y="-10.557"/><use href="#O"/><path d="M45.075 10.732c.112 0 .192.082.192.195s-.091.195-.192.195c-.112 0-.193-.082-.193-.195s.082-.195.193-.195z"/><use href="#H" x="-15.716" y="-21.106"/><use href="#J" x="-13.104" y="-15.83"/><path d="M11.03 5.304c.191 0 .346.156.346.349S11.22 6 11.03 6s-.345-.156-.345-.348.154-.348.345-.349z"/><use href="#N" x="-10.481" y="-10.547"/><use href="#E" x="-18.339" y="-36.932"/><path d="M26.746 5.376a.27.27 0 0 1 .264.266.27.27 0 0 1-.264.267.27.27 0 0 1-.264-.267.27.27 0 0 1 .264-.266z"/><use href="#P"/><use href="#O" x="-2.623" y="-5.285"/><path d="M42.462 5.487c.09 0 .162.073.162.164s-.073.165-.162.165-.162-.074-.162-.165.073-.163.162-.164zM3.172 0c.203 0 .376.174.376.379s-.163.379-.376.379c-.203 0-.376-.174-.376-.379S2.969 0 3.172 0zm5.235 0c.203 0 .376.174.376.379s-.163.379-.376.379c-.203 0-.376-.174-.376-.379S8.204 0 8.407 0zm5.236.03c.193 0 .345.154.345.349s-.152.347-.345.348-.346-.153-.346-.348.153-.349.346-.349z"/><use href="#N" x="-7.858" y="-15.831"/><path d="M24.123.102a.27.27 0 0 1 .265.266c0 .143-.123.267-.265.267a.27.27 0 0 1-.264-.267.27.27 0 0 1 .264-.266z"/><use href="#P" x="-2.623" y="-5.285"/><path d="M34.604.173c.106 0 .192.087.192.195s-.086.195-.192.195-.193-.087-.193-.195.087-.195.193-.195zm5.235.03c.09 0 .162.073.162.164s-.072.164-.162.164-.162-.073-.162-.164.073-.163.162-.164zm5.236 0c.091 0 .162.072.162.164s-.071.163-.162.164-.163-.071-.163-.164.072-.164.163-.164z"/></g><defs ><path id="B" d="M13.643 42.085a.5.5 0 1 1 0 1.004.5.5 0 1 1 0-1.004z"/><path id="C" d="M18.888 42.136a.45.45 0 1 1 0 .901.45.45 0 1 1 0-.901z"/><path id="D" d="M29.359 42.219c.203 0 .365.164.365.369s-.162.368-.365.368-.366-.163-.366-.368.163-.369.366-.369z"/><path id="E" d="M39.839 42.288c.163 0 .295.133.295.297s-.132.297-.295.297-.295-.133-.295-.297.132-.297.295-.297z"/><path id="F" d="M18.888 31.589c.244 0 .437.194.437.44s-.193.44-.437.44-.437-.194-.437-.44.193-.44.437-.44z"/><path id="G" d="M39.839 31.763c.152 0 .275.123.275.276s-.122.277-.275.277-.275-.123-.275-.277.122-.276.275-.276z"/><path id="H" d="M16.265 26.347a.41.41 0 0 1 .406.41.41.41 0 0 1-.406.409.41.41 0 0 1-.407-.409.41.41 0 0 1 .407-.41z"/><path id="I" d="M26.746 26.418a.34.34 0 0 1 .335.338.34.34 0 0 1-.335.338.34.34 0 0 1-.335-.338.34.34 0 0 1 .335-.338z"/><path id="J" d="M18.888 21.104c.203 0 .376.174.376.379s-.163.379-.376.379c-.203 0-.376-.174-.376-.379s.173-.379.376-.379z"/><path id="K" d="M34.603 21.237a.25.25 0 0 1 .245.245.25.25 0 0 1-.245.246.25.25 0 0 1-.244-.246c0-.133.112-.245.244-.245z"/><path id="L" d="M39.839 21.267c.112 0 .214.103.214.215s-.092.215-.214.215c-.112 0-.214-.103-.214-.215s.102-.215.214-.215z"/><path id="M" d="M11.03 15.79a.41.41 0 0 1 .407.41.41.41 0 0 1-.407.409.41.41 0 0 1-.406-.409.41.41 0 0 1 .406-.41z"/><path id="N" d="M26.746 15.881c.174 0 .315.142.315.317s-.141.317-.315.317-.315-.142-.315-.317.141-.317.315-.317z"/><path id="O" d="M39.839 10.732c.112 0 .193.082.193.195s-.092.195-.193.195c-.112 0-.193-.082-.193-.195s.082-.195.193-.195z"/><path id="P" d="M31.982 5.416c.132 0 .234.103.234.236s-.102.236-.234.236-.234-.103-.234-.236a.23.23 0 0 1 .234-.236z"/></defs></svg>