<svg width="45" height="46" viewBox="0 0 64 65" fill="none" xmlns="http://www.w3.org/2000/svg">
    <g clip-path="url(#clip0_229_3920)">
        <rect y="0.194092" width="64" height="64" rx="32" fill="#1E005D"/>
        <g filter="url(#filter0_f_229_3920)">
            <path d="M10.0921 -116.067C10.0921 -197.256 130.114 -219.129 208.11 -219.129C286.107 -219.129 349.335 -153.312 349.335 -72.1236C349.335 9.06513 286.107 74.8816 208.11 74.8816C130.114 74.8816 10.0921 -34.8784 10.0921 -116.067Z" fill="#FEE7C3"/>
        </g>
        <g filter="url(#filter1_b_229_3920)">
            <path d="M16.9342 30.1597L28.8125 57.4275L52.7265 39.8527L38.6776 93.7325L2.46128 84.0284L16.9342 30.1597Z" fill="#FCFAF6"/>
        </g>
        <path d="M16.9342 30.1597L28.8663 57.2269L52.7268 39.8519L38.8064 93.2515L2.59016 83.5474L16.9342 30.1597Z" fill="url(#paint0_linear_229_3920)"/>
        <path d="M43.5405 2.53955L37.8534 23.7643L53.6448 36.5872L43.5405 2.53955Z" fill="#D7CAF1"/>
        <path d="M43.5404 2.53946L17.7636 26.9728L37.8532 23.7642L43.5404 2.53946Z" fill="white"/>
        <path d="M32.0202 45.5354L28.1559 59.9572L52.7618 39.9317L32.0202 45.5354Z" fill="#F9F8FB"/>
        <path d="M32.0202 45.5354L28.1559 59.9572L52.7618 39.9317L32.0202 45.5354Z" fill="#C9BFEC"/>
        <path d="M28.1557 59.956L32.0207 45.5318L16.8687 30.313L28.1557 59.956Z" fill="white"/>
        <path d="M32.9144 42.1965L53.6448 36.5872L37.8521 23.769L32.9144 42.1965Z" fill="#B199E3"/>
        <path d="M17.7635 26.9736L32.9142 42.1972L37.8519 23.7697L17.7635 26.9736Z" fill="#D7CBF1"/>
        <g filter="url(#filter2_f_229_3920)">
            <path d="M-249.846 -78.806C-249.846 -133.695 -168.634 -148.483 -115.859 -148.483C-63.0832 -148.483 -20.3003 -103.986 -20.3003 -49.0973C-20.3003 5.79172 -63.0833 50.288 -115.859 50.288C-168.634 50.288 -249.846 -23.917 -249.846 -78.806Z" fill="#9275B4"/>
        </g>
    </g>
    <defs>
        <filter id="filter0_f_229_3920" x="-195.509" y="-424.73" width="750.446" height="705.214" filterUnits="userSpaceOnUse" color-interpolation-filters="sRGB">
            <feFlood flood-opacity="0" result="BackgroundImageFix"/>
            <feBlend mode="normal" in="SourceGraphic" in2="BackgroundImageFix" result="shape"/>
            <feGaussianBlur stdDeviation="102.801" result="effect1_foregroundBlur_229_3920"/>
        </filter>
        <filter id="filter1_b_229_3920" x="-4.41665" y="23.2817" width="64.0213" height="77.329" filterUnits="userSpaceOnUse" color-interpolation-filters="sRGB">
            <feFlood flood-opacity="0" result="BackgroundImageFix"/>
            <feGaussianBlur in="BackgroundImageFix" stdDeviation="3.43904"/>
            <feComposite in2="SourceAlpha" operator="in" result="effect1_backgroundBlur_229_3920"/>
            <feBlend mode="normal" in="SourceGraphic" in2="effect1_backgroundBlur_229_3920" result="shape"/>
        </filter>
        <filter id="filter2_f_229_3920" x="-444.522" y="-343.158" width="618.897" height="588.122" filterUnits="userSpaceOnUse" color-interpolation-filters="sRGB">
            <feFlood flood-opacity="0" result="BackgroundImageFix"/>
            <feBlend mode="normal" in="SourceGraphic" in2="BackgroundImageFix" result="shape"/>
            <feGaussianBlur stdDeviation="97.3379" result="effect1_foregroundBlur_229_3920"/>
        </filter>
        <linearGradient id="paint0_linear_229_3920" x1="9.31379" y1="82.3533" x2="21.7565" y2="36.965" gradientUnits="userSpaceOnUse">
            <stop offset="0.0596422" stop-color="#ED1E79" stop-opacity="0"/>
            <stop offset="0.578033" stop-color="#ED1E79" stop-opacity="0.62"/>
            <stop offset="1" stop-color="#522785"/>
        </linearGradient>
        <clipPath id="clip0_229_3920">
            <rect y="0.194092" width="64" height="64" rx="32" fill="white"/>
        </clipPath>
    </defs>
</svg>
