<!-- source: DFINITY foundation -->
<svg width="95" height="44" fill="none"
     xmlns="http://www.w3.org/2000/svg">
        <path d="m65.64 7.907 5.348 6.559 5.36-6.559h8.464L74.552 19.95v6.246h-7.13v-6.246L57.164 7.907h8.477Z" fill="#000"/>
        <path d="M42.522 13.908c0 .803 2.218.912 5.089 1.048 5.102.258 12.273.612 12.26 5.198 0 5.224-5.988 6.463-12.41 6.463-6.409-.014-11.729-.79-12.41-6.463h7.47c.817 1.415 2.709 1.782 4.94 1.782 2.218 0 4.94-.367 4.94-1.782 0-.803-2.219-.926-5.09-1.062-5.102-.258-12.273-.612-12.26-5.184 0-5.225 5.988-6.477 12.41-6.477 6.409.041 11.73.762 12.41 6.477H52.4c-.817-1.442-2.709-1.782-4.94-1.782-2.218 0-4.94.326-4.94 1.782ZM26.548 7.88h7.13v18.288h-7.13V7.88ZM12.491 7.431c6.885 0 12.477 2.014 12.477 8.926v1.334c.028 6.912-5.605 8.912-12.477 8.926C5.606 26.603-.027 24.603.001 17.69v-1.334c-.028-6.926 5.605-8.912 12.49-8.926Zm5.348 9.81v-.448c.04-2.98-2.436-3.524-5.348-3.565-2.925.04-5.402.585-5.36 3.565v.449c-.042 2.993 2.435 3.537 5.36 3.578 2.912-.04 5.388-.585 5.348-3.578ZM79.98 39.661h-3.778v-6.62h-4.493V29.97h12.764v3.072h-4.492v6.62ZM59.324 39.661V29.97h11.343v2.481h-7.565v1.24h7.565v2.243h-7.565v1.24h7.565v2.488H59.324ZM46.837 29.955h3.779v6.62h7.565v3.072H46.837v-9.692ZM34.35 29.955h3.78v6.62h7.564v3.072H34.351v-9.692ZM26.76 32.775l-1.334 2.863h2.662l-1.327-2.863Zm-7.449 6.886 5.2-9.692h4.492l5.2 9.692h-4.255l-.764-1.658H24.33l-.764 1.658h-4.255ZM15.464 36.106l2.25-6.137h4.255l-4.255 9.692H13.22l-2.127-4.846-2.128 4.846H4.474L.219 29.97h4.255l2.243 6.137 2.25-6.137h4.254l2.243 6.137Z" fill="#000"/>
        <path d="m80.917 4.5 2.45 1.4m0 0 3.85 2.1m-3.85-2.1-2.45.7m2.45-.7-.35-2.45m10.5 8.05-2.45-1.4m0 0L87.217 8m3.85 2.1.35 2.45m-.35-2.45 2.45-.7m-6.3-1.4-3.85 2.1m3.85-2.1V3.1m0 4.9v4.55m0-4.55 3.85-2.1m-7.7 4.2-2.45 1.4m2.45-1.4-2.45-.7m2.45.7-.35 2.45m4.2-9.45V1m0 2.1-1.75-.7m1.75.7 1.75-.7m-1.75 10.15V15m0-2.45 1.75 1.05m-1.75-1.05-1.75 1.05m5.6-7.7 2.45-1.4m-2.45 1.4 2.45.7m-2.45-.7.35-2.45" stroke="#06F" stroke-width="1.5" stroke-linecap="round" stroke-linejoin="round"/>
</svg>