<svg xmlns="http://www.w3.org/2000/svg" width="361" height="248" fill="none">
    <style>
        <![CDATA[.B{fill:#fff}.C{fill-rule:evenodd}.D{fill:#f7931a}.E{fill:#1a64b5}.F{fill:#2775ca}.G{color-interpolation-filters:sRGB}.H{flood-opacity:0}.I{fill:#f9f9f9}.J{fill-opacity:.3}.K{fill:#043484}.L{fill:#430bbb}.M{fill:#29abe2}]]></style>
    <g clip-path="url(#c)">
        <path transform="translate(-68)" fill="url(#E)" d="M0 0h496v248H0z"/>
        <path d="M162.91 181.17c-42.163-.124-87.696-.165-89.91.175 0 0 22.65-9.569 37.884-9.32 4.283.07 7.531.853 10.809 1.644 3.089.745 6.205 1.496 10.238 1.663 7.748.32 13.695-1.691 19.596-3.688 6.177-2.089 12.304-4.162 20.394-3.528 7.269.57 15.972 3.437 23.232 6.357 4.271.125 7.571.921 10.9 1.724 3.262.787 6.551 1.581 10.81 1.757 8.181.338 14.459-1.786 20.691-3.894 6.521-2.207 12.99-4.395 21.532-3.726 16.613 1.302 40.319 13.969 40.319 13.969-46.88-.212-141.464-.508-144.766 0 0 0 3.3-1.394 8.271-3.133z"
              class="I J"/>
        <path opacity=".3"
              d="M252.371 35.817c-2.79-.219-4.417-1.447-5.431-1.086-.775.276-2.348 1.206-4.209 1.574-.307-.172-.634-.3-.98-.383-.81-.172-1.705-.159-1.975.21a.28.28 0 0 0-.047.127c-1.954-.517-3.303-1.867-3.798-1.722-.591.173-1.46 1.011-3.159 2.069-1.739 1.084-3.876 1.133-4.117 1.416s1.859.589 3.973.077 2.998-1.295 3.475-1.402c.407-.092 2.583 1.141 4.807 1.436.134.112.278.211.431.3.708.406 2.587.771 2.996.812.44.042.68.036.79.185.181.244.337.447.481.461.129.012.196-.218.153-.38s.251-.291.169-.438-.486-.205-.666-.34c-.107-.081-.531-.519-.933-.953 1.495-.467 2.619-1.19 2.964-1.454.503-.383 2.405.664 5.067.872s4.658-1.494 4.457-1.625-1.66.462-4.448.244z"
              class="B"/>
        <path d="M108.552 162.348l16.759 26.888" stroke="#fff" stroke-width=".569"/>
        <path d="M-70 226.337H92.562s-26.856-4.177-44.918-4.068c-9.864.059-15.098 1.293-24.955 1.443-18.799.286-28.656-3.69-47.414-3.149-18.655.538-45.275 5.774-45.275 5.774z"
              class="I J"/>
        <g class="C">
            <path d="M120.958 190.989l-26.699 25.899L59.424 230l-.497-.78 24.728-28.995 36.806-10.017.497.781z"
                  fill="#000949"/>
            <path d="M54.753 111.338c-3.902-5.822-14.2-21.139-25.948-35.303 4.223-1.137 7.927-1.368 10.529-.339v-.001c4.995-4.442 10.171-6.882 15.1-7.665 10.016 9.337 18.403 18.001 19.947 20.018-1.364 9.223-8.626 16.827-19.408 23.099l-.22.191zm-64.514-4.518c.508-2.939 2.371-6.176 5.114-9.425 7.757 16.599 17.1 32.401 20.656 38.506-9.955 7.287-20.235 10.007-29.199 7.83-1.136-2.295-5.362-13.406-9.561-26.283 2.86-4.449 7.22-8.168 12.99-10.628zm-16.632-39.637h0c.296 4.37.295 4.369 0 0zm36.899-23.335c2.977 1.655 2.977 1.655 0 0h0z"
                  class="K"/>
            <path d="M-4.647 97.395c7.71-9.135 22.37-18.374 33.452-21.361 11.75 14.166 22.047 29.482 25.948 35.304-4.277 10.025-31.221 26.404-38.744 24.562-3.556-6.105-12.901-21.91-20.656-38.505zm-18.006 20.352c4.116 12.594 8.236 23.441 9.421 25.897-5.919.057-10.322-1.435-12.492-4.622-1.27-1.996-1.578-4.494-1.035-7.357-.072-5.055 1.268-9.909 3.945-14.117l.063-.1.097.299zm91.744-46.848c2.828.726 4.963 2.067 6.232 4.062l.085.138.074.123.07.124.068.124.066.126.073.146.06.126.058.128.055.126.046.113.05.13.049.129.014.042a7.63 7.63 0 0 1 .086.25l.042.135.012.042c.031.101.058.203.086.306l.033.137.011.043.049.225.03.145.018.099c.511 2.842-.24 6.294-2.076 10.131-1.544-2.016-9.931-10.681-19.947-20.017 5.36-.852 10.429.254 14.657 2.869z"
                  fill="url(#F)"/>
            <path d="M44.362 43.97c11.768 5.031 22.295 13.647 29.78 25.41 1.66 2.608 2.387 5.489 2.318 8.553-.193-1.083-.569-2.079-1.138-2.973-1.27-1.995-3.404-3.335-6.232-4.062-.313-.738-.693-1.463-1.142-2.168-6.073-9.543-14.369-18.485-23.587-24.76zm-85.065 55.412c2.058 10.508 6.655 21.203 12.463 30.329.449.706.945 1.357 1.482 1.954-.543 2.863-.234 5.362 1.035 7.356.569.895 1.312 1.657 2.212 2.292-2.807-1.24-5.111-3.122-6.771-5.73-7.191-11.3-10.557-23.902-10.42-36.201zm30.943 7.438c-24.686-39.156-18.241-53.147-4.795-61.671s28.873-8.4 53.889 30.545C27.474 71.004-7.281 92.482-9.76 106.82z"
                  fill="url(#G)"/>
            <path d="M-25.198 57.311c-3.428 9.605-.411 24.371 15.438 49.508-11.259 4.8-17.148 14.395-16.998 24.846-.537-.597-1.033-1.248-1.482-1.954-15.191-23.871-22.098-58.474 3.042-72.4zM.998 40.704c22.67-15.942 51.76 4.154 66.951 28.026a14.76 14.76 0 0 1 1.142 2.17c-8.116-5.021-19.332-4.479-29.757 4.796C23.273 50.692 11.165 41.69.998 40.704z"
                  class="B"/>
        </g>
        <g opacity=".5" class="C">
            <path d="M-13.813 188.973l1.213-8.557c-.806.201-1.446.509-1.79.932-1.228-.3-2.309-.235-3.203.093l-1.562 5.344c1.045 1.469 2.931 2.104 5.289 2.176l.053.012zm10.385-6.852c-.345-.461-.943-.846-1.689-1.151.173 3.604.01 7.221-.044 8.613 2.309.326 4.269-.17 5.574-1.39-.013-.505-.29-2.827-.728-5.453-.872-.502-1.93-.736-3.112-.619zm-.728-8.431c.337.785.337.785 0 0h0zm-8.235-.571c-.351.566-.351.566 0 0h0z"
                  class="L"/>
            <path d="M-5.117 180.969c-2.098-.857-5.366-1.078-7.483-.553-.71 3.559-1.076 7.181-1.212 8.556 1.603 1.335 7.556 1.637 8.652.611l.044-8.614zm4.812 1.832l.718 5.372c.994-.547 1.598-1.219 1.679-1.976.036-.465-.134-.927-.478-1.371-.435-.883-1.089-1.598-1.909-2.075l-.019-.011.01.061zm-19.485.515c-.408.392-.646.825-.682 1.29l-.002.032-.001.028-.001.028v.028.028l.001.032.001.028.001.028.002.027.002.024.003.027.003.027.001.008.008.051.005.027.002.009.013.061.006.027.002.008.011.044.008.028.006.019c.166.54.597 1.067 1.244 1.559.08-.494.715-2.784 1.563-5.344-.971.357-1.721 1.025-2.196 1.876z"
                  fill="url(#H)"/>
            <path d="M-18.04 176.325c-1.522 1.978-2.519 4.461-2.729 7.203-.047.609.087 1.176.369 1.7a1.66 1.66 0 0 1-.072-.621c.036-.466.274-.899.682-1.29a3.1 3.1 0 0 1-.001-.484c.17-2.224.766-4.553 1.751-6.508zm19.126 1.596c.586 2.014.764 4.3.601 6.426-.013.165-.038.324-.075.479.344.445.514.906.478 1.372-.016.208-.073.41-.167.604a3.06 3.06 0 0 0 .625-1.63c.202-2.633-.351-5.133-1.463-7.251zm-4.514 4.199c.661-9.105-1.655-10.922-4.658-11.134s-5.57 1.261-6.305 10.361c1.568-1.927 9.279-1.477 10.963.773z"
                  fill="url(#I)"/>
            <g class="B">
                <path d="M-5.23 172.092c1.423 1.341 2.226 4.183 1.802 10.028 2.307-.228 4.141.88 5.041 2.705a3.02 3.02 0 0 0 .075-.477c.426-5.565-1.482-12.209-6.918-12.256zm-5.85-.413c-5.201-.629-8.285 5.589-8.712 11.154a3.1 3.1 0 0 0 .001.483c.913-1.633 2.836-2.595 5.4-1.969.471-5.842 1.698-8.541 3.311-9.668z"/>
                <path d="M-9.402 198.215l4.141-8.7c.025-.053.086-.075.136-.05s.07.089.046.141l-4.709 9.894 11.28-14.791c.035-.045.099-.054.142-.017s.051.102.016.148l-10.298 13.503 8.987-10.224c.038-.044.102-.047.143-.008s.044.106.006.149l-10.753 12.234v.001h-.001 0l-.001.001-.001.001h-.001l-.001.001v.001l-.002.001v.001l-.002.001-.002.002-.002.002-.002.001-.001.001-.002.001-.001.001-.001.001h-.001-.001l-.001.001h-.001v.001h-.001-.001l-.001.001v.001h-.001-.001l-.001.001h-.001v.001h-.001-.001l-.001.001-.001.001-.001-.001v.001h-.001l-.001.001h-.001-.001l-.001.001h-.001v.001h-.001-.001l-.002.001h-.001l-.02.006h-.001-.001-.001-.001-.001l-.003.001h-.005l-.001.001h-.001l-.001-.001h-.001-.001-.001-.001-.001-.001l-.001.001h-.001-.001-.001-.001-.001-.001v-.001h-.001-.001-.001-.001-.001-.001v-.001h-.001-.001-.001-.001-.001-.001-.001-.001-.011-.002c-.015-.002-.03-.007-.044-.015l-.001-.001h-.001-.001v-.001l-.001-.001c-.007-.005-.014-.011-.019-.017l-.002-.002-.13-.234-8.647-13.417c-.031-.049-.019-.114.028-.147s.11-.021.141.027l7.063 10.96-7.885-14.359c-.028-.05-.011-.115.038-.144s.111-.013.138.037l8.995 16.38-3.224-10.592c-.016-.055.013-.115.067-.133s.111.012.127.067l2.813 9.239-3.569-16.953c-.012-.057.023-.114.078-.127a.1.1 0 0 1 .121.079l3.975 18.887 6.812-18.126a.1.1 0 0 1 .131-.061c.052.02.078.081.058.136l-6.089 16.204z"/>
            </g>
        </g>
        <g class="C">
            <path d="M1.776 197.936l-.085-9.893c-.916.364-1.617.822-1.948 1.359-1.503-.13-2.768.127-3.764.651l-.898 6.316c1.494 1.485 3.833 1.882 6.63 1.562l.065.005zm11.046-9.524c-.489-.463-1.264-.798-2.198-1.016.842 4.051 1.291 8.173 1.474 9.758 2.784-.024 5.009-.919 6.334-2.523-.105-.569-.844-3.151-1.826-6.048-1.118-.42-2.409-.505-3.784-.171zm-2.354-9.42c.537.831.537.831 0 0h0zm-9.823.756c-.314.7-.314.7 0 0h0z"
                  fill="#b66429"/>
            <path d="M10.623 187.395c-2.628-.614-6.526-.308-8.933.647-.208 4.15.003 8.312.085 9.892 2.128 1.239 9.211.567 10.322-.781-.183-1.586-.632-5.707-1.474-9.758zm6.005 1.254c.959 2.835 1.681 5.355 1.799 5.959 1.077-.788 1.671-1.652 1.632-2.522-.04-.532-.322-1.027-.808-1.471-.67-.926-1.569-1.623-2.621-2.023l-.025-.01.022.067zm-22.911 3.9c-.413.513-.617 1.044-.577 1.576l.003.037.004.032.003.032.005.031.005.032.007.036.007.031.007.031.007.031.007.027.008.03.009.03.002.009.018.057.011.03.004.009c.008.022.017.045.026.066l.012.03.004.009.021.048.015.03.01.02c.292.584.895 1.107 1.745 1.554.006-.573.351-3.273.898-6.316-1.084.57-1.85 1.453-2.26 2.498z"
                  fill="url(#J)"/>
            <path d="M-5.456 184.338c-1.446 2.499-2.183 5.479-1.945 8.618.053.697.311 1.317.737 1.862a1.84 1.84 0 0 1-.196-.692c-.04-.533.164-1.063.576-1.576-.043-.177-.073-.359-.087-.547-.193-2.547.097-5.285.914-7.665zm22.862-1.448c1.049 2.18 1.664 4.736 1.849 7.171.014.189.013.374-.003.555.485.445.767.938.808 1.471a1.84 1.84 0 0 1-.09.713c.34-.603.502-1.254.449-1.951-.229-3.016-1.324-5.752-3.012-7.959zm-4.585 5.521c-.834-10.419-3.889-12.082-7.472-11.81s-6.352 2.375-5.607 12.801c1.509-2.449 10.693-3.251 13.079-.991z"
                  fill="url(#K)"/>
            <g class="B">
                <path d="M8.917 177.365c1.917 1.276 3.369 4.357 3.904 11.046 2.684-.651 5.045.291 6.431 2.204.016-.181.018-.366.003-.554-.483-6.372-3.913-13.567-10.338-12.696zm-6.979.529c-6.252.173-8.791 7.736-8.308 14.108a3.41 3.41 0 0 0 .087.547c.788-2.004 2.888-3.42 6.026-3.148-.479-6.693.492-9.957 2.196-11.507z"/>
                <path d="M8.62 207.646l3.347-10.553a.12.12 0 0 1 .152-.079c.064.02.099.089.079.152l-3.806 12.001 10.695-18.663c.033-.057.107-.078.165-.044s.078.107.045.165l-9.764 17.038 8.798-13.103c.037-.056.112-.07.167-.034s.071.113.033.169L8.005 210.373v.001h-.001v.001l-.001.001v.001h-.001l-.001.001v.001l-.002.002-.001.001-.002.002-.002.002-.002.003-.002.002h-.001l-.002.002-.001.001v.001h-.001l-.001.001-.001.001h-.001v.001h-.001l-.001.001h-.001l-.001.001h-.001l-.001.001-.001.001h-.001v.001l-.002.001h-.001l-.001.001-.001.001h-.001l-.001.001h-.001l-.001.001-.001.001H7.97h-.001l-.001.001h-.001-.001l-.001.001-.002.001h-.001c-.006.004-.013.007-.021.01h-.002l-.001.001H7.94h-.001-.001-.001l-.003.001-.006.002-.002.001h-.002-.001-.001-.001-.002-.001-.001-.001l-.001.001h-.001-.001-.001-.001-.001-.001l-.001.001h-.001-.001-.001-.001-.001-.001l-.001-.001h-.001-.001-.001-.002l-.001.001h-.001H7.9h-.001l-.013.002h-.002c-.018 0-.036-.002-.054-.01h-.001l-.001-.001h-.001v-.001h-.002c-.009-.004-.018-.01-.026-.016l-.003-.003c-.005-.005-.011-.01-.015-.017l-.18-.225-12.586-13.716c-.046-.049-.042-.126.007-.171s.126-.042.171.007l10.281 11.204-11.852-14.912c-.042-.052-.034-.128.019-.17a.12.12 0 0 1 .17.019L7.332 209.43l-5.683-11.442c-.029-.06-.005-.132.055-.162s.133-.005.162.054l4.958 9.98-7.217-18.583a.12.12 0 0 1 .069-.156.12.12 0 0 1 .156.068l8.039 20.703 4.83-21.678a.12.12 0 0 1 .144-.091c.065.014.106.079.092.144L8.62 207.646z"/>
            </g>
            <path d="M.582 221.288l8.325 1.086 8.067-2.327-.016-.209-8.389-1.912-8.004 3.154.016.208z" fill="#432806"/>
            <path d="M7.774 207.405l.492-.204 8.265 1.884.199 2.624-.382.043.613 8.086-8.388-1.912-.797-10.521z"
                  class="D"/>
            <path d="M7.775 207.409v-.004l-8.004 3.154v.003l-.4.158.197 2.605.403-.126.597 7.881 8.004-3.154-.359-7.714.252-.392-.197-2.605-.492.194z"
                  fill="#ffb154"/>
            <path d="M8.464 209.827l-8.897 3.496.427.195 8.225-3.217 8.142 1.636.367-.231-8.264-1.879z" fill="#432806"/>
        </g>
        <g filter="url(#A)" class="D">
            <path d="M3.381 212.633c-1.442.984-2.398 3.079-2.135 4.677s1.645 2.096 3.087 1.111 2.398-3.079 2.135-4.677-1.645-2.096-3.087-1.111z"/>
        </g>
        <path d="M5.102 214.393c.025-.47-.326-.552-.788-.497l.089-.665-.364.079-.086.649-.291.068.09-.651-.364.078-.089.665-.233.054-.503.107-.06.436.265-.056c.148-.032.184.054.186.132l-.246 1.825c-.013.053-.051.141-.154.162.005.003-.265.056-.265.056l-.137.499.471-.101.261-.053-.093.676.364-.079.089-.665.292-.058-.089.664.364-.078.093-.672c.616-.17 1.068-.43 1.209-1.082.111-.525-.075-.709-.407-.729.217-.178.378-.418.396-.764zm-.703 1.55c-.067.505-.832.609-1.078.665l.123-.891c.242-.054 1.026-.299.956.226zm0-1.222c-.062.46-.701.542-.907.589l.108-.81c.206-.046.86-.257.799.221z"
              class="B"/>
        <path d="M10.132 176.711c.765-5.256 3.381-9.707 8.539-10.827-.925 1.225-1.521 2.94-1.637 5.377.253-5.303 2.782-7.187 6.013-8.053m22.848 15.678l.007.067c-2.413-2.281-5.92-2.969-9.458-1.372m0 0a61.53 61.53 0 0 0-1.404-4.517m1.404 4.517c-3.885-2.502-16.363.996-17.812 4.772v.001h-.001"
              stroke="#689dec" stroke-width=".497"/>
        <g class="C">
            <path d="M23.662 193.614c-.525-2.162-1.898-7.858-2.692-13.645-1.171.742-2.02 1.557-2.338 2.385-2.11.211-3.791.896-5.032 1.878.035 4.346.262 8.166.404 8.96 2.45 1.663 5.786 1.603 9.566.433l.091-.011zm12.783-16.033c-.796-.512-1.953-.773-3.302-.831 2.218 5.378 3.91 10.955 4.576 13.098 3.84-.758 6.682-2.573 8.095-5.134-.293-.758-1.986-4.133-4.097-7.88-1.655-.29-3.46-.071-5.273.747zm-5.704-12.401c.959 1.008.959 1.008 0 0h0zm-13.374 3.6c-.251 1.05-.251 1.05 0 0h0z"
                  class="K"/>
            <path d="M33.143 176.75c-3.791-.164-9.097 1.274-12.173 3.219.793 5.788 2.167 11.483 2.692 13.645 3.263 1.157 12.873-1.614 14.057-3.766-.666-2.143-2.358-7.72-4.576-13.098zm8.623.17c2.063 3.667 3.716 6.961 4.037 7.765 1.283-1.369 1.879-2.718 1.598-3.909-.194-.726-.713-1.335-1.499-1.823-1.167-1.104-2.59-1.834-4.148-2.113l-.037-.007.049.087zm-30.639 11.351c-.437.816-.581 1.602-.386 2.328l.013.049.014.043.013.044.015.042.015.043.019.048.017.041.017.041.018.04.017.036.019.039.02.039.006.012.04.074.022.039.008.012.053.085.025.038.008.011.041.06.028.038.019.025c.555.731 1.524 1.297 2.815 1.693-.14-.794-.367-4.614-.403-8.959-1.349 1.069-2.177 2.489-2.473 4.039z"
                  fill="url(#L)"/>
            <path d="M10.133 176.71c-1.348 3.829-1.59 8.138-.444 12.413.254.95.772 1.738 1.503 2.381-.212-.279-.363-.58-.45-.905-.195-.726-.05-1.512.386-2.327a4.78 4.78 0 0 1-.263-.734c-.929-3.468-1.241-7.326-.732-10.828zm31.21-7.951c2.016 2.739 3.532 6.111 4.421 9.428.069.257.115.512.139.767.786.488 1.304 1.096 1.499 1.822a2.59 2.59 0 0 1 .061 1.009c.312-.922.366-1.864.112-2.813-1.1-4.107-3.326-7.602-6.232-10.213zm-4.898 8.822c-3.863-14.178-8.518-15.68-13.397-14.373s-8.158 4.935-4.415 19.146c1.448-3.776 13.927-7.275 17.812-4.773z"
                  fill="url(#M)"/>
            <g class="B">
                <path d="M28.176 163.337c2.981 1.264 5.788 5.142 8.268 14.244 3.538-1.597 7.045-.91 9.458 1.372a4.71 4.71 0 0 0-.139-.766c-2.325-8.678-8.938-17.726-17.588-14.85zm-9.504 2.547c-8.592 1.866-10.132 12.976-7.807 21.654a4.8 4.8 0 0 0 .262.733c.568-2.974 3.1-5.476 7.506-5.917-2.403-9.123-1.912-13.885.039-16.47z"/>
                <path d="M35.647 205.251l1.878-15.451c.011-.094.095-.161.189-.149a.17.17 0 0 1 .148.189l-2.135 17.572 9.919-28.568c.031-.088.128-.136.216-.105s.136.129.106.217l-9.056 26.08 8.745-20.393a.17.17 0 1 1 .312.135l-10.464 24.401v.001h-.001v.001l-.001.002-.001.001-.001.002-.001.001v.001l-.002.003-.001.001-.002.003-.002.004-.002.005-.002.002-.001.002-.002.003-.001.001-.001.001-.001.001-.001.001-.001.002h-.001v.001h-.001l-.001.002v.001l-.001.001-.001.001-.001.001-.001.002h-.001v.001l-.002.002h-.001l-.001.001v.002h-.001l-.001.002h-.001l-.001.001-.001.002h-.001l-.001.001-.001.001-.001.001h-.001l-.001.002-.002.002h-.001c-.008.007-.017.013-.026.019h-.002l-.001.002h-.001-.001l-.001.001h-.001l-.004.002-.008.003-.002.002-.002.001h-.001-.001l-.001.001h-.002-.001l-.001.001h-.001l-.001.001-.001.001h-.001-.001l-.001.001h-.001-.001l-.001.001h-.001-.001-.001l-.001.001h-.001-.001-.002-.001-.001-.001l-.002.001h-.001l-.001.001h-.001-.001l-.017.006-.003.001c-.025.005-.051.006-.077 0l-.001.001-.001-.001h-.001v-.001h-.002c-.014-.004-.028-.01-.04-.016l-.004-.002a.17.17 0 0 1-.026-.02l-.307-.264-20.959-15.675a.17.17 0 0 1-.035-.238c.056-.075.163-.091.238-.035l17.12 12.803-20.256-17.517a.17.17 0 0 1-.018-.24.17.17 0 0 1 .24-.017l23.108 19.982-10.83-14.329a.17.17 0 1 1 .272-.205l9.447 12.499-14.808-23.797a.17.17 0 1 1 .289-.18l16.495 26.511 1.031-31.207a.17.17 0 0 1 .175-.164c.094.003.167.082.165.175l-.922 27.898z"/>
            </g>
            <path d="M23.846 226.775l15.929-.701 14.325-7.001-.098-.384-16.317-.824-13.937 8.526.098.384z" class="E"/>
            <path d="M32.742 198.448l.852-.543 16.077.811 1.233 4.845-.7.204 3.8 14.924-16.317-.824-4.943-19.417z"
                  class="F"/>
            <path d="M32.743 198.454l-.002-.006-13.937 8.525.002.006-.697.427 1.224 4.809.711-.37 3.703 14.545 13.937-8.526-3.203-14.309.342-.817-1.224-4.808-.857.524z"
                  fill="#4197f6"/>
            <path d="M34.828 202.75l-15.495 9.46.863.225 14.329-8.717 15.766.388.612-.552-16.074-.804z" class="E"/>
        </g>
        <g filter="url(#B)" class="F">
            <path d="M29.76 220.794c1.031-.653 1.993-1.65 2.764-2.865s1.316-2.594 1.567-3.962.196-2.663-.158-3.723-.991-1.836-1.83-2.23-1.843-.39-2.885.014-2.074 1.189-2.967 2.255-1.606 2.366-2.05 3.735-.597 2.746-.441 3.956c.102.805.338 1.517.695 2.095s.828 1.01 1.386 1.272 1.191.349 1.864.255 1.372-.367 2.057-.802z"/>
        </g>
        <g class="B">
            <path d="M30.531 214.736c-.115-.89-.61-.911-1.539-.46-.665.311-.821.189-.867-.168s.142-.724.576-.999c.392-.248.628-.232.786.082.016.029.041.048.072.053a.14.14 0 0 0 .098-.026l.347-.219a.24.24 0 0 0 .057-.05.34.34 0 0 0 .045-.07c.012-.026.021-.053.025-.08s.005-.052.002-.075l-.003-.025c-.078-.25-.229-.427-.43-.505s-.441-.05-.682.077l-.079-.612c-.013-.101-.088-.136-.2-.093l-.326.206c-.087.055-.142.172-.147.314l.076.588c-.64.518-.988 1.287-.906 1.925.108.841.586.898 1.514.448.625-.258.841-.232.894.178s-.215.881-.628 1.142c-.565.358-.794.202-.911-.14-.012-.039-.036-.066-.067-.077s-.07-.004-.107.019l-.371.235a.22.22 0 0 0-.057.05c-.017.021-.033.044-.045.07a.3.3 0 0 0-.025.079.28.28 0 0 0-.002.076l.003.026c.169.582.576.821 1.309.495l.079.612c.013.101.088.137.2.094l.326-.206c.087-.055.142-.174.147-.314l-.079-.612c.635-.54 1.001-1.351.912-2.039l.002.001zm-2.197 4.286c-.66.126-1.262-.02-1.726-.42s-.766-1.032-.867-1.814.006-1.673.305-2.555.776-1.712 1.366-2.376a.48.48 0 0 0 .087-.166c.018-.061.021-.121.011-.172l-.046-.357c-.003-.049-.021-.088-.05-.11s-.067-.026-.108-.011c-.031.015-.061.044-.083.08-.753.796-1.368 1.815-1.757 2.912s-.531 2.212-.405 3.186.511 1.756 1.103 2.232 1.356.622 2.185.416c.02.001.041-.005.062-.017s.041-.029.059-.051a.29.29 0 0 0 .043-.075.27.27 0 0 0 .018-.083c.018-.039.015-.065.009-.116l-.046-.356c-.01-.077-.088-.138-.16-.147zm1.279-9.413c-.02-.001-.041.004-.062.016s-.041.03-.059.052a.29.29 0 0 0-.043.075c-.011.028-.017.056-.018.083-.018.038-.015.064-.008.115l.046.357c.01.049.03.09.059.12a.17.17 0 0 0 .105.053c.66-.127 1.262.019 1.726.419s.766 1.033.867 1.814-.006 1.673-.305 2.555-.776 1.712-1.366 2.376c-.039.048-.069.106-.087.167s-.021.12-.011.171l.046.357c.003.049.021.088.049.11s.067.026.107.012c.031-.016.061-.045.083-.081.752-.799 1.366-1.821 1.754-2.919s.529-2.214.403-3.189-.511-1.758-1.101-2.237-1.355-.628-2.184-.426z"/>
            <g class="C">
                <path d="M56.208 163.904l-39.894-28.561a.54.54 0 0 0-.749.123c-.173.242-.117.576.123.749l45.366 32.477-87.518-37.854a.54.54 0 0 0-.706.279c-.118.272.007.587.279.705l79.897 34.557-66.023-23.163c-.28-.099-.586.048-.684.328s.049.584.328.682l79.001 27.717.001.001.002.001h.002l.004.002h.001l.001.001h.002l.001.001.002.001.005.001h.001l.001.001h.002l.001.001.002.001.005.001.002.001h.002 0l.004.001.008.003.005.001.012.003h.001.001l.005.001.008.002.005.001h0 .001l.007.001.005.001h.001.001l.006.001.005.001h.001.002l.001.001h0 .003.004l.002.001h.002.001.001.002l.004.001h.002.002.001.002l.002.001h.002.004.001.001.002.002.002l.003.001h.001.001.004.001.002.003.001.002.004.001.001.004.001.002.005.001.004.002l.001-.001h.005 0 .001.005.001.002l.002-.001h.002.002.002.001.002l.001-.001h.004.005l.002-.001h.001.001c.034-.004.067-.011.099-.021h0l.001-.001.007-.002.002-.001.002-.001.005-.001.002-.001.001-.001.005-.001.013-.005.019-.008.005-.002.007-.004h.001 0l.005-.002.006-.003.001-.001.001-.001.004-.001.001-.001.001-.001.002-.001.002-.001.002-.001.001-.001.001-.001h.001l.002-.002.004-.002.002-.001.001-.001h.001v-.001l.003-.002.004-.002.002-.001.002-.002.004-.002.002-.002.002-.001.004-.002.002-.002.004-.002.002-.002.002-.001.002-.002.003-.003.002-.002.002-.001.002-.002.004-.002.004-.003.001-.001.001-.001.005-.003.002-.002.041-.023.008-.005.001-.001h.001l.008-.005v-.001a.53.53 0 0 0 .167-.175v-.002l.001-.002.004-.005.001-.001.001-.003.004-.007v-.001c.021-.039.038-.082.048-.127l.002-.012c.008-.034.012-.068.012-.102l.039-1.273 8.323-81.973c.029-.294-.186-.558-.48-.587s-.558.184-.588.478l-6.798 66.957 2.543-84.27c.008-.295-.224-.543-.521-.551s-.544.224-.553.519l-2.9 96.127-10.17-55.621c-.053-.291-.333-.484-.625-.43s-.485.331-.432.623l8.871 48.519-23.671-85.011c-.079-.285-.376-.452-.661-.373s-.453.374-.374.66l26.371 94.703-74.677-64.078a.54.54 0 0 0-.757.056c-.193.225-.168.564.057.756l66.76 57.286z"/>
            </g>
        </g>
        <path d="M58.571 160.806l-2.287.578-24.364 28.567 6.259 9.835 1.468-.863 19.28 30.297 24.729-28.995-25.085-39.419z"
              fill="#00327e" class="C"/>
        <path d="M58.578 160.819l-.008-.013 36.805-10.016.009.013 1.84-.5 6.213 9.761-1.767.617 18.79 29.527-36.806 10.016-19.192-28.303-1.935-.724-6.212-9.762 2.262-.616z"
              fill="#256aef" class="C"/>
        <g fill="#000949" class="C">
            <path d="M62.543 171.22l40.888-11.167-.998 1.824-37.759 10.374-24.586 27.364-1.917.157 24.372-28.552zm21.175-.031c-.651 1.457-2.62 2.272-2.62 4.036 0 7.349 6.597 13.312 14.273 14.306 5.834.755 9.974-1.407 12.035-6.018l-.706 3.815c-2.061 4.612-7.848 5.886-13.661 4.548-5.999-1.202-13.258-7.286-13.258-14.635 0-1.764 2.218-4.833 2.869-6.29l1.069.238z"/>
        </g>
        <g clip-path="url(#d)">
            <circle cx="11.945" cy="11.945" r="11.706"
                    transform="matrix(.992546 -.121869 .422618 .906308 76.3289 169.691)" stroke="#dbd9d6"
                    stroke-width=".479" class="B"/>
            <path d="M95.7 175.134c-.884.108-1.658.632-2.305 1.554a7.62 7.62 0 0 0-.697 1.256h.003l1.505.869c.148-.348.373-.825.68-1.267.575-.821 1.095-1.043 1.433-1.084 1.271-.156 2.723.618 3.239 1.725.512 1.099-.102 2.127-1.366 2.29a1.35 1.35 0 0 1-.237.003c.437.097.883.151 1.262.105 2.328-.286 2.15-1.699 2.135-1.801a3.25 3.25 0 0 0-.258-.788c-.856-1.836-3.277-3.122-5.394-2.862z"
                  fill="url(#N)"/>
            <path d="M90.684 182.808c.884-.108 1.658-.632 2.305-1.554.307-.438.535-.894.697-1.256h-.003l-1.505-.869c-.148.348-.373.825-.68 1.267-.575.821-1.095 1.043-1.433 1.084-1.272.154-2.724-.62-3.24-1.727-.513-1.1.102-2.128 1.367-2.291.058-.007.135-.009.236-.003-.437-.097-.883-.151-1.262-.104-2.327.285-2.147 1.698-2.136 1.798.048.259.133.521.257.788.858 1.841 3.28 3.127 5.396 2.867z"
                  fill="url(#O)"/>
            <path d="M99.198 180.556c-1.204.119-2.833-.568-3.183-.746l-3.265-1.836c-1.62-.971-3.692-2.025-5.18-1.842h-.003l-.003.001c-1.802.229-2.81 1.51-2.535 3.02-.014-.099-.064-1.557 2.143-1.776 1.204-.119 2.844.58 3.197.757l3.265 1.836c1.618.969 3.691 2.023 5.179 1.84h.003l.003-.001c1.802-.229 2.812-1.51 2.535-3.02.012.1.053 1.545-2.156 1.767z"
                  class="M"/>
        </g>
        <g style="mix-blend-mode:hard-light">
            <g class="C">
                <path d="M120.037 59.093l9.394 4.233 10.302.133.056-.25-9.173-5.225-10.523.859-.056.25z"
                      fill="#5154b1"/>
                <path d="M129.738 32.087c.464-1.886 1.697-6.849 3.416-11.649-1.206.1-2.193.389-2.771.904-1.72-.687-3.298-.834-4.655-.574-1.723 3.378-3.087 6.428-3.299 7.099 1.228 2.276 3.834 3.573 7.233 4.19l.076.03zm16.358-7.262c-.41-.717-1.201-1.386-2.222-1.974-.449 5.058-1.387 10.059-1.735 11.984 3.278.96 6.209.7 8.337-.712.077-.706.128-4.001.004-7.753-1.165-.89-2.651-1.448-4.384-1.546zm.582-11.9c.337 1.166.337 1.166 0 0h0zm-11.805-2.604c-.618.712-.618.712 0 0h0z"
                      fill="#917bd2"/>
                <path d="M143.875 22.851c-2.87-1.654-7.556-2.68-10.722-2.413-1.719 4.801-2.95 9.765-3.416 11.65 2.061 2.21 10.618 3.938 12.4 2.749.349-1.927 1.288-6.928 1.738-11.986zm6.608 3.608c.118 3.671.071 6.888-.005 7.639 1.545-.542 2.551-1.347 2.814-2.382.141-.639-.015-1.321-.427-2.016-.459-1.325-1.266-2.464-2.36-3.308l-.025-.018.003.085zm-28.296-3.561c-.666.456-1.096 1.007-1.238 1.646l-.009.045-.007.039-.008.038-.005.038-.005.041-.005.044-.004.039-.004.039-.002.038-.001.033-.001.039v.039.012l.001.072.002.039.002.013c0 .029.004.058.006.088l.003.038.002.013c.003.02.005.042.008.062l.007.04.004.027c.136.789.657 1.619 1.497 2.445.212-.671 1.576-3.721 3.3-7.1-1.476.284-2.69 1.05-3.543 2.13z"
                      fill="url(#P)"/>
                <path d="M126.076 13.546c-2.586 2.421-4.512 5.66-5.347 9.431-.186.837-.103 1.657.205 2.45-.053-.3-.049-.595.015-.881.142-.641.569-1.192 1.237-1.646.012-.224.042-.449.093-.674.678-3.06 1.992-6.173 3.797-8.679zm27.367 6.424c.458 2.934.272 6.154-.377 9.081-.049.227-.117.443-.2.649.411.696.567 1.376.425 2.016-.063.287-.185.555-.36.805a4.16 4.16 0 0 0 1.222-2.133c.803-3.622.487-7.227-.71-10.419zm-7.348 4.856c2.723-12.534-.274-15.573-4.578-16.527s-8.306.533-11.135 13.044c2.642-2.341 13.713-.02 15.713 3.483z"
                      fill="url(#Q)"/>
                <path d="M145.434 10.463c1.8 2.181 2.411 6.315.661 14.361 3.383.19 5.822 2.136 6.77 4.874a3.99 3.99 0 0 0 .201-.648c1.698-7.656.225-17.327-7.632-18.587zm-8.385-1.858c-7.402-2.018-13.073 5.964-14.77 13.619-.051.226-.081.451-.091.672 1.635-2.074 4.606-2.99 8.193-1.556 1.816-8.032 4.118-11.52 6.668-12.736z"
                      fill="#cbf"/>
                <path d="M134.326 45.925l7.68-11.207c.048-.067.139-.085.207-.038a.15.15 0 0 1 .04.206l-8.735 12.744 19.194-18.12c.059-.056.154-.053.21.007s.053.154-.007.21l-17.522 16.541 14.989-12.263c.063-.053.156-.043.209.02a.15.15 0 0 1-.021.21l-17.936 14.674-.001.002-.002.002-.001.001h-.003l-.003.003-.003.003-.004.002-.002.002-.004.002-.003.003-.004.002-.001.002h-.003l-.003.003h-.003l-.001.001h-.003l-.005.002-.001.002-.002-.001-.002.003h-.003l-.002.002-.001-.001-.002.002-.029.003h-.002-.003l-.002.002-.004-.001h-.003-.003l-.004-.001h-.003-.003l-.002-.002h-.002-.003l-.002-.002h-.003-.003l-.001-.001h-.003l-.001-.001h-.003l-.002-.002-.017-.002h-.003a.18.18 0 0 1-.06-.029l-.003-.003-.003-.003c-.009-.008-.016-.019-.024-.029l-.001-.004c-.005-.007-.01-.016-.013-.024l-.131-.328-9.91-20.584c-.034-.073-.002-.162.07-.198s.163-.004.199.07l8.094 16.812-8.623-21.726c-.03-.078.008-.164.082-.194a.15.15 0 0 1 .194.082l9.836 24.784-2.609-15.456a.15.15 0 0 1 .123-.172c.08-.014.157.041.17.122l2.277 13.485-1.873-24.393c-.006-.082.054-.153.137-.159s.153.054.16.135l2.085 27.174 13.375-23.746a.15.15 0 0 1 .202-.055c.072.041.098.132.057.203l-11.956 21.227z"
                      class="B"/>
                <path d="M133.419 45.341l.648-.065 9.038 5.149-.698 3.154-.464-.087-2.154 9.717-9.173-5.226 2.803-12.641z"
                      fill="#a29ceb"/>
            </g>
            <g filter="url(#C)" class="C">
                <path d="M133.417 45.345l.002-.004-10.523.861v.003l-.527.043-.694 3.132.517-.006-2.098 9.469 10.523-.861 2.318-9.187.435-.372.693-3.13-.646.052z"
                      fill="#d6c1ff"/>
            </g>
            <g fill="#5154b1" class="C">
                <path d="M133.369 48.432l-11.692.943.43.382 10.806-.856 8.98 4.814.514-.139-9.038-5.144zm-5.315 1.963c.513.409.903 1.587.809 2.462-.169 1.564-1.463 3.056-2.89 3.333-.628.122-1.177-.011-1.581-.333l.463.393c.404.321 1.048.601 1.676.479 1.427-.277 2.81-1.816 2.979-3.38.111-1.026-.479-2.153-.993-2.562l-.463-.393z"/>
            </g>
            <path d="M125.877 50.087c1.471-.6 2.865.302 3.114 2.015s-.742 3.588-2.213 4.188-2.865-.302-3.114-2.015.742-3.588 2.213-4.188z"
                  fill="#ede4ff"/>
            <path d="M127.608 52.279c-.229-.003-.507.106-.825.324-.151.103-.286.214-.389.302h0l.204.279a4.2 4.2 0 0 1 .387-.306c.283-.193.446-.233.534-.232.33.004.537.256.463.562s-.404.55-.733.548c-.015 0-.034-.002-.057-.008.087.041.183.07.281.071.605.007.814-.366.829-.393.034-.068.061-.14.079-.214.123-.507-.223-.926-.773-.933z"
                  fill="url(#R)"/>
            <path d="M125.048 54.098c.23.003.507-.106.825-.323.151-.103.287-.214.39-.302h-.001l-.203-.279c-.097.085-.236.201-.388.306-.283.193-.446.233-.534.232-.329-.005-.537-.257-.462-.563s.403-.55.733-.548c.015 0 .033.002.057.008a.7.7 0 0 0-.282-.071c-.604-.007-.813.367-.828.393-.035.069-.061.14-.079.214-.124.509.223.928.772.934z"
                  fill="url(#S)"/>
            <path d="M127.474 53.811c-.308-.011-.573-.247-.624-.305a11 11 0 0 1-.45-.592c-.212-.309-.517-.656-.903-.66h-.001-.001a1.32 1.32 0 0 0-1.14.697c.014-.026.262-.407.826-.387.307.011.573.25.625.309.133.151.426.559.449.592.212.309.517.655.904.66h0 .001a1.32 1.32 0 0 0 1.141-.697c-.015.026-.263.404-.827.384z"
                  class="M"/>
        </g>
        <path d="M353.943 184.711c-.378-2.602-1.674-4.805-4.226-5.359.457.606.753 1.455.81 2.661-.125-2.625-1.377-3.557-2.976-3.986m-11.31 7.761l-.003.033c1.194-1.13 2.93-1.47 4.681-.679m0 0l.695-2.236m-.695 2.236c1.923-1.239 8.099.493 8.817 2.362h0"
              stroke="#689dec" stroke-width=".261"/>
        <g class="C">
            <path d="M347.246 193.078l1.332-6.755c.58.368 1 .771 1.158 1.181 1.044.104 1.876.443 2.49.93l-.2 4.434c-1.212.824-2.863.794-4.735.215l-.045-.005zm-6.327-7.936c.394-.254.967-.383 1.634-.412-1.098 2.662-1.935 5.423-2.265 6.483-1.901-.375-3.307-1.273-4.007-2.541.145-.375.983-2.046 2.028-3.9.819-.144 1.713-.036 2.61.37zm2.823-6.139c-.474.499-.474.499 0 0h0zm6.62 1.782c.124.52.124.52 0 0h0z"
                  class="K"/>
            <path d="M342.553 184.73c1.876-.081 4.503.631 6.025 1.593-.392 2.865-1.072 5.684-1.332 6.754-1.615.573-6.372-.798-6.958-1.864l2.265-6.483zm-4.268.084l-1.998 3.844c-.635-.678-.93-1.345-.791-1.935.096-.359.352-.661.741-.902a4 4 0 0 1 2.054-1.046l.018-.004-.024.043zm15.165 5.619c.216.404.288.793.192 1.152l-.007.024-.007.022-.006.021-.008.021-.007.021-.01.024-.008.021-.008.02-.009.02-.009.017-.009.02-.01.019-.003.006-.02.037-.011.019-.004.006-.026.042-.012.019-.004.005-.021.03-.014.019-.009.012c-.275.362-.754.642-1.393.838.069-.393.181-2.284.199-4.435a3.32 3.32 0 0 1 1.224 2z"
                  fill="url(#T)"/>
            <path d="M353.943 184.71c.667 1.895.787 4.028.22 6.145-.126.469-.382.86-.744 1.178a1.28 1.28 0 0 0 .223-.448c.096-.359.025-.748-.191-1.152.052-.115.096-.236.13-.363.46-1.717.614-3.627.362-5.36zm-15.448-3.935c-.998 1.356-1.748 3.025-2.188 4.666a2.32 2.32 0 0 0-.069.38c-.389.241-.646.543-.742.902-.043.161-.053.327-.03.499-.155-.456-.182-.922-.056-1.392.545-2.033 1.647-3.763 3.085-5.055zm2.424 4.366c1.913-7.017 4.217-7.761 6.632-7.114s4.038 2.443 2.185 9.477c-.716-1.869-6.893-3.601-8.817-2.363z"
                  fill="url(#U)"/>
            <g class="B">
                <path d="M345.012 178.091c-1.476.626-2.865 2.545-4.093 7.051-1.751-.791-3.487-.451-4.681.679.012-.126.034-.253.068-.38 1.151-4.295 4.424-8.774 8.706-7.35zm4.704 1.261c4.253.923 5.015 6.423 3.865 10.718-.034.127-.078.248-.13.363-.281-1.472-1.535-2.711-3.715-2.929 1.189-4.516.946-6.873-.02-8.152z"/>
                <path d="M341.314 198.838l-.929-7.649c-.006-.046-.048-.079-.094-.073s-.079.048-.074.093l1.057 8.698-4.91-14.14c-.015-.044-.063-.068-.107-.052s-.067.063-.052.107l4.482 12.909-4.328-10.094c-.018-.042-.068-.062-.11-.044s-.063.068-.045.111l5.18 12.078h-.001.001v.001.001h.001v.001.001h0l.001.002h0l.001.002.001.002.002.002.001.001v.001l.001.001v.001l.001.001h0v.001h.001 0v.001h.001v.001l.001.001h0 .001v.001.001h.001v.001h.001 0l.001.001v.001h.001v.001h.001v.001h0 .001v.001h.001v.001h.001v.001l.001.001h.001l.014.009v.001h.001 0l.001.001h0l.002.001.004.001.001.001.001.001h.001 0 .001.001 0l.001.001h.001 0v.001h.001.001 0 .001 0 .001v.001h.001 0 .001.001 0 .001 0 .001 0l.002.001h0 .001 0 .001l.008.003.002.001c.012.002.025.003.038 0h.001.001 0v-.001h.002c.006-.002.013-.005.019-.008l.002-.001.165-.14 10.374-7.759c.038-.028.045-.081.017-.118s-.08-.045-.118-.017l-8.473 6.337 10.026-8.671c.035-.03.039-.083.009-.118s-.084-.039-.119-.009l-11.438 9.891 5.361-7.092c.027-.037.02-.09-.017-.118s-.09-.021-.118.016l-4.676 6.187 7.33-11.779c.024-.04.012-.092-.028-.116s-.091-.013-.115.027l-8.165 13.122-.511-15.447c-.001-.046-.04-.083-.087-.081s-.082.04-.081.087l.456 13.809z"/>
            </g>
            <path d="M346.227 213.253l-7.884-.348-7.091-3.465.049-.19 8.076-.408 6.899 4.22-.049.191z" class="E"/>
            <path d="M341.824 199.231l-.422-.268-7.957.401-.611 2.398.347.101-1.881 7.387 8.077-.407 2.447-9.612z"
                  class="F"/>
            <path d="M341.824 199.234l.001-.003 6.898 4.22-.001.003.345.211-.606 2.381-.352-.183-1.833 7.199-6.898-4.22 1.585-7.083-.169-.404.606-2.38.424.259z"
                  fill="#4197f6"/>
            <path d="M340.792 201.361l7.67 4.682-.427.112-7.093-4.315-7.804.192-.303-.273 7.957-.398z" class="E"/>
        </g>
        <g filter="url(#D)" class="F">
            <path d="M335.327 207.576c.519 0 1.091-.14 1.645-.401s1.063-.633 1.464-1.068.677-.913.791-1.374.061-.885-.151-1.218-.574-.559-1.04-.651-1.016-.045-1.58.135-1.115.485-1.586.876-.839.852-1.059 1.322c-.146.313-.223.622-.226.911s.067.552.208.773a1.39 1.39 0 0 0 .612.515c.263.12.577.181.922.18z"/>
        </g>
        <g class="B">
            <path d="M336.982 205.574c.161-.346-.012-.466-.448-.516-.31-.039-.339-.119-.274-.257s.216-.228.434-.228c.197 0 .279.059.264.208-.001.014.004.026.014.035s.024.013.041.013h.175c.01.001.021-.001.032-.004s.022-.009.032-.015.019-.015.027-.023.014-.018.018-.027l.004-.01a.32.32 0 0 0-.039-.279c-.055-.073-.147-.118-.263-.127l.111-.238c.018-.04-.001-.069-.051-.079h-.164c-.044 0-.09.029-.124.079l-.107.229c-.348.04-.648.238-.763.485-.153.328.006.456.442.506.283.049.355.108.281.267s-.278.268-.485.268c-.285 0-.332-.108-.296-.258.005-.016.002-.032-.007-.043s-.024-.017-.043-.017h-.186c-.01 0-.021.001-.032.005s-.022.008-.032.015-.02.014-.027.023-.014.017-.018.026l-.005.01c-.072.248.02.427.358.476l-.111.238c-.018.04 0 .069.05.079h.165c.043 0 .09-.029.124-.079l.111-.238c.351-.049.667-.258.792-.525v.001zm-1.765 1.04c-.266-.104-.449-.294-.525-.543s-.04-.545.102-.849.382-.6.69-.849.669-.439 1.032-.544c.025-.008.049-.022.069-.04a.15.15 0 0 0 .043-.059l.065-.139c.01-.018.012-.036.007-.05s-.018-.025-.036-.029-.032.002-.048.01c-.452.115-.905.341-1.294.647s-.694.674-.871 1.053-.215.747-.111 1.053.346.532.69.647c.007.004.016.007.026.008s.022-.002.033-.005.023-.01.033-.018.019-.016.025-.025c.016-.01.021-.02.03-.04l.065-.138c.013-.03-.001-.07-.025-.09zm2.602-3.092c-.007-.005-.016-.008-.026-.008s-.022.001-.033.005-.023.01-.033.017-.019.016-.025.026c-.016.01-.02.019-.03.039l-.064.139c-.008.02-.01.039-.007.056s.013.032.026.043c.266.105.449.294.525.543s.04.546-.101.85-.383.6-.691.849-.668.439-1.032.543a.2.2 0 0 0-.069.04.15.15 0 0 0-.042.059l-.065.139c-.01.018-.013.036-.007.051s.018.025.035.028.032-.002.049-.009c.452-.117.905-.344 1.294-.651s.694-.675.871-1.054.216-.748.113-1.055-.345-.534-.688-.65z"/>
        </g>
        <g class="C">
            <path d="M325.704 191.3c.391-1.649 1.415-5.992 2.015-10.401.854.555 1.472 1.168 1.702 1.795 1.543.144 2.771.651 3.675 1.389-.041 3.305-.22 6.213-.326 6.818-1.798 1.285-4.238 1.266-7 .407l-.066-.008zm-9.297-12.093c.585-.395 1.432-.603 2.419-.658-1.642 4.108-2.898 8.364-3.393 9.999-2.806-.545-4.879-1.903-5.904-3.839.217-.58 1.467-3.161 3.024-6.028 1.211-.233 2.531-.082 3.854.526zm4.215-9.479c-.704.775-.704.775 0 0h0zm9.772 2.631c.18.796.18.796 0 0h0z"
                  class="L"/>
            <path d="M318.826 178.548c2.773-.155 6.65.896 8.893 2.351-.6 4.409-1.624 8.752-2.016 10.401-2.391.906-9.411-1.124-10.27-2.752.494-1.635 1.752-5.891 3.393-10zm-6.309.199c-1.522 2.806-2.742 5.325-2.98 5.939-.933-1.031-1.365-2.052-1.155-2.961.144-.553.525-1.021 1.102-1.398.858-.849 1.901-1.416 3.042-1.641l.027-.006-.036.067zm22.374 8.388c.317.617.42 1.214.275 1.767l-.01.038-.01.033-.01.033-.011.032-.011.033-.014.037-.013.031-.012.032-.014.03-.012.027-.014.03-.015.03-.004.009c-.01.02-.02.038-.03.057l-.016.029-.006.01-.039.065-.018.029-.006.008c-.01.016-.021.032-.031.046l-.021.03-.013.019c-.409.56-1.12.999-2.066 1.31.106-.605.285-3.512.326-6.818a5.04 5.04 0 0 1 1.795 3.053z"
                  fill="url(#V)"/>
            <path d="M335.658 178.333c.973 2.901 1.135 6.177.283 9.438-.19.724-.571 1.329-1.108 1.823a2.04 2.04 0 0 0 .333-.692c.144-.554.042-1.15-.275-1.767.078-.178.144-.364.195-.56.692-2.646.933-5.583.572-8.242zm-22.803-5.797c-1.485 2.1-2.605 4.677-3.266 7.207a3.66 3.66 0 0 0-.105.584c-.577.378-.958.845-1.102 1.399a2.05 2.05 0 0 0-.049.767c-.225-.698-.262-1.414-.072-2.138.819-3.133 2.459-5.81 4.594-7.819zm3.553 6.671c2.875-10.816 6.285-11.996 9.849-11.041s5.951 3.688 3.165 14.528c-1.046-2.861-10.163-5.421-13.014-3.487z"
                  fill="url(#W)"/>
            <g class="B">
                <path d="M322.506 168.305c-2.186.986-4.252 3.958-6.098 10.902-2.583-1.187-5.151-.636-6.923 1.12.018-.193.053-.389.104-.584 1.731-6.62 6.599-13.556 12.917-11.438zm6.944 1.861c6.279 1.35 7.367 9.789 5.636 16.409-.051.195-.117.382-.194.559-.405-2.257-2.249-4.14-5.47-4.44 1.789-6.959 1.446-10.577.028-12.528z"/>
                <path d="M316.897 200.248l-1.321-11.739c-.007-.071-.069-.121-.137-.111s-.117.074-.11.145l1.502 13.349-7.159-21.651c-.022-.067-.093-.102-.158-.078s-.099.099-.078.165l6.536 19.766-6.327-15.442c-.027-.065-.1-.094-.163-.066s-.094.106-.066.171l7.571 18.477-.001.001h.001v.001.001l.001.001.001.001v.001.001l.001.002.001.001.001.002.002.003.002.004.001.002v.001l.001.002.001.001.001.001h0l.001.001.001.001v.001h0l.001.001.001.001v.001l.001.001h.001v.001l.001.001h.001l-.001.001.002.002h.001v.001l.001.001h.001v.001h.001l.001.001v.002h.001l.001.001h0l.001.001h.001v.001l.002.002h.001c.005.005.012.01.019.014h.001l.001.002h.001 0 .001.001l.003.002.006.003.001.001h.002 0l.001.001h.001.002v.001h.001.001l.001.001h0 .001l.001.001h.001.001 0l.001.001h.001.001.001.001v.001h.001l.001-.001h.001l.001.001h.001.001l.001.001h.001.001.001l.012.005h.003c.018.004.037.005.056 0h.001l.001-.001.001.001v-.001l.002-.001c.01-.002.02-.007.029-.012l.003-.002a.09.09 0 0 0 .019-.015l.225-.203 15.386-12.093c.056-.043.068-.124.027-.18s-.119-.068-.175-.025l-12.567 9.877 14.878-13.488c.052-.047.059-.129.014-.183a.12.12 0 0 0-.175-.011l-16.973 15.386 7.971-10.987c.041-.057.031-.138-.024-.18s-.133-.031-.174.026l-6.953 9.584 10.913-18.221a.13.13 0 0 0-.039-.177c-.058-.038-.135-.018-.171.043l-12.158 20.298-.647-23.73c-.002-.071-.059-.126-.128-.123a.13.13 0 0 0-.121.135l.578 21.214z"/>
            </g>
            <path d="M322.352 216.115l-8.619-.413-7.692-3.958.057-.217 8.843-.445 7.467 4.816-.056.217z"
                  fill="#290081"/>
            <path d="M317.799 200.152l-.457-.306-8.713.439-.713 2.727.378.116-2.197 8.4 8.844-.446 2.858-10.93z"
                  fill="#9677d7"/>
            <path d="M317.797 200.155l.001-.004 7.468 4.817-.001.003.373.241-.708 2.707-.382-.209-2.14 8.188-7.467-4.817 1.867-8.056-.178-.459.708-2.707.459.296z"
                  class="L"/>
            <path d="M316.629 202.573l8.302 5.344-.469.126-7.678-4.925-8.541.202-.326-.312 8.712-.435z" fill="#290081"/>
        </g>
        <path opacity=".5"
              d="M317.253 183.842h115.855s-19.14-2.976-32.013-2.899c-7.029.043-10.76.922-17.784 1.029-13.398.204-20.423-2.63-33.791-2.244-13.295.383-32.267 4.114-32.267 4.114z"
              fill="#fae5d6"/>
        <path d="M437.081 134.218c-54.77-.247-165.274-.593-169.132 0 0 0 27.942-11.804 46.734-11.498 10.262.168 15.708 3.656 25.963 4.08 19.559.808 29.814-10.431 49.33-8.901 19.409 1.521 47.105 16.319 47.105 16.319z"
              class="I J"/>
        <g class="C">
            <path d="M356.79 96.098c-7.905-9.385-22.937-18.875-34.301-21.944-12.047 14.552-22.605 30.287-26.606 36.268 4.385 10.299 32.013 27.125 39.727 25.233 3.646-6.272 13.228-22.509 21.18-39.557zm18.463 20.907c-4.221 12.939-8.445 24.082-9.661 26.605 6.07.058 10.585-1.474 12.809-4.748 1.302-2.051 1.618-4.617 1.061-7.558.074-5.193-1.3-10.18-4.045-14.503l-.065-.102-.099.306zm-94.071-48.126c-2.9.746-5.088 2.124-6.39 4.173l-.087.142-.076.126-.072.127-.07.127-.067.13-.074.15-.061.13-.06.132-.057.13-.047.116-.052.133-.05.132-.014.043a6.79 6.79 0 0 0-.088.257l-.043.138-.013.043c-.031.104-.059.209-.088.314l-.034.141-.011.044-.05.231-.03.149-.019.102c-.524 2.919.246 6.466 2.129 10.408 1.583-2.071 10.183-10.973 20.453-20.564-5.495-.875-10.693.26-15.029 2.948z"
                  fill="url(#X)"/>
            <path d="M295.884 110.422c4.001-5.981 14.559-21.716 26.606-36.267-4.33-1.168-8.128-1.405-10.796-.348v-.001c-5.121-4.564-10.429-7.07-15.483-7.874-10.27 9.591-18.87 18.493-20.453 20.565 1.399 9.475 8.844 17.286 19.9 23.73l.226.196zm66.149-4.642c-.521-3.018-2.431-6.344-5.243-9.681-7.954 17.051-17.534 33.285-21.18 39.556 10.208 7.487 20.749 10.281 29.94 8.044 1.164-2.358 5.498-13.771 9.803-27-2.933-4.57-7.403-8.392-13.32-10.919z"
                  fill="#ab5e27"/>
        </g>
        <g fill="#b66429">
            <path d="M296.044 110.218l-.16.24-.226-.196-.41-.24.796.196zm2.325-3.457c5.031-7.432 14.057-20.415 24.121-32.571-4.33-1.168-8.128-1.405-10.796-.348v-.001c-5.121-4.564-10.429-7.07-15.483-7.874-5.582 5.213-10.67 10.222-14.407 14.042 2.146-.672 4.822-.502 7.883.071l1.472-5.91 3.551.888-1.446 5.834 2.841.736 1.471-5.86 3.552.888-1.471 5.911 1.444.377 1.092.282 4.642 1.167-1.775 4.084s-2.613-.685-2.588-.634c-.989-.254-1.446.406-1.623.837l-2.334 9.335c-.127-.051-.254-.076-.38-.102a1.48 1.48 0 0 0 .342.118l.038.009-1.674 6.671c-.049.74.189 1.671 1.528 2.049zm-21.256-21.809l-1.355 1.58c.404 2.74 1.314 5.34 2.671 7.809.588-.369 1.252-.627 1.974-.79-3.184-1.668-4.807-4.216-3.29-8.599zm8.563 18.204l-2.858-2.805c-.098-.447-.092-.944.046-1.499.931-3.704 6.228-2.273 8.639-1.622l.569.151-1.776 7.103-.751-.174h0c-1.047-.235-2.546-.57-3.869-1.154zm9.499 6.822l.042.025v-.014l-.042-.011zm61.615-13.844c2.812 3.338 4.722 6.664 5.243 9.682 5.917 2.527 10.387 6.348 13.32 10.919l-2.165 6.502-3.746-.942-1.129-.292h-.002-.001l-1.491-.39 1.522-6.11-3.672-.918-1.521 6.058-2.937-.76 1.495-6.032-3.672-.918-1.521 6.11c-6.294-1.18-11.015-.708-12.982 4.983-1.599 4.563.079 7.212 3.384 8.943-2.439.551-4.249 2.15-4.721 5.402-.074.506-.097.986-.071 1.441-2.175-1.161-4.351-2.536-6.513-4.121l.69-1.184c4.057-6.964 12.995-22.305 20.49-38.373zm7.231 47.925l1.528-.324c.83-1.679 3.265-7.948 6.153-16.194-.799-.206-1.989-.508-1.972-.473-1.022-.262-1.494.42-1.678.866l-2.413 9.651a2.12 2.12 0 0 0-.393-.105c.138.069.256.097.354.121l.011.003a.23.23 0 0 1 .028.007l-1.618 6.448zM294.29 85.77c-2.883-.768-9.304-2.48-10.31 1.591-1.047 4.141 5.089 5.527 8.105 6.208l.9.21 1.953-7.838-.648-.17zm66.981 39.155c-2.98-.794-9.619-2.563-10.659 1.645-1.082 4.281 5.262 5.714 8.379 6.418h.001l.93.217 2.02-8.104-.671-.176zm-2.881 11.848c-2.492-.673-7.968-2.153-8.932 1.677-.964 3.88 4.313 5.061 6.907 5.642l.777.18 1.836-7.343-.587-.156h-.001z"/>
        </g>
        <path d="M294.392 164.423l40.906-29.34a.55.55 0 1 1 .641.895l-46.517 33.364 89.738-38.888c.279-.12.603.009.724.287a.55.55 0 0 1-.286.724l-81.923 35.5 67.697-23.795a.55.55 0 0 1 .365 1.038l-81.004 28.474-.002.001h-.002l-.002.001-.004.001-.001.001h-.001l-.003.001-.001.001-.002.001-.005.001h-.001l-.002.001h-.002l-.001.001-.003.001-.004.001-.003.001h-.002 0l-.004.001-.008.003-.005.001-.012.003h-.001-.002l-.004.001-.009.002-.005.001h0-.001l-.007.002h-.005l-.001.001h-.001l-.006.001h-.005l-.001.001h-.003-.001 0l-.004.001h-.003-.003-.002-.001l-.001.001h-.003-.003l-.003.001h-.002-.001-.003-.002-.003l-.003.001h-.001-.002-.002-.003-.002-.004-.001-.001-.004-.001-.002-.004-.001l-.002.001-.004-.001h-.001-.001-.004-.001-.003-.004-.002-.003-.003-.001-.005 0-.001-.005l-.001-.001h-.002-.003-.002-.003-.002l-.001-.001h-.003-.001-.003l-.005-.001h-.003-.001-.001a.55.55 0 0 1-.101-.022h0l-.001-.001-.008-.002-.002-.001-.002-.001-.005-.001-.003-.001-.001-.001-.005-.001-.013-.005-.019-.009-.005-.002-.007-.004h-.001 0l-.005-.002-.006-.003-.001-.001-.002-.001-.003-.001-.001-.001-.002-.001-.002-.001-.002-.001-.003-.001-.001-.002h-.001-.001l-.003-.002-.003-.002-.003-.001-.001-.001-.001-.001h0l-.004-.002-.003-.002-.003-.002-.002-.001-.004-.002-.002-.002-.003-.002-.003-.002-.003-.002-.003-.002-.003-.002-.002-.001-.003-.002-.003-.003-.003-.002-.002-.001-.002-.002-.004-.003-.004-.002-.001-.001-.001-.002-.005-.003-.002-.002c-.015-.007-.028-.014-.042-.023l-.009-.005-.001-.001-.001-.001-.009-.005h0a.57.57 0 0 1-.171-.181v-.001l-.001-.003-.003-.004-.002-.002-.001-.002-.003-.008v-.001c-.022-.04-.039-.084-.05-.13l-.002-.013c-.009-.035-.012-.07-.012-.104l-.04-1.308-8.534-84.211a.55.55 0 1 1 1.096-.112l6.97 68.785-2.608-86.571a.55.55 0 1 1 1.102-.032l2.973 98.751 10.428-57.139a.55.55 0 1 1 1.083.198l-9.096 49.844 24.271-87.332a.55.55 0 1 1 1.061.295l-27.039 97.289 76.571-65.828a.55.55 0 1 1 .717.834l-68.452 58.85z"
              class="B C"/>
        <path d="M228 196.382l29.882 30.151" stroke="#fff" stroke-width=".835"/>
        <g class="C">
            <path d="M228 192.247l27.375 26.607 35.719 13.47.51-.802-25.355-29.787-37.739-10.289-.51.801z"
                  fill="#441d35"/>
            <path d="M291.969 161.241l2.345.593 24.982 29.348-6.418 10.102-1.506-.886-19.768 31.124-25.356-29.787 25.721-40.494z"
                  class="D"/>
            <g fill="#ed8c16">
                <path d="M299.175 213.063c.779-3.531-1.258-4.136-4.204-3.688l1.472-5.02-2.343.604-1.425 4.885-1.896.531 1.427-4.904-2.343.604-1.452 4.991-1.51.417.002-.019-3.248.846-.944 3.254 1.708-.45c.955-.251 1.05.396.954.997l-1.675 5.714.024-.006.001-.001c.062-.016.137-.036.223-.033-.084.026-.168.052-.251.059l-.084.289 2.817 3.308 2.652 3.116 2.202 2.587.322.378.558-.878h-.001l5.648-8.892h0l13.564-21.354-13.564 21.354c.282-2.121-.608-2.94-2.159-3.036 1.647-1.261 2.962-3.079 3.525-5.653zm-7.014 17.581l-.557.878-.322-.378.879-.5zm-3.081-2.087l-2.652-3.116.686-2.351.596-.165c1.995-.569 6.055-1.725 5.01 1.824-.553 1.904-2.069 3.069-3.64 3.808zm5.324-13.012c-.932 3.174-4.418 3.993-6.004 4.366l-.375.09 1.779-6.081.497-.139c1.661-.477 5.039-1.447 4.103 1.764zm-15.095-34.373l-1.572 5.363.025-.007a.73.73 0 0 1 .223-.034c-.084.027-.168.053-.25.06l-2.338 7.992c-.156.395-.519 1.065-1.171 1.228.013.03-1.709.45-1.709.45l-1.536 3.77 3.063-.785.72-.178v-.001l.951-.233-1.476 5.058 2.343-.603 1.472-5.02 1.873-.464-1.453 4.991 2.343-.604 1.476-5.058c4.048-1.327 7.189-3.327 8.925-8.23 1.408-3.94.51-5.315-1.528-5.442 1.647-1.26 2.961-3.078 3.525-5.652.778-3.532-1.259-4.136-4.204-3.689l1.472-5.019-2.343.604-1.426 4.884-1.895.531 1.389-4.773-6.899 10.861zm.313 13.232c1.898-.454 6.126-1.465 7.138-4.946 1.045-3.549-3.016-2.392-5.011-1.824l-.595.165-1.959 6.709c.123-.032.267-.066.427-.104zm2.817-9.784c1.587-.373 5.073-1.192 6.005-4.365.936-3.211-2.443-2.241-4.104-1.764h-.001l-.495.138-1.779 6.081.374-.09z"/>
            </g>
        </g>
        <path d="M301.816 170.647l-.944 3.252 1.708-.45c.955-.25 1.05.396.954.997l-1.676 5.715.026-.007c.062-.017.137-.037.223-.034a1.16 1.16 0 0 1-.251.06l-2.338 7.993c-.155.394-.519 1.064-1.171 1.228.013.029-1.708.449-1.708.449l-1.536 3.77 3.062-.785.72-.178.952-.234-1.476 5.059 2.343-.604 1.472-5.02 1.872-.463-1.452 4.99 2.343-.604 1.476-5.058c3.235-1.06 5.891-2.551 7.714-5.611l-3.301-3.878c.258.382.312.972.053 1.851-1.011 3.48-5.239 4.491-7.137 4.945l-.428.104 1.959-6.709.596-.165c1.411-.402 3.857-1.099 4.797-.214l-2.699-3.171-1.408.371-.375.09.556-1.901-4.926-5.788z"
              fill="#ed8c16"/>
        <g class="C">
            <path d="M291.961 161.254l.008-.013-37.739-10.29-.009.014-1.887-.514-6.37 10.028 1.811.633-19.266 30.334 37.739 10.289 19.679-29.076 1.984-.744 6.37-10.028-2.32-.633z"
                  fill="#ffb154"/>
            <g fill="#ffbf72">
                <path d="M267.682 154.697l-13.555-3.696-.008.014-.859-.234c.228.352.069.77-.16 1.11l-3.895 4.251.025.009v.001h.001c.063.025.139.055.215.113-.087-.03-.174-.06-.25-.106l-1.826 1.995-1.509 2.375 1.812.633-5.709 8.989 2.645-2.887h0l1.88.778-3.392 3.718 2.362.951 3.441-3.767c4.199 1.378 7.863 1.541 11.474-1.912 2.912-2.767 2.677-4.631.895-6.067 2.009-.112 3.952-.959 5.534-2.997.981-1.26 1.198-2.335.879-3.271zm-20.063 10.007c1.899.804 6.128 2.593 8.492-.002 2.423-2.637-1.717-4.182-3.751-4.941h0l-.605-.231-4.565 4.995.429.179zm13.851-7.503c-2.164 2.36-5.646.871-7.23.193l-.375-.158 4.14-4.525c.138.055.31.119.505.192h0c1.695.628 5.143 1.906 2.96 4.298zm-33.064 34.294v.001l37.74 10.289 19.678-29.076 1.985-.744 6.369-10.028-4.708 7.413-1.433.369-.708 2.426-1.505.564-.705 1.042 1.024-3.52-2.343.604-1.452 4.99-1.51.418.002-.02-3.248.847-.944 3.253 1.708-.449c.955-.251 1.05.395.954.996l-.757 2.583-6.995 10.336c-.022-1.548-1.446-2.497-3.434-3.166l2.497-3.778-2.221-.508-2.423 3.68-1.806-.373 2.429-3.696-2.22-.508-2.473 3.762-1.437-.302.006-.016-3.08-.695-1.609 2.453 1.621.362c.905.203.836.816.608 1.304l-2.841 4.302.007.002.016.003c.06.013.131.029.206.07-.081-.014-.161-.029-.236-.059l-1.211 1.836-25.551-6.967zm33.894 9.241l-4.561-1.243.164-.249.565.119h.002 0c1.11.224 2.889.584 3.83 1.373zm4.208-1.562c.368.21.679.446.922.713l.967-1.429c-.595.341-1.231.573-1.889.716zm-.352-3.354c-1.579 2.389-4.864 1.564-6.359 1.188l-.353-.087 3.021-4.58.473.099c1.586.317 4.811.961 3.218 3.38z"/>
            </g>
            <path d="M287.896 171.939l-41.924-11.472 1.024 1.874 38.716 10.658 25.209 28.111 1.966.161-24.991-29.332z"
                  fill="#401e34"/>
            <path d="M306.538 41.215c-12.066 5.168-22.86 14.02-30.535 26.104-1.702 2.679-2.448 5.639-2.377 8.787.197-1.112.583-2.136 1.166-3.054 1.302-2.049 3.491-3.426 6.39-4.173.321-.758.711-1.503 1.171-2.227 6.227-9.804 14.733-18.99 24.185-25.436zm87.222 56.925c-2.11 10.795-6.824 21.781-12.779 31.156a15.03 15.03 0 0 1-1.519 2.007c.557 2.942.241 5.508-1.061 7.558-.583.918-1.345 1.702-2.268 2.354 2.878-1.274 5.241-3.207 6.943-5.887 7.373-11.608 10.824-24.554 10.684-37.189zm-31.727 7.641c25.311-40.226 18.703-54.598 4.917-63.354s-29.605-8.629-55.256 31.379c12.16-4.818 47.797 17.246 50.339 31.975z"
                  fill="url(#Y)"/>
        </g>
        <path d="M366.952 42.398c13.787 8.757 20.395 23.129-4.917 63.355-.78-4.522-4.68-9.736-10.062-14.65 4.551.098 7.98-1.477 9.817-6.308 2.086-5.413.171-8.65-3.728-10.847 2.945-.571 5.173-2.422 5.858-6.304.95-5.321-3.018-8.338-8.556-10.428l2.046-7.208-4.368-1.235-1.978 7.021-3.528-.926 1.979-7.052-4.369-1.235-2.014 7.177-2.809-.747.001-.031-6.054-1.696-1.308 4.681 3.183.884c1.779.495 2.057 1.7 1.965 2.641l-2.328 8.206.046.013c.117.032.257.071.42.159-.156-.036-.312-.073-.467-.14l-2.949 10.428c-8.37-4.122-16.476-6.223-21.136-4.377 25.651-40.009 41.469-40.136 55.256-31.379z"
              fill="url(#Z)"/>
        <path d="M342.191 83.542l-2.233-1.429 2.517-8.926 1.108.294c3.712.959 11.265 2.909 9.811 8.002-1.213 4.335-7.293 3.145-11.203 2.058z"
              fill="url(#Z)"/>
        <path d="M344.443 68.966c2.963.899 9.475 2.873 10.77-1.683 1.299-4.617-4.985-6.226-8.074-7.018l-.925-.245-2.471 8.737.7.209z"
              fill="url(#Z)"/>
        <g class="C">
            <path d="M377.862 54.92c3.515 9.868.421 25.036-15.829 50.859 11.545 4.932 17.583 14.789 17.429 25.525.551-.613 1.059-1.282 1.52-2.007 15.576-24.523 22.657-60.071-3.12-74.377zm-26.86-17.061c-23.245-16.377-53.072 4.267-68.649 28.791a15.23 15.23 0 0 0-1.171 2.229c8.322-5.158 19.822-4.601 30.512 4.927 16.468-25.686 28.883-34.934 39.308-35.947z"
                  class="B"/>
            <path d="M268.691 173.107c.671 1.357 1.041 2.883 1.041 4.526 0 6.848-6.419 13.15-14.337 14.076-6.017.704-11.169-1.901-13.295-6.198l1.034 2.269c2.126 4.297 7.278 6.901 13.296 6.198 7.918-.926 14.336-7.228 14.336-14.076 0-1.644-.369-3.169-1.041-4.526l-1.034-2.269z"
                  fill="#401e34"/>
        </g>
        <path d="M259.986 168.475c7.492.655 11.725 6.536 9.454 13.132s-10.188 11.413-17.68 10.758-11.726-6.536-9.455-13.132 10.189-11.413 17.681-10.758z"
              class="D"/>
        <path d="M263.231 179.24c.898-1.707-.286-2.776-2.121-3.574l1.472-2.294-1.505-.496-1.434 2.243-1.214-.38 1.454-2.24-1.505-.496-1.473 2.294-.971-.304-2.079-.692-.971 1.5 1.093.369c.614.199.601.599.477.898l-4.05 6.294c-.141.17-.433.417-.858.271.014.019-1.094-.369-1.094-.369l-1.37 1.574 1.951.644 1.073.367-1.504 2.328 1.505.496 1.472-2.294 1.202.415-1.472 2.294 1.505.496 1.498-2.31c2.614.702 4.763.708 6.408-1.425 1.318-1.724.928-2.815-.287-3.614 1.122-.193 2.138-.741 2.798-1.995zm-5.299 4.272c-1.117 1.742-4.176.473-5.202.146l1.988-3.068c1.005.324 4.376 1.111 3.214 2.922zm2.091-4.571c-1.022 1.586-3.567.507-4.424.232l1.789-2.794c.857.275 3.682.905 2.635 2.562z"
              class="B"/>
        <g clip-path="url(#e)">
            <circle cx="2.611" cy="2.611" r="2.572" transform="matrix(-1 0 -.309017 .951056 314.837 204.611)"
                    stroke="#dbd9d6" stroke-width=".077" class="B"/>
            <path d="M310.78 206.308c.194 0 .376.093.541.276.078.087.14.18.185.254h-.001l-.303.228a1.61 1.61 0 0 0-.182-.256c-.146-.163-.265-.197-.339-.197-.28 0-.575.206-.657.46s.079.459.357.461c.013 0 .03-.002.052-.006a.84.84 0 0 1-.271.056c-.513 0-.512-.311-.511-.333a.69.69 0 0 1 .035-.178c.136-.421.628-.765 1.094-.765z"
                  fill="url(#a)"/>
            <path d="M312.072 207.839c-.194 0-.376-.092-.541-.275-.078-.087-.14-.18-.185-.254h.001l.303-.229a1.57 1.57 0 0 0 .182.257c.146.163.265.197.339.197.28-.001.575-.207.657-.461s-.079-.459-.357-.461c-.013 0-.03.002-.052.006.093-.033.188-.056.271-.056.513 0 .511.311.512.333-.004.057-.015.116-.035.178-.138.422-.629.765-1.095.765z"
                  fill="url(#b)"/>
            <path d="M310.165 207.578c.264-.007.6-.199.671-.247l.659-.485c.326-.254.747-.538 1.075-.538h0 .001c.397.002.65.253.63.588.001-.022-.027-.34-.512-.328-.264.006-.602.201-.673.249l-.66.485c-.325.254-.747.537-1.074.537h-.001 0c-.398-.001-.651-.252-.631-.587 0 .022.03.336.515.326z"
                  class="M"/>
        </g>
        <path d="M211.029 81.078c13.251 9.624 21.867 25.241 21.867 42.87 0 29.243-23.706 52.948-52.948 52.948-11.613 0-22.353-3.738-31.081-10.077C135.616 157.195 127 141.578 127 123.948 127 94.706 150.705 71 179.948 71c11.613 0 22.353 3.739 31.081 10.078z"
              fill="#06f"/>
        <path d="M227.373 119.936c0-17.622-8.609-33.234-21.851-42.859l5.507 4.001c13.251 9.624 21.867 25.241 21.867 42.87 0 29.243-23.706 52.949-52.949 52.949-11.613-.001-22.352-3.739-31.081-10.078l-5.522-4.013c8.729 6.34 19.468 10.078 31.081 10.078 29.243 0 52.948-23.706 52.948-52.948z"
              fill="#0754c8"/>
        <path d="M174.986 149.779l-2.712 5.1c-.405.762-1.333 1.096-2.128.758l-5.47-2.451a1.61 1.61 0 0 1-.737-2.224l2.455-4.617-2.237-1.097-1.989-1.049-2.454 4.616a1.68 1.68 0 0 1-2.283.686l-5.191-2.973c-.74-.443-.994-1.379-.589-2.142l2.698-5.074c-10.868-7.936-16.327-18.103-9.252-31.284l1.72-3.233c6.983-13.26 18.614-14.701 31.485-10.531l2.696-5.071c.406-.763 1.335-1.096 2.13-.756 1.809.773 3.632 1.595 5.465 2.457a1.61 1.61 0 0 1 .736 2.224l-2.454 4.616 2.018.994 2.203 1.16 2.453-4.614a1.68 1.68 0 0 1 2.284-.685 166.96 166.96 0 0 1 5.189 2.98c.739.443.992 1.379.587 2.14l-2.705 5.087c10.71 7.894 15.994 18.01 9.016 31.134l-1.719 3.233c-6.925 13.148-18.457 14.67-31.215 10.617zm23.158-15.655l.968-1.82c6.589-11.99-2.462-19.405-14.395-25.695-12.166-5.989-23.562-8.992-29.815 3.169l-.967 1.82c-6.619 12.045 2.432 19.46 14.422 25.779 12.109 5.96 23.506 8.963 29.787-3.253z"
              class="B C"/>
        <g fill="#fcffff">
            <path d="M163.876 81.772c.276.463.766.528 1.092.145s.368-1.067.087-1.528l-2.013-3.352c-.278-.462-.767-.527-1.092-.145s-.368 1.065-.089 1.528l2.015 3.352zm58.195 58.547l.746-5.552c.103-.767-.153-1.477-.571-1.587s-.841.425-.945 1.19l-.746 5.552c-.104.768.152 1.478.571 1.587s.843-.424.945-1.19zm-79.515 10.746c.332.373.38 1.056.107 1.525l-1.971 3.4c-.273.47-.761.547-1.093.172s-.379-1.057-.106-1.525l1.971-3.4c.272-.471.76-.547 1.092-.172zm9.385 12.154c0-.529.309-.958.686-.958s.687.429.687.958-.307.958-.687.958-.686-.429-.686-.958z"/>
            <use href="#f"/>
            <path d="M152.11 87.739c.377 0 .687-.429.687-.958s-.31-.958-.687-.958-.686.429-.686.958.307.958.686.958zm62.638.73c.378 0 .687-.429.687-.958s-.309-.958-.687-.958-.686.429-.686.958.307.958.686.958zm-5.735 64.09l3.698-4.554c.512-.627 1.369-.637 1.916-.02s.579 1.626.068 2.255l-3.699 4.552c-.513.629-1.368.638-1.916.021s-.579-1.626-.067-2.254zm-65.068-48.341l-3.698 4.554c-.512.627-1.369.638-1.916.02a1.8 1.8 0 0 1-.068-2.254l3.699-4.552c.513-.63 1.368-.639 1.916-.022s.579 1.626.067 2.254zm49.614 54.897c.387.637 1.07.929 1.527.652s.513-1.018.127-1.655-1.073-.928-1.527-.652-.513 1.018-.127 1.655z"/>
        </g>
        <g fill="#67c7ac">
            <path d="M194.42 172.452c-.379 0-.686.429-.686.957s.307.958.686.958.687-.429.687-.958-.309-.957-.687-.957zm13.534-90.609c-.373-.286-.894.04-1.162.725l-1.941 4.955c-.268.687-.183 1.47.193 1.756s.894-.039 1.162-.722l1.941-4.958c.266-.685.181-1.47-.193-1.756zm-34.998-3.565c.379 0 .686-.429.686-.958s-.307-.958-.686-.958-.686.429-.686.958.309.958.686.958zm23.102 70.51c-.271.578-.964.654-1.546.165l-4.213-3.538c-.581-.487-.831-1.349-.559-1.93s.968-.652 1.548-.162l4.212 3.536c.583.488.833 1.35.558 1.929zm-14.116-58.624c.454-.276 1.139.016 1.525.651s.329 1.379-.126 1.655-1.14-.015-1.527-.652-.33-1.377.128-1.654z"/>
        </g>
        <g fill="#f8cd7a">
            <path d="M190.214 79.382c.05-.55.478-1.076.952-1.175l3.452-.715c.477-.098.822.267.771.817s-.477 1.076-.954 1.175l-3.453.715c-.474.098-.819-.267-.768-.817zm11.028.651c0-.529.307-.958.687-.958s.685.429.685.958-.308.958-.685.958-.687-.429-.687-.958zm8.209 20.843c-.116-.466.012-1.003.328-1.278l2.66-2.315c.367-.319.847-.17 1.072.335s.111 1.172-.257 1.492l-2.491 2.168.43.132c.679.209 1.247.988 1.265 1.742s-.523 1.195-1.203.985l-4.945-1.517c-.683-.209-1.25-.989-1.268-1.743s.523-1.195 1.203-.983l3.206.982zm11.079 48.467c-.377 0-.685.429-.685.958s.308.958.685.958.687-.429.687-.958-.307-.958-.687-.958zm-10.119 7.444c.461.44 1.028.401 1.271-.09s.061-1.244-.4-1.684l-3.338-3.196c-.461-.44-1.03-.4-1.27.088s-.063 1.246.399 1.687l3.338 3.195zm-19.193 10.349c-.385.279-.856.077-1.053-.449s-.046-1.181.339-1.459l2.779-2.024c.383-.278.853-.078 1.05.449s.046 1.182-.337 1.46l-2.778 2.023zm-25.772 4.52c.38 0 .687-.429.687-.958s-.307-.958-.687-.958-.685.429-.685.958.308.958.685.958zm39.645-51.568a.57.57 0 0 1-.417.197c-.378 0-.687-.429-.687-.958s.309-.958.687-.958c.361 0 .657.39.684.885.033-.031.07-.059.11-.083.457-.277 1.139.016 1.526.653s.331 1.378-.126 1.655-1.14-.015-1.527-.652c-.146-.242-.229-.498-.25-.739zm-57.601 17.52c-.457.277-1.14-.016-1.526-.653s-.331-1.378.125-1.655 1.141.015 1.527.652.329 1.379-.126 1.656z"/>
        </g>
        <g fill="#f877c1">
            <use href="#g"/>
            <path d="M166.549 143.14c.377 0 .686-.43.686-.959s-.309-.956-.686-.956-.687.427-.687.956.308.959.687.959zm-37.555-11.735c.379 0 .686-.429.686-.958s-.307-.958-.686-.958-.687.429-.687.958.309.958.687.958zm.844-17.186c-.416-.119-.846.404-.959 1.168l-.812 5.534c-.112.765.138 1.483.553 1.6s.849-.402.959-1.167l.812-5.534c.112-.764-.135-1.48-.553-1.601zm47.393-17.655l-2.418 4.529c-.334.625-.327 1.42.013 1.776s.891.138 1.224-.49l2.418-4.528c.333-.626.328-1.422-.014-1.778s-.89-.134-1.223.49zm50.208 17.655c-.415-.119-.845.404-.959 1.168l-.811 5.534c-.113.765.137 1.483.553 1.6s.848-.402.959-1.167l.811-5.534c.113-.764-.135-1.48-.553-1.601zm-53.708 53.356c-.346-.259-.934.077-1.311.751l-2.728 4.883c-.377.675-.399 1.434-.052 1.691s.936-.074 1.311-.749l2.728-4.883c.377-.674.4-1.432.052-1.693zm27.097-59.982c-.378 0-.687.429-.687.958s.309.957.687.957.686-.428.686-.957-.307-.958-.686-.958zm9.284 29.677c-.454.276-1.14-.015-1.527-.652s-.327-1.378.128-1.654 1.139.014 1.526.651.33 1.378-.127 1.655zm-67.265-17.761c.454-.276 1.14.015 1.527.652s.327 1.378-.128 1.654-1.139-.014-1.526-.651-.33-1.378.127-1.655z"/>
        </g>
        <g fill="#dc7266">
            <path d="M193.045 91.033c.379 0 .685-.429.685-.958s-.306-.958-.685-.958-.687.429-.687.958.309.958.687.958zm38.741 27.489c-.378 0-.687-.43-.687-.959s.309-.958.687-.958.685.429.685.958-.306.959-.685.959zm-27.185 9.47c0 .528-.306.957-.686.957s-.686-.429-.686-.957.309-.958.686-.958.686.429.686.958zm-68.327 5.173c0-.529-.309-.958-.686-.958s-.686.429-.686.958.307.958.686.958.686-.429.686-.958zm38.055 26.531c-.379 0-.686.429-.686.958s.307.957.686.957.686-.429.686-.957-.309-.958-.686-.958zm27.117-1.829c0 .528.309.957.686.957s.687-.429.687-.957-.307-.958-.687-.958-.686.429-.686.958zm-46.711-10.378c-.457.277-1.14-.015-1.526-.651s-.331-1.378.127-1.656 1.139.016 1.526.653.328 1.378-.127 1.654zm43.487-38.202c.457-.277 1.14.015 1.526.651s.331 1.378-.127 1.656-1.139-.016-1.526-.653-.328-1.378.127-1.654zm-58.105-15.41c-.456.277-1.139-.015-1.526-.652s-.33-1.378.126-1.655 1.141.015 1.527.652.328 1.379-.127 1.655zm79.192 10.302c0-.529.307-.958.687-.958s.685.429.685.958-.308.957-.685.957-.687-.428-.687-.957z"/>
        </g>
    </g>
    <defs>
        <filter id="A" x="1.202" y="212.127" width="5.506" height="6.997" filterUnits="userSpaceOnUse" class="G">
            <feFlood result="A" class="H"/>
            <feColorMatrix in="SourceAlpha" values="0 0 0 0 0 0 0 0 0 0 0 0 0 0 0 0 0 0 127 0" result="B"/>
            <feOffset dx="0.197005" dy="0.197005"/>
            <feComposite in2="B" operator="out"/>
            <feColorMatrix values="0 0 0 0 0.262745 0 0 0 0 0.156863 0 0 0 0 0.0235294 0 0 0 1 0"/>
            <feBlend in2="A"/>
            <feBlend in="SourceGraphic"/>
        </filter>
        <filter id="B" x="23.7" y="207.722" width="10.545" height="14.305" filterUnits="userSpaceOnUse" class="G">
            <feFlood result="A" class="H"/>
            <feColorMatrix in="SourceAlpha" values="0 0 0 0 0 0 0 0 0 0 0 0 0 0 0 0 0 0 127 0" result="B"/>
            <feOffset dy="0.394011"/>
            <feComposite in2="B" operator="out"/>
            <feColorMatrix values="0 0 0 0 0.101961 0 0 0 0 0.392157 0 0 0 0 0.709804 0 0 0 1 0"/>
            <feBlend in2="A"/>
            <feBlend in="SourceGraphic"/>
        </filter>
        <filter id="C" x="120.094" y="45.293" width="13.97" height="14.337" filterUnits="userSpaceOnUse" class="G">
            <feFlood class="H"/>
            <feBlend in="SourceGraphic" result="B"/>
            <feColorMatrix in="SourceAlpha" values="0 0 0 0 0 0 0 0 0 0 0 0 0 0 0 0 0 0 127 0" result="C"/>
            <feOffset dy="0.787302"/>
            <feGaussianBlur stdDeviation="2.756"/>
            <feComposite in2="C" operator="arithmetic" k2="-1" k3="1"/>
            <feColorMatrix values="0 0 0 0 1 0 0 0 0 1 0 0 0 0 1 0 0 0 0.19 0"/>
            <feBlend in2="B"/>
        </filter>
        <filter id="D" x="333.584" y="202.818" width="5.701" height="4.925" filterUnits="userSpaceOnUse" class="G">
            <feFlood result="A" class="H"/>
            <feColorMatrix in="SourceAlpha" values="0 0 0 0 0 0 0 0 0 0 0 0 0 0 0 0 0 0 127 0" result="B"/>
            <feOffset dy="0.167606"/>
            <feComposite in2="B" operator="out"/>
            <feColorMatrix values="0 0 0 0 0.254902 0 0 0 0 0.592157 0 0 0 0 0.964706 0 0 0 1 0"/>
            <feBlend in2="A"/>
            <feBlend in="SourceGraphic"/>
        </filter>
        <linearGradient id="E" x1="248" y1="-27.234" x2="248" y2="266.083" href="#h">
            <stop stop-color="#0061d8"/>
            <stop offset=".526" stop-color="#97cffc"/>
            <stop offset="1" stop-color="#daf1ff"/>
        </linearGradient>
        <linearGradient id="F" x1="16.68" y1="77.283" x2="47.561" y2="119.621" href="#h">
            <stop stop-color="#3579de"/>
            <stop offset="1" stop-color="#f0e2ff"/>
        </linearGradient>
        <linearGradient id="G" x1="8.534" y1="84.194" x2="-25.183" y2="30.47" href="#h">
            <stop stop-color="#06f"/>
            <stop offset="1" stop-color="#003d99"/>
        </linearGradient>
        <linearGradient id="H" x1="-7.118" y1="181.555" x2="-9.131" y2="185.974" href="#h">
            <stop stop-color="#c2aaf2"/>
            <stop offset="1" stop-color="#fff"/>
        </linearGradient>
        <radialGradient id="I" cx="0" cy="0" r="1"
                        gradientTransform="translate(-3.82311 174.33) rotate(-178.705) scale(13.0202 8.32528)"
                        href="#h">
            <stop stop-color="#9677d7"/>
            <stop offset="1" stop-color="#430bbb"/>
        </radialGradient>
        <linearGradient id="J" x1="8.365" y1="188.399" x2="6.893" y2="193.776" href="#h">
            <stop stop-color="#d6c8a1"/>
            <stop offset="1" stop-color="#fff"/>
        </linearGradient>
        <radialGradient id="K" cx="0" cy="0" r="1"
                        gradientTransform="translate(10.9743 179.66) rotate(173.039) scale(15.5336 9.53568)" href="#h">
            <stop stop-color="#ffb358"/>
            <stop offset="1" stop-color="#f7931a"/>
        </radialGradient>
        <linearGradient id="L" x1="30.284" y1="178.725" x2="28.545" y2="191.273" href="#h">
            <stop stop-color="#3579de"/>
            <stop offset="1" stop-color="#e2eeff"/>
        </linearGradient>
        <linearGradient id="M" x1="28.787" y1="172.541" x2="31.447" y2="156.315" href="#h">
            <stop stop-color="#06f"/>
            <stop offset="1" stop-color="#003d99"/>
        </linearGradient>
        <linearGradient id="N" x1="93.906" y1="175.819" x2="101.233" y2="180.256" href="#h">
            <stop offset=".21" stop-color="#f15a24"/>
            <stop offset=".684" stop-color="#fbb03b"/>
        </linearGradient>
        <linearGradient id="O" x1="92.477" y1="182.122" x2="85.15" y2="177.686" href="#h">
            <stop offset=".21" stop-color="#ed1e79"/>
            <stop offset=".893" stop-color="#522785"/>
        </linearGradient>
        <linearGradient id="P" x1="138.778" y1="19.164" x2="135.433" y2="32.004" href="#h">
            <stop stop-color="#a48de7"/>
            <stop offset="1" stop-color="#bdadec"/>
        </linearGradient>
        <linearGradient id="Q" x1="142.163" y1="24.001" x2="159.19" y2="19.765" href="#h">
            <stop stop-color="#957ae2"/>
            <stop offset="1" stop-color="#6452ae"/>
        </linearGradient>
        <linearGradient id="R" x1="127.059" y1="52.394" x2="128.072" y2="53.76" href="#h">
            <stop offset=".21" stop-color="#f15a24"/>
            <stop offset=".684" stop-color="#fbb03b"/>
        </linearGradient>
        <linearGradient id="S" x1="125.597" y1="53.983" x2="124.585" y2="52.618" href="#h">
            <stop offset=".21" stop-color="#ed1e79"/>
            <stop offset=".893" stop-color="#522785"/>
        </linearGradient>
        <linearGradient id="T" x1="343.968" y1="185.708" x2="344.829" y2="191.919" href="#h">
            <stop stop-color="#3579de"/>
            <stop offset="1" stop-color="#e2eeff"/>
        </linearGradient>
        <linearGradient id="U" x1="344.709" y1="182.647" x2="343.393" y2="174.615" href="#h">
            <stop stop-color="#06f"/>
            <stop offset="1" stop-color="#003d99"/>
        </linearGradient>
        <linearGradient id="V" x1="320.91" y1="180.028" x2="321.476" y2="185.953" href="#h">
            <stop stop-color="#c2aaf2"/>
            <stop offset="1" stop-color="#fff"/>
        </linearGradient>
        <radialGradient id="W" cx="0" cy="0" r="1"
                        gradientTransform="translate(319.98 170.337) rotate(17.739) scale(15.9617 10.2061)" href="#h">
            <stop stop-color="#9677d7"/>
            <stop offset="1" stop-color="#430bbb"/>
        </radialGradient>
        <linearGradient id="X" x1="334.921" y1="75.437" x2="303.179" y2="118.874" href="#h">
            <stop stop-color="#d6c8a1"/>
            <stop offset="1" stop-color="#f7e2ff"/>
        </linearGradient>
        <radialGradient id="Y" cx="0" cy="0" r="1"
                        gradientTransform="translate(356.851 58.5997) rotate(176.344) scale(66.9604 57.1052)" href="#h">
            <stop stop-color="#ffb358"/>
            <stop offset="1" stop-color="#f7931a"/>
        </radialGradient>
        <radialGradient id="Z" cx="0" cy="0" r="1"
                        gradientTransform="translate(285.906 105.753) rotate(-11.1114) scale(85.6497 85.3925)"
                        href="#h">
            <stop stop-color="#ffb358"/>
            <stop offset="1" stop-color="#f7931a"/>
        </radialGradient>
        <linearGradient id="a" x1="311.187" y1="206.409" x2="309.715" y2="207.567" href="#h">
            <stop offset=".21" stop-color="#f15a24"/>
            <stop offset=".684" stop-color="#fbb03b"/>
        </linearGradient>
        <linearGradient id="b" x1="311.665" y1="207.738" x2="313.136" y2="206.581" href="#h">
            <stop offset=".21" stop-color="#ed1e79"/>
            <stop offset=".893" stop-color="#522785"/>
        </linearGradient>
        <clipPath id="c">
            <path transform="translate(-68)" d="M0 0h496v248H0z" class="B"/>
        </clipPath>
        <clipPath id="d">
            <path d="M81.377 180.517c-2.788-5.979.26-11.478 6.808-12.282s14.117 3.391 16.905 9.371-.26 11.478-6.808 12.282-14.117-3.392-16.905-9.371z"
                  class="B"/>
        </clipPath>
        <clipPath id="e">
            <path d="M314.03 207.094c.446-1.371-.362-2.483-1.804-2.483s-2.972 1.112-3.418 2.483.362 2.484 1.804 2.484 2.973-1.112 3.418-2.484z"
                  class="B"/>
        </clipPath>
        <path id="f"
              d="M145.004 91.991c.379 0 .686-.429.686-.958s-.307-.958-.686-.958-.686.429-.686.958.309.958.686.958z"/>
        <path id="g"
              d="M226.596 131.405c.379 0 .686-.429.686-.958s-.307-.958-.686-.958-.687.429-.687.958.309.958.687.958z"/>
        <linearGradient id="h" gradientUnits="userSpaceOnUse"/>
    </defs>
</svg>