<svg width="40" height="40" viewBox="0 0 40 40" fill="none" xmlns="http://www.w3.org/2000/svg">
    <path d="M0 20C0 8.95431 8.95431 0 20 0C31.0457 0 40 8.95431 40 20C40 31.0457 31.0457 40 20 40C8.95431 40 0 31.0457 0 20Z" fill="#0066FF" fill-opacity="0.1"/>
    <g opacity="0.6">
        <path d="M22.5943 6.26271C22.9759 6.35132 23.2053 6.73694 23.105 7.11129L22.5403 9.2186C22.8438 9.29084 23.1489 9.36851 23.4558 9.45075C23.7941 9.5414 24.13 9.63547 24.4618 9.73345L25.0262 7.62709C25.1266 7.25306 25.5184 7.03535 25.8918 7.14728C26.7047 7.39386 27.5046 7.65082 28.2844 7.91879C28.6276 8.0365 28.8191 8.39836 28.726 8.74584L28.1037 11.0682C33.2088 13.3733 36.314 17.0643 34.7087 23.0553L34.3132 24.5315C32.7324 30.5274 28.1789 32.1563 22.6013 31.6036L21.9775 33.9316C21.8844 34.2791 21.5373 34.4981 21.1815 34.427C20.3722 34.2692 19.551 34.0918 18.7237 33.8989C18.3439 33.8105 18.1138 33.4248 18.214 33.0506L18.7787 30.9433C18.442 30.8636 18.104 30.7771 17.7653 30.6879C17.4588 30.6043 17.1558 30.519 16.8564 30.4312L16.2918 32.5385C16.1915 32.9129 15.8004 33.1307 15.4253 33.0181C14.6122 32.7715 13.8136 32.5164 13.0319 32.2494C12.6883 32.1331 12.4981 31.7701 12.5912 31.4226L13.212 29.1059C8.03818 26.796 4.85611 23.1004 6.49564 17.0779L6.8912 15.6016C8.48558 9.55467 13.0877 7.95058 18.7223 8.54131L19.3428 6.22554C19.4359 5.87812 19.7817 5.66023 20.1378 5.72985C20.9482 5.88947 21.7673 6.06836 22.5943 6.26271ZM22.4973 13.0469C16.9783 11.6498 12.0545 11.4084 10.6538 16.9424L10.4312 17.7735C8.87084 23.2903 13.2553 25.5442 18.7338 27.0924C24.2267 28.484 29.1509 28.7243 30.5581 23.1665L30.7807 22.3354C32.3348 16.8425 27.9498 14.5896 22.4973 13.0469Z" fill="#A1C4FF"/>
    </g>
</svg>
