<svg xmlns="http://www.w3.org/2000/svg" width="109" height="23" fill="none">
  <g fill="#000" clip-path="url(#a)">
    <path d="m78.69.57 6.411 7.863L91.528.571h10.146L89.375 15.007v7.487h-8.547v-7.487L68.528.571h10.163Z"/>
    <path d="M50.976 7.765c0 .962 2.659 1.092 6.1 1.256 6.118.31 14.714.734 14.698 6.23 0 6.265-7.177 7.749-14.877 7.749-7.683-.016-14.06-.946-14.876-7.748h8.955c.979 1.696 3.246 2.137 5.921 2.137 2.659 0 5.921-.44 5.921-2.137 0-.963-2.658-1.11-6.1-1.273-6.117-.31-14.714-.734-14.697-6.214C42.02 1.5 49.198 0 56.897 0c7.683.049 14.061.913 14.877 7.765h-8.956c-.978-1.73-3.246-2.137-5.92-2.137-2.66 0-5.922.391-5.922 2.137ZM31.826.538h8.547v21.924h-8.547V.538ZM14.975 0c8.254 0 14.958 2.414 14.958 10.7v1.6c.032 8.286-6.72 10.684-14.958 10.7C6.72 22.984-.033 20.586 0 12.3v-1.6C-.033 2.399 6.72.017 14.975 0Zm6.41 11.761v-.538c.05-3.573-2.92-4.225-6.41-4.274-3.508.049-6.476.701-6.427 4.274v.538c-.05 3.589 2.92 4.241 6.427 4.29 3.49-.049 6.46-.701 6.41-4.29Zm79.607-6.834c.059 0 .063-.282.032-2.176l-.032-2.176h.593l.005.929c.004.516.013.965.018 1 .004.036.013.593.018 1.234l.004 1.171.283.13c.332.158.849.656 1.056 1.019.256.449.346.839.341 1.472-.009.592-.063 1.005-.171 1.216l-.062.13.139-.077c.211-.103.723-.655.997-1.067 1.038-1.557 1.033-3.146-.009-4.82-.243-.385-.26-.556-.081-.713.121-.103.27-.13.315-.053.013.022.049.044.072.044.026 0 .031-.022.013-.053-.018-.032-.013-.036.022-.018.027.018.041.049.027.071-.013.018.072.144.185.279.637.74 1.096 1.942 1.096 2.88 0 1.1-.31 2.02-.975 2.876-.422.543-.908.987-1.366 1.243-.426.242-.382.274.202.126.194-.05.387-.09.427-.09.162 0 .818-.238 1.289-.471 1.393-.678 2.143-1.629 2.345-2.97.09-.584.144-.71.342-.777.148-.054.301.018.39.189.113.21-.08 1.364-.323 1.902a4.793 4.793 0 0 1-.355.624c-.126.184-.131.231-.252.364-.088.097-.107.116-.228.246-.49.525-1.375 1.068-2.215 1.355-.4.14-.948.265-1.5.346l-.396.062.373.103c1.339.373 1.896.615 2.574 1.118.422.318.89.803 1.159 1.202.373.548.683 1.458.737 2.18l.031.4-.139.14c-.117.111-.171.134-.301.12a.43.43 0 0 1-.216-.076c-.04-.045-.04-.05.005-.027.063.036.072-.027.013-.085-.022-.027-.103-.287-.179-.583-.167-.682-.247-.911-.436-1.302-.481-.973-1.357-1.7-2.556-2.113a9.91 9.91 0 0 0-.831-.26 5.673 5.673 0 0 1-.337-.099c-.049-.018.063.085.247.238.436.345.665.597.97 1.063.333.512.494.87.625 1.396.233.91.108 2.01-.319 2.853-.274.543-.643.983-.822.983-.122 0-.306-.162-.337-.296-.027-.094.022-.202.22-.534.831-1.373.791-2.952-.117-4.164-.108-.143-.216-.251-.247-.238-.036.014-.049 0-.036-.036.023-.053-.454-.515-.525-.52-.014 0-.041.103-.054.229a1.547 1.547 0 0 1-.144.435l-.112.202.107.117c.373.399.396 1.148.045 1.498-.121.121-.233.117-.355-.013-.062-.067-.062-.117-.018-.395.041-.251.041-.364-.004-.52-.085-.306-.135-.328-.463-.216-.341.121-.458.121-.759.01a2.07 2.07 0 0 0-.274-.09c-.094 0-.175.35-.171.73.009.431-.054.615-.215.615-.122 0-.31-.242-.342-.44-.013-.09-.036-.201-.044-.25-.023-.122.062-.562.143-.719a1.03 1.03 0 0 1 .184-.237c.108-.099.113-.117.059-.252a5.484 5.484 0 0 1-.144-.426c-.049-.152-.108-.278-.135-.278-.081 0-.817.74-1.046 1.054-.315.431-.41.62-.526 1.032-.189.7-.058 1.535.39 2.495.266.565.288.691.154.84-.14.147-.288.165-.44.057-.072-.049-.144-.08-.158-.067-.013.014-.018-.004-.018-.036.005-.031-.08-.229-.188-.44-.414-.803-.589-1.453-.589-2.19 0-.721.216-1.265.633-1.946.125-.204.2-.317.355-.498.1-.117.14-.148.274-.283a5.45 5.45 0 0 1 .535-.476c.162-.125.251-.215.202-.197-.05.013-.279.067-.508.117-1.253.273-2.2.798-2.803 1.556-.444.552-.651 1.019-.871 1.939-.09.39-.234.588-.422.588-.135 0-.297-.157-.342-.337-.013-.054.018-.314.068-.579A4.693 4.693 0 0 1 96 12.151c.203-.215.264-.28.448-.407.038-.026.029-.024.056-.06.107-.13.71-.506 1.028-.646.18-.08.638-.224 1.011-.323.377-.094.764-.202.862-.229l.18-.053-.18-.04c-1.63-.364-2.52-.772-3.467-1.594-.818-.708-1.456-2.019-1.465-2.997 0-.57-.009-.547.247-.543.32.014.378.09.503.7.113.534.189.768.423 1.248.49 1.01 1.648 1.862 3.117 2.292.822.243.925.26.642.113-.817-.427-1.904-1.58-2.3-2.441-.44-.965-.547-1.925-.31-2.809.162-.606.814-1.835 1.137-2.15.144-.138.189-.156.346-.143.135.014.18.036.189.103.009.045.027.14.045.207.022.094-.023.206-.194.516-.422.75-.61 1.225-.736 1.83-.122.593-.1.988.094 1.553.189.547.305.78.665 1.297.278.399 1.029 1.211 1.123 1.211.022 0 0-.085-.054-.193-.085-.17-.094-.265-.094-.929 0-.69.009-.762.12-1.068.252-.673.742-1.296 1.214-1.534.153-.072.305-.135.341-.135Z"/>
  </g>
  <defs>
    <clipPath id="a">
      <path fill="#fff" d="M0 0h108.54v23H0z"/>
    </clipPath>
  </defs>
</svg>
