<!-- source: DFINITY foundation -->
<svg width="96" height="23" viewBox="0 0 96 23" fill="currentColor" xmlns="http://www.w3.org/2000/svg">
    <path d="M66.4733 3.88324L71.8207 10.4417L77.1818 3.88324H85.6452L75.3857 15.9252V22.1707H68.2558V15.9252L57.9963 3.88324H66.4733Z"/>
    <path d="M43.3548 9.88393C43.3548 10.6867 45.5727 10.7956 48.4437 10.9316C53.5462 11.1902 60.717 11.544 60.7034 16.1294C60.7034 21.3544 54.7164 22.5927 48.294 22.5927C41.8852 22.579 36.565 21.8035 35.8847 16.1294H43.3548C44.1712 17.5445 46.0625 17.9119 48.294 17.9119C50.5119 17.9119 53.2333 17.5445 53.2333 16.1294C53.2333 15.3266 51.0154 15.2042 48.1444 15.0681C43.0418 14.8096 35.8711 14.4558 35.8847 9.88393C35.8847 4.65893 41.8716 3.4071 48.294 3.4071C54.7028 3.44792 60.0231 4.16908 60.7034 9.88393H53.2333C52.4169 8.44161 50.5255 8.10144 48.294 8.10144C46.0761 8.10144 43.3548 8.428 43.3548 9.88393Z"/>
    <path d="M27.3806 3.85614H34.5106V22.1436H27.3806V3.85614Z"/>
    <path d="M13.3241 3.4071C20.2091 3.4071 25.8015 5.42091 25.8015 12.3331V13.6666C25.8287 20.5788 20.1955 22.579 13.3241 22.5927C6.4391 22.579 0.805892 20.5788 0.833106 13.6666V12.3331C0.805892 5.4073 6.4391 3.42071 13.3241 3.4071ZM18.6716 13.2176V12.7686C18.7124 9.78868 16.236 9.24441 13.3241 9.20359C10.3987 9.24441 7.92223 9.78868 7.96305 12.7686V13.2176C7.92223 16.2111 10.3987 16.7553 13.3241 16.7962C16.236 16.7553 18.7124 16.2111 18.6716 13.2176Z"/>
    <path fill-rule="evenodd" clip-rule="evenodd"
          d="M91.9012 0.544698C90.0574 0.544698 88.5626 2.03942 88.5626 3.88325C88.5626 5.72708 90.0574 7.2218 91.9012 7.2218C93.745 7.2218 95.2397 5.72708 95.2397 3.88325C95.2397 2.03942 93.745 0.544698 91.9012 0.544698ZM88.3324 3.88325C88.3324 1.91226 89.9302 0.314453 91.9012 0.314453C93.8722 0.314453 95.47 1.91226 95.47 3.88325C95.47 5.85424 93.8722 7.45205 91.9012 7.45205C89.9302 7.45205 88.3324 5.85424 88.3324 3.88325Z"
    />
    <path d="M93.0993 2.73204C92.8376 2.73204 92.5519 2.87129 92.2494 3.14739C92.1053 3.27704 91.9805 3.41629 91.8892 3.52914C91.8892 3.52914 92.0357 3.6948 92.1965 3.87246C92.283 3.76442 92.4102 3.61797 92.5543 3.48592C92.8232 3.24103 92.9984 3.19061 93.0993 3.19061C93.4762 3.19061 93.7835 3.50032 93.7835 3.88447C93.7835 4.26381 93.4786 4.57352 93.0993 4.57832C93.0825 4.57832 93.0585 4.57592 93.0345 4.57112C93.1449 4.62154 93.2625 4.65755 93.3754 4.65755C94.0668 4.65755 94.2013 4.18938 94.2109 4.15577C94.2301 4.06933 94.2421 3.9805 94.2421 3.88687C94.2373 3.24823 93.7283 2.73204 93.0993 2.73204Z"
    />
    <path d="M90.684 5.03449C90.9457 5.03449 91.2314 4.89524 91.5339 4.61914C91.678 4.48949 91.8028 4.35024 91.894 4.2374C91.894 4.2374 91.7476 4.07174 91.5867 3.89407C91.5003 4.00211 91.373 4.14857 91.229 4.28061C90.9601 4.5255 90.7848 4.57592 90.684 4.57592C90.307 4.57592 89.9997 4.26621 89.9997 3.88207C89.9997 3.50273 90.3046 3.19301 90.684 3.18821C90.7008 3.18821 90.7248 3.19061 90.7488 3.19541C90.6384 3.14499 90.5207 3.10898 90.4079 3.10898C89.7164 3.10898 89.582 3.57715 89.5724 3.61077C89.5532 3.6972 89.5412 3.78603 89.5412 3.87967C89.5436 4.5159 90.055 5.03449 90.684 5.03449Z"
    />
    <path fill-rule="evenodd" clip-rule="evenodd"
          d="M90.4103 3.121C90.7656 3.1306 91.1354 3.42351 91.2098 3.49554C91.3868 3.66598 91.5538 3.8563 91.5842 3.89095C91.5872 3.89437 91.5889 3.89627 91.5891 3.89649C91.75 4.07415 91.8964 4.23981 91.8964 4.23981L91.8988 4.23741C92.2278 4.61435 92.6671 5.03451 93.1041 5.03451C93.6395 5.03211 94.0908 4.65517 94.2109 4.14858C94.1989 4.18459 94.0212 4.65757 93.373 4.64076C93.0201 4.63116 92.6503 4.34065 92.5759 4.26862C92.3814 4.08135 92.1989 3.87008 92.1989 3.87008C92.0381 3.69241 91.8916 3.52675 91.8916 3.52675C91.8892 3.52675 91.8892 3.52914 91.8892 3.52914C91.5627 3.1498 91.1234 2.73206 90.6864 2.73206C90.151 2.73446 89.6996 3.109 89.5796 3.61318C89.594 3.55316 89.7789 3.1066 90.4103 3.121ZM89.5772 3.61558V3.61078C89.5796 3.61318 89.5796 3.61558 89.5772 3.61558Z"
    />
</svg>
