<svg xmlns="http://www.w3.org/2000/svg" width="40" height="40" fill="none"><path fill="#06F" fill-opacity=".1" d="M0 20C0 8.954 8.954 0 20 0s20 8.954 20 20-8.954 20-20 20S0 31.046 0 20Z"/><path fill="#A1C4FF" d="M21.72 6.57a.689.689 0 0 1 .51.848l-.564 2.107a41.428 41.428 0 0 1 1.921.515l.565-2.106a.69.69 0 0 1 .865-.48c.813.247 1.613.504 2.393.772.343.117.535.48.442.827l-.623 2.322c5.105 2.305 8.21 5.996 6.605 11.987l-.395 1.476c-1.581 5.996-6.135 7.625-11.712 7.072l-.624 2.329a.686.686 0 0 1-.796.495 68.99 68.99 0 0 1-2.458-.528.69.69 0 0 1-.51-.849l.565-2.107c-.337-.08-.674-.166-1.013-.255-.307-.084-.61-.17-.91-.257l-.564 2.107a.69.69 0 0 1-.866.48 72.646 72.646 0 0 1-2.394-.769.685.685 0 0 1-.44-.826l.62-2.317c-5.173-2.31-8.355-6.006-6.716-12.028l.396-1.477c1.594-6.046 6.196-7.65 11.83-7.06l.621-2.316a.686.686 0 0 1 .795-.495c.81.16 1.63.338 2.457.533Zm-.097 6.784c-5.52-1.397-10.443-1.639-11.844 3.895l-.222.831c-1.56 5.517 2.824 7.771 8.302 9.32 5.493 1.39 10.417 1.631 11.825-3.927l.222-.83c1.554-5.494-2.83-7.747-8.283-9.29Z" opacity=".6"/></svg>