<svg xmlns="http://www.w3.org/2000/svg" width="1600" height="800" fill="none">
    <style>
        .B{fill:#fff}.C{fill-rule:evenodd}.D{color-interpolation-filters:sRGB}.E{flood-opacity:0}.F{fill:#430bbb}.G{fill:#290081}.H{fill:#29abe2}.I{fill:#f7931a}.J{fill:#1a64b5}.K{fill:#2775ca}.L{fill:#f9f9f9}.M{fill-opacity:.3}.N{fill:#043484}.O{stroke:#dbd9d6}
    </style>
    <g clip-path="url(#i)">
        <path fill="url(#I)" d="M0 0h1600v800H0z"/>
        <path d="M564.033 508.485c-136.009-.401-282.893-.534-290.033.565 0 0 73.066-30.869 122.208-30.067 13.815.226 24.293 2.753 34.867 5.303 9.965 2.404 20.015 4.828 33.026 5.366 24.992 1.033 44.175-5.457 63.213-11.897 19.924-6.74 39.688-13.426 65.785-11.38 23.449 1.837 51.524 11.086 74.944 20.506 13.777.404 24.422 2.972 35.16 5.562 10.522 2.538 21.134 5.098 34.872 5.665 26.388 1.091 46.643-5.761 66.744-12.561 21.036-7.116 41.905-14.176 69.46-12.016 53.589 4.199 130.061 45.059 130.061 45.059-151.225-.683-456.336-1.639-466.987 0 0 0 10.643-4.496 26.68-10.105"
              class="L M"/>
        <path d="M1045 107.763c-8.76-.687-13.87-4.543-17.05-3.41-2.43.868-7.37 3.786-13.21 4.941a12 12 0 0 0-3.07-1.2c-2.54-.54-5.35-.498-6.2.659a.96.96 0 0 0-.15.398c-6.13-1.623-10.364-5.859-11.917-5.405-1.856.543-4.581 3.172-9.914 6.495-5.458 3.4-12.165 3.555-12.922 4.442s5.836 1.848 12.47.243 9.409-4.063 10.904-4.399c1.28-.288 8.109 3.582 15.089 4.506q.63.524 1.35.942c2.22 1.273 8.12 2.421 9.4 2.548 1.38.133 2.14.113 2.48.58.57.767 1.06 1.402 1.51 1.446.41.039.62-.684.48-1.193-.13-.508.79-.911.53-1.373-.26-.455-1.52-.642-2.09-1.068-.33-.256-1.66-1.629-2.93-2.993 4.7-1.464 8.22-3.734 9.31-4.562 1.58-1.201 7.54 2.084 15.9 2.735s14.62-4.688 13.99-5.098-5.21 1.449-13.96.766"
              class="B" opacity=".3"/>
        <path stroke="#fff" stroke-width="2.097" d="m473.339 368.545 61.793 99.137"/>
        <path d="M-184.998 604.475h599.379s-99.02-15.399-165.618-14.999c-36.368.219-55.668 4.77-92.01 5.322-69.314 1.055-105.657-13.606-174.819-11.611-68.782 1.984-166.932 21.288-166.932 21.288"
              class="L M"/>
        <g class="C">
            <path fill="#000949"
                  d="m519.081 474.145-98.439 95.492-128.443 48.345-1.833-2.877 91.175-106.907 135.707-36.93z"/>
            <path d="M274.977 180.465c-14.386-21.466-52.355-77.943-95.673-130.167 15.569-4.193 29.226-5.044 38.82-1.249v-.005c18.417-16.379 37.502-25.375 55.675-28.26 36.931 34.424 67.855 66.372 73.548 73.809-5.03 34.007-31.803 62.041-71.559 85.169zM37.11 163.806c1.873-10.834 8.742-22.769 18.855-34.749 28.602 61.2 63.048 119.465 76.159 141.972-36.706 26.869-74.609 36.899-107.659 28.872-4.188-8.463-19.77-49.428-35.251-96.907 10.545-16.404 26.62-30.118 47.896-39.188M-24.215 17.663zc1.09 16.114 1.088 16.109-.001 0m136.051-86.039q16.464 9.15-.002 0z"
                  class="N"/>
            <path fill="url(#J)"
                  d="M55.966 129.056c28.426-33.682 82.48-67.746 123.34-78.76 43.322 52.23 81.288 108.703 95.674 130.169-15.769 36.964-115.114 97.356-142.854 90.563-13.112-22.51-47.566-80.787-76.16-141.972m-66.391 75.038c15.176 46.438 30.365 86.43 34.737 95.487-21.824.207-38.06-5.292-46.058-17.043-4.681-7.359-5.82-16.569-3.816-27.127-.267-18.635 4.675-36.534 14.544-52.05l.234-.368zM327.843 31.362c10.428 2.677 18.297 7.622 22.979 14.976l.312.509.273.452.259.456.251.456.241.465.269.54.219.465.216.474.202.465.172.417.184.478.18.474.053.154q.165.454.317.922l.154.496.044.154c.114.373.215.75.316 1.128l.123.505.04.158.18.829.11.535.066.364c1.886 10.479-.884 23.208-7.654 37.355-5.693-7.433-36.617-39.382-73.549-73.805 19.762-3.142 38.453.935 54.043 10.579z"/>
            <path fill="url(#K)"
                  d="M236.667-67.927c43.39 18.549 82.203 50.318 109.802 93.688 6.12 9.615 8.801 20.24 8.547 31.536-.71-3.992-2.096-7.664-4.195-10.961-4.681-7.354-12.55-12.296-22.976-14.978a54.5 54.5 0 0 0-4.211-7.994c-22.393-35.188-52.978-68.156-86.967-91.291m-313.642 204.31c7.589 38.743 24.537 78.177 45.951 111.825a54.4 54.4 0 0 0 5.463 7.204c-2.003 10.558-.865 19.768 3.816 27.124 2.098 3.297 4.837 6.109 8.156 8.448-10.351-4.572-18.846-11.51-24.967-21.126-26.515-41.665-38.923-88.129-38.419-133.475m114.088 27.422C-53.905 19.433-30.144-32.15 19.432-63.579S125.888-94.551 218.127 49.044C174.399 31.749 46.253 110.942 37.113 163.805"/>
            <path d="M-19.807-18.737c-12.64 35.416-1.514 89.858 56.92 182.539-41.515 17.7-63.225 53.076-62.674 91.61a54.5 54.5 0 0 1-5.463-7.203c-56.012-88.016-81.476-215.6 11.218-266.946zM76.779-79.97c83.588-58.779 190.843 15.315 246.855 103.333a54.4 54.4 0 0 1 4.21 8C297.919 12.85 256.567 14.85 218.126 49.047 158.909-43.142 114.266-76.334 76.779-79.97"
                  class="B"/>
        </g>
        <g opacity=".5">
            <g class="C">
                <path d="M22.168 466.712c.505-5.072 1.854-18.427 4.471-31.551-2.973.74-5.331 1.877-6.601 3.436-4.527-1.105-8.515-.866-11.809.343-3.127 9.438-5.469 17.881-5.761 19.706 3.852 5.416 10.808 7.755 19.502 8.021l.197.045zm38.292-25.265c-1.273-1.698-3.478-3.12-6.229-4.244.636 13.291.035 26.625-.163 31.758 8.514 1.203 15.738-.625 20.553-5.125-.049-1.861-1.071-10.424-2.686-20.104-3.215-1.852-7.116-2.715-11.475-2.285m-2.686-31.085q1.865 4.341 0 0m-30.362-2.105q-1.941 3.132 0 0"
                      class="F"/>
                <path fill="url(#L)"
                      d="M54.231 437.2c-7.734-3.16-19.786-3.975-27.592-2.039-2.619 13.123-3.966 26.478-4.47 31.549 5.909 4.921 27.861 6.036 31.899 2.25.198-5.134.799-18.469.163-31.76m17.742 6.754c1.573 9.471 2.574 17.828 2.646 19.809 3.666-2.017 5.894-4.496 6.19-7.286.131-1.714-.494-3.418-1.763-5.057-1.605-3.255-4.016-5.891-7.039-7.648l-.071-.043zM.131 445.855c-1.505 1.444-2.383 3.041-2.515 4.756l-.009.117-.003.104-.005.104v.206l.004.118.005.102.005.102.008.1.009.089.01.1.013.1.003.029.029.19.018.1.008.033.047.222.023.101.008.03.042.161.031.104.02.068c.613 1.995 2.203 3.938 4.586 5.752.294-1.824 2.636-10.266 5.761-19.706a15.17 15.17 0 0 0-8.098 6.918"/>
                <path fill="url(#M)"
                      d="M6.584 420.078c-5.612 7.295-9.286 16.45-10.061 26.559-.172 2.244.32 4.336 1.362 6.268a6.1 6.1 0 0 1-.267-2.292c.132-1.717 1.009-3.312 2.513-4.756a11 11 0 0 1-.004-1.784c.628-8.2 2.824-16.788 6.457-23.995m70.52 5.886c2.161 7.426 2.818 15.852 2.217 23.693a11 11 0 0 1-.276 1.765c1.27 1.64 1.895 3.341 1.763 5.057a6.2 6.2 0 0 1-.615 2.231c1.326-1.766 2.132-3.766 2.303-6.01.744-9.711-1.295-18.929-5.393-26.736zm-16.645 15.482c2.436-33.572-6.103-40.272-17.174-41.052s-20.537 4.649-23.246 38.202c5.78-7.108 34.213-5.446 40.421 2.85z"/>
                <g class="B">
                    <path d="M53.816 404.469c5.246 4.946 8.207 15.425 6.643 36.976 8.507-.84 15.268 3.246 18.587 9.975a11 11 0 0 0 .276-1.762c1.572-20.519-5.465-45.015-25.506-45.189m-21.568-1.521C13.07 400.629 1.698 423.555.126 444.073a11.4 11.4 0 0 0 .004 1.782c3.366-6.022 10.455-9.567 19.909-7.26 1.739-21.539 6.262-31.491 12.208-35.647z"/>
                    <path d="m38.43 500.788 15.269-32.079c.091-.195.315-.277.501-.182s.259.328.168.52l-17.362 36.481 41.589-54.536a.365.365 0 0 1 .525-.066.4.4 0 0 1 .06.546l-37.968 49.787 33.135-37.697a.364.364 0 0 1 .527-.029.4.4 0 0 1 .021.551l-39.649 45.107v.003h-.002v.002l-.003.003-.003.002-.003.003-.003.002v.003l-.005.005-.003.002-.005.005-.008.007-.008.008-.005.005-.003.002-.005.005-.003.002-.003.003h-.002l-.003.002-.003.003-.003-.001v.003h-.002l-.003.002-.003.003-.003.002h-.003l-.003.003-.003.002h-.003v.002l-.005.003h-.002l-.003.002-.003.002h-.003l-.003.003h-.002l-.003.002-.003.002h-.002l-.003.003h-.003l-.003.002h-.002l-.003.002-.005.003-.002-.001a1 1 0 0 1-.068.022h-.005l-.003.002h-.007l-.003-.001-.01.002-.018.002-.005.002h-.005l-.003-.001h-.012l-.002-.001h-.003l-.003.003-.003-.001h-.012l-.002-.001h-.013l-.003-.001-.002-.002-.002-.001h-.01l-.002-.001h-.049l-.008-.001a.4.4 0 0 1-.161-.056h-.002l-.002-.003h-.003v-.003l-.005-.003a.4.4 0 0 1-.071-.063l-.007-.008q-.022-.029-.038-.061l-.441-.801-31.884-49.472c-.116-.177-.069-.419.102-.539s.404-.078.52.1l26.044 40.408L-.17 445.876a.4.4 0 0 1 .14-.532.36.36 0 0 1 .509.139l33.165 60.394-11.888-39.056c-.061-.203.048-.422.246-.49s.408.044.468.247l10.37 34.067-13.158-62.509c-.045-.209.085-.42.287-.466s.4.081.444.29l14.656 69.638 25.116-66.833c.074-.201.292-.302.484-.225s.286.3.213.501z"/>
                </g>
                <path d="m7.359 540.552 24.909 7.281 25.753-3.709.052-.672-24.707-9.942-25.955 6.369z" class="G"/>
                <path fill="#9677d7"
                      d="m35.961 499.633 1.599-.424 24.342 9.797-.648 8.45-1.188-.04-1.995 26.039-24.706-9.943z"/>
                <path d="m35.961 499.642.001-.011L10.007 506l-.001.011-1.298.318-.643 8.391 1.291-.218-1.945 25.377 25.955-6.369 2.591-24.737.957-1.132.643-8.391z"
                      class="F"/>
            </g>
            <g filter="url(#A)">
                <g clip-path="url(#j)">
                    <g filter="url(#B)">
                        <circle cx="9.006" cy="9.006" r="9.006" class="B"
                                transform="matrix(-.73826 -.28604 -.5092 1.01168 31.713 516.94)"/>
                        <circle cx="9.006" cy="9.006" r="8.826" stroke-width=".36" class="O"
                                transform="matrix(-.73826 -.28604 -.5092 1.01168 31.713 516.94)"/>
                    </g>
                    <path fill="url(#N)"
                          d="M23.87 520.941c-.674-.129-1.445.126-2.294.759a9 9 0 0 0-1.026.907l.002.001.701 1.13a9 9 0 0 1 1.019-.921c.756-.563 1.219-.623 1.476-.574.968.187 1.672 1.222 1.57 2.307-.101 1.078-.973 1.809-1.94 1.631a1 1 0 0 1-.169-.058c.269.194.563.354.852.41 1.774.341 2.246-.923 2.278-1.015a3.5 3.5 0 0 0 .151-.745c.169-1.8-1.007-3.521-2.619-3.832z"/>
                    <path fill="url(#O)"
                          d="M17.06 526.292c.674.13 1.445-.126 2.294-.758a9 9 0 0 0 1.026-.908h-.002l-.701-1.13a9 9 0 0 1-1.019.921c-.756.563-1.219.623-1.476.573-.968-.189-1.672-1.223-1.57-2.309.101-1.078.973-1.809 1.94-1.63a.8.8 0 0 1 .169.057c-.269-.194-.563-.354-.852-.409-1.774-.342-2.244.922-2.278 1.012a3.5 3.5 0 0 0-.151.745c-.169 1.805 1.006 3.526 2.619 3.836z"/>
                    <path d="M24.06 526.504c-.905-.201-1.771-1.206-1.944-1.448-.448-.625-1.462-2.278-1.541-2.408-.739-1.248-1.765-2.68-2.898-2.899h-.004c-1.377-.258-2.634.592-3.078 1.965.032-.09.613-1.36 2.273-.991.905.201 1.774 1.219 1.95 1.461.448.625 1.462 2.278 1.541 2.409.739 1.245 1.765 2.677 2.899 2.896h.004c1.377.258 2.636-.592 3.078-1.965-.034.09-.616 1.347-2.279.98z"
                          class="H"/>
                </g>
            </g>
            <path d="m36.913 507.663-28.847 7.051 1.21.818 26.661-6.472 24.087 8.952 1.233-.566-24.343-9.783z"
                  class="C G"/>
        </g>
        <g class="C">
            <path fill="#b66429"
                  d="M79.641 499.759c-.302-5.827-1.076-21.174-.312-36.475-3.379 1.344-5.961 3.032-7.184 5.012-5.541-.48-10.205.469-13.88 2.399-2.019 11.216-3.288 21.171-3.309 23.287 5.508 5.475 14.134 6.939 24.444 5.76zm40.729-35.116c-1.803-1.705-4.659-2.94-8.106-3.744 3.106 14.937 4.759 30.133 5.435 35.977 10.265-.088 18.469-3.387 23.356-9.3-.388-2.098-3.112-11.617-6.733-22.299-4.124-1.55-8.883-1.863-13.952-.634m-8.679-34.73q2.97 4.597 0 0m-36.217 2.785q-1.737 3.876 0 0"/>
            <path fill="url(#P)"
                  d="M112.265 460.893c-9.69-2.261-24.062-1.132-32.935 2.388-.766 15.301.01 30.647.314 36.474 7.848 4.565 33.961 2.09 38.057-2.883-.676-5.844-2.33-21.042-5.436-35.979m22.142 4.626c3.536 10.453 6.198 19.743 6.634 21.972 3.971-2.906 6.161-6.092 6.017-9.3-.149-1.963-1.188-3.785-2.978-5.424-2.472-3.412-5.785-5.985-9.665-7.46l-.091-.036zm-84.475 14.38c-1.522 1.89-2.275 3.848-2.126 5.811l.01.134.015.118.012.119.018.115.018.118.025.133.024.115.024.115.027.111.026.099.03.111.033.111.009.033.068.21.039.11.015.036.095.244.045.11.015.033.078.175.054.112.036.074c1.077 2.153 3.298 4.082 6.434 5.73.024-2.114 1.293-12.07 3.31-23.287-3.995 2.099-6.82 5.358-8.334 9.21"/>
            <path fill="url(#Q)"
                  d="M52.98 449.623c-5.332 9.213-8.048 20.202-7.171 31.777.195 2.569 1.147 4.854 2.718 6.864a6.8 6.8 0 0 1-.721-2.55c-.149-1.966.604-3.921 2.124-5.811a12.6 12.6 0 0 1-.321-2.019c-.711-9.389.359-19.484 3.371-28.261m84.295-5.339c3.868 8.038 6.137 17.464 6.817 26.443q.078 1.042-.013 2.044c1.789 1.64 2.828 3.459 2.977 5.425a6.8 6.8 0 0 1-.331 2.629c1.252-2.224 1.849-4.626 1.655-7.195-.843-11.119-4.883-21.206-11.105-29.346m-16.907 20.358c-3.073-38.417-14.34-44.547-27.549-43.547s-23.421 8.758-20.674 47.2c5.564-9.029 39.425-11.987 48.223-3.653"/>
            <g class="B">
                <path d="M105.974 423.915c7.07 4.705 12.422 16.063 14.395 40.725 9.894-2.399 18.6 1.075 23.71 8.128q.092-1 .013-2.042c-1.779-23.494-14.428-50.025-38.118-46.811m-25.731 1.949c-23.051.639-32.413 28.526-30.633 52.019a12.6 12.6 0 0 0 .32 2.017c2.907-7.39 10.647-12.61 22.217-11.607-1.764-24.677 1.813-36.712 8.096-42.429"/>
                <path d="m104.88 535.564 12.341-38.911a.44.44 0 0 1 .559-.291.446.446 0 0 1 .291.559l-14.032 44.25 39.434-68.811a.446.446 0 0 1 .775.444l-36 62.82 32.437-48.312a.445.445 0 1 1 .74.498l-38.814 57.808v.003h-.003v.003l-.002.003-.003.004-.003.003-.003.003v.003l-.005.007-.003.003-.005.006-.009.01-.008.01-.006.006-.003.004-.005.006-.003.003-.003.004h-.003l-.002.003-.003.003h-.003v.003l-.003.001-.003.003-.003.003-.002.003-.003.001-.003.003-.003.003h-.003v.003l-.006.004h-.003l-.002.003-.003.004h-.003l-.003.003h-.003l-.003.003-.002.004h-.003l-.003.003h-.003l-.003.004h-.003l-.003.003-.006.004h-.003a1 1 0 0 1-.076.036h-.006l-.002.003-.003.001h-.009l-.012.004-.021.005-.006.003-.006.001h-.006l-.003.001h-.012l-.003.001-.003.003h-.006l-.003.001h-.009l-.003.001h-.012l-.003.001h-.003l-.003-.003h-.003l-.003.001h-.012l-.003.001h-.006l-.039.006-.009.001-.009.001a.5.5 0 0 1-.2-.037h-.003l-.003-.002h-.003v-.003l-.006-.003a.5.5 0 0 1-.096-.059l-.01-.008-.056-.063-.662-.831-46.407-50.573c-.168-.182-.156-.464.025-.629s.464-.156.632.025l37.906 41.309-43.701-54.981a.446.446 0 0 1 .697-.556l49.855 62.72-20.955-42.188a.446.446 0 0 1 .799-.396l18.279 36.798-26.61-68.519a.446.446 0 0 1 .832-.323l29.642 76.333 17.808-79.928c.052-.24.292-.391.532-.337s.391.291.34.531z"/>
            </g>
            <path fill="#432806" d="m75.243 585.863 30.696 4.003 29.746-8.582-.059-.769-30.929-7.049-29.512 11.627z"/>
            <path d="m101.759 534.674 1.812-.752 30.473 6.947.733 9.676-1.41.156 2.259 29.814-30.929-7.05z" class="I"/>
            <path fill="#ffb154"
                  d="m101.761 534.688-.001-.013-29.512 11.627.001.013-1.476.58.728 9.608 1.485-.467 2.201 29.058 29.513-11.627-1.324-28.443.929-1.444-.728-9.608-1.815.716z"/>
            <path fill="#432806" d="m104.304 543.604-32.805 12.891 1.573.72 30.327-11.864 30.022 6.033 1.355-.85z"/>
        </g>
        <g class="I" filter="url(#C)">
            <path d="M85.565 553.948c-5.316 3.631-8.842 11.353-7.873 17.246s6.064 7.726 11.38 4.096 8.842-11.353 7.873-17.246-6.064-7.727-11.38-4.096"/>
        </g>
        <path d="M91.91 560.441c.091-1.735-1.203-2.037-2.907-1.834l.329-2.451-1.341.29-.317 2.393-1.074.25.333-2.401-1.341.289-.329 2.451-.86.2-1.855.395-.222 1.606.977-.204c.546-.12.677.197.687.486l-.909 6.729c-.049.196-.188.52-.569.597.018.009-.977.204-.977.204l-.504 1.843 1.738-.374.961-.196-.342 2.492 1.341-.29.329-2.451 1.078-.217-.329 2.451 1.341-.289.343-2.475c2.272-.627 3.939-1.589 4.457-3.991.41-1.938-.278-2.613-1.501-2.69.8-.655 1.393-1.539 1.46-2.813zm-2.591 5.713c-.249 1.861-3.067 2.246-3.976 2.452l.453-3.287c.893-.198 3.782-1.099 3.523.835m.002-4.505c-.23 1.697-2.583 1.999-3.344 2.17l.397-2.984c.761-.17 3.171-.949 2.947.814"
              class="B"/>
        <path stroke="#689dec" stroke-width="1.832"
              d="M110.457 421.502c2.82-19.38 12.467-35.791 31.484-39.922-3.41 4.52-5.61 10.842-6.038 19.826.931-19.552 10.259-26.499 22.172-29.69m84.243 57.805.026.248c-8.896-8.413-21.828-10.949-34.873-5.059m0 0c-1.686-6.186-3.412-11.718-5.176-16.655m5.176 16.655c-14.324-9.224-60.331 3.672-65.674 17.594l.001.003h-.002"/>
        <g class="C">
            <path d="M160.342 483.826c-1.934-7.973-6.997-28.974-9.924-50.313-4.318 2.736-7.446 5.741-8.62 8.795-7.78.778-13.978 3.303-18.552 6.926.129 16.021.966 30.105 1.488 33.034 9.034 6.132 21.333 5.909 35.271 1.597zm47.131-59.116c-2.935-1.887-7.201-2.849-12.173-3.063 8.179 19.828 14.418 40.392 16.872 48.291 14.159-2.793 24.636-9.486 29.848-18.927-1.082-2.798-7.322-15.241-15.106-29.057-6.1-1.067-12.756-.261-19.441 2.756m-21.029-45.725q5.301 5.579 0 0m-49.312 13.274q-1.39 5.806 0 0"
                  class="N"/>
            <path fill="url(#R)"
                  d="M195.3 421.644c-13.977-.602-33.54 4.698-44.882 11.87 2.924 21.339 7.99 42.34 9.926 50.31 12.03 4.265 47.464-5.95 51.829-13.887-2.454-7.899-8.694-28.465-16.873-48.293m31.795.628c7.605 13.522 13.702 25.664 14.884 28.631 4.729-5.05 6.926-10.021 5.892-14.416-.716-2.673-2.627-4.92-5.526-6.719-4.303-4.071-9.55-6.763-15.294-7.791l-.136-.026zm-112.968 41.852c-1.611 3.008-2.141 5.908-1.425 8.582l.049.183.052.159.047.161.055.154.056.159.069.177.063.152.063.152.066.147.062.131.07.145.075.145.02.044.149.271.082.143.03.045.195.313.091.14.029.041.153.222.104.141.07.093c2.048 2.694 5.619 4.781 10.38 6.242-.518-2.927-1.355-17.012-1.488-33.034-4.973 3.939-8.028 9.176-9.117 14.892"/>
            <path fill="url(#S)"
                  d="M110.458 421.499c-4.969 14.116-5.861 30.005-1.637 45.768.938 3.5 2.847 6.408 5.542 8.776a9.5 9.5 0 0 1-1.66-3.335c-.718-2.677-.186-5.574 1.422-8.582a17.6 17.6 0 0 1-.969-2.705c-3.426-12.787-4.575-27.013-2.698-39.922m115.073-29.315c7.435 10.098 13.023 22.531 16.299 34.759q.38 1.42.515 2.827c2.899 1.8 4.808 4.043 5.525 6.72.321 1.198.391 2.439.227 3.719 1.151-3.398 1.351-6.872.413-10.371-4.057-15.142-12.265-28.028-22.979-37.654m-18.06 32.526c-14.245-52.276-31.407-57.814-49.396-52.994s-30.079 18.196-16.279 70.592c5.337-13.923 51.35-26.822 65.675-17.598"/>
            <g class="B">
                <path d="M176.984 372.191c10.992 4.661 21.342 18.96 30.487 52.519 13.045-5.889 25.977-3.355 34.873 5.058-.09-.935-.26-1.881-.513-2.824-8.573-31.996-32.954-65.359-64.847-54.753m-35.043 9.389c-31.682 6.882-37.358 47.847-28.785 79.842.253.944.581 1.848.967 2.703 2.093-10.967 11.429-20.192 27.675-21.818-8.86-33.635-7.05-51.193.143-60.727"/>
                <path d="m204.531 526.732 6.924-56.972a.62.62 0 0 1 .697-.547.627.627 0 0 1 .547.697l-7.87 64.788 36.573-105.333a.63.63 0 0 1 .798-.385.63.63 0 0 1 .389.797L209.2 525.938l32.242-75.189a.627.627 0 0 1 .821-.33.63.63 0 0 1 .331.825l-38.581 89.969.001.004-.004.001.001.004-.003.005-.003.005-.003.006-.003.005.001.004-.006.01-.003.006-.006.01-.009.016-.009.015-.006.011-.003.005-.006.01-.003.005-.003.006-.004.001-.003.005-.003.005-.004.001.001.004-.004.001-.003.006-.003.005-.003.005-.004.001-.003.005-.003.005-.004.001.001.005-.007.006-.004.001-.003.005-.003.005-.005.001-.003.006-.004.001-.003.005-.003.005-.004.001-.003.005-.004.002-.003.005-.004.001-.003.005-.007.006-.004.001a1 1 0 0 1-.096.07l-.008.002-.003.005-.004.002-.004.001-.004.001-.004.001-.016.008-.027.012-.007.006-.009.003-.004.001-.004.001-.004.001-.008.002-.004.001-.004.001-.004.001-.003.006-.004.001-.005.001-.004.001-.004.001-.004.001-.004.001-.004.001-.004.001-.004.001-.004.002-.004.001-.005.001-.004.001-.005-.003-.004.001-.004.001-.004.001-.008.002-.004.001-.005.002-.004.001-.004.001c-.016.004-.036.014-.052.018l-.012.003-.013.004a.65.65 0 0 1-.285.001l-.004.002-.005-.003-.004.001-.001-.004-.009-.002a.7.7 0 0 1-.148-.058l-.015-.009q-.05-.032-.094-.071l-1.131-.976-77.278-57.795a.62.62 0 0 1-.129-.875.63.63 0 0 1 .879-.13l63.122 47.207-74.687-64.588a.626.626 0 0 1 .818-.949l85.203 73.678-39.931-52.832a.63.63 0 0 1 .125-.877.626.626 0 0 1 .876.121l34.832 46.083-54.597-87.74a.628.628 0 0 1 1.066-.663l60.819 97.747 3.802-115.063a.624.624 0 0 1 .647-.604.63.63 0 0 1 .608.646z"/>
            </g>
            <path d="m161.021 606.092 58.731-2.587 52.818-25.812-.36-1.417-60.163-3.036-51.386 31.434z" class="J"/>
            <path d="m193.819 501.647 3.142-2.001 59.276 2.991 4.546 17.862-2.583.751 14.01 55.026-60.164-3.035z"
                  class="K"/>
            <path fill="#4197f6"
                  d="m193.824 501.669-.007-.023-51.386 31.434.005.024-2.568 1.572 4.512 17.73 2.623-1.361 13.654 53.628 51.387-31.435-11.809-52.762 1.261-3.01-4.514-17.729z"/>
            <path d="m201.51 517.51-57.132 34.877 3.181.832 52.831-32.141 58.13 1.43 2.257-2.033z" class="J"/>
        </g>
        <g class="K" filter="url(#D)">
            <path d="M182.826 584.038c3.801-2.407 7.348-6.082 10.19-10.562s4.852-9.564 5.777-14.608.721-9.821-.584-13.728-3.653-6.769-6.747-8.223-6.796-1.435-10.637.054-7.648 4.383-10.941 8.314-5.923 8.723-7.557 13.77-2.201 10.124-1.627 14.586c.375 2.969 1.246 5.595 2.563 7.725s3.052 3.725 5.108 4.691 4.392 1.285 6.872.939 5.058-1.352 7.583-2.958"/>
        </g>
        <g class="B">
            <path d="M185.667 561.702c-.422-3.282-2.249-3.356-5.674-1.696-2.453 1.146-3.028.696-3.197-.618s.521-2.671 2.122-3.684c1.444-.914 2.316-.856 2.898.302a.37.37 0 0 0 .265.195.53.53 0 0 0 .363-.093l1.28-.811a.9.9 0 0 0 .211-.183 1.17 1.17 0 0 0 .26-.551.9.9 0 0 0 .006-.28l-.012-.092c-.286-.921-.843-1.575-1.584-1.859s-1.626-.185-2.516.284l-.29-2.257c-.048-.375-.326-.503-.738-.344l-1.202.761c-.32.202-.523.634-.543 1.155l.279 2.17c-2.36 1.911-3.641 4.745-3.339 7.096.399 3.103 2.159 3.312 5.583 1.652 2.303-.949 3.103-.855 3.298.657s-.794 3.249-2.316 4.212c-2.083 1.318-2.928.744-3.359-.518-.043-.144-.131-.244-.249-.283s-.257-.014-.394.071l-1.368.866a.9.9 0 0 0-.211.183 1.1 1.1 0 0 0-.165.259q-.068.144-.094.292c-.026.148-.019.194-.006.28l.012.094c.624 2.147 2.122 3.029 4.827 1.825l.29 2.256c.048.375.324.507.737.348l1.202-.761c.32-.202.524-.638.543-1.158l-.291-2.256c2.343-1.99 3.691-4.98 3.364-7.517zm-8.101 15.802c-2.432.467-4.653-.073-6.363-1.545s-2.824-3.808-3.195-6.689.021-6.17 1.122-9.422 2.86-6.31 5.037-8.761c.143-.175.256-.39.32-.613a1.36 1.36 0 0 0 .041-.632l-.169-1.317c-.012-.179-.077-.323-.183-.406s-.247-.097-.396-.041a.8.8 0 0 0-.308.297c-2.776 2.933-5.045 6.693-6.478 10.735s-1.957 8.156-1.495 11.748 1.886 6.473 4.065 8.228 5.001 2.293 8.057 1.536a.43.43 0 0 0 .228-.062.8.8 0 0 0 .218-.19 1 1 0 0 0 .16-.277 1 1 0 0 0 .068-.304c.068-.145.056-.239.031-.428l-.169-1.315c-.036-.283-.326-.506-.591-.542m4.717-34.706a.43.43 0 0 0-.229.062.8.8 0 0 0-.218.19q-.1.125-.16.278a1 1 0 0 0-.066.304c-.067.142-.055.236-.031.425l.169 1.315a.9.9 0 0 0 .217.443.62.62 0 0 0 .385.194c2.432-.466 4.653.073 6.363 1.546s2.824 3.808 3.195 6.689-.021 6.17-1.122 9.422-2.86 6.31-5.037 8.761a1.8 1.8 0 0 0-.32.612 1.34 1.34 0 0 0-.039.631l.169 1.317c.011.18.076.324.182.406s.247.098.395.043a.8.8 0 0 0 .308-.297c2.773-2.948 5.037-6.716 6.466-10.763s1.949-8.164 1.487-11.758-1.885-6.482-4.061-8.247-4.997-2.315-8.053-1.573"/>
            <path d="M280.342 374.279 133.248 268.975a1.983 1.983 0 0 0-2.762.453 1.98 1.98 0 0 0 .455 2.761l167.27 119.745-322.687-139.572a1.986 1.986 0 0 0-2.604 1.028 1.98 1.98 0 0 0 1.029 2.601l294.585 127.414L25.104 298a1.98 1.98 0 0 0-2.524 1.21 1.974 1.974 0 0 0 1.211 2.517l291.286 102.195.004.002.009.002.008.003.013.005.005.002.004.001.008.003.005.002.008.003.018.005.004.001.004.002.009.002.004.001.009.004.017.005.009.003.009.001v.001l.013.003.03.009.017.004.044.011.004.001h.004l.018.004.03.006.017.003v.001h.005l.025.005.018.003h.004l.004.001.022.004.017.002.005.001.008.001h.005v.001l.013.001.013.002.008.001h.009l.004.001.005.001h.008l.013.002.009.001h.013l.009.001.008.001h.009l.013.001h.004l.005.001h.008l.009.001h.022l.004.001h.047l.009.001.013-.001h.056l.013-.001h.013l.018-.001.004-.001h.022l.008-.001.009-.001h.009l.008-.001h.009l.004-.001.009-.001.004-.001h.013l.018-.002.008-.002h.009q.188-.022.364-.079l.004-.002.026-.007.008-.004.009-.003.017-.006.009-.003.004-.003.018-.005.047-.018.044-.019.026-.012.017-.007.026-.013.004-.001v-.001l.018-.007.021-.011.005-.003.004-.002.013-.006.004-.003.004-.003.009-.004.009-.005.008-.003.005-.005.004-.002.004-.001.009-.006.013-.007.009-.004.004-.004.004-.001v-.002l.013-.007.013-.007.009-.005.009-.006.013-.008.008-.006.009-.007.013-.005.009-.008.013-.008.008-.006.009-.006.009-.007.013-.009.008-.007.009-.005.009-.006.013-.01.013-.01.004-.004.004-.004.017-.012.009-.006.152-.083.03-.019.004-.004.005-.002.03-.019v-.001a2 2 0 0 0 .615-.648v-.004l.004-.01.013-.016.004-.007.005-.008.013-.026v-.004a2 2 0 0 0 .177-.469l.009-.045q.044-.188.043-.375l.143-4.694L348.94 94.935a1.98 1.98 0 0 0-1.77-2.165 1.977 1.977 0 0 0-2.169 1.763L319.937 341.41l9.376-310.713c.03-1.089-.827-2-1.922-2.031a1.98 1.98 0 0 0-2.039 1.914L314.66 385.008l-37.497-205.08a1.98 1.98 0 0 0-2.303-1.585 1.974 1.974 0 0 0-1.592 2.298l32.709 178.893L218.7 46.092a1.98 1.98 0 0 0-2.438-1.374 1.97 1.97 0 0 0-1.377 2.432l97.23 349.179L36.774 160.067a1.983 1.983 0 0 0-2.792.207 1.974 1.974 0 0 0 .211 2.787z"
                  class="C"/>
        </g>
        <path fill="#00327e"
              d="m289.055 362.858-8.433 2.131-89.831 105.33 23.078 36.26 5.413-3.181 71.087 111.707 91.176-106.908z"
              class="C"/>
        <path fill="#256aef"
              d="m289.083 362.906-.028-.049 135.705-36.929.032.048 6.784-1.845 22.908 35.991-6.514 2.274 69.282 108.869-135.709 36.93-70.762-104.355-7.135-2.671-22.904-35.993z"
              class="C"/>
        <path fill="#000949"
              d="m303.7 401.254 150.758-41.173-3.682 6.726-139.219 38.25-90.65 100.894-7.069.579zm78.076-.112c-2.4 5.369-9.662 8.375-9.662 14.878 0 27.098 24.325 49.085 52.625 52.748 21.508 2.783 36.773-5.186 44.372-22.189l-2.602 14.069c-7.599 17.002-28.938 21.701-50.369 16.766-22.117-4.432-48.882-26.863-48.882-53.961 0-6.503 8.177-17.819 10.577-23.188z"
              class="C"/>
        <g clip-path="url(#k)">
            <circle cx="44.044" cy="44.044" r="43.161" stroke-width="1.766" class="B O"
                    transform="matrix(.99255 -.12187 .42262 .9063 354.529 395.617)"/>
            <path fill="url(#T)"
                  d="M425.951 415.687c-3.258.4-6.114 2.329-8.496 5.731-1.132 1.613-1.974 3.295-2.57 4.631l.01-.001 5.549 3.203c.547-1.282 1.375-3.039 2.508-4.671 2.12-3.025 4.038-3.844 5.282-3.997 4.686-.575 10.04 2.279 11.943 6.36 1.89 4.054-.376 7.844-5.039 8.445a5 5 0 0 1-.872.012c1.611.357 3.256.557 4.652.385 8.582-1.053 7.928-6.264 7.87-6.64a12 12 0 0 0-.949-2.907c-3.156-6.769-12.085-11.509-19.888-10.551"/>
            <path fill="url(#U)"
                  d="M407.458 443.981c3.258-.4 6.114-2.329 8.497-5.731 1.131-1.613 1.973-3.295 2.569-4.631l-.01.001-5.549-3.203c-.546 1.282-1.375 3.039-2.508 4.671-2.119 3.025-4.038 3.844-5.282 3.997-4.69.566-10.044-2.288-11.947-6.369-1.89-4.055.376-7.844 5.038-8.445.213-.027.499-.033.872-.012-1.61-.357-3.255-.557-4.652-.385-8.581 1.053-7.917 6.263-7.874 6.631.178.954.489 1.92.949 2.907 3.165 6.787 12.095 11.527 19.897 10.569"/>
            <path d="M438.851 435.678c-4.439.439-10.446-2.095-11.736-2.75-3.336-1.696-11.403-6.398-12.036-6.77-5.972-3.582-13.614-7.466-19.098-6.792l-.011.001-.01.001c-6.646.845-10.36 5.568-9.346 11.137-.054-.367-.238-5.741 7.902-6.549 4.438-.439 10.486 2.138 11.786 2.792 3.337 1.695 11.404 6.397 12.037 6.769 5.967 3.573 13.609 7.457 19.094 6.784l.01-.001.01-.002c6.646-.844 10.37-5.569 9.347-11.136.043.368.196 5.697-7.949 6.516"
                  class="H"/>
        </g>
        <g style="mix-blend-mode:hard-light">
            <g class="C">
                <path fill="#5154b1" d="m573.474 231.8 30.304 13.654 33.232.429.182-.806-29.59-16.855-33.946 2.772z"/>
                <path fill="#917bd2"
                      d="M604.768 144.684c1.497-6.083 5.476-22.094 11.019-37.577-3.89.323-7.072 1.255-8.939 2.915-5.546-2.217-10.638-2.69-15.015-1.852-5.559 10.896-9.957 20.736-10.641 22.901 3.961 7.342 12.367 11.525 23.331 13.516zm52.768-23.426c-1.323-2.312-3.875-4.469-7.167-6.366-1.449 16.316-4.475 32.449-5.597 38.659 10.573 3.097 20.029 2.26 26.893-2.295.248-2.277.413-12.905.013-25.009-3.758-2.872-8.552-4.672-14.142-4.989m1.878-38.386q1.627 5.643 0 0m-38.081-8.399q-2.993 3.444 0 0"/>
                <path fill="url(#V)"
                      d="M650.372 114.89c-9.258-5.336-24.375-8.645-34.59-7.785-5.543 15.487-9.516 31.499-11.017 37.581 6.649 7.129 34.251 12.702 40 8.868 1.126-6.217 4.156-22.349 5.607-38.664m21.314 11.638c.382 11.841.23 22.218-.015 24.64 4.985-1.749 8.229-4.343 9.076-7.683.456-2.061-.049-4.26-1.377-6.502-1.48-4.273-4.082-7.948-7.613-10.672l-.08-.059zM580.41 115.04c-2.15 1.472-3.537 3.25-3.994 5.311l-.03.145-.021.127-.026.122-.017.122-.016.131-.017.141-.012.126-.011.126-.008.122-.003.108-.002.126-.003.127.001.037.004.234.007.126.005.042c.002.093.013.187.019.285l.011.121.006.042c.01.066.016.136.026.201l.021.131.016.088c.436 2.547 2.118 5.222 4.829 7.889.684-2.163 5.083-12.004 10.643-22.902-4.76.918-8.675 3.388-11.428 6.872"/>
                <path fill="url(#W)"
                      d="M592.956 84.874c-8.344 7.81-14.554 18.258-17.25 30.424-.598 2.699-.332 5.345.662 7.903a7.25 7.25 0 0 1 .048-2.844c.46-2.068 1.837-3.844 3.992-5.311q.053-1.083.3-2.176c2.186-9.871 6.425-19.912 12.248-27.996m88.281 20.721c1.475 9.465.877 19.852-1.216 29.295a13 13 0 0 1-.646 2.095c1.324 2.244 1.827 4.439 1.372 6.502a7.3 7.3 0 0 1-1.161 2.599c1.98-1.902 3.343-4.182 3.941-6.881 2.589-11.684 1.571-23.312-2.29-33.61m-23.703 15.666c8.783-40.433-.886-50.234-14.767-53.314s-26.796 1.719-35.922 42.077c8.522-7.554 44.236-.064 50.689 11.237"/>
                <path fill="#cbf"
                      d="M655.4 74.932c5.808 7.036 7.779 20.369 2.134 46.324 10.913.611 18.779 6.89 21.838 15.724a13 13 0 0 0 .648-2.092c5.477-24.696.727-55.893-24.62-59.956m-27.047-5.995c-23.879-6.509-42.17 19.238-47.647 43.934q-.244 1.096-.293 2.168c5.275-6.69 14.858-9.645 26.43-5.019 5.858-25.91 13.283-37.161 21.51-41.083"/>
                <path d="m619.567 189.325 24.774-36.152a.484.484 0 0 1 .799.542l-28.18 41.11 61.917-58.452a.48.48 0 0 1 .677.021.48.48 0 0 1-.021.677L623.01 190.43l48.352-39.558c.203-.171.502-.139.674.064s.135.507-.068.678l-57.858 47.337-.004.004-.005.005-.004.005h-.01l-.009.01-.009.009-.014.005-.005.005-.014.005-.009.009-.014.005-.004.005h-.01l-.009.009-.009.001-.005.004-.009.001-.014.004-.005.005-.004-.004-.01.009h-.009l-.004.005-.005-.005-.005.005-.093.011h-.019l-.004.005-.014-.004h-.019l-.014-.004h-.019l-.005-.005h-.009l-.009.001-.005-.005h-.019l-.004-.004h-.01l-.005-.005h-.009l-.005-.004a.1.1 0 0 1-.046-.009l-.01.001h-.009a.6.6 0 0 1-.193-.095l-.01-.009-.009-.01a.6.6 0 0 1-.077-.092l-.004-.014c-.015-.023-.034-.05-.044-.078l-.419-1.058-31.968-66.399a.49.49 0 0 1 .223-.639.48.48 0 0 1 .644.227l26.11 54.231-27.816-70.084a.48.48 0 0 1 .265-.625.48.48 0 0 1 .625.265l31.729 79.949-8.417-49.859c-.042-.26.136-.511.397-.553s.507.132.549.393l7.343 43.5-6.04-78.687a.473.473 0 0 1 .44-.511.48.48 0 0 1 .516.435l6.728 87.657 43.146-76.601c.127-.226.424-.306.651-.179s.315.425.184.656z"
                      class="B"/>
                <path fill="#a29ceb"
                      d="m616.642 187.441 2.09-.21 29.157 16.61-2.254 10.174-1.496-.281-6.947 31.345-29.593-16.859z"/>
            </g>
            <g class="C" filter="url(#E)">
                <path fill="#d6c1ff"
                      d="m616.637 187.454.005-.013-33.945 2.778v.009l-1.698.14-2.24 10.101 1.668-.019-6.77 30.546 33.945-2.779 7.478-29.634 1.405-1.2 2.236-10.097z"/>
            </g>
            <path fill="#5154b1"
                  d="m616.481 197.41-37.718 3.042 1.39 1.231 34.857-2.76 28.969 15.528 1.657-.448zm-17.146 6.332c1.657 1.318 2.915 5.118 2.61 7.943-.545 5.043-4.719 9.858-9.322 10.752-2.026.394-3.797-.037-5.099-1.073l1.494 1.269c1.302 1.035 3.379 1.938 5.405 1.544 4.603-.894 9.065-5.859 9.609-10.903.358-3.309-1.546-6.946-3.203-8.264z"
                  class="C"/>
            <path fill="#ede4ff"
                  d="M592.313 202.75c4.744-1.936 9.242.974 10.045 6.499s-2.393 11.574-7.137 13.51-9.242-.974-10.045-6.499 2.393-11.575 7.137-13.51"/>
            <path fill="url(#X)"
                  d="M597.898 209.82c-.741-.009-1.635.342-2.661 1.043-.487.333-.924.689-1.257.975h.003l.655.899c.313-.275.76-.65 1.249-.986.913-.623 1.44-.751 1.723-.748 1.064.013 1.733.826 1.493 1.813-.239.98-1.301 1.773-2.365 1.767a1 1 0 0 1-.183-.024c.28.13.591.226.908.23 1.949.023 2.626-1.182 2.672-1.27q.168-.33.256-.69c.398-1.636-.721-2.988-2.493-3.009"/>
            <path fill="url(#Y)"
                  d="M589.639 215.69c.741.008 1.635-.343 2.661-1.044.487-.332.924-.689 1.257-.975h-.003l-.655-.898a14 14 0 0 1-1.249.986c-.913.623-1.44.75-1.723.747-1.063-.015-1.732-.828-1.492-1.815.238-.98 1.3-1.773 2.364-1.766q.072 0 .183.024a2.2 2.2 0 0 0-.907-.231c-1.95-.023-2.624 1.183-2.672 1.268a3.2 3.2 0 0 0-.256.69c-.399 1.641.72 2.993 2.492 3.014"/>
            <path d="M597.463 214.762c-.991-.036-1.846-.797-2.012-.985-.43-.488-1.376-1.805-1.449-1.909-.685-.997-1.669-2.115-2.915-2.13h-.005c-1.514-.011-3.023.95-3.68 2.247.046-.085.845-1.313 2.665-1.247.992.036 1.848.807 2.017.996.43.487 1.375 1.804 1.449 1.908.684.996 1.669 2.113 2.915 2.128h.005c1.514.012 3.025-.949 3.68-2.247-.049.085-.847 1.302-2.67 1.239"
                  class="H"/>
        </g>
        <path stroke="#689dec" stroke-width="1.247"
              d="M1606.48 551.117c-1.81-12.439-8-22.972-20.21-25.624 2.19 2.901 3.6 6.959 3.88 12.725-.6-12.549-6.59-17.007-14.23-19.056m-54.07 37.102c-.01.053-.01.106-.02.159 5.71-5.4 14.01-7.027 22.38-3.247m0 0c1.09-3.971 2.19-7.521 3.33-10.69m-3.33 10.69c9.2-5.92 38.73 2.357 42.16 11.292v.002"/>
        <g class="C">
            <path d="M1574.46 591.118c1.24-5.118 4.49-18.597 6.37-32.293 2.77 1.756 4.78 3.685 5.54 5.645 4.99.499 8.97 2.12 11.9 4.445-.08 10.283-.62 19.323-.95 21.203-5.8 3.935-13.69 3.793-22.64 1.025zm-30.25-37.943c1.89-1.211 4.62-1.829 7.82-1.966-5.25 12.726-9.26 25.925-10.83 30.995-9.09-1.793-15.82-6.089-19.16-12.148.69-1.796 4.7-9.783 9.69-18.65 3.92-.685 8.19-.168 12.48 1.769m13.5-29.348q-3.405 3.58 0 0m31.65 8.52q.9 3.726 0 0"
                  class="N"/>
            <path fill="url(#Z)"
                  d="M1552.03 551.208c8.97-.387 21.52 3.015 28.8 7.619-1.87 13.696-5.13 27.175-6.37 32.291-7.72 2.737-30.46-3.82-33.26-8.914 1.57-5.07 5.58-18.27 10.83-30.996m-20.41.403c-4.88 8.679-8.8 16.472-9.55 18.376-3.04-3.241-4.45-6.431-3.79-9.252.46-1.716 1.69-3.158 3.55-4.313 2.76-2.613 6.13-4.34 9.82-5l.08-.017zm72.51 26.862c1.03 1.93 1.37 3.792.91 5.508l-.03.118-.03.102-.03.103-.04.099-.04.102-.04.114-.04.097-.04.098-.04.094-.04.084-.05.094-.05.093-.01.027-.09.175-.06.091-.02.029-.12.201-.06.09-.02.026c-.03.049-.06.097-.1.143l-.06.09-.05.06c-1.31 1.729-3.61 3.069-6.66 4.006.33-1.879.87-10.919.95-21.202 3.2 2.528 5.16 5.89 5.86 9.558"/>
            <path fill="url(#a)"
                  d="M1606.48 551.114c3.19 9.06 3.76 19.258 1.05 29.376-.6 2.246-1.83 4.112-3.56 5.632a6.1 6.1 0 0 0 1.07-2.14c.46-1.718.12-3.578-.91-5.508.25-.552.46-1.129.62-1.737 2.2-8.207 2.94-17.338 1.73-25.623m-73.86-18.816c-4.77 6.481-8.36 14.461-10.46 22.31a11.7 11.7 0 0 0-.33 1.814c-1.86 1.156-3.08 2.595-3.55 4.314-.2.769-.25 1.565-.14 2.387-.74-2.181-.87-4.411-.27-6.657 2.61-9.719 7.88-17.989 14.75-24.168m11.59 20.877c9.15-33.553 20.16-37.108 31.71-34.014 11.54 3.093 19.3 11.679 10.45 45.309-3.43-8.937-32.96-17.216-42.16-11.295"/>
            <g class="B">
                <path d="M1563.78 519.466c-7.05 2.992-13.7 12.17-19.57 33.71-8.37-3.78-16.67-2.154-22.38 3.246a11.7 11.7 0 0 1 .33-1.813c5.5-20.536 21.15-41.95 41.62-35.143m22.49 6.027c20.34 4.417 23.98 30.71 18.48 51.246-.16.605-.37 1.186-.62 1.734-1.34-7.038-7.34-12.96-17.76-14.003 5.68-21.589 4.52-32.858-.1-38.977"/>
                <path d="m1546.1 618.658-4.44-36.567a.407.407 0 0 0-.45-.352.4.4 0 0 0-.35.448l5.05 41.583-23.47-67.606c-.08-.209-.31-.321-.52-.247s-.32.303-.25.511l21.43 61.72-20.69-48.259a.404.404 0 0 0-.53-.212c-.2.089-.3.325-.21.53l24.76 57.745v.003h.01v.019l.01.007v.01l.01.01v.01l.01.006v.01l.01.004v.01l.01.001v.013l.01.001v.01l.01.004v.007l.01.001v.011l.01.001v.007l.01.001v.007l.01.001c.01.016.04.03.06.044v.005l.01.001v.002l.01.005.02.008.01.004v.002l.01.001v.002l.01.001v.004l.01.001v.002h.01v.002l.01.001v.002l.01.001v.001-.002l.01.001v.001l.01.001v.002l.01.001.03.012.01.002.01.002c.05.013.12.015.18.001v.001-.002l.01.001v-.004a.4.4 0 0 0 .1-.037l.01-.006.06-.046.72-.626 49.6-37.095a.403.403 0 0 0 .09-.562.41.41 0 0 0-.57-.083l-40.51 30.299 47.94-41.455a.414.414 0 0 0 .04-.567.406.406 0 0 0-.57-.042l-54.69 47.29 25.63-33.91a.395.395 0 0 0-.08-.563.4.4 0 0 0-.56.078l-22.36 29.577 35.05-56.315a.417.417 0 0 0-.13-.554.41.41 0 0 0-.56.129l-39.03 62.738-2.44-73.852a.41.41 0 0 0-.42-.388.41.41 0 0 0-.39.415z"/>
            </g>
            <path d="m1569.59 687.577-37.69-1.66-33.91-16.567.24-.91 38.61-1.948 32.98 20.175z" class="J"/>
            <path d="m1548.54 620.541-2.02-1.285-38.04 1.92-2.92 11.464 1.66.483-8.99 35.318 38.61-1.949z" class="K"/>
            <path fill="#4197f6"
                  d="M1548.54 620.555v-.015l32.98 20.176v.015l1.65 1.009-2.9 11.38-1.68-.873-8.76 34.42-32.99-20.176 7.58-33.865-.81-1.931 2.9-11.38z"/>
            <path d="m1543.6 630.722 36.67 22.386-2.04.533-33.91-20.629-37.31.918-1.45-1.305z" class="J"/>
        </g>
        <g class="K" filter="url(#F)">
            <path d="M1517.48 660.435c2.48 0 5.22-.667 7.86-1.917 2.65-1.249 5.08-3.026 7-5.104s3.24-4.364 3.78-6.571c.55-2.206.3-4.232-.72-5.823-1.01-1.59-2.74-2.673-4.97-3.112s-4.86-.214-7.55.647c-2.7.861-5.34 2.319-7.59 4.189s-4.01 4.069-5.06 6.318c-.7 1.495-1.07 2.975-1.08 4.357-.02 1.381.32 2.636.99 3.693.68 1.057 1.67 1.894 2.93 2.465s2.76.862 4.41.858"/>
        </g>
        <path d="M1525.39 650.863c.77-1.654-.06-2.228-2.14-2.465-1.49-.189-1.62-.568-1.31-1.231s1.03-1.091 2.07-1.091c.95 0 1.34.285 1.27.996-.01.068.02.128.06.169.05.042.12.064.2.064h.83c.05.001.1-.007.16-.023q.075-.026.15-.072c.075-.046.09-.068.13-.109s.07-.084.09-.128l.02-.047c.14-.513.07-.982-.19-1.334s-.71-.566-1.26-.61l.53-1.137c.09-.189 0-.331-.24-.378h-.79c-.2 0-.43.141-.59.378l-.51 1.094c-1.66.194-3.1 1.137-3.65 2.322-.73 1.564.03 2.181 2.12 2.417 1.35.237 1.69.517 1.34 1.279-.36.762-1.33 1.28-2.32 1.28-1.36 0-1.59-.517-1.42-1.232.03-.08.02-.153-.03-.205-.04-.053-.11-.083-.2-.084h-.9a.5.5 0 0 0-.15.024.7.7 0 0 0-.15.071c-.05.031-.09.068-.13.109s-.07.084-.09.128l-.02.048c-.34 1.185.1 2.038 1.71 2.274l-.53 1.138c-.09.189 0 .331.24.379h.79c.21 0 .43-.143.59-.379l.53-1.138c1.68-.236 3.19-1.232 3.79-2.511zm-8.44 4.974c-1.27-.5-2.14-1.406-2.51-2.597-.36-1.191-.19-2.608.49-4.06.67-1.452 1.83-2.87 3.3-4.06s3.19-2.098 4.93-2.598a.9.9 0 0 0 .33-.191c.1-.085.17-.184.21-.282l.31-.664c.04-.087.06-.174.03-.243-.02-.07-.09-.119-.17-.137a.44.44 0 0 0-.23.048c-2.16.548-4.33 1.631-6.19 3.092s-3.32 3.225-4.16 5.035c-.85 1.81-1.03 3.573-.53 5.034.49 1.461 1.65 2.544 3.3 3.093q.045.035.12.038a.4.4 0 0 0 .16-.024.58.58 0 0 0 .28-.204c.07-.047.09-.095.14-.19l.31-.663c.06-.142 0-.331-.12-.427m12.44-14.784a.25.25 0 0 0-.13-.039.4.4 0 0 0-.15.025.6.6 0 0 0-.16.082.5.5 0 0 0-.12.122c-.07.047-.1.094-.14.189l-.31.663c-.03.096-.05.188-.03.27s.06.153.12.205c1.27.5 2.15 1.406 2.51 2.597s.2 2.608-.48 4.06-1.83 2.87-3.3 4.061c-1.48 1.19-3.2 2.097-4.94 2.597a1.1 1.1 0 0 0-.33.191.8.8 0 0 0-.2.283l-.31.663c-.05.087-.06.174-.03.243.02.07.08.119.17.137.07.007.15-.01.23-.048 2.16-.556 4.33-1.644 6.19-3.109s3.31-3.23 4.16-5.041c.84-1.812 1.03-3.577.54-5.042-.5-1.465-1.65-2.553-3.29-3.109"
              class="B"/>
        <g class="C">
            <path d="M1471.47 582.622c1.87-7.884 6.76-28.652 9.63-49.73 4.09 2.654 7.04 5.584 8.14 8.584 7.38.687 13.25 3.113 17.57 6.638-.19 15.804-1.05 29.705-1.56 32.599-8.6 6.143-20.26 6.052-33.46 1.944zm-44.45-57.817c2.79-1.893 6.85-2.886 11.56-3.149-7.84 19.643-13.85 39.992-16.22 47.809-13.41-2.607-23.32-9.1-28.22-18.358 1.03-2.77 7.01-15.109 14.45-28.818 5.8-1.116 12.11-.391 18.43 2.516m20.15-45.321q-5.055 5.558 0 0m46.72 12.578q1.29 5.712 0 0"
                  class="F"/>
            <path fill="url(#b)"
                  d="M1438.58 521.652c13.26-.74 31.8 4.283 42.52 11.239-2.86 21.079-7.76 41.846-9.63 49.728-11.44 4.332-45-5.374-49.11-13.157 2.37-7.816 8.38-28.167 16.22-47.81m-30.16.952c-7.27 13.416-13.11 25.456-14.24 28.395-4.47-4.931-6.53-9.812-5.53-14.157.69-2.645 2.51-4.881 5.27-6.686 4.1-4.06 9.09-6.77 14.54-7.844l.13-.027zm106.97 40.101c1.52 2.949 2.01 5.805 1.32 8.45l-.05.18-.05.158-.05.159-.05.153-.05.157-.07.176-.06.15-.06.151-.06.146-.06.129-.07.144-.07.144-.02.043c-.05.092-.09.181-.14.27l-.08.141-.03.045c-.06.102-.12.209-.19.31l-.08.14-.03.041-.15.22-.1.14-.06.092c-1.96 2.68-5.35 4.775-9.88 6.265.51-2.892 1.36-16.793 1.56-32.599 4.7 3.835 7.58 8.968 8.58 14.595"/>
            <path fill="url(#c)"
                  d="M1519.06 520.622c4.65 13.872 5.43 29.535 1.35 45.127-.9 3.462-2.73 6.351-5.29 8.714.74-1.02 1.28-2.121 1.59-3.306.69-2.648.2-5.5-1.32-8.45.38-.851.69-1.742.94-2.679 3.3-12.648 4.46-26.692 2.73-39.406m-109.02-27.713c-7.1 10.038-12.46 22.359-15.62 34.455-.24.937-.41 1.868-.5 2.794-2.76 1.806-4.58 4.038-5.27 6.686a9.8 9.8 0 0 0-.23 3.671c-1.08-3.34-1.25-6.764-.35-10.226 3.92-14.978 11.76-27.773 21.97-37.38m16.98 31.894c13.75-51.712 30.05-57.353 47.1-52.787 17.03 4.566 28.45 17.634 15.12 69.459-5-13.678-48.59-25.92-62.22-16.672"/>
            <g class="B">
                <path d="M1456.18 472.681c-10.45 4.712-20.33 18.924-29.16 52.121-12.34-5.672-24.62-3.038-33.1 5.353.09-.922.26-1.857.5-2.79 8.28-31.649 31.55-64.812 61.76-54.684m33.2 8.896c30.02 6.457 35.22 46.803 26.95 78.452-.25.933-.56 1.828-.93 2.675-1.94-10.795-10.76-19.797-26.16-21.23 8.56-33.27 6.92-50.569.14-59.897"/>
                <path d="m1429.36 625.398-6.31-56.123c-.04-.339-.33-.578-.66-.532a.62.62 0 0 0-.52.693l7.17 63.822-34.22-103.513c-.11-.32-.45-.488-.76-.372s-.47.472-.37.79l31.25 94.501-30.25-73.827c-.13-.312-.48-.453-.78-.317s-.45.505-.32.818l36.2 88.338v.014l.01.005v.015l.01.01v.015l.01.015.01.016.01.01v.005l.01.01v.01l.01.001v.011l.01.001-.01.004.01.001v.01l.01.005v.006l.01.005v.005l.01.006v.012l.01.001v.005l.01.001v.01l.01.001v.011l.01.001v.005l.01.007v.001l.09.067.01.002v.005l.01.002v.002l.01.001.01.008.03.011.01.006v.002l.01.001v.001l.01.002v.002l.01.001v.002l.01.005v.001l.01.001v.002l.01.001v.002l.01.001v.001l.01.001v.002l.01.001v-.003l.01.001v.002l.01.003.01.001v.002l.01.001c.01.004.03.013.05.017l.01.003.01.004a.6.6 0 0 0 .27-.002v.001l.01-.003v.001-.004l.01-.002a.6.6 0 0 0 .14-.058l.02-.009.09-.071 1.08-.974 73.56-57.814a.633.633 0 0 0 .12-.864.574.574 0 0 0-.83-.12l-60.09 47.223 71.14-64.488a.63.63 0 0 0 .06-.871.58.58 0 0 0-.84-.056l-81.14 73.563 38.11-52.528c.19-.273.15-.659-.12-.864a.58.58 0 0 0-.83.128l-33.24 45.818 52.18-87.113a.64.64 0 0 0-.19-.849.583.583 0 0 0-.82.206l-58.13 97.049-3.09-113.454c-.01-.34-.29-.605-.61-.588a.617.617 0 0 0-.58.643z"/>
            </g>
            <path d="m1455.44 701.261-41.21-1.972-36.77-18.924.27-1.037 42.28-2.131 35.7 23.027z" class="G"/>
            <path fill="#9677d7"
                  d="m1433.67 624.942-2.18-1.465-41.66 2.102-3.41 13.035 1.81.555-10.5 40.163 42.28-2.133z"/>
            <path d="M1433.67 624.956v-.018l35.7 23.027v.018l1.78 1.15-3.38 12.942-1.83-.996-10.23 39.144-35.7-23.027 8.93-38.517-.85-2.198 3.38-12.942z"
                  class="F"/>
            <path d="m1428.08 636.517 39.69 25.551-2.24.602-36.71-23.547-40.83.965-1.56-1.49z" class="G"/>
        </g>
        <path fill="#fae5d6"
              d="M1431.06 546.966h553.91s-91.51-14.231-153.06-13.861c-33.6.202-51.44 4.408-85.03 4.918-64.05.975-97.64-12.574-161.55-10.73-63.56 1.833-154.27 19.673-154.27 19.673"
              opacity=".5"/>
        <path d="M2003.97 309.709c-261.86-1.182-790.19-2.837-808.63 0 0 0 133.59-56.438 223.44-54.972 49.06.801 75.1 17.481 124.13 19.507 93.51 3.863 142.54-49.872 235.85-42.559 92.79 7.272 225.21 78.024 225.21 78.024"
              class="L M"/>
        <g class="C">
            <path fill="url(#d)"
                  d="M1620.09 127.456C1582.3 82.588 1510.43 37.212 1456.1 22.54c-57.6 69.576-108.08 144.804-127.21 173.398 20.97 49.24 153.06 129.688 189.94 120.64 17.43-29.986 63.24-107.617 101.26-189.122m88.27 99.959c-20.17 61.86-40.37 115.133-46.18 127.199 29.01.275 50.6-7.05 61.24-22.704 6.22-9.803 7.73-22.072 5.07-36.135.35-24.825-6.22-48.668-19.34-69.336l-.31-.491zM1258.61-2.682c-13.87 3.566-24.33 10.153-30.55 19.95l-.42.678-.36.602-.35.608-.33.608-.32.619-.36.719-.29.62-.29.631-.27.619-.22.555-.25.637-.24.631-.07.205-.42 1.227-.2.66-.06.205q-.225.747-.42 1.502l-.17.672-.05.21-.24 1.105-.15.713-.08.485c-2.51 13.958 1.17 30.915 10.17 49.76 7.57-9.902 48.69-52.461 97.79-98.316-26.27-4.185-51.12 1.245-71.85 14.093z"/>
            <path fill="#ab5e27"
                  d="M1328.9 195.939c19.12-28.596 69.61-103.828 127.2-173.396-20.7-5.586-38.86-6.718-51.61-1.663v-.007c-24.49-21.819-49.87-33.802-74.03-37.646-49.1 45.857-90.22 88.414-97.79 98.321 6.69 45.3 42.29 82.645 95.15 113.454zm316.26-22.192c-2.49-14.432-11.62-30.331-25.07-46.289-38.03 81.525-83.83 159.14-101.26 189.122 48.8 35.792 99.2 49.153 143.14 38.459 5.57-11.273 26.29-65.842 46.87-129.089-14.02-21.852-35.39-40.121-63.68-52.203"/>
        </g>
        <path fill="#b66429"
              d="m1329.66 194.965-.77 1.145-1.07-.936-1.96-1.15zm11.12-16.532c24.05-35.53 67.21-97.601 115.32-155.719-20.7-5.586-38.86-6.718-51.61-1.663v-.006c-24.49-21.819-49.87-33.802-74.03-37.646-26.69 24.924-51.02 48.874-68.88 67.136 10.26-3.215 23.06-2.403 37.69.341l7.03-28.259 16.98 4.245-6.91 27.895 13.58 3.517 7.04-28.016 16.98 4.245-7.04 28.259 6.91 1.803 5.22 1.35 22.2 5.579-8.49 19.526s-12.5-3.275-12.37-3.032c-4.73-1.213-6.92 1.941-7.77 4.002l-11.15 44.632c-.61-.243-1.22-.364-1.82-.486.64.32 1.18.453 1.63.562.07.015.13.03.19.045l-8.01 31.897c-.23 3.535.9 7.986 7.31 9.793M1239.15 74.165l-6.48 7.554c1.94 13.098 6.29 25.532 12.77 37.334 2.81-1.766 5.99-2.998 9.44-3.777-15.22-7.973-22.98-20.159-15.73-41.111m40.94 87.034c-4.88-4.363-9.45-8.832-13.66-13.41-.47-2.137-.44-4.515.22-7.165 4.45-17.71 29.77-10.87 41.3-7.756l2.72.721-8.49 33.959c-.99-.25-2.21-.523-3.59-.832v-.001c-5.01-1.12-12.17-2.724-18.5-5.516m45.42 32.619.2.119v-.071zm294.58-66.189c13.45 15.958 22.58 31.857 25.07 46.289 28.29 12.081 49.66 30.351 63.68 52.202l-10.35 31.087-17.91-4.502-5.4-1.396-.01-.001v-.002l-7.13-1.861 7.27-29.214-17.55-4.389-7.27 28.964-14.04-3.636 7.14-28.838-17.55-4.389-7.27 29.215c-30.1-5.643-52.66-3.386-62.07 23.823-7.65 21.816.38 34.48 16.18 42.755-11.66 2.634-20.32 10.282-22.57 25.829-.36 2.419-.47 4.712-.34 6.888-10.4-5.552-20.81-12.124-31.14-19.702l3.3-5.662c19.39-33.296 62.13-106.642 97.96-183.46m34.57 229.127 7.31-1.546c3.96-8.026 15.61-37.999 29.42-77.424-3.82-.984-9.51-2.428-9.43-2.261-4.89-1.254-7.15 2.006-8.02 4.138l-11.54 46.141c-.63-.251-1.25-.376-1.88-.502.66.331 1.22.468 1.69.581l.06.013.13.033zM1321.27 78.078c-13.78-3.674-44.48-11.856-49.29 7.606-5 19.798 24.34 26.424 38.75 29.68l4.31 1.005 9.34-37.476-3.11-.814zm320.25 187.202c-14.25-3.798-45.99-12.257-50.96 7.863-5.18 20.467 25.15 27.318 40.06 30.684v.001l4.45 1.037 9.65-38.744zm-13.78 56.643c-11.92-3.218-38.1-10.291-42.7 8.019-4.61 18.549 20.62 24.196 33.02 26.973l3.72.862 8.77-35.108-2.81-.745z"/>
        <path d="m1321.76 454.119 195.58-140.276a2.63 2.63 0 0 1 3.67.604 2.64 2.64 0 0 1-.61 3.678L1298 477.637l429.04-185.924c1.34-.575 2.89.04 3.47 1.37a2.65 2.65 0 0 1-1.37 3.465l-391.68 169.727 323.66-113.768a2.633 2.633 0 1 1 1.75 4.965l-387.29 136.134v.003l-.01.003-.02.004-.01.006-.01.003-.01.002-.01.003v.003l-.01.004-.03.007v.001l-.01.002-.01.004-.01.001-.01.005-.02.006-.01.004-.01.003-.02.005-.04.011-.02.006-.06.014-.01.001v.001l-.03.005-.04.008-.02.004v.001l-.01.001-.03.007-.02.002-.01.002v.001l-.03.004-.03.003v.001l-.01.001-.01.002-.02.002-.01.002-.01.001-.02.001v.001l-.01.001-.01.001-.02.002-.01.001h-.01l-.01.001h-.01l-.01.002h-.01l-.02.001v.001h-.01l-.01.001-.01.001h-.03l-.01.001h-.03l-.01.001h-.09l-.03-.001-.02-.001h-.02l-.02-.001v-.001h-.01l-.02-.001h-.01l-.01-.001-.01-.001-.01-.001-.01-.001h-.01l-.01-.001-.01-.001-.01-.001-.01-.001-.03-.003-.01-.002h-.01a2.4 2.4 0 0 1-.48-.105v-.001l-.01-.002-.03-.01-.01-.005-.02-.004-.02-.007-.01-.005-.01-.003-.02-.007-.06-.024-.06-.025-.03-.017-.03-.009-.03-.017-.01-.002v-.001l-.02-.009-.03-.015-.01-.004v-.002l-.02-.008v-.004l-.01-.004-.01-.005-.01-.007-.01-.005-.01-.005-.01-.003v-.001l-.01-.01-.02-.008-.01-.006-.01-.005v-.004l-.02-.009-.02-.01-.01-.007-.01-.008-.02-.009-.01-.01-.01-.008-.02-.007-.01-.011-.02-.01-.01-.008-.01-.008-.01-.01-.02-.011-.01-.01-.01-.007-.01-.008-.02-.013-.02-.014v-.004l-.01-.006-.02-.016-.01-.008-.21-.111-.04-.025v-.005l-.01-.003-.04-.025v-.002a2.6 2.6 0 0 1-.82-.862v-.019l-.02-.021v-.01l-.01-.011-.02-.035v-.005c-.1-.194-.18-.404-.23-.624l-.01-.06a2.1 2.1 0 0 1-.06-.5l-.19-6.252-40.8-402.618a2.63 2.63 0 0 1 2.35-2.883c1.45-.15 2.74.904 2.89 2.348l33.32 328.864-12.47-413.9a2.636 2.636 0 0 1 5.27-.155l14.21 472.134 49.86-273.187a2.626 2.626 0 0 1 3.06-2.112 2.633 2.633 0 0 1 2.12 3.062l-43.49 238.303L1403.72 16.94a2.63 2.63 0 0 1 3.24-1.83 2.627 2.627 0 0 1 1.83 3.24l-129.27 465.143 366.09-314.726a2.63 2.63 0 0 1 3.71.277 2.64 2.64 0 0 1-.28 3.712z"
              class="B C"/>
        <path stroke="#fff" stroke-width="3.994" d="m1004.34 606.916 142.87 144.154"/>
        <g class="C">
            <path fill="#441d35"
                  d="m1004.34 587.149 130.88 127.206L1306 778.756l2.43-3.833-121.22-142.412-180.43-49.194z"/>
            <path d="m1310.18 438.905 11.21 2.838 119.44 140.311-30.68 48.302-7.2-4.237-94.52 148.806-121.22-142.413z"
                  class="I"/>
            <path fill="#ed8c16"
                  d="M1344.63 686.671c3.72-16.885-6.01-19.774-20.1-17.635l7.04-23.998-11.2 2.887-6.82 23.353-9.06 2.54 6.82-23.446-11.2 2.887-6.94 23.862-7.22 1.995.01-.093-15.53 4.048-4.51 15.554s8.34-2.331 8.16-2.151c4.57-1.198 5.02 1.893 4.56 4.767l-8.01 27.32c.02-.005.05-.011.07-.017l.05-.014c.3-.08.66-.176 1.07-.162-.4.126-.8.253-1.2.286l-.4 1.378 13.47 15.819 12.68 14.898 10.52 12.366 1.54 1.809 2.67-4.201v.001l27-42.512v.001l64.85-102.094-64.85 102.093c1.35-10.14-2.91-14.055-10.32-14.516 7.87-6.028 14.16-14.718 16.85-27.025m-33.53 84.053-2.67 4.2-1.54-1.809c1.44-.75 2.84-1.545 4.21-2.391m-14.73-9.975-12.68-14.898 3.28-11.244c.78-.2 1.75-.475 2.84-.788 9.54-2.717 28.96-8.248 23.96 8.721-2.64 9.106-9.89 14.676-17.4 18.209m25.45-62.211c-4.45 15.173-21.12 19.089-28.7 20.871l-1.8.431 8.51-29.075c.65-.166 1.46-.398 2.37-.661 7.95-2.281 24.1-6.919 19.62 8.434m-72.17-164.339-7.52 25.637.09-.023.03-.009c.3-.079.66-.175 1.07-.162-.4.127-.8.253-1.19.287l-11.18 38.212c-.75 1.886-2.48 5.09-5.6 5.871.06.142-8.17 2.15-8.17 2.15l-7.34 18.023 14.64-3.751 3.44-.855 4.55-1.115-7.06 24.184 11.2-2.888 7.04-23.997 8.95-2.218-6.94 23.862 11.2-2.888 7.06-24.183c19.35-6.343 34.37-15.907 42.67-39.35 6.73-18.835 2.44-25.41-7.31-26.015 7.88-6.028 14.16-14.719 16.86-27.025 3.72-16.885-6.02-19.774-20.1-17.636l7.03-23.998-11.2 2.888-6.81 23.353-9.07 2.539 6.65-22.823zm1.5 63.26c9.07-2.17 29.29-7.002 34.12-23.644 5-16.97-14.41-11.439-23.95-8.721l-2.85.787-9.36 32.075zm13.47-46.776c7.58-1.782 24.25-5.698 28.7-20.871 4.48-15.352-11.67-10.714-19.61-8.433l-.01.002-2.37.658-8.5 29.075a89 89 0 0 1 1.79-.431"/>
        </g>
        <path fill="#ed8c16"
              d="m1357.26 483.878-4.52 15.547 8.17-2.15c4.56-1.199 5.02 1.892 4.56 4.766l-8.01 27.321.12-.032c.3-.079.66-.175 1.07-.161-.4.126-.81.252-1.2.286l-11.18 38.212c-.74 1.886-2.48 5.09-5.6 5.871.07.142-8.16 2.151-8.16 2.151l-7.35 18.022 14.64-3.751 3.45-.854 4.55-1.116-7.06 24.184 11.2-2.888 7.04-23.997 8.95-2.217-6.94 23.861 11.2-2.888 7.06-24.183c15.46-5.07 28.16-12.198 36.88-26.828l-15.79-18.541c1.24 1.827 1.5 4.649.26 8.848-4.84 16.642-25.05 21.474-34.13 23.644l-2.04.498 9.37-32.076a106 106 0 0 0 2.84-.787c6.75-1.923 18.45-5.255 22.94-1.027l-12.91-15.16c-2.57.799-4.91 1.349-6.73 1.776l-1.79.431 2.66-9.093z"/>
        <g class="C">
            <path fill="#ffb154"
                  d="m1310.14 438.971.04-.066-180.43-49.193-.04.063-9.03-2.457-30.45 47.944 8.66 3.029-92.12 145.025 180.44 49.195 94.08-139.013 9.49-3.557 30.45-47.946z"/>
            <path fill="#ffbf72"
                  d="m1194.06 407.619-64.8-17.668-.05.063-4.1-1.118c1.09 1.686.33 3.682-.77 5.31l-18.62 20.321.12.046v.001l.01.001c.3.119.66.263 1.03.54-.42-.143-.84-.285-1.2-.507l-8.73 9.538-7.21 11.355 8.66 3.029-27.3 42.975 12.65-13.802v.001l8.99 3.716-16.22 17.78 11.29 4.546 16.45-18.009c20.08 6.587 37.6 7.368 54.86-9.145 13.92-13.23 12.8-22.139 4.28-29.003 9.61-.537 18.89-4.586 26.46-14.329 4.69-6.026 5.73-11.164 4.2-15.641m-95.92 47.846c9.08 3.841 29.3 12.396 40.6-.01 11.58-12.609-8.21-19.994-17.93-23.623h-.01l-2.89-1.105-21.82 23.882zm66.22-35.874c-10.35 11.281-26.99 4.164-34.57.925l-1.79-.756 19.8-21.638c.65.267 1.48.572 2.41.918v.001c8.11 3.004 24.59 9.114 14.15 20.55m-158.08 163.963zl180.44 49.195 94.08-139.013 9.49-3.557 30.45-47.946-22.51 35.441-6.85 1.765-3.38 11.598-7.2 2.698-3.37 4.983 4.9-16.832-11.21 2.887-6.94 23.861-7.22 1.996.01-.093-15.53 4.048-4.51 15.553 8.17-2.15c4.56-1.198 5.01 1.892 4.55 4.766l-3.62 12.349-33.44 49.415c-.1-7.4-6.91-11.939-16.41-15.134l11.93-18.066-10.61-2.426-11.59 17.595-8.64-1.784 11.62-17.673-10.62-2.426-11.82 17.985-6.87-1.443.03-.078-14.72-3.323-7.7 11.729s7.95 1.648 7.75 1.729c4.33.969 4 3.9 2.91 6.235l-13.59 20.568.04.008.08.017c.28.063.62.138.98.332-.39-.067-.77-.135-1.13-.28l-5.79 8.777zm162.05 44.181-21.8-5.945.78-1.188a107 107 0 0 0 2.7.567l.01.002c5.3 1.071 13.81 2.789 18.31 6.564m20.12-7.47c1.76 1.006 3.24 2.133 4.41 3.408l4.62-6.83c-2.85 1.629-5.88 2.74-9.03 3.422m-1.68-16.032c-7.55 11.42-23.26 7.474-30.4 5.678l-1.7-.415 14.45-21.897c.62.143 1.39.297 2.26.472 7.58 1.514 23 4.592 15.39 16.162"/>
            <path fill="#401e34" d="m1290.71 490.054-200.45-54.848 4.9 8.96 185.1 50.953 120.53 134.402 9.4.771z"/>
            <path fill="url(#e)"
                  d="M1379.83-134.942c-57.69 24.709-109.29 67.029-145.99 124.802-8.13 12.808-11.7 26.962-11.36 42.009.94-5.318 2.79-10.21 5.58-14.601 6.22-9.797 16.68-16.38 30.55-19.952a72 72 0 0 1 5.59-10.649c29.78-46.874 70.44-90.791 115.63-121.609m417.02 272.162c-10.09 51.61-32.63 104.14-61.1 148.963a72.7 72.7 0 0 1-7.26 9.596c2.66 14.064 1.15 26.333-5.08 36.132-2.79 4.391-6.43 8.138-10.84 11.254 13.76-6.091 25.06-15.333 33.2-28.143 35.25-55.502 51.75-117.397 51.08-177.802m-151.69 36.529c121.01-192.319 89.42-261.033 23.5-302.9-65.91-41.867-141.54-41.258-264.18 150.026 58.14-23.038 228.52 82.455 240.68 152.874"/>
        </g>
        <path fill="url(#f)"
              d="M1668.68-129.286c65.91 41.867 97.5 110.581-23.51 302.9-3.73-21.62-22.38-46.545-48.11-70.043 21.76.468 38.15-7.063 46.94-30.16 9.97-25.878.81-41.356-17.83-51.858 14.08-2.729 24.73-11.582 28.01-30.141 4.54-25.442-14.43-39.866-40.91-49.856l9.79-34.46-20.89-5.906-9.45 33.568-16.87-4.429 9.46-33.718-20.89-5.906-9.63 34.314-13.43-3.571v-.15l-28.94-8.109-6.25 22.38 15.22 4.228c8.5 2.367 9.83 8.126 9.39 12.627l-11.13 39.234.22.062c.56.153 1.23.338 2.01.759-.75-.173-1.49-.347-2.24-.67l-14.09 49.856c-40.02-19.709-78.78-29.752-101.05-20.925 122.63-191.284 198.26-191.893 264.18-150.026"/>
        <path fill="url(#f)"
              d="M1550.29 67.426c-3.52-2.331-7.09-4.61-10.67-6.831l12.03-42.677c1.46.417 3.26.881 5.3 1.408 17.74 4.583 53.86 13.91 46.9 38.26-5.8 20.726-34.86 15.035-53.56 9.84M1561.06-2.266c14.17 4.296 45.3 13.737 51.49-8.047 6.21-22.072-23.83-29.769-38.6-33.553l-4.42-1.169-11.82 41.772 3.35.998z"/>
        <g class="C">
            <path d="M1720.84-69.418c16.8 47.178 2.01 119.7-75.68 243.16 55.19 23.578 84.06 70.703 83.33 122.034a72.7 72.7 0 0 0 7.26-9.595c74.47-117.247 108.33-287.202-14.91-355.599m-128.42-81.568c-111.14-78.3-253.74 20.401-328.22 137.65a73 73 0 0 0-5.6 10.657c39.79-24.661 94.77-21.997 145.88 23.557 78.74-122.805 138.1-167.019 187.94-171.863z"
                  class="B"/>
            <path fill="#401e34"
                  d="M1198.89 495.639c3.21 6.487 4.97 13.781 4.97 21.639 0 32.742-30.68 62.873-68.54 67.298-28.77 3.364-53.4-9.088-63.57-29.631l4.95 10.846c10.16 20.543 34.79 32.995 63.56 29.632 37.86-4.426 68.55-34.556 68.55-67.298 0-7.858-1.77-15.152-4.98-21.64z"/>
        </g>
        <path d="M1157.27 473.492c35.82 3.134 56.06 31.248 45.2 62.785s-48.71 54.568-84.53 51.434-56.06-31.247-45.2-62.784c10.85-31.537 48.7-54.568 84.53-51.435"
              class="I"/>
        <path d="M1172.78 524.959c4.29-8.159-1.37-13.269-10.14-17.085l7.04-10.967-7.2-2.371-6.85 10.721-5.81-1.814 6.95-10.713-7.19-2.371-7.04 10.966-4.65-1.451-9.94-3.308-4.64 7.17s5.35 1.688 5.23 1.764c2.93.954 2.87 2.864 2.28 4.293l-19.36 30.093c-.68.812-2.08 1.996-4.11 1.295.07.093-5.23-1.764-5.23-1.764l-6.55 7.527 9.33 3.08 5.13 1.755-7.19 11.128 7.19 2.371 7.04-10.967 5.75 1.983-7.04 10.967 7.19 2.372 7.17-11.043c12.49 3.357 22.77 3.385 30.64-6.813 6.3-8.244 4.43-13.459-1.38-17.276 5.37-.924 10.23-3.547 13.38-9.542m-25.33 20.427c-5.34 8.329-19.97 2.259-24.87.698l9.5-14.67c4.81 1.552 20.92 5.314 15.37 13.972m9.99-21.855c-4.88 7.584-17.05 2.426-21.15 1.11l8.56-13.36c4.09 1.317 17.6 4.327 12.59 12.25"
              class="B"/>
        <g clip-path="url(#l)">
            <circle cx="12.484" cy="12.484" r="12.299" stroke-width=".369" class="B O"
                    transform="matrix(-1 0 -.30902 .95106 1419.51 646.262)"/>
            <path fill="url(#g)"
                  d="M1400.11 654.375c.93 0 1.8.444 2.59 1.319a8 8 0 0 1 .89 1.214h-.01l-1.45 1.093c-.2-.342-.49-.808-.86-1.228-.71-.778-1.27-.942-1.63-.942-1.34 0-2.74.988-3.14 2.202-.39 1.206.38 2.194 1.71 2.202.06 0 .14-.008.25-.027-.45.156-.9.269-1.3.269-2.45 0-2.45-1.488-2.44-1.596.01-.272.07-.557.16-.851.66-2.013 3.01-3.655 5.23-3.655"/>
            <path fill="url(#h)"
                  d="M1406.29 661.697c-.93 0-1.8-.445-2.58-1.319a8 8 0 0 1-.89-1.214h.01l1.45-1.093a7.3 7.3 0 0 0 .86 1.227c.7.778 1.27.942 1.63.942 1.34-.002 2.74-.99 3.14-2.204.39-1.206-.38-2.194-1.71-2.202-.06 0-.14.008-.25.027.44-.156.9-.269 1.3-.269 2.45 0 2.44 1.488 2.44 1.593-.01.275-.07.557-.16.851-.66 2.019-3.01 3.661-5.24 3.661"/>
            <path d="M1397.18 660.445c1.26-.03 2.86-.95 3.2-1.179l3.15-2.32c1.56-1.214 3.58-2.571 5.14-2.571h.01c1.9.008 3.11 1.209 3.01 2.81 0-.105-.13-1.623-2.45-1.569-1.26.029-2.87.964-3.22 1.192l-3.15 2.321c-1.55 1.211-3.57 2.567-5.14 2.567-1.9-.008-3.11-1.208-3.02-2.81 0 .105.15 1.61 2.47 1.559"
                  class="H"/>
        </g>
        <path fill="#06f"
              d="M867.625 270.846c30.038 21.816 49.57 57.219 49.57 97.183 0 66.29-53.739 120.029-120.029 120.029-26.326 0-50.672-8.475-70.459-22.845-30.039-21.816-49.57-57.219-49.57-97.184 0-66.29 53.739-120.029 120.029-120.029a119.48 119.48 0 0 1 70.459 22.846"/>
        <path fill="#0754c8"
              d="M904.675 358.934c0-39.949-19.517-75.339-49.535-97.157l12.483 9.069c30.039 21.816 49.57 57.219 49.57 97.184 0 66.29-53.739 120.029-120.029 120.029-26.325 0-50.671-8.476-70.458-22.846l-12.518-9.095c19.787 14.37 44.133 22.845 70.458 22.845 66.29 0 120.029-53.739 120.029-120.029"/>
        <path d="m785.916 426.586-6.148 11.562a3.8 3.8 0 0 1-4.822 1.717 379 379 0 0 1-12.4-5.555 3.65 3.65 0 0 1-1.672-5.042l5.566-10.468-5.07-2.487-4.51-2.377-5.564 10.465c-.989 1.86-3.33 2.569-5.175 1.554a386 386 0 0 1-11.767-6.739 3.64 3.64 0 0 1-1.335-4.856l6.116-11.502c-24.637-17.989-37.012-41.038-20.973-70.918l3.897-7.33c15.832-30.059 42.198-33.325 71.375-23.873l6.112-11.495a3.8 3.8 0 0 1 4.829-1.715c4.1 1.753 8.232 3.617 12.389 5.569a3.65 3.65 0 0 1 1.668 5.041l-5.564 10.464 4.575 2.253 4.995 2.629 5.561-10.458c.989-1.862 3.333-2.57 5.177-1.552a377 377 0 0 1 11.762 6.755 3.64 3.64 0 0 1 1.33 4.852l-6.131 11.531c24.278 17.894 36.257 40.828 20.439 70.577l-3.898 7.33c-15.697 29.804-41.84 33.256-70.762 24.068m52.499-35.49 2.193-4.125c14.937-27.179-5.581-43.988-32.633-58.249-27.578-13.575-53.413-20.384-67.586 7.185l-2.193 4.125c-15.004 27.305 5.514 44.114 32.693 58.439 27.451 13.51 53.286 20.319 67.526-7.375"
              class="B C"/>
        <path fill="#fcffff"
              d="M760.732 272.42c.625 1.049 1.737 1.197 2.477.329s.833-2.419.197-3.465l-4.563-7.6c-.631-1.046-1.741-1.194-2.477-.328-.743.865-.833 2.415-.202 3.465zm131.925 132.721 1.69-12.586c.233-1.739-.346-3.347-1.296-3.597s-1.906.962-2.141 2.697l-1.692 12.586c-.234 1.742.345 3.35 1.296 3.597s1.91-.96 2.143-2.697m-180.255 24.36c.752.847.861 2.396.241 3.458l-4.467 7.707c-.618 1.066-1.724 1.239-2.477.39s-.859-2.396-.241-3.457l4.467-7.708c.618-1.066 1.724-1.239 2.477-.39m21.275 27.553c0-1.199.7-2.171 1.556-2.171s1.556.972 1.556 2.171-.697 2.171-1.556 2.171-1.556-.972-1.556-2.171m-15.725-161.469c.859 0 1.554-.973 1.554-2.171s-.695-2.172-1.554-2.172-1.556.973-1.556 2.172.701 2.171 1.556 2.171m16.108-9.639c.855 0 1.556-.973 1.556-2.171s-.701-2.171-1.556-2.171-1.556.972-1.556 2.171.697 2.171 1.556 2.171m141.996 1.656c.855 0 1.556-.973 1.556-2.172s-.701-2.171-1.556-2.171-1.556.973-1.556 2.171.697 2.172 1.556 2.172m-13.002 145.287 8.384-10.323c1.16-1.422 3.102-1.446 4.344-.047s1.312 3.686.154 5.112l-8.386 10.319c-1.164 1.427-3.102 1.447-4.343.048-1.249-1.397-1.313-3.685-.153-5.109M715.551 323.304l-8.384 10.323c-1.161 1.422-3.103 1.446-4.344.046s-1.313-3.685-.154-5.111l8.386-10.319c1.164-1.427 3.102-1.448 4.343-.049 1.248 1.397 1.312 3.686.153 5.11m112.471 124.447c.876 1.444 2.426 2.106 3.461 1.478s1.163-2.309.287-3.752-2.431-2.104-3.461-1.479-1.163 2.309-.287 3.753"/>
        <path fill="#67c7ac"
              d="M829.974 477.983c-.859 0-1.556.973-1.556 2.171s.697 2.172 1.556 2.172 1.556-.973 1.556-2.172-.701-2.171-1.556-2.171m30.679-205.402c-.846-.648-2.026.091-2.635 1.644l-4.399 11.233c-.608 1.556-.415 3.332.437 3.981.846.648 2.026-.088 2.635-1.638l4.399-11.239c.605-1.553.411-3.332-.437-3.981m-79.337-8.082c.859 0 1.556-.973 1.556-2.172s-.697-2.171-1.556-2.171-1.556.973-1.556 2.171.7 2.172 1.556 2.172m52.37 159.84c-.615 1.31-2.184 1.483-3.503.375l-9.552-8.02c-1.317-1.104-1.884-3.059-1.266-4.375.621-1.31 2.192-1.479 3.507-.369l9.55 8.017c1.321 1.106 1.888 3.061 1.264 4.372m-32-132.896c1.03-.625 2.583.035 3.457 1.477s.746 3.126-.284 3.751c-1.038.63-2.586-.034-3.462-1.478s-.748-3.121.289-3.75"/>
        <path fill="#f8cd7a"
              d="M820.438 267.001c.115-1.248 1.083-2.441 2.158-2.663l7.826-1.621c1.082-.223 1.864.606 1.749 1.853s-1.083 2.44-2.164 2.662l-7.827 1.621c-1.075.223-1.857-.606-1.742-1.852m25.001 1.477c0-1.198.695-2.171 1.556-2.171.855 0 1.554.973 1.554 2.171s-.699 2.171-1.554 2.171c-.861 0-1.556-.972-1.556-2.171m18.609 47.25c-.264-1.058.027-2.274.743-2.898l6.029-5.247c.833-.723 1.921-.384 2.432.759s.251 2.658-.583 3.382l-5.647 4.915.973.298c1.539.474 2.827 2.241 2.868 3.95s-1.185 2.708-2.726 2.231l-11.211-3.438c-1.548-.473-2.833-2.241-2.874-3.951s1.185-2.708 2.728-2.228zm25.115 109.87c-.855 0-1.554.973-1.554 2.172s.699 2.171 1.554 2.171c.862 0 1.557-.973 1.557-2.171s-.695-2.172-1.557-2.172m-22.94 16.875c1.045.998 2.332.908 2.881-.205s.139-2.82-.907-3.818l-7.567-7.244c-1.045-.997-2.334-.907-2.878.2-.549 1.115-.144 2.825.904 3.824zm-43.509 23.46c-.873.633-1.94.175-2.386-1.018s-.104-2.678.769-3.308l6.298-4.586c.868-.631 1.934-.179 2.38 1.017s.105 2.678-.763 3.31zm-58.422 10.246c.861 0 1.557-.973 1.557-2.171s-.696-2.171-1.557-2.171c-.855 0-1.554.972-1.554 2.171s.699 2.171 1.554 2.171m89.871-116.9c-.262.281-.589.448-.945.448-.857 0-1.556-.973-1.556-2.172s.699-2.172 1.556-2.172c.819 0 1.489.884 1.55 2.005a1.6 1.6 0 0 1 .25-.188c1.035-.628 2.583.036 3.46 1.48s.75 3.124-.285 3.752-2.585-.034-3.462-1.479a3.9 3.9 0 0 1-.568-1.674m-130.577 39.716c-1.035.628-2.583-.036-3.459-1.48s-.751-3.124.284-3.752 2.585.035 3.462 1.479.745 3.126-.287 3.753"/>
        <path fill="#f877c1"
              d="M902.912 384.933c.859 0 1.556-.972 1.556-2.172s-.697-2.171-1.556-2.171-1.556.972-1.556 2.171.7 2.172 1.556 2.172m-136.121 26.602c.855 0 1.556-.973 1.556-2.172s-.701-2.169-1.556-2.169-1.557.97-1.557 2.169.697 2.172 1.557 2.172m-85.134-26.602c.859 0 1.556-.972 1.556-2.172s-.697-2.171-1.556-2.171-1.557.972-1.557 2.171.701 2.172 1.557 2.172m1.913-38.958c-.942-.27-1.918.916-2.174 2.648l-1.84 12.545c-.254 1.734.312 3.361 1.254 3.626s1.923-.911 2.174-2.646l1.84-12.544c.254-1.732-.306-3.356-1.254-3.629m107.437-40.023-5.483 10.266c-.756 1.419-.741 3.219.031 4.026s2.019.313 2.773-1.11l5.482-10.263c.756-1.419.743-3.224-.031-4.031s-2.017-.304-2.772 1.112m113.818 40.023c-.943-.27-1.918.916-2.174 2.648l-1.84 12.545c-.255 1.734.311 3.361 1.253 3.626s1.924-.911 2.174-2.646l1.84-12.544c.255-1.732-.306-3.356-1.253-3.629M783.073 466.929c-.784-.588-2.118.173-2.973 1.701l-6.184 11.069c-.855 1.53-.904 3.252-.118 3.835.788.589 2.121-.167 2.973-1.699l6.183-11.069c.854-1.528.908-3.245.119-3.837m61.425-135.976c-.855 0-1.556.973-1.556 2.172s.701 2.169 1.556 2.169 1.556-.97 1.556-2.169-.697-2.172-1.556-2.172m21.047 67.277c-1.03.625-2.585-.034-3.461-1.479s-.742-3.124.288-3.75 2.584.032 3.46 1.476.748 3.125-.287 3.753M713.06 357.966c1.031-.626 2.585.034 3.462 1.478s.741 3.125-.289 3.75-2.583-.031-3.46-1.475-.748-3.125.287-3.753"/>
        <path fill="#dc7266"
              d="M826.856 293.414c.859 0 1.554-.972 1.554-2.171s-.695-2.172-1.554-2.172-1.556.973-1.556 2.172.7 2.171 1.556 2.171m87.823 62.314c-.856 0-1.556-.973-1.556-2.172s.7-2.172 1.556-2.172 1.554.973 1.554 2.172-.695 2.172-1.554 2.172m-61.625 21.469c0 1.197-.695 2.169-1.556 2.169-.855 0-1.554-.972-1.554-2.169s.699-2.172 1.554-2.172c.861 0 1.556.973 1.556 2.172m-154.892 11.727c0-1.199-.7-2.171-1.556-2.171s-1.554.972-1.554 2.171.695 2.172 1.554 2.172 1.556-.972 1.556-2.172m86.267 60.143c-.859 0-1.554.972-1.554 2.171s.695 2.171 1.554 2.171 1.556-.972 1.556-2.171-.7-2.171-1.556-2.171m61.472-4.147c0 1.199.701 2.171 1.556 2.171s1.557-.972 1.557-2.171-.697-2.171-1.557-2.171-1.556.972-1.556 2.171m-105.889-23.525c-1.037.629-2.585-.035-3.46-1.476s-.75-3.124.287-3.753c1.031-.625 2.583.036 3.459 1.48s.744 3.123-.286 3.749m98.58-86.601c1.037-.629 2.585.035 3.46 1.476s.75 3.124-.287 3.753c-1.031.625-2.583-.036-3.46-1.48s-.743-3.123.287-3.749m-131.718-34.932c-1.035.628-2.583-.035-3.459-1.479s-.75-3.123.285-3.751 2.585.034 3.461 1.478.743 3.127-.287 3.752m179.521 23.354c0-1.2.696-2.172 1.557-2.172.855 0 1.554.972 1.554 2.172s-.699 2.169-1.554 2.169c-.861 0-1.557-.97-1.557-2.169"/>
        <g clip-path="url(#m)">
            <rect width="686.775" height="107.309" x="456.612" y="453.346" fill="#eaf2ff" rx="53.654"/>
            <g filter="url(#G)">
                <rect width="666.564" height="95.19" x="463.34" y="459.406" fill="#eaf2ff" rx="47.595"/>
            </g>
            <g filter="url(#H)">
                <rect width="514.486" height="95.19" x="463.34" y="459.406" fill="#0166ff" rx="47.595"/>
            </g>
            <rect width="511.313" height="92.017" x="464.926" y="460.993" stroke="#0166ff" stroke-width="3.173"
                  rx="46.008"/>
            <path d="M536.403 518.098h-18.784v-29.996h18.784v5.5h-12.946v6.854h11.719v5.204h-11.719v6.938h12.946zm10.46 8.038h-5.627v-28.853h5.458v2.538c.93-1.607 3.257-3.004 6.388-3.004 6.092 0 9.604 4.654 9.604 10.831 0 6.304-3.935 10.957-9.816 10.957-2.876 0-4.992-1.142-6.007-2.538zm10.28-18.446c0-3.68-2.284-5.838-5.161-5.838s-5.204 2.158-5.204 5.838 2.327 5.881 5.204 5.881 5.161-2.158 5.161-5.881m15.707 10.408h-5.627v-20.815h5.627zm-6.304-27.627c0-1.946 1.566-3.511 3.47-3.511 1.946 0 3.469 1.565 3.469 3.511 0 1.862-1.523 3.427-3.469 3.427-1.904 0-3.47-1.565-3.47-3.427m10.643 21.831 4.823-1.058c.127 1.65 1.354 3.173 3.807 3.173 1.862 0 2.75-.973 2.75-2.073 0-.931-.634-1.692-2.242-2.031l-2.75-.634c-4.019-.889-5.838-3.3-5.838-6.219 0-3.723 3.3-6.812 7.784-6.812 5.923 0 7.912 3.766 8.165 6.008l-4.696 1.057c-.169-1.226-1.057-2.792-3.426-2.792-1.481 0-2.666.889-2.666 2.073 0 1.016.762 1.65 1.904 1.862l2.961.634c4.104.846 6.177 3.343 6.177 6.389 0 3.384-2.623 6.853-8.08 6.853-6.262 0-8.419-4.061-8.673-6.43m30.956 1.311c2.75 0 5.288-1.988 5.288-5.923s-2.538-5.923-5.288-5.923-5.289 1.989-5.289 5.923c0 3.892 2.539 5.923 5.289 5.923m0-16.965c6.219 0 10.915 4.612 10.915 11.042 0 6.389-4.696 11.042-10.915 11.042s-10.915-4.653-10.915-11.042c0-6.43 4.696-11.042 10.915-11.042m35.529-9.18v26.864c0 1.396.084 2.92.169 3.766h-5.373c-.085-.423-.212-1.439-.212-2.412-.93 1.65-3.046 2.919-5.838 2.919-5.923 0-10.153-4.653-10.153-10.957 0-6.092 4.103-10.873 9.984-10.873 3.596 0 5.288 1.481 5.88 2.581v-11.888zm-15.738 20.18c0 3.723 2.2 5.923 5.161 5.923 2.877 0 5.119-2.2 5.119-5.965 0-3.723-2.242-5.796-5.119-5.796s-5.161 2.115-5.161 5.838m25.946-2.327h9.308c-.085-2.073-1.439-4.104-4.654-4.104-2.919 0-4.527 2.2-4.654 4.104m9.858 5.415 4.696 1.396c-1.058 3.596-4.358 6.6-9.477 6.6-5.711 0-10.746-4.103-10.746-11.126 0-6.643 4.908-10.958 10.239-10.958 6.43 0 10.28 4.104 10.28 10.788 0 .804-.085 1.65-.085 1.735h-14.892c.127 2.75 2.454 4.738 5.247 4.738 2.623 0 4.061-1.311 4.738-3.173m17.929 1.481v-6.092l11.549-15.484h7.192v16.584h4.527v4.992h-4.527v5.881h-5.753v-5.881zm12.988-4.992v-10.492l-7.827 10.492zm30.026 10.873h-5.627v-20.815h5.627zm-6.304-27.627c0-1.946 1.565-3.511 3.469-3.511 1.946 0 3.469 1.565 3.469 3.511 0 1.862-1.523 3.427-3.469 3.427-1.904 0-3.469-1.565-3.469-3.427m10.643 21.831 4.822-1.058c.127 1.65 1.354 3.173 3.808 3.173 1.862 0 2.75-.973 2.75-2.073 0-.931-.635-1.692-2.242-2.031l-2.75-.634c-4.019-.889-5.838-3.3-5.838-6.219 0-3.723 3.299-6.812 7.784-6.812 5.923 0 7.911 3.766 8.165 6.008l-4.696 1.057c-.169-1.226-1.058-2.792-3.427-2.792-1.48 0-2.665.889-2.665 2.073 0 1.016.761 1.65 1.904 1.862l2.961.634c4.104.846 6.177 3.343 6.177 6.389 0 3.384-2.623 6.853-8.081 6.853-6.261 0-8.419-4.061-8.672-6.43m40.995-10.45c-2.877 0-5.288 2.073-5.288 5.838s2.453 5.881 5.33 5.881 4.316-1.904 4.781-3.512l4.95 1.65c-.931 3.47-4.189 7.023-9.731 7.023-6.134 0-10.957-4.653-10.957-11.042 0-6.43 4.738-11.042 10.788-11.042 5.669 0 8.884 3.512 9.773 7.023l-5.035 1.692c-.507-1.734-1.819-3.511-4.611-3.511m23.508 11.761c2.75 0 5.289-1.988 5.289-5.923s-2.539-5.923-5.289-5.923-5.288 1.989-5.288 5.923c0 3.892 2.538 5.923 5.288 5.923m0-16.965c6.219 0 10.915 4.612 10.915 11.042 0 6.389-4.696 11.042-10.915 11.042s-10.915-4.653-10.915-11.042c0-6.43 4.696-11.042 10.915-11.042m21.018 21.45h-5.627v-20.815h5.373v2.538c1.142-2.031 3.808-3.13 6.092-3.13 2.835 0 5.119 1.226 6.177 3.469 1.65-2.539 3.85-3.469 6.6-3.469 3.85 0 7.53 2.326 7.53 7.911v13.496h-5.457v-12.354c0-2.242-1.1-3.934-3.681-3.934-2.411 0-3.85 1.861-3.85 4.103v12.185h-5.584v-12.354c0-2.242-1.142-3.934-3.681-3.934-2.454 0-3.892 1.819-3.892 4.103zm37.307 0h-5.626v-20.815h5.626zm-6.303-27.627c0-1.946 1.565-3.511 3.469-3.511 1.946 0 3.469 1.565 3.469 3.511 0 1.862-1.523 3.427-3.469 3.427-1.904 0-3.469-1.565-3.469-3.427m17.665 15.654v11.973h-5.627v-20.815h5.458v2.581c1.269-2.158 3.765-3.131 6.007-3.131 5.162 0 7.531 3.681 7.531 8.25v13.115h-5.627v-12.142c0-2.327-1.142-4.146-3.85-4.146-2.454 0-3.892 1.903-3.892 4.315M880.9 519.24l5.076-1.354c.381 2.285 2.2 3.935 4.866 3.935 3.553 0 5.542-1.777 5.542-5.796v-1.523c-.846 1.353-2.792 2.665-5.796 2.665-5.542 0-9.688-4.273-9.688-10.111 0-5.5 3.976-10.154 9.688-10.154 3.3 0 5.203 1.438 5.923 2.835v-2.454h5.415v18.572c0 5.712-3.088 10.916-10.915 10.916-5.712 0-9.519-3.554-10.111-7.531m10.661-6.896c2.877 0 4.907-2.073 4.907-5.288s-2.2-5.246-4.907-5.246c-2.792 0-4.992 2.03-4.992 5.246 0 3.257 2.073 5.288 4.992 5.288m15.167 2.2a3.865 3.865 0 0 1 3.85-3.85c2.158 0 3.892 1.735 3.892 3.85s-1.734 3.85-3.892 3.85a3.865 3.865 0 0 1-3.85-3.85m11.651 0a3.865 3.865 0 0 1 3.85-3.85c2.158 0 3.892 1.735 3.892 3.85s-1.734 3.85-3.892 3.85a3.865 3.865 0 0 1-3.85-3.85m11.651 0a3.865 3.865 0 0 1 3.85-3.85c2.158 0 3.892 1.735 3.892 3.85s-1.734 3.85-3.892 3.85a3.865 3.865 0 0 1-3.85-3.85"
                  class="B"/>
            <path fill="#fcffff"
                  d="M785.663 485.895c2.364 2.278 6.569 2.6 9.366.713 2.81-1.879 3.152-5.251.746-7.522l-17.26-16.502c-2.385-2.272-6.583-2.593-9.365-.713-2.811 1.879-3.152 5.245-.767 7.523zm498.967 288.186 6.39-27.329c.88-3.777-1.31-7.269-4.9-7.811-3.59-.548-7.21 2.09-8.1 5.856l-6.4 27.328c-.88 3.783 1.3 7.275 4.9 7.812 3.59.542 7.23-2.084 8.11-5.856m-681.764 52.892c2.845 1.84 3.257 5.203.914 7.51l-16.897 16.734c-2.337 2.315-6.521 2.691-9.366.848-2.845-1.837-3.25-5.202-.914-7.508l16.897-16.736c2.337-2.315 6.521-2.691 9.366-.848m80.467 59.829c0-2.603 2.65-4.715 5.886-4.715 3.249 0 5.885 2.112 5.885 4.715s-2.636 4.714-5.885 4.714c-3.236 0-5.886-2.112-5.886-4.714m-59.474-350.607c3.25 0 5.879-2.112 5.879-4.714s-2.629-4.716-5.879-4.716c-3.235 0-5.885 2.113-5.885 4.716s2.65 4.714 5.885 4.714m50.923-50.93c3.236 0 5.886-2.112 5.886-4.715s-2.65-4.714-5.886-4.714c-3.25 0-5.886 2.112-5.886 4.714s2.636 4.715 5.886 4.715m547.058 33.595c3.24 0 5.89-2.112 5.89-4.715s-2.65-4.715-5.89-4.715c-3.25 0-5.89 2.112-5.89 4.715s2.64 4.715 5.89 4.715m-49.18 315.47 31.71-22.414c4.39-3.088 11.74-3.14 16.43-.101 4.71 3.03 4.97 8.002.59 11.098l-31.72 22.407c-4.4 3.098-11.74 3.142-16.43.105-4.72-3.033-4.96-8.003-.58-11.095M614.778 596.382l-31.71 22.414c-4.39 3.088-11.736 3.14-16.43.102-4.708-3.031-4.964-8.003-.583-11.099l31.718-22.406c4.402-3.098 11.733-3.143 16.425-.106 4.723 3.034 4.965 8.003.58 11.095m425.392 270.22c3.31 3.134 9.17 4.572 13.09 3.208 3.89-1.357 4.4-5.013 1.08-8.147-3.31-3.135-9.19-4.567-13.09-3.21-3.91 1.364-4.4 5.014-1.08 8.149"/>
            <path fill="#67c7ac"
                  d="M1047.55 932.248c-3.25 0-5.89 2.111-5.89 4.715s2.64 4.714 5.89 4.714c3.23 0 5.88-2.112 5.88-4.714s-2.65-4.715-5.88-4.715m116.03-446.001c-3.2-1.409-7.66.197-9.96 3.569l-16.64 24.391c-2.3 3.378-1.57 7.235 1.65 8.643 3.2 1.408 7.67-.19 9.97-3.556l16.64-24.403c2.28-3.373 1.55-7.236-1.66-8.644m-300.066-17.55c3.249 0 5.885-2.112 5.885-4.715s-2.636-4.714-5.885-4.714c-3.236 0-5.886 2.111-5.886 4.714s2.65 4.715 5.886 4.715m198.076 347.071c-2.33 2.845-8.26 3.218-13.25.813l-36.13-17.414c-4.98-2.398-7.12-6.642-4.79-9.5 2.35-2.844 8.29-3.211 13.27-.8l36.12 17.407c4.99 2.402 7.14 6.647 4.78 9.494M940.557 527.202c3.897-1.358 9.769.077 13.077 3.206 3.314 3.137 2.82 6.789-1.077 8.147-3.923 1.366-9.778-.074-13.093-3.211-3.307-3.129-2.829-6.776 1.093-8.142m379.263-90.228c-3.25 0-5.88-2.112-5.88-4.715s2.63-4.714 5.88-4.714c3.24 0 5.89 2.111 5.89 4.714s-2.65 4.715-5.89 4.715m116.04 446.001c-3.2 1.408-7.66-.197-9.97-3.569l-16.63-24.391c-2.31-3.379-1.57-7.235 1.65-8.643 3.2-1.408 7.66.19 9.96 3.556l16.64 24.403c2.29 3.372 1.56 7.236-1.65 8.644m-300.07 17.55c3.25 0 5.89 2.112 5.89 4.715s-2.64 4.714-5.89 4.714c-3.24 0-5.89-2.111-5.89-4.714s2.65-4.715 5.89-4.715m198.08-347.071c-2.33-2.845-8.27-3.219-13.26-.814l-36.12 17.414c-4.98 2.399-7.13 6.643-4.79 9.501 2.35 2.844 8.29 3.211 13.26.8l36.12-17.407c5-2.403 7.14-6.647 4.79-9.494M1212.83 842.02c3.9 1.357 9.77-.077 13.08-3.207 3.31-3.136 2.82-6.789-1.08-8.146-3.92-1.367-9.77.074-13.09 3.21-3.31 3.13-2.83 6.776 1.09 8.143"/>
            <path fill="#f8cd7a"
                  d="M1011.48 474.123c.44-2.71 4.1-5.299 8.17-5.783l29.6-3.519c4.09-.484 7.04 1.316 6.61 4.023-.44 2.709-4.1 5.298-8.19 5.781l-29.6 3.52c-4.06.484-7.02-1.316-6.59-4.022m94.56 3.208c0-2.603 2.63-4.715 5.89-4.715 3.23 0 5.88 2.112 5.88 4.715s-2.65 4.714-5.88 4.714c-3.26 0-5.89-2.112-5.89-4.714m70.39 102.595c-1-2.296.1-4.937 2.8-6.291l22.81-11.393c3.15-1.571 7.26-.834 9.2 1.648 1.93 2.484.94 5.771-2.21 7.342l-21.36 10.672 3.68.648c5.83 1.029 10.7 4.865 10.85 8.578.14 3.708-4.48 5.88-10.31 4.844l-42.4-7.466c-5.86-1.026-10.72-4.866-10.87-8.578-.15-3.706 4.48-5.881 10.32-4.838zm94.99 238.569c-3.24 0-5.88 2.112-5.88 4.715s2.64 4.714 5.88 4.714c3.25 0 5.88-2.112 5.88-4.714s-2.63-4.715-5.88-4.715m-86.77 36.641c3.95 2.167 8.82 1.97 10.9-.446 2.06-2.409.52-6.122-3.43-8.289l-28.62-15.729c-3.96-2.167-8.83-1.97-10.89.433-2.08 2.422-.54 6.135 3.42 8.303zm-164.56 50.939c-3.3 1.375-7.34.381-9.02-2.209-1.69-2.599-.39-5.815 2.9-7.183l23.83-9.959c3.28-1.369 7.31-.387 9 2.21s.4 5.814-2.89 7.186zm-220.96 22.248c3.256 0 5.885-2.111 5.885-4.714s-2.629-4.714-5.885-4.714c-3.236 0-5.879 2.111-5.879 4.714s2.643 4.714 5.879 4.714m339.91-253.83c-.99.609-2.23.971-3.58.971-3.24 0-5.88-2.112-5.88-4.716s2.64-4.716 5.88-4.716c3.1 0 5.64 1.919 5.87 4.354a7 7 0 0 1 .94-.408c3.92-1.364 9.77.077 13.09 3.213 3.31 3.136 2.83 6.783-1.08 8.147s-9.78-.075-13.09-3.211c-1.26-1.188-1.97-2.451-2.15-3.634M645.169 760.73c-3.914 1.363-9.769-.078-13.084-3.214s-2.837-6.783 1.077-8.146c3.906-1.361 9.778.074 13.093 3.21s2.82 6.789-1.086 8.15"/>
            <path fill="#f877c1"
                  d="M1323.41 730.199c3.25 0 5.89-2.112 5.89-4.716s-2.64-4.716-5.89-4.716c-3.23 0-5.88 2.112-5.88 4.716s2.65 4.716 5.88 4.716m-514.833 57.762c3.236 0 5.886-2.112 5.886-4.716s-2.65-4.711-5.886-4.711c-3.249 0-5.885 2.107-5.885 4.711s2.636 4.716 5.885 4.716m-321.993-57.762c3.249 0 5.885-2.112 5.885-4.716s-2.636-4.716-5.885-4.716c-3.236 0-5.886 2.112-5.886 4.716s2.65 4.716 5.886 4.716m7.236-84.592c-3.563-.587-7.252 1.989-8.222 5.75l-6.959 27.239c-.963 3.766 1.178 7.297 4.742 7.873 3.577.587 7.273-1.978 8.222-5.744l6.959-27.24c.963-3.76-1.157-7.286-4.742-7.878m406.35-86.905-20.739 22.292c-2.859 3.08-2.804 6.99.118 8.742s7.636.68 10.489-2.411l20.732-22.285c2.859-3.081 2.81-7-.119-8.752-2.914-1.746-7.629-.661-10.481 2.414m430.48 86.905c-3.56-.587-7.25 1.989-8.22 5.75l-6.96 27.239c-.96 3.766 1.18 7.297 4.74 7.873 3.58.587 7.27-1.978 8.22-5.744l6.96-27.24c.96-3.76-1.16-7.286-4.74-7.878M870.161 908.24c-2.966-1.276-8.01.378-11.247 3.694l-23.386 24.036c-3.233 3.323-3.421 7.06-.447 8.326 2.98 1.279 8.023-.363 11.244-3.689l23.386-24.035c3.229-3.318 3.433-7.046.45-8.332m232.319-295.252c-3.23 0-5.88 2.112-5.88 4.716s2.65 4.711 5.88 4.711c3.25 0 5.89-2.107 5.89-4.711s-2.64-4.716-5.89-4.716m79.61 146.083c-3.9 1.357-9.78-.075-13.1-3.211-3.31-3.136-2.8-6.785 1.1-8.142 3.91-1.364 9.77.067 13.08 3.203 3.32 3.136 2.83 6.786-1.08 8.15m-576.732-87.428c3.897-1.358 9.778.074 13.092 3.21s2.805 6.785-1.092 8.143c-3.914 1.363-9.771-.068-13.085-3.204s-2.829-6.786 1.085-8.149"/>
            <path fill="#dc7266"
                  d="M1035.76 531.482c3.25 0 5.88-2.111 5.88-4.714s-2.63-4.715-5.88-4.715c-3.23 0-5.88 2.112-5.88 4.715s2.65 4.714 5.88 4.714m332.17 135.306c-3.24 0-5.89-2.112-5.89-4.715s2.65-4.716 5.89-4.716c3.25 0 5.87 2.112 5.87 4.716s-2.62 4.715-5.87 4.715m-233.08 46.618c0 2.598-2.63 4.71-5.89 4.71-3.23 0-5.88-2.112-5.88-4.71 0-2.604 2.65-4.716 5.88-4.716 3.26 0 5.89 2.112 5.89 4.716M549.016 738.87c0-2.604-2.65-4.716-5.885-4.716-3.25 0-5.879 2.112-5.879 4.716s2.629 4.716 5.879 4.716c3.235 0 5.885-2.112 5.885-4.716m326.279 130.591c-3.25 0-5.879 2.111-5.879 4.714s2.629 4.715 5.879 4.715c3.236 0 5.886-2.113 5.886-4.715s-2.65-4.714-5.886-4.714m232.505-9.005c0 2.603 2.65 4.715 5.88 4.715 3.25 0 5.89-2.112 5.89-4.715s-2.64-4.714-5.89-4.714c-3.23 0-5.88 2.112-5.88 4.714m-400.5-51.082c-3.922 1.366-9.778-.074-13.085-3.204-3.315-3.136-2.837-6.783 1.085-8.149 3.897-1.358 9.769.077 13.084 3.213 3.308 3.13 2.813 6.782-1.084 8.14m372.85-188.04c3.92-1.366 9.78.075 13.08 3.204 3.32 3.136 2.84 6.783-1.08 8.149-3.9 1.358-9.77-.077-13.08-3.213-3.31-3.129-2.82-6.782 1.08-8.14m-498.185-75.851c-3.914 1.363-9.767-.076-13.081-3.212s-2.836-6.781 1.078-8.145c3.897-1.357 9.778.075 13.091 3.209s2.809 6.79-1.088 8.148m678.985 50.709c0-2.603 2.63-4.716 5.89-4.716 3.23 0 5.88 2.113 5.88 4.716s-2.65 4.711-5.88 4.711c-3.26 0-5.89-2.107-5.89-4.711"/>
        </g>
    </g>
    <defs>
        <linearGradient id="I" x1="800" x2="800" y1="-87.851" y2="858.333" href="#n">
            <stop stop-color="#0061d8"/>
            <stop offset=".526" stop-color="#97cffc"/>
            <stop offset="1" stop-color="#daf1ff"/>
        </linearGradient>
        <linearGradient id="J" x1="134.602" x2="248.462" y1="54.9" y2="211.004" href="#n">
            <stop stop-color="#3579de"/>
            <stop offset="1" stop-color="#f0e2ff"/>
        </linearGradient>
        <linearGradient id="K" x1="104.565" x2="-19.752" y1="80.381" y2="-117.703" href="#n">
            <stop stop-color="#06f"/>
            <stop offset="1" stop-color="#003d99"/>
        </linearGradient>
        <linearGradient id="L" x1="46.853" x2="39.433" y1="439.362" y2="455.655" href="#n">
            <stop stop-color="#c2aaf2"/>
            <stop offset="1" stop-color="#fff"/>
        </linearGradient>
        <linearGradient id="N" x1="22.306" x2="26.458" y1="521.08" y2="526.071" href="#n">
            <stop offset=".21" stop-color="#f15a24"/>
            <stop offset=".684" stop-color="#fbb03b"/>
        </linearGradient>
        <linearGradient id="O" x1="18.624" x2="14.472" y1="526.154" y2="521.162" href="#n">
            <stop offset=".21" stop-color="#ed1e79"/>
            <stop offset=".893" stop-color="#522785"/>
        </linearGradient>
        <linearGradient id="P" x1="103.938" x2="98.51" y1="464.597" y2="484.424" href="#n">
            <stop stop-color="#d6c8a1"/>
            <stop offset="1" stop-color="#fff"/>
        </linearGradient>
        <linearGradient id="R" x1="184.759" x2="178.347" y1="428.927" y2="475.194" href="#n">
            <stop stop-color="#3579de"/>
            <stop offset="1" stop-color="#e2eeff"/>
        </linearGradient>
        <linearGradient id="S" x1="179.239" x2="189.046" y1="406.128" y2="346.301" href="#n">
            <stop stop-color="#06f"/>
            <stop offset="1" stop-color="#003d99"/>
        </linearGradient>
        <linearGradient id="T" x1="419.339" x2="446.356" y1="418.215" y2="434.574" href="#n">
            <stop offset=".21" stop-color="#f15a24"/>
            <stop offset=".684" stop-color="#fbb03b"/>
        </linearGradient>
        <linearGradient id="U" x1="414.07" x2="387.053" y1="441.453" y2="425.094" href="#n">
            <stop offset=".21" stop-color="#ed1e79"/>
            <stop offset=".893" stop-color="#522785"/>
        </linearGradient>
        <linearGradient id="V" x1="633.93" x2="623.138" y1="102.998" y2="144.416" href="#n">
            <stop stop-color="#a48de7"/>
            <stop offset="1" stop-color="#bdadec"/>
        </linearGradient>
        <linearGradient id="W" x1="644.848" x2="699.774" y1="118.603" y2="104.935" href="#n">
            <stop stop-color="#957ae2"/>
            <stop offset="1" stop-color="#6452ae"/>
        </linearGradient>
        <linearGradient id="X" x1="596.128" x2="599.393" y1="210.192" y2="214.597" href="#n">
            <stop offset=".21" stop-color="#f15a24"/>
            <stop offset=".684" stop-color="#fbb03b"/>
        </linearGradient>
        <linearGradient id="Y" x1="591.409" x2="588.144" y1="215.317" y2="210.912" href="#n">
            <stop offset=".21" stop-color="#ed1e79"/>
            <stop offset=".893" stop-color="#522785"/>
        </linearGradient>
        <linearGradient id="Z" x1="1558.79" x2="1562.91" y1="555.883" y2="585.578" href="#n">
            <stop stop-color="#3579de"/>
            <stop offset="1" stop-color="#e2eeff"/>
        </linearGradient>
        <linearGradient id="a" x1="1562.33" x2="1556.04" y1="541.248" y2="502.849" href="#n">
            <stop stop-color="#06f"/>
            <stop offset="1" stop-color="#003d99"/>
        </linearGradient>
        <linearGradient id="b" x1="1448.55" x2="1451.25" y1="528.726" y2="557.056" href="#n">
            <stop stop-color="#c2aaf2"/>
            <stop offset="1" stop-color="#fff"/>
        </linearGradient>
        <linearGradient id="d" x1="1515.54" x2="1363.78" y1="28.673" y2="236.346" href="#n">
            <stop stop-color="#d6c8a1"/>
            <stop offset="1" stop-color="#f7e2ff"/>
        </linearGradient>
        <linearGradient id="g" x1="1402.06" x2="1395.03" y1="654.858" y2="660.393" href="#n">
            <stop offset=".21" stop-color="#f15a24"/>
            <stop offset=".684" stop-color="#fbb03b"/>
        </linearGradient>
        <linearGradient id="h" x1="1404.35" x2="1411.38" y1="661.214" y2="655.678" href="#n">
            <stop offset=".21" stop-color="#ed1e79"/>
            <stop offset=".893" stop-color="#522785"/>
        </linearGradient>
        <linearGradient id="n" gradientUnits="userSpaceOnUse"/>
        <filter id="A" width="23.915" height="23.375" x="7.799" y="511.788" class="D" filterUnits="userSpaceOnUse">
            <feFlood class="E" result="A"/>
            <feColorMatrix in="SourceAlpha" result="B" values="0 0 0 0 0 0 0 0 0 0 0 0 0 0 0 0 0 0 127 0"/>
            <feOffset dx="-1.445"/>
            <feComposite in2="B" operator="out"/>
            <feColorMatrix values="0 0 0 0 0 0 0 0 0 0 0 0 0 0 0 0 0 0 0.25 0"/>
            <feBlend in2="A"/>
            <feBlend in="SourceGraphic"/>
        </filter>
        <filter id="B" width="21.936" height="24.722" x="9.51" y="514.005" class="D" filterUnits="userSpaceOnUse">
            <feFlood class="E" result="A"/>
            <feColorMatrix in="SourceAlpha" result="B" values="0 0 0 0 0 0 0 0 0 0 0 0 0 0 0 0 0 0 127 0"/>
            <feOffset dy="2.89"/>
            <feGaussianBlur stdDeviation="1.445"/>
            <feComposite in2="B" operator="out"/>
            <feColorMatrix values="0 0 0 0 0 0 0 0 0 0 0 0 0 0 0 0 0 0 0.25 0"/>
            <feBlend in2="A"/>
            <feBlend in="SourceGraphic"/>
        </filter>
        <filter id="C" width="20.301" height="25.797" x="77.531" y="552.084" class="D" filterUnits="userSpaceOnUse">
            <feFlood class="E" result="A"/>
            <feColorMatrix in="SourceAlpha" result="B" values="0 0 0 0 0 0 0 0 0 0 0 0 0 0 0 0 0 0 127 0"/>
            <feOffset dx=".726" dy=".726"/>
            <feComposite in2="B" operator="out"/>
            <feColorMatrix values="0 0 0 0 0.262745 0 0 0 0 0.156863 0 0 0 0 0.0235294 0 0 0 1 0"/>
            <feBlend in2="A"/>
            <feBlend in="SourceGraphic"/>
        </filter>
        <filter id="D" width="38.88" height="52.745" x="160.482" y="535.84" class="D" filterUnits="userSpaceOnUse">
            <feFlood class="E" result="A"/>
            <feColorMatrix in="SourceAlpha" result="B" values="0 0 0 0 0 0 0 0 0 0 0 0 0 0 0 0 0 0 127 0"/>
            <feOffset dy="1.453"/>
            <feComposite in2="B" operator="out"/>
            <feColorMatrix values="0 0 0 0 0.101961 0 0 0 0 0.392157 0 0 0 0 0.709804 0 0 0 1 0"/>
            <feBlend in2="A"/>
            <feBlend in="SourceGraphic"/>
        </filter>
        <filter id="E" width="45.064" height="46.25" x="573.657" y="187.286" class="D" filterUnits="userSpaceOnUse">
            <feFlood class="E"/>
            <feBlend in="SourceGraphic" result="B"/>
            <feColorMatrix in="SourceAlpha" result="C" values="0 0 0 0 0 0 0 0 0 0 0 0 0 0 0 0 0 0 127 0"/>
            <feOffset dy="2.54"/>
            <feGaussianBlur stdDeviation="8.889"/>
            <feComposite in2="C" k2="-1" k3="1" operator="arithmetic"/>
            <feColorMatrix values="0 0 0 0 1 0 0 0 0 1 0 0 0 0 1 0 0 0 0.19 0"/>
            <feBlend in2="B"/>
        </filter>
        <filter id="F" width="27.256" height="23.546" x="1509.15" y="637.689" class="D" filterUnits="userSpaceOnUse">
            <feFlood class="E" result="A"/>
            <feColorMatrix in="SourceAlpha" result="B" values="0 0 0 0 0 0 0 0 0 0 0 0 0 0 0 0 0 0 127 0"/>
            <feOffset dy=".801"/>
            <feComposite in2="B" operator="out"/>
            <feColorMatrix values="0 0 0 0 0.254902 0 0 0 0 0.592157 0 0 0 0 0.964706 0 0 0 1 0"/>
            <feBlend in2="A"/>
            <feBlend in="SourceGraphic"/>
        </filter>
        <filter id="G" width="666.563" height="95.19" x="463.34" y="459.406" class="D" filterUnits="userSpaceOnUse">
            <feFlood class="E"/>
            <feBlend in="SourceGraphic" result="B"/>
            <feColorMatrix in="SourceAlpha" result="C" values="0 0 0 0 0 0 0 0 0 0 0 0 0 0 0 0 0 0 127 0"/>
            <feOffset dy="7.154"/>
            <feComposite in2="C" k2="-1" k3="1" operator="arithmetic"/>
            <feColorMatrix values="0 0 0 0 0.701961 0 0 0 0 0.8 0 0 0 0 0.964706 0 0 0 0.6 0"/>
            <feBlend in2="B" result="D"/>
            <feColorMatrix in="SourceAlpha" result="C" values="0 0 0 0 0 0 0 0 0 0 0 0 0 0 0 0 0 0 127 0"/>
            <feOffset dy="-4.769"/>
            <feComposite in2="C" k2="-1" k3="1" operator="arithmetic"/>
            <feColorMatrix values="0 0 0 0 1 0 0 0 0 1 0 0 0 0 1 0 0 0 1 0"/>
            <feBlend in2="D"/>
        </filter>
        <filter id="H" width="514.486" height="95.19" x="463.34" y="459.406" class="D" filterUnits="userSpaceOnUse">
            <feFlood class="E"/>
            <feBlend in="SourceGraphic" result="B"/>
            <feColorMatrix in="SourceAlpha" result="C" values="0 0 0 0 0 0 0 0 0 0 0 0 0 0 0 0 0 0 127 0"/>
            <feOffset dx="3.577" dy="9.539"/>
            <feComposite in2="C" k2="-1" k3="1" operator="arithmetic"/>
            <feColorMatrix values="0 0 0 0 0.0196078 0 0 0 0 0.309804 0 0 0 0 0.745098 0 0 0 1 0"/>
            <feBlend in2="B" result="D"/>
            <feColorMatrix in="SourceAlpha" result="C" values="0 0 0 0 0 0 0 0 0 0 0 0 0 0 0 0 0 0 127 0"/>
            <feOffset dy="-9.539"/>
            <feComposite in2="C" k2="-1" k3="1" operator="arithmetic"/>
            <feColorMatrix values="0 0 0 0 0.266667 0 0 0 0 0.556863 0 0 0 0 1 0 0 0 1 0"/>
            <feBlend in2="D"/>
        </filter>
        <radialGradient id="M" cx="0" cy="0" r="1"
                        gradientTransform="rotate(-178.705 31.833 206.028)scale(48.0068 30.6961)" href="#n">
            <stop stop-color="#9677d7"/>
            <stop offset="1" stop-color="#430bbb"/>
        </radialGradient>
        <radialGradient id="Q" cx="0" cy="0" r="1"
                        gradientTransform="rotate(173.039 43.631 219.641)scale(57.274 35.1589)" href="#n">
            <stop stop-color="#ffb358"/>
            <stop offset="1" stop-color="#f7931a"/>
        </radialGradient>
        <radialGradient id="c" cx="0" cy="0" r="1"
                        gradientTransform="matrix(72.68531 23.25137 -14.86717 46.47577 1444.1 482.395)" href="#n">
            <stop stop-color="#9677d7"/>
            <stop offset="1" stop-color="#430bbb"/>
        </radialGradient>
        <radialGradient id="e" cx="0" cy="0" r="1"
                        gradientTransform="rotate(176.344 811.017 -.055)scale(320.141 273.023)" href="#n">
            <stop stop-color="#ffb358"/>
            <stop offset="1" stop-color="#f7931a"/>
        </radialGradient>
        <radialGradient id="f" cx="0" cy="0" r="1"
                        gradientTransform="matrix(401.81875 -78.91673 78.6797 400.6118 1281.19 173.614)" href="#n">
            <stop stop-color="#ffb358"/>
            <stop offset="1" stop-color="#f7931a"/>
        </radialGradient>
        <clipPath id="i">
            <path d="M0 0h1600v800H0z" class="B"/>
        </clipPath>
        <clipPath id="j">
            <path d="M27.128 526.052c2.533-5.032 1.609-10.265-2.063-11.688s-8.702 1.503-11.235 6.535-1.609 10.265 2.063 11.688 8.702-1.503 11.235-6.535"
                  class="B"/>
        </clipPath>
        <clipPath id="k">
            <path d="M373.143 435.534c-10.28-22.045.958-42.32 25.102-45.284s52.049 12.504 62.329 34.549-.958 42.321-25.102 45.285-52.049-12.504-62.329-34.55"
                  class="B"/>
        </clipPath>
        <clipPath id="l">
            <path d="M1415.66 658.134c2.13-6.557-1.74-11.872-8.63-11.872-6.9 0-14.21 5.315-16.34 11.872s1.73 11.873 8.62 11.873c6.9 0 14.21-5.316 16.35-11.873"
                  class="B"/>
        </clipPath>
        <clipPath id="m">
            <rect width="686.775" height="107.309" x="456.612" y="453.346" class="B" rx="53.654"/>
        </clipPath>
    </defs>
</svg>