<!-- source: DFINITY foundation -->
<svg width="95" height="36" viewBox="0 0 95 36" fill="currentColor" xmlns="http://www.w3.org/2000/svg">
        <path d="M65.7233 3.90729L71.0707 10.4658L76.4318 3.90729H84.8952L74.6357 15.9493V22.1948H67.5058V15.9493L57.2463 3.90729H65.7233Z"/>
        <path d="M42.6048 9.90798C42.6048 10.7108 44.8227 10.8196 47.6937 10.9557C52.7962 11.2142 59.967 11.568 59.9534 16.1535C59.9534 21.3785 53.9664 22.6167 47.544 22.6167C41.1352 22.6031 35.815 21.8275 35.1347 16.1535H42.6048C43.4212 17.5686 45.3125 17.936 47.544 17.936C49.7619 17.936 52.4833 17.5686 52.4833 16.1535C52.4833 15.3507 50.2654 15.2282 47.3944 15.0922C42.2918 14.8336 35.1211 14.4799 35.1347 9.90798C35.1347 4.68298 41.1216 3.43115 47.544 3.43115C53.9528 3.47197 59.2731 4.19313 59.9534 9.90798H52.4833C51.6669 8.46566 49.7755 8.12549 47.544 8.12549C45.3261 8.12549 42.6048 8.45205 42.6048 9.90798Z"/>
        <path d="M26.6306 3.88018H33.7606V22.1677H26.6306V3.88018Z"/>
        <path d="M12.5741 3.43115C19.4591 3.43115 25.0515 5.44495 25.0515 12.3572V13.6907C25.0787 20.6029 19.4455 22.6031 12.5741 22.6167C5.6891 22.6031 0.0558925 20.6029 0.083106 13.6907V12.3572C0.0558925 5.43135 5.6891 3.44476 12.5741 3.43115ZM17.9216 13.2416V12.7926C17.9624 9.81273 15.486 9.26846 12.5741 9.22764C9.64867 9.26846 7.17223 9.81273 7.21305 12.7926V13.2416C7.17223 16.2351 9.64867 16.7794 12.5741 16.8202C15.486 16.7794 17.9624 16.2351 17.9216 13.2416Z"/>
        <path fill-rule="evenodd" clip-rule="evenodd"
              d="M91.1512 0.568746C89.3074 0.568746 87.8126 2.06347 87.8126 3.9073C87.8126 5.75113 89.3074 7.24585 91.1512 7.24585C92.995 7.24585 94.4897 5.75113 94.4897 3.9073C94.4897 2.06347 92.995 0.568746 91.1512 0.568746ZM87.5824 3.9073C87.5824 1.93631 89.1802 0.338501 91.1512 0.338501C93.1222 0.338501 94.72 1.93631 94.72 3.9073C94.72 5.87829 93.1222 7.47609 91.1512 7.47609C89.1802 7.47609 87.5824 5.87829 87.5824 3.9073Z"/>
        <path d="M92.3493 2.75609C92.0876 2.75609 91.8019 2.89534 91.4994 3.17144C91.3553 3.30109 91.2305 3.44034 91.1392 3.55318C91.1392 3.55318 91.2857 3.71884 91.4465 3.89651C91.533 3.78847 91.6602 3.64202 91.8043 3.50997C92.0732 3.26508 92.2484 3.21466 92.3493 3.21466C92.7262 3.21466 93.0335 3.52437 93.0335 3.90851C93.0335 4.28785 92.7286 4.59757 92.3493 4.60237C92.3325 4.60237 92.3085 4.59997 92.2845 4.59517C92.3949 4.64559 92.5125 4.6816 92.6254 4.6816C93.3168 4.6816 93.4513 4.21343 93.4609 4.17981C93.4801 4.09338 93.4921 4.00455 93.4921 3.91092C93.4873 3.27228 92.9783 2.75609 92.3493 2.75609Z"/>
        <path d="M89.934 5.05854C90.1957 5.05854 90.4814 4.91929 90.7839 4.64319C90.928 4.51354 91.0528 4.37429 91.144 4.26145C91.144 4.26145 90.9976 4.09578 90.8367 3.91812C90.7503 4.02616 90.623 4.17261 90.479 4.30466C90.2101 4.54955 90.0348 4.59997 89.934 4.59997C89.557 4.59997 89.2497 4.29026 89.2497 3.90612C89.2497 3.52677 89.5546 3.21706 89.934 3.21226C89.9508 3.21226 89.9748 3.21466 89.9988 3.21946C89.8884 3.16904 89.7707 3.13303 89.6579 3.13303C88.9664 3.13303 88.832 3.6012 88.8224 3.63481C88.8032 3.72125 88.7912 3.81008 88.7912 3.90371C88.7936 4.53995 89.305 5.05854 89.934 5.05854Z"/>
        <path fill-rule="evenodd" clip-rule="evenodd"
              d="M89.6603 3.14505C90.0156 3.15465 90.3854 3.44756 90.4598 3.51959C90.6368 3.69003 90.8038 3.88035 90.8342 3.915C90.8372 3.91842 90.8389 3.92032 90.8391 3.92053C91 4.0982 91.1464 4.26386 91.1464 4.26386L91.1488 4.26146C91.4778 4.6384 91.9171 5.05855 92.3541 5.05855C92.8895 5.05615 93.3408 4.67921 93.4609 4.17263C93.4489 4.20864 93.2712 4.68162 92.623 4.66481C92.2701 4.65521 91.9003 4.3647 91.8259 4.29267C91.6314 4.1054 91.4489 3.89412 91.4489 3.89412C91.2881 3.71646 91.1416 3.5508 91.1416 3.5508C91.1392 3.5508 91.1392 3.55318 91.1392 3.55318C90.8127 3.17384 90.3734 2.7561 89.9364 2.7561C89.401 2.75851 88.9496 3.13304 88.8296 3.63723C88.844 3.57721 89.0289 3.13064 89.6603 3.14505ZM88.8272 3.63963V3.63483C88.8296 3.63723 88.8296 3.63963 88.8272 3.63963Z"/>
        <path d="M80.0637 35.6614H76.285V29.0414H71.7924V25.9694H84.5564V29.0414H80.0637V35.6614Z"/>
        <path d="M59.4067 35.6614V25.9694H70.7502V28.4501H63.1855V29.6904H70.7502V31.9331H63.1855V33.1735H70.7502V35.6614H59.4067Z"/>
        <path d="M46.9202 25.955H50.6989V32.575H58.2636V35.647H46.9202V25.955Z"/>
        <path d="M34.4336 25.955H38.2123V32.575H45.777V35.647H34.4336V25.955Z"/>
        <path d="M26.8436 28.7746L25.5095 31.6375H28.1705L26.8436 28.7746ZM19.3943 35.6614L24.5937 25.9694H29.0863L34.2857 35.6614H30.031L29.2666 34.0028H24.4134L23.649 35.6614H19.3943Z"/>
        <path d="M15.5469 32.1062L17.7968 25.9694H22.0515L17.7968 35.6614H13.3041L11.1768 30.8154L9.04946 35.6614H4.55681L0.302124 25.9694H4.55681L6.79953 32.1062L9.04946 25.9694H13.3041L15.5469 32.1062Z"/>
</svg>