<svg width="512" height="354" viewBox="0 0 512 354" fill="none" xmlns="http://www.w3.org/2000/svg">
    <g clip-path="url(#clip0_9405_148981)">
        <rect y="0.423828" width="512" height="353.152" rx="17.0194" fill="url(#paint0_linear_9405_148981)" fill-opacity="0.7"/>
        <path opacity="0.6" d="M254.21 577.453L334.131 -10.7617L174.749 -9.88202L254.21 600.589L254.21 577.453Z" fill="white"/>
        <path opacity="0.6" d="M257.791 504.313L-153.183 81.9749L87.3481 -39.2996L275.501 509.388L257.791 504.313Z" fill="white"/>
        <path opacity="0.6" d="M247.25 501.65L704.169 86.2298L428.858 -38.3356L229.438 506.358L247.25 501.65Z" fill="white"/>
        <path fill-rule="evenodd" clip-rule="evenodd" d="M361.003 146.983C366.199 135.714 379.924 106.057 396.504 78.0145C388.814 77.1963 382.281 77.8206 378.023 80.3433L378.023 80.341C368.065 73.9545 358.347 71.122 349.522 71.1203C334.626 90.2352 322.388 107.722 320.252 111.68C325.198 127.439 339.993 138.727 360.566 146.711L361.003 146.983ZM472.41 121.177C470.706 116.177 466.553 111.03 460.86 106.107C451.927 137.301 440.005 167.542 435.492 179.209C454.904 189.197 473.612 191.104 488.66 184.808C490.006 180.477 494.298 159.865 498.05 136.169C491.819 129.179 483.171 123.88 472.41 121.177ZM490.437 47.2122L490.437 47.2123C491.135 54.9408 491.136 54.9383 490.437 47.2122ZM419.511 16.6219C414.773 20.3427 414.773 20.3427 419.512 16.6218L419.511 16.6219Z" fill="url(#paint1_linear_9405_148981)"/>
        <path fill-rule="evenodd" clip-rule="evenodd" d="M460.86 106.105C444.857 92.2613 416.687 80.1646 396.503 78.0132C379.922 106.058 366.198 135.714 361.003 146.983C371.258 163.337 422.865 184.519 435.492 179.208C440.005 167.539 451.93 137.292 460.86 106.105ZM497.963 136.718C494.276 159.896 490.098 180.017 488.71 184.644C499.062 183.1 506.337 179.269 509.239 173.09C510.902 169.246 510.747 164.79 509.002 159.93C507.723 151.067 504.033 142.945 498.189 136.325L498.05 136.168L497.963 136.718ZM324.723 80.2063C319.986 82.2612 316.631 85.2001 314.968 89.0423L314.859 89.3073L314.764 89.5423L314.675 89.7784L314.591 90.0138L314.512 90.2527L314.425 90.529L314.356 90.7663L314.29 91.0073L314.229 91.2433L314.18 91.454L314.128 91.6949L314.078 91.9333L314.065 92.0101C314.036 92.1621 314.009 92.3158 313.985 92.4712L313.949 92.7181L313.94 92.7943C313.914 92.9799 313.894 93.1666 313.875 93.3533L313.855 93.602L313.848 93.6799C313.84 93.8157 313.831 93.9515 313.825 94.087L313.813 94.3493L313.81 94.5271C313.706 99.6414 315.978 105.474 320.251 111.677C322.387 107.722 334.625 90.2336 349.522 71.1191C339.925 71.1153 331.38 74.4564 324.723 80.2063Z" fill="url(#paint2_linear_9405_148981)"/>
        <path fill-rule="evenodd" clip-rule="evenodd" d="M360.421 26.2294C341.269 38.2966 325.281 56.2933 315.479 78.9509C313.305 83.974 312.836 89.2178 313.808 94.5591C313.844 92.6112 314.223 90.7643 314.968 89.0422C316.631 85.1999 319.986 82.2626 324.722 80.2054C325.063 78.8267 325.525 77.4535 326.113 76.0949C334.067 57.7118 346.067 39.7656 360.421 26.2294ZM524.378 99.579C523.705 118.535 518.651 138.523 511.046 156.102C510.458 157.461 509.773 158.739 509.001 159.932C510.746 164.791 510.901 169.247 509.239 173.09C508.494 174.813 507.409 176.353 506.013 177.713C510.571 174.764 514.072 170.833 516.245 165.809C525.662 144.042 528.036 121.059 524.378 99.579ZM472.41 121.177C504.634 45.8179 489.49 23.1281 463.639 11.9446C437.788 0.76115 410.883 5.25846 378.022 80.3409C397.429 68.8436 464.095 96.7798 472.41 121.177Z" fill="url(#paint3_radial_9405_148981)"/>
        <path fill-rule="evenodd" clip-rule="evenodd" d="M485.606 30.2697C494.263 46.1247 493.098 72.7966 472.41 121.175C493.407 126.45 506.357 141.603 509.002 159.93C509.774 158.737 510.458 157.46 511.046 156.101C530.939 110.119 533.38 47.6596 485.606 30.2697ZM435.242 8.48098C391.22 -13.1213 346.006 30.1102 326.113 76.0932C325.526 77.4536 325.063 78.8253 324.722 80.2063C337.5 69.1693 357.237 67.0064 378.022 80.3411C399.119 32.1376 417.761 13.0275 435.242 8.48098Z" fill="url(#paint4_linear_9405_148981)"/>
        <path fill-rule="evenodd" clip-rule="evenodd" d="M373.077 239.358L434.807 178.318C435.179 177.95 435.781 177.953 436.149 178.325C436.518 178.7 436.514 179.299 436.142 179.67L365.945 249.081L508.258 158.565C508.701 158.285 509.288 158.416 509.569 158.857C509.85 159.3 509.719 159.886 509.278 160.169L379.357 242.8L488.216 183.953C488.677 183.703 489.254 183.874 489.503 184.337C489.752 184.798 489.58 185.374 489.119 185.623L358.861 256.039L358.859 256.04L358.855 256.042L358.851 256.044L358.845 256.047L358.844 256.048L358.842 256.049L358.838 256.051L358.836 256.052L358.832 256.055L358.824 256.058L358.822 256.059L358.82 256.06L358.816 256.062L358.814 256.063L358.81 256.065L358.803 256.069L358.799 256.071L358.795 256.072L358.795 256.072L358.789 256.075L358.775 256.081L358.767 256.085L358.748 256.093L358.746 256.094L358.744 256.094L358.736 256.097L358.722 256.103L358.714 256.105L358.714 256.106L358.712 256.106L358.7 256.111L358.692 256.113L358.69 256.114L358.688 256.114L358.678 256.118L358.67 256.12L358.668 256.121L358.664 256.122L358.662 256.123L358.662 256.123L358.656 256.124L358.65 256.126L358.646 256.127L358.642 256.128L358.64 256.129L358.638 256.129L358.634 256.13L358.628 256.132L358.624 256.133L358.62 256.134L358.618 256.134L358.614 256.135L358.609 256.136L358.605 256.137L358.599 256.139L358.597 256.139L358.595 256.14L358.591 256.14L358.587 256.141L358.583 256.142L358.577 256.143L358.575 256.144L358.573 256.144L358.567 256.145L358.565 256.146L358.561 256.146L358.554 256.147L358.552 256.148L358.548 256.149L358.542 256.149L358.54 256.15L358.538 256.15L358.532 256.151L358.53 256.151L358.526 256.152L358.518 256.153L358.515 256.153L358.509 256.154L358.505 256.155L358.503 256.155L358.495 256.156L358.495 256.156L358.493 256.156L358.485 256.157L358.482 256.157L358.478 256.157L358.474 256.158L358.47 256.158L358.466 256.158L358.462 256.159L358.46 256.159L358.455 256.159L358.453 256.159L358.447 256.16L358.439 256.16L358.435 256.16L358.432 256.16L358.43 256.16C358.37 256.163 358.31 256.159 358.252 256.15L358.252 256.15L358.25 256.15L358.237 256.148L358.233 256.147L358.228 256.146L358.22 256.145L358.216 256.144L358.213 256.143L358.205 256.142L358.181 256.137C358.174 256.135 358.166 256.134 358.159 256.131L358.146 256.127L358.137 256.125L358.124 256.121L358.121 256.121L358.121 256.121L358.113 256.119L358.102 256.115L358.099 256.114L358.097 256.113L358.091 256.112L358.088 256.11L358.086 256.109L358.082 256.108L358.077 256.106L358.073 256.105L358.07 256.104L358.068 256.103L358.066 256.103L358.061 256.1L358.055 256.098L358.05 256.097L358.048 256.095L358.046 256.095L358.046 256.094L358.039 256.092L358.032 256.089L358.028 256.088L358.023 256.085L358.017 256.083L358.012 256.08L358.007 256.078L358.001 256.076L357.996 256.073L357.989 256.071L357.985 256.068L357.98 256.066L357.976 256.063L357.969 256.06L357.964 256.057L357.96 256.056L357.955 256.053L357.948 256.05L357.941 256.046L357.939 256.045L357.937 256.043L357.928 256.038L357.923 256.036C357.897 256.028 357.872 256.019 357.845 256.008L357.829 256.002L357.827 256L357.825 255.999L357.809 255.993L357.809 255.992C357.68 255.933 357.563 255.846 357.469 255.731L357.469 255.729L357.466 255.725L357.458 255.718L357.456 255.715L357.453 255.712L357.445 255.7L357.445 255.698C357.397 255.635 357.356 255.565 357.325 255.489L357.318 255.468C357.294 255.411 357.278 255.353 357.269 255.293L356.847 253.077L319.525 111.961C319.392 111.455 319.694 110.934 320.2 110.801C320.707 110.666 321.225 110.968 321.361 111.474L351.845 226.74L323.978 80.0014C323.881 79.487 324.218 78.9899 324.735 78.8931C325.249 78.7946 325.746 79.1339 325.845 79.6479L357.632 247.032L359.929 146.892C359.942 146.369 360.376 145.953 360.901 145.967C361.424 145.978 361.84 146.412 361.828 146.938L359.824 234.29L377.529 78.9823C377.588 78.462 378.059 78.0867 378.58 78.1469C379.1 78.205 379.474 78.6752 379.416 79.1975L359.691 252.213L472.289 119.377C472.628 118.976 473.227 118.927 473.627 119.265C474.027 119.606 474.076 120.205 473.737 120.604L373.077 239.358Z" fill="#8FBCFF"/>
        <path fill-rule="evenodd" clip-rule="evenodd" d="M170.488 118.56C164.3 105.673 147.955 71.7584 128.35 39.7562C137.194 38.6749 144.73 39.276 149.68 42.1051L149.681 42.1024C161.036 34.5661 172.178 31.1278 182.344 30.9665C199.848 52.7159 214.26 72.6382 216.792 77.1586C211.379 95.4004 194.541 108.671 170.987 118.238L170.488 118.56ZM41.6936 90.8458C43.5661 85.0553 48.2573 79.0517 54.7263 73.2774C65.5789 109.048 79.858 143.668 85.2669 157.025C63.0874 168.881 41.5717 171.416 24.1242 164.434C22.4963 159.47 17.1803 135.804 12.43 108.578C19.4815 100.413 29.347 94.1533 41.6936 90.8458ZM19.5931 5.97139L19.5936 5.97147C18.9283 14.8865 18.9279 14.8837 19.5931 5.97139ZM100.74 -30.5459C106.265 -26.3455 106.265 -26.3455 100.739 -30.546L100.74 -30.5459Z" fill="url(#paint5_linear_9405_148981)"/>
        <path fill-rule="evenodd" clip-rule="evenodd" d="M54.7263 73.2772C72.9102 57.0413 105.141 42.5986 128.351 39.7559C147.957 71.7614 164.301 105.674 170.489 118.56C158.971 137.584 99.9079 162.915 85.2677 157.025C79.8582 143.666 65.5762 109.04 54.7263 73.2772ZM12.5405 109.209C17.2056 135.842 22.3825 158.943 24.0648 164.248C12.1119 162.656 3.66259 158.374 0.208043 151.31C-1.77622 146.912 -1.67799 141.776 0.244424 136.147C1.55729 125.914 5.66106 116.492 12.2737 108.761L12.4305 108.578L12.5405 109.209ZM211.074 40.9861C216.568 43.2676 220.485 46.5923 222.47 50.988L222.601 51.2913L222.714 51.5603L222.82 51.8306L222.922 52.1003L223.018 52.3741L223.122 52.6908L223.206 52.9628L223.287 53.2393L223.361 53.51L223.422 53.7518L223.485 54.0283L223.547 54.3021L223.564 54.3904C223.6 54.5649 223.634 54.7414 223.665 54.9201L223.71 55.2038L223.722 55.2914C223.755 55.5047 223.781 55.7194 223.807 55.9341L223.835 56.2202L223.844 56.3099C223.856 56.4662 223.868 56.6224 223.878 56.7784L223.896 57.0803L223.903 57.2851C224.115 63.1743 221.603 69.9334 216.793 77.1565C214.261 72.6384 199.849 52.7152 182.344 30.9663C193.398 30.7887 203.302 34.483 211.074 40.9861Z" fill="url(#paint6_linear_9405_148981)"/>
        <path fill-rule="evenodd" clip-rule="evenodd" d="M168.979 -20.5463C191.258 -6.99191 209.999 13.4496 221.7 39.3718C224.294 45.1185 224.928 51.1504 223.906 57.3205C223.83 55.0774 223.359 52.9568 222.469 50.9866C220.485 46.5908 216.567 43.2678 211.075 40.9837C210.657 39.4018 210.1 37.8282 209.398 36.2739C199.905 15.2422 185.758 -5.21315 168.979 -20.5463ZM-18.558 66.9049C-17.4403 88.7281 -11.2575 111.661 -2.1795 131.773C-1.47777 133.328 -0.666384 134.787 0.244361 136.147C-1.67786 141.776 -1.77602 146.912 0.208169 151.308C1.0976 153.279 2.37538 155.034 4.00773 156.575C-1.29567 153.261 -5.39911 148.795 -7.99366 143.048C-19.234 118.145 -22.3835 91.7139 -18.558 66.9049ZM41.6945 90.8454C3.21492 4.62148 20.249 -21.7881 49.8244 -35.1371C79.4001 -48.4859 110.473 -43.7913 149.682 42.1022C127.119 29.2089 50.8318 62.592 41.6945 90.8454Z" fill="url(#paint7_radial_9405_148981)"/>
        <path fill-rule="evenodd" clip-rule="evenodd" d="M24.8528 -13.6314C15.1674 4.78809 16.9906 35.4902 41.695 90.8429C17.6035 97.2983 2.95969 114.987 0.244728 136.146C-0.666079 134.786 -1.47751 133.327 -2.17935 131.772C-25.9246 79.1648 -29.864 7.26248 24.8528 -13.6314ZM82.4733 -39.639C132.792 -65.3174 185.653 -16.3357 209.398 36.2725C210.1 37.8289 210.658 39.4006 211.075 40.9852C196.157 28.5025 173.383 26.3674 149.682 42.1029C124.51 -13.0414 102.691 -34.7175 82.4733 -39.639Z" fill="url(#paint8_linear_9405_148981)"/>
        <path fill-rule="evenodd" clip-rule="evenodd" d="M158.25 225.183L86.0419 155.986C85.6063 155.569 84.9133 155.583 84.4957 156.019C84.0777 156.457 84.0928 157.148 84.5284 157.567L166.641 236.254L1.07687 134.56C0.562365 134.244 -0.111874 134.407 -0.427704 134.92C-0.743634 135.435 -0.582471 136.108 -0.0683076 136.425L151.078 229.261L24.6214 163.442C24.0859 163.162 23.4252 163.37 23.1462 163.907C22.8676 164.443 23.0762 165.103 23.6114 165.381L174.926 244.141L174.929 244.142L174.933 244.144L174.938 244.147L174.944 244.15L174.946 244.152L174.949 244.153L174.953 244.155L174.956 244.156L174.96 244.159L174.969 244.163L174.971 244.164L174.974 244.165L174.978 244.167L174.98 244.168L174.985 244.17L174.994 244.174L174.998 244.177L175.003 244.178L175.003 244.179L175.01 244.182L175.026 244.189L175.035 244.192L175.058 244.202L175.06 244.202L175.062 244.203L175.072 244.206L175.088 244.212L175.097 244.215L175.097 244.215L175.099 244.216L175.113 244.221L175.122 244.223L175.125 244.224L175.127 244.225L175.138 244.229L175.148 244.231L175.15 244.232L175.155 244.233L175.157 244.234L175.157 244.234L175.164 244.236L175.171 244.238L175.176 244.239L175.18 244.24L175.183 244.24L175.185 244.241L175.19 244.242L175.197 244.244L175.201 244.245L175.206 244.246L175.208 244.247L175.213 244.248L175.218 244.249L175.222 244.25L175.229 244.251L175.232 244.252L175.234 244.252L175.239 244.253L175.243 244.254L175.248 244.255L175.255 244.256L175.258 244.257L175.26 244.257L175.267 244.258L175.269 244.259L175.274 244.26L175.281 244.261L175.284 244.261L175.288 244.262L175.295 244.263L175.298 244.263L175.3 244.263L175.307 244.264L175.31 244.265L175.314 244.265L175.324 244.266L175.326 244.267L175.333 244.267L175.338 244.268L175.341 244.268L175.35 244.269L175.35 244.269L175.352 244.269L175.362 244.27L175.364 244.27L175.369 244.271L175.374 244.271L175.379 244.271L175.384 244.272L175.388 244.272L175.391 244.272L175.396 244.272L175.398 244.272L175.405 244.273L175.415 244.273L175.42 244.273L175.422 244.273L175.424 244.273C175.494 244.275 175.563 244.27 175.629 244.259L175.629 244.258L175.632 244.258L175.647 244.256L175.652 244.254L175.657 244.253L175.667 244.252L175.672 244.25L175.674 244.25L175.684 244.248L175.712 244.242C175.719 244.24 175.729 244.238 175.737 244.235L175.752 244.23L175.762 244.228L175.777 244.223L175.78 244.222L175.78 244.222L175.79 244.22L175.802 244.215L175.805 244.214L175.807 244.213L175.815 244.211L175.818 244.21L175.82 244.208L175.825 244.207L175.83 244.205L175.835 244.204L175.838 244.201L175.841 244.201L175.843 244.201L175.848 244.197L175.856 244.195L175.861 244.193L175.864 244.192L175.866 244.191L175.866 244.19L175.874 244.187L175.882 244.185L175.887 244.182L175.892 244.18L175.9 244.177L175.905 244.174L175.91 244.171L175.918 244.169L175.923 244.165L175.931 244.162L175.936 244.159L175.941 244.157L175.946 244.153L175.954 244.15L175.959 244.146L175.965 244.144L175.97 244.142L175.978 244.137L175.986 244.133L175.988 244.131L175.991 244.129L176.001 244.124L176.007 244.121C176.037 244.111 176.065 244.1 176.096 244.088L176.114 244.08L176.117 244.078L176.119 244.077L176.137 244.069L176.137 244.068C176.285 243.998 176.418 243.895 176.524 243.761L176.525 243.759L176.528 243.754L176.536 243.746L176.539 243.743L176.542 243.739L176.551 243.725L176.551 243.723C176.605 243.649 176.651 243.568 176.685 243.48L176.693 243.456C176.72 243.39 176.737 243.322 176.747 243.254L177.192 240.693L217.635 77.4694C217.78 76.8836 217.422 76.289 216.837 76.1449C216.251 75.9985 215.659 76.356 215.512 76.9414L182.479 210.265L211.93 40.7353C212.031 40.141 211.634 39.5745 211.037 39.4723C210.443 39.3682 209.877 39.7679 209.772 40.3618L176.18 233.744L171.725 118.436C171.701 117.833 171.193 117.362 170.589 117.387C169.986 117.409 169.516 117.917 169.539 118.522L173.424 219.106L150.226 40.5283C150.148 39.9301 149.599 39.5062 149 39.585C148.402 39.6613 147.979 40.2097 148.057 40.8102L173.901 239.749L41.8019 88.7697C41.4045 88.3144 40.7129 88.2687 40.2588 88.6653C39.8044 89.0642 39.7583 89.7558 40.156 90.2088L158.25 225.183Z" fill="#8FBCFF"/>
        <path opacity="0.15" d="M15.8731 200.736C15.8053 200.473 16.0969 200.265 16.3239 200.414L19.8842 202.754C21.8941 204.075 24.3527 204.528 26.7013 204.009L30.5993 203.148C30.8827 203.085 31.0784 203.424 30.8825 203.638L28.7809 205.936C26.8177 208.081 26.0251 211.05 26.6574 213.889L27.3577 217.032C27.4176 217.302 27.1104 217.5 26.8896 217.335L23.9143 215.107C21.6623 213.42 18.7462 212.896 16.048 213.693L12.6217 214.705C12.3383 214.789 12.1198 214.452 12.3115 214.227L14.7131 211.41C16.5951 209.202 17.2845 206.216 16.5608 203.406L15.8731 200.736Z" fill="#77A8F2"/>
        <g clip-path="url(#clip1_9405_148981)">
            <circle cx="266.637" cy="233.022" r="45.385" fill="#2775CA"/>
            <path d="M279.21 239.829C279.21 233.211 275.239 230.942 267.297 229.996C261.624 229.24 260.489 227.727 260.489 225.079C260.489 222.431 262.38 220.73 266.162 220.73C269.566 220.73 271.457 221.865 272.403 224.701C272.592 225.268 273.159 225.647 273.727 225.647H276.752C277.508 225.647 278.076 225.079 278.076 224.323V224.134C277.319 219.973 273.915 216.759 269.566 216.381V211.842C269.566 211.086 268.999 210.518 268.053 210.329H265.217C264.46 210.329 263.893 210.896 263.704 211.842V216.191C258.031 216.948 254.438 220.73 254.438 225.458C254.438 231.698 258.22 234.156 266.162 235.102C271.457 236.047 273.159 237.182 273.159 240.208C273.159 243.234 270.511 245.314 266.919 245.314C262.002 245.314 260.3 243.233 259.733 240.397C259.544 239.641 258.976 239.262 258.409 239.262H255.194C254.438 239.262 253.871 239.829 253.871 240.586V240.775C254.627 245.503 257.653 248.906 263.893 249.852V254.391C263.893 255.147 264.46 255.714 265.406 255.903H268.242C268.999 255.903 269.566 255.336 269.755 254.391V249.852C275.429 248.906 279.21 244.935 279.21 239.829Z" fill="white"/>
            <path d="M257.085 259.685C242.335 254.39 234.77 237.938 240.255 223.377C243.091 215.435 249.332 209.383 257.085 206.547C257.842 206.169 258.22 205.601 258.22 204.656V202.008C258.22 201.252 257.842 200.684 257.085 200.496C256.896 200.496 256.518 200.496 256.328 200.684C238.364 206.358 228.53 225.457 234.203 243.422C237.607 254.012 245.739 262.143 256.328 265.547C257.085 265.925 257.842 265.547 258.03 264.791C258.22 264.602 258.22 264.413 258.22 264.035V261.387C258.22 260.82 257.652 260.063 257.085 259.685ZM277.13 200.684C276.374 200.306 275.617 200.684 275.428 201.441C275.239 201.63 275.239 201.819 275.239 202.198V204.845C275.239 205.601 275.806 206.358 276.374 206.736C291.124 212.031 298.688 228.483 293.204 243.044C290.367 250.986 284.127 257.038 276.374 259.874C275.617 260.252 275.239 260.82 275.239 261.765V264.413C275.239 265.169 275.617 265.737 276.374 265.925C276.563 265.925 276.941 265.925 277.13 265.737C295.095 260.063 304.928 240.964 299.255 222.999C295.851 212.22 287.531 204.088 277.13 200.684Z" fill="white"/>
        </g>
        <g clip-path="url(#clip2_9405_148981)">
            <path d="M402.036 301.345L401.882 301.597C384.691 329.361 348.27 338.041 320.384 320.963C292.427 303.84 283.64 267.283 300.768 239.324L300.768 239.324C317.892 211.357 354.45 202.571 382.41 219.695L382.873 218.939L382.41 219.695C410.378 236.822 419.164 273.381 402.036 301.345Z" fill="#F7931A" stroke="#EBF3FF" stroke-width="1.77285"/>
            <path d="M379.338 270.127C382.892 262.837 378.362 256.889 371.261 251.636L377.11 242.086L371.295 238.527L365.601 247.825C364.072 246.889 362.492 245.963 360.92 245.043L366.654 235.684L360.844 232.125L354.994 241.671C353.72 240.926 352.469 240.193 351.264 239.455L351.281 239.425L343.265 234.512L339.464 240.721C339.464 240.721 343.807 243.269 343.688 243.304C346.042 244.746 345.971 246.583 345.472 247.899L338.809 258.779C338.971 258.879 339.179 259.015 339.399 259.196C339.205 259.077 338.998 258.949 338.784 258.821L329.447 274.06C328.89 274.738 327.731 275.653 326.084 274.648C326.118 274.76 321.859 272.059 321.859 272.059L316.451 278.294L324.017 282.927C325.424 283.792 326.795 284.664 328.15 285.505L322.237 295.165L328.044 298.723L333.897 289.166C335.471 290.175 337.006 291.133 338.514 292.054L332.685 301.565L338.5 305.125L344.406 295.484C354.524 300.909 362.873 302.637 369.343 293.979C374.555 287.01 373.098 281.583 368.366 276.854C372.788 277.202 376.747 275.469 379.34 270.129L379.338 270.127L379.338 270.127ZM358.555 285.798C354.137 293.018 342.279 284.628 338.337 282.218L346.176 269.422C350.117 271.837 363.166 278.27 358.555 285.798L358.555 285.798ZM366.909 266.087C362.885 272.653 353.046 265.574 349.764 263.564L356.873 251.958C360.155 253.968 371.103 259.238 366.909 266.087L366.909 266.087Z" fill="white"/>
        </g>
        <path d="M331.613 207.971C331.865 207.828 332.16 208.071 332.069 208.346L330.642 212.654C329.837 215.087 330.049 217.742 331.23 220.015L333.191 223.789C333.334 224.064 333.039 224.358 332.765 224.216L329.821 222.687C327.072 221.258 323.798 221.261 321.052 222.694L318.01 224.282C317.749 224.418 317.46 224.156 317.57 223.884L319.042 220.207C320.157 217.425 319.892 214.28 318.328 211.723L316.342 208.476C316.177 208.208 316.463 207.89 316.748 208.025L320.309 209.72C323.1 211.048 326.363 210.934 329.055 209.414L331.613 207.971Z" fill="white"/>
        <g clip-path="url(#clip3_9405_148981)">
            <circle cx="172.222" cy="253.848" r="61.6953" transform="rotate(-19.2943 172.222 253.848)" fill="white"/>
            <circle cx="172.222" cy="253.848" r="60.277" transform="rotate(-19.2943 172.222 253.848)" stroke="url(#paint9_linear_9405_148981)" stroke-opacity="0.6" stroke-width="2.83657"/>
            <path d="M185.729 228.421C181.389 229.941 177.42 233.775 173.922 239.817C172.261 242.68 170.975 245.576 170.048 247.856C170.048 247.856 170.048 247.856 170.066 247.865L170.062 247.852C170.062 247.852 173.394 249.59 177.047 251.423C177.902 249.242 179.178 246.231 180.843 243.336C183.956 237.964 186.572 236.144 188.23 235.563C194.471 233.379 201.235 236.449 203.32 242.403C205.39 248.318 202.005 254.942 195.791 257.161C195.508 257.26 195.13 257.348 194.639 257.416C196.727 257.545 198.876 257.415 200.736 256.764C212.166 252.762 211.848 244.678 211.812 244.098C211.682 242.647 211.367 241.186 210.863 239.747C207.406 229.873 196.122 224.783 185.729 228.421Z" fill="url(#paint10_linear_9405_148981)"/>
            <path d="M158.376 278.305C162.716 276.785 166.685 272.951 170.184 266.91C171.844 264.046 173.131 261.15 174.057 258.87C174.057 258.87 174.057 258.87 174.039 258.861L174.043 258.875C174.043 258.875 170.712 257.136 167.059 255.303C166.203 257.485 164.927 260.495 163.262 263.39C160.15 268.763 157.533 270.582 155.875 271.163C149.63 273.335 142.865 270.264 140.781 264.31C138.711 258.396 142.096 251.771 148.31 249.552C148.593 249.453 148.971 249.365 149.461 249.297C147.374 249.168 145.225 249.298 143.365 249.949C131.934 253.951 132.266 262.03 132.284 262.601C132.419 264.066 132.729 265.513 133.233 266.952C136.699 276.854 147.983 281.943 158.376 278.305Z" fill="url(#paint11_linear_9405_148981)"/>
            <path d="M200.656 256.613C194.755 258.516 187.096 256.129 185.463 255.441C181.238 253.66 171.088 248.396 170.291 247.978C162.788 243.921 153.112 239.839 145.806 242.397L145.793 242.402L145.779 242.406C136.924 245.551 131.531 254.048 132.286 262.602C132.254 262.035 132.572 253.565 143.394 250.073C149.295 248.17 157.005 250.614 158.652 251.297C162.876 253.078 173.027 258.342 173.824 258.76C181.322 262.804 190.997 266.886 198.303 264.328L198.317 264.323L198.33 264.319C207.186 261.174 212.592 252.672 211.824 244.123C211.842 244.694 211.487 253.103 200.656 256.613Z" fill="#29ABE2"/>
        </g>
        <path opacity="0.16" d="M270.409 73.6184C270.851 73.2027 271.572 73.5481 271.525 74.1524L270.786 83.6317C270.369 88.9831 272.133 94.276 275.676 98.3075L281.558 104.999C281.986 105.485 281.534 106.233 280.904 106.081L274.151 104.447C267.842 102.922 261.186 104.57 256.319 108.864L250.929 113.619C250.467 114.026 249.748 113.639 249.834 113.03L250.984 104.814C251.854 98.5961 249.738 92.3321 245.274 87.9168L239.605 82.3101C239.136 81.8464 239.558 81.0569 240.204 81.1893L248.298 82.8483C254.641 84.1483 261.22 82.2792 265.932 77.8383L270.409 73.6184Z" fill="#77A8F2"/>
    </g>
    <defs>
        <linearGradient id="paint0_linear_9405_148981" x1="104.875" y1="353.576" x2="104.875" y2="63.1949" gradientUnits="userSpaceOnUse">
            <stop stop-color="#7EB2FF" stop-opacity="0"/>
            <stop offset="1" stop-color="#7EB2FF"/>
        </linearGradient>
        <linearGradient id="paint1_linear_9405_148981" x1="423.927" y1="196.402" x2="395.957" y2="20.3643" gradientUnits="userSpaceOnUse">
            <stop stop-color="#0153CC"/>
            <stop offset="1" stop-color="#1674FF"/>
        </linearGradient>
        <linearGradient id="paint2_linear_9405_148981" x1="418.024" y1="76.8336" x2="375.716" y2="159.403" gradientUnits="userSpaceOnUse">
            <stop stop-color="#CFE2FF"/>
            <stop offset="1" stop-color="white"/>
        </linearGradient>
        <radialGradient id="paint3_radial_9405_148981" cx="0" cy="0" r="1" gradientUnits="userSpaceOnUse" gradientTransform="translate(450.817 42.2227) rotate(167.316) scale(115.475 98.4791)">
            <stop stop-color="#84B6FF"/>
            <stop offset="0.684529" stop-color="#1F77FB"/>
            <stop offset="1" stop-color="#3F8AFA"/>
        </radialGradient>
        <linearGradient id="paint4_linear_9405_148981" x1="430.196" y1="20.8377" x2="371.716" y2="114.545" gradientUnits="userSpaceOnUse">
            <stop stop-color="#CFE2FF"/>
            <stop offset="1" stop-color="white"/>
        </linearGradient>
        <linearGradient id="paint5_linear_9405_148981" x1="98.8992" y1="176.621" x2="127.939" y2="-26.6604" gradientUnits="userSpaceOnUse">
            <stop stop-color="#0153CC"/>
            <stop offset="1" stop-color="#1674FF"/>
        </linearGradient>
        <linearGradient id="paint6_linear_9405_148981" x1="103.54" y1="38.7857" x2="153.765" y2="133.133" gradientUnits="userSpaceOnUse">
            <stop stop-color="#CFE2FF"/>
            <stop offset="1" stop-color="white"/>
        </linearGradient>
        <radialGradient id="paint7_radial_9405_148981" cx="0" cy="0" r="1" gradientUnits="userSpaceOnUse" gradientTransform="translate(65.1417 -0.491471) rotate(11.7864) scale(133.03 113.451)">
            <stop stop-color="#84B6FF"/>
            <stop offset="0.684529" stop-color="#1F77FB"/>
            <stop offset="1" stop-color="#3F8AFA"/>
        </radialGradient>
        <linearGradient id="paint8_linear_9405_148981" x1="88.5083" y1="-25.4965" x2="157.564" y2="81.3887" gradientUnits="userSpaceOnUse">
            <stop stop-color="#CFE2FF"/>
            <stop offset="1" stop-color="white"/>
        </linearGradient>
        <linearGradient id="paint9_linear_9405_148981" x1="203.346" y1="195.845" x2="118.246" y2="286.067" gradientUnits="userSpaceOnUse">
            <stop stop-color="#8FBCFF"/>
            <stop offset="1" stop-color="#8FBCFF" stop-opacity="0.2"/>
        </linearGradient>
        <linearGradient id="paint10_linear_9405_148981" x1="176.742" y1="234.226" x2="211.115" y2="251.968" gradientUnits="userSpaceOnUse">
            <stop offset="0.21" stop-color="#F15A24"/>
            <stop offset="0.6841" stop-color="#FBB03B"/>
        </linearGradient>
        <linearGradient id="paint11_linear_9405_148981" x1="167.363" y1="272.501" x2="132.99" y2="254.758" gradientUnits="userSpaceOnUse">
            <stop offset="0.21" stop-color="#ED1E79"/>
            <stop offset="0.8929" stop-color="#522785"/>
        </linearGradient>
        <clipPath id="clip0_9405_148981">
            <rect y="0.423828" width="512" height="353.152" rx="17.0194" fill="white"/>
        </clipPath>
        <clipPath id="clip1_9405_148981">
            <rect width="90.7701" height="90.7701" fill="white" transform="translate(221.252 187.637)"/>
        </clipPath>
        <clipPath id="clip2_9405_148981">
            <path d="M293.911 252.22C303.913 220.468 337.762 202.837 369.514 212.84V212.84C401.266 222.842 418.897 256.691 408.895 288.442V288.442C398.892 320.194 365.043 337.826 333.292 327.823V327.823C301.54 317.821 283.908 283.972 293.911 252.22V252.22Z" fill="white"/>
        </clipPath>
        <clipPath id="clip3_9405_148981">
            <path d="M113.992 274.233C102.733 242.073 119.677 206.876 151.837 195.618V195.618C183.996 184.359 219.193 201.303 230.452 233.462V233.462C241.711 265.622 224.767 300.819 192.607 312.078V312.078C160.448 323.336 125.25 306.393 113.992 274.233V274.233Z" fill="white"/>
        </clipPath>
    </defs>
</svg>