<!-- source: DFINITY foundation -->
<svg width="640" height="260" viewBox="0 0 640 260" fill="none" xmlns="http://www.w3.org/2000/svg">
    <g clip-path="url(#clip0_8184_206946)">
        <g filter="url(#filter0_d_8184_206946)">
            <rect width="640" height="260" rx="20" fill="white"/>
        </g>
        <g clip-path="url(#clip1_8184_206946)">
            <g clip-path="url(#clip2_8184_206946)" filter="url(#filter1_d_8184_206946)">
                <rect width="640" height="400" transform="translate(-0.5 -70.0957)" fill="white"/>
                <g clip-path="url(#clip3_8184_206946)">
                    <rect width="640" height="400" transform="translate(0 -70)" fill="url(#paint0_linear_8184_206946)"/>
                    <path opacity="0.2" d="M616.744 236.354C616.744 241.87 612.074 246.34 606.311 246.34H591.675C585.914 246.34 581.244 241.87 581.244 236.354C581.244 230.841 585.914 226.371 591.675 226.371H606.311C612.074 226.371 616.744 230.841 616.744 236.354Z" fill="url(#paint1_linear_8184_206946)"/>
                    <path d="M787.79 132.387C692.219 131.955 499.395 131.351 492.664 132.387C492.664 132.387 541.42 111.788 574.212 112.324C592.119 112.616 601.622 118.704 619.516 119.443C653.646 120.853 671.54 101.241 705.594 103.91C739.462 106.564 787.79 132.387 787.79 132.387Z" fill="#B6E2FF"/>
                    <path d="M320.22 164.516C263.826 164.262 150.045 163.905 146.074 164.516C146.074 164.516 174.844 152.362 194.193 152.678C204.76 152.85 210.367 156.442 220.926 156.878C241.065 157.71 251.624 146.138 271.719 147.713C291.703 149.279 320.22 164.516 320.22 164.516Z" fill="#ACDDFF"/>
                    <path fill-rule="evenodd" clip-rule="evenodd" d="M-15.9009 128.595L-7.30942 123.59L-1.42881 115.574L-1.59344 115.39L-10.8403 119.664L-16.0656 128.411L-15.9009 128.595Z" fill="#5182B1"/>
                    <path d="M433.644 168.273C374.1 168.004 253.963 167.628 249.769 168.273C249.769 168.273 280.146 155.439 300.577 155.773C311.733 155.955 317.654 159.748 328.803 160.208C350.067 161.087 361.216 148.868 382.433 150.531C403.534 152.184 433.644 168.273 433.644 168.273Z" fill="#ACDDFF"/>
                    <path d="M-59.5795 201.552C5.88606 201.443 137.97 201.291 142.581 201.552C142.581 201.552 109.183 196.358 86.7206 196.493C74.4543 196.567 67.9448 198.102 55.6873 198.288C32.3088 198.644 20.051 193.699 -3.276 194.372C-26.4749 195.041 -59.5795 201.552 -59.5795 201.552Z" fill="white"/>
                    <path d="M-183.764 201.552C-118.299 201.443 13.7854 201.291 18.396 201.552C18.396 201.552 -15.0017 196.358 -37.4639 196.493C-49.7303 196.567 -56.2397 198.102 -68.4973 198.288C-91.8758 198.644 -104.134 193.699 -127.461 194.372C-150.66 195.041 -183.764 201.552 -183.764 201.552Z" fill="white"/>
                    <g filter="url(#filter2_f_8184_206946)">
                        <path d="M232.292 295.028C228.279 295.028 224.523 296.669 221.275 299.492C214.934 287.979 205.417 280.618 194.736 280.618C186.415 280.618 178.783 285.068 172.815 292.472C165.864 271.24 151.407 256.64 134.689 256.64C126.223 256.64 118.341 260.398 111.714 266.85C103.886 218.262 74.9478 182.184 40.4265 182.184C7.88264 182.184 -19.6955 214.251 -29.3089 258.631C-41.3624 263.274 -51.3295 275.732 -56.7914 292.201C-58.2537 291.741 -59.7666 291.495 -61.3177 291.495C-73.5602 291.495 -83.4836 306.513 -83.4836 325.037C-83.4836 325.356 -83.4586 325.665 -83.4528 325.981H254.374C253.496 308.67 243.956 295.028 232.292 295.028Z" fill="white" fill-opacity="0.8"/>
                    </g>
                    <g filter="url(#filter3_f_8184_206946)">
                        <path d="M559.44 295.028C555.426 295.028 551.67 296.669 548.422 299.492C542.081 287.979 532.564 280.618 521.883 280.618C513.562 280.618 505.93 285.068 499.962 292.472C493.011 271.24 478.554 256.64 461.836 256.64C453.37 256.64 445.488 260.398 438.861 266.85C431.033 218.262 402.095 182.184 367.574 182.184C335.03 182.184 307.452 214.251 297.838 258.631C285.785 263.274 275.818 275.732 270.356 292.201C268.893 291.741 267.381 291.495 265.829 291.495C253.587 291.495 243.663 306.513 243.663 325.037C243.663 325.356 243.688 325.665 243.694 325.981H581.521C580.643 308.67 571.103 295.028 559.44 295.028Z" fill="white" fill-opacity="0.8"/>
                    </g>
                    <g filter="url(#filter4_f_8184_206946)">
                        <path d="M413.624 295.028C417.637 295.028 421.393 296.669 424.641 299.492C430.982 287.979 440.5 280.618 451.18 280.618C459.501 280.618 467.133 285.068 473.101 292.472C480.052 271.24 494.509 256.64 511.227 256.64C519.693 256.64 527.575 260.398 534.202 266.85C542.03 218.262 570.968 182.184 605.49 182.184C638.033 182.184 665.612 214.251 675.225 258.631C687.278 263.274 697.245 275.732 702.707 292.201C704.17 291.741 705.683 291.495 707.234 291.495C719.476 291.495 729.4 306.513 729.4 325.037C729.4 325.356 729.375 325.665 729.369 325.981H391.542C392.42 308.67 401.96 295.028 413.624 295.028Z" fill="white" fill-opacity="0.8"/>
                    </g>
                    <g filter="url(#filter5_f_8184_206946)">
                        <path d="M82.5998 349.672C85.4287 349.672 88.0759 351.313 90.3653 354.136C94.8343 342.623 101.542 335.262 109.07 335.262C114.935 335.262 120.314 339.712 124.521 347.116C129.419 325.884 139.609 311.284 151.392 311.284C157.359 311.284 162.915 315.042 167.585 321.494C173.103 272.906 193.499 236.828 217.83 236.828C240.767 236.828 260.205 268.895 266.98 313.275C275.476 317.918 282.501 330.376 286.35 346.845C287.381 346.385 288.447 346.139 289.541 346.139C298.169 346.139 305.164 361.157 305.164 379.681C305.164 380 305.146 380.309 305.142 380.625H67.0364C67.6551 363.314 74.3793 349.672 82.5998 349.672Z" fill="white" fill-opacity="0.8"/>
                    </g>
                    <path d="M581.244 181.241C646.709 181.132 778.793 180.98 783.404 181.241C783.404 181.241 750.006 176.048 727.544 176.182C715.278 176.256 708.768 177.791 696.511 177.977C673.132 178.333 660.874 173.388 637.547 174.061C614.348 174.73 581.244 181.241 581.244 181.241Z" fill="white"/>
                    <path d="M404.31 -104.618L688.715 53.8184" stroke="url(#paint2_linear_8184_206946)" stroke-width="0.585689"/>
                    <path d="M406.43 -104.884L686.594 60.936" stroke="url(#paint3_linear_8184_206946)" stroke-width="0.585689"/>
                    <path d="M217.264 27.1383C221.685 16.8624 229.434 9.23411 240.537 9.76636C237.988 11.7558 235.839 14.919 234.275 19.8126C237.679 9.16249 243.853 6.70898 250.897 6.70898M288.832 51.0574C288.825 51.1044 288.818 51.1514 288.81 51.1982C285.146 45.2412 278.385 41.93 270.317 43.2509M270.317 43.2509C270.301 39.5887 270.166 36.2815 269.923 33.2965M270.317 43.2509C263.777 36.0441 236.487 36.3578 231.481 43.2491L231.481 43.2509L231.479 43.2507" stroke="#689DEC" stroke-width="1.1094"/>
                    <path fill-rule="evenodd" clip-rule="evenodd" d="M235.574 68.9006C235.685 64.2157 235.996 51.8799 237.536 39.6738C234.749 40.5449 232.579 41.7401 231.48 43.2516C227.072 42.5309 223.279 43.0079 220.22 44.3301C217.923 53.1892 216.303 61.0838 216.157 62.7768C220.236 67.4954 227.054 69.191 235.382 68.8721L235.574 68.9006ZM270.318 43.2516C268.977 41.7764 266.766 40.6149 264.054 39.7619C265.635 51.911 266.037 64.1794 266.224 68.9006C274.449 69.4528 281.219 67.3087 285.49 62.8701C285.307 61.1667 283.704 53.3785 281.451 44.605C278.243 43.1142 274.452 42.5749 270.318 43.2516ZM265.475 14.9141C266.875 17.4886 266.875 17.4886 265.475 14.9141V14.9141ZM236.305 14.9478C235.221 16.9467 235.221 16.9467 236.305 14.9478V14.9478Z" fill="#043484"/>
                    <path fill-rule="evenodd" clip-rule="evenodd" d="M264.055 39.7612C256.432 37.3627 244.855 37.3946 237.537 39.6753C235.995 51.8811 235.686 64.2171 235.575 68.9011C241.582 73.0327 262.643 72.635 266.225 68.9011C266.038 64.1803 265.636 51.9106 264.055 39.7612ZM281.504 44.8085C283.701 53.3933 285.27 60.9938 285.484 62.8055C288.84 60.7188 290.787 58.3007 290.866 55.7231C290.866 54.1421 290.144 52.62 288.81 51.1986C287.038 48.3166 284.541 46.0556 281.524 44.6391L281.453 44.6047L281.504 44.8085ZM212.987 51.1986C211.654 52.62 210.933 54.1421 210.933 55.7231V55.8311L210.938 55.9268L210.94 56.0225L210.947 56.1159L210.955 56.2116L210.967 56.3196L210.979 56.4129L210.992 56.5062L211.006 56.597L211.021 56.678L211.038 56.7689L211.058 56.8597L211.063 56.8867C211.077 56.9456 211.09 57.0021 211.104 57.0585L211.129 57.1494L211.139 57.1788C211.158 57.2451 211.178 57.3139 211.2 57.3801L211.23 57.471L211.239 57.498C211.257 57.5471 211.274 57.5962 211.291 57.6428L211.328 57.7361L211.352 57.7975C212.084 59.5871 213.746 61.2663 216.157 62.776C216.304 61.0846 217.924 53.1896 220.22 44.3298C216.893 45.7684 214.433 48.2061 212.987 51.1986Z" fill="url(#paint4_linear_8184_206946)"/>
                    <path fill-rule="evenodd" clip-rule="evenodd" d="M217.266 27.1364C212.437 34.1905 209.596 42.8251 209.596 52.1468C209.596 54.2163 210.219 56.1034 211.356 57.8081C211.076 57.1262 210.933 56.4311 210.933 55.7228C210.933 54.1396 211.655 52.6199 212.987 51.198C212.899 50.6668 212.852 50.1223 212.852 49.562C212.852 42.0005 214.321 33.9817 217.266 27.1364ZM285.09 27.9742C287.699 34.6451 288.944 42.3308 288.944 49.562C288.944 50.1223 288.899 50.6668 288.81 51.198C290.144 52.6199 290.865 54.1396 290.865 55.7228C290.865 56.4311 290.721 57.1262 290.441 57.8081C291.578 56.1034 292.202 54.2163 292.202 52.1468C292.202 43.1924 289.578 34.8697 285.09 27.9742ZM270.317 43.2506C270.186 12.3013 261.535 6.70882 250.897 6.70882C240.262 6.70882 231.612 12.3013 231.48 43.2506C236.483 36.3577 263.777 36.0432 270.317 43.2506Z" fill="url(#paint5_linear_8184_206946)"/>
                    <path fill-rule="evenodd" clip-rule="evenodd" d="M261.261 9.76653C266.636 13.9633 270.233 23.3829 270.317 43.2511C278.385 41.9302 285.146 45.2402 288.81 51.1973C288.899 50.6684 288.945 50.1211 288.945 49.5633C288.945 30.6424 280.425 8.62985 261.261 9.76653ZM240.537 9.76653C222.04 8.87982 212.852 30.6424 212.852 49.5633C212.852 50.1211 212.899 50.6684 212.986 51.1973C215.762 45.456 222.277 41.746 231.481 43.2511C231.565 23.3829 235.159 13.9633 240.537 9.76653Z" fill="white"/>
                    <path fill-rule="evenodd" clip-rule="evenodd" d="M253.611 99.1066L265.854 68.696C265.927 68.5118 266.135 68.4221 266.32 68.4972C266.504 68.5699 266.591 68.7809 266.519 68.9627L252.598 103.546L288.349 50.8361C288.461 50.6737 288.684 50.63 288.846 50.7415C289.011 50.8531 289.053 51.0761 288.943 51.2385L256.305 99.3587L285.21 62.6401C285.331 62.4849 285.557 62.4583 285.712 62.5795C285.867 62.7031 285.896 62.9286 285.772 63.0837L251.185 107.02V107.022H251.182V107.024L251.18 107.027L251.177 107.029L251.175 107.032L251.173 107.034V107.037L251.168 107.041L251.165 107.044L251.161 107.049L251.153 107.056L251.146 107.063L251.141 107.068L251.139 107.07L251.134 107.075L251.131 107.078L251.129 107.08H251.127L251.124 107.083L251.122 107.085H251.119V107.087H251.117L251.114 107.09L251.112 107.092L251.11 107.095H251.107L251.105 107.097L251.102 107.1H251.1V107.102L251.095 107.104H251.093L251.09 107.107L251.088 107.109H251.085L251.083 107.112H251.081L251.078 107.114L251.076 107.117H251.073L251.071 107.119H251.068L251.066 107.121H251.064L251.061 107.124L251.056 107.126H251.054C251.034 107.136 251.013 107.143 250.991 107.15H250.986L250.984 107.153H250.981H250.979H250.976H250.974L250.964 107.155C250.962 107.155 250.959 107.158 250.957 107.158H250.947L250.942 107.16H250.937H250.935H250.933H250.93H250.925H250.923H250.921H250.918L250.916 107.163H250.913H250.911H250.908H250.906H250.904H250.901H250.899H250.896H250.894H250.891H250.889H250.887H250.884L250.882 107.16H250.879H250.877H250.874H250.87H250.867H250.865H250.862H250.86C250.85 107.16 250.838 107.163 250.828 107.163H250.821H250.814C250.761 107.16 250.707 107.148 250.656 107.121H250.654L250.651 107.119H250.649V107.117L250.644 107.114C250.617 107.1 250.593 107.08 250.571 107.061L250.564 107.054C250.55 107.037 250.535 107.02 250.523 107L250.043 106.295L215.95 62.9819C215.826 62.8267 215.853 62.6013 216.008 62.4801C216.163 62.3564 216.389 62.3831 216.512 62.5383L244.36 97.9163L212.701 51.2385C212.59 51.0761 212.631 50.8531 212.796 50.7415C212.961 50.63 213.184 50.6737 213.293 50.8361L249.41 104.084L235.189 69.0306C235.116 68.8487 235.204 68.6402 235.388 68.5651C235.57 68.4899 235.781 68.5797 235.853 68.7615L248.259 99.3369L231.107 42.8553C231.048 42.6662 231.158 42.465 231.347 42.4092C231.536 42.351 231.734 42.4577 231.793 42.6468L250.899 105.57L270.007 42.6468C270.063 42.4577 270.264 42.351 270.453 42.4092C270.642 42.465 270.749 42.6662 270.693 42.8553L253.611 99.1066Z" fill="white"/>
                    <path fill-rule="evenodd" clip-rule="evenodd" d="M226.829 137.585L251.167 142.652L275.506 137.585V136.965L251.167 129.445L226.829 136.965V137.585Z" fill="#000949"/>
                    <path fill-rule="evenodd" clip-rule="evenodd" d="M251.167 98.2027L252.663 97.7107L276.644 105.122V112.914L275.505 112.954V136.965L251.167 129.444V98.2027Z" fill="#0D3D99"/>
                    <path fill-rule="evenodd" clip-rule="evenodd" d="M251.168 98.2136V98.2032L226.83 105.724V105.734L225.612 106.109V113.847L226.83 113.563V136.965L251.168 129.445L251.833 106.589L252.664 105.488V97.7509L251.168 98.2136Z" fill="#1D6DCA"/>
                    <path fill-rule="evenodd" clip-rule="evenodd" d="M241.598 112.313C242.476 112.933 243.897 112.727 244.504 113.749C247.032 118.006 245.263 123.729 241.159 126.945C238.04 129.389 234.898 129.561 232.118 127.599L233.839 129.567C236.62 131.528 240.41 130.276 243.316 127.501C246.377 124.741 248.489 118.72 245.96 114.463C245.354 113.442 243.013 112.427 242.135 111.808L241.598 112.313Z" fill="#000949"/>
                    <g clip-path="url(#clip4_8184_206946)">
                        <circle cx="8.55375" cy="8.55375" r="8.38267" transform="matrix(-0.91561 0.402067 0.0994496 0.995043 245.233 108.874)" fill="white" stroke="#DBD9D6" stroke-width="0.34215"/>
                        <path d="M235.297 119.307C235.881 119.051 236.549 119.09 237.285 119.421C237.633 119.578 237.941 119.776 238.173 119.94C238.173 119.94 238.173 119.94 238.171 119.943L238.171 119.941C238.171 119.941 237.883 120.462 237.562 121.026C237.344 120.866 237.031 120.655 236.68 120.495C236.026 120.2 235.625 120.253 235.402 120.351C234.562 120.72 233.951 121.727 234.038 122.597C234.125 123.462 234.879 123.87 235.717 123.508C235.755 123.491 235.804 123.464 235.864 123.423C235.63 123.643 235.376 123.839 235.125 123.949C233.588 124.624 233.18 123.689 233.153 123.621C233.088 123.446 233.044 123.252 233.023 123.041C232.879 121.598 233.9 119.921 235.297 119.307Z" fill="url(#paint6_linear_8184_206946)"/>
                        <path d="M241.192 122.198C240.608 122.455 239.94 122.416 239.204 122.084C238.856 121.927 238.548 121.729 238.316 121.565C238.316 121.565 238.316 121.565 238.318 121.563L238.318 121.565C238.318 121.565 238.606 121.043 238.927 120.479C239.145 120.639 239.458 120.851 239.809 121.011C240.463 121.306 240.864 121.252 241.087 121.154C241.926 120.784 242.537 119.776 242.45 118.906C242.364 118.041 241.61 117.633 240.772 117.995C240.733 118.012 240.685 118.039 240.625 118.08C240.858 117.861 241.113 117.664 241.363 117.554C242.901 116.879 243.307 117.815 243.336 117.881C243.401 118.058 243.445 118.25 243.466 118.46C243.61 119.907 242.589 121.584 241.192 122.198Z" fill="url(#paint7_linear_8184_206946)"/>
                        <path d="M235.126 123.925C235.911 123.558 236.663 122.539 236.813 122.302C237.202 121.688 238.083 120.102 238.151 119.977C238.793 118.787 239.684 117.381 240.667 116.949L240.669 116.948L240.67 116.948C241.864 116.43 242.953 116.85 243.336 117.88C243.308 117.814 242.806 116.898 241.367 117.571C240.582 117.937 239.828 118.967 239.675 119.206C239.286 119.82 238.406 121.405 238.337 121.53C237.695 122.718 236.804 124.125 235.821 124.556L235.82 124.557L235.818 124.558C234.624 125.076 233.534 124.656 233.153 123.625C233.182 123.691 233.685 124.596 235.126 123.925Z" fill="#29ABE2"/>
                    </g>
                    <path fill-rule="evenodd" clip-rule="evenodd" d="M252.663 105.506L225.612 113.839L226.828 114.511L251.832 106.85L275.507 113.502L276.643 112.904L252.663 105.506Z" fill="#000949"/>
                    <path fill-rule="evenodd" clip-rule="evenodd" d="M439.645 102.25C445.255 93.863 460.062 71.797 476.955 51.3923C470.884 49.754 465.558 49.4217 461.817 50.9045V50.9025C454.634 44.503 447.192 40.9883 440.105 39.8609C425.703 53.311 413.643 65.7931 411.423 68.699C413.384 81.9858 423.825 92.9391 439.329 101.976L439.645 102.25ZM532.407 95.7413C531.677 91.5083 528.998 86.845 525.054 82.1645C513.9 106.076 500.467 128.841 495.354 137.635C509.669 148.133 524.45 152.052 537.338 148.915C538.971 145.609 545.048 129.603 551.085 111.053C546.973 104.643 540.704 99.2849 532.407 95.7413ZM556.322 38.6413H556.322C555.897 44.9371 555.897 44.9352 556.322 38.6413ZM503.266 5.02469C498.986 7.40819 498.986 7.40819 503.266 5.02469H503.266Z" fill="#B66429"/>
                    <path fill-rule="evenodd" clip-rule="evenodd" d="M525.055 82.1627C513.969 69.0028 492.89 55.6936 476.955 51.3904C460.061 71.7973 445.255 93.862 439.645 102.249C445.794 116.691 484.536 140.287 495.354 137.633C500.467 128.838 513.903 106.069 525.055 82.1627ZM550.945 111.481C545.027 129.625 539.104 145.25 537.399 148.789C545.91 148.87 552.241 146.722 555.36 142.13C557.186 139.255 557.63 135.656 556.848 131.531C556.952 124.25 555.025 117.257 551.176 111.195L551.085 111.051L550.945 111.481ZM419.03 43.9926C414.963 45.0384 411.894 46.9706 410.068 49.844L409.947 50.0429L409.84 50.2195L409.739 50.3978L409.642 50.5761L409.547 50.7578L409.443 50.9687L409.357 51.1504L409.273 51.3355L409.194 51.5173L409.127 51.6801L409.055 51.867L408.985 52.0522L408.964 52.1122C408.922 52.2305 408.88 52.3505 408.841 52.4722L408.781 52.6659L408.764 52.7259C408.719 52.8717 408.68 53.0191 408.64 53.1666L408.592 53.3637L408.577 53.4254C408.553 53.5335 408.529 53.6414 408.507 53.7495L408.464 53.9586L408.438 54.1009C407.703 58.195 408.783 63.1685 411.423 68.6959C413.643 65.7916 425.702 53.3088 440.105 39.8591C432.398 38.6316 425.109 40.2243 419.03 43.9926Z" fill="url(#paint8_linear_8184_206946)"/>
                    <path fill-rule="evenodd" clip-rule="evenodd" d="M607.799 292.272C590.86 295.293 568.794 306.894 557.1 318.542C566.325 343.376 578.031 367.23 582.49 376.282C598.072 378.178 637.877 356.425 640.988 345.729C635.928 336.903 622.927 313.883 607.799 292.272ZM646.135 284.51C658.889 298.707 669.459 311.649 671.671 314.895C675.997 307.565 677.302 301.008 674.885 296.011C673.308 292.992 670.414 290.809 666.451 289.423C660.197 285.692 653.177 283.864 646.003 284.166L645.832 284.173L646.135 284.51ZM521.73 365.008C520.603 369.052 520.742 372.676 522.317 375.694L522.429 375.899L522.528 376.079L522.632 376.256L522.738 376.43L522.848 376.602L522.978 376.798L523.093 376.963L523.211 377.129L523.329 377.288L523.437 377.427L523.563 377.583L523.688 377.736L523.729 377.784C523.811 377.88 523.894 377.976 523.98 378.071L524.117 378.22L524.161 378.265C524.265 378.376 524.373 378.484 524.481 378.592L524.627 378.732L524.673 378.776C524.755 378.851 524.836 378.926 524.919 378.999L525.078 379.141L525.189 379.234C528.366 381.918 533.214 383.47 539.321 383.947C537.916 380.572 533.135 363.887 528.688 344.689C523.772 350.749 521.507 357.858 521.73 365.008Z" fill="url(#paint9_linear_8184_206946)"/>
                    <path fill-rule="evenodd" clip-rule="evenodd" d="M665.629 276.721C644.871 277.047 616.35 286.602 600.172 298.217C606.364 329.577 615.699 360.248 619.261 371.89C637.453 377.158 689.063 358.936 694.834 346.798C690.512 335.309 679.473 305.381 665.629 276.721ZM712.787 274.879C725.235 294.252 735.325 311.708 737.333 316.001C743.901 308.106 746.721 300.548 744.808 294.13C743.512 290.23 740.487 287.07 736.034 284.654C729.307 279.003 721.299 275.471 712.696 274.445L712.492 274.42L712.787 274.879ZM549.073 346.728C546.949 351.327 546.415 355.67 547.709 359.569L547.802 359.834L547.886 360.068L547.975 360.299L548.067 360.526L548.165 360.753L548.283 361.012L548.387 361.23L548.496 361.45L548.606 361.663L548.707 361.849L548.827 362.059L548.946 362.266L548.987 362.331C549.065 362.461 549.146 362.591 549.229 362.721L549.365 362.925L549.408 362.987C549.51 363.14 549.618 363.289 549.725 363.438L549.873 363.634L549.919 363.695C550.002 363.8 550.084 363.905 550.168 364.008L550.331 364.208L550.445 364.34C553.711 368.15 559.185 370.934 566.366 372.682C565.344 368.391 562.873 347.596 561.284 323.872C554.259 330.141 550.188 338.17 549.073 346.728Z" fill="#043484"/>
                    <path fill-rule="evenodd" clip-rule="evenodd" d="M454.586 5.19974C437.665 12.447 422.529 24.8597 411.766 41.805C409.379 45.5615 408.334 49.713 408.433 54.1264C408.71 52.5667 409.25 51.1319 410.069 49.844C411.894 46.9705 414.963 45.0396 419.029 43.9918C419.479 42.9282 420.025 41.8843 420.671 40.8683C429.404 27.12 441.331 14.2389 454.586 5.19974ZM576.898 85.0264C573.939 100.164 567.329 115.571 558.978 128.718C558.333 129.734 557.62 130.673 556.848 131.532C557.629 135.658 557.185 139.256 555.36 142.13C554.542 143.418 553.474 144.517 552.179 145.431C556.216 143.645 559.529 140.934 561.916 137.177C572.255 120.898 577.095 102.744 576.898 85.0264ZM532.407 95.7404C567.901 39.3323 558.635 19.1782 539.301 6.89842C519.968 -5.38138 497.787 -5.20276 461.816 50.9017C478.868 44.1446 528.842 75.0862 532.407 95.7404Z" fill="url(#paint10_radial_8184_206946)"/>
                    <path fill-rule="evenodd" clip-rule="evenodd" d="M17.046 101.522C5.33186 90.1344 -25.4692 60.1119 -52.7747 27.9588C-57.6972 35.5662 -60.2006 42.726 -59.1404 48.5105L-59.1435 48.5097C-72.2945 55.5453 -80.8032 64.208 -85.2598 73.4332C-68.4616 99.1087 -52.3922 121.145 -48.4353 125.469C-25.8908 128.626 -4.06229 119.124 16.4786 101.835L17.046 101.522ZM40.4502 -28.5884C33.229 -29.4495 24.585 -27.8273 15.4477 -24.4774C50.6229 1.34674 83.0768 29.7926 95.6413 40.6763C118.146 25.6607 130.015 7.1096 129.601 -11.9503C124.77 -15.6457 100.715 -31.0257 72.4641 -47.4713C60.4257 -44.651 49.3202 -38.4103 40.4502 -28.5884ZM-44.5464 -86.5237L-44.5466 -86.5232C-34.362 -83.1693 -34.3649 -83.1709 -44.5464 -86.5237ZM-119.263 -28.5392C-116.921 -21.6188 -116.921 -21.619 -119.263 -28.54L-119.263 -28.5392Z" fill="#043484"/>
                    <path fill-rule="evenodd" clip-rule="evenodd" d="M15.4449 -24.4782C-10.2449 -15.0637 -39.8531 7.99465 -52.778 27.9589C-25.4693 60.1148 5.33014 90.135 17.0437 101.522C43.0255 99.4429 96.0214 56.6835 95.6384 40.6764C83.072 29.7912 50.6119 1.33957 15.4449 -24.4782ZM73.1168 -47.0902C100.743 -30.9867 124.23 -15.9846 129.416 -12.0883C132.677 -23.7275 131.476 -33.3581 125.08 -39.6574C121.029 -43.4269 115.282 -45.6198 108.219 -46.3633C96.298 -49.7105 84.1034 -50.1449 72.7315 -47.5332L72.4614 -47.4715L73.1168 -47.0902ZM-86.2196 104.161C-85.9966 110.2 -83.951 115.26 -79.9026 119.029L-79.6207 119.284L-79.3697 119.507L-79.114 119.725L-78.8571 119.937L-78.5932 120.146L-78.2853 120.383L-78.0183 120.58L-77.7451 120.777L-77.4756 120.965L-77.2326 121.129L-76.9522 121.31L-76.6739 121.487L-76.5829 121.542C-76.4044 121.653 -76.2224 121.762 -76.0369 121.87L-75.7408 122.037L-75.6485 122.087C-75.4255 122.213 -75.1979 122.332 -74.9702 122.451L-74.664 122.603L-74.5683 122.652C-74.3997 122.732 -74.2311 122.813 -74.0619 122.891L-73.7341 123.041L-73.5098 123.139C-67.0557 125.95 -58.4896 126.657 -48.4405 125.468C-52.3947 121.145 -68.4652 99.1086 -85.2626 73.4329C-90.1114 83.4638 -90.1746 94.1637 -86.2196 104.161Z" fill="url(#paint11_linear_8184_206946)"/>
                    <path fill-rule="evenodd" clip-rule="evenodd" d="M-136.868 38.3146C-131.184 64.7149 -116.359 90.9406 -92.4827 113.162C-87.1897 118.089 -80.7551 121.351 -73.4698 123.157C-75.9299 122.091 -78.0878 120.718 -79.9025 119.029C-83.9512 115.26 -85.9947 110.2 -86.2213 104.162C-87.803 103.077 -89.3165 101.868 -90.7481 100.535C-110.12 82.505 -126.893 60.4749 -136.868 38.3146ZM39.2039 -94.334C62.9793 -83.6123 85.8565 -67.7651 104.381 -50.524C105.813 -49.1911 107.093 -47.8005 108.221 -46.363C115.283 -45.6192 121.031 -43.4262 125.081 -39.6575C126.896 -37.9683 128.308 -36.0196 129.333 -33.8417C127.883 -40.165 124.648 -45.9027 119.354 -50.8303C96.4163 -72.1785 68.3767 -86.8063 39.2039 -94.334ZM40.4487 -28.5881C-39.1554 -102.103 -75.6644 -98.2619 -102.94 -77.1459C-130.216 -56.0297 -138.075 -25.5242 -59.145 48.5102C-63.9758 22.1448 5.21401 -32.7886 40.4487 -28.5881Z" fill="url(#paint12_linear_8184_206946)"/>
                    <path fill-rule="evenodd" clip-rule="evenodd" d="M535.396 286.424C528.922 308.964 528.985 333.902 537.044 358.173C538.83 363.554 542.086 367.93 546.522 371.387C545.206 369.857 544.225 368.168 543.612 366.323C542.246 362.207 542.812 357.622 545.052 352.765C544.364 351.464 543.774 350.084 543.291 348.629C536.753 328.936 533.644 306.788 535.396 286.424ZM712.701 229.978C725.26 245.091 735.145 264.023 741.397 282.855C741.881 284.31 742.233 285.77 742.46 287.224C747.161 289.775 750.356 293.112 751.723 297.228C752.335 299.073 752.56 301.013 752.419 303.027C753.907 297.603 753.899 292.15 752.113 286.768C744.371 263.45 730.348 244.053 712.701 229.978ZM687.445 282.525C660.35 202.058 632.992 194.974 605.3 204.168C577.608 213.363 559.92 235.402 586.332 316.094C593.396 293.82 664.186 269.409 687.445 282.525Z" fill="url(#paint13_linear_8184_206946)"/>
                    <path d="M344.452 222.792L386.355 265.073" stroke="white" stroke-width="1.17138"/>
                    <path d="M225.418 140.217L251.168 146.198" stroke="white" stroke-width="0.554701"/>
                    <path fill-rule="evenodd" clip-rule="evenodd" d="M554.604 24.4191C559.533 38.2565 555.194 59.5277 532.406 95.7395C548.596 102.655 557.063 116.477 556.848 131.533C557.62 130.673 558.333 129.734 558.978 128.718C580.821 94.3292 590.751 44.4806 554.604 24.4191ZM516.937 0.494537C484.34 -22.471 442.514 6.47829 420.671 40.8682C420.025 41.8857 419.478 42.9282 419.029 43.9938C430.699 36.7606 446.825 37.542 461.816 50.9031C484.909 14.8836 502.319 1.91527 516.937 0.494537Z" fill="white"/>
                    <path fill-rule="evenodd" clip-rule="evenodd" d="M634.919 203.174C652.547 209.453 670.05 230.866 687.443 282.524C707.308 272.113 727.771 274.887 742.459 287.225C742.233 285.77 741.88 284.311 741.397 282.855C725.043 233.597 683.834 183.649 634.919 203.174ZM580.967 221.087C532.045 234.768 526.935 299.37 543.29 348.629C543.775 350.085 544.363 351.465 545.053 352.767C547.312 335.422 561.071 320.132 586.333 316.095C569.376 264.291 570.596 236.661 580.967 221.087Z" fill="url(#paint14_linear_8184_206946)"/>
                    <path fill-rule="evenodd" clip-rule="evenodd" d="M437.554 177.976L494.916 136.832C495.262 136.584 495.745 136.664 495.994 137.01C496.242 137.357 496.162 137.838 495.816 138.088L430.585 184.874L556.425 130.342C556.816 130.173 557.271 130.353 557.44 130.743C557.609 131.135 557.43 131.589 557.039 131.76L442.158 181.542L537.09 148.173C537.492 148.031 537.933 148.242 538.074 148.646C538.215 149.047 538.004 149.488 537.602 149.629L424.009 189.558L424.007 189.559L424.004 189.56L424 189.561L423.995 189.563L423.994 189.564L423.992 189.564L423.988 189.565L423.987 189.566L423.983 189.567L423.977 189.569L423.975 189.569L423.973 189.57L423.97 189.571L423.968 189.572L423.965 189.573L423.958 189.575L423.955 189.576L423.951 189.577V189.577L423.946 189.578L423.934 189.581L423.928 189.583L423.911 189.587L423.909 189.588L423.907 189.588L423.901 189.589L423.889 189.592L423.882 189.593V189.593L423.88 189.593L423.87 189.595L423.864 189.596L423.862 189.596L423.86 189.597L423.852 189.598L423.845 189.599L423.843 189.599L423.84 189.6L423.838 189.6V189.6L423.833 189.601L423.828 189.601L423.825 189.602L423.821 189.602L423.82 189.602L423.818 189.602L423.815 189.603L423.81 189.603L423.806 189.604L423.803 189.604L423.801 189.604L423.798 189.604L423.794 189.604L423.791 189.605L423.786 189.605L423.784 189.605L423.783 189.605L423.779 189.605L423.776 189.606H423.772L423.767 189.606L423.766 189.606L423.764 189.606H423.759H423.757L423.754 189.606H423.749H423.747L423.744 189.606L423.739 189.606H423.737H423.735H423.73H423.728H423.725L423.718 189.606H423.717L423.712 189.606H423.708L423.707 189.606L423.7 189.605V189.605L423.698 189.605L423.691 189.605L423.69 189.605L423.686 189.605L423.683 189.604L423.68 189.604L423.676 189.604L423.673 189.604L423.671 189.603L423.668 189.603L423.666 189.603L423.661 189.602L423.654 189.602L423.651 189.601L423.649 189.601H423.647C423.599 189.595 423.551 189.585 423.506 189.57V189.57L423.504 189.569L423.494 189.566L423.49 189.565L423.487 189.564L423.48 189.562L423.477 189.56L423.475 189.559L423.469 189.557L423.45 189.55C423.445 189.548 423.438 189.546 423.433 189.543L423.423 189.538L423.416 189.535L423.406 189.53L423.404 189.53V189.529L423.398 189.527L423.389 189.523L423.387 189.521L423.386 189.521L423.381 189.518L423.379 189.517L423.377 189.516L423.374 189.514L423.371 189.512L423.367 189.511L423.366 189.509L423.364 189.509L423.362 189.508L423.359 189.505L423.354 189.503L423.35 189.501L423.349 189.5L423.347 189.5V189.499L423.342 189.496L423.337 189.493L423.333 189.491L423.33 189.489L423.325 189.486L423.322 189.483L423.318 189.481L423.313 189.479L423.31 189.476L423.305 189.473L423.301 189.47L423.298 189.468L423.295 189.465L423.29 189.462L423.286 189.459L423.283 189.457L423.279 189.454L423.274 189.45L423.269 189.447L423.268 189.445L423.266 189.444L423.259 189.439L423.256 189.436C423.236 189.426 423.217 189.416 423.197 189.404L423.185 189.397L423.183 189.395L423.182 189.394L423.17 189.387V189.386C423.074 189.323 422.991 189.237 422.93 189.133V189.132L422.928 189.128L422.923 189.122L422.922 189.119L422.92 189.116L422.915 189.105V189.104C422.884 189.047 422.861 188.985 422.846 188.921L422.842 188.903C422.83 188.854 422.825 188.805 422.825 188.757L422.77 186.923L410.803 68.8328C410.761 68.4091 411.07 68.0293 411.493 67.9871C411.917 67.9432 412.295 68.2521 412.339 68.6759L422.113 165.134L418.457 43.7344C418.445 43.309 418.779 42.9528 419.206 42.941C419.632 42.9275 419.988 43.2634 420.001 43.6888L424.171 182.168L438.794 102.041C438.87 101.622 439.273 101.344 439.692 101.421C440.111 101.497 440.389 101.899 440.313 102.319L427.557 172.215L461.593 49.749C461.707 49.3388 462.133 49.0974 462.543 49.2122C462.954 49.3253 463.194 49.7507 463.08 50.1626L425.163 186.592L532.539 94.2807C532.862 94.0022 533.35 94.0394 533.627 94.3618C533.905 94.6859 533.868 95.1738 533.545 95.4506L437.554 177.976Z" fill="white"/>
                    <path fill-rule="evenodd" clip-rule="evenodd" d="M344.452 216.995L382.841 254.305L432.93 273.194L433.645 272.07L398.089 230.3L345.167 215.87L344.452 216.995Z" fill="#432806"/>
                    <path fill-rule="evenodd" clip-rule="evenodd" d="M434.156 173.513L437.444 174.346L472.476 215.5L463.476 229.667L461.365 228.424L433.643 272.07L398.087 230.299L434.156 173.513Z" fill="#F7931A"/>
                    <path fill-rule="evenodd" clip-rule="evenodd" d="M434.145 173.531L434.156 173.512L381.235 159.083L381.222 159.102L378.577 158.381L369.643 172.443L372.183 173.332L345.165 215.868L398.088 230.297L425.683 189.524L428.466 188.481L437.398 174.418L434.145 173.531Z" fill="#FFB154"/>
                    <path fill-rule="evenodd" clip-rule="evenodd" d="M428.445 188.515L369.654 172.428L371.089 175.056L425.381 190.001L460.732 229.422L463.489 229.648L428.445 188.515Z" fill="#362005"/>
                    <path fill-rule="evenodd" clip-rule="evenodd" d="M402.119 189.37C403.008 191.197 403.498 193.251 403.498 195.464C403.498 204.686 395 213.172 384.518 214.418C376.551 215.366 369.731 211.859 366.916 206.073L368.285 209.128C371.1 214.914 377.92 218.42 385.887 217.473C396.369 216.227 404.867 207.741 404.867 198.519C404.867 196.306 404.378 194.252 403.489 192.424L402.119 189.37Z" fill="#362005"/>
                    <path d="M403.498 195.464C403.498 204.686 395 213.172 384.518 214.418C374.035 215.665 365.537 209.199 365.537 199.978C365.537 190.756 374.035 182.27 384.518 181.024C395 179.778 403.498 186.243 403.498 195.464Z" fill="white"/>
                    <path d="M394.431 193.985C392.899 193.546 390.841 193.767 388.312 194.639C387.112 195.051 386.001 195.544 385.148 195.948C385.148 195.948 385.148 195.948 385.15 195.953L385.153 195.949C385.153 195.949 385.549 197.026 386.002 198.188C386.81 197.796 387.949 197.272 389.158 196.852C391.408 196.077 392.574 196.112 393.16 196.279C395.363 196.911 396.29 198.98 395.229 200.893C394.176 202.793 391.52 203.835 389.314 203.217C389.214 203.188 389.093 203.139 388.947 203.063C389.454 203.493 390.045 203.869 390.702 204.057C394.737 205.214 396.827 203.096 396.973 202.941C397.329 202.547 397.64 202.115 397.897 201.653C399.655 198.481 398.1 195.037 394.431 193.985Z" fill="url(#paint15_linear_8184_206946)"/>
                    <path d="M373.943 201.477C375.475 201.917 377.533 201.696 380.063 200.824C381.262 200.411 382.373 199.919 383.226 199.515C383.226 199.515 383.226 199.515 383.224 199.509L383.221 199.513C383.221 199.513 382.825 198.436 382.372 197.274C381.564 197.667 380.425 198.19 379.216 198.61C376.966 199.386 375.8 199.351 375.214 199.183C373.013 198.547 372.087 196.478 373.147 194.565C374.2 192.665 376.857 191.624 379.062 192.241C379.162 192.27 379.284 192.32 379.429 192.396C378.923 191.965 378.332 191.589 377.675 191.401C373.64 190.244 371.555 192.364 371.406 192.513C371.047 192.911 370.738 193.339 370.482 193.801C368.719 196.982 370.274 200.425 373.943 201.477Z" fill="url(#paint16_linear_8184_206946)"/>
                    <path d="M390.721 204.003C388.681 203.364 387.339 201.299 387.101 200.813C386.486 199.555 385.272 196.283 385.178 196.025C384.325 193.564 382.916 190.683 380.337 189.943L380.332 189.942L380.327 189.94C377.189 189.055 373.509 190.192 371.406 192.513C371.55 192.363 373.908 190.267 377.649 191.438C379.689 192.077 381.029 194.167 381.272 194.654C381.887 195.912 383.101 199.184 383.195 199.442C384.05 201.899 385.459 204.78 388.038 205.519L388.043 205.521L388.048 205.522C391.186 206.407 394.871 205.272 396.969 202.949C396.82 203.098 394.469 205.171 390.721 204.003Z" fill="#29ABE2"/>
                    <path opacity="0.8" d="M374.126 60.9694C376.399 60.0813 376.209 57.036 376.724 56.7208C377.238 56.404 378.022 60.843 375.425 62.5536C372.827 64.2658 370.166 63.6322 366.986 65.9797C366.262 66.5001 365.664 67.1321 365.187 67.8758C366.225 68.6753 367.726 69.8918 367.375 70.2332C366.92 70.6732 364.882 70.2513 364.065 70.8308C363.332 71.3528 361.86 72.2935 361.211 71.7879C360.747 71.43 361.279 70.1003 361.431 69.1202C357.534 67.976 355.209 69.5979 351.863 70.6092C348.488 71.6237 344.202 68.8969 344.462 68.4537C344.721 68.0104 346.866 68.5817 349.591 68.4537C352.317 68.3273 354.33 65.6629 357.121 65.4724C359.912 65.282 361.692 67.7067 362.316 67.1847C362.771 66.8038 363.095 64.4579 365.431 63.1889C367.768 61.9199 371.854 61.8559 374.126 60.9694Z" fill="white"/>
                    <path opacity="0.8" d="M70.8478 128.476C74.306 128.538 76.4526 127.22 77.6568 127.784C78.577 128.217 80.4016 129.547 82.6477 130.22C83.0456 130.046 83.4631 129.927 83.8977 129.866C84.9147 129.751 86.0142 129.873 86.3022 130.359C86.3297 130.41 86.344 130.463 86.3454 130.52C88.81 130.116 90.6294 128.616 91.2211 128.853C91.9279 129.135 92.8965 130.269 94.8612 131.773C96.8717 133.312 99.4947 133.626 99.7578 134.002C100.021 134.38 97.4005 134.506 94.8612 133.626C92.3206 132.746 91.3271 131.678 90.7538 131.49C90.263 131.329 87.4409 132.587 84.6699 132.685C84.4919 132.807 84.3035 132.912 84.1045 133.003C83.1856 133.419 80.8309 133.646 80.323 133.647C79.7772 133.647 79.4827 133.61 79.3296 133.78C79.0783 134.059 78.8623 134.29 78.683 134.29C78.5233 134.29 78.4683 133.999 78.5403 133.805C78.611 133.61 78.2654 133.417 78.3845 133.246C78.5037 133.078 79.0063 133.052 79.2432 132.906C79.3846 132.819 79.9579 132.331 80.505 131.844C78.7209 131.093 77.4238 130.07 77.0311 129.705C76.4578 129.174 73.9944 130.236 70.6947 130.176C67.3949 130.116 65.1436 127.786 65.4053 127.649C65.6671 127.51 67.3923 128.413 70.8478 128.476Z" fill="white"/>
                    <path opacity="0.8" d="M162.044 30.2732C159.864 30.8993 158.281 30.4287 157.614 30.9906C157.105 31.4204 156.175 32.5726 154.866 33.3804C154.585 33.3373 154.3 33.3328 154.015 33.3681C153.351 33.4677 152.675 33.7319 152.575 34.0883C152.566 34.1252 152.566 34.1615 152.575 34.1979C150.946 34.3602 149.539 33.7188 149.204 33.9691C148.804 34.2682 148.383 35.1505 147.394 36.4364C146.382 37.7524 144.774 38.3967 144.671 38.6796C144.569 38.9633 146.25 38.5986 147.709 37.6103C149.169 36.6218 149.617 35.7767 149.948 35.5602C150.231 35.3747 152.232 35.6929 154.004 35.2849C154.137 35.3316 154.275 35.3665 154.416 35.3904C155.068 35.4974 156.598 35.2415 156.92 35.1561C157.266 35.0634 157.446 34.9904 157.572 35.072C157.779 35.2062 157.955 35.3156 158.068 35.2852C158.169 35.2581 158.155 35.0642 158.076 34.9535C157.998 34.8425 158.185 34.6616 158.08 34.5734C157.976 34.4868 157.653 34.5559 157.479 34.5039C157.374 34.4725 156.928 34.2608 156.499 34.0454C157.502 33.2668 158.15 32.3986 158.336 32.1005C158.609 31.6673 160.35 31.9219 162.429 31.3234C164.509 30.7258 165.54 28.8677 165.351 28.8253C165.161 28.7821 164.222 29.6468 162.044 30.2732Z" fill="white"/>
                    <path d="M544.158 186.083C543.462 185.926 537.633 185.189 536.081 185.492C534.975 185.709 531.884 187.758 531.027 188.17C530.427 188.461 530.111 188.564 529.839 188.528C528.787 187.283 527.756 185.586 526.425 184.625C524.932 183.549 520.803 183.28 521.076 183.573C521.402 183.924 524.01 184.172 525.316 185.124C526.296 185.839 527.135 187.206 527.61 188.138C527.546 188.265 527.526 188.374 527.37 188.467C527.055 188.65 526.965 188.765 527.145 188.81C527.327 188.855 527.439 188.81 527.532 188.902C527.626 188.993 527.826 189.314 528.322 189.36C528.818 189.407 528.435 190.047 528.864 190.551C529.458 191.251 530.195 190.895 530.443 191.055C530.691 191.217 530.511 191.88 530.647 191.949C530.781 192.017 531.255 191.675 531.593 191.556C531.932 191.438 532.361 191.451 532.383 191.251C532.405 191.052 531.455 190.755 531.345 190.545C531.289 190.442 531.232 190.189 531.128 189.904C533.15 189.496 535.748 187.6 536.31 187.218C536.919 186.805 537.618 186.983 538.994 186.904C540.37 186.825 544.858 186.241 544.158 186.083Z" fill="#66ADE1"/>
                    <path d="M272.363 224.195C272.92 224.069 277.59 223.478 278.834 223.721C279.72 223.895 282.197 225.536 282.883 225.867C283.364 226.1 283.617 226.182 283.835 226.153C284.677 225.156 285.504 223.796 286.57 223.027C287.766 222.164 291.074 221.949 290.856 222.184C290.594 222.465 288.505 222.663 287.459 223.426C286.673 223.999 286.001 225.094 285.621 225.841C285.672 225.943 285.688 226.03 285.813 226.104C286.065 226.251 286.137 226.343 285.993 226.379C285.848 226.416 285.758 226.379 285.683 226.453C285.608 226.526 285.448 226.783 285.05 226.82C284.653 226.857 284.959 227.371 284.616 227.774C284.14 228.335 283.55 228.05 283.351 228.178C283.152 228.308 283.297 228.839 283.188 228.894C283.08 228.949 282.7 228.674 282.429 228.579C282.158 228.484 281.815 228.495 281.797 228.335C281.779 228.176 282.54 227.938 282.628 227.769C282.673 227.686 282.719 227.484 282.802 227.256C281.182 226.929 279.1 225.41 278.65 225.104C278.163 224.773 277.602 224.915 276.5 224.852C275.398 224.789 271.802 224.321 272.363 224.195Z" fill="#66ADE1"/>
                    <path d="M381.159 150.712C381.336 150.611 381.544 150.782 381.48 150.976L380.474 154.014C379.907 155.729 380.056 157.601 380.889 159.204L382.272 161.865C382.372 162.058 382.164 162.266 381.971 162.166L379.896 161.088C377.957 160.08 375.649 160.082 373.712 161.093L371.568 162.212C371.384 162.308 371.18 162.124 371.257 161.932L372.296 159.34C373.081 157.378 372.895 155.16 371.792 153.357L370.392 151.068C370.276 150.879 370.477 150.655 370.678 150.75L373.189 151.945C375.157 152.881 377.457 152.801 379.355 151.73L381.159 150.712Z" fill="white"/>
                    <path fill-rule="evenodd" clip-rule="evenodd" d="M97.8794 149.095L-9.92782 81.1492C-10.5782 80.7394 -11.4396 80.9345 -11.8497 81.5849C-12.2596 82.2384 -12.0644 83.0967 -11.4135 83.5095L111.181 160.772L-121.464 76.0944C-122.186 75.8325 -122.987 76.2071 -123.25 76.928C-123.513 77.652 -123.14 78.4509 -122.417 78.7159L89.9672 156.017L-84.698 106.138C-85.4379 105.926 -86.2096 106.354 -86.4206 107.096C-86.6319 107.835 -86.2028 108.606 -85.4636 108.817L123.537 168.502L123.541 168.503L123.547 168.505L123.553 168.507L123.562 168.509L123.565 168.511L123.569 168.512L123.575 168.513L123.578 168.514L123.584 168.516L123.596 168.519L123.6 168.519L123.603 168.52L123.609 168.522L123.612 168.522L123.618 168.524L123.631 168.527L123.637 168.529L123.643 168.53L123.652 168.532L123.674 168.537L123.686 168.539L123.717 168.545L123.72 168.545L123.723 168.545L123.736 168.547L123.757 168.55L123.769 168.552L123.772 168.552L123.791 168.555L123.803 168.556L123.806 168.556L123.809 168.556L123.825 168.558L123.837 168.559L123.84 168.559L123.846 168.559L123.849 168.56L123.858 168.56L123.868 168.561L123.874 168.561L123.88 168.561L123.883 168.561L123.886 168.562L123.892 168.562L123.901 168.562L123.907 168.563L123.914 168.563L123.917 168.563L123.923 168.563L123.929 168.563L123.935 168.563L123.944 168.563L123.947 168.563L123.95 168.563L123.956 168.563L123.962 168.563L123.968 168.563L123.978 168.562L123.981 168.563L123.984 168.563L123.993 168.562L123.996 168.562L124.002 168.562L124.011 168.561L124.014 168.561L124.02 168.561L124.029 168.56L124.032 168.56L124.035 168.56L124.045 168.559L124.048 168.559L124.054 168.559L124.066 168.558L124.069 168.558L124.078 168.556L124.084 168.556L124.087 168.556L124.099 168.555L124.102 168.554L124.114 168.553L124.117 168.552L124.123 168.552L124.13 168.551L124.136 168.55L124.142 168.549L124.148 168.548L124.151 168.548L124.157 168.547L124.16 168.546L124.169 168.545L124.181 168.543L124.187 168.541L124.19 168.541L124.193 168.541C124.281 168.525 124.365 168.501 124.445 168.47L124.448 168.468L124.466 168.462L124.472 168.459L124.478 168.456L124.49 168.452L124.496 168.449L124.499 168.447L124.511 168.443L124.543 168.428C124.552 168.423 124.564 168.418 124.573 168.413L124.591 168.403L124.603 168.397L124.62 168.388L124.623 168.386L124.635 168.38L124.65 168.372L124.653 168.369L124.656 168.368L124.665 168.363L124.668 168.361L124.671 168.359L124.677 168.355L124.682 168.351L124.688 168.349L124.691 168.345L124.694 168.344L124.697 168.343L124.703 168.338L124.712 168.333L124.718 168.329L124.721 168.327L124.724 168.326L124.723 168.324L124.732 168.319L124.741 168.313L124.747 168.309L124.753 168.304L124.762 168.299L124.767 168.294L124.773 168.289L124.782 168.284L124.788 168.279L124.797 168.273L124.803 168.268L124.808 168.263L124.814 168.258L124.823 168.251L124.829 168.246L124.835 168.242L124.84 168.237L124.849 168.229L124.858 168.222L124.861 168.219L124.864 168.216L124.875 168.207L124.881 168.202C124.916 168.182 124.949 168.161 124.984 168.137L125.004 168.123L125.007 168.12L125.01 168.118L125.031 168.103C125.197 167.979 125.337 167.815 125.435 167.621L125.435 167.618L125.438 167.611L125.446 167.599L125.449 167.594L125.452 167.588L125.46 167.569L125.46 167.566C125.508 167.46 125.544 167.347 125.564 167.229L125.569 167.197C125.585 167.107 125.589 167.018 125.583 166.93L125.486 163.62L134.299 -50.4646C134.329 -51.2327 133.732 -51.8837 132.964 -51.914C132.195 -51.9473 131.547 -51.3499 131.514 -50.5816L124.316 124.286L117.797 -94.8645C117.773 -95.6323 117.132 -96.238 116.361 -96.2132C115.593 -96.1916 114.988 -95.5478 115.009 -94.7798L122.448 155.204L83.8576 -47.4956C83.6743 -48.2417 82.9194 -48.7002 82.1725 -48.515C81.4254 -48.3329 80.9675 -47.5789 81.1506 -46.8297L115.271 137.634L40.7173 -79.3689C40.4674 -80.0957 39.6739 -80.4847 38.9465 -80.2335C38.2189 -79.9854 37.8314 -79.1929 38.0812 -78.463L121.137 163.282L-82.316 8.53536C-82.9282 8.06834 -83.8033 8.18797 -84.2689 8.79895C-84.7343 9.41296 -84.6153 10.2881 -84.0032 10.7521L97.8794 149.095Z" fill="white"/>
                    <path d="M100.623 132.891C85.3866 143.956 75.4799 161.913 75.4799 182.183C75.4799 215.807 102.737 243.064 136.36 243.064C149.713 243.064 162.061 238.765 172.098 231.476C187.333 220.411 197.24 202.454 197.24 182.183C197.24 148.56 169.983 121.303 136.36 121.303C123.007 121.303 110.659 125.602 100.623 132.891Z" fill="#0066FF"/>
                    <path fill-rule="evenodd" clip-rule="evenodd" d="M81.8297 177.57C81.8297 157.307 91.7287 139.357 106.954 128.291L100.623 132.891C85.3869 143.956 75.4801 161.913 75.4801 182.183L75.4803 182.183C75.4803 215.806 102.737 243.063 136.36 243.063L136.361 243.063C149.713 243.063 162.061 238.764 172.097 231.476L178.447 226.862C168.411 234.151 156.062 238.45 142.709 238.45L142.709 238.45C109.087 238.45 81.8299 211.193 81.8299 177.57L81.8297 177.57Z" fill="#0754C8"/>
                    <path fill-rule="evenodd" clip-rule="evenodd" d="M142.066 211.883L145.184 217.748C145.65 218.623 146.717 219.007 147.63 218.619C149.712 217.733 151.81 216.79 153.92 215.801C154.889 215.347 155.27 214.188 154.768 213.244L151.945 207.935C152.8 207.529 153.658 207.108 154.516 206.673C155.289 206.277 156.052 205.875 156.803 205.468L159.626 210.775C160.127 211.719 161.315 212.079 162.25 211.563C164.288 210.441 166.282 209.303 168.219 208.145C169.07 207.636 169.362 206.559 168.896 205.683L165.794 199.848C178.29 190.724 184.567 179.033 176.432 163.878L174.455 160.16C166.425 144.914 153.052 143.257 138.253 148.051L135.153 142.221C134.687 141.344 133.618 140.96 132.703 141.351C130.624 142.24 128.528 143.186 126.42 144.176C125.452 144.631 125.072 145.789 125.574 146.733L128.396 152.04C127.623 152.409 126.85 152.79 126.075 153.183C125.217 153.62 124.372 154.064 123.542 154.516L120.721 149.212C120.219 148.268 119.031 147.908 118.095 148.425C116.058 149.549 114.065 150.69 112.13 151.851C111.28 152.361 110.989 153.436 111.455 154.312L114.565 160.16C102.25 169.237 96.1748 180.869 104.198 195.958L106.175 199.676C114.136 214.793 127.397 216.544 142.066 211.883ZM115.438 193.883L114.326 191.791C106.749 178.005 117.156 169.479 130.877 162.246C144.865 155.361 157.969 151.907 165.158 165.89L166.27 167.982C173.88 181.832 163.473 190.357 149.688 197.623C135.764 204.476 122.661 207.929 115.438 193.883Z" fill="white"/>
                    <path fill-rule="evenodd" clip-rule="evenodd" d="M402.291 187.714C403.267 189.686 403.804 191.903 403.804 194.291C403.804 204.241 394.478 213.398 382.974 214.743C374.23 215.765 366.745 211.981 363.656 205.737L365.158 209.034C368.248 215.277 375.733 219.061 384.476 218.039C395.981 216.694 405.307 207.537 405.307 197.587C405.307 195.199 404.77 192.982 403.794 191.011L402.291 187.714Z" fill="#401E34"/>
                    <g clip-path="url(#clip5_8184_206946)">
                        <path d="M389.606 180.982C400.472 181.932 406.611 190.46 403.317 200.027C400.024 209.593 388.542 216.579 377.676 215.629C366.811 214.678 360.671 206.15 363.965 196.584C367.259 187.017 378.741 180.031 389.606 180.982Z" fill="#F7931A"/>
                        <path d="M394.654 196.546C395.996 193.995 394.227 192.397 391.482 191.203L393.684 187.774L391.434 187.033L389.29 190.385C388.705 190.198 388.09 190.008 387.475 189.818L389.649 186.468L387.399 185.726L385.197 189.156C384.693 189.003 384.219 188.852 383.745 188.702L380.637 187.667L379.184 189.91C379.184 189.91 380.859 190.437 380.819 190.461C381.737 190.759 381.717 191.357 381.533 191.803C379.521 194.95 377.489 198.067 375.478 201.214C375.267 201.467 374.83 201.838 374.194 201.619C374.215 201.648 372.559 201.067 372.559 201.067L370.511 203.421L373.427 204.384C373.982 204.568 374.507 204.751 375.032 204.933L372.783 208.412L375.033 209.154L377.234 205.724C377.84 205.941 378.446 206.157 379.031 206.345L376.83 209.774L379.08 210.515L381.32 207.062C385.227 208.112 388.441 208.121 390.9 204.932C392.87 202.354 392.287 200.723 390.471 199.53C392.148 199.241 393.668 198.421 394.654 196.546ZM386.732 202.933C385.062 205.538 380.488 203.64 378.955 203.152L381.927 198.564C383.43 199.05 388.469 200.226 386.732 202.933ZM389.859 196.099C388.33 198.471 384.525 196.858 383.243 196.446L385.919 192.269C387.2 192.681 391.423 193.622 389.859 196.099Z" fill="white"/>
                    </g>
                </g>
            </g>
        </g>
    </g>
    <defs>
        <filter id="filter0_d_8184_206946" x="-2" y="-1" width="644" height="264" filterUnits="userSpaceOnUse" color-interpolation-filters="sRGB">
            <feFlood flood-opacity="0" result="BackgroundImageFix"/>
            <feColorMatrix in="SourceAlpha" type="matrix" values="0 0 0 0 0 0 0 0 0 0 0 0 0 0 0 0 0 0 127 0" result="hardAlpha"/>
            <feOffset dy="1"/>
            <feGaussianBlur stdDeviation="1"/>
            <feComposite in2="hardAlpha" operator="out"/>
            <feColorMatrix type="matrix" values="0 0 0 0 0 0 0 0 0 0 0 0 0 0 0 0 0 0 0.1 0"/>
            <feBlend mode="normal" in2="BackgroundImageFix" result="effect1_dropShadow_8184_206946"/>
            <feBlend mode="normal" in="SourceGraphic" in2="effect1_dropShadow_8184_206946" result="shape"/>
        </filter>
        <filter id="filter1_d_8184_206946" x="-2.5" y="-71.0957" width="644" height="404" filterUnits="userSpaceOnUse" color-interpolation-filters="sRGB">
            <feFlood flood-opacity="0" result="BackgroundImageFix"/>
            <feColorMatrix in="SourceAlpha" type="matrix" values="0 0 0 0 0 0 0 0 0 0 0 0 0 0 0 0 0 0 127 0" result="hardAlpha"/>
            <feOffset dy="1"/>
            <feGaussianBlur stdDeviation="1"/>
            <feComposite in2="hardAlpha" operator="out"/>
            <feColorMatrix type="matrix" values="0 0 0 0 0 0 0 0 0 0 0 0 0 0 0 0 0 0 0.1 0"/>
            <feBlend mode="normal" in2="BackgroundImageFix" result="effect1_dropShadow_8184_206946"/>
            <feBlend mode="normal" in="SourceGraphic" in2="effect1_dropShadow_8184_206946" result="shape"/>
        </filter>
        <filter id="filter2_f_8184_206946" x="-207.484" y="58.1841" width="585.858" height="391.797" filterUnits="userSpaceOnUse" color-interpolation-filters="sRGB">
            <feFlood flood-opacity="0" result="BackgroundImageFix"/>
            <feBlend mode="normal" in="SourceGraphic" in2="BackgroundImageFix" result="shape"/>
            <feGaussianBlur stdDeviation="62" result="effect1_foregroundBlur_8184_206946"/>
        </filter>
        <filter id="filter3_f_8184_206946" x="119.663" y="58.1841" width="585.858" height="391.797" filterUnits="userSpaceOnUse" color-interpolation-filters="sRGB">
            <feFlood flood-opacity="0" result="BackgroundImageFix"/>
            <feBlend mode="normal" in="SourceGraphic" in2="BackgroundImageFix" result="shape"/>
            <feGaussianBlur stdDeviation="62" result="effect1_foregroundBlur_8184_206946"/>
        </filter>
        <filter id="filter4_f_8184_206946" x="267.542" y="58.1841" width="585.858" height="391.797" filterUnits="userSpaceOnUse" color-interpolation-filters="sRGB">
            <feFlood flood-opacity="0" result="BackgroundImageFix"/>
            <feBlend mode="normal" in="SourceGraphic" in2="BackgroundImageFix" result="shape"/>
            <feGaussianBlur stdDeviation="62" result="effect1_foregroundBlur_8184_206946"/>
        </filter>
        <filter id="filter5_f_8184_206946" x="-56.9636" y="112.828" width="486.127" height="391.797" filterUnits="userSpaceOnUse" color-interpolation-filters="sRGB">
            <feFlood flood-opacity="0" result="BackgroundImageFix"/>
            <feBlend mode="normal" in="SourceGraphic" in2="BackgroundImageFix" result="shape"/>
            <feGaussianBlur stdDeviation="62" result="effect1_foregroundBlur_8184_206946"/>
        </filter>
        <linearGradient id="paint0_linear_8184_206946" x1="320" y1="-43.9258" x2="320" y2="400" gradientUnits="userSpaceOnUse">
            <stop stop-color="#0061D8"/>
            <stop offset="0.526006" stop-color="#97CFFC"/>
            <stop offset="1" stop-color="#ACDEFB"/>
        </linearGradient>
        <linearGradient id="paint1_linear_8184_206946" x1="598.994" y1="226.371" x2="598.994" y2="246.34" gradientUnits="userSpaceOnUse">
            <stop stop-color="white"/>
            <stop offset="1" stop-color="#81B3FF"/>
        </linearGradient>
        <linearGradient id="paint2_linear_8184_206946" x1="489.355" y1="-50.7046" x2="682.23" y2="45.5295" gradientUnits="userSpaceOnUse">
            <stop stop-color="white"/>
            <stop offset="1" stop-color="white" stop-opacity="0"/>
        </linearGradient>
        <linearGradient id="paint3_linear_8184_206946" x1="490.037" y1="-48.7654" x2="680.328" y2="52.4802" gradientUnits="userSpaceOnUse">
            <stop stop-color="white"/>
            <stop offset="1" stop-color="white" stop-opacity="0"/>
        </linearGradient>
        <linearGradient id="paint4_linear_8184_206946" x1="257.162" y1="42.2214" x2="246.784" y2="66.8007" gradientUnits="userSpaceOnUse">
            <stop stop-color="#3579DE"/>
            <stop offset="1" stop-color="#E2EEFF"/>
        </linearGradient>
        <linearGradient id="paint5_linear_8184_206946" x1="257.487" y1="28.8241" x2="271.743" y2="-2.73494" gradientUnits="userSpaceOnUse">
            <stop stop-color="#0066FF"/>
            <stop offset="1" stop-color="#003D99"/>
        </linearGradient>
        <linearGradient id="paint6_linear_8184_206946" x1="236.652" y1="119.073" x2="233.763" y2="124.484" gradientUnits="userSpaceOnUse">
            <stop offset="0.21" stop-color="#F15A24"/>
            <stop offset="0.6841" stop-color="#FBB03B"/>
        </linearGradient>
        <linearGradient id="paint7_linear_8184_206946" x1="239.837" y1="122.432" x2="242.726" y2="117.021" gradientUnits="userSpaceOnUse">
            <stop offset="0.21" stop-color="#ED1E79"/>
            <stop offset="0.8929" stop-color="#522785"/>
        </linearGradient>
        <linearGradient id="paint8_linear_8184_206946" x1="494.389" y1="53.1891" x2="469.101" y2="94.1215" gradientUnits="userSpaceOnUse">
            <stop stop-color="#D6C8A1"/>
            <stop offset="1" stop-color="white"/>
        </linearGradient>
        <linearGradient id="paint9_linear_8184_206946" x1="567.374" y1="304.343" x2="597.869" y2="373.348" gradientUnits="userSpaceOnUse">
            <stop stop-color="#3579DE"/>
            <stop offset="1" stop-color="#E2EEFF"/>
        </linearGradient>
        <radialGradient id="paint10_radial_8184_206946" cx="0" cy="0" r="1" gradientUnits="userSpaceOnUse" gradientTransform="translate(525.14 29.5781) rotate(176.344) scale(93.8989 80.079)">
            <stop stop-color="#FFB358"/>
            <stop offset="1" stop-color="#F7931A"/>
        </radialGradient>
        <linearGradient id="paint11_linear_8184_206946" x1="-43.4157" y1="4.83612" x2="23.1276" y2="104.186" gradientUnits="userSpaceOnUse">
            <stop stop-color="#3579DE"/>
            <stop offset="1" stop-color="#E2EEFF"/>
        </linearGradient>
        <linearGradient id="paint12_linear_8184_206946" x1="-22.7565" y1="-6.85023" x2="-113.028" y2="-122.294" gradientUnits="userSpaceOnUse">
            <stop stop-color="#0066FF"/>
            <stop offset="1" stop-color="#003D99"/>
        </linearGradient>
        <linearGradient id="paint13_linear_8184_206946" x1="611.5" y1="262.5" x2="614.008" y2="361.739" gradientUnits="userSpaceOnUse">
            <stop stop-color="white"/>
            <stop offset="1" stop-color="#3579DE"/>
        </linearGradient>
        <linearGradient id="paint14_linear_8184_206946" x1="627.996" y1="268.342" x2="593.102" y2="162.704" gradientUnits="userSpaceOnUse">
            <stop stop-color="#0066FF"/>
            <stop offset="1" stop-color="#003D99"/>
        </linearGradient>
        <linearGradient id="paint15_linear_8184_206946" x1="390.544" y1="193.752" x2="394.819" y2="204.757" gradientUnits="userSpaceOnUse">
            <stop offset="0.21" stop-color="#F15A24"/>
            <stop offset="0.6841" stop-color="#FBB03B"/>
        </linearGradient>
        <linearGradient id="paint16_linear_8184_206946" x1="377.83" y1="201.71" x2="373.555" y2="190.706" gradientUnits="userSpaceOnUse">
            <stop offset="0.21" stop-color="#ED1E79"/>
            <stop offset="0.8929" stop-color="#522785"/>
        </linearGradient>
        <clipPath id="clip0_8184_206946">
            <rect width="640" height="260" fill="white"/>
        </clipPath>
        <clipPath id="clip1_8184_206946">
            <rect width="640" height="400" fill="white" transform="translate(0 -70.0957)"/>
        </clipPath>
        <clipPath id="clip2_8184_206946">
            <rect width="640" height="400" fill="white" transform="translate(-0.5 -70.0957)"/>
        </clipPath>
        <clipPath id="clip3_8184_206946">
            <rect width="640" height="400" fill="white" transform="translate(0 -70)"/>
        </clipPath>
        <clipPath id="clip4_8184_206946">
            <path d="M246.084 117.385C245.614 112.684 241.726 110.413 237.401 112.313C233.076 114.212 229.95 119.563 230.42 124.263C230.89 128.964 234.777 131.235 239.102 129.335C243.428 127.436 246.553 122.086 246.084 117.385Z" fill="white"/>
        </clipPath>
        <clipPath id="clip5_8184_206946">
            <path d="M363.965 196.583C367.259 187.016 378.102 179.975 388.182 180.857L391.03 181.106C401.111 181.988 406.612 190.459 403.317 200.026C400.023 209.594 389.181 216.635 379.101 215.753L376.252 215.503C366.172 214.622 360.671 206.151 363.965 196.583Z" fill="white"/>
        </clipPath>
    </defs>
</svg>
