<svg xmlns="http://www.w3.org/2000/svg" width="361" height="249" fill="none"><g clip-path="url(#a)"><rect width="361" height="249" x=".005" fill="url(#b)" fill-opacity=".7" rx="12"/><g fill="#fff" opacity=".64"><path d="m217.307 416.242-615.542-283.693 52.252-99.071 579.818 376.27-16.528 6.494Z" opacity=".6"/><path d="m143.703 416.242 615.543-283.693-52.252-99.071-579.819 376.27 16.528 6.494Z" opacity=".6"/><path d="m178.783 407.614 77.035-566.975-153.626.848 76.591 588.428v-22.301Z" opacity=".6"/><path d="M187.264 377.27-191-2 8.505-141.955l195.959 523.641-17.2-4.416Z" opacity=".6"/><path d="M167.551 375.447 628-52.5l-274.497-88.745-203.212 520.869 17.26-4.177Z" opacity=".6"/></g><g clip-path="url(#c)"><circle cx="187.477" cy="163.898" r="31.879" fill="#2775CA"/><path fill="#fff" d="M196.309 168.68c0-4.649-2.789-6.243-8.368-6.907-3.985-.532-4.782-1.594-4.782-3.454s1.328-3.055 3.985-3.055c2.391 0 3.719.797 4.383 2.789a.998.998 0 0 0 .93.664h2.125c.531 0 .93-.398.93-.929v-.133a6.634 6.634 0 0 0-5.977-5.446v-3.188c0-.532-.399-.93-1.063-1.063h-1.992c-.532 0-.93.398-1.063 1.063v3.055c-3.985.531-6.509 3.188-6.509 6.509 0 4.383 2.657 6.11 8.236 6.774 3.719.664 4.914 1.461 4.914 3.586 0 2.126-1.859 3.587-4.383 3.587-3.454 0-4.649-1.461-5.048-3.454-.132-.531-.531-.797-.929-.797h-2.259a.908.908 0 0 0-.929.93v.133c.531 3.321 2.656 5.711 7.04 6.376v3.188c0 .531.398.929 1.062 1.062h1.993c.531 0 .93-.398 1.063-1.062v-3.188c3.984-.665 6.641-3.454 6.641-7.04Z"/><path fill="#fff" d="M180.768 182.627c-10.361-3.72-15.674-15.276-11.822-25.504 1.993-5.579 6.376-9.829 11.822-11.822.531-.265.797-.664.797-1.328v-1.86c0-.531-.266-.93-.797-1.062-.133 0-.399 0-.532.132-12.618 3.985-19.526 17.401-15.541 30.02 2.391 7.439 8.103 13.15 15.541 15.541.532.266 1.063 0 1.196-.531.133-.133.133-.266.133-.531v-1.86c0-.398-.399-.93-.797-1.195Zm14.08-41.444c-.531-.265-1.063 0-1.195.532-.133.133-.133.265-.133.531v1.86c0 .531.398 1.062.797 1.328 10.36 3.719 15.674 15.275 11.821 25.504-1.992 5.579-6.375 9.829-11.821 11.821-.532.266-.797.665-.797 1.329v1.859c0 .532.265.93.797 1.063.133 0 .398 0 .531-.133 12.619-3.985 19.526-17.401 15.541-30.019-2.391-7.572-8.236-13.284-15.541-15.675Z"/></g><path fill="url(#d)" fill-rule="evenodd" d="M254.541 103.336c3.663-7.946 13.341-28.856 25.031-48.628-5.422-.577-10.029-.137-13.031 1.642v-.002c-7.021-4.503-13.873-6.5-20.095-6.501-10.503 13.477-19.132 25.807-20.638 28.598 3.488 11.11 13.919 19.07 28.425 24.699l.308.192Zm78.551-18.195c-1.202-3.526-4.13-7.155-8.144-10.626-6.298 21.994-14.704 43.316-17.886 51.543 13.686 7.042 26.877 8.387 37.487 3.947.949-3.054 3.975-17.587 6.621-34.294-4.394-4.929-10.491-8.665-18.078-10.57Zm12.71-52.151c.493 5.449.493 5.447 0 0Zm-50.008-21.57c-3.341 2.623-3.341 2.623 0 0Z" clip-rule="evenodd"/><path fill="url(#e)" fill-rule="evenodd" d="M324.948 74.513c-11.284-9.761-31.146-18.29-45.377-19.807-11.691 19.774-21.367 40.683-25.03 48.629 7.231 11.531 43.618 26.466 52.52 22.721 3.183-8.227 11.59-29.554 17.887-51.543Zm26.16 21.584c-2.599 16.343-5.545 30.529-6.524 33.792 7.299-1.089 12.429-3.79 14.475-8.146 1.172-2.711 1.063-5.853-.168-9.279-.901-6.249-3.503-11.976-7.624-16.643l-.097-.111-.062.387ZM228.961 56.252c-3.341 1.45-5.706 3.521-6.878 6.23l-.077.187-.067.166-.063.166-.059.166-.056.169-.061.195-.049.167-.046.17-.043.166-.035.149-.037.17-.035.168-.009.054c-.021.107-.04.215-.057.325l-.025.174-.006.054c-.019.13-.032.262-.046.394l-.014.175-.005.055a13.87 13.87 0 0 0-.016.287l-.009.185-.002.126c-.073 3.606 1.529 7.718 4.542 12.092 1.506-2.79 10.134-15.12 20.638-28.597-6.767-.003-12.792 2.353-17.485 6.407Z" clip-rule="evenodd"/><path fill="url(#f)" fill-rule="evenodd" d="M254.131 18.195c-13.504 8.508-24.777 21.197-31.688 37.173-1.533 3.541-1.863 7.239-1.178 11.005.025-1.374.292-2.676.818-3.89 1.172-2.71 3.538-4.78 6.877-6.23.24-.973.566-1.941.981-2.899 5.608-12.962 14.069-25.615 24.19-35.16Zm115.602 51.717c-.474 13.366-4.038 27.459-9.4 39.853a18.373 18.373 0 0 1-1.442 2.7c1.231 3.427 1.34 6.569.168 9.278-.525 1.215-1.291 2.301-2.275 3.26 3.214-2.079 5.682-4.851 7.215-8.394 6.64-15.347 8.313-31.552 5.734-46.697Zm-36.642 15.229c22.721-53.135 12.043-69.133-6.183-77.018C308.681.238 289.71 3.409 266.54 56.348c13.684-8.107 60.689 11.59 66.551 28.793Z" clip-rule="evenodd"/><path fill="#fff" fill-rule="evenodd" d="M342.396 21.043c6.103 11.179 5.282 29.985-9.305 64.095 14.805 3.72 23.936 14.404 25.8 27.326a18.424 18.424 0 0 0 1.442-2.7c14.026-32.421 15.747-76.46-17.937-88.721ZM306.885 5.68c-31.039-15.231-62.918 15.25-76.944 47.672a18.46 18.46 0 0 0-.981 2.9c9.01-7.782 22.926-9.307 37.581.095C281.416 22.36 294.56 8.886 306.885 5.68Z" clip-rule="evenodd"/><path fill="#F5A273" fill-rule="evenodd" d="m263.054 168.467 43.524-43.038a.67.67 0 0 1 .941.953l-49.494 48.941 100.342-63.821a.67.67 0 0 1 .719 1.131l-91.604 58.261 76.754-41.491a.67.67 0 1 1 .637 1.177l-91.843 49.648-.001.001-.003.002-.002.001-.004.002-.002.001-.001.001-.003.001-.001.001-.003.002-.006.002-.001.001-.001.001-.003.001-.001.001-.003.001-.006.003-.002.001-.003.001-.004.002-.01.005-.006.002-.013.006h-.002l-.001.001-.006.002-.01.004-.005.002h-.002l-.008.003-.006.002h-.001l-.001.001-.008.002-.005.002h-.002l-.002.001-.002.001-.004.001-.004.001-.003.001-.003.001h-.003l-.003.001-.004.001-.003.001-.003.001h-.001l-.003.001h-.003l-.003.001-.004.001h-.001l-.002.001h-.003l-.003.001h-.002l-.005.001-.001.001h-.002l-.004.001h-.004l-.005.001h-.001l-.003.001-.004.001h-.003l-.004.001h-.005l-.006.001h-.001l-.004.001h-.005l-.006.001h-.001l-.006.001h-.007l-.003.001h-.012l-.004.001h-.012a.585.585 0 0 1-.126-.007h-.001l-.009-.001-.003-.001-.003-.001h-.007l-.003-.001-.001-.001-.006-.001-.017-.003-.016-.004-.009-.003-.006-.001-.009-.003h-.002v-.001l-.006-.001-.008-.003h-.001l-.002-.001-.005-.001-.001-.001-.002-.001h-.003l-.003-.002h-.003l-.002-.002h-.003l-.003-.002-.005-.002-.003-.001h-.002l-.001-.001-.005-.002-.005-.002-.003-.001-.003-.001-.005-.002-.003-.002-.003-.002-.005-.001-.003-.002-.005-.002-.003-.001-.003-.002-.004-.002-.004-.002-.004-.002-.003-.002-.003-.001-.005-.003-.005-.002-.001-.001-.002-.001-.007-.004-.003-.001-.055-.02-.011-.005-.002-.001h-.001l-.011-.005a.68.68 0 0 1-.24-.184v-.002l-.002-.003-.005-.005-.002-.002-.002-.002-.006-.008v-.002a.645.645 0 0 1-.084-.147l-.006-.015a.591.591 0 0 1-.034-.123l-.297-1.563-26.315-99.497a.67.67 0 0 1 1.294-.344l21.494 81.272-19.649-103.463a.67.67 0 0 1 1.317-.249l22.412 118.019 1.62-70.606a.669.669 0 1 1 1.338.032l-1.413 61.59L266.193 55.39a.67.67 0 0 1 1.33.152L253.616 177.53l79.39-93.66a.67.67 0 1 1 1.021.865l-70.973 83.731Z" clip-rule="evenodd"/><g clip-path="url(#g)"><path fill="#F7931A" stroke="#F2E9D9" stroke-width="1.246" d="m282.836 211.663-.108.176c-12.072 19.498-37.651 25.595-57.234 13.601-19.634-12.025-25.806-37.698-13.776-57.333v-.001c12.025-19.64 37.699-25.811 57.336-13.785 19.641 12.028 25.811 37.703 13.782 57.342Z"/><path fill="#fff" d="M266.896 189.739c2.496-5.12-.685-9.297-5.673-12.986l4.108-6.707-4.083-2.5-3.999 6.53a200.798 200.798 0 0 0-3.287-1.954l4.026-6.573-4.08-2.499-4.108 6.704a153.128 153.128 0 0 1-2.62-1.556l.012-.021-5.63-3.451-2.669 4.361s3.05 1.789 2.966 1.814c1.653 1.013 1.604 2.303 1.253 3.227l-4.679 7.641c.114.07.26.166.414.293a46.187 46.187 0 0 0-.432-.264l-6.557 10.703c-.391.476-1.205 1.119-2.362.413.024.078-2.967-1.818-2.967-1.818l-3.798 4.378 5.314 3.254c.988.607 1.95 1.22 2.902 1.811l-4.153 6.784 4.079 2.498 4.11-6.712c1.106.709 2.184 1.382 3.243 2.029l-4.094 6.679 4.084 2.5 4.148-6.77c7.105 3.81 12.969 5.023 17.513-1.057 3.66-4.895 2.637-8.706-.687-12.027 3.106.244 5.887-.973 7.707-4.723l-.001-.001ZM252.3 200.745c-3.102 5.07-11.43-.823-14.199-2.515l5.506-8.986c2.767 1.696 11.932 6.214 8.693 11.501Zm5.867-13.843c-2.825 4.611-9.735-.361-12.04-1.772l4.992-8.151c2.305 1.411 9.994 5.113 7.049 9.923h-.001Z"/></g><path fill="url(#h)" fill-rule="evenodd" d="M120.213 83.295c-4.363-9.086-15.888-32.998-29.71-55.562 6.235-.763 11.549-.339 15.039 1.656v-.002c8.006-5.314 15.863-7.738 23.03-7.852 12.342 15.335 22.504 29.382 24.289 32.57-3.817 12.861-15.689 22.218-32.296 28.964l-.352.226Zm-90.81-19.54c1.32-4.083 4.628-8.316 9.189-12.387 7.652 25.221 17.72 49.63 21.533 59.048-15.638 8.36-30.808 10.147-43.11 5.224-1.148-3.5-4.896-20.186-8.245-39.383 4.972-5.757 11.927-10.17 20.633-12.502ZM13.82 3.912c-.469 6.285-.469 6.283 0 0Zm57.215-25.748c3.896 2.962 3.896 2.962 0 0Z" clip-rule="evenodd"/><path fill="url(#i)" fill-rule="evenodd" d="M38.592 51.367c12.821-11.448 35.546-21.63 51.911-23.635 13.824 22.566 25.348 46.477 29.711 55.563-8.121 13.413-49.766 31.273-60.088 27.121-3.814-9.42-13.884-33.834-21.534-59.05ZM8.848 76.702c3.289 18.778 6.939 35.066 8.125 38.806-8.428-1.122-14.385-4.141-16.82-9.122-1.4-3.101-1.33-6.722.025-10.69.926-7.216 3.82-13.859 8.482-19.31l.11-.13.078.446Zm139.981-48.103c3.874 1.609 6.635 3.953 8.035 7.052l.092.214.081.19.074.19.072.19.067.194.074.223.059.192.057.195.052.19.043.171.045.195.044.193.012.062c.025.123.049.248.071.374l.032.2.008.062c.024.15.042.301.06.453l.02.201.006.064.024.33.013.213.005.144c.149 4.153-1.622 8.918-5.013 14.011-1.786-3.185-11.947-17.233-24.289-32.567 7.794-.126 14.777 2.479 20.256 7.064Z" clip-rule="evenodd"/><path fill="url(#j)" fill-rule="evenodd" d="M119.149-14.786c15.708 9.557 28.922 23.97 37.172 42.247 1.829 4.052 2.277 8.304 1.555 12.655-.053-1.582-.385-3.077-1.012-4.466-1.399-3.1-4.162-5.442-8.034-7.053a21.287 21.287 0 0 0-1.183-3.32c-6.693-14.83-16.668-29.252-28.498-40.063Zm-132.228 61.66C-12.291 62.26-7.932 78.43-1.531 92.61a21.238 21.238 0 0 0 1.709 3.085c-1.356 3.968-1.425 7.59-.026 10.69.627 1.389 1.528 2.626 2.68 3.713-3.74-2.337-6.633-5.485-8.463-9.538-7.925-17.558-10.146-36.194-7.448-53.686Zm42.482 16.88c-27.13-60.795-15.12-79.416 5.733-88.828 20.853-9.412 42.762-6.102 70.407 54.46-15.908-9.091-69.697 14.447-76.14 34.368Z" clip-rule="evenodd"/><path fill="#fff" fill-rule="evenodd" d="M17.529-9.91c-6.83 12.986-5.544 34.634 11.875 73.662C12.417 68.303 2.092 80.775.178 95.694a21.258 21.258 0 0 1-1.71-3.084C-18.272 55.518-21.05 4.82 17.529-9.91Zm40.627-18.338c35.478-18.105 72.75 16.43 89.492 53.523a21.289 21.289 0 0 1 1.182 3.323c-10.518-8.801-26.576-10.306-43.287.788-17.748-38.88-33.132-54.164-47.387-57.634Z" clip-rule="evenodd"/><path fill="#F5A273" fill-rule="evenodd" d="m111.584 158.473-50.912-48.789a.772.772 0 0 0-1.067 1.115l57.896 55.48L.765 94.576a.773.773 0 0 0-.807 1.316l106.569 65.457-89.161-46.408a.77.77 0 1 0-.712 1.367l106.688 55.532.002.001.003.001.003.002.005.002.002.001.001.001.003.002h.002l.003.002.006.003.002.001.002.001.003.001.001.001.004.002.006.002.003.002.003.001.005.002.011.005.007.003.016.007h.002l.001.001.007.002.011.004.007.002.001.001.01.003.006.002h.002l.002.001.008.003.006.001.002.001.003.001h.002l.005.002.005.001.003.001.003.001h.002l.002.001h.003l.005.002h.003l.003.001h.002l.003.001.004.001h.003l.005.002h.003l.004.001.003.001h.003l.005.001h.002l.002.001.005.001h.005l.005.001h.001l.004.001.005.001h.003l.005.001h.005l.007.001h.001l.005.001h.005l.007.001h.002l.006.001h.009l.003.001h.014l.005.001h.013a.768.768 0 0 0 .145-.01l.002-.001.01-.001.004-.001.003-.001.007-.001.004-.001.002-.001.007-.001.019-.004.018-.005.01-.003.007-.002.011-.003.002-.001.007-.002.009-.003.002-.001h.002l.005-.002.002-.001.002-.001.003-.001.004-.001.003-.001.002-.002h.004l.003-.002.006-.002.003-.001.002-.002h.002l.005-.003.006-.002.003-.001.004-.002.006-.002.003-.002.004-.002.005-.002.004-.002.005-.002.004-.002.004-.002.004-.002.005-.003.004-.002.003-.002.004-.002.006-.003.005-.003.002-.001.002-.002.007-.003.004-.002.063-.024.013-.006.002-.001h.001l.013-.006v-.001a.768.768 0 0 0 .273-.216v-.001l.002-.004.006-.006.002-.002.002-.003.007-.009v-.002a.746.746 0 0 0 .094-.171l.006-.017a.618.618 0 0 0 .038-.143l.314-1.805 28.516-115.086a.773.773 0 0 0-.564-.934.77.77 0 0 0-.933.562l-23.292 94.004 20.766-119.532a.772.772 0 0 0-1.521-.263l-23.686 136.349-3.141-81.301a.77.77 0 1 0-1.541.06l2.739 70.92-16.356-125.911a.771.771 0 0 0-1.53.199l18.223 140.267L29.48 62.291a.771.771 0 1 0-1.161 1.015l83.265 95.167Z" clip-rule="evenodd"/><g clip-path="url(#k)"><circle cx="121.394" cy="178.412" r="43.45" fill="#fff" transform="rotate(-19.294 121.394 178.412)"/><circle cx="121.394" cy="178.412" r="42.45" stroke="url(#l)" stroke-opacity=".6" stroke-width="2" transform="rotate(-19.294 121.394 178.412)"/><path fill="url(#m)" d="M130.906 160.504c-3.056 1.07-5.851 3.771-8.315 8.025-1.17 2.017-2.076 4.056-2.728 5.662l.012.006-.003-.009s2.347 1.224 4.919 2.515c.603-1.536 1.502-3.656 2.674-5.695 2.192-3.784 4.035-5.065 5.202-5.474 4.396-1.539 9.16.624 10.628 4.817 1.458 4.165-.926 8.83-5.303 10.394a4.346 4.346 0 0 1-.811.179c1.471.091 2.984-.001 4.294-.459 8.05-2.818 7.826-8.512 7.8-8.92a12.725 12.725 0 0 0-.667-3.065c-2.435-6.954-10.382-10.538-17.702-7.976Z"/><path fill="url(#n)" d="M111.642 195.638c3.057-1.071 5.852-3.771 8.316-8.026 1.17-2.017 2.075-4.056 2.728-5.662l-.013-.006.003.009s-2.346-1.224-4.919-2.515c-.602 1.537-1.501 3.657-2.674 5.695-2.192 3.784-4.034 5.066-5.202 5.475-4.398 1.529-9.162-.634-10.63-4.827-1.459-4.165.926-8.83 5.302-10.393.199-.07.465-.132.811-.18-1.471-.091-2.984.001-4.294.459-8.05 2.819-7.816 8.509-7.803 8.911a12.75 12.75 0 0 0 .668 3.064c2.44 6.974 10.388 10.558 17.707 7.996Z"/><path fill="#29ABE2" d="M141.42 180.36c-4.156 1.34-9.551-.341-10.701-.825-2.975-1.255-10.124-4.962-10.685-5.256-5.284-2.858-12.098-5.732-17.244-3.931l-.009.003-.01.004c-6.236 2.214-10.034 8.199-9.503 14.223-.022-.399.202-6.364 7.824-8.824 4.155-1.34 9.585.381 10.745.862 2.975 1.254 10.124 4.962 10.685 5.256 5.281 2.848 12.095 5.723 17.24 3.921l.01-.003.009-.003c6.237-2.215 10.044-8.203 9.503-14.223.013.402-.237 6.324-7.864 8.796Z"/></g><path fill="#fff" d="M233.818 146.337a.223.223 0 0 1 .322.264l-1.006 3.038a6.693 6.693 0 0 0 .415 5.19l1.382 2.661c.101.193-.107.401-.301.301l-2.075-1.078a6.69 6.69 0 0 0-6.183.005l-2.145 1.119a.223.223 0 0 1-.31-.28l1.038-2.592a6.694 6.694 0 0 0-.504-5.983l-1.4-2.289c-.116-.189.086-.413.286-.318l2.511 1.195a6.697 6.697 0 0 0 6.167-.215l1.803-1.018Z"/><path fill="#FB9458" d="M190.665 51.608a.468.468 0 0 1 .787.376l-.521 6.684a14.022 14.022 0 0 0 3.448 10.348l4.147 4.718a.468.468 0 0 1-.461.763l-4.762-1.152a14.023 14.023 0 0 0-12.573 3.114l-3.8 3.352a.467.467 0 0 1-.772-.415l.811-5.793c.613-4.384-.879-8.8-4.027-11.914l-3.996-3.953c-.331-.327-.033-.883.422-.79l5.707 1.17a14.022 14.022 0 0 0 12.433-3.533l3.157-2.975Z" opacity=".16"/><path fill="#FB9458" d="M11.197 141.236a.21.21 0 0 1 .318-.227l2.51 1.65a6.284 6.284 0 0 0 4.807.884l2.748-.607a.21.21 0 0 1 .2.346l-1.482 1.62a6.284 6.284 0 0 0-1.497 5.608l.494 2.216a.21.21 0 0 1-.33.213l-2.098-1.571a6.283 6.283 0 0 0-5.547-.996l-2.415.713c-.2.059-.354-.178-.22-.337l1.694-1.986a6.285 6.285 0 0 0 1.303-5.644l-.485-1.882Z" opacity=".15"/></g><defs><linearGradient id="b" x1="73.951" x2="73.951" y1="249" y2="44.258" gradientUnits="userSpaceOnUse"><stop stop-color="#FCA43D" stop-opacity="0"/><stop offset="1" stop-color="#F58859"/></linearGradient><linearGradient id="d" x1="298.907" x2="279.186" y1="138.18" y2="14.06" gradientUnits="userSpaceOnUse"><stop stop-color="#CC3F03"/><stop offset="1" stop-color="#F66020"/></linearGradient><linearGradient id="e" x1="294.745" x2="270.154" y1="53.874" y2="115.843" gradientUnits="userSpaceOnUse"><stop stop-color="#F8EED3"/><stop offset="1" stop-color="#fff"/></linearGradient><linearGradient id="h" x1="69.737" x2="90.212" y1="124.233" y2="-19.096" gradientUnits="userSpaceOnUse"><stop stop-color="#CC3F03"/><stop offset="1" stop-color="#F66020"/></linearGradient><linearGradient id="i" x1="73.01" x2="102.455" y1="27.048" y2="97.985" gradientUnits="userSpaceOnUse"><stop stop-color="#F8EED3"/><stop offset="1" stop-color="#fff"/></linearGradient><linearGradient id="l" x1="143.314" x2="83.381" y1="137.562" y2="201.103" gradientUnits="userSpaceOnUse"><stop stop-color="#F5A273"/><stop offset="1" stop-color="#F5A273" stop-opacity=".2"/></linearGradient><linearGradient id="m" x1="124.577" x2="148.785" y1="164.592" y2="177.087" gradientUnits="userSpaceOnUse"><stop offset=".21" stop-color="#F15A24"/><stop offset=".684" stop-color="#FBB03B"/></linearGradient><linearGradient id="n" x1="117.972" x2="93.764" y1="191.55" y2="179.054" gradientUnits="userSpaceOnUse"><stop offset=".21" stop-color="#ED1E79"/><stop offset=".893" stop-color="#522785"/></linearGradient><clipPath id="a"><rect width="361" height="249" x=".005" fill="#fff" rx="12"/></clipPath><clipPath id="c"><path fill="#fff" d="M0 0h63.759v63.759H0z" transform="translate(155.598 132.019)"/></clipPath><clipPath id="g"><path fill="#fff" d="M206.901 177.163c7.025-22.299 30.797-34.681 53.096-27.657 22.299 7.025 34.681 30.797 27.656 53.096-7.024 22.299-30.796 34.681-53.095 27.656-22.299-7.024-34.681-30.796-27.657-53.095Z"/></clipPath><clipPath id="k"><path fill="#fff" d="M80.384 192.769c-7.929-22.65 4.004-47.438 26.653-55.367 22.649-7.929 47.438 4.004 55.367 26.653 7.929 22.649-4.004 47.437-26.653 55.366-22.649 7.929-47.438-4.003-55.367-26.652Z"/></clipPath><radialGradient id="f" cx="0" cy="0" r="1" gradientTransform="matrix(-79.43165 17.87739 -15.24621 -67.74099 317.866 29.471)" gradientUnits="userSpaceOnUse"><stop stop-color="#FFB358"/><stop offset=".685" stop-color="#FF5C00"/><stop offset="1" stop-color="#F7841A"/></radialGradient><radialGradient id="j" cx="0" cy="0" r="1" gradientTransform="rotate(11.786 26.098 222.19) scale(93.7969 79.9919)" gradientUnits="userSpaceOnUse"><stop stop-color="#FFB358"/><stop offset=".685" stop-color="#FF5C00"/><stop offset="1" stop-color="#F7841A"/></radialGradient></defs></svg>