<svg xmlns="http://www.w3.org/2000/svg" width="90" height="90" fill="none"><path fill="#0166FF" d="m48.078 18.168 1.406-7.675c.205-1.053-.487-2.075-1.546-2.244a192.355 192.355 0 0 0-6.854-.969 1.893 1.893 0 0 0-2.086 1.526l-1.45 7.943s10.929 1.485 10.53 1.42Z"/><path fill="#448EFF" d="M37.545 16.754s1.584.209 2.548.34l1.444-7.907a1.894 1.894 0 0 1 2.085-1.527c1.44.178 2.918.405 4.386.62-.026-.006-.046-.023-.072-.028a193.202 193.202 0 0 0-6.854-.969 1.894 1.894 0 0 0-2.086 1.527l-1.45 7.944Z"/><path fill="#054FBE" d="M48.07 18.547s-1.545-.399-2.489-.638l1.618-7.873a1.893 1.893 0 0 0-1.364-2.196c-1.402-.374-2.856-.716-4.298-1.065.026.004.05-.004.077.002 2.277.52 4.527 1.079 6.718 1.663a1.893 1.893 0 0 1 1.364 2.196l-1.625 7.91Z"/><path fill="#0166FF" d="m39.8 72.98-.08 7.8c0 1.072-.874 1.946-1.947 1.91a200.53 200.53 0 0 1-6.912-.353 1.895 1.895 0 0 1-1.757-1.896l.089-8.076s11.01.627 10.607.615Z"/><path fill="#448EFF" d="M29.191 72.361s1.594.097 2.566.154l-.089 8.035c0 .995.764 1.828 1.757 1.897 1.448.1 2.941.157 4.423.226-.027 0-.05.012-.076.012-2.335-.076-4.65-.198-6.913-.352a1.895 1.895 0 0 1-1.756-1.896l.088-8.076Z"/><path fill="#054FBE" d="M39.865 72.608s-1.594.097-2.566.15l.09 8.039c0 .995-.764 1.824-1.758 1.893-1.447.1-2.94.161-4.422.23.026 0 .048.012.075.012 2.336-.077 4.65-.198 6.913-.356a1.891 1.891 0 0 0 1.757-1.892l-.089-8.076Z"/><path stroke="#000" stroke-linecap="round" stroke-linejoin="round" stroke-miterlimit="10" stroke-width=".9" d="m39.8 72.98-.08 7.8c0 1.072-.874 1.946-1.947 1.91-2.335-.077-4.65-.199-6.912-.352a1.895 1.895 0 0 1-1.757-1.897l.089-8.076s11.01.627 10.607.615Z"/><path fill="#0166FF" d="m53.391 18.841 1.565-7.644c.205-1.053 1.228-1.742 2.274-1.503 2.278.52 4.527 1.08 6.719 1.664a1.893 1.893 0 0 1 1.363 2.195l-1.624 7.91s-10.691-2.71-10.297-2.622Z"/><path fill="#054FBE" d="M63.688 21.468s-1.546-.399-2.49-.638l1.618-7.873a1.894 1.894 0 0 0-1.363-2.196c-1.403-.374-2.857-.716-4.3-1.066.027.005.051-.004.078.003 2.278.52 4.527 1.079 6.718 1.663a1.894 1.894 0 0 1 1.364 2.196l-1.625 7.91Z"/><path fill="#448EFF" d="M53.256 19.195s1.583.208 2.548.34l1.443-7.908a1.894 1.894 0 0 1 2.086-1.526c1.44.177 2.917.404 4.386.619-.027-.006-.046-.023-.073-.027a191.83 191.83 0 0 0-6.853-.97 1.894 1.894 0 0 0-2.086 1.527l-1.45 7.945Z"/><path fill="#0166FF" d="m45.144 73.332.081 7.8c0 1.072.873 1.945 1.946 1.91 2.335-.078 4.65-.2 6.913-.357a1.891 1.891 0 0 0 1.756-1.892l-.089-8.076s-11.01.623-10.607.615Z"/><path fill="#054FBE" d="M55.753 72.713s-1.593.097-2.565.15l.088 8.039c0 .995-.763 1.828-1.756 1.897-1.448.097-2.941.157-4.423.226.026 0 .049.012.075.012 2.336-.077 4.65-.198 6.913-.352a1.895 1.895 0 0 0 1.757-1.896l-.089-8.076Z"/><path fill="#448EFF" d="M45.079 72.955s1.594.097 2.565.154l-.088 8.035c0 1 .763 1.828 1.757 1.897 1.447.101 2.94.162 4.423.227-.027.004-.05.016-.076.016-2.336-.077-4.65-.199-6.913-.356a1.892 1.892 0 0 1-1.756-1.897l.088-8.076Z"/><path stroke="#000" stroke-linecap="round" stroke-linejoin="round" stroke-miterlimit="10" stroke-width=".9" d="m45.144 73.332.081 7.8c0 1.072.873 1.945 1.946 1.91 2.335-.078 4.65-.2 6.913-.357a1.891 1.891 0 0 0 1.756-1.892l-.089-8.076s-11.01.623-10.607.615Z"/><path fill="#0166FF" fill-rule="evenodd" d="m52.589 78.431-10.606-1.072c-.937-.153-1.88-.32-2.83-.501-.855-.17-1.702-.348-2.54-.53L26.37 73.392C11.746 68.046 2.324 58.482 5.678 41.55l.804-4.148C9.71 20.41 22.02 15.08 37.581 15.598l10.597 1.115a102.714 102.714 0 0 1 5.368 1.044l10.238 2.96C78.22 26.07 87.432 35.635 84.166 52.474l-.805 4.145C80.162 73.465 67.986 78.85 52.59 78.43Z" clip-rule="evenodd"/><path fill="#054FBE" d="m51.16 17.235 8.99 3.829c14.435 5.353 23.651 14.91 20.385 31.748l-.806 4.154C77.102 70.8 68.374 76.828 56.828 78.334c13.345-.655 23.638-6.462 26.535-21.716l.804-4.145c3.266-16.836-5.948-26.407-20.383-31.76 0 0-12.375-3.38-12.623-3.478Z"/><path fill="#448EFF" d="M40.443 15.349c-.125.032-.314.096-.463.129-.752.163-1.567.088-2.355-.071l-.036.186c-15.56-.517-27.883 4.819-31.11 21.81l-.804 4.143c-3.276 16.54 5.69 26.023 19.737 31.442.044-.073.107-.134.155-.202C12.985 67.22 5.24 57.928 8.317 42.393l.804-4.143c3.227-16.991 15.547-22.314 31.107-21.797l.215-1.104Z"/><path stroke="#000" stroke-linecap="round" stroke-linejoin="round" stroke-miterlimit="10" stroke-width=".9" d="M41.084 7.286a1.885 1.885 0 0 0-2.085 1.516l-1.252 6.812-.164-.013c-15.56-.517-27.874 4.809-31.1 21.8l-.81 4.145c-3.353 16.932 6.078 26.496 20.7 31.846 0 0 6.222 2.204 12.777 3.462 6.555 1.262 13.434 1.581 13.434 1.581 15.398.425 27.573-4.966 30.772-21.813l.809-4.157c3.261-16.812-5.924-26.363-20.322-31.72l1.466-7.191a1.898 1.898 0 0 0-1.364-2.2 191.72 191.72 0 0 0-6.71-1.654 1.88 1.88 0 0 0-.772-.026c-.738.142-1.35.74-1.503 1.53l-1.365 6.621c-.953-.223-1.893-.466-2.869-.657-.817-.16-1.596-.262-2.401-.391l1.162-6.282c.205-1.053-.494-2.08-1.554-2.249a191.054 191.054 0 0 0-6.85-.96Z"/><path fill="#EAF2FF" fill-rule="evenodd" d="m72.805 59.065.453-2.338c3.22-15.45-9.23-20.8-24.472-23.977-15.396-2.767-28.943-2.458-31.734 13.075l-.453 2.333c-3.233 15.525 9.216 20.875 24.53 24.066C56.453 74.978 70 74.666 72.805 59.064Z" clip-rule="evenodd"/><path fill="#B3CCF6" d="M71.872 62.425c.366-1.072.689-2.2.917-3.466l.452-2.333c3.233-15.52-9.214-20.875-24.527-24.066-14.878-2.673-28.049-2.41-31.373 11.885 4.134-12.107 16.68-12.203 30.752-9.676 15.313 3.191 27.76 8.547 24.526 24.069l-.452 2.333c-.08.441-.198.833-.295 1.254Z"/><path fill="#054FBE" d="M17.38 44.373c-.367 1.071-.64 2.398-.868 3.663l-.453 2.334c-3.234 15.52 9.213 20.879 24.527 24.07 14.878 2.673 28.05 2.41 31.373-11.886-4.134 12.108-16.68 12.201-30.751 9.674-15.314-3.191-27.76-8.545-24.527-24.066l.452-2.334c.08-.444.15-1.035.246-1.455Z"/><path fill="#000" stroke="#000" stroke-linecap="round" stroke-linejoin="round" stroke-miterlimit="10" stroke-width=".9" d="M53.224 54.143a1.134 1.134 0 0 1-.874-1.346l1.555-7.312a1.138 1.138 0 0 1 1.348-.878l3.037.648c.614.129 1.006.735.875 1.346l-1.555 7.312a1.138 1.138 0 0 1-1.348.877l-3.038-.647Zm-16.942-3.846a1.138 1.138 0 0 1-.875-1.347l1.555-7.314a1.136 1.136 0 0 1 1.348-.874l3.038.646c.613.13 1.005.733.874 1.347l-1.555 7.311a1.138 1.138 0 0 1-1.348.878l-3.037-.647Z"/><path stroke="#000" stroke-linecap="round" stroke-linejoin="round" stroke-miterlimit="10" stroke-width="3.6" d="m44.887 59.012-1.285 3.983"/><path stroke="#000" stroke-linecap="round" stroke-linejoin="round" stroke-miterlimit="10" stroke-width=".9" d="m61.011 39.037-3.05-1.799m-19.705-4.014 3.518-.402"/></svg>
