<svg width="361" height="249" viewBox="0 0 361 249" fill="none" xmlns="http://www.w3.org/2000/svg">
    <g clip-path="url(#clip0_14073_41713)">
        <path d="M0 12C0 5.37259 5.37258 0 12 0H349C355.627 0 361 5.37258 361 12V237C361 243.627 355.627 249 349 249H12C5.37257 249 0 243.627 0 237V12Z" fill="url(#paint0_linear_14073_41713)" fill-opacity="0.18"/>
        <path d="M0 12C0 5.37259 5.37258 0 12 0H349C355.627 0 361 5.37258 361 12V237C361 243.627 355.627 249 349 249H12C5.37257 249 0 243.627 0 237V12Z" fill="url(#paint1_linear_14073_41713)" fill-opacity="0.7"/>
        <path opacity="0.6" d="M179.238 406.85L235.588 -7.88676L123.211 -7.26651L179.238 423.163L179.238 406.85Z" fill="white"/>
        <path opacity="0.6" d="M181.762 355.281L-108.006 57.4999L61.5869 -28.0081L194.25 358.859L181.762 355.281Z" fill="white"/>
        <path opacity="0.6" d="M174.33 353.403L496.493 60.4999L302.378 -27.3284L161.772 356.723L174.33 353.403Z" fill="white"/>
        <path fill-rule="evenodd" clip-rule="evenodd" d="M207.229 104.36C206.726 94.2923 205.365 67.7827 201.362 41.6258C207.406 43.3385 212.141 45.7877 214.586 48.9787L214.587 48.977C224.026 47.1798 232.208 47.9883 238.86 50.66C244.298 69.5787 248.225 86.4653 248.636 90.0951C240.134 100.474 225.565 104.501 207.641 104.287L207.229 104.36ZM131.079 51.166C133.878 47.9135 138.567 45.2924 144.349 43.3059C141.633 69.5221 141.459 95.9256 141.326 106.086C123.671 107.734 108.993 103.505 99.5585 94.2014C99.8564 90.5296 102.865 73.6947 107.214 54.699C114.027 51.3177 122.15 49.9436 131.079 51.166ZM139.895 -10.0409L139.896 -10.0407C137.028 -4.42741 137.029 -4.42936 139.895 -10.0409ZM202.617 -11.6137C205.061 -7.37411 205.061 -7.37421 202.616 -11.614L202.617 -11.6137Z" fill="url(#paint2_linear_14073_41713)"/>
        <path fill-rule="evenodd" clip-rule="evenodd" d="M144.349 43.3054C160.604 37.7184 185.5 37.1338 201.363 41.6257C205.366 67.7851 206.727 94.293 207.229 104.36C194.546 113.58 149.235 113.913 141.327 106.086C141.46 95.9241 141.634 69.5154 144.349 43.3054ZM107.113 55.1395C102.871 73.7254 99.9266 90.1559 99.5711 94.0637C92.2362 89.7643 87.9135 84.6731 87.5976 79.1374C87.509 75.7365 88.9757 72.4249 91.7627 69.2912C95.4111 62.9983 100.652 57.9947 107.062 54.7755L107.214 54.6989L107.113 55.1395ZM254.799 65.02C257.747 68.0036 259.385 71.2346 259.475 74.6341L259.477 74.867L259.477 75.0729L259.472 75.2776L259.465 75.4806L259.452 75.6847L259.433 75.9191L259.414 76.1188L259.391 76.3206L259.365 76.5168L259.339 76.6907L259.304 76.8878L259.27 77.0826L259.256 77.1446C259.232 77.2679 259.206 77.3919 259.177 77.5165L259.129 77.7133L259.113 77.7735C259.077 77.9213 259.035 78.0678 258.993 78.2144L258.933 78.408L258.914 78.4688C258.879 78.5737 258.845 78.6786 258.808 78.7826L258.738 78.9838L258.687 79.119C257.215 83.0048 253.737 86.7124 248.637 90.0937C248.225 86.4653 244.299 69.5782 238.861 50.6597C246.095 53.5636 251.524 58.6701 254.799 65.02Z" fill="url(#paint3_linear_14073_41713)"/>
        <path fill-rule="evenodd" clip-rule="evenodd" d="M244.242 13.5244C255.022 28.4204 261.621 46.8268 262.146 66.8726C262.263 71.3168 261.028 75.4109 258.678 79.1422C259.241 77.6634 259.514 76.1564 259.474 74.6328C259.385 71.2333 257.746 68.0034 254.8 65.0185C254.96 63.8761 255.028 62.7009 254.996 61.4989C254.57 45.2348 250.961 28.0742 244.242 13.5244ZM98.4529 19.1462C93.2187 33.6371 90.9738 50.2329 91.3814 65.7854C91.4129 66.9878 91.5417 68.1579 91.7622 69.2908C88.9752 72.4247 87.5085 75.7366 87.5975 79.1363C87.6374 80.6601 87.9886 82.1499 88.6287 83.5977C86.0866 79.9948 84.639 75.9712 84.5225 71.5263C84.0179 52.2687 89.1899 34.2278 98.4529 19.1462ZM131.079 51.1654C129.618 -15.3924 147.904 -27.9066 170.775 -28.5056C193.646 -29.1044 212.562 -17.5655 214.587 48.9766C203.443 34.433 144.736 35.2958 131.079 51.1654Z" fill="url(#paint4_radial_14073_41713)"/>
        <path fill-rule="evenodd" clip-rule="evenodd" d="M148.669 -21.3466C137.342 -12.019 130.141 8.43612 131.081 51.1644C113.657 48.7803 99.307 56.2788 91.7629 69.2909C91.5424 68.1579 91.4136 66.9877 91.382 65.7854C90.316 25.1038 107.395 -22.7104 148.669 -21.3466ZM193.227 -22.5138C232.949 -25.4614 253.932 20.8163 254.997 61.4986C255.028 62.7019 254.961 63.8759 254.8 65.0199C248.512 52.8312 234.292 45.2229 214.587 48.9775C213.287 6.2572 205.025 -13.7924 193.227 -22.5138Z" fill="url(#paint5_linear_14073_41713)"/>
        <path fill-rule="evenodd" clip-rule="evenodd" d="M170.15 170.324L142.114 105.622C141.944 105.231 141.49 105.052 141.099 105.221C140.708 105.391 140.529 105.844 140.698 106.236L172.581 179.812L92.7367 68.4866C92.4883 68.1412 92.0058 68.0625 91.6604 68.3096C91.3142 68.5583 91.2352 69.0398 91.4827 69.3866L164.374 171.016L100.152 93.6916C99.8806 93.3637 99.3944 93.3182 99.0663 93.5914C98.739 93.8631 98.6942 94.3494 98.966 94.6765L175.812 187.202L175.813 187.203L175.816 187.206L175.818 187.209L175.821 187.213L175.822 187.214L175.823 187.216L175.826 187.218L175.827 187.22L175.829 187.223L175.834 187.228L175.835 187.229L175.836 187.23L175.839 187.233L175.84 187.234L175.842 187.237L175.847 187.242L175.849 187.245L175.852 187.247L175.852 187.247L175.855 187.251L175.864 187.26L175.869 187.265L175.881 187.277L175.882 187.278L175.884 187.28L175.889 187.284L175.897 187.292L175.903 187.297L175.903 187.297L175.904 187.298L175.912 187.305L175.917 187.309L175.918 187.31L175.919 187.311L175.926 187.317L175.931 187.321L175.933 187.322L175.935 187.324L175.937 187.325L175.937 187.326L175.941 187.329L175.945 187.332L175.947 187.334L175.95 187.336L175.951 187.337L175.953 187.338L175.955 187.34L175.96 187.343L175.962 187.345L175.965 187.347L175.966 187.348L175.969 187.35L175.972 187.352L175.975 187.354L175.979 187.357L175.98 187.358L175.982 187.359L175.984 187.36L175.987 187.362L175.99 187.364L175.994 187.367L175.996 187.368L175.997 187.369L176.001 187.371L176.003 187.372L176.006 187.374L176.01 187.377L176.012 187.378L176.014 187.379L176.019 187.382L176.02 187.383L176.022 187.384L176.026 187.386L176.027 187.387L176.03 187.389L176.036 187.392L176.038 187.393L176.042 187.395L176.045 187.397L176.047 187.398L176.052 187.401L176.053 187.401L176.054 187.402L176.06 187.405L176.061 187.406L176.064 187.407L176.068 187.409L176.07 187.41L176.074 187.412L176.077 187.413L176.078 187.414L176.081 187.416L176.083 187.416L176.087 187.418L176.093 187.421L176.097 187.423L176.098 187.423L176.1 187.424C176.145 187.444 176.19 187.46 176.237 187.471L176.237 187.47L176.239 187.471L176.249 187.473L176.253 187.474L176.256 187.475L176.263 187.476L176.267 187.477L176.269 187.477L176.275 187.479L176.295 187.482C176.3 187.483 176.307 187.484 176.313 187.485L176.324 187.486L176.332 187.487L176.343 187.488L176.344 187.488L176.345 187.488L176.352 187.489L176.361 187.49L176.363 187.489L176.365 187.49L176.371 187.49L176.373 187.49L176.375 187.49L176.378 187.49L176.382 187.49L176.386 187.491L176.388 187.49L176.39 187.491L176.392 187.491L176.396 187.491L176.402 187.491L176.405 187.491L176.408 187.491L176.409 187.492L176.41 187.491L176.415 187.491L176.421 187.491L176.425 187.491L176.429 187.491L176.435 187.491L176.439 187.491L176.443 187.49L176.449 187.491L176.453 187.49L176.459 187.49L176.463 187.49L176.467 187.489L176.472 187.489L176.478 187.488L176.482 187.488L176.486 187.488L176.49 187.487L176.497 187.487L176.503 187.486L176.505 187.486L176.507 187.485L176.516 187.485L176.52 187.484C176.542 187.486 176.564 187.486 176.587 187.487L176.601 187.486L176.603 187.486L176.605 187.486L176.619 187.486L176.619 187.485C176.734 187.48 176.849 187.45 176.954 187.392L176.955 187.39L176.959 187.388L176.966 187.385L176.969 187.384L176.972 187.382L176.982 187.376L176.983 187.374C177.038 187.341 177.09 187.3 177.136 187.253L177.148 187.24C177.183 187.204 177.213 187.164 177.238 187.123L178.227 185.58L249.098 90.5271C249.352 90.1857 249.282 89.7016 248.941 89.4479C248.6 89.1928 248.118 89.2635 247.863 89.604L189.974 167.245L255.423 65.0906C255.651 64.7321 255.548 64.2553 255.188 64.0259C254.83 63.796 254.353 63.901 254.123 64.2586L179.467 180.786L208.066 104.616C208.215 104.218 208.013 103.773 207.614 103.624C207.216 103.474 206.772 103.676 206.621 104.075L181.674 170.519L215.371 48.1024C215.483 47.6923 215.242 47.2668 214.832 47.1544C214.422 47.0406 213.997 47.2817 213.884 47.6931L176.345 184.067L131.716 49.8457C131.582 49.4411 131.145 49.2225 130.741 49.3563C130.337 49.4915 130.118 49.9285 130.253 50.3315L170.15 170.324Z" fill="#8FBCFF"/>
        <path opacity="0.15" d="M108.265 132.4C108.217 132.215 108.423 132.068 108.583 132.173L112.968 135.056C114.385 135.987 116.119 136.306 117.775 135.94L122.69 134.855C122.889 134.811 123.027 135.05 122.889 135.201L119.91 138.457C118.526 139.97 117.967 142.063 118.413 144.065L119.387 148.44C119.429 148.629 119.213 148.769 119.057 148.653L115.123 145.706C113.535 144.517 111.479 144.148 109.576 144.71L104.947 146.077C104.747 146.136 104.593 145.899 104.728 145.74L107.966 141.941C109.293 140.384 109.779 138.279 109.269 136.298L108.265 132.4Z" fill="#77A8F2"/>
        <path opacity="0.16" d="M182.168 29.2309C182.479 28.9378 182.988 29.1813 182.955 29.6074L182.739 32.3816C182.445 36.1547 183.688 39.8866 186.187 42.7292L187.774 44.5346C188.075 44.8776 187.757 45.4049 187.313 45.2975L186.32 45.0574C181.872 43.9816 177.179 45.144 173.747 48.1714L172.845 48.9674C172.519 49.2545 172.012 48.9818 172.073 48.5521L172.328 46.731C172.941 42.3468 171.449 37.9302 168.301 34.817L167.172 33.7003C166.842 33.3733 167.139 32.8167 167.595 32.9101L169.225 33.2442C173.697 34.1608 178.336 32.843 181.658 29.7118L182.168 29.2309Z" fill="#77A8F2"/>
        <path opacity="0.15" d="M272.674 200.115C272.851 200.015 273.059 200.186 272.995 200.379L271.989 203.417C271.422 205.133 271.571 207.004 272.404 208.608L273.787 211.268C273.887 211.462 273.679 211.67 273.486 211.569L271.411 210.491C269.472 209.484 267.164 209.486 265.227 210.496L263.083 211.616C262.899 211.711 262.695 211.527 262.772 211.335L263.81 208.743C264.596 206.781 264.41 204.564 263.307 202.761L261.906 200.472C261.791 200.282 261.992 200.058 262.193 200.154L264.704 201.348C266.672 202.285 268.972 202.204 270.87 201.133L272.674 200.115Z" fill="#77A8F2"/>
        <path opacity="0.15" d="M327.506 85.1414C327.674 85.0464 327.871 85.2084 327.81 85.3917L327.57 86.1183C327.002 87.8334 327.151 89.7052 327.984 91.3084L328.25 91.8205C328.349 92.0093 328.146 92.2123 327.957 92.1142C326.064 91.1309 323.811 91.1329 321.92 92.1196L321.855 92.1537C321.672 92.2492 321.469 92.0654 321.545 91.8736L321.647 91.621C322.432 89.6592 322.246 87.4415 321.143 85.6388L321.066 85.5131C320.95 85.3238 321.152 85.0998 321.352 85.1952L321.668 85.3453C323.531 86.2317 325.709 86.1556 327.506 85.1414Z" fill="#77A8F2"/>
        <path opacity="0.15" d="M48.8323 88.8293C49.01 88.729 49.2179 88.9001 49.1538 89.0937L48.2497 91.8248C47.6819 93.5399 47.8315 95.4117 48.6645 97.0149L49.8996 99.3918C50.0001 99.5853 49.7921 99.7932 49.5987 99.6927L47.8073 98.7619C45.8688 97.7547 43.5608 97.7567 41.624 98.7674L39.7619 99.7392C39.5783 99.835 39.3745 99.6507 39.4516 99.4584L40.3668 97.1735C41.1526 95.2117 40.9659 92.9941 39.8631 91.1913L38.6364 89.1859C38.5206 88.9966 38.7222 88.7727 38.9226 88.868L41.1239 89.9153C43.0918 90.8515 45.3924 90.7711 47.2902 89.6998L48.8323 88.8293Z" fill="#77A8F2"/>
        <path d="M23.6736 211.115C23.8512 211.015 24.0592 211.186 23.9951 211.379L22.9893 214.417C22.4216 216.133 22.5712 218.004 23.4042 219.608L24.7867 222.268C24.8872 222.462 24.6792 222.67 24.4858 222.569L22.4106 221.491C20.4721 220.484 18.164 220.486 16.2273 221.496L14.0826 222.616C13.899 222.711 13.6952 222.527 13.7722 222.335L14.8105 219.743C15.5963 217.781 15.4096 215.564 14.3068 213.761L12.9065 211.472C12.7906 211.282 12.9922 211.058 13.1927 211.154L15.7039 212.348C17.6718 213.285 19.9724 213.204 21.8702 212.133L23.6736 211.115Z" fill="white"/>
        <path d="M252.674 48.1149C252.851 48.0146 253.059 48.1857 252.995 48.3793L251.989 51.4174C251.422 53.1326 251.571 55.0043 252.404 56.6075L253.787 59.2683C253.887 59.4617 253.679 59.6697 253.486 59.5692L251.411 58.4909C249.472 57.4837 247.164 57.4857 245.227 58.4964L243.083 59.6156C242.899 59.7115 242.695 59.5271 242.772 59.3349L243.81 56.7429C244.596 54.7812 244.41 52.5635 243.307 50.7608L241.906 48.4716C241.791 48.2822 241.992 48.0583 242.193 48.1536L244.704 49.3483C246.672 50.2846 248.972 50.2042 250.87 49.1329L252.674 48.1149Z" fill="white"/>
        <g clip-path="url(#clip1_14073_41713)">
            <circle cx="174.277" cy="199.276" r="43.5" transform="rotate(15 174.277 199.276)" fill="#2775CA"/>
            <path d="M184.229 208.698C185.87 202.571 182.757 199.485 175.638 196.639C170.574 194.531 169.898 192.85 170.555 190.398C171.212 187.947 173.385 186.841 176.886 187.779C180.038 188.623 181.507 190.143 181.679 193.004C181.713 193.576 182.145 194.067 182.67 194.207L185.471 194.958C186.171 195.145 186.837 194.761 187.025 194.061L187.072 193.886C187.403 189.846 185.049 186.026 181.117 184.597L182.243 180.395C182.43 179.695 182.046 179.029 181.217 178.619L178.591 177.915C177.891 177.728 177.225 178.112 176.815 178.941L175.736 182.967C170.296 182.26 166.032 184.871 164.859 189.248C163.311 195.025 166.203 198.239 173.321 201.085C177.989 203.274 179.283 204.746 178.532 207.547C177.782 210.349 174.815 211.618 171.488 210.726C166.936 209.507 165.877 207.158 166.055 204.392C166.068 203.645 165.637 203.154 165.111 203.013L162.135 202.215C161.435 202.028 160.769 202.412 160.581 203.113L160.534 203.288C160.061 207.852 162.018 211.754 167.561 214.178L166.435 218.379C166.248 219.079 166.632 219.745 167.461 220.155L170.087 220.859C170.787 221.046 171.453 220.662 171.863 219.834L172.989 215.632C178.476 216.164 182.962 213.425 184.229 208.698Z" fill="white"/>
            <path d="M158.819 221.592C146.477 213.031 143.555 195.923 152.244 183.803C156.841 177.153 164.119 173.099 172.001 172.396C172.795 172.234 173.286 171.803 173.521 170.927L174.177 168.476C174.365 167.776 174.156 167.157 173.502 166.794C173.327 166.747 172.977 166.653 172.755 166.781C154.716 167.577 140.873 182.82 141.669 200.86C142.194 211.508 147.705 221.053 156.664 226.832C157.271 227.369 158.065 227.207 158.428 226.554C158.65 226.426 158.697 226.25 158.79 225.9L159.447 223.449C159.588 222.924 159.25 222.083 158.819 221.592ZM192.013 171.942C191.407 171.404 190.612 171.566 190.25 172.22C190.028 172.348 189.981 172.523 189.887 172.873L189.23 175.324C189.043 176.025 189.38 176.865 189.812 177.357C202.154 185.917 205.076 203.025 196.386 215.146C191.79 221.795 184.511 225.849 176.63 226.552C175.835 226.714 175.345 227.146 175.11 228.022L174.453 230.472C174.266 231.173 174.475 231.792 175.129 232.154C175.304 232.201 175.654 232.295 175.876 232.167C193.915 231.372 207.757 216.128 206.961 198.089C206.484 187.265 200.798 177.673 192.013 171.942Z" fill="white"/>
        </g>
    </g>
    <defs>
        <linearGradient id="paint0_linear_14073_41713" x1="73.9453" y1="249" x2="73.9453" y2="44.2585" gradientUnits="userSpaceOnUse">
            <stop stop-color="#8FC7F0" stop-opacity="0"/>
            <stop offset="1" stop-color="#8FAAF0"/>
        </linearGradient>
        <linearGradient id="paint1_linear_14073_41713" x1="73.9453" y1="249" x2="73.9453" y2="44.2585" gradientUnits="userSpaceOnUse">
            <stop stop-color="#7EB2FF" stop-opacity="0"/>
            <stop offset="1" stop-color="#7EB2FF"/>
        </linearGradient>
        <linearGradient id="paint2_linear_14073_41713" x1="144.835" y1="122.547" x2="219.236" y2="-1.65888" gradientUnits="userSpaceOnUse">
            <stop stop-color="#0153CC"/>
            <stop offset="1" stop-color="#1674FF"/>
        </linearGradient>
        <linearGradient id="paint3_linear_14073_41713" x1="185.501" y1="34.2181" x2="192.378" y2="109.264" gradientUnits="userSpaceOnUse">
            <stop stop-color="#CFE2FF"/>
            <stop offset="1" stop-color="white"/>
        </linearGradient>
        <radialGradient id="paint4_radial_14073_41713" cx="0" cy="0" r="1" gradientUnits="userSpaceOnUse" gradientTransform="translate(171.268 -1.80137) rotate(34.5784) scale(93.7969 79.9919)">
            <stop stop-color="#84B6FF"/>
            <stop offset="0.684529" stop-color="#1F77FB"/>
            <stop offset="1" stop-color="#3F8AFA"/>
        </radialGradient>
        <linearGradient id="paint5_linear_14073_41713" x1="193.287" y1="-11.6724" x2="208.98" y2="76.6671" gradientUnits="userSpaceOnUse">
            <stop stop-color="#CFE2FF"/>
            <stop offset="1" stop-color="white"/>
        </linearGradient>
        <clipPath id="clip0_14073_41713">
            <path d="M0 12C0 5.37259 5.37258 0 12 0H349C355.627 0 361 5.37258 361 12V237C361 243.627 355.627 249 349 249H12C5.37257 249 0 243.627 0 237V12Z" fill="white"/>
        </clipPath>
        <clipPath id="clip1_14073_41713">
            <rect width="87" height="87" fill="white" transform="translate(143.518 146) rotate(15)"/>
        </clipPath>
    </defs>
</svg>
