<!-- source: DFINITY foundation -->
<svg width="512" height="274" viewBox="0 0 512 274" fill="none" xmlns="http://www.w3.org/2000/svg">
    <path d="M324.012 52.2166C320.745 52.5221 317.812 53.7347 315.347 55.8487C314.051 56.9608 313.077 58.4502 311.924 60.0252C310.023 63.8294 309.809 67.5224 310.888 71.3437C311.929 75.0303 314.525 77.5171 317.495 79.869C318.89 80.4488 320.097 81.1765 321.403 81.5057C326.702 82.8403 331.278 81.1014 335.134 77.5837C336.382 76.4447 337.075 76.5977 338.286 77.2472C343.429 80.0053 348.874 80.5589 354.471 79.0275C355.847 78.6511 356.549 78.8514 357.423 79.9775C360.825 84.3594 365.252 86.8119 370.923 86.9234C374.232 86.9884 377.306 86.2492 380.227 84.7346C380.288 84.9325 380.337 85.0084 380.317 85.0395C373.785 95.1851 358.438 95.5511 351.403 85.6968C350.702 84.7138 350.123 84.5659 348.957 84.8853C343.368 86.4151 337.857 86.0077 332.741 83.2595C331.057 82.3546 330.308 82.6246 329.004 83.7954C324.867 87.5121 320.035 88.5189 314.582 86.7604C314.408 86.6977 314.348 86.6516 314.204 86.6208C314.122 86.6362 313.956 86.6601 313.956 86.6601C314.402 87.693 313.981 88.4602 313.501 89.4394C312.122 92.2577 310.138 95.1885 310.026 98.137C309.766 105.017 311.414 111.389 317.218 116.217C322.32 120.461 328.053 121.771 334.284 120.96C337.427 120.551 340.616 119.481 343.021 117.002C344.221 115.766 345.533 114.629 346.872 113.543C347.36 113.148 348.07 112.839 348.687 112.824C351.567 112.749 354.451 112.772 357.333 112.812C357.783 112.818 358.301 112.994 358.667 113.259C360.975 114.932 363.035 117.153 365.582 118.245C369.923 120.105 374.498 120.589 379.308 119.222C382.34 118.359 384.626 116.568 387.175 115.039C387.606 114.781 388.513 114.954 389.01 115.249C390.122 115.907 391.066 116.842 392.162 117.533C396.385 120.192 400.862 121.697 405.989 121.949C411.525 122.221 416.692 121.441 421.448 118.797C424.059 117.347 426.259 115.159 428.659 113.324C428.971 113.086 429.361 112.868 429.739 112.816C430.354 112.731 430.994 112.843 431.614 112.781C435.301 112.414 439.01 112.171 442.657 111.56C444.031 111.33 445.223 110.147 446.56 109.535C450.595 107.69 453.952 105.156 456.004 101.07C457.103 98.88 458.664 96.9047 459.615 94.662C461.207 90.9052 461.147 86.8674 460.798 82.8772C460.644 81.1234 460.374 79.3108 459.75 77.6813C458.38 74.1048 456.529 70.8007 453.914 67.9C449.492 62.9938 443.757 60.7666 437.535 59.5707C435.62 59.2026 433.527 59.3005 431.588 59.6207C428.79 60.0829 426.049 60.9163 423.302 61.6564C422.796 61.7928 422.313 62.1762 421.921 62.5514C419.532 64.8384 416.959 65.4336 414.015 63.4421C414.821 59.2646 414.454 55.0939 412.625 51.2033C411.076 47.9074 408.434 45.5511 405.393 43.4943C401.866 41.1091 398.031 41.2054 394.121 41.301C393.103 41.3259 392.539 41.1655 392.485 39.9052C392.21 33.5654 388.822 29.3034 383.083 27.0893C378.227 25.2159 373.288 25.7776 368.951 28.6299C367.078 29.8618 365.833 32.0499 364.225 33.9984C363.546 36.1284 362.944 38.0636 362.169 40.5545C361.291 39.4058 360.579 38.475 359.867 37.5442C358.427 37.2575 356.947 37.0981 355.554 36.6616C350.312 35.019 345.152 34.911 340.135 37.3751C337.93 38.4576 335.814 39.7219 333.679 40.9406C333.312 41.1503 333.015 41.5181 332.746 41.86C331.831 43.0207 330.943 44.2024 329.977 45.6236C329.2 47.3619 328.308 48.7974 327.836 50.3599C327.408 51.7784 326.837 52.4993 325.301 52.2006C324.888 52.1203 324.443 52.2067 324.012 52.2166ZM387.366 76.9249C387.714 75.8878 388.28 75.9025 389.244 76.2788C394.176 78.2035 399.099 78.1882 403.95 75.9251C404.422 75.705 404.907 75.5121 405.619 75.2063C401.07 83.1334 389.743 85.3817 383.946 82.136C385.044 80.4838 386.144 78.8294 387.366 76.9249Z" fill="#E8F1FF"/>
    <path d="M266.596 160.124C270.188 160.417 273.412 161.579 276.121 163.605C277.547 164.671 278.617 166.098 279.884 167.607C281.974 171.253 282.21 174.792 281.024 178.454C279.879 181.987 277.025 184.371 273.76 186.624C272.226 187.18 270.9 187.878 269.464 188.193C266.596 186.624 275.755 191.529 278.151 195.796C279.667 198.497 281.849 201.306 281.971 204.131C282.258 210.725 280.445 216.831 274.065 221.458C268.456 225.525 262.154 226.781 255.304 226.004C251.848 225.612 248.343 224.586 245.698 222.21C244.38 221.026 242.938 219.936 241.466 218.896C240.929 218.517 240.149 218.221 239.47 218.206C236.304 218.135 233.134 218.157 229.965 218.195C229.47 218.201 228.901 218.37 228.499 218.623C225.961 220.227 223.697 222.355 220.896 223.401C216.124 225.184 211.095 225.648 205.807 224.337C202.474 223.511 199.961 221.794 197.158 220.329C196.685 220.082 195.688 220.248 195.141 220.53C193.919 221.161 192.881 222.057 191.676 222.719C187.034 225.268 182.112 226.709 176.475 226.951C170.39 227.212 164.709 226.464 159.48 223.931C156.611 222.54 154.192 220.444 151.554 218.686C151.211 218.457 150.782 218.248 150.367 218.198C149.691 218.117 148.987 218.224 148.305 218.165C144.252 217.814 140.174 217.581 136.165 216.995C134.655 216.774 133.345 215.641 131.874 215.054C127.439 213.286 123.748 210.858 121.493 206.942C120.284 204.843 118.568 202.95 117.523 200.801C115.772 197.201 115.839 193.331 116.223 189.507C116.391 187.827 116.688 186.09 117.374 184.528C118.88 181.1 120.916 177.934 123.79 175.154C128.651 170.452 134.956 168.318 141.796 167.172C143.902 166.819 146.202 166.913 148.333 167.22C151.41 167.663 154.423 168.461 157.443 169.171C158 169.301 158.53 169.669 158.961 170.028C161.588 172.22 164.416 172.791 167.652 170.882C166.767 166.879 167.17 162.882 169.18 159.153C170.883 155.995 173.788 153.736 177.131 151.765C181.008 149.48 185.225 149.572 189.523 149.663C190.642 149.687 191.262 149.534 191.322 148.326C191.623 142.25 195.348 138.166 201.657 136.044C206.995 134.249 212.426 134.787 217.193 137.52C219.252 138.701 220.621 140.798 222.388 142.665C223.135 144.706 223.797 146.561 224.649 148.948C225.614 147.847 226.397 146.955 227.18 146.063C228.763 145.788 230.389 145.636 231.921 145.217C237.683 143.643 243.356 143.54 248.872 145.901C251.295 146.939 253.621 148.15 255.969 149.318C256.372 149.519 256.698 149.872 256.995 150.199C258 151.311 258.977 152.444 260.039 153.806C260.893 155.472 261.873 156.847 262.392 158.345C262.862 159.704 263.49 160.395 265.179 160.109C265.633 160.032 266.123 160.115 266.596 160.124Z" fill="#E8F1FF"/>
    <path d="M266.719 44.8409C266.792 44.8977 266.781 44.9443 266.705 44.998C266.671 45.0118 266.61 44.9259 266.61 44.9259C266.61 44.9259 266.666 44.8375 266.719 44.8409Z" fill="#F0A354"/>
    <path d="M266.347 45.3327C266.414 45.3994 266.4 45.4421 266.32 45.4829C266.286 45.4912 266.229 45.4015 266.229 45.4015C266.229 45.4015 266.296 45.319 266.347 45.3327Z" fill="#F0A354"/>
    <path d="M334.949 61.4407C335.013 61.5696 335 61.689 334.974 61.8972C334.818 61.9206 334.674 61.8551 334.504 61.7136C334.609 61.5687 334.74 61.4999 334.949 61.4407Z" fill="#D99823"/>
    <path d="M258.2 83.7145C262.556 75.6572 268.134 68.5362 274.654 62.123C279.952 56.9119 285.772 52.3857 292.155 48.5888C302.613 42.3673 313.807 38.3079 325.98 37.1264C334.288 36.3201 341.88 36.7087 348.986 38.4053C341.699 37.9927 335.121 40.1213 329.18 44.1701C324.817 47.1443 321.152 50.9125 317.934 55.105C312.331 62.4057 308.29 70.5251 305.743 79.3295C304.607 83.2594 304.139 87.3828 303.305 91.6424C303.16 92.1479 303.077 92.4293 302.92 92.6635C300.153 89.0218 297.701 85.196 294.156 82.358C291.84 80.503 289.449 78.5925 286.793 77.3402C281.195 74.7011 275.651 75.3138 270.444 78.701C267.176 80.8266 264.249 83.3307 261.958 86.5074C259.842 89.4417 257.646 92.3332 255.754 95.4084C254.266 97.8253 253.187 100.493 251.924 102.935C252.818 96.0467 255.289 90.03 258.2 83.7145Z" fill="url(#paint0_linear_5302_36787)"/>
    <path d="M385.006 53.9883C385.154 54.0999 385.185 54.1992 385.252 54.2505C387.858 56.2286 390.466 58.2024 393.161 60.2313C394.007 61.1113 394.713 61.9968 395.539 62.752C400.302 67.111 404.586 71.891 408.193 77.2474C410.293 80.3663 412.47 83.4675 414.206 86.789C416.124 90.4599 417.662 94.3403 419.208 98.1927C420.287 100.882 421.202 103.65 422.002 106.436C422.609 108.555 422.935 110.755 423.358 112.924C423.625 114.3 423.824 115.69 424.082 117.068C425.169 122.879 424.951 128.74 424.66 134.59C424.557 136.669 424.039 138.728 423.686 140.911C423.662 141.025 423.545 141.012 423.457 140.902C423.331 140.568 423.279 140.345 423.259 140.12C422.739 134.145 421.452 128.372 419.016 122.853C416.047 116.125 411.418 111.065 404.741 107.883C400.553 105.886 396.191 104.407 391.603 103.876C387.912 103.448 384.183 103.504 380.493 104.401C377.784 105.06 375.463 106.428 373.11 107.79C373.72 103.515 374.443 99.2532 374.907 94.9629C375.355 90.812 375.655 86.6362 375.797 82.4638C375.908 79.2264 375.817 75.9658 375.552 72.7371C375.342 70.1752 374.843 67.6213 374.276 65.1082C373.511 61.7189 372.851 58.2588 371.607 55.0373C370.223 51.4525 368.356 48.0215 365.403 45.3686C364.627 44.6715 363.847 43.9787 363.069 43.2839C363.123 43.17 363.177 43.0561 363.232 42.9421C363.963 43.1893 364.729 43.3654 365.421 43.6958C368.814 45.3154 372.231 46.8951 375.556 48.6458C378.726 50.3145 381.794 52.1766 385.006 53.9883Z" fill="url(#paint1_linear_5302_36787)"/>
    <path d="M303.248 92.0057C303.334 91.8891 304.905 91.3305 304.849 91.182C309.239 86.5636 314.91 84.5184 320.946 83.3033C327.711 81.9416 334.475 82.0543 341.182 83.7528C347.954 85.4676 353.788 88.9573 359.229 93.4911C359.754 94.1028 360.197 94.5556 360.633 95.0157C363.022 97.5401 367.715 100.625 370.007 103.235C371.431 104.855 371.708 105.933 372.986 107.779C371.117 111.534 369.669 115.638 367.94 119.904C365.265 120.242 360.706 119.703 358.121 119.993C356.182 120.21 354.217 120.205 352.283 120.447C347.118 121.093 341.952 121.763 337.313 123.426C335.858 121.899 334.673 120.387 333.225 119.195C330.72 117.133 328.189 115.039 325.416 113.382C322.325 111.537 319.014 110.017 315.685 108.629C312.305 107.22 308.212 106.391 304.735 105.069C304.193 100.929 303.569 93.0912 303.248 92.0057Z" fill="url(#paint2_linear_5302_36787)"/>
    <path d="M303.326 92.3028C304.01 96.0866 304.521 101.486 304.887 105.009C304.608 105.442 300.669 103.937 300.142 103.827C293.059 101.799 285.966 100.565 278.728 100.241C268.266 99.7719 261.871 100.915 252.105 104.068C252.281 103.218 251.691 104.117 251.895 103.171C253.187 100.495 254.266 97.8265 255.754 95.4097C257.647 92.3345 259.843 89.443 261.958 86.5087C264.249 83.332 267.176 80.8278 270.444 78.7023C275.651 75.315 281.196 74.7023 286.793 77.3414C294.857 81.1434 298.52 86.7107 303.326 92.3028Z" fill="url(#paint3_linear_5302_36787)"/>
    <path d="M372.86 107.739C375.214 106.376 377.534 105.008 380.243 104.35C383.934 103.453 387.662 103.397 391.353 103.824C395.941 104.355 400.606 105.815 404.795 107.811C411.471 110.993 416.113 116.25 419.082 122.978C421.662 128.823 422.779 134.539 423.429 140.841C423.128 141.129 422.516 141.317 422.097 141.502C420.123 139.721 418.341 137.815 416.333 136.186C409.106 130.322 401.1 125.807 392.277 122.802C386.689 120.9 380.881 120.277 375.021 120.057C372.696 119.97 370.367 119.979 367.929 119.926C369.557 116.073 369.29 114.859 372.855 107.737C372.855 107.737 372.859 107.739 372.86 107.739Z" fill="url(#paint4_linear_5302_36787)"/>
    <path d="M364.631 44.2327C359.814 39.7667 347.621 37.7495 342.88 38.3047C331.675 39.6168 325.36 46.6281 323.471 48.7017C321.109 51.2937 319.018 52.923 312.733 62.585C306.551 72.0902 305.472 79.294 304.606 83.4584C303.515 88.6975 302.461 93.097 303.785 92.1173C328.001 74.1912 364.837 92.3484 373.008 108.344C373.756 102.053 375.726 96.9968 376.28 75.1079C376.668 59.7718 373.208 52.1843 364.631 44.2327Z" fill="url(#paint5_linear_5302_36787)"/>
    <path d="M423.485 140.572L319.325 214.358M319.325 214.358L373.176 107.538M319.325 214.358L303.573 91.7925M319.325 214.358L252.11 103.368M319.325 214.358L337.411 123.151" stroke="#D6D6D6"/>
    <g clip-path="url(#clip0_5302_36787)">
        <path d="M324.022 176.232C345.867 180.778 359.895 202.177 355.349 224.022C350.803 245.867 329.404 259.895 307.559 255.349C285.713 250.803 271.686 229.404 276.232 207.558C280.778 185.713 302.177 171.686 324.022 176.232Z" fill="#3B00B9"/>
        <path fill-rule="evenodd" clip-rule="evenodd" d="M284.634 211.692C282.578 227.085 292.185 241.741 307.12 245.995L306.407 249.424C289.59 244.732 278.8 228.271 281.206 210.979L284.634 211.692Z" fill="url(#paint6_linear_5302_36787)"/>
        <path fill-rule="evenodd" clip-rule="evenodd" d="M319.889 184.635C304.497 182.579 289.841 192.186 285.587 207.121L282.158 206.408C286.806 189.582 303.32 178.757 320.603 181.207L319.889 184.635Z" fill="#29ABE2"/>
        <path fill-rule="evenodd" clip-rule="evenodd" d="M346.955 219.846C349.011 204.453 339.405 189.797 324.469 185.543L325.183 182.114C341.999 186.806 352.833 203.276 350.383 220.559L346.955 219.846Z" fill="url(#paint7_linear_5302_36787)"/>
        <path fill-rule="evenodd" clip-rule="evenodd" d="M311.692 246.946C327.085 249.003 341.74 239.396 345.995 224.461L349.423 225.174C344.775 242 328.27 252.781 310.978 250.375L311.692 246.946Z" fill="#29ABE2"/>
        <path d="M331.272 214.335C332.827 210.165 330.016 207.149 325.852 204.678L328.519 199.134L325.142 197.514L322.547 202.935C321.669 202.523 320.748 202.102 319.827 201.681L322.466 196.269L319.089 194.649L316.422 200.193C315.667 199.853 314.957 199.521 314.246 199.19L309.579 196.935L307.817 200.558C307.817 200.558 310.326 201.722 310.273 201.757C311.65 202.41 311.713 203.432 311.513 204.17C309.079 209.258 306.609 214.293 304.175 219.381C303.908 219.784 303.331 220.352 302.375 219.878C302.41 219.931 299.919 218.679 299.919 218.679L297.31 222.401L301.687 224.504C302.521 224.906 303.31 225.3 304.099 225.694L301.37 231.316L304.747 232.936L307.414 227.392C308.327 227.857 309.239 228.322 310.116 228.734L307.449 234.278L310.826 235.898L313.546 230.319C319.374 232.724 324.037 233.236 327.114 228.144C329.576 224.025 328.481 221.137 325.663 218.808C328.051 218.572 330.13 217.399 331.272 214.335ZM320.762 224.071C318.74 228.282 311.814 224.318 309.516 223.244L313.122 215.832C315.376 216.897 322.865 219.694 320.762 224.071ZM324.248 212.828C322.396 216.661 316.628 213.305 314.707 212.401L317.947 205.647C319.868 206.551 326.137 208.818 324.248 212.828Z" fill="white"/>
    </g>
    <path d="M97.0127 63.1263C97.0934 63.139 97.1055 63.1795 97.07 63.2537C97.0491 63.2794 96.9654 63.239 96.9654 63.239C96.9654 63.239 96.9706 63.1463 97.0127 63.1263Z" fill="#F0A354"/>
    <path d="M96.937 63.6681C97.0177 63.6908 97.0249 63.7301 96.9812 63.7958C96.9581 63.8172 96.8758 63.7721 96.8758 63.7721C96.8758 63.7721 96.8913 63.6797 96.937 63.6681Z" fill="#F0A354"/>
    <path d="M156.966 46.5146C157.071 46.5866 157.112 46.6847 157.182 46.8568C157.072 46.9423 156.932 46.9537 156.739 46.9177C156.758 46.7604 156.83 46.6506 156.966 46.5146Z" fill="#D99823"/>
    <path d="M107.204 96.8801C107.095 88.766 108.336 80.8489 110.612 73.0724C112.461 66.7537 115.01 60.7392 118.309 55.0463C123.714 45.718 130.623 37.7449 139.53 31.5757C145.61 27.3652 151.652 24.3882 157.881 22.6335C152.066 25.4597 147.895 29.9466 145.047 35.6435C142.955 39.8283 141.747 44.3256 141.067 48.9584C139.884 57.0258 140.262 65.0521 142.093 72.9632C142.91 76.4942 144.329 79.8862 145.522 83.5417C145.628 83.9955 145.686 84.249 145.665 84.4978C141.952 82.8749 138.403 80.9739 134.436 80.3083C131.843 79.8733 129.168 79.4273 126.573 79.605C121.103 79.9796 117.078 82.8471 114.512 87.7158C112.901 90.771 111.717 93.9721 111.317 97.4187C110.946 100.602 110.496 103.787 110.359 106.984C110.252 109.496 110.568 112.026 110.645 114.46C108.363 108.745 107.678 103.023 107.204 96.8801Z" fill="url(#paint8_linear_5302_36787)"/>
    <path d="M192.477 19.1392C192.639 19.1618 192.706 19.2253 192.781 19.2358C195.65 19.6414 198.521 20.0422 201.481 20.4489C202.516 20.7641 203.445 21.1444 204.409 21.3725C209.976 22.6887 215.354 24.5374 220.457 27.1243C223.428 28.6306 226.451 30.0902 229.228 31.9105C232.297 33.9222 235.162 36.2608 238.021 38.5739C240.017 40.1889 241.92 41.9348 243.741 43.7456C245.126 45.122 246.328 46.6837 247.591 48.1798C248.393 49.1286 249.146 50.1177 249.94 51.0725C253.29 55.0988 255.651 59.7279 257.952 64.3791C258.77 66.0324 259.258 67.8488 259.927 69.6899C259.958 69.7891 259.862 69.8291 259.746 69.7823C259.505 69.5782 259.368 69.4285 259.256 69.2623C256.273 64.8643 252.786 60.9539 248.519 57.7354C243.317 53.8121 237.551 51.8955 231.012 52.3159C226.91 52.5796 222.896 53.3178 219.117 54.8875C216.077 56.1505 213.217 57.8035 210.749 60.0904C208.937 61.7694 207.733 63.8299 206.5 65.8994C205.126 62.3291 203.846 58.7193 202.352 55.1999C200.908 51.7948 199.336 48.4349 197.645 45.1453C196.333 42.5929 194.855 40.1096 193.257 37.7259C191.988 35.8344 190.499 34.0742 188.976 32.3747C186.921 30.0826 184.917 27.6906 182.563 25.7352C179.945 23.5593 177.019 21.7109 173.589 20.9333C172.688 20.7289 171.786 20.5297 170.884 20.328C170.876 20.2164 170.869 20.1048 170.862 19.9933C171.535 19.8686 172.204 19.6741 172.882 19.631C176.206 19.4193 179.531 19.1667 182.859 19.0855C186.032 19.0081 189.21 19.1243 192.477 19.1392Z" fill="url(#paint9_linear_5302_36787)"/>
    <path d="M145.641 83.8465C145.657 83.7194 146.631 82.6091 146.524 82.5184C147.926 77.0501 151.431 73.0195 155.577 69.4736C160.223 65.4997 165.504 62.6667 171.427 61.0853C177.406 59.4887 183.426 59.6701 189.593 60.8287C190.263 61.0752 190.802 61.2343 191.337 61.4023C194.275 62.324 199.238 62.6847 202.138 63.7141C203.939 64.3533 204.619 65.0668 206.405 65.9439C206.58 69.6563 207.231 73.4563 207.735 77.5025C205.811 78.9197 202.051 80.4704 200.176 81.8107C198.771 82.8159 197.248 83.6597 195.856 84.682C192.139 87.4115 188.431 90.1603 185.56 93.4497C183.775 92.8963 182.206 92.2383 180.571 91.9411C177.743 91.4269 174.881 90.8994 172.02 90.8154C168.832 90.7218 165.614 90.9754 162.439 91.3388C159.217 91.7077 155.692 92.833 152.431 93.3116C150.225 90.3426 146.358 84.548 145.641 83.8465Z" fill="url(#paint10_linear_5302_36787)"/>
    <path d="M145.831 84.0421C147.993 86.6744 150.719 90.6313 152.523 93.1991C152.494 93.6541 148.798 94.1906 148.342 94.3328C141.986 95.8215 135.966 97.9292 130.227 100.803C121.93 104.956 117.476 108.602 111.281 115.257C111.051 114.523 110.982 115.474 110.731 114.654C110.576 112.025 110.259 109.495 110.367 106.983C110.503 103.787 110.954 100.602 111.324 97.4182C111.725 93.9716 112.909 90.7705 114.519 87.7153C117.086 82.8466 121.111 79.9791 126.58 79.6045C134.46 79.0649 139.698 81.7908 145.831 84.0421Z" fill="url(#paint11_linear_5302_36787)"/>
    <path d="M206.29 65.9672C207.523 63.8972 208.728 61.8366 210.539 60.1577C213.007 57.8707 215.868 56.2178 218.908 54.9548C222.686 53.3851 226.926 52.5007 231.028 52.237C237.567 51.8166 243.428 53.8795 248.629 57.8028C253.149 61.2116 256.48 65.1515 259.704 69.7464C259.596 70.0992 259.203 70.5084 258.959 70.8335C256.663 70.3072 254.461 69.6024 252.205 69.2087C244.082 67.7911 235.939 67.7545 227.815 69.2392C222.671 70.1793 217.909 72.2053 213.28 74.565C211.444 75.5012 209.646 76.5133 207.737 77.5246C207.333 73.8415 206.602 73.0169 206.286 65.9683C206.286 65.9683 206.29 65.9677 206.29 65.9672Z" fill="url(#paint12_linear_5302_36787)"/>
    <path d="M172.502 20.3869C166.847 19.0112 156.543 22.7148 153.114 25.1909C145.012 31.0433 143.153 39.1938 142.587 41.6136C141.879 44.6384 140.964 46.8019 140.273 56.9901C139.593 67.0131 141.869 73.052 142.996 76.648C144.414 81.1721 145.498 85.0308 146.099 83.7015C157.096 59.3782 193.433 57.5236 206.66 66.372C204.523 61.1814 203.864 56.4194 194.843 39.2454C188.523 27.2127 182.57 22.8363 172.502 20.3869Z" fill="url(#paint13_linear_5302_36787)"/>
    <path d="M259.624 69.5144L210.893 171.566M210.893 171.566L206.441 65.6757M210.893 171.566L145.793 83.5419M210.893 171.566L110.976 114.714M210.893 171.566L185.511 93.1946" stroke="#D6D6D6"/>
    <g clip-path="url(#clip1_5302_36787)">
        <circle cx="216.873" cy="188.873" r="35.5" transform="rotate(-19.2943 216.873 188.873)" fill="white" stroke="#DBD9D6"/>
        <path d="M224.754 174.036C222.222 174.923 219.906 177.16 217.864 180.686C216.895 182.356 216.145 184.046 215.604 185.377C215.604 185.377 215.604 185.377 215.615 185.382L215.612 185.374C215.612 185.374 217.556 186.388 219.688 187.458C220.187 186.185 220.932 184.428 221.903 182.739C223.719 179.604 225.246 178.542 226.213 178.204C229.855 176.929 233.802 178.721 235.018 182.195C236.227 185.646 234.251 189.511 230.625 190.806C230.46 190.864 230.24 190.915 229.953 190.955C231.172 191.03 232.425 190.954 233.511 190.574C240.181 188.239 239.995 183.522 239.974 183.184C239.898 182.337 239.714 181.485 239.42 180.645C237.403 174.883 230.819 171.913 224.754 174.036Z" fill="url(#paint14_linear_5302_36787)"/>
        <path d="M208.793 203.145C211.326 202.258 213.641 200.021 215.683 196.496C216.652 194.825 217.403 193.135 217.943 191.804C217.943 191.804 217.943 191.804 217.933 191.799L217.935 191.807C217.935 191.807 215.991 190.793 213.859 189.723C213.36 190.996 212.616 192.753 211.644 194.442C209.828 197.577 208.301 198.639 207.334 198.977C203.69 200.245 199.742 198.453 198.526 194.979C197.318 191.527 199.294 187.662 202.919 186.367C203.084 186.309 203.305 186.258 203.591 186.218C202.373 186.143 201.119 186.219 200.034 186.599C193.364 188.934 193.557 193.648 193.568 193.982C193.647 194.836 193.828 195.681 194.122 196.521C196.144 202.298 202.729 205.268 208.793 203.145Z" fill="url(#paint15_linear_5302_36787)"/>
        <path d="M233.464 190.487C230.021 191.597 225.551 190.204 224.599 189.803C222.133 188.763 216.211 185.692 215.746 185.448C211.368 183.081 205.722 180.699 201.459 182.191L201.451 182.194L201.443 182.197C196.276 184.032 193.129 188.99 193.569 193.981C193.551 193.651 193.737 188.708 200.051 186.671C203.495 185.56 207.993 186.986 208.954 187.385C211.419 188.424 217.342 191.496 217.807 191.739C222.182 194.099 227.828 196.481 232.091 194.989L232.099 194.986L232.107 194.983C237.274 193.148 240.429 188.187 239.981 183.199C239.991 183.532 239.784 188.439 233.464 190.487Z" fill="#29ABE2"/>
    </g>
    <path d="M183.839 200.438C177.452 182.194 187.064 162.226 205.308 155.839C223.553 149.452 243.52 159.064 249.907 177.309C256.294 195.553 246.682 215.521 228.438 221.908C210.194 228.295 190.226 218.682 183.839 200.438Z" stroke="url(#paint16_linear_5302_36787)" stroke-width="2"/>
    <defs>
        <linearGradient id="paint0_linear_5302_36787" x1="308.847" y1="30.0274" x2="291.943" y2="111.263" gradientUnits="userSpaceOnUse">
            <stop stop-color="#CAE2FF"/>
            <stop offset="1" stop-color="#4D94FF"/>
        </linearGradient>
        <linearGradient id="paint1_linear_5302_36787" x1="401.93" y1="50.9952" x2="384.879" y2="132.935" gradientUnits="userSpaceOnUse">
            <stop stop-color="#CAE2FF"/>
            <stop offset="1" stop-color="#4D94FF"/>
        </linearGradient>
        <linearGradient id="paint2_linear_5302_36787" x1="341.472" y1="83.77" x2="333.39" y2="122.61" gradientUnits="userSpaceOnUse">
            <stop offset="0.38" stop-color="#004FC6"/>
            <stop offset="1" stop-color="#0066FF"/>
        </linearGradient>
        <linearGradient id="paint3_linear_5302_36787" x1="284.176" y1="76.2874" x2="277.304" y2="109.312" gradientUnits="userSpaceOnUse">
            <stop offset="0.38" stop-color="#004FC6"/>
            <stop offset="1" stop-color="#0066FF"/>
        </linearGradient>
        <linearGradient id="paint4_linear_5302_36787" x1="400.827" y1="105.644" x2="394.558" y2="135.772" gradientUnits="userSpaceOnUse">
            <stop offset="0.38" stop-color="#004FC6"/>
            <stop offset="1" stop-color="#0066FF"/>
        </linearGradient>
        <linearGradient id="paint5_linear_5302_36787" x1="350.696" y1="38.7401" x2="337.739" y2="101.005" gradientUnits="userSpaceOnUse">
            <stop stop-color="#6FA9FF"/>
            <stop offset="1" stop-color="#0066FF"/>
        </linearGradient>
        <linearGradient id="paint6_linear_5302_36787" x1="299.283" y1="240.815" x2="281.658" y2="218.369" gradientUnits="userSpaceOnUse">
            <stop offset="0.21" stop-color="#ED1E79"/>
            <stop offset="1" stop-color="#522785"/>
        </linearGradient>
        <linearGradient id="paint7_linear_5302_36787" x1="346.815" y1="209.191" x2="329.19" y2="186.745" gradientUnits="userSpaceOnUse">
            <stop offset="0.21" stop-color="#F15A24"/>
            <stop offset="0.68" stop-color="#FBB03B"/>
        </linearGradient>
        <linearGradient id="paint8_linear_5302_36787" x1="123.211" y1="33.4796" x2="145.202" y2="103.627" gradientUnits="userSpaceOnUse">
            <stop stop-color="#CAE2FF"/>
            <stop offset="1" stop-color="#4D94FF"/>
        </linearGradient>
        <linearGradient id="paint9_linear_5302_36787" x1="204.279" y1="9.5172" x2="226.46" y2="80.2724" gradientUnits="userSpaceOnUse">
            <stop stop-color="#CAE2FF"/>
            <stop offset="1" stop-color="#4D94FF"/>
        </linearGradient>
        <linearGradient id="paint10_linear_5302_36787" x1="171.658" y1="60.9735" x2="182.173" y2="94.5116" gradientUnits="userSpaceOnUse">
            <stop offset="0.38" stop-color="#004FC6"/>
            <stop offset="1" stop-color="#0066FF"/>
        </linearGradient>
        <linearGradient id="paint11_linear_5302_36787" x1="124.101" y1="79.9186" x2="133.041" y2="108.436" gradientUnits="userSpaceOnUse">
            <stop offset="0.38" stop-color="#004FC6"/>
            <stop offset="1" stop-color="#0066FF"/>
        </linearGradient>
        <linearGradient id="paint12_linear_5302_36787" x1="227.024" y1="52.2731" x2="235.179" y2="78.2884" gradientUnits="userSpaceOnUse">
            <stop offset="0.38" stop-color="#004FC6"/>
            <stop offset="1" stop-color="#0066FF"/>
        </linearGradient>
        <linearGradient id="paint13_linear_5302_36787" x1="159.349" y1="22.1536" x2="176.205" y2="75.9195" gradientUnits="userSpaceOnUse">
            <stop stop-color="#6FA9FF"/>
            <stop offset="1" stop-color="#0066FF"/>
        </linearGradient>
        <linearGradient id="paint14_linear_5302_36787" x1="219.51" y1="177.423" x2="239.567" y2="187.776" gradientUnits="userSpaceOnUse">
            <stop offset="0.21" stop-color="#F15A24"/>
            <stop offset="0.6841" stop-color="#FBB03B"/>
        </linearGradient>
        <linearGradient id="paint15_linear_5302_36787" x1="214.037" y1="199.758" x2="193.98" y2="189.405" gradientUnits="userSpaceOnUse">
            <stop offset="0.21" stop-color="#ED1E79"/>
            <stop offset="0.8929" stop-color="#522785"/>
        </linearGradient>
        <linearGradient id="paint16_linear_5302_36787" x1="204.978" y1="154.895" x2="228.768" y2="222.851" gradientUnits="userSpaceOnUse">
            <stop stop-color="#C6DBFF"/>
            <stop offset="1" stop-color="#7BB0FF"/>
        </linearGradient>
        <clipPath id="clip0_5302_36787">
            <path d="M276.232 207.558C280.778 185.711 302.175 171.686 324.022 176.232C345.87 180.778 359.895 202.175 355.349 224.022C350.803 245.87 329.406 259.895 307.559 255.349C285.711 250.803 271.686 229.406 276.232 207.558Z" fill="white"/>
        </clipPath>
        <clipPath id="clip1_5302_36787">
            <path d="M182.895 200.769C176.326 182.003 186.212 161.465 204.978 154.895C223.744 148.326 244.282 158.213 250.851 176.978C257.421 195.744 247.534 216.282 228.768 222.851C210.003 229.421 189.465 219.534 182.895 200.769Z" fill="white"/>
        </clipPath>
    </defs>
</svg>