<!-- source: DFINITY foundation -->
<svg width="360" height="217" viewBox="0 0 360 217" fill="none" xmlns="http://www.w3.org/2000/svg">
    <g clip-path="url(#clip0_4238_26355)">
        <mask id="mask0_4238_26355" style="mask-type:luminance" maskUnits="userSpaceOnUse" x="0" y="0" width="360"
              height="217">
            <path d="M0 0H360V216.269H0V0Z" fill="white"/>
        </mask>
        <g mask="url(#mask0_4238_26355)">
            <g opacity="0.7">
                <path d="M162.298 226.932C162.977 228.06 163.155 229.299 162.664 230.682C162.383 231.463 161.789 232.175 160.916 232.837C157.132 235.695 148.012 237.604 135.433 240.234C109.499 245.646 68.3301 254.248 31.2676 280.665L23.4457 267.592C60.5001 241.176 101.677 232.574 127.611 227.162C140.19 224.531 149.31 222.632 153.094 219.764C153.967 219.102 154.562 218.39 154.842 217.609C155.333 216.227 155.156 214.987 154.476 213.86L162.298 226.932Z"
                      fill="url(#paint0_linear_4238_26355)"/>
                <path d="M146.41 200.38C146.759 200.934 146.974 201.561 147.037 202.212C147.1 202.863 147.01 203.52 146.774 204.13C146.494 204.91 145.901 205.623 145.026 206.284C141.244 209.144 132.124 211.053 119.543 213.682C93.6107 219.094 52.4418 227.696 15.3779 254.113L-0.358673 227.806L7.59895 241.109C40.7687 218.399 69.1536 209.577 113.104 200.388C130.715 196.707 142.354 194.273 138.621 187.367L146.4 200.372"
                      fill="url(#paint1_linear_4238_26355)"/>
                <path d="M235.237 348.836C235.586 349.389 235.801 350.016 235.865 350.667C235.928 351.318 235.838 351.975 235.603 352.585C235.323 353.365 234.729 354.078 233.855 354.741C230.071 357.599 220.953 359.508 208.371 362.137C182.439 367.55 141.27 376.151 104.207 402.568L96.2503 389.275C133.305 362.858 174.482 354.257 200.415 348.844C212.995 346.215 222.115 344.314 225.899 341.448C226.773 340.785 227.367 340.072 227.646 339.292C227.882 338.682 227.972 338.025 227.908 337.374C227.845 336.723 227.63 336.096 227.281 335.543L235.237 348.836ZM218.296 320.51C218.645 321.063 218.86 321.69 218.924 322.342C218.987 322.993 218.897 323.65 218.661 324.26C218.38 325.041 217.787 325.753 216.913 326.415C213.129 329.273 204.01 331.182 191.43 333.812C165.497 339.224 124.328 347.827 87.265 374.243L79.2053 360.78C116.26 334.363 157.438 325.762 183.37 320.349C195.951 317.72 205.071 315.819 208.854 312.953C209.728 312.29 210.322 311.577 210.601 310.797C210.837 310.187 210.927 309.53 210.864 308.879C210.801 308.228 210.586 307.601 210.237 307.047L218.296 320.51ZM201.576 292.575C201.925 293.128 202.14 293.756 202.203 294.407C202.266 295.058 202.176 295.715 201.94 296.325C201.66 297.106 201.067 297.818 200.194 298.48C196.41 301.338 187.29 303.247 174.709 305.877C148.777 311.29 107.608 319.891 70.5439 346.308L62.4855 332.845C99.5399 306.428 140.717 297.826 166.65 292.414C179.232 289.785 188.35 287.884 192.134 285.016C193.007 284.355 193.602 283.642 193.881 282.862C194.117 282.252 194.207 281.595 194.144 280.944C194.08 280.293 193.865 279.666 193.516 279.113L201.576 292.575ZM185.967 266.49C186.316 267.043 186.531 267.67 186.594 268.321C186.657 268.972 186.567 269.629 186.331 270.239C186.051 271.019 185.458 271.733 184.583 272.393C180.801 275.253 171.681 277.161 159.1 279.791C133.168 285.203 91.9987 293.805 54.9349 320.222L46.8765 306.751C83.931 280.334 125.108 271.733 151.041 266.32C163.621 263.69 172.741 261.79 176.525 258.923C177.398 258.261 177.992 257.549 178.273 256.768C178.509 256.158 178.599 255.501 178.535 254.85C178.472 254.198 178.257 253.571 177.907 253.018L185.967 266.49ZM170.358 240.403C170.707 240.956 170.922 241.584 170.985 242.235C171.048 242.886 170.958 243.543 170.722 244.154C170.443 244.934 169.849 245.646 168.974 246.308C165.192 249.167 156.072 251.076 143.491 253.706C117.559 259.118 76.3898 267.72 39.3259 294.136L31.2675 280.665C68.322 254.248 109.499 245.646 135.433 240.234C148.012 237.604 157.132 235.704 160.916 232.836C161.789 232.176 162.383 231.462 162.664 230.682C163.155 229.3 162.977 228.061 162.298 226.933L170.358 240.403ZM154.478 213.852C154.827 214.405 155.041 215.032 155.105 215.683C155.168 216.334 155.078 216.991 154.842 217.601C154.562 218.381 153.968 219.093 153.094 219.755C149.311 222.614 140.192 224.523 127.611 227.153C101.677 232.565 60.5081 241.167 23.4456 267.584L15.3872 254.113C52.4417 227.696 93.6188 219.093 119.552 213.681C132.132 211.052 141.252 209.152 145.036 206.284C145.909 205.623 146.503 204.91 146.783 204.129C147.275 202.747 147.096 201.508 146.418 200.38L154.478 213.852ZM138.631 187.376C142.541 194.247 130.834 196.698 113.112 200.397C69.1616 209.584 40.7686 218.399 7.60695 241.116L-0.349319 227.815C36.7052 201.398 77.8822 192.796 103.816 187.384C116.395 184.754 125.515 182.854 129.299 179.986C130.172 179.325 130.766 178.612 131.047 177.832C131.538 176.449 131.36 175.211 130.681 174.083L138.639 187.384"
                      fill="url(#paint2_linear_4238_26355)"/>
                <path d="M137.434 212.299C139.089 215.065 144.356 217.228 149.489 219.34C154.901 221.563 160.44 223.845 162.298 226.933L154.477 213.86C152.628 210.764 147.08 208.49 141.668 206.268C136.535 204.163 131.267 201.992 129.613 199.227L137.434 212.299Z"
                      fill="url(#paint3_linear_4238_26355)"/>
                <path d="M121.554 185.745C123.209 188.51 128.476 190.674 133.608 192.786C139.021 195.009 144.56 197.291 146.418 200.378L138.639 187.374C136.789 184.278 131.242 182.004 125.829 179.782C120.697 177.678 115.428 175.506 113.775 172.74L121.554 185.745Z"
                      fill="url(#paint4_linear_4238_26355)"/>
                <path d="M210.381 334.202C212.036 336.968 217.303 339.131 222.436 341.243C227.848 343.465 233.387 345.748 235.245 348.836L227.288 335.543C225.439 332.446 219.89 330.172 214.478 327.95C209.347 325.845 204.078 323.675 202.423 320.909L210.381 334.202ZM193.431 305.876C195.086 308.642 200.353 310.806 205.486 312.918C210.898 315.141 216.438 317.422 218.296 320.51L210.237 307.048C208.388 303.951 202.84 301.677 197.428 299.455C192.295 297.352 187.027 295.18 185.373 292.414L193.431 305.876ZM176.712 277.941C178.365 280.707 183.633 282.87 188.766 284.983C194.178 287.205 199.718 289.487 201.576 292.575L193.516 279.113C191.668 276.016 186.119 273.742 180.706 271.52C175.574 269.415 170.307 267.245 168.652 264.479L176.712 277.941ZM161.111 251.856C162.764 254.622 168.033 256.785 173.165 258.896C178.577 261.119 184.117 263.402 185.975 266.49L177.916 253.018C176.067 249.922 170.519 247.648 165.106 245.426C159.974 243.322 154.706 241.15 153.051 238.384L161.111 251.856ZM145.502 225.769C147.155 228.535 152.424 230.699 157.556 232.811C162.968 235.034 168.508 237.315 170.366 240.403L162.306 226.933C160.458 223.835 154.91 221.562 149.497 219.339C144.365 217.236 139.097 215.063 137.442 212.299L145.502 225.769ZM129.612 199.218C131.267 201.983 136.535 204.147 141.667 206.258C147.08 208.481 152.618 210.764 154.476 213.85L146.418 200.38C144.568 197.284 139.02 195.01 133.608 192.788C128.476 190.683 123.207 188.512 121.554 185.746L129.612 199.218ZM113.767 172.742C115.42 175.506 120.689 177.67 125.82 179.782C131.233 182.005 136.773 184.288 138.631 187.376L130.673 174.073C128.823 170.977 123.276 168.704 117.864 166.481C112.731 164.377 107.463 162.205 105.809 159.439L113.767 172.742Z"
                      fill="url(#paint5_linear_4238_26355)"/>
                <path d="M282.182 184.745C272.486 191.337 253.296 196.825 232.411 202.569C208.046 209.279 180.426 216.871 160.27 228.613C158.793 229.478 157.529 230.3 156.478 231.098C153.958 233.007 152.66 234.729 152.524 236.323C152.465 237.045 152.652 237.731 153.042 238.376L145.492 225.762C145.101 225.108 144.915 224.43 144.974 223.709C145.109 222.114 146.408 220.392 148.927 218.483C149.979 217.687 151.243 216.863 152.719 215.998C172.875 204.256 200.497 196.656 224.86 189.955C245.746 184.203 264.926 178.714 274.632 172.132L282.182 184.745Z"
                      fill="url(#paint6_linear_4238_26355)"/>
                <path d="M266.573 158.66C256.877 165.252 237.689 170.74 216.803 176.483C192.439 183.194 164.818 190.786 144.661 202.527C143.186 203.393 141.922 204.215 140.87 205.013C138.35 206.922 137.053 208.644 136.917 210.238C136.856 210.96 137.043 211.646 137.434 212.291L129.612 199.218C129.223 198.565 129.036 197.887 129.095 197.165C129.231 195.571 130.528 193.849 133.048 191.94C134.1 191.142 135.364 190.32 136.84 189.455C156.996 177.713 184.617 170.113 208.981 163.411C229.867 157.659 249.047 152.171 258.751 145.587L266.573 158.66Z"
                      fill="url(#paint7_linear_4238_26355)"/>
                <path d="M250.685 132.117C240.989 138.709 221.799 144.197 200.913 149.94C176.55 156.65 148.928 164.243 128.772 175.984C127.296 176.849 126.032 177.672 124.98 178.469C122.46 180.377 121.162 182.099 121.027 183.694C120.968 184.415 121.154 185.103 121.544 185.748L113.765 172.742C111.382 167.033 123.317 156.158 193.771 136.757C219.559 129.656 233.311 125.279 242.904 119.104L250.683 132.108"
                      fill="url(#paint8_linear_4238_26355)"/>
                <path d="M302.856 202.96C303.383 203.843 303.476 204.708 302.975 205.565C301.982 207.236 300.464 208.805 298.487 210.307C289.206 217.331 269.839 222.658 248.02 228.664C223.655 235.374 196.035 242.967 175.879 254.708C174.402 255.573 173.138 256.396 172.086 257.193C169.566 259.102 168.269 260.824 168.133 262.418C168.074 263.139 168.261 263.827 168.65 264.472L161.101 251.857C160.71 251.204 160.523 250.525 160.583 249.805C160.718 248.209 162.017 246.487 164.536 244.578C165.588 243.781 166.852 242.958 168.328 242.093C188.484 230.353 216.106 222.751 240.469 216.049C261.559 210.248 280.356 205.072 289.977 198.388L289.79 198.073C290.121 197.845 290.443 197.615 290.749 197.378C292.725 195.876 294.245 194.307 295.237 192.636C295.746 191.779 295.652 190.914 295.119 190.031L302.856 202.96Z"
                      fill="url(#paint9_linear_4238_26355)"/>
                <path d="M344.576 272.682C345.103 273.565 345.195 274.43 344.694 275.287C343.702 276.958 342.184 278.527 340.206 280.029C330.926 287.053 311.558 292.38 289.741 298.386C265.378 305.097 237.756 312.689 217.6 324.43C216.123 325.295 214.859 326.118 213.808 326.916C211.289 328.824 209.991 330.546 209.854 332.141C209.795 332.863 209.982 333.549 210.373 334.194L202.415 320.901C202.024 320.248 201.839 319.57 201.898 318.848C202.034 317.253 203.331 315.53 205.851 313.623C206.903 312.825 208.167 312.002 209.643 311.137C229.799 299.396 257.42 291.795 281.783 285.093C303.594 279.087 322.96 273.76 332.249 266.736C334.226 265.234 335.744 263.665 336.737 261.994C337.246 261.137 337.152 260.272 336.619 259.389L344.576 272.682ZM327.635 244.366C328.161 245.249 328.254 246.114 327.753 246.971C326.76 248.642 325.242 250.211 323.265 251.712C313.984 258.736 294.617 264.064 272.798 270.07C248.435 276.779 220.813 284.372 200.657 296.113C199.18 296.978 197.916 297.802 196.865 298.598C194.345 300.507 193.047 302.229 192.911 303.824C192.852 304.545 193.039 305.233 193.429 305.878L185.373 292.414C184.982 291.761 184.795 291.083 184.854 290.361C184.99 288.767 186.289 287.045 188.808 285.136C189.859 284.338 191.123 283.516 192.6 282.651C212.756 270.909 240.378 263.309 264.741 256.607C286.55 250.6 305.918 245.273 315.207 238.249C317.183 236.748 318.702 235.178 319.695 233.507C320.204 232.65 320.11 231.785 319.576 230.902L327.635 244.366ZM310.915 216.422C311.441 217.304 311.534 218.169 311.033 219.026C310.04 220.697 308.522 222.266 306.545 223.768C297.264 230.792 277.897 236.12 256.078 242.125C231.715 248.836 204.093 256.429 183.937 268.169C182.461 269.035 181.197 269.857 180.145 270.655C177.626 272.564 176.329 274.286 176.193 275.881C176.132 276.602 176.319 277.289 176.71 277.933L168.65 264.471C168.261 263.818 168.074 263.138 168.133 262.418C168.269 260.823 169.566 259.1 172.086 257.192C173.138 256.395 174.402 255.572 175.879 254.707C196.035 242.966 223.655 235.365 248.02 228.663C269.83 222.657 289.197 217.33 298.485 210.306C300.463 208.804 301.981 207.235 302.973 205.564C303.482 204.707 303.388 203.842 302.855 202.959L310.915 216.422ZM289.978 198.387C280.367 205.071 261.56 210.247 240.47 216.048C216.107 222.759 188.485 230.351 168.329 242.092C166.853 242.957 165.589 243.78 164.537 244.578C162.019 246.487 160.72 248.209 160.584 249.804C160.525 250.525 160.712 251.211 161.102 251.856L153.043 238.384C152.653 237.731 152.466 237.053 152.526 236.332C152.661 234.737 153.959 233.015 156.479 231.106C157.531 230.309 158.795 229.486 160.271 228.621C180.427 216.88 208.048 209.279 232.412 202.578C253.297 196.826 272.478 191.337 282.183 184.754L290.047 197.954C290.14 197.886 289.699 198.141 289.793 198.082L289.98 198.395M274.634 172.131C264.938 178.722 245.749 184.211 224.863 189.955C200.5 196.665 172.878 204.257 152.722 215.997C151.245 216.864 149.981 217.686 148.93 218.484C146.411 220.392 145.112 222.114 144.976 223.709C144.917 224.43 145.104 225.117 145.495 225.761L137.435 212.291C137.046 211.637 136.859 210.958 136.918 210.237C137.054 208.643 138.351 206.921 140.871 205.012C141.923 204.215 143.187 203.392 144.663 202.527C164.819 190.786 192.44 183.185 216.804 176.483C237.69 170.731 256.87 165.243 266.574 158.66L274.634 172.131ZM258.746 145.588C249.05 152.179 229.86 157.668 208.976 163.41C184.611 170.121 156.991 177.714 136.835 189.454C135.358 190.319 134.094 191.142 133.043 191.939C130.523 193.848 129.225 195.57 129.089 197.166C129.03 197.886 129.217 198.573 129.606 199.218L121.548 185.746C121.157 185.094 120.971 184.415 121.03 183.694C121.165 182.099 122.464 180.377 124.983 178.469C126.035 177.671 127.299 176.849 128.775 175.982C148.931 164.242 176.553 156.641 200.916 149.94C221.801 144.188 240.982 138.699 250.687 132.116L258.746 145.588ZM242.907 119.111C233.312 125.279 219.561 129.664 193.772 136.765C123.319 156.166 111.383 167.041 113.766 172.75L105.81 159.449C105.419 158.796 105.233 158.116 105.293 157.396C105.429 155.801 106.726 154.079 109.245 152.17C110.298 151.373 111.562 150.55 113.037 149.685C133.193 137.944 160.815 130.343 185.178 123.641C206.065 117.889 225.244 112.4 234.949 105.818L242.907 119.12"
                      fill="url(#paint10_linear_4238_26355)"/>
                <path d="M292.829 184.934L291.463 182.651L293.423 186.053C293.262 185.705 293.016 185.264 292.829 184.924M290.496 181.031L289.088 178.681C289.546 179.453 289.682 180.208 289.369 180.963L290.496 181.031ZM281.962 166.771L280.596 164.489L282.556 167.89C282.394 167.542 282.149 167.102 281.962 166.762M279.629 162.86L278.221 160.51C278.679 161.283 278.815 162.037 278.5 162.792L279.629 162.869M270.985 148.413L269.628 146.14L271.58 149.541C271.419 149.193 271.171 148.752 270.985 148.413ZM268.643 144.52L267.236 142.161C267.694 142.933 267.829 143.688 267.515 144.443L268.643 144.52ZM259.838 129.793L258.481 127.519L260.433 130.92C260.272 130.572 260.026 130.132 259.839 129.792L259.838 129.793ZM257.505 125.891L256.097 123.532C256.555 124.305 256.691 125.06 256.376 125.814L257.505 125.891ZM248.877 111.478L247.511 109.195L249.471 112.597C249.309 112.249 249.064 111.808 248.877 111.468M246.544 107.574L245.136 105.225C245.594 105.997 245.73 106.752 245.415 107.507L246.544 107.583"
                      fill="url(#paint11_linear_4238_26355)"/>
                <path d="M292.829 184.933L293.423 186.061L291.463 182.659L292.829 184.941M290.496 181.031C290.429 181.005 289.741 180.97 289.367 180.962C289.682 180.215 289.546 179.452 289.087 178.68L290.496 181.031ZM281.962 166.77L282.556 167.899L280.596 164.496L281.962 166.779M279.629 162.859C279.56 162.833 278.874 162.8 278.5 162.782C278.815 162.037 278.679 161.272 278.221 160.501L279.629 162.851M270.985 148.412L271.578 149.54L269.627 146.139L270.985 148.412ZM268.643 144.519C268.576 144.493 267.906 144.46 267.515 144.442C267.829 143.696 267.694 142.933 267.236 142.16L268.643 144.519ZM259.838 129.791L260.432 130.92L258.48 127.518L259.837 129.793L259.838 129.791ZM257.505 125.889C257.438 125.863 256.767 125.83 256.376 125.812C256.691 125.066 256.555 124.303 256.097 123.53L257.505 125.889ZM248.877 111.476L249.471 112.604L247.511 109.203L248.877 111.485M246.544 107.575C246.476 107.549 245.789 107.516 245.415 107.498C245.73 106.751 245.594 105.988 245.136 105.216L246.544 107.565"
                      fill="url(#paint12_linear_4238_26355)"/>
                <path d="M300.557 215.643C302.593 219.045 307.353 222.031 311.67 224.737C315.207 226.959 318.423 228.978 319.576 230.904L310.915 216.432C309.761 214.506 306.555 212.496 303.008 210.265C298.69 207.558 293.932 204.564 291.895 201.171L300.557 215.643Z"
                      fill="url(#paint13_linear_4238_26355)"/>
                <path d="M283.837 187.7C285.873 191.102 290.631 194.088 294.95 196.794C298.487 199.017 301.703 201.036 302.856 202.962L295.119 190.033C293.965 188.107 290.759 186.097 287.213 183.866C282.894 181.159 278.136 178.165 276.1 174.772L283.837 187.7Z"
                      fill="url(#paint14_linear_4238_26355)"/>
                <path d="M325.557 257.423C327.593 260.825 332.352 263.81 336.67 266.517C340.206 268.74 343.422 270.759 344.576 272.684L336.619 259.391C335.465 257.466 332.258 255.455 328.712 253.224C324.395 250.517 319.635 247.523 317.599 244.13L325.557 257.423ZM308.615 229.106C310.652 232.508 315.409 235.494 319.728 238.2C323.265 240.422 326.481 242.441 327.635 244.367L319.575 230.905C318.421 228.979 315.215 226.968 311.668 224.737C307.35 222.031 302.592 219.037 300.555 215.643L308.615 229.106ZM291.895 201.162C293.932 204.565 298.691 207.551 303.008 210.256C306.545 212.479 309.761 214.498 310.915 216.423L302.856 202.961C301.703 201.036 298.496 199.025 294.95 196.794C290.631 194.087 285.873 191.093 283.837 187.7L291.895 201.162Z"
                      fill="url(#paint15_linear_4238_26355)"/>
                <path d="M284.354 176.874C284.278 176.746 282.437 175.093 278.408 171.454L280.639 172.861L284.032 175.033C283.871 173.88 283.684 173.056 283.515 172.327L287.629 177.866C288.003 178.256 288.316 178.639 288.545 179.02L289.953 181.37H289.936L290.92 182.999L292.286 185.28C291.319 183.77 290.666 182.923 288.698 180.92L285.254 179.953L284.356 176.866M268.076 161.349L264.479 155.344L264.98 156.099L263.699 153.409L267.711 158.975C269.085 160.154 270.68 161.282 272.325 162.368L270.332 162.486L274.03 167.5C271.187 164.776 269.949 163.309 268.864 162.002C268.363 161.731 268.254 161.587 268.076 161.349ZM273.48 158.711C273.404 158.584 271.564 156.93 267.534 153.291L269.765 154.699L273.158 156.871C273.03 155.961 272.857 155.058 272.641 154.164L276.755 159.704C277.129 160.093 277.442 160.476 277.663 160.858L279.071 163.207H279.054L280.038 164.837L281.404 167.118C280.437 165.608 279.784 164.768 277.817 162.767L274.364 161.79L273.466 158.703M257.094 143L253.496 136.994L253.996 137.749L252.715 135.06L256.727 140.625C258.101 141.805 259.696 142.933 261.343 144.018L259.349 144.137L263.047 149.151C260.205 146.436 258.966 144.96 257.881 143.653C257.38 143.382 257.271 143.238 257.094 143ZM262.506 140.37C262.429 140.244 260.589 138.581 256.559 134.942L258.79 136.35L262.183 138.522C262.055 137.612 261.882 136.708 261.666 135.815L265.781 141.355C266.154 141.744 266.468 142.127 266.689 142.509L268.097 144.866H268.079L269.064 146.495L270.42 148.77C269.453 147.258 268.8 146.419 266.833 144.417L263.38 143.442L262.49 140.362M245.957 124.372L242.359 118.366L242.86 119.121L241.579 116.423L245.591 121.989C246.965 123.168 248.56 124.296 250.207 125.382L248.213 125.501L251.911 130.514C249.069 127.792 247.83 126.323 246.745 125.018C246.244 124.746 246.134 124.603 245.957 124.365M251.369 121.744C251.292 121.616 249.452 119.955 245.422 116.315L247.653 117.722L251.046 119.894C250.885 118.74 250.698 117.917 250.529 117.188L254.644 122.727C255.017 123.117 255.33 123.5 255.552 123.881L256.959 126.24H256.942L257.927 127.869L259.283 130.142C258.316 128.632 257.663 127.793 255.695 125.79L252.243 124.815L251.353 121.736M234.997 106.059L231.399 100.053L231.9 100.808L230.619 98.1184L234.631 103.684C236.005 104.863 237.6 105.991 239.247 107.077L237.261 107.204L240.951 112.209C238.118 109.495 236.88 108.018 235.785 106.721C235.284 106.441 235.174 106.306 234.997 106.068M240.409 103.43C240.332 103.302 238.492 101.649 234.462 98.0096L236.693 99.4174L240.086 101.589C239.925 100.436 239.738 99.6135 239.569 98.8841L243.684 104.424C244.057 104.813 244.37 105.196 244.6 105.578L246.008 107.927H245.99L246.975 109.556L248.341 111.839C247.374 110.329 246.721 109.48 244.753 107.478L241.309 106.511L240.41 103.423M276.116 174.776C278.152 178.177 282.912 181.163 287.229 183.87C290.766 186.091 293.982 188.11 295.135 190.037L240.029 97.9344C238.875 96.0081 235.668 93.9986 232.122 91.7674C227.803 89.0607 223.044 86.0665 221.009 82.6733L276.116 174.776Z"
                      fill="url(#paint16_linear_4238_26355)"/>
                <path d="M284.354 176.874L285.253 179.962L288.697 180.929C290.759 183.025 291.378 183.864 292.285 185.289L290.919 183.007L289.934 181.387H289.951L288.544 179.03C288.285 178.611 287.977 178.223 287.628 177.876L283.513 172.336C283.776 173.405 283.904 174.236 284.03 175.042L280.637 172.871L278.406 171.462L284.353 176.883M268.073 161.351C268.26 161.648 268.514 161.791 268.862 162.004C270.838 164.404 272.459 165.982 274.028 167.5L270.329 162.487L272.322 162.368C270.677 161.282 269.082 160.154 267.707 158.975L263.694 153.409L264.976 156.099L264.475 155.344L268.073 161.351ZM273.477 158.713L274.376 161.799L277.828 162.776C279.89 164.87 280.5 165.711 281.416 167.127L280.05 164.845L279.065 163.225H279.083L277.675 160.867C277.416 160.45 277.112 160.063 276.767 159.713L272.653 154.174C272.916 155.243 273.042 156.073 273.17 156.879L269.777 154.708L267.545 153.299L273.492 158.721M257.085 143.002C257.272 143.298 257.526 143.442 257.874 143.654C259.85 146.055 261.471 147.633 263.04 149.151L259.342 144.138L261.335 144.018C259.69 142.933 258.095 141.805 256.72 140.625L252.708 135.061L253.989 137.749L253.488 136.994L257.085 143.002ZM262.497 140.371L263.388 143.45L266.84 144.427C268.902 146.521 269.512 147.362 270.428 148.778L269.071 146.505L268.087 144.885H268.104L266.696 142.518C266.467 142.135 266.162 141.754 265.788 141.364L261.674 135.824C261.937 136.894 262.065 137.725 262.191 138.53L258.798 136.359L256.567 134.95L262.513 140.379M245.945 124.372C246.132 124.668 246.386 124.812 246.734 125.024C248.71 127.425 250.331 129.003 251.9 130.521L248.201 125.508L250.194 125.39C248.549 124.304 246.954 123.176 245.579 121.997L241.566 116.431L242.848 119.129L242.347 118.374L245.944 124.38M251.356 121.741L252.247 124.82L255.699 125.795C257.761 127.891 258.371 128.731 259.287 130.148L257.93 127.875L256.946 126.255H256.97L255.562 123.888C255.332 123.506 255.027 123.125 254.654 122.734L250.539 117.194C250.803 118.264 250.93 119.095 251.057 119.901L247.663 117.729L245.432 116.321L251.379 121.751M234.99 106.057C235.176 106.354 235.43 106.507 235.778 106.71C237.746 109.111 239.375 110.681 240.944 112.199L237.254 107.194L239.24 107.066C237.594 105.981 236 104.852 234.624 103.673L230.612 98.1077L231.893 100.797L231.392 100.042L234.99 106.048M240.402 103.427L241.3 106.515L244.745 107.482C246.806 109.578 247.426 110.418 248.332 111.843L246.966 109.561L245.982 107.941H245.999L244.591 105.582C244.362 105.2 244.057 104.819 243.683 104.428L239.569 98.8881C239.832 99.9574 239.96 100.789 240.086 101.594L236.693 99.4214L234.462 98.0137L240.408 103.434"
                      fill="url(#paint17_linear_4238_26355)"/>
                <path d="M464.521 162.089C411.279 179.182 359.219 203.757 331.589 224.66C326.49 228.521 322.216 232.252 318.923 235.791C317.295 237.546 316.531 239.243 316.59 240.982C316.624 242.076 316.989 243.128 317.6 244.138L308.608 229.114C307.997 228.096 307.633 227.044 307.598 225.958C307.539 224.219 308.302 222.523 309.931 220.766C313.222 217.229 317.49 213.496 322.597 209.637C350.235 188.734 402.289 164.159 455.529 147.064L464.521 162.089Z"
                      fill="url(#paint18_linear_4238_26355)"/>
                <path d="M447.477 133.593C394.236 150.686 342.176 175.263 314.546 196.165C309.447 200.025 305.172 203.758 301.88 207.295C300.25 209.051 299.487 210.747 299.547 212.487C299.58 213.582 299.946 214.633 300.555 215.642L291.895 201.17C291.284 200.153 290.92 199.1 290.885 198.014C290.826 196.275 291.589 194.578 293.218 192.823C296.509 189.286 300.777 185.553 305.884 181.693C333.522 160.791 385.576 136.214 438.816 119.121L447.477 133.593Z"
                      fill="url(#paint19_linear_4238_26355)"/>
                <path d="M430.757 105.657C377.516 122.75 325.456 147.327 297.826 168.23C292.727 172.089 288.452 175.822 285.16 179.359C283.531 181.114 282.768 182.811 282.827 184.55C282.86 185.645 283.226 186.697 283.835 187.706L276.098 174.778C275.487 173.76 275.123 172.708 275.088 171.623C275.029 169.883 275.792 168.187 277.421 166.431C280.712 162.893 284.98 159.161 290.087 155.3C317.725 134.398 369.779 109.822 423.018 92.729L430.754 105.657H430.757Z"
                      fill="url(#paint20_linear_4238_26355)"/>
                <path d="M472.477 175.38C419.237 192.473 367.176 217.049 339.546 237.951C334.448 241.812 330.172 245.544 326.88 249.082C325.25 250.837 324.487 252.534 324.547 254.274C324.58 255.367 324.946 256.42 325.555 257.429L317.598 244.136C316.987 243.118 316.623 242.066 316.588 240.98C316.529 239.241 317.292 237.544 318.921 235.789C322.212 232.25 326.48 228.519 331.587 224.658C359.225 203.755 411.278 179.18 464.518 162.087L472.477 175.38ZM455.527 147.054C402.286 164.147 350.226 188.724 322.596 209.627C317.497 213.486 313.223 217.219 309.93 220.756C308.302 222.512 307.538 224.21 307.597 225.948C307.631 227.043 307.996 228.094 308.607 229.103L300.549 215.641C299.938 214.623 299.574 213.571 299.539 212.485C299.48 210.746 300.243 209.049 301.872 207.294C305.163 203.755 309.431 200.024 314.538 196.163C342.176 175.26 394.229 150.685 447.469 133.592L455.527 147.054ZM438.816 119.119C385.575 136.212 333.514 160.789 305.884 181.691C300.787 185.551 296.511 189.284 293.219 192.821C291.589 194.577 290.826 196.273 290.885 198.013C290.919 199.108 291.284 200.159 291.894 201.168L283.836 187.706C283.225 186.688 282.86 185.636 282.826 184.55C282.766 182.811 283.529 181.114 285.159 179.359C288.45 175.82 292.717 172.089 297.825 168.228C325.463 147.325 377.515 122.75 430.756 105.657L438.816 119.119Z"
                      fill="url(#paint21_linear_4238_26355)"/>
                <path d="M273.207 164.471C273.369 161.315 273.75 160.679 275.336 158.007L280.444 156.785L276.864 153.757L279.087 147.785L274.286 151.984L270.282 149.413L271.121 155.131L270.842 155.428C269.34 157.048 268.569 158.617 268.509 160.212C269.238 159.695 270.528 159.288 271.698 158.957L273.199 164.471M297.443 144.052L299.971 139.267L305.12 139.183L301.567 135.806L303.578 130.946L298.988 133.745L294.916 130.692L295.595 135.893L291.446 138.624L296.172 139.218L297.428 144.045M324.388 128.283L327.95 123.447L334.015 123.337L330.198 119.97L333.031 115.1L327.381 117.917L322.91 114.872L323.14 120.089L317.846 122.881L323.445 123.423L324.378 128.267M358.174 112.054L362.485 107.328H369.22L365.199 103.935L368.61 99.185L362.223 101.841L357.464 98.7444L357.361 103.919L351.228 106.616L357.472 107.235L358.174 112.054ZM394.525 97.4038L399.241 92.924L406.308 93.1872L402.194 89.7095L405.884 85.2135L399.123 87.5549L394.228 84.3484L393.939 89.4126L387.33 91.848L393.939 92.662L394.515 97.4038M266.021 157.923C264.714 155.701 264.273 154.403 263.467 152.053V152.188C263.501 153.283 263.866 154.335 264.476 155.345L268.073 161.351C268.023 161.24 267.986 161.123 267.963 161.003L266.021 157.923ZM281.113 143.662C281.18 143.035 281.07 142.153 281.341 141.584C281.825 140.576 282.876 139.463 283.529 138.557L288.119 138.531L284.718 135.146L286.22 130.336L282.292 133.068L278.482 129.972L279.432 135.146L278.473 135.867L274.512 138.972L280.187 138.447L281.121 143.654M305.062 127.79L308.133 122.972L313.791 122.854L310.093 119.486L312.536 114.609L307.387 117.425L303.104 114.38L303.528 119.606L298.769 122.388L303.961 122.948L305.055 127.784M336.206 111.394L340.185 106.601L346.641 106.534L342.713 103.149L345.868 98.3307L339.803 101.079L335.162 98.0163L335.188 103.226L329.41 105.991L335.391 106.552L336.197 111.387M370.976 96.1129L375.515 91.4974L382.454 91.6156L378.391 88.1795L381.97 83.5398L375.353 86.0598L370.501 82.9205L370.297 88.0438L363.867 90.631L370.34 91.3268L370.968 96.1116M262.34 146.307C262.509 143.16 262.883 142.523 264.469 139.852L269.576 138.621L265.997 135.593L268.22 129.621L263.418 133.82L259.413 131.251L260.253 136.969L259.973 137.266C258.472 138.886 257.701 140.455 257.64 142.051C258.369 141.532 259.659 141.125 260.83 140.795L262.332 146.309M286.577 125.889L289.113 121.114L294.254 121.021L290.7 117.644L292.711 112.783L288.122 115.582L284.05 112.529L284.729 117.729L280.581 120.46L285.306 121.054L286.57 125.88M313.519 110.119L317.091 105.293L323.156 105.175L319.338 101.807L322.171 96.9377L316.522 99.7546L312.051 96.7093L312.281 101.927L306.987 104.718L312.594 105.261L313.527 110.105M347.299 93.8831L351.618 89.1655H358.345L354.324 85.7643L357.735 81.0144L351.348 83.6701L346.588 80.5738L346.486 85.7481L340.353 88.4455L346.596 89.0647L347.299 93.8831ZM383.658 79.2413L388.383 74.7708L395.441 75.0247L391.326 71.547L395.016 67.051L388.256 69.3923L383.361 66.1859L383.072 71.2501L376.463 73.6855L383.072 74.4995L383.648 79.2413M255.043 139.565C253.736 137.344 253.296 136.045 252.49 133.695V133.831C252.523 134.926 252.889 135.978 253.499 136.986L257.096 142.993C257.045 142.899 257.011 142.756 256.986 142.646L255.043 139.565ZM270.127 125.304C270.194 124.676 270.086 123.794 270.357 123.226C270.841 122.217 271.892 121.105 272.545 120.198L277.134 120.172L273.733 116.787L275.234 111.977L271.307 114.709L267.498 111.613L268.448 116.787L267.489 117.509L263.528 120.613L269.203 120.087L270.137 125.296M294.077 109.432L297.147 104.613L302.805 104.495L299.106 101.127L301.549 96.2499L296.401 99.0668L292.117 96.0216L292.541 101.247L287.782 104.029L292.974 104.589L294.069 109.425M325.219 93.0355L329.198 88.2426L335.654 88.1755L331.726 84.7904L334.882 79.972L328.817 82.7204L324.177 79.6577L324.202 84.867L318.425 87.6328L324.405 88.1929L325.211 93.0287M359.998 77.7556L364.537 73.1414L371.477 73.2596L367.413 69.8235L370.993 65.1825L364.376 67.7025L359.524 64.5632L359.32 69.6865L352.89 72.2737L359.363 72.9695L359.99 77.7543M251.355 127.951C251.524 124.804 251.898 124.167 253.484 121.488L258.591 120.257L255.011 117.237L257.225 111.257L252.424 115.456L248.42 112.885L249.259 118.602L248.98 118.899C247.478 120.519 246.707 122.088 246.647 123.684C247.376 123.167 248.674 122.768 249.845 122.437L251.337 127.943M275.59 107.54L278.126 102.764L283.267 102.671L279.721 99.3032L281.722 94.4338L277.132 97.2332L273.061 94.1799L273.739 99.3798L269.591 102.112L274.325 102.714L275.581 107.532M302.534 91.7701L306.106 86.9437L312.171 86.8255L308.361 83.4659L311.194 78.5884L305.544 81.4053L301.074 78.3601L301.302 83.5774L296.008 86.3687L301.615 86.9289L302.549 91.7647M336.322 75.5338L340.639 70.8095H347.367L343.355 67.4164L346.756 62.6571L340.369 65.3128L335.61 62.2165L335.508 67.3908L329.374 70.0881L335.626 70.7155L336.322 75.5258M372.672 60.884L377.388 56.4135L384.446 56.6674L380.34 53.1977L384.03 48.6937L377.269 51.035L372.374 47.8286L372.085 52.8928L365.476 55.3281L372.093 56.1516L372.661 60.8853M243.896 120.946C242.59 118.723 242.148 117.425 241.342 115.076V115.212C241.376 116.306 241.741 117.358 242.352 118.367L245.949 124.373C245.899 124.262 245.862 124.145 245.839 124.025L243.897 120.937M258.981 106.683C259.048 106.056 258.938 105.173 259.21 104.605C259.694 103.595 260.746 102.484 261.399 101.576L265.989 101.551L262.587 98.1655L264.089 93.3552L260.161 96.086L256.352 92.9898L257.302 98.1641L256.342 98.8855L252.381 101.99L258.056 101.463L258.99 106.672M282.93 90.8083L286.001 85.9899L291.659 85.8704L287.959 82.5028L290.403 77.6253L285.254 80.4422L280.97 77.3969L281.395 82.6223L276.635 85.4043L281.827 85.9644L282.922 90.8002M314.079 74.4135L318.058 69.6207L324.514 69.5535L320.586 66.1684L323.742 61.3501L317.677 64.0984L313.037 61.0358L313.063 66.2437L307.285 69.0095L313.265 69.5696L314.071 74.4055M348.852 59.135L353.391 54.5208L360.33 54.639L356.267 51.2029L359.846 46.5619L353.229 49.0832L348.378 45.944L348.173 51.0672L341.743 53.6544L348.216 54.3502L348.844 59.135M240.216 109.329C240.386 106.182 240.759 105.545 242.345 102.866L247.453 101.635L243.873 98.6155L246.086 92.6352L241.284 96.8343L237.28 94.2646L238.119 99.9816L237.839 100.278C236.337 101.898 235.566 103.469 235.505 105.063C236.235 104.546 237.532 104.147 238.704 103.817L240.198 109.323M264.452 88.9116L266.988 84.1349L272.129 84.0422L268.582 80.6746L270.584 75.8052L265.995 78.6046L261.924 75.5513L262.602 80.7511L258.454 83.4834L263.188 84.0852L264.444 88.9035M291.395 73.1414L294.967 68.315L301.032 68.1968L297.224 64.8372L300.057 59.9598L294.407 62.7767L289.937 59.7314L290.166 64.9487L284.872 67.7401L290.479 68.2908L291.413 73.1267M325.175 56.9038L329.492 52.1782H336.219L332.207 48.785L335.608 44.0258L329.221 46.6814L324.462 43.5852L324.36 48.7595L318.226 51.4568L324.478 52.0841L325.174 56.8944M361.534 42.262L366.25 37.7916L373.308 38.0455L369.201 34.5758L372.891 30.0717L366.13 32.4131L361.235 29.2067L360.947 34.2708L354.338 36.7062L360.955 37.5296L361.523 42.2634M232.934 102.639C231.619 100.415 231.179 99.1178 230.373 96.7604V96.8961C230.406 97.9908 230.772 99.0426 231.383 100.051L234.98 106.057C234.929 105.955 234.896 105.819 234.87 105.709L232.928 102.639M248.021 88.3689C248.088 87.7496 247.978 86.859 248.251 86.2989C248.734 85.2887 249.786 84.1778 250.448 83.2698L255.038 83.2362L251.645 79.8605L253.137 75.0422L249.21 77.7731L245.4 74.6768L246.35 79.8511L245.391 80.5725L241.429 83.6768L247.105 83.1596L248.029 88.3595M271.969 72.4967L275.049 67.6864L280.699 67.5587L277.009 64.1992L279.452 59.3123L274.303 62.1292L270.02 59.084L270.444 64.3093L265.685 67.0913L270.885 67.6595L271.98 72.4859M303.11 56.0898L307.089 51.305L313.537 51.2284L309.617 47.8528L312.764 43.0264L306.699 45.7747L302.06 42.712L302.085 47.9213L296.308 50.6871L302.298 51.2553L303.095 56.0817M337.892 40.8113L342.431 36.2052L349.362 36.3153L345.307 32.8886L348.887 28.2395L342.27 30.7595L337.418 27.6202L337.214 32.7435L330.783 35.3307L337.265 36.0346L337.884 40.8113M229.256 91.0232C229.418 87.8678 229.799 87.2311 231.386 84.5593L236.493 83.3383L232.913 80.3092L235.136 74.337L230.334 78.5361L226.329 75.965L227.169 81.6834L226.89 81.9802C225.389 83.6002 224.617 85.1705 224.558 86.765C225.287 86.2478 226.577 85.8408 227.747 85.509L229.248 91.0232M253.492 70.604L256.02 65.8205L261.169 65.7359L257.615 62.3589L259.625 57.4976L255.037 60.297L250.965 57.2437L251.644 62.4435L247.496 65.1744L252.221 65.7681L253.477 70.5946M280.437 54.8325L283.999 49.9967L290.064 49.8865L286.247 46.5189L289.08 41.6495L283.43 44.4664L278.959 41.4211L279.189 46.6384L273.895 49.4298L279.502 49.9725L280.436 54.8164M314.215 38.5975L318.524 33.8719H325.26L321.239 30.4787L324.65 25.7289L318.262 28.3846L313.503 25.2883L313.401 30.4626L307.268 33.1599L313.511 33.7792L314.215 38.5975ZM350.574 23.9464L355.29 19.4678L362.357 19.7311L358.243 16.2534L361.933 11.7561L355.172 14.0974L350.277 10.891L349.988 15.9552L343.379 18.3905L349.988 19.2046L350.564 23.9464M423.02 92.7278C369.779 109.821 317.718 134.396 290.088 155.299C284.989 159.159 280.715 162.892 277.423 166.43C275.793 168.185 275.03 169.882 275.089 171.622C275.123 172.715 275.488 173.767 276.098 174.777L220.991 82.6747C220.381 81.6565 220.016 80.6047 219.982 79.5193C219.923 77.7798 220.686 76.0832 222.316 74.3276C225.607 70.7907 229.873 67.0577 234.98 63.1971C262.62 42.2956 314.673 17.7202 367.913 0.626953L423.02 92.7278Z"
                      fill="url(#paint22_linear_4238_26355)"/>
                <path d="M270.281 149.413L274.285 151.984L279.086 147.785L276.863 153.757L280.443 156.785L275.335 158.008C273.741 160.679 273.409 161.239 273.206 164.471L271.704 158.957C269.694 159.508 268.964 159.899 268.514 160.213C268.573 158.617 269.346 157.04 270.847 155.428L271.127 155.132L270.287 149.413M294.924 130.7L298.996 133.753L303.586 130.954L301.575 135.815L305.129 139.191L299.981 139.277L297.453 144.06L296.197 139.234L291.471 138.64L295.619 135.908L294.941 130.708M322.919 114.879L327.389 117.924L333.039 115.107L330.206 119.976L334.023 123.344L327.959 123.454L324.396 128.29L323.463 123.446L317.864 122.903L323.158 120.112L322.928 114.895M357.454 98.7432L362.214 101.839L368.601 99.1838L365.19 103.935L369.211 107.336H362.476L358.166 112.062L357.462 107.243L351.219 106.624L357.352 103.927L357.454 98.7526M394.237 84.3486L399.132 87.555L405.893 85.2137L402.203 89.7096L406.318 93.1874L399.251 92.9241L394.534 97.4026L393.958 92.6608L387.349 91.8468L393.958 89.4128L394.247 84.3486M266.024 157.924L267.966 161.003C267.984 161.113 268.033 161.249 268.076 161.351L264.479 155.345C263.868 154.327 263.504 153.275 263.469 152.188V152.053C264.436 154.878 264.605 155.387 266.022 157.924H266.024ZM278.477 129.98L282.287 133.076L286.215 130.345L284.713 135.154L288.114 138.539L283.524 138.565C281.497 140.737 281.411 140.822 281.106 143.672L280.173 138.463C279.732 138.547 277.839 138.723 274.497 138.989L278.459 135.884L279.418 135.164L278.468 129.988M303.102 114.387L307.386 117.432L312.535 114.615L310.092 119.493L313.79 122.861L308.132 122.979L305.061 127.797L303.966 122.961L298.774 122.401L303.534 119.619L303.109 114.394M335.16 98.0138L339.8 101.076L345.864 98.3281L342.709 103.146L346.637 106.532L340.181 106.6L336.202 111.393L335.396 106.557L329.416 105.997L335.193 103.231L335.168 98.0219M370.51 82.9139L375.362 86.0532L381.979 83.5332L378.399 88.1729L382.462 91.609L375.523 91.4908L370.984 96.105L370.357 91.3202L363.883 90.6244L370.314 88.0372L370.518 82.9139M259.413 131.251L263.418 133.822L268.22 129.623L265.997 135.595L269.577 138.623L264.47 139.853C262.866 142.525 262.535 143.085 262.34 146.309L260.839 140.795C258.828 141.345 258.098 141.736 257.648 142.051C257.707 140.455 258.48 138.878 259.982 137.266L260.262 136.969L259.423 131.251M284.057 112.529L288.129 115.583L292.719 112.783L290.708 117.645L294.262 121.022L289.121 121.114L286.585 125.891L285.321 121.065L280.596 120.471L284.744 117.74L284.065 112.54M312.043 96.7081L316.514 99.7533L322.164 96.9365L319.331 101.806L323.148 105.173L317.083 105.292L313.511 110.118L312.578 105.274L306.971 104.732L312.265 101.94L312.037 96.7229M346.587 80.5807L351.346 83.6769L357.734 81.0213L354.323 85.7725L358.344 89.1736H351.618L347.3 93.8993L346.597 89.081L340.353 88.4617L346.486 85.7644L346.589 80.5901M383.372 66.186L388.267 69.3925L395.027 67.0511L391.337 71.5471L395.452 75.0248L388.394 74.771L383.669 79.2414L383.092 74.4996L376.483 73.6856L383.092 71.2516L383.381 66.1874M255.048 139.567L256.99 142.647C257.014 142.767 257.051 142.883 257.1 142.995L253.503 136.988C252.892 135.971 252.528 134.919 252.494 133.832V133.697C253.461 136.522 253.631 137.031 255.048 139.567ZM267.492 111.624L271.302 114.72L275.229 111.989L273.727 116.8L277.129 120.185L272.539 120.21C270.502 122.382 270.426 122.467 270.121 125.317L269.187 120.109C268.747 120.194 266.854 120.37 263.512 120.635L267.473 117.53L268.432 116.809L267.483 111.635M292.118 96.0338L296.402 99.079L301.551 96.2622L299.107 101.14L302.807 104.507L297.149 104.625L294.078 109.444L292.983 104.608L287.792 104.048L292.551 101.266L292.126 96.0405M324.183 79.6565L328.824 82.7192L334.889 79.9708L331.733 84.7892L335.661 88.1742L329.205 88.2414L325.226 93.0342L324.42 88.1984L318.44 87.6383L324.217 84.8725L324.192 79.6632M359.524 64.5647L364.376 67.7039L370.993 65.1839L367.413 69.8237L371.477 73.2598L364.537 73.1416L359.999 77.7557L359.371 72.971L352.898 72.2751L359.328 69.6893L359.532 64.5647M248.428 112.893L252.432 115.463L257.233 111.264L255.02 117.244L258.599 120.264L253.492 121.494C251.898 124.166 251.558 124.726 251.363 127.958L249.869 122.452C247.859 123.003 247.121 123.394 246.671 123.699C246.73 122.104 247.503 120.526 249.004 118.914L249.284 118.617L248.444 112.9M273.072 94.1801L277.143 97.2334L281.733 94.4339L279.732 99.3034L283.278 102.671L278.137 102.765L275.601 107.54L274.345 102.722L269.612 102.12L273.76 99.388L273.081 94.1881M301.066 78.3589L305.536 81.4041L311.186 78.5872L308.353 83.4647L312.162 86.8242L306.097 86.9425L302.525 91.7689L301.591 86.9331L295.984 86.3729L301.278 83.5816L301.05 78.3643M335.6 62.2233L340.36 65.3196L346.747 62.6639L343.346 67.4232L347.358 70.8163H340.631L336.314 75.542L335.618 70.7317L329.366 70.1044L335.5 67.4071L335.602 62.2328M372.384 47.8274L377.279 51.0338L384.039 48.6925L380.349 53.1965L384.456 56.6662L377.398 56.4123L372.682 60.8828L372.114 56.149L365.497 55.3256L372.106 52.8916L372.394 47.8274M243.9 120.944L245.842 124.032C245.86 124.142 245.909 124.278 245.952 124.38L242.355 118.374C241.744 117.356 241.38 116.304 241.345 115.219V115.083C242.312 117.908 242.481 118.417 243.899 120.953M256.352 93.0007L260.162 96.0969L264.089 93.3647L262.588 98.175L265.989 101.56L261.399 101.586C259.372 103.758 259.286 103.842 258.981 106.693L258.047 101.485C257.607 101.569 255.714 101.745 252.372 102.011L256.333 98.9071L257.292 98.1857L256.343 93.0114M280.977 77.4078L285.261 80.4531L290.41 77.6362L287.966 82.5136L291.666 85.8813L286.008 85.9995L282.937 90.8178L281.842 85.982L276.65 85.4219L281.41 82.6399L280.985 77.4146M313.036 61.0359L317.676 64.0986L323.741 61.3502L320.585 66.1686L324.513 69.5536L318.057 69.6208L314.078 74.4137L313.272 69.5778L307.292 69.0177L313.07 66.2519L313.044 61.0426M348.386 45.936L353.238 49.0753L359.855 46.5553L356.275 51.195L360.338 54.6311L353.399 54.5129L348.86 59.1284L348.233 54.3436L341.759 53.6478L348.19 51.0607L348.394 45.936M237.29 94.2728L241.294 96.8425L246.096 92.6433L243.882 98.6236L247.462 101.643L242.355 102.874C240.761 105.546 240.421 106.106 240.226 109.338L238.732 103.832C236.721 104.382 235.984 104.773 235.534 105.078C235.593 103.484 236.365 101.905 237.867 100.293L238.147 99.9965L237.307 94.2781M261.924 75.5595L265.996 78.6128L270.584 75.8134L268.583 80.6828L272.129 84.0504L266.988 84.1444L264.452 88.9211L263.196 84.1028L258.462 83.501L262.61 80.7701L261.932 75.5702M289.918 59.7329L294.389 62.7781L300.038 59.9613L297.205 64.8387L301.015 68.1983L294.95 68.3165L291.378 73.1429L290.445 68.3071L284.838 67.7563L290.132 64.965L289.903 59.7477M324.462 43.6028L329.221 46.699L335.609 44.0434L332.207 48.8026L336.22 52.1957H329.493L325.174 56.9214L324.478 52.1111L318.226 51.4838L324.36 48.7865L324.462 43.6122M361.246 29.2068L366.141 32.4132L372.902 30.0719L369.212 34.5759L373.319 38.0456L366.261 37.7917L361.545 42.2622L360.976 37.5284L354.359 36.705L360.968 34.271L361.257 29.2068M232.94 102.637L234.882 105.708C234.9 105.818 234.95 105.954 234.993 106.056L231.395 100.05C230.784 99.032 230.42 97.9802 230.386 96.8948V96.7592C231.354 99.5841 231.532 100.101 232.948 102.637M245.391 74.6769L249.2 77.7732L253.128 75.0423L251.636 79.8607L255.029 83.2363L250.44 83.2699C248.404 85.4326 248.327 85.5172 248.022 88.369L247.098 83.1692C246.658 83.2538 244.765 83.4271 241.423 83.6863L245.384 80.582L246.343 79.8607L245.394 74.6863M270.009 59.0935L274.293 62.1387L279.442 59.3219L276.998 64.2087L280.688 67.5683L275.039 67.6959L271.96 72.5062L270.865 67.6798L265.665 67.1116L270.424 64.3296L270 59.1042M302.076 42.7122L306.716 45.7748L312.781 43.0265L309.633 47.8529L313.553 51.2299L307.105 51.3065L303.127 56.0913L302.329 51.2648L296.339 50.6966L302.116 47.9308L302.091 42.7229M337.425 27.6204L342.277 30.7596L348.894 28.2396L345.314 32.8887L349.369 36.3154L342.438 36.2053L337.899 40.8114L337.28 36.0347L330.798 35.3308L337.229 32.7436L337.433 27.6204M226.33 75.9571L230.333 78.5281L235.135 74.329L232.912 80.3013L236.492 83.3304L231.384 84.5514C229.79 87.2232 229.458 87.7833 229.255 91.0153L227.754 85.5011C225.743 86.0519 225.013 86.4427 224.563 86.7571C224.622 85.1626 225.395 83.5842 226.897 81.9723L227.176 81.6754L226.336 75.9571M250.972 57.2438L255.044 60.2971L259.632 57.4977L257.622 62.359L261.176 65.736L256.027 65.8207L253.499 70.6054L252.235 65.779L247.509 65.1853L251.657 62.4544L250.979 57.2545M278.968 41.4226L283.438 44.4678L289.088 41.651L286.255 46.5204L290.073 49.888L284.008 49.9981L280.444 54.8339L279.51 49.9901L273.903 49.4474L279.197 46.656L278.969 41.4387M313.502 25.2965L318.261 28.3928L324.649 25.7371L321.238 30.4883L325.259 33.8895H318.523L314.214 38.6151L313.51 33.7968L307.267 33.1775L313.4 30.4802L313.502 25.3059M350.285 10.8911L355.18 14.0975L361.941 11.7562L358.251 16.2535L362.365 19.7313L355.298 19.468L350.582 23.9478L350.006 19.206L343.397 18.392L350.006 15.958L350.295 10.8938"
                      fill="url(#paint23_linear_4238_26355)"/>
            </g>
        </g>
    </g>
    <defs>
        <linearGradient id="paint0_linear_4238_26355" x1="-21951.2" y1="11838.4" x2="-26310.3" y2="19751"
                        gradientUnits="userSpaceOnUse">
            <stop stop-color="#81879F"/>
            <stop offset="0.26" stop-color="#B3B6C5"/>
            <stop offset="0.42" stop-color="#B8BBC9"/>
            <stop offset="0.62" stop-color="#C8CBD5"/>
            <stop offset="0.85" stop-color="#E2E4EA"/>
            <stop offset="1" stop-color="#F8FAFB"/>
        </linearGradient>
        <linearGradient id="paint1_linear_4238_26355" x1="-25499.9" y1="10207.6" x2="-29721.6" y2="18312.6"
                        gradientUnits="userSpaceOnUse">
            <stop stop-color="#81879F"/>
            <stop offset="0.26" stop-color="#B3B6C5"/>
            <stop offset="0.42" stop-color="#B8BBC9"/>
            <stop offset="0.62" stop-color="#C8CBD5"/>
            <stop offset="0.85" stop-color="#E2E4EA"/>
            <stop offset="1" stop-color="#F8FAFB"/>
        </linearGradient>
        <linearGradient id="paint2_linear_4238_26355" x1="-30733.9" y1="45044.8" x2="-52509.6" y2="64616"
                        gradientUnits="userSpaceOnUse">
            <stop stop-color="#820000"/>
            <stop offset="0.25" stop-color="#840001"/>
            <stop offset="0.42" stop-color="#8D0304"/>
            <stop offset="0.57" stop-color="#9D070A"/>
            <stop offset="0.71" stop-color="#B30D12"/>
            <stop offset="0.84" stop-color="#CF151C"/>
            <stop offset="0.96" stop-color="#F11E28"/>
            <stop offset="1" stop-color="#FF222E"/>
        </linearGradient>
        <linearGradient id="paint3_linear_4238_26355" x1="-4902.5" y1="5131.22" x2="-5090.13" y2="5323.61"
                        gradientUnits="userSpaceOnUse">
            <stop stop-color="#81879F"/>
            <stop offset="0.26" stop-color="#B3B6C5"/>
            <stop offset="0.42" stop-color="#B8BBC9"/>
            <stop offset="0.62" stop-color="#C8CBD5"/>
            <stop offset="0.85" stop-color="#E2E4EA"/>
            <stop offset="1" stop-color="#F8FAFB"/>
        </linearGradient>
        <linearGradient id="paint4_linear_4238_26355" x1="-5295.45" y1="4550.09" x2="-5482.44" y2="4742.07"
                        gradientUnits="userSpaceOnUse">
            <stop stop-color="#81879F"/>
            <stop offset="0.26" stop-color="#B3B6C5"/>
            <stop offset="0.42" stop-color="#B8BBC9"/>
            <stop offset="0.62" stop-color="#C8CBD5"/>
            <stop offset="0.85" stop-color="#E2E4EA"/>
            <stop offset="1" stop-color="#F8FAFB"/>
        </linearGradient>
        <linearGradient id="paint5_linear_4238_26355" x1="-16272.1" y1="38110.5" x2="-20501.6" y2="40623.1"
                        gradientUnits="userSpaceOnUse">
            <stop stop-color="#820000"/>
            <stop offset="0.25" stop-color="#840001"/>
            <stop offset="0.42" stop-color="#8D0304"/>
            <stop offset="0.57" stop-color="#9D070A"/>
            <stop offset="0.71" stop-color="#B30D12"/>
            <stop offset="0.84" stop-color="#CF151C"/>
            <stop offset="0.96" stop-color="#F11E28"/>
            <stop offset="1" stop-color="#FF222E"/>
        </linearGradient>
        <linearGradient id="paint6_linear_4238_26355" x1="-9471.63" y1="9537.64" x2="-13762.3" y2="17263.7"
                        gradientUnits="userSpaceOnUse">
            <stop stop-color="#81879F"/>
            <stop offset="0.26" stop-color="#B3B6C5"/>
            <stop offset="0.42" stop-color="#B8BBC9"/>
            <stop offset="0.62" stop-color="#C8CBD5"/>
            <stop offset="0.85" stop-color="#E2E4EA"/>
            <stop offset="1" stop-color="#F8FAFB"/>
        </linearGradient>
        <linearGradient id="paint7_linear_4238_26355" x1="-11105.7" y1="8275.07" x2="-15440.3" y2="16041.8"
                        gradientUnits="userSpaceOnUse">
            <stop stop-color="#81879F"/>
            <stop offset="0.26" stop-color="#B3B6C5"/>
            <stop offset="0.42" stop-color="#B8BBC9"/>
            <stop offset="0.62" stop-color="#C8CBD5"/>
            <stop offset="0.85" stop-color="#E2E4EA"/>
            <stop offset="1" stop-color="#F8FAFB"/>
        </linearGradient>
        <linearGradient id="paint8_linear_4238_26355" x1="-12702.2" y1="6937.15" x2="-17035.6" y2="14691.8"
                        gradientUnits="userSpaceOnUse">
            <stop stop-color="#81879F"/>
            <stop offset="0.26" stop-color="#B3B6C5"/>
            <stop offset="0.42" stop-color="#B8BBC9"/>
            <stop offset="0.62" stop-color="#C8CBD5"/>
            <stop offset="0.85" stop-color="#E2E4EA"/>
            <stop offset="1" stop-color="#F8FAFB"/>
        </linearGradient>
        <linearGradient id="paint9_linear_4238_26355" x1="-7466.51" y1="11827.1" x2="-12813.6" y2="20739.5"
                        gradientUnits="userSpaceOnUse">
            <stop stop-color="#81879F"/>
            <stop offset="0.26" stop-color="#B3B6C5"/>
            <stop offset="0.42" stop-color="#B8BBC9"/>
            <stop offset="0.62" stop-color="#C8CBD5"/>
            <stop offset="0.85" stop-color="#E2E4EA"/>
            <stop offset="1" stop-color="#F8FAFB"/>
        </linearGradient>
        <linearGradient id="paint10_linear_4238_26355" x1="-12902.7" y1="33055.4" x2="-34508.9" y2="52772.1"
                        gradientUnits="userSpaceOnUse">
            <stop stop-color="#820000"/>
            <stop offset="0.25" stop-color="#840001"/>
            <stop offset="0.42" stop-color="#8D0304"/>
            <stop offset="0.57" stop-color="#9D070A"/>
            <stop offset="0.71" stop-color="#B30D12"/>
            <stop offset="0.84" stop-color="#CF151C"/>
            <stop offset="0.96" stop-color="#F11E28"/>
            <stop offset="1" stop-color="#FF222E"/>
        </linearGradient>
        <linearGradient id="paint11_linear_4238_26355" x1="-2718.87" y1="10368.1" x2="-3337.62" y2="10689.5"
                        gradientUnits="userSpaceOnUse">
            <stop stop-color="#000859"/>
            <stop offset="1" stop-color="#4C58DE"/>
        </linearGradient>
        <linearGradient id="paint12_linear_4238_26355" x1="-2718.87" y1="10370.3" x2="-3337.68" y2="10691.6"
                        gradientUnits="userSpaceOnUse">
            <stop stop-color="#81879F"/>
            <stop offset="0.26" stop-color="#B3B6C5"/>
            <stop offset="0.42" stop-color="#B8BBC9"/>
            <stop offset="0.62" stop-color="#C8CBD5"/>
            <stop offset="0.85" stop-color="#E2E4EA"/>
            <stop offset="1" stop-color="#F8FAFB"/>
        </linearGradient>
        <linearGradient id="paint13_linear_4238_26355" x1="-730.698" y1="5591.93" x2="-854.477" y2="5692.13"
                        gradientUnits="userSpaceOnUse">
            <stop stop-color="#81879F"/>
            <stop offset="0.26" stop-color="#B3B6C5"/>
            <stop offset="0.42" stop-color="#B8BBC9"/>
            <stop offset="0.62" stop-color="#C8CBD5"/>
            <stop offset="0.85" stop-color="#E2E4EA"/>
            <stop offset="1" stop-color="#F8FAFB"/>
        </linearGradient>
        <linearGradient id="paint14_linear_4238_26355" x1="-1036.62" y1="4720.97" x2="-1149.56" y2="4814.16"
                        gradientUnits="userSpaceOnUse">
            <stop stop-color="#81879F"/>
            <stop offset="0.26" stop-color="#B3B6C5"/>
            <stop offset="0.42" stop-color="#B8BBC9"/>
            <stop offset="0.62" stop-color="#C8CBD5"/>
            <stop offset="0.85" stop-color="#E2E4EA"/>
            <stop offset="1" stop-color="#F8FAFB"/>
        </linearGradient>
        <linearGradient id="paint15_linear_4238_26355" x1="-1387.1" y1="16253.2" x2="-2197.25" y2="16756.5"
                        gradientUnits="userSpaceOnUse">
            <stop stop-color="#820000"/>
            <stop offset="0.25" stop-color="#840001"/>
            <stop offset="0.42" stop-color="#8D0304"/>
            <stop offset="0.57" stop-color="#9D070A"/>
            <stop offset="0.71" stop-color="#B30D12"/>
            <stop offset="0.84" stop-color="#CF151C"/>
            <stop offset="0.96" stop-color="#F11E28"/>
            <stop offset="1" stop-color="#FF222E"/>
        </linearGradient>
        <linearGradient id="paint16_linear_4238_26355" x1="-4804.98" y1="12800.7" x2="-6057.03" y2="13552.2"
                        gradientUnits="userSpaceOnUse">
            <stop stop-color="#000859"/>
            <stop offset="1" stop-color="#4C58DE"/>
        </linearGradient>
        <linearGradient id="paint17_linear_4238_26355" x1="-3799.71" y1="10786.2" x2="-4655.08" y2="11311.6"
                        gradientUnits="userSpaceOnUse">
            <stop stop-color="#81879F"/>
            <stop offset="0.26" stop-color="#B3B6C5"/>
            <stop offset="0.42" stop-color="#B8BBC9"/>
            <stop offset="0.62" stop-color="#C8CBD5"/>
            <stop offset="0.85" stop-color="#E2E4EA"/>
            <stop offset="1" stop-color="#F8FAFB"/>
        </linearGradient>
        <linearGradient id="paint18_linear_4238_26355" x1="10707.8" y1="12340" x2="2025.39" y2="24541.1"
                        gradientUnits="userSpaceOnUse">
            <stop stop-color="#81879F"/>
            <stop offset="0.26" stop-color="#B3B6C5"/>
            <stop offset="0.42" stop-color="#B8BBC9"/>
            <stop offset="0.62" stop-color="#C8CBD5"/>
            <stop offset="0.85" stop-color="#E2E4EA"/>
            <stop offset="1" stop-color="#F8FAFB"/>
        </linearGradient>
        <linearGradient id="paint19_linear_4238_26355" x1="8706.93" y1="10229.4" x2="89.9439" y2="22382"
                        gradientUnits="userSpaceOnUse">
            <stop stop-color="#81879F"/>
            <stop offset="0.26" stop-color="#B3B6C5"/>
            <stop offset="0.42" stop-color="#B8BBC9"/>
            <stop offset="0.62" stop-color="#C8CBD5"/>
            <stop offset="0.85" stop-color="#E2E4EA"/>
            <stop offset="1" stop-color="#F8FAFB"/>
        </linearGradient>
        <linearGradient id="paint20_linear_4238_26355" x1="6754.01" y1="8138.31" x2="-1679.9" y2="20155.2"
                        gradientUnits="userSpaceOnUse">
            <stop stop-color="#81879F"/>
            <stop offset="0.26" stop-color="#B3B6C5"/>
            <stop offset="0.42" stop-color="#B8BBC9"/>
            <stop offset="0.62" stop-color="#C8CBD5"/>
            <stop offset="0.85" stop-color="#E2E4EA"/>
            <stop offset="1" stop-color="#F8FAFB"/>
        </linearGradient>
        <linearGradient id="paint21_linear_4238_26355" x1="12263.7" y1="17178.1" x2="-3009.48" y2="33768.6"
                        gradientUnits="userSpaceOnUse">
            <stop stop-color="#820000"/>
            <stop offset="0.25" stop-color="#840001"/>
            <stop offset="0.42" stop-color="#8D0304"/>
            <stop offset="0.57" stop-color="#9D070A"/>
            <stop offset="0.71" stop-color="#B30D12"/>
            <stop offset="0.84" stop-color="#CF151C"/>
            <stop offset="0.96" stop-color="#F11E28"/>
            <stop offset="1" stop-color="#FF222E"/>
        </linearGradient>
        <linearGradient id="paint22_linear_4238_26355" x1="4865.55" y1="7297.34" x2="-13167.6" y2="25573.8"
                        gradientUnits="userSpaceOnUse">
            <stop stop-color="#111B8A"/>
            <stop offset="0.21" stop-color="#121C8D"/>
            <stop offset="0.39" stop-color="#152098"/>
            <stop offset="0.56" stop-color="#1C27AA"/>
            <stop offset="0.73" stop-color="#2431C3"/>
            <stop offset="0.89" stop-color="#2F3EE4"/>
            <stop offset="1" stop-color="#3949FF"/>
        </linearGradient>
        <linearGradient id="paint23_linear_4238_26355" x1="2902.71" y1="7055.31" x2="-11734.2" y2="22113"
                        gradientUnits="userSpaceOnUse">
            <stop stop-color="#81879F"/>
            <stop offset="0.26" stop-color="#B3B6C5"/>
            <stop offset="0.42" stop-color="#B8BBC9"/>
            <stop offset="0.62" stop-color="#C8CBD5"/>
            <stop offset="0.85" stop-color="#E2E4EA"/>
            <stop offset="1" stop-color="#F8FAFB"/>
        </linearGradient>
        <clipPath id="clip0_4238_26355">
            <rect width="360" height="216.269" fill="white" transform="matrix(-1 0 0 1 360 0)"/>
        </clipPath>
    </defs>
</svg>
