<svg width="100%" height="46" viewBox="0 0 257 256" version="1.1" xmlns="http://www.w3.org/2000/svg" xmlns:xlink="http://www.w3.org/1999/xlink" xml:space="preserve" xmlns:serif="http://www.serif.com/" ><circle cx="128" cy="128" r="128" style="fill:#fff;"/><g><path d="M114.01,87.221c-1.616,-0.25 -1.684,-0.28 -0.924,-0.397c1.457,-0.224 4.897,0.082 7.268,0.645c5.533,1.316 10.568,4.685 15.944,10.67l1.428,1.59l2.043,-0.328c8.606,-1.383 17.36,-0.284 24.684,3.098c2.014,0.931 5.19,2.784 5.587,3.26c0.126,0.151 0.359,1.128 0.515,2.17c0.545,3.606 0.272,6.369 -0.83,8.433c-0.6,1.123 -0.634,1.479 -0.231,2.441c0.323,0.767 1.22,1.334 2.109,1.334c1.82,-0.003 3.779,-2.945 4.687,-7.038l0.36,-1.626l0.714,0.809c3.917,4.438 6.994,10.491 7.522,14.798l0.138,1.124l-0.658,-1.021c-1.134,-1.757 -2.273,-2.953 -3.73,-3.918c-2.629,-1.739 -5.407,-2.331 -12.767,-2.719c-6.647,-0.35 -10.408,-0.918 -14.139,-2.134c-6.346,-2.069 -9.545,-4.825 -17.085,-14.716c-3.348,-4.394 -5.417,-6.824 -7.477,-8.782c-4.677,-4.448 -9.274,-6.78 -15.158,-7.693Z" style="fill:#ff007a;fill-rule:nonzero;"/><path d="M171.539,97.03c0.167,-2.944 0.567,-4.885 1.369,-6.659c0.318,-0.702 0.616,-1.276 0.661,-1.276c0.047,-0 -0.092,0.518 -0.306,1.151c-0.584,1.721 -0.68,4.075 -0.278,6.814c0.51,3.475 0.801,3.976 4.473,7.73c1.723,1.76 3.726,3.981 4.453,4.934l1.321,1.734l-1.321,-1.239c-1.615,-1.515 -5.329,-4.47 -6.15,-4.892c-0.55,-0.283 -0.632,-0.278 -0.971,0.059c-0.313,0.312 -0.379,0.779 -0.423,2.99c-0.067,3.446 -0.537,5.658 -1.671,7.869c-0.612,1.197 -0.709,0.941 -0.154,-0.409c0.414,-1.008 0.456,-1.451 0.453,-4.787c-0.007,-6.702 -0.802,-8.314 -5.468,-11.074c-1.183,-0.699 -3.131,-1.708 -4.329,-2.241c-1.199,-0.534 -2.15,-0.998 -2.115,-1.033c0.132,-0.131 4.683,1.197 6.514,1.901c2.724,1.049 3.175,1.184 3.505,1.058c0.222,-0.085 0.329,-0.731 0.437,-2.63Z" style="fill:#ff007a;fill-rule:nonzero;"/><path d="M117.147,108.496c-3.279,-4.514 -5.308,-11.437 -4.869,-16.611l0.136,-1.602l0.747,0.137c1.402,0.255 3.819,1.155 4.95,1.842c3.106,1.886 4.45,4.37 5.818,10.747c0.401,1.868 0.927,3.981 1.169,4.697c0.389,1.152 1.861,3.842 3.057,5.59c0.862,1.258 0.29,1.854 -1.615,1.682c-2.91,-0.262 -6.851,-2.982 -9.393,-6.482Z" style="fill:#ff007a;fill-rule:nonzero;"/><path d="M167.561,142.098c-15.325,-6.17 -20.722,-11.527 -20.722,-20.564c-0,-1.329 0.045,-2.418 0.101,-2.418c0.055,0 0.649,0.439 1.318,0.976c3.107,2.492 6.587,3.557 16.222,4.962c5.668,0.827 8.858,1.495 11.802,2.471c9.354,3.102 15.141,9.398 16.521,17.973c0.401,2.491 0.166,7.164 -0.484,9.626c-0.514,1.945 -2.081,5.451 -2.495,5.585c-0.115,0.038 -0.229,-0.404 -0.258,-1.005c-0.158,-3.219 -1.785,-6.354 -4.517,-8.702c-3.108,-2.67 -7.282,-4.795 -17.488,-8.904Z" style="fill:#ff007a;fill-rule:nonzero;"/><path d="M156.803,144.661c-0.193,-1.142 -0.526,-2.602 -0.74,-3.242l-0.392,-1.166l0.727,0.816c1.005,1.127 1.799,2.571 2.472,4.494c0.514,1.468 0.572,1.904 0.568,4.289c-0.004,2.341 -0.068,2.832 -0.543,4.153c-0.748,2.083 -1.676,3.56 -3.234,5.145c-2.799,2.849 -6.399,4.427 -11.592,5.081c-0.903,0.113 -3.535,0.305 -5.848,0.425c-5.83,0.304 -9.667,0.93 -13.115,2.141c-0.496,0.173 -0.938,0.279 -0.983,0.235c-0.14,-0.139 2.208,-1.538 4.147,-2.472c2.734,-1.317 5.456,-2.036 11.553,-3.051c3.012,-0.502 6.123,-1.111 6.913,-1.353c7.459,-2.288 11.294,-8.189 10.067,-15.495Z" style="fill:#ff007a;fill-rule:nonzero;"/><path d="M163.828,157.138c-2.036,-4.377 -2.504,-8.603 -1.388,-12.545c0.119,-0.421 0.311,-0.766 0.426,-0.766c0.116,-0 0.596,0.26 1.068,0.578c0.938,0.631 2.82,1.695 7.834,4.429c6.256,3.411 9.823,6.051 12.249,9.069c2.124,2.643 3.439,5.653 4.071,9.323c0.359,2.079 0.148,7.082 -0.385,9.176c-1.682,6.601 -5.591,11.785 -11.167,14.811c-0.817,0.443 -1.551,0.807 -1.63,0.809c-0.079,0.001 0.218,-0.756 0.661,-1.682c1.877,-3.922 2.09,-7.736 0.672,-11.981c-0.869,-2.599 -2.639,-5.772 -6.214,-11.132c-4.156,-6.233 -5.175,-7.891 -6.197,-10.089Z" style="fill:#ff007a;fill-rule:nonzero;"/><path d="M106.264,180.755c5.687,-4.802 12.763,-8.213 19.209,-9.261c2.778,-0.451 7.406,-0.271 9.978,0.387c4.123,1.055 7.811,3.418 9.73,6.235c1.875,2.752 2.679,5.15 3.516,10.486c0.331,2.104 0.69,4.219 0.799,4.697c0.628,2.766 1.852,4.976 3.369,6.086c2.408,1.763 6.556,1.872 10.636,0.281c0.692,-0.27 1.294,-0.457 1.335,-0.414c0.149,0.146 -1.906,1.521 -3.355,2.246c-1.95,0.974 -3.501,1.351 -5.562,1.351c-3.737,-0 -6.839,-1.901 -9.428,-5.778c-0.509,-0.762 -1.654,-3.047 -2.544,-5.077c-2.733,-6.234 -4.083,-8.133 -7.256,-10.211c-2.762,-1.808 -6.324,-2.133 -9.003,-0.819c-3.52,1.726 -4.502,6.223 -1.981,9.074c1.002,1.133 2.87,2.11 4.398,2.3c2.858,0.356 5.314,-1.818 5.314,-4.704c0,-1.874 -0.719,-2.943 -2.533,-3.762c-2.476,-1.117 -5.137,0.189 -5.125,2.515c0.005,0.992 0.438,1.615 1.432,2.065c0.638,0.289 0.653,0.312 0.132,0.204c-2.271,-0.471 -2.804,-3.21 -0.977,-5.029c2.193,-2.182 6.728,-1.219 8.286,1.76c0.654,1.251 0.73,3.744 0.16,5.249c-1.277,3.369 -4.999,5.141 -8.776,4.177c-2.57,-0.657 -3.618,-1.368 -6.717,-4.561c-5.386,-5.548 -7.477,-6.623 -15.242,-7.835l-1.488,-0.232l1.693,-1.43Z" style="fill:#ff007a;fill-rule:nonzero;"/><path d="M65.649,56.47c17.987,21.831 45.718,55.821 47.095,57.724c1.137,1.572 0.709,2.984 -1.238,4.091c-1.083,0.616 -3.31,1.24 -4.424,1.24c-1.261,-0 -2.682,-0.607 -3.716,-1.589c-0.731,-0.693 -3.682,-5.099 -10.493,-15.669c-5.212,-8.087 -9.574,-14.796 -9.693,-14.908c-0.275,-0.26 -0.271,-0.251 9.161,16.625c5.922,10.597 7.922,14.343 7.922,14.844c-0,1.019 -0.278,1.555 -1.535,2.957c-2.096,2.338 -3.033,4.965 -3.709,10.402c-0.758,6.094 -2.89,10.399 -8.798,17.767c-3.458,4.313 -4.024,5.104 -4.897,6.842c-1.099,2.189 -1.401,3.415 -1.524,6.18c-0.129,2.922 0.123,4.81 1.016,7.605c0.782,2.446 1.598,4.062 3.684,7.293c1.8,2.788 2.836,4.86 2.836,5.671c0,0.645 0.124,0.645 2.913,0.015c6.676,-1.507 12.097,-4.158 15.146,-7.408c1.887,-2.011 2.329,-3.121 2.344,-5.878c0.009,-1.802 -0.054,-2.18 -0.541,-3.217c-0.794,-1.688 -2.238,-3.091 -5.42,-5.267c-4.171,-2.851 -5.952,-5.146 -6.444,-8.302c-0.403,-2.59 0.065,-4.417 2.372,-9.252c2.388,-5.005 2.979,-7.138 3.38,-12.183c0.258,-3.259 0.616,-4.545 1.553,-5.576c0.976,-1.076 1.856,-1.44 4.273,-1.77c3.94,-0.539 6.449,-1.558 8.512,-3.459c1.789,-1.648 2.538,-3.237 2.653,-5.629l0.087,-1.812l-1,-1.166c-3.621,-4.222 -53.94,-59.49 -54.163,-59.49c-0.047,0 1.144,1.494 2.648,3.319Zm23.72,109.812c0.819,-1.45 0.384,-3.313 -0.986,-4.223c-1.294,-0.861 -3.304,-0.456 -3.304,0.666c0,0.342 0.19,0.59 0.616,0.81c0.718,0.369 0.77,0.785 0.205,1.633c-0.572,0.861 -0.526,1.616 0.13,2.13c1.058,0.828 2.555,0.373 3.339,-1.016Z" style="fill:#ff007a;"/><path d="M120.65,125.658c-1.85,0.567 -3.648,2.528 -4.204,4.584c-0.34,1.254 -0.147,3.454 0.362,4.133c0.821,1.098 1.615,1.387 3.767,1.372c4.213,-0.03 7.876,-1.836 8.301,-4.095c0.35,-1.852 -1.259,-4.418 -3.475,-5.544c-1.143,-0.581 -3.574,-0.812 -4.751,-0.45Zm4.925,3.85c0.65,-0.923 0.365,-1.921 -0.739,-2.595c-2.105,-1.285 -5.286,-0.222 -5.286,1.766c-0,0.989 1.659,2.069 3.18,2.069c1.012,-0 2.398,-0.604 2.845,-1.24Z" style="fill:#ff007a;"/></g></svg>