<!-- source: https://uniswap.org/community -->
<svg width="46" height="46" viewBox="0 0 320 320" version="1.1" xmlns="http://www.w3.org/2000/svg"><circle cx="160" cy="160" r="160" style="fill:#fff;"/><g><path d="M127.935,92.277c-2.092,-0.325 -2.18,-0.363 -1.196,-0.514c1.886,-0.29 6.34,0.105 9.409,0.835c7.164,1.703 13.683,6.066 20.642,13.814l1.849,2.058l2.645,-0.425c11.142,-1.791 22.476,-0.368 31.957,4.012c2.608,1.205 6.72,3.603 7.234,4.22c0.163,0.196 0.464,1.46 0.667,2.81c0.705,4.667 0.352,8.245 -1.075,10.918c-0.777,1.454 -0.821,1.915 -0.299,3.159c0.418,0.993 1.58,1.728 2.731,1.727c2.356,-0.003 4.892,-3.812 6.067,-9.111l0.466,-2.105l0.925,1.047c5.071,5.746 9.055,13.582 9.739,19.159l0.178,1.455l-0.852,-1.322c-1.468,-2.275 -2.942,-3.824 -4.829,-5.073c-3.403,-2.251 -7,-3.018 -16.529,-3.52c-8.605,-0.453 -13.475,-1.188 -18.305,-2.763c-8.216,-2.679 -12.358,-6.247 -22.119,-19.052c-4.335,-5.688 -7.014,-8.835 -9.68,-11.369c-6.056,-5.759 -12.007,-8.779 -19.625,-9.96Z" style="fill:#ff007a;fill-rule:nonzero;"/><path d="M202.416,104.976c0.216,-3.811 0.733,-6.325 1.772,-8.621c0.411,-0.909 0.797,-1.652 0.856,-1.652c0.06,-0 -0.119,0.671 -0.397,1.49c-0.756,2.228 -0.88,5.276 -0.359,8.821c0.66,4.499 1.036,5.148 5.791,10.008c2.23,2.279 4.824,5.154 5.765,6.389l1.71,2.244l-1.71,-1.604c-2.091,-1.961 -6.9,-5.787 -7.963,-6.333c-0.712,-0.367 -0.818,-0.361 -1.257,0.077c-0.405,0.403 -0.49,1.008 -0.547,3.87c-0.087,4.462 -0.695,7.325 -2.163,10.188c-0.793,1.549 -0.919,1.218 -0.2,-0.529c0.536,-1.306 0.591,-1.879 0.587,-6.198c-0.009,-8.677 -1.039,-10.764 -7.08,-14.337c-1.531,-0.906 -4.053,-2.211 -5.604,-2.902c-1.552,-0.69 -2.784,-1.292 -2.739,-1.337c0.171,-0.17 6.063,1.55 8.434,2.462c3.527,1.357 4.11,1.532 4.538,1.369c0.287,-0.11 0.426,-0.946 0.566,-3.405Z" style="fill:#ff007a;fill-rule:nonzero;"/><path d="M131.997,119.821c-4.246,-5.845 -6.872,-14.807 -6.304,-21.507l0.176,-2.073l0.966,0.177c1.815,0.331 4.945,1.495 6.41,2.385c4.021,2.442 5.761,5.657 7.532,13.913c0.519,2.419 1.2,5.155 1.513,6.082c0.504,1.491 2.409,4.974 3.958,7.236c1.116,1.63 0.375,2.402 -2.091,2.179c-3.767,-0.34 -8.869,-3.861 -12.16,-8.392Z" style="fill:#ff007a;fill-rule:nonzero;"/><path d="M197.266,163.323c-19.841,-7.988 -26.829,-14.923 -26.829,-26.623c0,-1.721 0.059,-3.13 0.131,-3.13c0.072,-0 0.84,0.568 1.706,1.263c4.023,3.227 8.529,4.605 21.002,6.425c7.339,1.07 11.469,1.935 15.28,3.199c12.11,4.016 19.602,12.167 21.389,23.268c0.519,3.226 0.215,9.275 -0.627,12.463c-0.665,2.518 -2.693,7.057 -3.23,7.231c-0.149,0.049 -0.296,-0.523 -0.334,-1.301c-0.204,-4.168 -2.311,-8.227 -5.848,-11.267c-4.023,-3.456 -9.427,-6.208 -22.64,-11.528Z" style="fill:#ff007a;fill-rule:nonzero;"/><path d="M183.337,166.642c-0.249,-1.479 -0.68,-3.369 -0.958,-4.198l-0.507,-1.509l0.941,1.056c1.301,1.46 2.329,3.329 3.201,5.819c0.665,1.9 0.74,2.465 0.735,5.552c-0.005,3.031 -0.088,3.667 -0.703,5.377c-0.968,2.697 -2.17,4.609 -4.187,6.661c-3.624,3.689 -8.284,5.731 -15.008,6.578c-1.169,0.147 -4.576,0.395 -7.571,0.551c-7.548,0.393 -12.516,1.204 -16.979,2.771c-0.642,0.225 -1.215,0.362 -1.273,0.304c-0.181,-0.179 2.858,-1.991 5.369,-3.2c3.539,-1.705 7.063,-2.636 14.957,-3.95c3.9,-0.65 7.927,-1.438 8.95,-1.752c9.657,-2.961 14.622,-10.602 13.033,-20.06Z" style="fill:#ff007a;fill-rule:nonzero;"/><path d="M192.432,182.795c-2.636,-5.667 -3.241,-11.138 -1.797,-16.241c0.154,-0.545 0.403,-0.992 0.552,-0.992c0.15,-0 0.772,0.337 1.383,0.748c1.214,0.817 3.651,2.195 10.142,5.734c8.099,4.416 12.717,7.835 15.858,11.742c2.75,3.422 4.452,7.318 5.271,12.07c0.464,2.692 0.192,9.168 -0.498,11.879c-2.178,8.546 -7.239,15.258 -14.458,19.176c-1.058,0.573 -2.008,1.044 -2.11,1.047c-0.103,0.002 0.282,-0.978 0.856,-2.178c2.429,-5.077 2.705,-10.015 0.869,-15.511c-1.124,-3.365 -3.416,-7.472 -8.044,-14.412c-5.381,-8.069 -6.7,-10.216 -8.024,-13.062Z" style="fill:#ff007a;fill-rule:nonzero;"/><path d="M117.907,213.371c7.363,-6.217 16.524,-10.633 24.869,-11.989c3.596,-0.584 9.588,-0.352 12.918,0.5c5.338,1.366 10.113,4.426 12.597,8.072c2.427,3.563 3.468,6.668 4.552,13.576c0.428,2.725 0.893,5.462 1.034,6.081c0.814,3.581 2.398,6.443 4.362,7.88c3.118,2.282 8.488,2.424 13.77,0.364c0.896,-0.35 1.675,-0.592 1.729,-0.537c0.192,0.19 -2.468,1.97 -4.344,2.908c-2.525,1.261 -4.533,1.749 -7.201,1.749c-4.838,0 -8.854,-2.461 -12.206,-7.48c-0.659,-0.987 -2.141,-3.945 -3.294,-6.573c-3.538,-8.071 -5.286,-10.529 -9.394,-13.22c-3.576,-2.341 -8.187,-2.761 -11.656,-1.06c-4.557,2.234 -5.828,8.057 -2.564,11.748c1.297,1.466 3.716,2.731 5.694,2.977c3.7,0.461 6.88,-2.354 6.88,-6.09c0,-2.426 -0.932,-3.81 -3.28,-4.87c-3.205,-1.446 -6.651,0.245 -6.635,3.256c0.007,1.284 0.567,2.091 1.854,2.673c0.826,0.374 0.845,0.404 0.171,0.264c-2.941,-0.61 -3.63,-4.156 -1.265,-6.51c2.839,-2.826 8.711,-1.579 10.727,2.278c0.847,1.62 0.945,4.847 0.207,6.796c-1.653,4.361 -6.472,6.655 -11.361,5.407c-3.328,-0.85 -4.684,-1.77 -8.697,-5.904c-6.973,-7.183 -9.68,-8.575 -19.733,-10.144l-1.926,-0.301l2.192,-1.851Z" style="fill:#ff007a;fill-rule:nonzero;"/><path d="M65.324,52.465c23.287,28.263 59.19,72.269 60.972,74.733c1.472,2.034 0.918,3.863 -1.603,5.296c-1.402,0.797 -4.285,1.605 -5.728,1.605c-1.632,0 -3.471,-0.786 -4.81,-2.057c-0.947,-0.897 -4.767,-6.602 -13.586,-20.285c-6.747,-10.471 -12.394,-19.156 -12.548,-19.302c-0.357,-0.336 -0.35,-0.325 11.86,21.524c7.668,13.719 10.256,18.569 10.256,19.218c0,1.319 -0.36,2.013 -1.987,3.828c-2.714,3.027 -3.927,6.428 -4.802,13.467c-0.982,7.89 -3.742,13.463 -11.39,23.002c-4.478,5.584 -5.21,6.608 -6.34,8.858c-1.423,2.835 -1.814,4.422 -1.973,8.001c-0.168,3.784 0.159,6.228 1.315,9.846c1.012,3.167 2.069,5.259 4.769,9.442c2.331,3.61 3.673,6.292 3.673,7.342c-0,0.835 0.159,0.836 3.771,0.02c8.643,-1.951 15.661,-5.384 19.608,-9.591c2.443,-2.604 3.016,-4.041 3.035,-7.61c0.012,-2.333 -0.07,-2.822 -0.701,-4.165c-1.027,-2.185 -2.896,-4.002 -7.017,-6.819c-5.399,-3.691 -7.705,-6.662 -8.342,-10.748c-0.522,-3.353 0.084,-5.719 3.071,-11.979c3.091,-6.479 3.857,-9.241 4.375,-15.772c0.335,-4.219 0.799,-5.884 2.011,-7.219c1.265,-1.393 2.403,-1.865 5.532,-2.292c5.102,-0.697 8.35,-2.017 11.02,-4.478c2.317,-2.134 3.286,-4.191 3.435,-7.287l0.113,-2.347l-1.295,-1.509c-4.688,-5.466 -69.833,-77.019 -70.122,-77.019c-0.061,-0 1.481,1.933 3.428,4.296Zm30.709,142.17c1.06,-1.877 0.497,-4.29 -1.276,-5.468c-1.675,-1.114 -4.277,-0.59 -4.277,0.862c-0,0.443 0.245,0.765 0.797,1.049c0.929,0.478 0.997,1.016 0.265,2.115c-0.74,1.114 -0.68,2.092 0.169,2.757c1.369,1.072 3.307,0.483 4.322,-1.315Z" style="fill:#ff007a;"/><path d="M136.532,142.039c-2.395,0.735 -4.723,3.273 -5.444,5.935c-0.439,1.624 -0.19,4.472 0.469,5.351c1.064,1.421 2.092,1.795 4.878,1.776c5.454,-0.038 10.196,-2.377 10.747,-5.302c0.452,-2.397 -1.631,-5.719 -4.499,-7.177c-1.48,-0.752 -4.628,-1.051 -6.151,-0.583Zm6.376,4.985c0.841,-1.195 0.473,-2.487 -0.957,-3.36c-2.725,-1.664 -6.844,-0.287 -6.844,2.286c-0,1.281 2.148,2.679 4.117,2.679c1.311,-0 3.105,-0.782 3.684,-1.605Z" style="fill:#ff007a;"/></g></svg>