<svg width="64" height="64" viewBox="0 0 64 64" fill="none" xmlns="http://www.w3.org/2000/svg">
    <g clip-path="url(#clip0_2582_11046)">
        <path d="M30.792 64H33.2071V54.6287C32.3796 54.3193 31.5736 53.9658 30.792 53.571V64Z" fill="black"/>
        <path d="M29.1236 52.6437L26.9401 63.6207L24.5715 63.1496L26.9568 51.1575C27.6503 51.6907 28.3735 52.1871 29.1236 52.6437Z" fill="black"/>
        <path d="M25.7739 50.1871L20.87 62.0262L18.6387 61.102L23.9111 48.3734C24.4991 49.0107 25.121 49.6162 25.7739 50.1871Z" fill="black"/>
        <path d="M23.1176 47.4696L15.2275 59.2779L13.2195 57.9362L21.5825 45.4201C22.0584 46.1308 22.571 46.8149 23.1176 47.4696Z" fill="black"/>
        <path d="M21.0766 44.6321L10.2274 55.4813L8.51972 53.7736L19.8717 42.4216C20.2357 43.1813 20.6381 43.9189 21.0766 44.6321Z" fill="black"/>
        <path d="M19.5663 41.7584L6.06112 50.7823L4.71937 48.7742L18.6827 39.4442C18.9384 40.2342 19.2337 41.0064 19.5663 41.7584Z" fill="black"/>
        <path d="M18.5121 38.8946L2.89961 45.3615L1.9754 43.1302L17.9358 36.5192C18.0885 37.3259 18.2813 38.1184 18.5121 38.8946Z" fill="black"/>
        <path d="M17.851 36.0456L0.850543 39.4272L0.379381 37.0585L17.5684 33.6394C17.623 34.4532 17.7178 35.2559 17.851 36.0456Z" fill="black"/>
        <path d="M17.5433 33.2076H0V30.7925H17.5433C17.5236 31.1925 17.5137 31.5951 17.5137 32.0001C17.5137 32.405 17.5236 32.8075 17.5433 33.2076Z" fill="black"/>
        <path d="M17.5684 30.3606L0.379175 26.9414L0.850337 24.5728L17.851 27.9544C17.7178 28.7441 17.623 29.5468 17.5684 30.3606Z" fill="black"/>
        <path d="M17.9356 27.4815L1.97347 20.8698L2.89769 18.6385L18.5119 25.1061C18.2811 25.8823 18.0883 26.6748 17.9356 27.4815Z" fill="black"/>
        <path d="M18.6832 24.5545L4.7218 15.2258L6.06355 13.2177L19.5669 22.2403C19.2343 22.9923 18.9389 23.7645 18.6832 24.5545Z" fill="black"/>
        <path d="M19.8716 21.5788L8.5192 10.2264L10.2269 8.51871L21.0765 19.3683C20.638 20.0814 20.2355 20.8191 19.8716 21.5788Z" fill="black"/>
        <path d="M21.5809 18.5824L13.2162 6.06385L15.2243 4.7221L23.1159 16.5326C22.5693 17.1874 22.0567 17.8716 21.5809 18.5824Z" fill="black"/>
        <path d="M23.9106 15.6272L18.638 2.89795L20.8692 1.97373L25.7734 13.8134C25.1205 14.3844 24.4986 14.9899 23.9106 15.6272Z" fill="black"/>
        <path d="M26.959 12.841L24.5739 0.85046L26.9426 0.379299L29.1258 11.355C28.3757 11.8116 27.6524 12.3079 26.959 12.841Z" fill="black"/>
        <path d="M30.792 10.4291V0H33.2071V9.37142C32.3796 9.68084 31.5736 10.0343 30.792 10.4291Z" fill="black"/>
        <path d="M35.4087 8.66722L37.0572 0.379307L39.4259 0.850464L37.9782 8.12867C37.1054 8.26235 36.248 8.44274 35.4087 8.66722Z" fill="black"/>
        <path d="M40.6888 7.86846L43.1305 1.97372L45.3617 2.89793L43.2886 7.90285C42.7519 7.86721 42.2104 7.84911 41.6646 7.84911C41.3378 7.84911 41.0125 7.8556 40.6888 7.86846Z" fill="black"/>
        <path d="M46.3793 8.30906L48.776 4.72214L50.784 6.06389L48.8624 8.93987C48.0522 8.68725 47.2236 8.47615 46.3793 8.30906Z" fill="black"/>
        <path d="M52.0861 10.2072L53.7746 8.51874L55.4823 10.2265L54.2967 11.4121C53.5835 10.9736 52.8458 10.5711 52.0861 10.2072Z" fill="black"/>
        <path d="M57.3317 13.6198L57.9334 13.2177L59.2752 15.2258L59.1317 15.3216C58.5612 14.7243 57.9604 14.1562 57.3317 13.6198Z" fill="black"/>
        <path d="M59.1328 48.6774L59.2776 48.7742L57.9359 50.7823L57.3328 50.3793C57.9615 49.8429 58.5623 49.2747 59.1328 48.6774Z" fill="black"/>
        <path d="M54.2964 52.5882L55.4818 53.7736L53.774 55.4813L52.0859 53.7931C52.8455 53.4292 53.5832 53.0267 54.2964 52.5882Z" fill="black"/>
        <path d="M48.8597 55.0611L50.7808 57.9361L48.7727 59.2779L46.3764 55.6916C47.2208 55.5246 48.0494 55.3136 48.8597 55.0611Z" fill="black"/>
        <path d="M43.2879 56.0973L45.361 61.102L43.1297 62.0262L40.6881 56.1316C41.012 56.1445 41.3375 56.151 41.6646 56.151C42.2101 56.151 42.7514 56.1329 43.2879 56.0973Z" fill="black"/>
        <path d="M37.9807 55.8718L39.4284 63.1496L37.0597 63.6207L35.4113 55.3336C36.2506 55.558 37.108 55.7382 37.9807 55.8718Z" fill="black"/>
        <path d="M32.6079 9.60474C32.1997 9.76997 31.7971 9.94604 31.4003 10.1326V17.5218C31.6006 17.5136 31.802 17.5095 32.0043 17.5095C32.2065 17.5095 32.4077 17.5136 32.6079 17.5218V9.60474Z" fill="black"/>
        <path d="M28.5791 11.698L29.7691 17.6808C29.3686 17.7428 28.9735 17.8212 28.5846 17.9153L27.4955 12.4403C27.8496 12.1833 28.2109 11.9358 28.5791 11.698Z" fill="black"/>
        <path d="M25.2987 14.2398L27.0179 18.3902C26.6384 18.5293 26.2663 18.6838 25.9025 18.853L24.367 15.146C24.6694 14.8357 24.9801 14.5335 25.2987 14.2398Z" fill="black"/>
        <path d="M22.72 17.0196L24.461 19.6252C24.1168 19.8355 23.7821 20.0597 23.4576 20.297L21.9521 18.0438C22.1992 17.6955 22.4552 17.3539 22.72 17.0196Z" fill="black"/>
        <path d="M20.758 19.9016C20.5478 20.264 20.3468 20.6324 20.1552 21.0065L21.339 22.1903C21.6117 21.894 21.8965 21.6091 22.1928 21.3364L20.758 19.9016Z" fill="black"/>
        <path d="M19.3268 22.8024L20.3012 23.4534C20.0639 23.7779 19.8397 24.1127 19.6294 24.4568L18.8846 23.9592C19.0224 23.5689 19.1699 23.1832 19.3268 22.8024Z" fill="black"/>
        <path d="M18.3464 25.6899C18.2406 26.0819 18.1444 26.4778 18.058 26.8775L18.3935 27.0164C18.5325 26.6369 18.6869 26.2648 18.856 25.9009L18.3464 25.6899Z" fill="black"/>
        <path d="M17.7581 28.5509L17.9189 28.5828C17.8249 28.9718 17.7466 29.3669 17.6846 29.7674L17.6167 29.7539C17.654 29.3499 17.7012 28.9488 17.7581 28.5509Z" fill="black"/>
        <path d="M17.5211 31.3962C17.5161 31.5969 17.5137 31.7982 17.5137 32.0001C17.5137 32.2019 17.5161 32.4031 17.5211 32.6038H17.526C17.5178 32.4035 17.5137 32.2024 17.5137 32.0001C17.5137 31.7978 17.5178 31.5965 17.526 31.3962H17.5211Z" fill="black"/>
        <path d="M17.6167 34.246L17.6846 34.2325C17.7465 34.633 17.8249 35.0281 17.9189 35.4171L17.7581 35.4491C17.7012 35.0511 17.654 34.65 17.6167 34.246Z" fill="black"/>
        <path d="M18.0579 37.1222C18.1442 37.5219 18.2404 37.9179 18.3462 38.3099L18.8558 38.0988C18.6867 37.7349 18.5323 37.3628 18.3933 36.9833L18.0579 37.1222Z" fill="black"/>
        <path d="M18.8844 40.0406L19.6292 39.5429C19.8395 39.8871 20.0637 40.2219 20.301 40.5464L19.3267 41.1974C19.1697 40.8166 19.0222 40.4309 18.8844 40.0406Z" fill="black"/>
        <path d="M20.155 42.9934C20.3466 43.3675 20.5476 43.7359 20.7578 44.0983L22.1926 42.6635C21.8963 42.3908 21.6115 42.1059 21.3388 41.8096L20.155 42.9934Z" fill="black"/>
        <path d="M21.952 45.9563L23.4576 43.703C23.7821 43.9404 24.1168 44.1646 24.461 44.3748L22.7199 46.9805C22.4552 46.6462 22.1991 46.3047 21.952 45.9563Z" fill="black"/>
        <path d="M24.369 48.8563C24.6714 49.1665 24.9821 49.4687 25.3007 49.7623L27.0204 45.6107C26.6408 45.4717 26.2688 45.3173 25.9049 45.1482L24.369 48.8563Z" fill="black"/>
        <path d="M27.498 51.5617L28.5873 46.0854C28.9762 46.1794 29.3713 46.2578 29.7719 46.3197L28.5815 52.3038C28.2133 52.0661 27.852 51.8186 27.498 51.5617Z" fill="black"/>
        <path d="M31.4003 53.8676C31.7971 54.0542 32.1997 54.2303 32.6079 54.3955V46.4783C32.4077 46.4865 32.2065 46.4906 32.0043 46.4906C31.802 46.4906 31.6006 46.4865 31.4003 46.4782V53.8676Z" fill="black"/>
        <path d="M36.0601 55.4974L34.2346 46.32C34.6351 46.2581 35.0302 46.1799 35.4192 46.0859L37.3447 55.7658C36.9124 55.6877 36.4841 55.5982 36.0601 55.4974Z" fill="black"/>
        <path d="M41.3511 56.1491C41.4554 56.1504 41.5599 56.1511 41.6646 56.1511C41.9949 56.1511 42.3237 56.1444 42.6507 56.1313L38.1018 45.1491C37.7379 45.3181 37.3658 45.4725 36.9862 45.6115L41.3511 56.1491Z" fill="black"/>
        <path d="M47.0169 55.5559L39.5464 44.3756C39.8906 44.1653 40.2253 43.9412 40.5498 43.7038L48.2581 55.24C47.8487 55.356 47.4348 55.4614 47.0169 55.5559Z" fill="black"/>
        <path d="M49.2782 58.9402L49.2797 58.9424L50.2837 58.2716L50.2822 58.2694L49.2782 58.9402Z" fill="black"/>
        <path d="M54.202 55.0534L54.203 55.0544L55.0569 54.2005L55.0559 54.1995L54.202 55.0534Z" fill="black"/>
        <path d="M52.6582 53.5095C53.0323 53.318 53.4007 53.1169 53.7631 52.9067L42.6679 41.8115C42.3952 42.1078 42.1103 42.3926 41.814 42.6653L52.6582 53.5095Z" fill="black"/>
        <path d="M57.8056 49.9653L43.708 40.5457C43.9454 40.2211 44.1695 39.8864 44.3798 39.5422L58.7051 49.1141C58.4126 49.4054 58.1126 49.6892 57.8056 49.9653Z" fill="black"/>
        <path d="M58.2731 50.2777L58.2769 50.2802L58.9477 49.2762L58.9439 49.2737L58.2731 50.2777Z" fill="black"/>
        <path d="M45.1521 38.1002L61.3359 44.8037L61.798 43.6881L45.6147 36.9847C45.4756 37.3642 45.3212 37.7363 45.1521 38.1002Z" fill="black"/>
        <path d="M63.2707 38.8351L46.0895 35.4175C46.1836 35.0285 46.2619 34.6334 46.3238 34.2329L63.5063 37.6507L63.2707 38.8351Z" fill="black"/>
        <path d="M46.4825 32.6038H64.0033V31.3962H46.4825C46.4907 31.5965 46.4948 31.7978 46.4948 32C46.4948 32.2023 46.4907 32.4035 46.4825 32.6038Z" fill="black"/>
        <path d="M63.5062 26.3492L46.3238 29.767C46.2619 29.3665 46.1835 28.9714 46.0895 28.5824L63.2706 25.1649L63.5062 26.3492Z" fill="black"/>
        <path d="M45.6145 27.015L61.7971 20.3119L61.335 19.1963L45.1519 25.8995C45.3211 26.2634 45.4755 26.6355 45.6145 27.015Z" fill="black"/>
        <path d="M58.7048 14.8858L44.3796 24.4576C44.1693 24.1134 43.9452 23.7786 43.7078 23.4541L57.8052 14.0346C58.1123 14.3107 58.4123 14.5945 58.7048 14.8858Z" fill="black"/>
        <path d="M58.942 14.7273L58.9473 14.7237L58.2764 13.7197L58.2712 13.7232L58.942 14.7273Z" fill="black"/>
        <path d="M52.6579 10.4905L41.8138 21.3346C42.1101 21.6073 42.395 21.8921 42.6678 22.1884L53.7628 11.0933C53.4004 10.8831 53.032 10.6821 52.6579 10.4905Z" fill="black"/>
        <path d="M48.258 8.76017L40.5498 20.2962C40.2253 20.0589 39.8905 19.8347 39.5463 19.6245L47.0167 8.44427C47.4347 8.53884 47.8485 8.64424 48.258 8.76017Z" fill="black"/>
        <path d="M50.2831 5.72926L50.2837 5.72842L49.2797 5.05754L49.2791 5.05838L50.2831 5.72926Z" fill="black"/>
        <path d="M44.8076 2.66847L44.8083 2.66689L43.6926 2.20479L43.692 2.20637L44.8076 2.66847Z" fill="black"/>
        <path d="M42.6535 7.86904L38.1041 18.8521C37.7403 18.683 37.3682 18.5285 36.9887 18.3895L41.3539 7.85113C41.4573 7.84982 41.5609 7.84917 41.6646 7.84917C41.9958 7.84917 42.3255 7.85584 42.6535 7.86904Z" fill="black"/>
        <path d="M37.3476 8.2339L35.4219 17.9148C35.033 17.8208 34.6379 17.7424 34.2374 17.6805L36.063 8.50211C36.487 8.40142 36.9153 8.31191 37.3476 8.2339Z" fill="black"/>
        <path d="M38.8397 0.732601L38.8395 0.733867L37.6551 0.498287L37.6554 0.49702L38.8397 0.732601Z" fill="black"/>
    </g>
    <defs>
        <clipPath id="clip0_2582_11046">
            <rect width="64.0033" height="64" fill="white"/>
        </clipPath>
    </defs>
</svg>
