<?xml version="1.0" standalone="no"?>
<!DOCTYPE svg PUBLIC "-//W3C//DTD SVG 20010904//EN"
 "http://www.w3.org/TR/2001/REC-SVG-20010904/DTD/svg10.dtd">
<svg version="1.0" xmlns="http://www.w3.org/2000/svg"
 width="700.000000pt" height="700.000000pt" viewBox="0 0 700.000000 700.000000"
 preserveAspectRatio="xMidYMid meet">
<metadata>
Created by potrace 1.14, written by Peter Selinger 2001-2017
</metadata>
<g transform="translate(0.000000,700.000000) scale(0.100000,-0.100000)"
fill="#000000" stroke="none">
<path d="M4100 6457 c-96 -92 -384 -366 -450 -427 -19 -18 -104 -98 -189 -179
-84 -80 -172 -164 -196 -186 -74 -70 -347 -329 -385 -365 -20 -19 -101 -96
-179 -170 -79 -74 -160 -151 -180 -170 -70 -66 -406 -385 -495 -470 -49 -47
-99 -94 -111 -105 -12 -11 -88 -83 -169 -160 -81 -77 -172 -163 -202 -191 -30
-28 -54 -55 -54 -60 0 -5 358 -369 795 -808 l794 -799 43 12 c24 7 45 12 48
11 3 -1 19 4 35 10 24 9 115 35 235 66 8 2 65 17 125 34 121 33 331 89 356 95
9 2 47 12 85 24 38 11 139 39 224 61 85 23 187 51 225 61 39 11 78 22 88 24
31 7 470 126 575 156 56 16 109 29 117 29 7 0 17 4 20 10 3 5 -22 103 -55 217
-34 115 -73 246 -86 293 -14 47 -41 137 -60 200 -20 63 -37 122 -39 130 -2 8
-24 83 -49 165 -24 83 -80 272 -124 420 -44 149 -82 277 -85 285 -7 17 -128
430 -132 445 -1 6 -5 17 -8 25 -3 8 -8 24 -10 35 -3 11 -19 65 -35 120 -17 55
-42 141 -57 190 -15 50 -28 95 -29 100 -2 6 -15 51 -30 100 -76 248 -88 291
-91 305 -14 65 -160 536 -166 538 -5 2 -7 8 -3 13 11 19 -4 6 -96 -84z"/>
<path d="M1415 3548 c13 -35 69 -182 125 -328 55 -146 130 -344 166 -440 36
-96 69 -184 74 -195 11 -24 44 -110 309 -810 111 -291 205 -539 210 -550 5
-11 19 -47 31 -80 12 -33 26 -69 30 -80 4 -11 22 -58 40 -105 18 -47 36 -94
40 -105 5 -11 37 -94 71 -185 34 -91 63 -167 65 -169 3 -3 55 36 109 81 32 27
644 524 899 731 22 18 89 73 150 123 61 50 381 310 711 578 330 268 618 503
640 521 22 18 51 42 65 53 l25 21 -40 -10 c-22 -6 -87 -23 -145 -39 -58 -16
-222 -60 -365 -99 -143 -38 -570 -154 -949 -256 -639 -172 -690 -184 -707
-169 -21 19 -1208 1208 -1422 1424 -82 83 -150 150 -152 150 -2 0 7 -28 20
-62z"/>
</g>
</svg>
