<?xml version="1.0" standalone="no"?>
<!DOCTYPE svg PUBLIC "-//W3C//DTD SVG 20010904//EN"
        "http://www.w3.org/TR/2001/REC-SVG-20010904/DTD/svg10.dtd">
<svg version="1.0" xmlns="http://www.w3.org/2000/svg"
     width="270.000000pt" height="270.000000pt" viewBox="0 0 700.000000 700.000000"
     preserveAspectRatio="xMidYMid meet">
    <metadata>
        Created by potrace 1.14, written by Peter Selinger 2001-2017
    </metadata>
    <g transform="translate(0.000000,700.000000) scale(0.100000,-0.100000)"
       fill="#000000" stroke="none">
        <path d="M3253 5731 c-27 -27 -52 -106 -79 -255 -2 -14 -9 -38 -15 -53 -6 -16
-10 -29 -9 -31 1 -1 -1 -20 -5 -41 l-7 -40 -181 1 c-207 1 -307 -6 -457 -32
-182 -32 -302 -71 -465 -152 -236 -117 -444 -330 -566 -578 -78 -159 -115
-271 -175 -530 -64 -281 -78 -375 -78 -555 -1 -160 7 -230 38 -354 113 -444
456 -793 1028 -1047 56 -24 103 -46 105 -48 2 -2 -4 -34 -13 -72 -9 -38 -18
-79 -20 -92 -3 -12 -14 -62 -25 -110 -25 -101 -26 -145 -4 -178 20 -31 50 -45
165 -77 322 -89 304 -86 350 -62 16 9 36 28 44 43 11 22 36 120 50 193 7 40
38 169 41 169 1 0 51 -11 111 -24 60 -14 124 -28 143 -31 19 -3 38 -8 42 -10
4 -3 1 -33 -8 -68 -8 -34 -16 -71 -19 -82 -2 -11 -13 -61 -24 -111 -12 -50
-19 -102 -18 -115 5 -34 25 -67 48 -79 32 -17 380 -81 447 -82 17 0 45 10 61
22 26 20 34 37 57 131 14 60 28 119 31 132 2 12 6 31 9 42 3 11 11 46 17 78 7
32 16 56 19 53 8 -8 306 -9 384 -2 97 9 157 17 210 27 28 6 68 12 90 16 61 9
269 79 354 119 192 92 380 248 486 405 17 24 33 46 37 49 16 12 129 243 156
320 29 80 69 214 78 263 2 12 19 92 38 177 52 234 61 308 60 495 -1 161 -26
310 -78 460 -2 6 -4 13 -5 17 -9 33 -114 219 -159 282 -59 82 -190 220 -277
292 -55 44 -201 144 -279 188 -71 41 -274 141 -318 157 -21 7 -38 18 -38 25 0
13 41 197 61 274 23 88 23 137 0 173 -19 31 -31 37 -143 70 -267 79 -316 89
-353 77 -47 -16 -68 -50 -89 -145 -10 -44 -19 -84 -20 -90 -1 -5 -11 -47 -21
-92 -10 -46 -21 -83 -26 -83 -4 0 -38 7 -76 16 -37 9 -79 18 -93 21 -14 3 -29
6 -35 7 -5 2 -27 6 -48 11 -20 4 -39 10 -41 14 -3 3 4 42 15 86 10 44 22 94
24 110 3 17 8 38 11 47 3 9 7 27 9 40 3 13 7 36 11 52 12 57 -36 121 -101 132
-66 12 -195 35 -215 39 -164 33 -211 32 -247 -4z m-38 -1025 c17 -2 57 -7 90
-11 33 -3 72 -8 88 -11 166 -26 212 -35 257 -44 25 -5 56 -12 70 -14 45 -7
233 -57 335 -87 503 -153 800 -330 959 -574 98 -150 137 -280 136 -463 0 -111
-7 -163 -42 -322 -16 -74 -31 -146 -34 -160 -22 -109 -103 -289 -173 -384
-135 -185 -305 -284 -587 -341 -118 -24 -432 -25 -604 -1 -14 2 -52 7 -85 11
-33 4 -69 9 -80 12 -11 2 -45 8 -75 13 -67 10 -200 37 -255 52 -22 5 -48 12
-58 13 -33 7 -242 67 -327 95 -529 173 -824 400 -934 716 -37 106 -45 167 -42
319 2 118 9 165 40 303 65 289 119 421 228 561 102 129 313 259 468 287 14 3
41 9 60 14 19 5 67 12 105 16 39 4 71 8 73 9 5 5 352 -3 387 -9z"/>
    </g>
</svg>
