<?xml version="1.0" standalone="no"?>
<!DOCTYPE svg PUBLIC "-//W3C//DTD SVG 20010904//EN"
 "http://www.w3.org/TR/2001/REC-SVG-20010904/DTD/svg10.dtd">
<svg version="1.0" xmlns="http://www.w3.org/2000/svg"
 width="270.000000pt" height="270.000000pt" viewBox="0 0 270.000000 270.000000"
 preserveAspectRatio="xMidYMid meet">
<metadata>
Created by potrace 1.14, written by Peter Selinger 2001-2017
</metadata>
<g transform="translate(0.000000,270.000000) scale(0.100000,-0.100000)"
fill="#000000" stroke="none">
<path d="M1300 2480 c0 -216 0 -220 20 -210 10 6 23 9 27 8 4 -2 18 4 30 13
21 15 22 22 23 180 2 258 8 229 -50 229 l-50 0 0 -220z"/>
<path d="M1068 2673 c-16 -2 -28 -9 -28 -16 0 -14 89 -467 95 -486 4 -11 10
-10 30 3 27 18 39 21 30 7 -3 -5 -1 -12 4 -15 5 -4 8 2 6 11 -1 10 3 25 10 33
11 12 5 54 -31 235 -24 121 -43 223 -44 228 0 7 -23 7 -72 0z"/>
<path d="M1546 2604 c-9 -44 -18 -93 -20 -111 -3 -18 -7 -40 -10 -50 -13 -42
-23 -112 -15 -107 5 3 16 -2 25 -10 12 -13 13 -16 1 -16 -7 0 -14 -6 -15 -12
-5 -56 -10 -95 -15 -108 -3 -8 -8 -27 -11 -42 -3 -14 -9 -34 -12 -45 -5 -15
-4 -15 5 -3 9 13 11 13 11 -2 0 -9 -4 -18 -9 -20 -5 -1 -11 -14 -13 -28 -2
-19 1 -25 14 -24 10 1 15 -3 12 -8 -3 -5 -12 -7 -20 -4 -7 3 -16 1 -19 -4 -4
-6 -2 -10 3 -10 15 0 23 -28 10 -36 -6 -4 -8 -3 -4 4 3 6 1 14 -5 17 -7 5 -10
0 -7 -11 2 -11 12 -19 25 -20 16 -1 20 4 18 22 -1 13 1 24 5 24 5 0 7 8 5 18
-1 9 -10 16 -19 16 -8 -1 -13 2 -10 8 3 5 14 6 24 3 15 -5 18 -1 15 22 -2 15
2 34 9 42 9 12 8 14 -6 8 -23 -8 -32 8 -18 30 9 16 10 15 5 -4 -5 -18 -3 -22
9 -17 9 3 17 14 18 23 4 37 5 47 11 61 3 8 8 29 11 47 2 17 7 36 10 42 3 5 0
12 -6 14 -10 4 -10 6 0 6 6 1 12 6 12 12 0 6 8 18 19 27 21 19 79 288 64 303
-4 4 -26 11 -49 14 l-41 7 -17 -78z m-14 -351 c-6 -2 -9 -10 -6 -15 4 -7 2 -8
-5 -4 -13 9 -5 26 12 25 9 0 8 -2 -1 -6z m-7 -81 c-3 -3 -11 0 -18 7 -9 10 -8
11 6 5 10 -3 15 -9 12 -12z"/>
<path d="M838 2600 c-21 -9 -41 -19 -44 -23 -5 -4 97 -261 194 -489 11 -24 22
-36 34 -35 10 1 18 6 18 12 0 5 11 20 24 33 l24 22 -98 234 c-54 129 -102 240
-106 248 -8 13 -14 13 -46 -2z"/>
<path d="M1767 2493 c-33 -83 -44 -119 -36 -124 9 -5 6 -22 -10 -62 -13 -31
-20 -61 -15 -68 4 -7 3 -9 -3 -6 -13 8 -26 -20 -16 -35 3 -7 1 -8 -5 -4 -7 4
-15 -9 -23 -36 -6 -24 -10 -44 -10 -46 1 -1 -5 -10 -14 -19 -9 -8 -14 -21 -11
-29 3 -7 0 -14 -5 -16 -6 -2 -11 -10 -12 -18 -2 -8 -7 -21 -11 -29 -7 -10 -5
-12 5 -7 8 4 6 1 -3 -6 -19 -16 -38 -75 -20 -64 6 3 13 0 16 -6 5 -10 7 -10
12 -1 3 7 5 15 4 19 -1 4 3 10 8 13 6 3 12 15 14 26 1 11 7 23 11 26 5 3 9 12
10 20 2 8 6 20 10 27 5 6 5 17 1 24 -4 6 -3 8 4 4 13 -8 26 29 16 45 -4 7 -3
10 2 6 5 -3 32 49 59 115 31 76 56 123 67 126 10 2 32 43 57 102 23 54 41 101
41 104 0 7 -68 36 -84 36 -6 0 -32 -53 -59 -117z"/>
<path d="M600 2474 c-19 -14 -34 -30 -32 -37 2 -7 80 -128 174 -269 166 -249
172 -256 184 -232 7 13 20 32 29 40 9 9 15 22 13 29 -4 16 -321 495 -328 494
-3 0 -21 -11 -40 -25z"/>
<path d="M2008 2428 c-28 -43 -44 -76 -39 -83 5 -6 -47 -94 -130 -218 -77
-115 -136 -213 -133 -219 4 -7 2 -8 -4 -4 -6 3 -16 -2 -22 -13 -8 -16 -6 -22
10 -31 21 -11 40 -6 40 11 0 5 15 31 34 58 19 27 32 52 29 55 -4 3 -1 6 5 6 6
0 62 76 124 170 66 99 118 168 125 165 11 -4 100 113 91 119 -1 1 -19 15 -39
29 -20 15 -38 27 -40 27 -2 0 -25 -33 -51 -72z"/>
<path d="M399 2311 c-14 -15 -29 -33 -32 -38 -3 -5 101 -117 233 -248 l238
-238 25 50 26 50 -228 226 c-125 125 -229 227 -231 227 -3 0 -17 -13 -31 -29z"/>
<path d="M2236 2309 c-26 -23 -34 -35 -26 -43 7 -7 -55 -76 -217 -238 -215
-215 -227 -229 -210 -245 16 -16 29 -5 248 212 149 149 237 229 248 228 10 -1
28 8 40 21 l21 22 -34 38 -33 38 -37 -33z"/>
<path d="M1324 2258 c-4 -6 -2 -8 4 -4 6 3 13 2 17 -4 9 -14 25 -12 25 3 0 16
-37 20 -46 5z"/>
<path d="M1331 2212 c2 -15 0 -33 -5 -40 -4 -8 -3 -11 5 -10 6 2 14 -3 17 -11
2 -8 0 -11 -6 -7 -6 3 -14 1 -18 -5 -4 -7 -3 -9 3 -6 12 8 36 -17 26 -26 -3
-4 -1 -7 6 -7 13 0 11 36 -3 59 -7 11 -5 13 6 9 16 -6 18 17 4 40 -4 6 -4 12
1 12 10 0 -19 20 -30 20 -5 0 -7 -12 -6 -28z m27 -3 c10 -13 10 -19 -1 -27 -9
-8 -13 -4 -13 19 -1 17 -1 29 0 27 1 -2 7 -10 14 -19z"/>
<path d="M1170 2161 c0 -5 7 -12 16 -15 14 -5 15 -4 4 9 -14 17 -20 19 -20 6z"/>
<path d="M226 2099 c-15 -22 -27 -42 -25 -43 41 -35 583 -385 589 -381 14 9
33 86 23 95 -4 4 -118 81 -253 170 -135 90 -256 171 -269 182 -13 10 -26 18
-30 18 -3 0 -19 -19 -35 -41z"/>
<path d="M2427 2134 c-3 -3 -4 -11 -1 -18 3 -7 -116 -93 -286 -206 -159 -107
-290 -200 -290 -206 0 -6 6 -16 13 -22 10 -9 84 36 311 188 181 120 304 196
313 193 10 -4 5 9 -12 35 -27 41 -36 48 -48 36z"/>
<path d="M1179 2117 c6 -8 7 -18 3 -22 -4 -5 -2 -5 5 -1 6 3 14 2 18 -4 3 -5
1 -10 -4 -10 -6 0 -10 -11 -9 -25 1 -14 6 -25 11 -25 4 0 6 -4 3 -8 -2 -4 5
-9 17 -9 20 -2 20 -1 5 8 -10 6 -18 15 -18 21 0 6 7 5 18 -3 15 -12 16 -12 5
2 -7 9 -9 20 -5 25 4 4 -1 2 -10 -5 -13 -9 -18 -10 -18 -2 0 6 6 14 14 17 10
4 8 11 -11 30 -25 25 -43 33 -24 11z"/>
<path d="M1205 2120 c3 -5 8 -10 11 -10 2 0 4 5 4 10 0 6 -5 10 -11 10 -5 0
-7 -4 -4 -10z"/>
<path d="M1330 2105 c0 -8 5 -15 11 -15 5 0 7 -5 4 -10 -4 -6 -12 -7 -18 -3
-8 5 -8 2 0 -9 7 -8 10 -18 6 -21 -11 -12 -9 -55 3 -50 13 5 15 33 2 33 -5 0
-6 5 -2 11 4 8 9 7 15 -2 4 -7 5 -17 3 -21 -3 -4 2 -8 11 -8 10 0 13 4 8 13
-10 16 -10 41 1 48 5 4 -1 12 -13 18 -12 7 -19 16 -16 22 4 5 1 9 -4 9 -6 0
-11 -7 -11 -15z m27 -40 c0 -8 -4 -12 -9 -9 -5 3 -6 10 -3 15 9 13 12 11 12
-6z"/>
<path d="M1054 2066 c1 -8 5 -18 8 -22 4 -3 5 1 4 10 -1 8 -5 18 -8 22 -4 3
-5 -1 -4 -10z"/>
<path d="M1072 2008 c-9 -12 -8 -14 8 -13 11 1 23 5 27 10 5 4 3 5 -4 2 -6 -4
-13 -2 -15 4 -2 7 -8 6 -16 -3z"/>
<path d="M1205 1989 c-3 -5 0 -6 8 -3 8 3 14 -2 14 -11 0 -10 -6 -14 -16 -10
-12 5 -13 3 -4 -5 8 -9 16 -9 30 -1 11 7 13 10 4 11 -10 0 -11 3 -3 13 8 10 6
13 -8 14 -11 1 -22 -2 -25 -8z"/>
<path d="M1341 1982 c-8 -15 -5 -18 12 -19 12 0 16 1 10 4 -7 3 -13 9 -13 14
0 6 5 7 10 4 6 -3 10 -1 10 4 0 17 -18 13 -29 -7z"/>
<path d="M1084 1959 c-3 -6 -2 -15 4 -21 6 -6 12 -6 17 3 6 8 4 10 -5 4 -10
-6 -12 -4 -7 8 7 19 2 23 -9 6z"/>
<path d="M976 1918 c3 -5 10 -6 15 -3 13 9 11 12 -6 12 -8 0 -12 -4 -9 -9z"/>
<path d="M103 1868 c-10 -24 -17 -45 -16 -47 1 -2 152 -66 335 -142 l333 -138
12 47 c7 26 9 50 5 53 -8 8 -636 269 -646 269 -3 0 -14 -19 -23 -42z"/>
<path d="M2485 1850 c-49 -21 -106 -45 -125 -53 -19 -9 -125 -52 -235 -98
-110 -45 -204 -85 -208 -89 -5 -5 -6 -17 -2 -29 7 -24 -31 -38 377 131 312
129 316 131 305 155 -5 12 -13 23 -16 22 -3 -1 -46 -18 -96 -39z"/>
<path d="M25 1614 c-3 -25 -5 -47 -3 -49 3 -3 104 -25 178 -39 14 -2 59 -11
100 -20 41 -8 89 -18 105 -21 46 -8 70 -12 204 -40 68 -14 126 -23 129 -21 2
3 5 26 6 52 1 34 -3 47 -14 49 -8 2 -164 33 -346 69 -182 36 -335 66 -341 66
-6 0 -14 -21 -18 -46z"/>
<path d="M2303 1567 c-349 -70 -353 -71 -353 -95 0 -23 2 -24 43 -19 23 4 53
9 67 12 31 6 166 33 200 40 14 3 41 8 60 11 19 3 51 9 70 14 19 5 51 12 70 15
19 3 69 13 110 22 41 8 82 16 90 18 8 1 15 7 14 13 -3 36 -5 42 -11 41 -5 -1
-167 -33 -360 -72z"/>
<path d="M0 1350 l0 -50 70 0 c39 0 144 -1 235 -1 91 0 226 1 300 1 l135 0 0
50 0 50 -370 0 -370 0 0 -50z"/>
<path d="M1963 1363 c-14 -37 -7 -38 371 -38 l367 0 -3 25 -3 25 -364 0 c-278
0 -365 -3 -368 -12z"/>
<path d="M699 1276 c-2 -3 -16 -7 -29 -9 -14 -3 -167 -33 -341 -67 l-315 -62
10 -49 c11 -53 14 -55 81 -39 22 5 51 11 65 13 14 3 97 19 185 37 88 17 171
34 185 36 62 12 177 35 193 40 15 5 17 13 13 47 -3 23 -5 45 -5 50 -1 7 -35
10 -42 3z"/>
<path d="M1950 1226 c0 -21 7 -24 88 -40 48 -9 98 -19 112 -22 61 -12 127 -25
150 -29 14 -3 102 -20 195 -39 94 -19 171 -34 171 -33 1 1 5 12 8 24 5 16 2
23 -11 27 -30 10 -676 136 -695 136 -12 0 -18 -8 -18 -24z"/>
<path d="M740 1152 c-8 -3 -150 -61 -315 -129 -165 -69 -310 -129 -322 -134
l-22 -8 19 -43 c14 -30 25 -42 38 -41 20 2 623 251 634 261 4 4 2 28 -5 53 -9
33 -16 45 -27 41z"/>
<path d="M1915 1119 c-4 -12 -3 -24 2 -28 4 -5 152 -68 328 -140 176 -73 325
-135 331 -137 6 -3 15 6 21 19 11 23 8 25 -215 117 -125 51 -249 103 -277 115
-27 12 -57 25 -65 27 -8 3 -38 15 -67 27 l-52 20 -6 -20z"/>
<path d="M500 844 c-151 -102 -281 -189 -289 -193 -10 -6 -8 -16 14 -49 24
-37 30 -40 49 -30 11 6 139 90 284 187 262 174 263 175 256 205 -8 37 -22 66
-32 66 -4 0 -131 -84 -282 -186z"/>
<path d="M1861 1011 c-6 -11 -11 -22 -11 -24 0 -2 131 -91 290 -197 188 -125
289 -198 288 -208 -6 -30 18 -21 45 18 23 33 25 39 10 38 -10 -1 -146 84 -303
188 -157 105 -290 194 -297 198 -7 4 -16 -2 -22 -13z"/>
<path d="M1780 915 c-10 -12 -10 -18 0 -30 7 -8 17 -12 23 -8 5 3 7 2 4 -4 -3
-5 88 -103 203 -218 140 -140 205 -212 197 -217 -8 -5 -1 -18 24 -44 l36 -36
37 34 37 34 -20 26 c-13 16 -28 24 -38 22 -13 -3 -85 62 -248 226 -126 126
-233 230 -236 230 -4 0 -12 -7 -19 -15z"/>
<path d="M597 672 l-238 -238 35 -40 35 -39 231 231 232 231 -29 46 -29 46
-237 -237z"/>
<path d="M1688 838 c-14 -11 -12 -18 25 -72 22 -34 44 -62 49 -64 4 -2 8 -9 8
-15 0 -7 47 -82 104 -167 63 -94 100 -159 95 -166 -6 -8 50 -108 87 -152 3 -4
84 49 84 55 0 16 -83 121 -93 118 -7 -3 -68 79 -147 198 -74 111 -138 204
-142 205 -5 2 -8 9 -8 15 -1 12 -35 58 -42 56 -1 0 -10 -5 -20 -11z"/>
<path d="M1578 780 c-13 -8 -14 -14 -5 -35 7 -14 17 -23 23 -21 6 2 11 -2 11
-10 0 -7 -4 -11 -9 -8 -12 7 -10 3 12 -44 11 -22 20 -46 20 -52 0 -5 5 -10 11
-10 5 0 8 -4 5 -9 -5 -8 30 -101 54 -143 6 -10 10 -25 10 -33 0 -8 5 -15 10
-15 5 0 9 -3 9 -7 -1 -5 0 -10 1 -13 7 -20 7 -45 -1 -50 -5 -4 7 -47 29 -101
51 -124 67 -155 76 -140 4 6 15 11 25 11 9 0 25 6 35 13 17 13 16 19 -24 115
-23 56 -48 102 -56 102 -7 0 -20 18 -30 40 -10 21 -20 37 -23 35 -3 -1 -7 8
-7 21 -1 13 -11 44 -23 69 -12 25 -21 50 -21 55 0 6 -5 8 -12 4 -6 -4 -8 -3
-5 4 10 15 -3 43 -16 35 -6 -3 -7 -1 -3 6 9 14 -23 103 -35 96 -4 -3 -11 0
-15 6 -5 8 -3 9 6 4 9 -6 10 -2 5 16 -4 13 -12 27 -17 30 -5 3 -9 9 -9 13 4
28 -3 32 -31 16z"/>
<path d="M735 523 c-94 -141 -171 -259 -173 -263 -3 -7 78 -64 83 -58 13 16
325 488 325 493 0 10 -45 75 -55 79 -6 2 -87 -111 -180 -251z"/>
<path d="M1096 757 c3 -10 9 -15 12 -12 3 3 0 11 -7 18 -10 9 -11 8 -5 -6z"/>
<path d="M1213 731 c-10 -15 -9 -20 1 -24 7 -3 12 -16 10 -29 -1 -12 -3 -27
-3 -31 -1 -5 -5 -6 -11 -2 -5 3 -7 12 -3 20 3 8 0 15 -5 15 -6 0 -9 -8 -7 -19
2 -10 -3 -31 -11 -46 -12 -24 -12 -26 1 -15 12 10 16 10 19 -1 13 -41 14 -43
15 -22 1 12 -3 25 -9 28 -5 3 -10 14 -10 23 1 15 2 15 15 -2 14 -18 14 -18 14
0 0 11 2 31 4 47 2 15 0 30 -4 33 -5 3 -9 10 -9 16 0 7 4 7 13 -1 10 -8 14 -7
14 4 0 8 -4 12 -8 9 -4 -2 -9 0 -11 6 -2 6 -8 2 -15 -9z"/>
<path d="M1460 737 c0 -4 -5 -5 -12 -1 -7 5 -8 3 -3 -7 8 -12 12 -27 17 -66 1
-7 4 -13 8 -13 4 0 6 -13 4 -29 -2 -21 2 -31 19 -40 12 -6 14 -9 5 -7 -21 6
-23 -4 -5 -23 9 -11 9 -12 0 -7 -9 5 -11 2 -7 -8 3 -9 11 -13 18 -9 6 3 6 1
-1 -8 -18 -19 -16 -29 7 -29 11 0 20 -4 20 -10 0 -5 -6 -7 -14 -4 -23 9 -13
-26 13 -48 13 -10 19 -18 14 -18 -5 0 -15 6 -21 12 -10 10 -12 8 -9 -9 2 -13
6 -26 10 -29 14 -14 7 -26 -12 -21 -18 4 -18 2 -6 -50 7 -29 13 -56 13 -59 0
-2 10 -57 22 -122 l23 -118 49 10 c57 12 55 -5 18 186 -16 83 -28 120 -43 133
-11 9 -21 32 -23 50 -2 17 -8 33 -12 35 -5 1 -7 16 -6 32 1 17 -2 32 -6 35 -4
3 -6 14 -3 25 4 14 1 20 -7 18 -7 -2 -15 3 -17 10 -3 7 1 10 10 6 12 -4 14 0
10 14 -3 11 -14 23 -25 25 -11 3 -17 10 -14 15 3 6 1 13 -4 15 -6 3 -5 4 2 2
7 -1 12 -8 11 -14 -2 -6 2 -11 8 -11 7 0 9 9 5 23 -3 12 -6 32 -6 45 0 13 -4
21 -8 18 -4 -2 -6 11 -4 29 4 29 1 34 -17 32 -12 -1 -21 -5 -21 -10z m30 -17
c0 -5 -4 -10 -10 -10 -5 0 -7 -8 -4 -17 5 -14 4 -15 -4 -4 -11 15 -5 41 9 41
5 0 9 -4 9 -10z"/>
<path d="M1333 701 c0 -20 -3 -43 -7 -49 -4 -8 -3 -11 5 -10 6 2 14 -3 17 -11
2 -8 0 -11 -6 -7 -6 3 -14 1 -18 -5 -4 -7 -3 -9 4 -5 6 3 14 1 19 -6 11 -19
13 -39 2 -32 -5 3 -7 10 -4 15 4 5 1 9 -4 9 -17 0 -13 -27 5 -34 23 -9 27 -8
20 9 -3 8 0 15 6 15 7 0 6 5 -2 15 -7 8 -9 15 -5 15 4 0 1 8 -6 17 -12 14 -12
16 2 11 11 -4 15 0 14 13 -1 10 -4 22 -8 25 -4 4 -2 13 4 20 10 12 7 16 -22
27 -13 4 -16 -2 -16 -32z m28 10 c-12 -8 -12 -13 -3 -24 10 -11 9 -17 -1 -25
-11 -9 -13 -5 -11 21 2 39 1 37 17 37 8 0 8 -3 -2 -9z"/>
<path d="M1079 689 l-24 -20 28 17 c15 9 27 18 27 20 0 8 -8 4 -31 -17z"/>
<path d="M1047 659 c7 -7 15 -10 18 -7 3 3 -2 9 -12 12 -14 6 -15 5 -6 -5z"/>
<path d="M896 389 c-58 -143 -105 -263 -102 -268 6 -9 85 -36 89 -30 2 2 49
114 105 249 l101 245 -24 20 c-14 12 -25 25 -25 31 0 5 -8 10 -18 11 -15 1
-39 -48 -126 -258z"/>
<path d="M1183 555 c-8 -22 5 -31 20 -15 10 10 9 11 -2 5 -11 -6 -13 -4 -8 8
3 10 4 17 1 17 -2 0 -7 -7 -11 -15z"/>
<path d="M1329 541 c6 -10 5 -24 -1 -35 -7 -13 -7 -17 0 -12 6 3 13 2 17 -4
13 -20 23 -9 23 25 0 19 -3 35 -6 36 -4 0 -15 2 -24 4 -14 2 -16 -1 -9 -14z
m26 -21 c2 -12 1 -20 -2 -16 -4 4 -8 16 -10 28 -4 28 6 18 12 -12z"/>
<path d="M1135 529 c-2 -8 -6 -25 -9 -39 -2 -14 -23 -121 -47 -238 -23 -116
-40 -214 -38 -216 2 -2 25 -7 50 -11 l46 -7 45 229 c39 196 44 230 32 244 -8
9 -11 19 -7 24 5 4 3 5 -4 1 -7 -4 -24 1 -38 10 -20 13 -26 14 -30 3z"/>
<path d="M1330 460 c0 -11 4 -20 10 -20 5 0 7 8 4 18 -5 14 -4 14 4 2 6 -8 8
-18 5 -24 -3 -5 -1 -6 5 -2 17 10 15 33 -4 40 -23 9 -24 8 -24 -14z"/>
<path d="M1300 220 l0 -220 49 0 50 0 3 137 c2 76 2 165 0 198 -3 57 -5 62
-35 77 -72 36 -67 52 -67 -192z"/>
</g>
</svg>
