<!-- source: DFINITY foundation -->
<svg width="64" height="64" viewBox="0 0 64 64" fill="none" xmlns="http://www.w3.org/2000/svg">
    <g clip-path="url(#clip0_7015_18619)">
        <rect width="64" height="64" fill="url(#paint0_linear_7015_18619)"/>
        <path d="M45.4068 13.6979C51.0901 17.8254 54.7855 24.5236 54.7855 32.0849C54.7855 44.6269 44.6181 54.7943 32.0761 54.7943C27.0953 54.7943 22.4891 53.1908 18.7454 50.4719C13.0621 46.3443 9.3667 39.6462 9.3667 32.0849C9.3667 19.5428 19.534 9.37549 32.0761 9.37549C37.0569 9.37549 41.6631 10.979 45.4068 13.6979Z" fill="#0066FF"/>
        <path fill-rule="evenodd" clip-rule="evenodd" d="M52.417 30.3641C52.417 22.8059 48.7245 16.11 43.045 11.982L45.4068 13.698C51.0901 17.8255 54.7855 24.5237 54.7855 32.085L52.417 30.3641ZM16.3768 48.7512C20.1205 51.4701 24.7268 53.0736 29.7076 53.0736L29.7079 53.0738C42.2498 53.0737 52.417 42.9064 52.417 30.3644L54.7855 32.0852C54.7855 44.6273 44.6181 54.7946 32.0761 54.7946L32.0758 54.7944C27.0951 54.7943 22.4889 53.1909 18.7453 50.472L16.3768 48.7512Z" fill="#0754C8"/>
        <path fill-rule="evenodd" clip-rule="evenodd" d="M29.9476 43.1631L28.7845 45.3506C28.6108 45.6773 28.2129 45.8205 27.8721 45.6755C27.0954 45.345 26.3129 44.9932 25.526 44.6245C25.1646 44.4552 25.0225 44.0227 25.2097 43.6706L26.2628 41.6901C25.9436 41.5389 25.6237 41.3819 25.3035 41.2196C25.0151 41.0719 24.7306 40.922 24.4503 40.7699L23.3976 42.7498C23.2105 43.1017 22.7675 43.2359 22.4185 43.0438C21.6583 42.6252 20.9148 42.2005 20.1923 41.7687C19.8747 41.5789 19.7657 41.1771 19.9396 40.8501L21.0968 38.6738C16.4354 35.2703 14.0942 30.9094 17.1286 25.2563L17.866 23.8695C20.8613 18.1823 25.8499 17.5643 31.37 19.3526L32.5264 17.1777C32.7003 16.8507 33.099 16.7076 33.44 16.8534C34.2158 17.185 34.9976 17.5376 35.784 17.907C36.1449 18.0766 36.2868 18.5088 36.0996 18.8607L35.0469 20.8406C35.335 20.978 35.6236 21.1202 35.9126 21.2667C36.2326 21.4298 36.5478 21.5956 36.8576 21.7642L37.9097 19.7855C38.0969 19.4334 38.5403 19.2992 38.8892 19.4918C39.6492 19.9113 40.3924 20.3369 41.1145 20.77C41.4314 20.96 41.5399 21.3613 41.3662 21.688L40.2062 23.8695C44.7996 27.2552 47.0659 31.5942 44.0732 37.2227L43.3358 38.6095C40.3659 44.2485 35.4196 44.9016 29.9476 43.1631ZM39.8803 36.4485L40.2953 35.6681C43.1214 30.5257 39.2394 27.3455 34.1212 24.6475C28.9035 22.0791 24.0156 20.7908 21.334 26.0068L20.9191 26.7873C18.0804 31.9533 21.9623 35.1335 27.1046 37.8438C32.2983 40.3999 37.1862 41.6882 39.8803 36.4485Z" fill="white"/>
    </g>
    <defs>
        <linearGradient id="paint0_linear_7015_18619" x1="32" y1="-7.02812" x2="32" y2="64" gradientUnits="userSpaceOnUse">
            <stop stop-color="#514EC9"/>
            <stop offset="0.526006" stop-color="#D2A9D5"/>
            <stop offset="1" stop-color="#FECCA4"/>
        </linearGradient>
        <clipPath id="clip0_7015_18619">
            <rect width="64" height="64" fill="white"/>
        </clipPath>
    </defs>
</svg>