<svg width="16" height="16" fill="none" xmlns="http://www.w3.org/2000/svg">
  <path d="M13.4 7.4h-.954l.78-.774a.604.604 0 0 0-.852-.852L10.754 7.4H9.446l1.38-1.374a.604.604 0 0 0-.852-.852L8.6 6.554V5.246l1.626-1.62a.604.604 0 0 0-.852-.852l-.774.78V2.6a.6.6 0 1 0-1.2 0v.954l-.774-.78a.603.603 0 0 0-.852.852L7.4 5.246v1.308l-1.374-1.38a.603.603 0 0 0-.852.852L6.554 7.4H5.246l-1.62-1.626a.602.602 0 0 0-.852.852l.78.774H2.6a.6.6 0 1 0 0 1.2h.954l-.78.774a.6.6 0 0 0 .195.983.6.6 0 0 0 .657-.131L5.246 8.6h1.308l-1.38 1.374a.6.6 0 0 0 0 .852.6.6 0 0 0 .852 0L7.4 9.446v1.308l-1.626 1.62a.602.602 0 0 0 .852.852l.774-.78v.954a.6.6 0 0 0 1.2 0v-.954l.774.78a.6.6 0 0 0 .983-.195.6.6 0 0 0-.131-.657L8.6 10.754V9.446l1.374 1.38a.6.6 0 0 0 .852 0 .6.6 0 0 0 0-.852L9.446 8.6h1.308l1.62 1.626a.6.6 0 0 0 .852 0 .6.6 0 0 0 0-.852l-.78-.774h.954a.6.6 0 0 0 0-1.2Z" fill="#fff"/>
</svg>
