<svg width="16" height="16" fill="none" xmlns="http://www.w3.org/2000/svg">
  <path d="m13.308 9.324.192.722-1.165.309.308 1.171-.722.192-.367-1.38-3.181-1.836v3.676l1.008 1.008-.525.525L8 12.86l-.856.85-.525-.525 1.008-1.008V8.502l-3.181 1.835-.367 1.381-.723-.192.31-1.171-1.166-.309.192-.722 1.381.367 3.181-1.836-3.18-1.835-1.382.367-.192-.722 1.165-.31-.309-1.17.723-.192.367 1.38L7.627 7.21V3.532L6.62 2.524 7.144 2 8 2.85 8.856 2l.525.524-1.008 1.008V7.21l3.181-1.836.367-1.38.723.192-.31 1.17 1.166.31-.192.722-1.381-.367-3.181 1.835 3.18 1.836 1.382-.367Z" fill="#fff"/>
</svg>
