<svg width="48" height="48" viewBox="0 0 48 48" fill="none" xmlns="http://www.w3.org/2000/svg">
    <circle cx="24" cy="24" r="24" fill="white"/>
    <circle cx="24" cy="24" r="23.75" stroke="black" stroke-opacity="0.16" stroke-width="0.5"/>
    <path fill-rule="evenodd" clip-rule="evenodd"
          d="M15.5 11C12.8766 11 10.75 13.1266 10.75 15.75C10.75 18.3734 12.8766 20.5 15.5 20.5C16.3573 20.5 17.1622 20.2727 17.857 19.8749L19.51 21.5279C19.0277 22.3218 18.75 23.2538 18.75 24.25C18.75 25.2463 19.0278 26.1784 19.5101 26.9723L16.9891 29.4933C16.3954 29.1784 15.7182 29 15 29C12.6528 29 10.75 30.9028 10.75 33.25C10.75 35.5972 12.6528 37.5 15 37.5C17.3472 37.5 19.25 35.5972 19.25 33.25C19.25 32.5319 19.0717 31.8547 18.7568 31.2611L21.2779 28.74C22.0718 29.2223 23.0038 29.5 24 29.5C24.9962 29.5 25.9282 29.2223 26.7221 28.74L29.3751 31.393C28.9773 32.0878 28.75 32.8927 28.75 33.75C28.75 36.3734 30.8766 38.5 33.5 38.5C36.1234 38.5 38.25 36.3734 38.25 33.75C38.25 31.1266 36.1234 29 33.5 29C32.6426 29 31.8376 29.2274 31.1429 29.6252L28.4899 26.9723C28.9722 26.1784 29.25 25.2463 29.25 24.25C29.25 23.385 29.0406 22.5682 28.6696 21.8483L30.3501 20.1678C30.8577 20.3818 31.4153 20.5 32 20.5C34.3472 20.5 36.25 18.5972 36.25 16.25C36.25 13.9028 34.3472 12 32 12C29.6528 12 27.75 13.9028 27.75 16.25C27.75 17.0989 27.9991 17.8902 28.4282 18.5541L27.0243 19.9581C26.1693 19.3546 25.1258 19 24 19C23.0037 19 22.0716 19.2778 21.2777 19.7601L19.6248 18.1071C20.0226 17.4124 20.25 16.6074 20.25 15.75C20.25 13.1266 18.1234 11 15.5 11ZM13.25 15.75C13.25 14.5074 14.2574 13.5 15.5 13.5C16.7426 13.5 17.75 14.5074 17.75 15.75C17.75 16.9926 16.7426 18 15.5 18C14.2574 18 13.25 16.9926 13.25 15.75ZM30.25 16.25C30.25 15.2835 31.0335 14.5 32 14.5C32.9665 14.5 33.75 15.2835 33.75 16.25C33.75 17.2165 32.9665 18 32 18C31.0335 18 30.25 17.2165 30.25 16.25ZM21.25 24.25C21.25 22.7312 22.4812 21.5 24 21.5C25.5188 21.5 26.75 22.7312 26.75 24.25C26.75 25.7688 25.5188 27 24 27C22.4812 27 21.25 25.7688 21.25 24.25ZM13.25 33.25C13.25 32.2835 14.0335 31.5 15 31.5C15.9665 31.5 16.75 32.2835 16.75 33.25C16.75 34.2165 15.9665 35 15 35C14.0335 35 13.25 34.2165 13.25 33.25ZM31.25 33.75C31.25 32.5074 32.2574 31.5 33.5 31.5C34.7426 31.5 35.75 32.5074 35.75 33.75C35.75 34.9926 34.7426 36 33.5 36C32.2574 36 31.25 34.9926 31.25 33.75Z"
          fill="black"/>
</svg>
