<svg width="48" height="48" viewBox="0 0 48 48" fill="none" xmlns="http://www.w3.org/2000/svg">
<g clip-path="url(#clip0_8234_13660)">
<path d="M48 24C48 10.7452 37.2548 0 24 0C10.7452 0 0 10.7452 0 24C0 37.2548 10.7452 48 24 48C37.2548 48 48 37.2548 48 24Z" fill="white"/>
<path d="M24 0.25C37.1168 0.25 47.75 10.8832 47.75 24C47.75 37.1168 37.1168 47.75 24 47.75C10.8832 47.75 0.25 37.1168 0.25 24C0.250001 10.8832 10.8832 0.250001 24 0.25Z" stroke="black" stroke-opacity="0.16" stroke-width="0.5"/>
<path d="M6.05566 15.2782V32.7225C6.05566 33.837 6.65094 34.8644 7.61335 35.4216L22.7207 44.1407C23.6838 44.6979 24.8737 44.6979 25.8361 44.1407L40.9435 35.4216C41.9066 34.8644 42.5012 33.837 42.5012 32.7225V15.2782C42.5012 14.1637 41.9059 13.1363 40.9435 12.5791L25.8313 3.85935C24.8682 3.30209 23.6783 3.30209 22.7159 3.85935L7.61404 12.5784C6.6461 13.1356 6.05636 14.1685 6.05636 15.2775L6.05566 15.2782Z" fill="#ADB5BD"/>
<path d="M27.5716 27.384L25.4186 33.2905C25.3592 33.453 25.3592 33.6314 25.4186 33.7987L29.1237 43.962L33.4131 41.4848L28.2692 27.3833C28.1503 27.0591 27.6905 27.0591 27.5716 27.3833V27.384Z" fill="white"/>
<path d="M31.8942 17.4468C31.7753 17.1225 31.3155 17.1225 31.1966 17.4468L29.0436 23.3533C28.9842 23.5158 28.9842 23.6941 29.0436 23.8614L35.1126 40.5051L39.4019 38.0279L31.8942 17.4468Z" fill="white"/>
<path d="M24.2728 4.51399C24.3806 4.51399 24.4837 4.54095 24.5811 4.59488L40.9275 14.0336C41.1169 14.1415 41.2359 14.3475 41.2359 14.5639V33.4359C41.2359 33.6523 41.1169 33.8576 40.9275 33.9662L24.5811 43.4049C24.4892 43.4589 24.3813 43.4858 24.2728 43.4858C24.1642 43.4858 24.0619 43.4589 23.9644 43.4049L7.62361 33.9717C7.43417 33.8639 7.31526 33.6578 7.31526 33.4414V14.5639C7.31526 14.3475 7.43417 14.1422 7.62361 14.0336L23.97 4.59488C24.0619 4.54095 24.1698 4.51399 24.2728 4.51399ZM24.2728 1.75537C23.6886 1.75537 23.1099 1.90678 22.5851 2.20408L6.2443 11.6428C5.20032 12.2429 4.55664 13.3575 4.55664 14.5639V33.4359C4.55664 34.6423 5.20032 35.7506 6.2443 36.357L22.5907 45.7957C23.1099 46.0986 23.6941 46.2444 24.2783 46.2444C24.8625 46.2444 25.4412 46.093 25.966 45.7957L42.3123 36.357C43.3563 35.7569 44 34.6423 44 33.4359V14.5639C44 13.3575 43.3563 12.2492 42.3123 11.6428L25.9605 2.20408C25.4412 1.90678 24.857 1.75537 24.2728 1.75537Z" fill="white"/>
<path d="M13.4648 40.5276L14.9686 36.4111L17.992 38.9264L15.1636 41.5066L13.4648 40.5276Z" fill="#ADB5BD"/>
<path d="M22.8983 13.2121H18.7549C18.4465 13.2121 18.1651 13.4071 18.0573 13.6989L9.17578 38.05L13.4651 40.5272L23.2447 13.7092C23.3367 13.4659 23.1583 13.2114 22.8983 13.2114V13.2121Z" fill="white"/>
<path d="M30.146 13.2121H26.0026C25.6942 13.2121 25.4128 13.4071 25.305 13.6989L15.1631 41.5062L19.4524 43.9835L30.4979 13.7092C30.5844 13.4659 30.406 13.2114 30.146 13.2114V13.2121Z" fill="white"/>
</g>
<defs>
<clipPath id="clip0_8234_13660">
<rect width="48" height="48" fill="white"/>
</clipPath>
</defs>
</svg>
