<svg width="48" height="48" viewBox="0 0 48 48" fill="none" xmlns="http://www.w3.org/2000/svg">
    <g clip-path="url(#clip0_7219_24445)">
        <path d="M47.2819 29.8057C44.0762 42.663 31.0524 50.4877 18.1921 47.2815C5.33727 44.0761 -2.4883 31.053 0.718846 18.1967C3.92317 5.33806 16.947 -2.48721 29.8032 0.718162C42.6625 3.92354 50.4876 16.9481 47.2816 29.806L47.2818 29.8057H47.2819Z"
              fill="white"/>
        <path d="M47.039 29.7455L47.0106 29.8594C43.7898 42.5148 30.9408 50.2022 18.2526 47.0389C5.53171 43.867 -2.2123 30.9795 0.961412 18.2573L0.961427 18.2572C4.13236 5.5325 17.0205 -2.21124 29.7428 0.960737L29.8032 0.718226L29.7428 0.96074C42.4681 4.13272 50.2117 17.0216 47.039 29.7455Z"
              stroke="black" stroke-opacity="0.16" stroke-width="0.5"/>
        <path d="M34.5837 20.5807C35.0614 17.3868 32.6296 15.67 29.3042 14.5247L30.3829 10.1983L27.749 9.54205L26.6989 13.7545C26.0064 13.5819 25.2953 13.4191 24.5886 13.2578L25.6464 9.01756L23.0141 8.36133L21.9347 12.6863C21.3617 12.5559 20.7989 12.4269 20.2529 12.2911L20.256 12.2775L16.6238 11.3706L15.9231 14.1834C15.9231 14.1834 17.8772 14.6313 17.8361 14.6589C18.9026 14.9251 19.0955 15.631 19.0635 16.1906L17.8347 21.1194C17.9081 21.138 18.0034 21.165 18.1085 21.2072C18.0206 21.1854 17.9271 21.1616 17.8301 21.1384L16.1077 28.0429C15.9773 28.3669 15.6465 28.8531 14.9008 28.6685C14.9272 28.7067 12.9864 28.1908 12.9864 28.1908L11.6787 31.2054L15.1063 32.0598C15.744 32.2197 16.3688 32.387 16.9842 32.5443L15.8942 36.9203L18.5251 37.5765L19.6045 33.247C20.3232 33.4421 21.0207 33.622 21.7035 33.7916L20.6278 38.1008L23.2618 38.757L24.3516 34.3892C28.843 35.2391 32.2201 34.8965 33.6416 30.8345C34.787 27.5641 33.5846 25.6778 31.2217 24.4477C32.9427 24.0508 34.239 22.919 34.5846 20.581L34.5838 20.5804L34.5837 20.5807ZM28.5658 29.0183C27.7519 32.2887 22.2449 30.5208 20.4595 30.0775L21.9059 24.28C23.6912 24.7257 29.4166 25.6076 28.566 29.0183H28.5658ZM29.3804 20.5333C28.6379 23.508 24.0544 21.9967 22.5676 21.6261L23.8789 16.3682C25.3657 16.7388 30.1539 17.4304 29.3807 20.5333H29.3804Z"
              fill="black"/>
    </g>
    <defs>
        <clipPath id="clip0_7219_24445">
            <rect width="48" height="48" fill="white"/>
        </clipPath>
    </defs>
</svg>
