<svg width="48" height="48" viewBox="0 0 48 48" fill="none" xmlns="http://www.w3.org/2000/svg">
    <g clip-path="url(#clip0_7219_24453)">
        <path d="M47.2819 29.8057C44.0762 42.663 31.0524 50.4877 18.1921 47.2815C5.33727 44.0761 -2.4883 31.053 0.718846 18.1967C3.92317 5.33806 16.947 -2.48721 29.8032 0.718162C42.6625 3.92354 50.4876 16.9481 47.2816 29.806L47.2818 29.8057H47.2819Z"
              fill="white"/>
        <path d="M47.039 29.7455L47.0106 29.8594C43.7898 42.5148 30.9408 50.2022 18.2526 47.0389C5.53171 43.867 -2.2123 30.9795 0.961412 18.2573L0.961427 18.2572C4.13236 5.5325 17.0205 -2.21124 29.7428 0.960737L29.8032 0.718226L29.7428 0.96074C42.4681 4.13272 50.2117 17.0216 47.039 29.7455Z"
              stroke="black" stroke-opacity="0.16" stroke-width="0.5"/>
        <path d="M27.7918 35L23.3438 26.264H21.0398V35H16.5918V12.312H25.4558C29.8718 12.312 32.6878 15.352 32.6878 19.288C32.6878 22.456 30.8318 24.856 27.8558 25.72L32.7198 35H27.7918ZM21.0398 22.456H24.6238C26.8638 22.456 28.1758 21.176 28.1758 19.32C28.1758 17.4 26.8638 16.152 24.6238 16.152H21.0398V22.456Z"
              fill="#ADB5BD"/>
    </g>
    <defs>
        <clipPath id="clip0_7219_24453">
            <rect width="48" height="48" fill="white"/>
        </clipPath>
    </defs>
</svg>
