<svg width="48" height="48" viewBox="0 0 48 48" fill="none" xmlns="http://www.w3.org/2000/svg">
    <g clip-path="url(#clip0_7909_29587)">
        <path d="M48 24C48 10.7452 37.2548 0 24 0C10.7452 0 0 10.7452 0 24C0 37.2548 10.7452 48 24 48C37.2548 48 48 37.2548 48 24Z"
              fill="white"/>
        <path d="M24 0.25C37.1168 0.25 47.75 10.8832 47.75 24C47.75 37.1168 37.1168 47.75 24 47.75C10.8832 47.75 0.25 37.1168 0.25 24C0.250001 10.8832 10.8832 0.250001 24 0.25Z"
              stroke="black" stroke-opacity="0.16" stroke-width="0.5"/>
        <path d="M29.1734 13.2778L22.4758 17.1245V29.13L18.7803 31.2721L15.0622 29.1282V24.842L18.7803 22.7189L21.171 24.1053V20.6374L18.7594 19.2684L12.0635 23.1585V30.8534L18.7821 34.7226L25.4779 30.8534V18.8497L29.1961 16.7057L32.9123 18.8497V23.1168L29.1961 25.2798L26.7845 23.8812V27.3317L29.1734 28.7094L35.9354 24.8629V17.1245L29.1734 13.2778Z"
              fill="black"/>
    </g>
    <defs>
        <clipPath id="clip0_7909_29587">
            <rect width="48" height="48" fill="white"/>
        </clipPath>
    </defs>
</svg>
