<svg width="256" height="256" viewBox="0 0 256 256" fill="none" xmlns="http://www.w3.org/2000/svg">
<g clip-path="url(#clip0_338_31801)">
<rect width="256" height="256" fill="#666666"/>
<path d="M181.454 159.921C179.333 164.913 176.787 169.477 173.893 173.69C169.92 179.424 166.641 183.403 164.133 185.626C160.237 189.254 156.071 191.087 151.596 191.204C148.394 191.204 144.536 190.268 140.023 188.395C135.509 186.523 131.343 185.626 127.562 185.626C123.589 185.626 119.306 186.562 114.754 188.395C110.164 190.268 106.499 191.243 103.683 191.321C99.4007 191.516 95.1184 189.604 90.8749 185.587C88.136 183.168 84.7409 179.073 80.6903 173.261C76.3311 167.02 72.7047 159.843 69.8886 151.612C66.8797 142.718 65.375 134.137 65.375 125.79C65.375 116.233 67.4195 108.003 71.509 101.137C74.7108 95.598 78.9931 91.2292 84.3167 88.0309C89.6791 84.8323 95.4269 83.1939 101.638 83.077C105.033 83.077 109.508 84.1302 115.063 86.2364C120.579 88.3429 124.129 89.3958 125.71 89.3958C126.867 89.3958 130.802 88.1475 137.515 85.6513C143.842 83.3497 149.165 82.4138 153.563 82.7646C165.406 83.7398 174.317 88.4595 180.219 96.9633C169.611 103.438 164.403 112.527 164.48 124.19C164.557 133.279 167.836 140.846 174.24 146.853C177.133 149.622 180.374 151.807 184 153.328C183.151 155.629 182.341 157.814 181.454 159.92L181.454 159.921ZM154.296 51.8322C154.296 58.9704 151.711 65.6016 146.58 71.7646C140.408 79.0978 132.924 83.3105 124.784 82.6477C124.668 81.7894 124.63 80.8924 124.63 79.956C124.63 73.1298 127.561 65.7966 132.808 59.8286C135.431 56.7861 138.749 54.2895 142.761 52.2611C146.773 50.2719 150.592 49.1794 154.141 48.9844C154.219 49.9207 154.296 50.8962 154.296 51.8322Z" fill="white"/>
<path d="M169.808 256H86.1929L128 214.192L169.808 256ZM256 169.809L214.193 128L256 86.1924V169.809ZM41.8081 128L0.000488281 169.808V86.1914L41.8081 128ZM128 41.8076L86.1929 0H169.808L128 41.8076Z" fill="black" fill-opacity="0.5"/>
</g>
<defs>
<clipPath id="clip0_338_31801">
<rect width="256" height="256" fill="white"/>
</clipPath>
</defs>
</svg>
