<svg width="256" height="256" viewBox="0 0 256 256" fill="none" xmlns="http://www.w3.org/2000/svg">
<g clip-path="url(#clip0_338_34106)">
<g clip-path="url(#clip1_338_34106)">
<path d="M0 0H256V256H0V0Z" fill="#00003A"/>
<path d="M56.8887 121.044C56.8905 114.484 58.1843 107.99 60.6962 101.93C63.2081 95.8709 66.8888 90.3657 71.5283 85.7289C76.1678 81.0921 81.6751 77.4145 87.7358 74.906C93.7966 72.3976 100.292 71.1075 106.851 71.1094H138.766C163.769 71.1094 184.917 89.5983 188.259 114.359L190.108 127.913L199.111 184.887H192C184.889 184.887 183.68 177.321 182.727 171.518L181.134 161.719C176.623 168.818 170.394 174.663 163.022 178.713C155.651 182.763 147.376 184.887 138.965 184.887H106.851C100.292 184.889 93.7966 183.599 87.7358 181.09C81.6751 178.582 76.1678 174.904 71.5283 170.268C66.8888 165.631 63.2081 160.126 60.6962 154.066C58.1843 148.007 56.8905 141.512 56.8887 134.953V121.044ZM174.122 116.265C172.963 107.71 168.741 99.8659 162.24 94.1858C155.739 88.5058 147.399 85.3752 138.766 85.3743H106.851C102.165 85.3724 97.5248 86.2935 93.1948 88.0851C88.8647 89.8766 84.9299 92.5035 81.6151 95.8157C78.3002 99.1279 75.6702 103.061 73.8753 107.389C72.0803 111.718 71.1554 116.358 71.1536 121.044V134.953C71.1554 139.639 72.0803 144.279 73.8753 148.607C75.6702 152.936 78.3002 156.869 81.6151 160.181C84.9299 163.493 88.8647 166.12 93.1948 167.911C97.5248 169.703 102.165 170.624 106.851 170.622H138.951C151.694 170.622 163.043 163.895 169.372 153.598C174.464 145.292 174.25 135.01 174.179 125.268L174.108 116.265H174.122Z" fill="white"/>
</g>
<path d="M169.808 256H86.1929L128 214.192L169.808 256ZM41.8081 128L0.000488281 169.808V86.1924L41.8081 128ZM256 169.808L214.193 128L256 86.1924V169.808ZM128 41.8076L86.1929 0H169.808L128 41.8076Z" fill="black" fill-opacity="0.5"/>
</g>
<defs>
<clipPath id="clip0_338_34106">
<rect width="256" height="256" fill="white"/>
</clipPath>
<clipPath id="clip1_338_34106">
<rect width="256" height="256" fill="white"/>
</clipPath>
</defs>
</svg>
