<svg width="256" height="256" viewBox="0 0 256 256" fill="none" xmlns="http://www.w3.org/2000/svg">
<g clip-path="url(#clip0_338_31839)">
<rect width="256" height="256" fill="#159BD7"/>
<path d="M175.397 73.8984H58.1177V91.9215H169.542V91.9378C172.767 91.9378 175.343 94.5245 175.343 97.7358V158.258L175.328 158.309C175.308 161.506 172.707 164.076 169.516 164.076H81.9517C78.7459 164.076 76.1223 161.486 76.1223 158.257V133.807C76.1223 130.596 78.7459 127.989 81.9517 127.989H157.286V109.99H76.0879C66.1629 109.99 58.1172 118.021 58.1172 127.939V164.126C58.1172 174.051 66.1629 182.094 76.0879 182.094H175.396C185.33 182.094 193.364 174.051 193.364 164.126V91.872C193.364 81.9483 185.33 73.8984 175.397 73.8984Z" fill="white"/>
<path d="M169.808 256H86.1929L128 214.192L169.808 256ZM256 169.809L214.193 128L256 86.1924V169.809ZM41.8081 128L0.000488281 169.808V86.1914L41.8081 128ZM128 41.8076L86.1929 0H169.808L128 41.8076Z" fill="black" fill-opacity="0.5"/>
</g>
<defs>
<clipPath id="clip0_338_31839">
<rect width="256" height="256" fill="white"/>
</clipPath>
</defs>
</svg>
