<svg width="256" height="256" viewBox="0 0 256 256" fill="none" xmlns="http://www.w3.org/2000/svg">
<g clip-path="url(#clip0_451_28781)">
<path d="M0 0H256V256H0V0Z" fill="#005590"/>
<g clip-path="url(#clip1_451_28781)">
<path d="M0 0H256V256H0V0Z" fill="#E73B29"/>
<path d="M107.236 201.809L106.525 201.524L56.4623 175.924C51.2001 173.364 51.2001 168.671 56.4623 165.969L118.329 134.253C123.591 131.551 132.551 131.551 137.671 134.253L196.409 164.12L199.538 165.684C204.8 168.529 204.8 173.08 199.538 175.64L150.471 200.955L149.333 201.524C133.405 210.627 123.022 209.062 107.236 201.809Z" fill="#741E15"/>
<path d="M187.307 64.5738L189.867 65.996C194.702 68.4138 194.702 72.1116 189.867 74.5294L146.773 95.8627L145.778 96.2894C141.084 98.7071 137.244 104.823 137.387 109.943V171.525C137.387 176.645 141.653 179.063 146.489 176.645L190.151 154.743C194.987 152.325 199.111 146.209 199.111 140.947V79.6494C199.111 79.6494 198.827 70.5471 190.436 65.996M65.7067 65.8538C61.0133 68.1294 61.0133 71.9694 65.7067 74.3871L109.227 95.7205L109.938 96.0049C114.773 98.4227 118.471 104.538 118.471 109.8V170.956C118.471 176.218 114.773 178.494 109.938 176.218L65.8489 154.458C61.1555 152.04 56.8889 145.925 56.8889 140.805V79.2227C56.8889 79.2227 56.6044 70.8316 64.8533 66.2805M121.173 78.5116L104.107 70.4049C102.116 69.5516 102.116 68.1294 104.107 67.276L125.013 57.4627C126.044 57.0082 127.158 56.7734 128.284 56.7734C129.411 56.7734 130.525 57.0082 131.556 57.4627L151.467 66.7071L152.462 67.276C154.311 68.1294 154.311 69.5516 152.462 70.4049L135.822 78.3694C130.56 81.2138 126.436 80.7871 121.173 78.5116Z" fill="#F0F3FA"/>
</g>
<path d="M169.808 256H86.1929L128 214.192L169.808 256ZM41.8081 128L0.000488281 169.808V86.1924L41.8081 128ZM256 169.808L214.193 128L256 86.1924V169.808ZM128 41.8076L86.1929 0H169.808L128 41.8076Z" fill="black" fill-opacity="0.5"/>
</g>
<defs>
<clipPath id="clip0_451_28781">
<rect width="256" height="256" fill="white"/>
</clipPath>
<clipPath id="clip1_451_28781">
<rect width="256" height="256" fill="white"/>
</clipPath>
</defs>
</svg>
