<svg width="256" height="256" viewBox="0 0 256 256" fill="none" xmlns="http://www.w3.org/2000/svg">
<g clip-path="url(#clip0_338_33914)">
<rect width="256" height="256" fill="#FD9700"/>
<path d="M176.29 170.638C121.843 196.55 88.0476 174.873 66.4137 161.699C65.0803 160.867 62.7974 161.891 64.7709 164.163C71.9822 172.9 95.5896 193.957 126.419 193.957C157.248 193.957 175.618 177.124 177.911 174.19C180.194 171.278 178.584 169.678 176.279 170.638H176.29ZM191.577 162.189C190.115 160.291 182.691 159.928 178.007 160.504C173.324 161.059 166.294 163.928 166.903 165.646C167.212 166.286 167.852 165.998 171.074 165.71C174.295 165.39 183.331 164.248 185.219 166.712C187.107 169.187 182.339 180.996 181.464 182.906C180.621 184.805 181.784 185.306 183.363 184.037C184.92 182.767 187.747 179.482 189.646 174.841C191.523 170.169 192.675 163.651 191.566 162.2L191.577 162.189Z" fill="white"/>
<path fill-rule="evenodd" clip-rule="evenodd" d="M139.679 117.76C139.679 124.555 139.85 130.23 136.415 136.268C133.642 141.175 129.247 144.194 124.339 144.194C117.64 144.194 113.736 139.084 113.736 131.553C113.736 116.682 127.06 113.973 139.679 113.973V117.76ZM157.281 160.302C156.129 161.337 154.454 161.412 153.153 160.718C147.36 155.907 146.325 153.678 143.136 149.08C133.567 158.851 126.793 161.774 114.365 161.774C99.6866 161.774 88.251 152.718 88.251 134.572C88.251 120.405 95.9316 110.762 106.855 106.047C116.328 101.876 129.556 101.14 139.679 99.9876V97.7261C139.679 93.5764 139.999 88.6693 137.567 85.085C135.434 81.874 131.359 80.5406 127.774 80.5406C121.118 80.5406 115.187 83.9542 113.736 91.0268C113.437 92.595 112.285 94.1418 110.717 94.2164L93.7768 92.403C92.358 92.0829 90.7792 90.9308 91.1739 88.744C95.0782 68.2195 113.608 62.043 130.207 62.043C138.698 62.043 149.792 64.3045 156.492 70.7371C164.983 78.6631 164.172 89.2453 164.172 100.756V127.958C164.172 136.129 167.565 139.714 170.754 144.13C171.885 145.698 172.13 147.586 170.701 148.771C167.138 151.736 160.812 157.262 157.324 160.356L157.27 160.302" fill="white"/>
<path d="M169.808 256H86.1929L128 214.192L169.808 256ZM41.8081 128L0.000488281 169.808V86.1924L41.8081 128ZM256 169.808L214.193 128L256 86.1924V169.808ZM128 41.8076L86.1929 0H169.808L128 41.8076Z" fill="black" fill-opacity="0.5"/>
</g>
<defs>
<clipPath id="clip0_338_33914">
<rect width="256" height="256" fill="white"/>
</clipPath>
</defs>
</svg>
