<svg width="256" height="256" viewBox="0 0 256 256" fill="none" xmlns="http://www.w3.org/2000/svg">
<g clip-path="url(#clip0_338_33886)">
<rect width="256" height="256" fill="#CC092F"/>
<path d="M216.781 155.818C205.256 151.226 194.706 152.765 184.131 159.176C184.131 159.176 180.277 161.528 179.123 162.254C174.195 165.344 169.547 168.274 165.079 168.274C160.815 168.274 156.62 167.132 154.845 158.884C152.077 146.019 145.325 114.406 142.378 98.7485C140.646 89.5451 139.697 84.5865 138.71 81.2167C136.972 75.2962 133.795 72.0753 129.283 71.5602C129.283 71.5602 128.576 71.4609 127.998 71.4609C127.427 71.4609 126.646 71.5726 126.646 71.5726C122.177 72.1064 119.018 75.3272 117.293 81.2167C116.306 84.5865 115.357 89.5451 113.625 98.7485C110.678 114.406 103.926 146.019 101.158 158.884C99.3828 167.132 95.1876 168.274 90.9241 168.274C86.4558 168.274 81.8076 165.344 76.88 162.254C75.7257 161.528 71.8656 159.176 71.8656 159.176C61.2969 152.765 50.7406 151.226 39.2224 155.818C36.7338 156.811 34.2827 157.923 31.9492 159.047C33.5441 164.049 35.5296 168.971 37.8444 173.595C40.3951 172.341 43.07 171.097 45.8007 170.291C49.7352 169.13 53.7691 169.068 57.6788 170.378C61.4769 171.65 64.8591 173.902 68.2289 176.019C74.5776 180.009 81.7703 184.533 90.9241 184.533C104.49 184.533 114.01 176.435 117.051 162.31C119.409 151.362 124.635 126.923 127.992 110.068C127.992 110.068 136.594 151.362 138.946 162.31C141.987 176.435 151.513 184.533 165.079 184.533C174.233 184.533 181.425 180.009 187.774 176.019C191.144 173.902 194.526 171.65 198.324 170.378C202.228 169.068 206.268 169.13 210.202 170.291C212.933 171.097 215.604 172.343 218.155 173.596C220.476 168.973 222.456 164.048 224.051 159.046C221.717 157.922 219.269 156.811 216.781 155.818Z" fill="white"/>
<path d="M169.808 256H86.1929L128 214.192L169.808 256ZM41.8081 128L0.000488281 169.808V86.1924L41.8081 128ZM256 169.808L214.193 128L256 86.1924V169.808ZM128 41.8076L86.1929 0H169.808L128 41.8076Z" fill="black" fill-opacity="0.5"/>
</g>
<defs>
<clipPath id="clip0_338_33886">
<rect width="256" height="256" fill="white"/>
</clipPath>
</defs>
</svg>
