<svg width="256" height="256" viewBox="0 0 256 256" fill="none" xmlns="http://www.w3.org/2000/svg">
<g clip-path="url(#clip0_338_31901)">
<rect width="256" height="256" fill="#FCAF17"/>
<path d="M128.627 159.826C127.259 160.738 125.891 161.65 124.523 162.562C108.562 153.669 74.3604 136.569 71.3963 135.201C68.2042 133.605 62.7319 131.324 63.416 126.08C64.328 118.784 77.3245 102.595 82.7968 95.755C112.438 59.7295 125.663 48.5571 134.327 49.6971C143.675 50.8372 148.92 60.6416 149.604 105.787C144.359 104.191 138.659 102.595 132.503 100.999C132.047 94.387 130.679 84.5826 130.223 81.1624C129.767 77.2863 128.855 75.9182 127.487 75.6902C125.663 75.4622 121.33 79.5663 117.454 83.6705C115.63 85.4946 110.614 90.5108 105.142 96.211C100.582 95.983 97.3894 96.8951 95.7933 99.1752C94.4253 100.999 94.1973 103.507 94.8813 106.699C91.9172 109.664 89.4091 112.172 87.585 113.996C81.4287 120.152 74.8165 125.168 74.5885 127.676C74.3605 129.728 77.3246 131.781 81.8847 134.517C92.3732 140.217 119.05 154.809 128.627 159.826ZM170.124 114.68C159.636 111.032 133.871 101.455 106.738 97.8071C97.3894 96.6671 93.7413 99.8592 97.3894 108.752C101.266 117.644 111.07 132.237 121.33 143.409C131.591 154.353 142.763 157.318 146.411 140.445C146.639 139.761 146.639 139.305 146.867 138.621C147.779 134.289 148.464 129.956 148.692 126.308C144.131 124.256 138.887 121.976 133.871 119.924C134.099 123.8 134.555 130.64 134.783 135.657C134.783 136.341 134.783 137.025 134.783 137.481C135.011 145.917 132.275 145.917 127.487 142.497C122.014 138.621 104.914 116.048 102.862 106.015C102.862 105.331 103.09 105.331 103.318 105.559C103.546 105.559 103.546 105.559 103.774 105.787C107.65 107.384 120.418 112.4 133.415 117.872C138.659 120.152 143.903 122.204 148.464 124.484C153.024 126.536 157.128 128.588 160.32 130.184C166.02 133.149 168.072 135.201 165.792 137.709C154.164 149.565 113.122 166.438 98.9855 187.415C98.9855 187.415 98.9854 187.415 98.7574 187.643C98.5294 187.871 98.5295 188.099 98.3015 188.327C98.3015 188.327 98.3014 188.555 98.0734 188.555C97.3894 189.923 96.4774 191.975 96.0214 194.711C95.3373 199.271 97.8454 203.375 104.458 205.2C106.054 205.656 107.878 206.112 109.93 206.34C110.386 206.34 110.614 206.34 111.07 206.34C123.611 207.024 156.444 199.727 166.248 195.395C176.509 190.835 173.545 186.275 170.58 183.995C168.3 182.171 156.9 175.786 151.428 172.822C149.832 173.734 148.692 174.418 147.323 175.558C156.672 181.259 160.548 184.223 162.828 185.819C163.74 186.503 163.284 187.187 161.916 187.415C161.688 187.415 161.232 187.415 161.004 187.415C152.112 188.099 135.011 189.239 127.031 189.695C125.891 189.695 124.522 189.923 123.838 189.923C125.891 188.099 127.943 186.503 129.083 185.591C146.183 173.506 174.685 156.634 183.121 149.337C189.505 143.637 206.378 127.22 170.124 114.68Z" fill="white"/>
<path d="M169.808 256H86.1929L128 214.192L169.808 256ZM256 169.809L214.193 128L256 86.1924V169.809ZM41.8081 128L0.000488281 169.808V86.1914L41.8081 128ZM128 41.8076L86.1929 0H169.808L128 41.8076Z" fill="black" fill-opacity="0.5"/>
</g>
<defs>
<clipPath id="clip0_338_31901">
<rect width="256" height="256" fill="white"/>
</clipPath>
</defs>
</svg>
