<svg width="256" height="256" viewBox="0 0 256 256" fill="none" xmlns="http://www.w3.org/2000/svg">
<g clip-path="url(#clip0_338_31906)">
<rect width="256" height="256" fill="#0089CF"/>
<path d="M169.808 256H86.1929L128 214.192L169.808 256ZM256 169.809L214.193 128L256 86.1924V169.809ZM41.8081 128L0.000488281 169.808V86.1914L41.8081 128ZM128 41.8076L86.1929 0H169.808L128 41.8076Z" fill="black" fill-opacity="0.5"/>
<path d="M127.802 90.6159C130.007 87.0161 133.665 83.2494 137.603 81.6564C144.383 78.5718 153.47 79.8983 159.001 84.7792C164.354 89.6284 167.069 96.2746 165.788 103.705C167.1 103.463 168.426 102.622 169.816 102.144C178.124 99.7991 186.912 102.342 192.239 109.466C196.241 114.551 197.286 122.452 194.884 128.596C193.692 131.686 191.659 134.464 189.016 136.835L189.282 137.103C197.012 137.478 204.609 143.481 206.954 150.841C209.496 158.265 207.26 166.198 201.831 171.628C197.395 176.012 191.691 177.529 185.351 177.401H70.248C60.797 177.605 53.4945 173.418 49.5629 165.014C46.4783 157.8 48.0015 148.573 53.7617 143.074C57.3939 139.276 61.9442 137.72 66.8508 136.937C61.2944 131.782 58.6175 124.728 60.1789 117.164C61.2944 111.034 66.5196 104.827 72.522 102.686C77.8106 100.583 84.9738 100.952 89.8171 103.807L89.9892 103.596C88.5301 95.2548 92.2261 87.7292 99.1455 83.1155C105.315 78.9424 115.179 79.05 121.219 83.4862C123.934 85.1486 126.171 88.0036 127.802 90.6159Z" fill="white"/>
<path d="M160.389 93.7329C162.862 98.7226 161.41 105.261 158.829 109.74L138.858 154.672L138.685 154.882L131.466 109.301C130.887 104.924 135.563 103.057 138.316 100.954C138.176 100.31 137.468 100.342 137.023 100.042L130.275 99.9719L130.07 99.7681C130.109 94.1095 133.155 88.8842 138.316 86.138C143.708 83.0224 151.303 83.8694 155.98 87.865C157.879 89.5591 159.479 91.5276 160.389 93.7329Z" fill="#645FAA"/>
<path d="M123.596 92.1703C125.228 95.1909 126.171 98.6198 125.597 102.417L117.454 154.606C117.498 154.67 117.422 154.74 117.358 154.771L115.249 150.573L94.8379 104.992C92.9387 99.1225 94.698 92.9862 98.9733 88.7796C103.281 84.4086 110.367 83.2232 116.001 85.594C118.983 86.8817 121.831 89.2525 123.596 92.1703Z" fill="#C9234A"/>
<path d="M189.933 114.144C192.679 118.827 192.062 125.914 189.008 130.26C187.117 133.312 183.993 134.835 181.349 136.836L139.057 165.867H138.96L139.432 164.479L161.85 113.877C165.209 107.912 171.619 104.891 178.399 105.802C183.045 106.651 187.69 109.671 189.933 114.144Z" fill="#0089CF"/>
<path d="M93.8556 113.876L117.185 165.861H116.809L69.7756 133.445C64.9892 129.412 63.0273 123.371 64.652 117.266C65.8691 112.691 69.6668 108.415 74.1849 106.719C81.5825 104.011 89.9168 106.891 93.8556 113.876Z" fill="#F36F21"/>
<path d="M202.207 150.84C204.551 155.792 203.628 162.572 200.276 166.783C196.951 170.818 192.502 173.022 187.283 172.882L137.133 172.914L179.144 143.685C183.249 141.04 189.488 140.561 193.968 142.703C197.427 144.06 200.684 147.45 202.207 150.84Z" fill="#0DB14B"/>
<path d="M53.6974 150.84C51.3595 155.792 52.2765 162.572 55.6348 166.783C58.9609 170.818 63.3958 173.022 68.6217 172.882L118.772 172.914L76.7593 143.685C72.6555 141.04 66.4177 140.561 61.9438 142.703C58.4827 144.06 55.2271 147.45 53.6974 150.84Z" fill="#FDB913"/>
</g>
<defs>
<clipPath id="clip0_338_31906">
<rect width="256" height="256" fill="white"/>
</clipPath>
</defs>
</svg>
