<svg width="256" height="256" viewBox="0 0 256 256" fill="none" xmlns="http://www.w3.org/2000/svg">
<g clip-path="url(#clip0_338_34038)">
<rect width="256" height="256" fill="#0052FE"/>
<path d="M128 23.7617C185.568 23.7617 232.238 70.4314 232.238 128C232.238 185.568 185.568 232.238 128 232.238C70.4314 232.238 23.7617 185.568 23.7617 128C23.7617 70.4314 70.4314 23.7617 128 23.7617Z" fill="#0052FF"/>
<path d="M128.042 164.627C107.783 164.627 91.4121 148.212 91.4121 127.997C91.4121 107.783 107.828 91.3669 128.042 91.3669C146.177 91.3669 161.236 104.572 164.13 121.892H201.032C197.911 84.267 166.436 54.6914 127.997 54.6914C87.523 54.6914 54.6914 87.523 54.6914 127.997C54.6914 168.471 87.523 201.303 127.997 201.303C166.436 201.303 197.911 171.727 201.032 134.102H164.085C161.191 151.422 146.177 164.627 128.042 164.627Z" fill="white"/>
<path d="M169.808 256H86.1929L128 214.192L169.808 256ZM41.8081 128L0.000488281 169.808V86.1924L41.8081 128ZM256 169.808L214.193 128L256 86.1924V169.808ZM128 41.8076L86.1929 0H169.808L128 41.8076Z" fill="black" fill-opacity="0.5"/>
</g>
<defs>
<clipPath id="clip0_338_34038">
<rect width="256" height="256" fill="white"/>
</clipPath>
</defs>
</svg>
