<svg width="256" height="256" viewBox="0 0 256 256" fill="none" xmlns="http://www.w3.org/2000/svg">
<g clip-path="url(#clip0_451_28772)">
<path d="M0 0H256V256H0V0Z" fill="#005590"/>
<rect width="256" height="256" fill="url(#paint0_linear_451_28772)"/>
<rect width="256" height="256" fill="url(#paint1_linear_451_28772)"/>
<g clip-path="url(#clip1_451_28772)">
<path d="M197.397 92.2896L193.928 86.3137C192.964 84.5788 190.843 84.0005 189.108 84.9643C188.916 85.1571 188.53 85.3499 188.337 85.5426L180.434 93.4462C179.277 94.6029 179.084 96.5306 180.048 97.88C182.94 102.314 185.253 107.133 186.988 112.145C197.976 144.723 180.434 180 147.855 190.988C141.494 193.109 134.747 194.266 128 194.266C117.783 194.266 107.759 191.759 98.8914 186.94L112.385 173.446C135.325 182.121 160.964 170.555 169.638 147.615C173.879 136.241 173.301 123.519 168.096 112.531C167.325 110.796 165.205 110.025 163.277 110.796C162.891 110.988 162.506 111.181 162.313 111.567L154.217 119.47C153.253 120.434 153.06 121.591 153.253 122.747L154.024 125.639C157.301 139.904 148.434 154.362 134.169 157.639C127.614 159.181 120.675 158.217 114.891 154.747L111.422 152.627C110.072 151.856 108.337 152.049 107.181 153.205L74.4095 185.976C73.0601 187.326 73.0601 189.639 74.4095 190.988C74.6023 191.181 74.6023 191.181 74.7951 191.374L79.6143 195.037C93.3011 206.217 110.458 212 128 212C172.144 212 208 176.145 208 131.808C208 117.928 204.337 104.434 197.397 92.2896Z" fill="white"/>
<path d="M176.578 68.5783C162.699 57.7831 145.542 52 128 52C83.8554 52 48 87.8554 48 132.193C48 146.072 51.6627 159.759 58.4096 171.711L61.8795 177.687C62.8434 179.422 64.9639 180 66.6988 179.036C66.8916 178.843 67.2771 178.651 67.4699 178.458L75.3735 170.554C76.5301 169.398 76.7229 167.47 75.759 166.12C72.8675 161.687 70.5542 156.867 68.8193 151.855C57.8313 119.277 75.3735 84 107.952 73.012C114.313 70.8916 121.06 69.7349 127.807 69.7349C138.024 69.7349 148.048 72.241 156.916 77.0602L143.422 90.5542C120.482 81.8795 94.8434 93.4458 86.1687 116.386C84.241 121.398 83.2771 126.795 83.2771 132.193C83.2771 132.964 83.4699 136.241 83.4699 136.819C84.0482 141.831 85.3976 146.843 87.7108 151.47C88.4819 153.205 90.6024 153.976 92.5301 153.205C92.9157 153.012 93.3012 152.819 93.494 152.434L101.59 144.337C102.554 143.373 102.747 142.217 102.554 141.06L101.976 138.169C98.6988 123.904 107.566 109.446 121.831 106.169C128.386 104.627 135.325 105.59 141.108 109.06L144.578 111.181C145.928 111.952 147.663 111.759 148.819 110.602L181.59 77.8313C182.94 76.4819 182.94 74.1687 181.59 72.8193C181.398 72.6265 181.398 72.6265 181.205 72.4337L176.578 68.5783Z" fill="white"/>
</g>
<path d="M169.808 256H86.1929L128 214.192L169.808 256ZM41.8081 128L0.000488281 169.808V86.1924L41.8081 128ZM256 169.808L214.193 128L256 86.1924V169.808ZM128 41.8076L86.1929 0H169.808L128 41.8076Z" fill="black" fill-opacity="0.5"/>
</g>
<defs>
<linearGradient id="paint0_linear_451_28772" x1="-8.44058" y1="215.917" x2="217.383" y2="2.02167" gradientUnits="userSpaceOnUse">
<stop stop-color="#68D7FA"/>
<stop offset="1" stop-color="#4EE498"/>
</linearGradient>
<linearGradient id="paint1_linear_451_28772" x1="256" y1="256" x2="119.044" y2="-52.7977" gradientUnits="userSpaceOnUse">
<stop stop-color="#B090F5"/>
<stop offset="0.35" stop-color="#88A8FA"/>
<stop offset="0.65" stop-color="#68D7FA"/>
<stop offset="1" stop-color="#4EE498"/>
</linearGradient>
<clipPath id="clip0_451_28772">
<rect width="256" height="256" fill="white"/>
</clipPath>
<clipPath id="clip1_451_28772">
<rect width="160" height="160" fill="white" transform="translate(48 52)"/>
</clipPath>
</defs>
</svg>
