<svg width="256" height="256" viewBox="0 0 256 256" fill="none" xmlns="http://www.w3.org/2000/svg">
<g clip-path="url(#clip0_338_31878)">
<rect width="256" height="256" fill="#EC3825"/>
<path d="M225.783 179.617C221.108 179.153 212.818 177.996 202.439 183.231C192.07 188.461 187.992 188.685 182.901 188.146C184.399 190.881 187.432 194.634 196.964 195.306C206.501 195.977 211.054 196.27 206.037 208.148C206.155 204.56 205.318 197.625 195.855 198.84C186.398 200.061 184.18 208.574 194.331 212.828C191.031 213.489 184.031 213.889 179.036 200.812C175.576 202.316 170.24 205.333 160.559 197.859C163.928 199.085 168.102 199.16 168.102 199.16C159.509 195.06 151.31 187.432 146.048 180.224C150.217 183.327 154.818 186.419 159.466 186.995C153.975 180.294 141.267 166.886 125.711 153.111C135.712 159.642 147.776 169.957 167.516 167.638C187.267 165.314 200.536 160.793 225.783 179.611" fill="white"/>
<path d="M141.272 174.965C128.888 169.597 126.238 168.526 110.315 164.479C94.3915 160.433 78.7399 152.016 68.2646 138.875C75.648 144.286 90.7185 155.166 106.199 153.983C103.843 150.539 99.5038 147.858 94.3169 145.149C100.186 146.557 117.89 151.088 141.261 174.965" fill="white"/>
<path d="M114.32 129.14C111.126 119.981 105.369 108.259 78.0481 90.8318C64.7421 82.0517 45.2149 71.0274 19.5039 42.9121C21.3377 50.4927 29.4674 70.2011 70.4035 95.7789C83.8535 104.953 101.211 110.62 114.314 129.14" fill="white"/>
<path d="M116.003 142.416C112.645 134.665 105.89 124.717 79.4329 110.521C67.2251 103.692 46.3812 93.174 27.6377 73.1777C29.3383 80.3958 38.0383 96.25 75.4827 116.054C85.8567 121.764 103.385 127.121 116.003 142.416Z" fill="white"/>
<path d="M141.668 102.347C90.0911 87.5911 69.583 68.9648 53.7129 49.459C60.9576 71.9022 78.2351 79.9305 96.7014 95.001C115.162 110.072 116.213 118.169 121.65 127.072C133.767 146.903 135.697 150.181 147.718 158.839C161.888 168.243 179.027 161.877 197.829 164.831C216.626 167.779 232.166 182.108 235.545 187.62C239.49 180.589 230.076 170.46 227.528 167.912C228.887 158.7 207.11 154.654 198.863 151.503C197.243 150.885 193.234 149.958 196.715 141.695C201.401 130.286 206.284 120.36 141.673 102.342M216.109 162.864C225.886 164.34 225.401 166.419 225.502 169.991C221.344 165.439 216.109 162.864 216.109 162.864Z" fill="white"/>
<path d="M169.808 256H86.1929L128 214.192L169.808 256ZM256 169.809L214.193 128L256 86.1924V169.809ZM41.8081 128L0.000488281 169.808V86.1914L41.8081 128ZM128 41.8076L86.1929 0H169.808L128 41.8076Z" fill="black" fill-opacity="0.5"/>
</g>
<defs>
<clipPath id="clip0_338_31878">
<rect width="256" height="256" fill="white"/>
</clipPath>
</defs>
</svg>
