<svg width="256" height="256" viewBox="0 0 256 256" fill="none" xmlns="http://www.w3.org/2000/svg">
<g clip-path="url(#clip0_338_33942)">
<rect width="256" height="256" fill="#049FD9"/>
<path d="M85.0898 105.213C85.0898 102.848 83.1586 100.93 80.7911 100.93C78.4243 100.93 76.4919 102.848 76.4919 105.213V150.776C76.4919 153.155 78.4236 155.072 80.7904 155.072C83.1582 155.072 85.0898 153.155 85.0898 150.776V105.213Z" fill="white"/>
<path d="M61.4773 121.386C61.4773 119.022 59.5465 117.102 57.1787 117.102C54.811 117.102 52.8802 119.022 52.8802 121.386V142.216C52.8802 144.594 54.811 146.512 57.1787 146.512C59.5465 146.512 61.4773 144.594 61.4773 142.216V121.386Z" fill="white"/>
<path d="M37.8656 133.209C37.8656 130.844 35.9348 128.927 33.5671 128.927C31.2021 128.927 29.2686 130.844 29.2686 133.209V142.216C29.2686 144.594 31.2021 146.512 33.5671 146.512C35.9348 146.512 37.8656 144.594 37.8656 142.216V133.209Z" fill="white"/>
<path d="M104.403 117.102C102.035 117.102 100.104 119.022 100.104 121.386V142.216C100.104 144.594 102.035 146.512 104.403 146.512C106.771 146.512 108.701 144.594 108.701 142.216V121.386C108.701 119.022 106.771 117.102 104.403 117.102Z" fill="white"/>
<path d="M128.001 146.512C130.363 146.505 132.286 144.59 132.286 142.216V133.209C132.286 130.844 130.355 128.927 127.987 128.927C125.622 128.927 123.689 130.844 123.689 133.209V142.216C123.689 144.594 125.622 146.512 127.987 146.512L128.001 146.512Z" fill="white"/>
<path d="M170.912 105.213C170.912 102.848 172.844 100.93 175.212 100.93C177.578 100.93 179.51 102.848 179.51 105.213V150.776C179.51 153.155 177.578 155.072 175.212 155.072C172.844 155.072 170.912 153.155 170.912 150.776V105.213Z" fill="white"/>
<path d="M194.525 121.386C194.525 119.022 196.455 117.102 198.823 117.102C201.191 117.102 203.122 119.022 203.122 121.386V142.216C203.122 144.594 201.191 146.512 198.823 146.512C196.455 146.512 194.525 144.594 194.525 142.216V121.386Z" fill="white"/>
<path d="M218.136 133.209C218.136 130.844 220.067 128.927 222.435 128.927C224.8 128.927 226.733 130.844 226.733 133.209V142.216C226.733 144.594 224.8 146.512 222.435 146.512C220.067 146.512 218.136 144.594 218.136 142.216V133.209Z" fill="white"/>
<path d="M151.599 117.102C153.967 117.102 155.898 119.022 155.898 121.386V142.216C155.898 144.594 153.967 146.512 151.599 146.512C149.231 146.512 147.301 144.594 147.301 142.216V121.386C147.301 119.022 149.231 117.102 151.599 117.102Z" fill="white"/>
<path d="M169.808 256H86.1929L128 214.192L169.808 256ZM41.8081 128L0.000488281 169.808V86.1924L41.8081 128ZM256 169.808L214.193 128L256 86.1924V169.808ZM128 41.8076L86.1929 0H169.808L128 41.8076Z" fill="black" fill-opacity="0.5"/>
</g>
<defs>
<clipPath id="clip0_338_33942">
<rect width="256" height="256" fill="white"/>
</clipPath>
</defs>
</svg>
