<svg width="256" height="256" viewBox="0 0 256 256" fill="none" xmlns="http://www.w3.org/2000/svg">
<g clip-path="url(#clip0_338_34111)">
<rect width="256" height="256" fill="#013C81"/>
<path d="M207.292 95.8265C201.732 74.3599 164.946 68.1865 125.106 82.1332C123.172 82.7999 121.359 83.4532 119.546 84.2399C155.186 74.6399 186.172 80.9465 191.052 99.9065C196.519 120.707 168.466 148.733 128.626 162.68C127.719 162.947 126.812 163.347 125.892 163.613L144.399 89.1065H144.292L139.412 89.5065C130.332 90.5599 120.559 92.7865 110.692 96.2132C70.959 110.04 43.1457 138.733 48.7057 160.187C54.2657 181.64 91.0524 187.813 131.012 173.867C132.932 173.2 134.746 172.547 136.572 171.76C100.919 181.36 69.9324 175.053 65.0524 156.093C59.719 135.293 87.639 107.267 127.492 93.3199L129.986 92.5199L111.719 166.893L116.586 166.493C126.373 165.3 136.002 163.051 145.306 159.787C185.039 145.96 212.852 117.267 207.292 95.8265Z" fill="white"/>
<path d="M169.808 256H86.1929L128 214.192L169.808 256ZM41.8081 128L0.000488281 169.808V86.1924L41.8081 128ZM256 169.808L214.193 128L256 86.1924V169.808ZM128 41.8076L86.1929 0H169.808L128 41.8076Z" fill="black" fill-opacity="0.5"/>
</g>
<defs>
<clipPath id="clip0_338_34111">
<rect width="256" height="256" fill="white"/>
</clipPath>
</defs>
</svg>
