<svg width="256" height="256" viewBox="0 0 256 256" fill="none" xmlns="http://www.w3.org/2000/svg">
<g clip-path="url(#clip0_338_31956)">
<rect width="256" height="256" fill="#BE862D"/>
<path opacity="0.8" d="M90.3479 117.425C89.2977 115.49 87.7777 114.025 85.7878 113.03C83.8533 111.98 81.5595 111.455 78.9063 111.455C74.3187 111.455 70.643 112.975 67.8794 116.015C65.1157 119 63.7339 123.007 63.7339 128.037C63.7339 133.399 65.171 137.599 68.0452 140.639C70.9747 143.624 74.982 145.116 80.0671 145.116C83.5493 145.116 86.4788 144.232 88.8555 142.463C91.2875 140.695 93.0563 138.152 94.1617 134.836H76.1703V124.389H107.013V137.572C105.963 141.109 104.166 144.398 101.624 147.438C99.1363 150.478 95.9581 152.938 92.089 154.817C88.2199 156.696 83.8533 157.636 78.9893 157.636C73.2409 157.636 68.1005 156.392 63.5681 153.905C59.091 151.362 55.5811 147.853 53.0385 143.375C50.5513 138.898 49.3076 133.786 49.3076 128.037C49.3076 122.289 50.5513 117.176 53.0385 112.699C55.5811 108.166 59.091 104.657 63.5681 102.169C68.0452 99.6267 73.1579 98.3555 78.9063 98.3555C85.8708 98.3555 91.7297 100.041 96.4832 103.413C101.292 106.785 104.47 111.455 106.018 117.425H90.3479ZM129.043 146.277H147.615V157.221H114.866V99.0187H129.043V146.277ZM176.183 99.0187C182.318 99.0187 187.679 100.235 192.267 102.667C196.855 105.099 200.392 108.526 202.88 112.948C205.422 117.314 206.693 122.372 206.693 128.12C206.693 133.813 205.422 138.871 202.88 143.292C200.392 147.714 196.827 151.141 192.184 153.573C187.597 156.005 182.263 157.221 176.183 157.221H154.377V99.0187H176.183ZM175.271 144.951C180.632 144.951 184.805 143.486 187.79 140.556C190.775 137.627 192.267 133.482 192.267 128.12C192.267 122.759 190.775 118.585 187.79 115.601C184.805 112.616 180.632 111.124 175.271 111.124H168.555V144.951H175.271Z" fill="black"/>
<path d="M169.808 256H86.1929L128 214.192L169.808 256ZM41.8081 128L0.000488281 169.808V86.1924L41.8081 128ZM256 169.808L214.193 128L256 86.1924V169.808ZM128 41.8076L86.1929 0H169.808L128 41.8076Z" fill="black" fill-opacity="0.5"/>
</g>
<defs>
<clipPath id="clip0_338_31956">
<rect width="256" height="256" fill="white"/>
</clipPath>
</defs>
</svg>
