<svg width="256" height="256" viewBox="0 0 256 256" fill="none" xmlns="http://www.w3.org/2000/svg">
<g clip-path="url(#clip0_338_31966)">
<rect width="256" height="256" fill="#FD0000"/>
<path d="M124.116 113.181H92.6222V103.424C92.6222 97.2486 92.3752 93.4199 91.7576 91.8143C91.1401 90.2087 89.7816 89.4677 87.435 89.4677C85.4589 89.4677 84.2238 90.0853 83.4828 91.4438C82.7418 92.8024 82.4948 96.137 82.4948 101.695V153.32C82.4948 158.137 82.8653 161.348 83.4828 162.83C84.2238 164.312 85.5824 165.176 87.682 165.176C90.0286 165.176 91.5106 164.312 92.3752 162.583C93.2397 160.854 93.6102 157.519 93.6102 152.455V139.734H87.3115V123.432H124.239V181.232H104.355L101.391 173.575C99.2915 176.909 96.5743 179.379 93.2397 181.108C90.0286 182.714 86.0764 183.579 81.6302 183.579C76.3195 183.579 71.3793 182.467 66.8096 180.12C62.2399 177.897 58.6583 175.057 56.3117 171.599C53.9651 168.264 52.483 164.682 51.8655 160.977C51.248 157.272 51.001 151.714 51.001 144.304V112.316C51.001 102.065 51.6185 94.5314 52.8536 89.9617C54.0886 85.2685 57.6703 81.0694 63.5985 77.1172C69.5267 73.2886 77.1841 71.3125 86.5704 71.3125C95.8333 71.3125 103.491 73.0415 109.542 76.3762C115.594 79.7108 119.546 83.7865 121.399 88.3562C123.251 93.0494 124.116 99.7186 124.116 108.487V113.181Z" fill="black"/>
<path d="M202.529 107.252H173.258V99.2246C173.258 95.5195 172.887 93.1729 172.146 92.0614C171.405 91.0733 170.17 90.5793 168.441 90.5793C166.589 90.5793 165.107 91.3203 164.119 92.6789C163.131 94.0374 162.637 96.137 162.637 98.9777C162.637 102.559 163.131 105.276 164.242 107.129C165.23 108.982 168.318 111.081 173.134 113.675C187.091 121.085 195.983 127.137 199.565 131.953C203.146 136.647 204.999 144.304 204.999 154.925C204.999 162.583 204.011 168.264 201.911 171.846C199.935 175.427 195.983 178.515 190.178 180.985C184.373 183.455 177.704 184.69 169.923 184.69C161.525 184.69 154.362 183.332 148.31 180.491C142.382 177.65 138.43 174.069 136.577 169.623C134.724 165.176 133.86 159.001 133.86 150.973V143.933H163.131V157.025C163.131 161.101 163.501 163.694 164.366 164.806C165.23 165.917 166.589 166.535 168.688 166.535C170.788 166.535 172.393 165.794 173.381 164.312C174.369 162.83 174.864 160.73 174.864 157.766C174.864 151.467 173.876 147.268 171.899 145.292C169.923 143.316 164.983 140.105 157.202 135.535C149.422 130.965 143.246 127.631 140.653 125.531C138.059 123.432 135.959 120.591 134.354 116.886C132.625 113.181 131.884 108.488 131.884 102.806C131.884 94.5314 133.119 87.2447 135.465 83.416C137.812 79.5874 141.641 76.6232 146.951 74.5236C152.262 72.4241 159.549 71.3125 167.083 71.3125C175.234 71.3125 182.274 72.5476 187.955 74.8942C193.76 77.2408 197.588 80.2049 199.441 83.7865C201.294 87.3682 202.282 94.7785 202.282 103.3L202.529 107.252Z" fill="white"/>
<path d="M169.808 256H86.1929L128 214.192L169.808 256ZM41.8081 128L0.000488281 169.808V86.1924L41.8081 128ZM256 169.808L214.193 128L256 86.1924V169.808ZM128 41.8076L86.1929 0H169.808L128 41.8076Z" fill="black" fill-opacity="0.5"/>
</g>
<defs>
<clipPath id="clip0_338_31966">
<rect width="256" height="256" fill="white"/>
</clipPath>
</defs>
</svg>
