<svg width="256" height="256" viewBox="0 0 256 256" fill="none" xmlns="http://www.w3.org/2000/svg">
<g clip-path="url(#clip0_338_31805)">
<rect width="256" height="256" fill="#4285F4"/>
<path d="M201.172 129.702C201.172 124.408 200.697 119.317 199.815 114.43H129.492V143.346H169.677C167.912 152.645 162.617 160.519 154.675 165.814V184.616H178.908C193.027 171.584 201.172 152.442 201.172 129.702Z" fill="white"/>
<path d="M129.494 202.668C149.654 202.668 166.556 196.016 178.91 184.612L154.677 165.81C148.025 170.29 139.54 173.005 129.494 173.005C110.081 173.005 93.5861 159.904 87.6806 142.256H62.8369V161.533C75.123 185.902 100.306 202.668 129.494 202.668Z" fill="white"/>
<path d="M87.6786 142.192C86.1853 137.712 85.3028 132.96 85.3028 128.005C85.3028 123.05 86.1853 118.299 87.6786 113.819V94.541H62.8349C57.744 104.587 54.8252 115.923 54.8252 128.005C54.8252 140.088 57.744 151.424 62.8349 161.47L82.1804 146.4L87.6786 142.192Z" fill="white"/>
<path d="M129.494 83.0649C140.49 83.0649 150.265 86.8661 158.071 94.1971L179.453 72.8152C166.488 60.7328 149.654 53.334 129.494 53.334C100.306 53.334 75.123 70.1001 62.8369 94.5365L87.6806 113.814C93.5861 96.1655 110.081 83.0649 129.494 83.0649Z" fill="white"/>
<path d="M169.808 256H86.1929L128 214.192L169.808 256ZM256 169.809L214.193 128L256 86.1924V169.809ZM41.8081 128L0.000488281 169.808V86.1914L41.8081 128ZM128 41.8076L86.1929 0H169.808L128 41.8076Z" fill="black" fill-opacity="0.5"/>
</g>
<defs>
<clipPath id="clip0_338_31805">
<rect width="256" height="256" fill="white"/>
</clipPath>
</defs>
</svg>
