<svg width="256" height="256" viewBox="0 0 256 256" fill="none" xmlns="http://www.w3.org/2000/svg">
<g clip-path="url(#clip0_338_31845)">
<rect width="256" height="256" fill="#EB7C16"/>
<path d="M123.926 53.2932C125.037 52.2201 126.48 51.4061 128.034 51.2951C130.587 51.147 132.918 53.8113 132.215 56.2905C131.66 58.1777 130.291 59.8428 130.217 61.878C130.365 63.6541 131.845 64.9123 133.029 66.0964C152.012 85.079 171.032 104.099 190.014 123.081C190.902 123.932 191.901 124.784 193.16 124.895C195.306 124.895 196.971 123.303 199.006 122.822C201.448 122.341 203.89 124.562 203.779 127.004C203.705 128.669 202.78 130.186 201.633 131.37C192.086 140.917 182.503 150.501 172.956 160.048C171.698 161.269 170.143 162.342 168.33 162.342C166.11 162.416 164.038 160.307 164.223 158.049C164.445 155.829 166.295 154.053 166.332 151.759C166.258 150.39 165.185 149.354 164.334 148.392C155.823 139.844 147.275 131.37 138.802 122.859C138.469 122.6 138.025 121.86 137.544 122.378C134.583 125.228 131.734 128.225 128.774 131.074C126.776 129.076 124.777 127.078 122.779 125.043C125.629 122.045 128.589 119.122 131.586 116.236C131.586 116.088 131.623 115.755 131.623 115.607C123.593 107.725 115.712 99.7323 107.719 91.7766C106.498 90.6295 105.351 89.1864 103.649 88.7794C101.317 88.6313 99.5043 90.4445 97.3211 90.8515C94.5088 91.3326 91.9556 88.1503 92.9177 85.5231C93.3987 83.6729 94.8788 82.3408 96.174 81.0827C105.425 71.7949 114.713 62.5811 123.926 53.2932Z" fill="white"/>
<path d="M127.855 202.703C126.745 203.776 125.302 204.59 123.747 204.701C121.194 204.849 118.863 202.185 119.566 199.706C120.121 197.818 121.49 196.153 121.564 194.118C121.416 192.342 119.936 191.084 118.752 189.9C99.7694 170.917 80.7497 151.897 61.767 132.915C60.8789 132.064 59.8798 131.213 58.6217 131.102C56.4755 131.102 54.8104 132.693 52.7752 133.174C50.333 133.655 47.8908 131.435 48.0018 128.992C48.0758 127.327 49.0009 125.81 50.148 124.626C59.6948 115.079 69.2787 105.495 78.8255 95.9484C80.0836 94.7273 81.6378 93.6542 83.4509 93.6542C85.6711 93.5802 87.7433 95.6894 87.5583 97.9466C87.3363 100.167 85.4861 101.943 85.4491 104.237C85.5231 105.606 86.5962 106.642 87.4473 107.604C95.958 116.152 104.506 124.626 112.98 133.137C113.313 133.396 113.757 134.136 114.238 133.618C117.198 130.769 120.047 127.771 123.007 124.922C125.006 126.92 127.004 128.918 129.002 130.954C126.153 133.951 123.192 136.874 120.195 139.76C120.195 139.908 120.158 140.241 120.158 140.389C128.188 148.271 136.07 156.264 144.062 164.219C145.283 165.367 146.43 166.81 148.133 167.217C150.464 167.365 152.277 165.552 154.46 165.145C157.272 164.664 159.826 167.846 158.864 170.473C158.383 172.323 156.902 173.655 155.607 174.913C146.356 184.201 137.069 193.415 127.855 202.703Z" fill="white"/>
<path d="M169.808 256H86.1929L128 214.192L169.808 256ZM256 169.809L214.193 128L256 86.1924V169.809ZM41.8081 128L0.000488281 169.808V86.1914L41.8081 128ZM128 41.8076L86.1929 0H169.808L128 41.8076Z" fill="black" fill-opacity="0.5"/>
</g>
<defs>
<clipPath id="clip0_338_31845">
<rect width="256" height="256" fill="white"/>
</clipPath>
</defs>
</svg>
