<svg width="256" height="256" viewBox="0 0 256 256" fill="none" xmlns="http://www.w3.org/2000/svg">
<g clip-path="url(#clip0_338_33898)">
<rect width="256" height="256" fill="#00C805"/>
<path d="M118.87 171.186L117.867 171.524C111.373 173.681 101.771 177.002 93.1507 180.963C92.6893 181.179 92.3855 181.783 92.3855 181.783C92.226 182.154 92.0266 182.609 91.8007 183.126L91.7665 183.192C90.8019 185.389 89.469 188.695 88.8993 190.041L88.455 191.101C88.3867 191.268 88.4266 191.462 88.5614 191.589C88.6411 191.665 88.738 191.708 88.8557 191.712C88.9164 191.712 88.9886 191.699 89.0512 191.667L90.0937 191.171C92.4501 190.051 95.4368 188.349 98.5679 186.863L98.6762 186.811C104.629 183.988 111.349 180.802 115.397 178.872C115.397 178.871 116.046 178.523 116.375 177.874L119.403 171.799C119.483 171.642 119.458 171.448 119.348 171.313C119.225 171.18 119.039 171.131 118.87 171.186ZM94.6678 161.772C95.0894 160.942 97.0584 157.165 97.5027 156.318L97.5825 156.174C110.73 131.379 126.753 107.993 145.198 86.666L145.709 86.0774C145.865 85.8932 145.893 85.6292 145.781 85.4147C145.66 85.2001 145.417 85.0824 145.183 85.1147L144.41 85.2191C132.304 86.8862 120.056 89.1952 107.988 92.0776C106.792 92.4118 106.019 93.1922 105.85 93.3745C96.8192 104.186 88.2652 115.57 80.4194 127.232C80.0263 127.821 79.9846 129.23 79.9846 129.23C79.9846 129.23 81.9612 144.417 84.8398 155.608C77.706 176.117 71.3375 203.145 71.3375 203.145C71.2863 203.32 71.3223 203.508 71.4268 203.656C71.535 203.804 71.7059 203.889 71.8901 203.895H75.9497C76.0733 203.897 76.1946 203.862 76.2972 203.793C76.3998 203.724 76.4787 203.625 76.5231 203.51L76.7984 202.75C80.9435 191.45 85.6714 180.289 90.8931 169.416C92.1083 166.883 94.6678 161.772 94.6678 161.772Z" fill="white"/>
<path d="M151.156 91.0992L151.148 90.3263C151.141 90.0833 150.989 89.8649 150.765 89.7833C150.537 89.6978 150.275 89.7624 150.119 89.9485L149.614 90.5333C128.107 115.4 110.03 143.001 95.8845 172.568L95.556 173.259C95.4477 173.477 95.4933 173.741 95.6547 173.916C95.7667 174.032 95.9148 174.096 96.0762 174.096C96.1465 174.1 96.2338 174.085 96.3079 174.055L97.0161 173.76C109.096 168.757 121.434 164.422 133.691 160.881C134.424 160.668 135.045 160.157 135.392 159.477C140.764 149.009 153.239 128.743 153.239 128.743C153.56 128.286 153.478 127.608 153.478 127.608C153.478 127.608 151.293 103.366 151.156 91.0992Z" fill="white"/>
<path d="M178.962 56.1415C175.909 53.4946 171.481 52.2508 164.596 52.1027C158.355 51.9698 150.931 53.3123 142.525 56.0845C141.264 56.527 140.263 57.2238 139.365 58.1068C130.759 66.1874 122.509 74.6395 114.639 83.4389L114.034 84.1092C113.867 84.299 113.842 84.5744 113.965 84.7927C114.027 84.9006 114.122 84.9859 114.236 85.0361C114.349 85.0863 114.476 85.0989 114.598 85.0719L115.479 84.8858C128.149 82.1781 140.943 80.1084 153.49 78.7355C154.316 78.6444 155.169 78.9197 155.786 79.4817C156.401 80.0495 156.754 80.8565 156.739 81.6977C156.532 94.1482 156.982 106.661 158.093 118.894L158.163 119.691C158.175 119.811 158.224 119.925 158.302 120.017C158.381 120.109 158.486 120.174 158.604 120.204C158.645 120.215 158.687 120.225 158.742 120.227C158.928 120.228 159.122 120.139 159.236 119.976L159.695 119.319C166.767 109.234 174.462 99.4307 182.553 90.1588L182.549 90.1569C183.455 89.1258 183.696 88.4726 183.865 87.5365C186.413 71.2371 182.481 59.191 178.962 56.1415Z" fill="white"/>
<path d="M169.808 256H86.1929L128 214.192L169.808 256ZM41.8081 128L0.000488281 169.808V86.1924L41.8081 128ZM256 169.808L214.193 128L256 86.1924V169.808ZM128 41.8076L86.1929 0H169.808L128 41.8076Z" fill="black" fill-opacity="0.5"/>
</g>
<defs>
<clipPath id="clip0_338_33898">
<rect width="256" height="256" fill="white"/>
</clipPath>
</defs>
</svg>
