<svg width="256" height="256" viewBox="0 0 256 256" fill="none" xmlns="http://www.w3.org/2000/svg">
<g clip-path="url(#clip0_338_31817)">
<rect width="256" height="256" fill="#ED1C24"/>
<path d="M109.13 172.027V170.675C109.014 168.306 108.818 166.561 108.818 165.914C108.818 164.25 106.056 146.616 105.628 142.502C105.201 138.458 106.183 137.487 106.183 137.487C103.594 122.43 108.39 106.287 108.39 106.287C106.668 104.75 110.239 96.6962 110.239 96.6962C112.874 90.0749 116.132 80.634 116.132 80.634C116.858 77.785 117.456 74.9047 117.923 72.002C118.409 66.802 118.409 61.5211 118.409 59.7878C118.409 58.4358 116.814 58.4936 116.814 57.338C116.814 55.9282 118.409 52.5193 118.536 52.1958C118.584 51.7839 118.544 51.3666 118.42 50.9709C118.293 50.6473 117.981 50.3238 117.981 50.3238C117.981 48.7176 119.148 47.1113 120.986 47.1113H135.072C136.851 47.1113 138.076 48.7291 138.076 50.3238C138.076 50.3238 137.776 50.5895 137.591 51.0402C137.439 51.4256 137.399 51.8463 137.475 52.2535C137.591 52.5771 139.186 56.0553 139.186 57.4073C139.186 58.6207 137.591 58.5629 137.591 59.8456C137.591 61.5211 137.649 66.7904 138.076 72.002C138.631 75.4109 139.313 78.5656 139.867 80.6918C139.867 80.6918 143.057 90.1442 145.761 96.7655C145.761 96.7655 149.389 104.808 147.61 106.357C147.61 106.357 152.405 122.5 149.817 137.557C149.817 137.557 150.799 138.516 150.371 142.572C149.944 146.616 147.182 164.25 147.182 165.983C147.182 166.63 146.997 168.433 146.87 170.814V172.085C146.87 182.774 151.111 187.985 151.111 194.872C151.111 204.059 145.518 208.889 128 208.889C110.482 208.889 104.889 204.128 104.889 194.872C104.889 187.985 109.13 182.774 109.13 172.027Z" fill="white"/>
<path d="M169.808 256H86.1929L128 214.192L169.808 256ZM256 169.809L214.193 128L256 86.1924V169.809ZM41.8081 128L0.000488281 169.808V86.1914L41.8081 128ZM128 41.8076L86.1929 0H169.808L128 41.8076Z" fill="black" fill-opacity="0.5"/>
</g>
<defs>
<clipPath id="clip0_338_31817">
<rect width="256" height="256" fill="white"/>
</clipPath>
</defs>
</svg>
