<svg width="256" height="256" viewBox="0 0 256 256" fill="none" xmlns="http://www.w3.org/2000/svg">
<g clip-path="url(#clip0_338_31943)">
<rect width="256" height="256" fill="#ED1C24"/>
<path fill-rule="evenodd" clip-rule="evenodd" d="M118.459 120.434C120.878 120.434 122.625 122.412 122.625 124.6C122.625 127.019 120.878 128.996 118.459 128.996C116.041 128.996 114.294 127.019 114.294 124.6C114.294 122.412 116.041 120.434 118.459 120.434ZM213.89 134.909C207.305 141.494 186.457 159.482 180.986 174.84L174.401 173.093C176.589 166.739 183.174 156.852 190.642 149.403C189.106 150.056 187.359 150.286 186.035 150.286C184.057 150.286 182.521 149.634 181.638 148.539C180.986 147.656 180.544 146.562 180.544 145.237V144.354C174.19 148.309 168.91 150.286 163.65 150.286C159.696 150.286 156.413 148.539 154.877 145.449C148.292 148.52 142.149 150.286 136.889 150.286C132.07 150.286 128.116 148.309 126.35 144.796C119.765 148.52 114.274 150.286 109.897 150.286C107.267 150.286 105.29 149.403 103.965 148.098C102.871 147.215 102.43 145.909 102.43 144.374C98.2637 147.004 92.1205 150.306 85.7469 150.306C79.3733 150.306 74.9963 148.117 71.7135 145.909C66.4534 148.77 60.5214 150.306 54.167 150.306C49.5596 150.306 42.0918 148.328 42.0918 141.532C42.0918 136.042 47.5823 132.318 55.2613 132.318C61.6157 132.318 67.9892 135.178 71.7135 138.019C75.4378 134.948 79.3925 130.782 83.9999 125.08H80.9283C72.1551 125.08 64.9176 122.45 60.9629 118.054C58.7744 115.635 57.6802 112.794 57.6802 109.492C57.6802 97.4165 73.2493 87.9906 86.63 86.4548C87.5131 88.4321 88.377 90.1791 89.0489 91.9452C75.8794 93.481 64.7064 101.371 64.7064 109.05C64.7064 114.099 70.4081 119.148 82.4833 119.148C84.6718 119.148 86.6492 119.148 88.6265 118.707C99.3771 103.982 115.829 81.1562 129.863 81.1562C134.029 81.1562 136.217 83.5751 136.217 87.0883C136.217 94.1146 130.074 101.563 126.119 105.518C120.187 111.661 109.014 120.665 93.4259 123.736C87.4939 132.068 82.4641 137.77 77.6264 141.724C80.698 143.471 83.328 144.354 86.8412 144.354C95.1729 144.354 103.082 136.675 109.437 130.321L109.648 130.11L114.697 133.834L114.486 134.276C111.625 137.347 108.995 140.86 108.995 142.607C108.995 144.143 110.32 144.354 111.414 144.354C114.486 144.354 119.534 142.377 125.236 138.653C125.889 124.389 145.413 102.446 157.277 102.446C160.56 102.446 162.537 104.193 162.537 107.054C162.537 114.291 150.039 129.649 132.051 141.494C133.146 143.471 135.123 144.354 138.847 144.354C141.708 144.354 147.179 143.03 153.764 139.747C154.647 132.279 158.813 124.389 164.073 118.687C169.563 112.986 175.476 109.261 180.525 109.261C183.808 109.261 185.785 111.008 185.785 113.869C185.785 120.012 178.548 130.763 161.001 141.955C161.654 143.491 163.19 144.374 165.608 144.374C170.869 144.374 179.872 138.883 187.11 132.087L192.159 136.042C189.97 138.672 187.762 141.532 187.993 143.279C187.993 143.721 188.204 144.162 189.087 144.162C194.347 144.162 202.679 137.136 208.841 130.993L213.89 134.948V134.909ZM98.9356 116.038C106.615 113.619 114.082 108.57 119.343 103.099C124.391 98.05 128.557 92.1372 128.557 89.2768C128.557 88.6241 128.116 88.1825 127.463 88.1825C125.044 88.1825 120.667 91.2541 114.735 97.1862C110.128 101.794 104.637 108.148 98.9356 116.057V116.038ZM66.0311 141.705C63.1706 139.728 58.7936 137.981 54.8389 137.981C50.8843 137.981 48.4846 139.517 48.4846 141.494C48.4846 143.471 51.5562 144.566 54.8389 144.566C58.7936 144.566 62.5179 143.471 66.0311 141.705ZM132.07 134.468C142.821 126.347 154.224 114.502 155.319 109.684V109.242C155.319 108.801 155.319 108.589 154.877 108.589C151.364 108.589 135.564 123.295 132.07 134.487V134.468ZM160.579 135.792C161.673 135.14 162.767 134.257 163.65 133.604C171.329 127.249 177.261 120.434 178.567 116.71V116.057C178.567 115.616 178.567 115.405 178.125 115.405C174.612 115.405 163.209 126.808 160.348 136.023L160.56 135.812L160.579 135.792Z" fill="white"/>
<path d="M169.808 256H86.1929L128 214.192L169.808 256ZM41.8081 128L0.000488281 169.808V86.1924L41.8081 128ZM256 169.808L214.193 128L256 86.1924V169.808ZM128 41.8076L86.1929 0H169.808L128 41.8076Z" fill="black" fill-opacity="0.5"/>
</g>
<defs>
<clipPath id="clip0_338_31943">
<rect width="256" height="256" fill="white"/>
</clipPath>
</defs>
</svg>
