<svg width="256" height="256" viewBox="0 0 256 256" fill="none" xmlns="http://www.w3.org/2000/svg">
<g clip-path="url(#clip0_338_34078)">
<rect width="256" height="256" fill="#F5F5F5"/>
<path d="M149.782 88.9336H106.63V166.46H149.782V88.9336Z" fill="#FF5A00"/>
<path d="M109.504 127.698C109.504 111.947 116.909 97.9677 128.271 88.9353C119.909 82.3604 109.361 78.3867 97.8546 78.3867C70.5976 78.3867 48.543 100.441 48.543 127.698C48.543 154.955 70.5976 177.01 97.8546 177.01C109.361 177.01 119.909 173.036 128.271 166.461C116.893 157.557 109.504 143.449 109.504 127.698Z" fill="#EB001B"/>
<path d="M207.998 127.698C207.998 154.955 185.943 177.01 158.686 177.01C147.18 177.01 136.632 173.036 128.27 166.461C139.776 157.413 147.037 143.449 147.037 127.698C147.037 111.947 139.632 97.9677 128.27 88.9353C136.616 82.3604 147.164 78.3867 158.67 78.3867C185.943 78.3867 207.998 100.585 207.998 127.698Z" fill="#F79E1B"/>
<path d="M169.808 256H86.1929L128 214.192L169.808 256ZM41.8081 128L0.000488281 169.808V86.1924L41.8081 128ZM256 169.808L214.193 128L256 86.1924V169.808ZM128 41.8076L86.1929 0H169.808L128 41.8076Z" fill="black" fill-opacity="0.5"/>
</g>
<defs>
<clipPath id="clip0_338_34078">
<rect width="256" height="256" fill="white"/>
</clipPath>
</defs>
</svg>
