<svg width="256" height="256" viewBox="0 0 256 256" fill="none" xmlns="http://www.w3.org/2000/svg">
<g clip-path="url(#clip0_338_31813)">
<rect width="256" height="256" fill="#D52A3E"/>
<path d="M160.037 73.3198C172.608 73.3198 182.805 126.355 182.805 191.853H201.149C201.149 121.337 182.643 64.2559 159.983 64.2559C147.034 64.2559 135.596 81.3587 128.043 108.227C120.49 81.3587 109.052 64.2559 96.2113 64.2559C73.5513 64.2559 55.0996 121.283 55.0996 191.799H73.4434C73.4434 126.301 83.5325 73.3198 96.1034 73.3198C108.674 73.3198 118.871 122.309 118.871 182.735H137.107C137.107 122.309 147.358 73.3198 159.929 73.3198" fill="#FFCC00"/>
<path d="M169.808 256H86.1929L128 214.192L169.808 256ZM256 169.809L214.193 128L256 86.1924V169.809ZM41.8081 128L0.000488281 169.808V86.1914L41.8081 128ZM128 41.8076L86.1929 0H169.808L128 41.8076Z" fill="black" fill-opacity="0.5"/>
</g>
<defs>
<clipPath id="clip0_338_31813">
<rect width="256" height="256" fill="white"/>
</clipPath>
</defs>
</svg>
