<svg width="256" height="256" viewBox="0 0 256 256" fill="none" xmlns="http://www.w3.org/2000/svg">
<g clip-path="url(#clip0_338_34071)">
<rect width="256" height="256" fill="#0081FB"/>
<path d="M71.5564 143.251C71.5564 148.749 72.7632 152.97 74.3405 155.524C76.4087 158.869 79.4933 160.286 82.638 160.286C86.6942 160.286 90.4047 159.28 97.5555 149.39C103.284 141.463 110.034 130.336 114.576 123.361L122.268 111.543C127.611 103.336 133.795 94.2119 140.886 88.0276C146.674 82.98 152.919 80.1758 159.203 80.1758C169.754 80.1758 179.804 86.29 187.496 97.7573C195.914 110.316 200 126.135 200 142.46C200 152.164 198.087 159.295 194.832 164.928C191.687 170.377 185.558 175.82 175.248 175.82V160.286C184.076 160.286 186.279 152.174 186.279 142.89C186.279 129.66 183.194 114.978 176.399 104.487C171.577 97.0462 165.328 92.4993 158.452 92.4993C151.016 92.4993 145.032 98.1078 138.307 108.108C134.732 113.421 131.061 119.896 126.94 127.202L122.403 135.239C113.289 151.398 110.981 155.079 106.424 161.153C98.4368 171.789 91.6166 175.82 82.638 175.82C71.987 175.82 65.2519 171.208 61.0806 164.257C57.6754 158.594 56.0029 151.163 56.0029 142.695L71.5564 143.251Z" fill="white"/>
<path d="M68.2666 98.8539C75.3973 87.8624 85.6878 80.1758 97.4906 80.1758C104.326 80.1758 111.121 82.1988 118.217 87.9926C125.979 94.3271 134.251 104.758 144.572 121.949L148.272 128.118C157.206 143 162.288 150.657 165.263 154.267C169.088 158.904 171.767 160.286 175.248 160.286C184.076 160.286 186.279 152.174 186.279 142.89L200 142.46C200 152.164 198.087 159.295 194.832 164.928C191.687 170.377 185.558 175.82 175.248 175.82C168.838 175.82 163.16 174.428 156.88 168.504C152.053 163.957 146.409 155.88 142.068 148.619L129.153 127.046C122.674 116.22 116.73 108.148 113.289 104.492C109.589 100.561 104.832 95.8143 97.2402 95.8143C91.096 95.8143 85.8781 100.126 81.5116 106.721L68.2666 98.8539Z" fill="white"/>
<path d="M97.24 95.8143C91.0958 95.8143 85.8779 100.126 81.5113 106.721C75.337 116.04 71.5564 129.921 71.5564 143.251C71.5564 148.749 72.7632 152.97 74.3405 155.524L61.0806 164.257C57.6754 158.594 56.0029 151.163 56.0029 142.695C56.0029 127.297 60.2293 111.248 68.2664 98.8539C75.3971 87.8624 85.6876 80.1758 97.4904 80.1758L97.24 95.8143Z" fill="white"/>
<path d="M169.808 256H86.1929L128 214.192L169.808 256ZM41.8081 128L0.000488281 169.808V86.1924L41.8081 128ZM256 169.808L214.193 128L256 86.1924V169.808ZM128 41.8076L86.1929 0H169.808L128 41.8076Z" fill="black" fill-opacity="0.5"/>
</g>
<defs>
<clipPath id="clip0_338_34071">
<rect width="256" height="256" fill="white"/>
</clipPath>
</defs>
</svg>
