<svg width="256" height="256" viewBox="0 0 256 256" fill="none" xmlns="http://www.w3.org/2000/svg">
<g clip-path="url(#clip0_338_34002)">
<rect width="256" height="256" fill="#DF3741"/>
<path d="M145.263 68.0391L131.683 115.226C130.301 120.29 129.381 125.814 128.69 131.108H127.539L110.966 68.0391H66.0812L46.7461 187.963H88.8691L93.933 136.633C94.3934 131.799 94.6236 126.965 95.0839 122.131H96.465C96.6952 127.195 97.8461 132.029 99.2272 137.093L114.879 187.963H140.429L157.693 134.101C159.074 130.188 159.765 126.044 160.455 122.131H161.146L167.13 187.963H209.253L189.458 68.0391H145.263Z" fill="white"/>
<path d="M169.808 256H86.1929L128 214.192L169.808 256ZM41.8081 128L0.000488281 169.808V86.1924L41.8081 128ZM256 169.808L214.193 128L256 86.1924V169.808ZM128 41.8076L86.1929 0H169.808L128 41.8076Z" fill="black" fill-opacity="0.5"/>
</g>
<defs>
<clipPath id="clip0_338_34002">
<rect width="256" height="256" fill="white"/>
</clipPath>
</defs>
</svg>
