<svg width="256" height="256" viewBox="0 0 256 256" fill="none" xmlns="http://www.w3.org/2000/svg">
<g clip-path="url(#clip0_338_31927)">
<rect width="256" height="256" fill="#E50914"/>
<path d="M86.5938 53.334L87.1081 202.667C98.0085 200.568 106.58 200.797 116.255 199.924V53.5054L86.5938 53.334Z" fill="white"/>
<path d="M139.401 53.5059H169.062L169.405 202.325L139.229 197.353L139.401 53.5059Z" fill="white"/>
<path d="M86.9385 53.5059C87.6243 55.2204 138.374 199.582 138.374 199.582C146.713 199.522 157.894 200.884 168.892 202.153L116.085 53.5059H86.9385Z" fill="white"/>
<path d="M169.808 256H86.1929L128 214.192L169.808 256ZM256 169.809L214.193 128L256 86.1924V169.809ZM41.8081 128L0.000488281 169.808V86.1914L41.8081 128ZM128 41.8076L86.1929 0H169.808L128 41.8076Z" fill="black" fill-opacity="0.5"/>
</g>
<defs>
<clipPath id="clip0_338_31927">
<rect width="256" height="256" fill="white"/>
</clipPath>
</defs>
</svg>
