<svg width="256" height="256" viewBox="0 0 256 256" fill="none" xmlns="http://www.w3.org/2000/svg">
<g clip-path="url(#clip0_338_33933)">
<rect width="256" height="256" fill="#4CCA47"/>
<path d="M106.042 105.299V95.2101C107.153 95.2101 108.265 95.2101 108.821 95.2101C136.617 94.0891 154.962 119.311 154.962 119.311C154.962 119.311 135.505 146.774 114.38 146.774C111.601 146.774 108.821 146.214 106.042 145.653V114.266C117.16 115.387 118.828 120.432 125.499 131.081L139.953 118.75C139.953 118.75 129.39 104.738 111.601 104.738C109.933 104.738 108.265 105.299 106.042 105.299ZM106.042 71.1094V86.2424H108.821C147.735 85.1214 172.752 118.19 172.752 118.19C172.752 118.19 143.844 153.5 113.824 153.5C111.045 153.5 108.821 153.5 106.042 152.94V162.468C108.265 162.468 110.489 163.028 112.713 163.028C141.064 163.028 161.077 148.456 181.09 131.641C184.426 134.444 197.768 140.609 200.548 143.412C181.646 159.105 137.729 171.996 113.269 171.996C111.045 171.996 108.821 171.996 106.597 171.436V184.887H213.334V71.1094H106.042ZM106.042 145.093V152.94C79.9135 148.456 72.6865 120.992 72.6865 120.992C72.6865 120.992 84.9167 106.98 106.042 104.738V113.706C94.9232 112.585 86.5845 122.674 86.5845 122.674C86.5845 122.674 91.5877 140.049 106.042 145.093ZM59.9004 120.432C59.9004 120.432 75.4661 97.452 106.042 95.2101V86.8029C72.1306 89.6053 42.667 118.75 42.667 118.75C42.667 118.75 59.3445 167.512 106.042 171.996V163.028C71.5747 158.545 59.9004 120.432 59.9004 120.432Z" fill="#F7F7FA"/>
<path d="M169.808 256H86.1929L128 214.192L169.808 256ZM41.8081 128L0.000488281 169.808V86.1924L41.8081 128ZM256 169.808L214.193 128L256 86.1924V169.808ZM128 41.8076L86.1929 0H169.808L128 41.8076Z" fill="black" fill-opacity="0.5"/>
</g>
<defs>
<clipPath id="clip0_338_33933">
<rect width="256" height="256" fill="white"/>
</clipPath>
</defs>
</svg>
