<?xml version="1.0" encoding="utf-8"?>
<!-- Generator: Adobe Illustrator 24.0.0, SVG Export Plug-In . SVG Version: 6.00 Build 0)  -->
<svg version="1.1" id="CIRCLE_OUTLINE_BLACK" xmlns="http://www.w3.org/2000/svg" xmlns:xlink="http://www.w3.org/1999/xlink"
	 x="0px" y="0px" viewBox="0 0 512 512" style="enable-background:new 0 0 512 512;" xml:space="preserve">
<style type="text/css">
	.st0{fill:#FFD15C;}
	.st1{fill:#FFFFFF;}
</style>
<path class="st0" d="M512,256c0,141.4-114.6,256-256,256S0,397.4,0,256S114.6,0,256,0S512,114.6,512,256z"/>
<path class="st1" d="M193.5,152.3c-10.4,1.5-4.6,10.4-4.6,10.4l-0.3,2.5c14.9,25.7,39.5,52.7,64.6,70.7c18.5,13.2,32.3,32.7,39,54.9
	c6.6,21.9,5.4,44.6-3.2,62.2c-10.4,21.2-30.1,33.5-55.3,34.7c-25.1,1.2-54.9-8.7-88.6-29.4c-0.3,0.8-0.7,1.6-1.1,2.3
	c29.2,30.1,63,48.1,98.1,52.2c35.5,4.2,71.9-5.8,102.7-27.9c-0.8,0-1.4-0.2-1.9-0.5C446.5,298.8,276.9,140.4,193.5,152.3
	L193.5,152.3z"/>
<path d="M462.6,267.4c-0.1-1.9-0.2-4.2-0.6-6.9c-1.3-10.5-5.5-26.6-17.7-43.7c-0.6-0.8-1.2-1.6-1.8-2.4c-0.1-0.2-0.3-0.4-0.4-0.6
	c-0.5-0.7-1.1-1.4-1.6-2.1c0,0-0.1-0.1-0.1-0.1c-0.6-0.7-1.2-1.5-1.8-2.2c-0.1-0.2-0.3-0.3-0.4-0.5c-0.5-0.6-1.1-1.3-1.6-1.9
	c-0.1-0.1-0.1-0.1-0.2-0.2c-0.6-0.7-1.2-1.3-1.8-2c-0.1-0.1-0.3-0.3-0.4-0.4c-0.5-0.6-1-1.1-1.5-1.6c-0.1-0.1-0.2-0.2-0.2-0.3
	c-0.6-0.6-1.2-1.2-1.7-1.7c-0.1-0.1-0.2-0.2-0.4-0.4c-0.5-0.5-1-1-1.5-1.4c-0.1-0.1-0.2-0.2-0.3-0.3c-0.6-0.5-1.1-1-1.7-1.5
	c-0.1-0.1-0.2-0.2-0.3-0.3c-0.5-0.4-1-0.8-1.4-1.2c-0.1-0.1-0.2-0.2-0.3-0.3c-0.5-0.5-1.1-0.9-1.6-1.3c-0.1-0.1-0.2-0.2-0.3-0.3
	c-0.4-0.4-0.9-0.7-1.3-1.1c-0.1-0.1-0.3-0.2-0.4-0.3c-0.5-0.4-1-0.8-1.5-1.1c-0.1-0.1-0.2-0.2-0.3-0.2c-0.4-0.3-0.8-0.6-1.2-0.9
	c-0.1-0.1-0.3-0.2-0.4-0.3c-0.5-0.3-0.9-0.6-1.4-1c-0.1-0.1-0.2-0.2-0.4-0.2c-0.4-0.2-0.7-0.5-1-0.7c-0.2-0.1-0.3-0.2-0.5-0.3
	c-0.4-0.2-0.8-0.5-1.1-0.7c-0.2-0.1-0.4-0.2-0.5-0.3c-0.3-0.2-0.5-0.3-0.8-0.5c-0.2-0.1-0.4-0.2-0.6-0.3c-0.2-0.1-0.5-0.3-0.7-0.4
	c-0.3-0.2-0.6-0.4-1-0.5c-0.2-0.1-0.3-0.2-0.5-0.3c-0.2-0.1-0.4-0.2-0.7-0.3c-0.1-0.1-0.2-0.1-0.3-0.2c-0.4-0.2-0.9-0.5-1.3-0.7
	c0,0-0.1,0-0.1,0c-2.7-4.8-5.7-9.6-8.9-14.4c-37.3-54.6-78.2-81.1-124.9-81.2h-0.2c-19.8,0-37.9,4.5-53,8.9c-4.3,1.3-8.8,2.6-13.1,4
	c-11,3.4-21.4,6.7-30.3,8.1c-5.6,0.9-10,3-13.1,6.2c-2.8,3-4.5,7.1-5,12.1c-1,9.7,2.5,22.8,10.1,37.8c15.3,30.4,44.6,63.9,74.6,85.4
	c3.5,2.5,6.7,5.2,9.7,8.2c-0.6,0.1-1.2,0.2-1.9,0.3c-23.5,3.4-35.8,28.6-40.7,42.3c-1.3,3.6,2.2,6.8,5.8,5.5
	c14.6-4.9,44.3-12.9,61-2.6c0.1,0,0.3-0.1,0.4-0.1c3,15,1.6,29.8-4.1,41.3c-7.5,15.1-21.8,24-40.3,24.9
	c-21.8,1.1-48.6-8.2-79.7-27.6l-0.5-0.3c-0.3-0.1-0.6-0.3-0.8-0.5c24.2-27.5,9.9-69.9,4.3-83.8c-0.7-1.8-3.3-1.8-4.3-0.1
	c-13,22.1-39.8,20.4-39.3,46.7c0,0,0,0,0-0.1c-20.4-16.6-35.6,5.5-61,2.2c-2-0.3-3.5,1.7-2.5,3.4c7.7,13.3,33.5,52.3,71.6,47.9
	l-1.8,1.3l6.8,7.5c33.3,36.7,72.9,58.7,114.6,63.6c6,0.7,12,1.1,18,1.1c34.9,0,69.6-11.7,99.4-33.9c34.2-25.4,57.9-61.3,66.8-101
	c3-13.2,4.2-26.4,3.7-39.5c7.5-3,15.7,0.3,22.2,4.7c0.1,0,0.1,0.1,0.2,0.1c0.3,0.2,0.5,0.4,0.8,0.5c0.1,0,0.1,0.1,0.2,0.1
	c0.8,0.5,1.5,1.1,2.2,1.6c0.1,0.1,0.3,0.2,0.4,0.3c0.2,0.1,0.3,0.3,0.5,0.4c0.2,0.1,0.3,0.3,0.5,0.4c0.1,0.1,0.3,0.2,0.4,0.4
	c0.3,0.2,0.6,0.5,0.8,0.7c0.1,0.1,0.2,0.2,0.3,0.2c0.2,0.2,0.4,0.4,0.6,0.5c0.1,0.1,0.2,0.2,0.3,0.3c0.2,0.2,0.4,0.3,0.6,0.5
	c0.1,0.1,0.2,0.1,0.2,0.2c0.2,0.2,0.5,0.5,0.7,0.7c0.1,0.1,0.2,0.1,0.2,0.2c0.5,0.4,1.1,0.5,1.6,0.5
	C461.7,269.5,462.7,268.6,462.6,267.4z M342.9,384.5c0.5,0.3,1.1,0.4,1.9,0.5c-30.8,22.2-67.2,32.1-102.7,27.9
	c-35.2-4.1-68.9-22.1-98.1-52.2c0.4-0.8,0.8-1.5,1.1-2.3c33.7,20.7,63.5,30.6,88.6,29.4c25.2-1.2,44.9-13.6,55.3-34.7
	c8.7-17.6,9.8-40.2,3.2-62.2c-6.7-22.2-20.5-41.7-39-54.9c-25.2-18-49.7-45-64.6-70.7l0.3-2.5c0,0-5.8-8.9,4.6-10.4
	C276.9,140.4,446.5,298.8,342.9,384.5z"/>
<path class="st1" d="M280.3,146.5c-2.9-4.1-8.7-15.1,9.3-15.1c18,0,45.4,20.3,51,27.8c-1.7,4.6-13.3,5.6-19.1,5.2
	s-15.6-1.4-23.2-5.2C290.8,155.6,283.2,150.6,280.3,146.5z"/>
</svg>
