<svg width="256" height="256" viewBox="0 0 256 256" fill="none" xmlns="http://www.w3.org/2000/svg">
<g clip-path="url(#clip0_338_31972)">
<rect width="256" height="256" fill="#0096D6"/>
<path fill-rule="evenodd" clip-rule="evenodd" d="M195.454 161.935C197.43 120.605 161.787 74.0602 113.196 68.307L113.279 67.7422C161.182 67.7422 197.906 112.09 197.906 147.076C197.86 154.359 197.285 158.871 196.259 162.147L195.454 161.935ZM192.551 167.189C189.364 171.083 185.356 175.004 180.66 178.726C172.02 129.038 135.507 85.5888 109.693 72.9069L109.14 73.2923C135.101 94.5988 166.065 135.98 178.107 180.676C171.965 185.188 165.33 188.987 158.33 192.001C133.832 164.064 110.993 110.185 103.633 75.9947L102.884 76.22C103.05 109.408 126.613 165.748 155.348 193.239C148.757 195.847 141.906 197.74 134.911 198.886C107.367 187.974 87.7606 153.025 87.7606 117.223C87.7606 93.8517 94.8864 79.3938 96.2651 76.435L95.678 76.2022C94.0103 78.7253 83.5713 93.1757 83.5713 118.408C83.5713 158.876 103.529 189.807 130.025 199.548C120.55 200.59 110.97 200.141 101.634 198.216L101.437 198.832C104.272 199.876 113.888 203.912 128.558 203.912C161.738 203.912 184.168 183.297 193.198 167.626L192.551 167.189Z" fill="white"/>
<path fill-rule="evenodd" clip-rule="evenodd" d="M125.24 53.1406C100.087 53.1406 70.5928 71.2941 70.5928 87.8881C70.5928 94.3069 76.4646 99.7295 88.6173 99.7295C116.829 99.7295 143.039 80.3471 143.039 65.2755C143.039 57.3447 135.423 53.1406 125.24 53.1406ZM135.282 64.8071C135.282 77.5113 110.886 93.0409 90.4925 93.0409C81.4825 93.0409 76.6143 89.495 76.6143 83.644C76.6143 70.7575 101.287 55.4917 120.416 55.4917C132.888 55.4917 135.282 61.8379 135.282 64.8071Z" fill="white"/>
<path fill-rule="evenodd" clip-rule="evenodd" d="M60.5678 95.5674C59.8607 96.7904 57.0293 102.335 57.0293 108.015C57.0293 118.551 67.6744 128.331 87.2539 128.331C124.92 128.331 168.438 100.606 168.438 74.8701C168.438 63.3178 157.502 57.0369 149.909 55.7383L149.767 56.1889C152.128 56.9361 160.779 60.9578 160.779 71.2486C160.779 91.7547 122.357 119.695 84.0846 119.695C69.4325 119.695 60.2016 112.462 60.2016 101.927C60.2016 98.5944 60.8954 96.399 61.0792 95.7631L60.5678 95.5674Z" fill="white"/>
<path fill-rule="evenodd" clip-rule="evenodd" d="M183.97 76.7969C185.003 77.5811 191.207 82.7517 191.207 92.5296C191.207 125.869 138.97 158.652 92.7886 158.652C65.2486 158.652 52.6942 145.054 53.2501 132.98H53.7437C54.8229 139.25 63.7647 150.471 87.8686 150.471C134.108 150.471 185.735 116.549 185.735 86.8283C185.735 81.7303 184.351 78.5535 183.568 77.1408L183.97 76.7969Z" fill="white"/>
<path fill-rule="evenodd" clip-rule="evenodd" d="M201.428 107.922C201.644 108.632 202.769 111.824 202.769 116.822C202.769 153.909 149.905 185.659 103.929 185.659C80.2651 185.659 67.9079 174.164 65.2988 169.496L65.7198 169.185C72.2676 174.912 85.1645 179.262 100.215 179.262C140.821 179.262 201.411 148.369 200.87 108.057L201.428 107.922Z" fill="white"/>
<path d="M169.808 256H86.1929L128 214.192L169.808 256ZM41.8081 128L0.000488281 169.808V86.1924L41.8081 128ZM256 169.808L214.193 128L256 86.1924V169.808ZM128 41.8076L86.1929 0H169.808L128 41.8076Z" fill="black" fill-opacity="0.5"/>
</g>
<defs>
<clipPath id="clip0_338_31972">
<rect width="256" height="256" fill="white"/>
</clipPath>
</defs>
</svg>
