<svg width="256" height="256" viewBox="0 0 256 256" fill="none" xmlns="http://www.w3.org/2000/svg">
<g clip-path="url(#clip0_338_33890)">
<rect width="256" height="256" fill="#186DBF"/>
<path fill-rule="evenodd" clip-rule="evenodd" d="M115.463 117.773C123.176 98.7256 108.744 93.5622 99.3256 93.569H68.1758C70.7742 95.3553 70.3456 97.7103 69.8383 99.1645L51.69 157.172C50.9629 159.47 48.2545 161.878 46.7969 162.262L72.0166 162.253C70.6325 162 68.6429 160.034 69.3585 157.334L75.9488 136.355C75.9488 136.355 106.282 140.447 115.463 117.773ZM90.9566 98.881C94.2458 98.881 103.39 99.3191 97.4965 116.61C91.311 134.762 77.6138 131.026 77.6138 131.026L87.7067 98.881C87.7067 98.881 90.8388 98.881 90.9566 98.881Z" fill="white"/>
<path fill-rule="evenodd" clip-rule="evenodd" d="M135.622 162.261L152.575 162.253C147.148 160.512 139.12 155.384 135.93 151.728C138.514 148.901 141.709 145.36 142.292 138.146H133.491C133.491 138.146 135.185 139.115 135.185 141.176C135.185 143.091 134.425 145.717 132.938 147.587C130.364 143.768 127.607 139.409 126.644 133.019C130.087 131.297 134.943 129.444 138.803 126.068C142.453 122.861 143.3 119.844 143.359 117.873C143.359 117.786 143.359 117.71 143.359 117.623C143.359 115.568 142.551 113.628 141.069 112.153C138.523 109.628 134.493 108.595 130.287 109.384C126.893 110.023 124.003 111.826 122.559 113.173C117.427 117.961 116.767 125.886 116.767 129.462C116.767 130.334 116.805 130.996 116.84 131.381C116.548 131.498 116.021 131.698 116.021 131.698C112.285 133.073 102.294 135.749 98.7147 143.96C98.2578 144.994 97.6123 147.243 97.6123 149.87C97.6123 152.123 98.0879 154.64 99.5489 156.936C102.067 160.869 106.352 163.36 113.183 163.242C120.626 163.119 127.942 158.037 129.256 157.111C130.553 158.305 133.879 161.434 135.622 162.261ZM135.619 116.392C134.737 121.924 127.585 127.495 125.834 128.256C125.524 125.147 125.659 120.247 128.271 116.238C129.995 113.586 132.265 112.416 134.112 113.058C135.579 113.558 135.757 114.931 135.619 116.392ZM125.659 153.337C124.658 153.963 120.73 155.956 117.024 156.308C113.608 156.624 107.921 155.3 107.932 148.446C107.939 142.592 114.308 138.312 117.746 136.825C119.176 142.501 122.308 148.898 125.659 153.337Z" fill="white"/>
<path fill-rule="evenodd" clip-rule="evenodd" d="M187.178 98.9504C197.255 96.5374 205.572 104.419 206.321 104.961L209.204 95.803C205.213 94.6076 176.29 84.811 155.858 108.16C143.296 122.519 140.211 151.933 156.152 159.82C173.228 168.258 192.063 158.52 193.448 157.845L201.25 133.032C202.088 130.035 203.996 128.077 207.36 126.83H180.264C184.22 128.479 183.931 131.46 183.609 132.677L175.829 157.49C174.79 157.698 153.018 163.128 165.206 125.022C167.836 116.844 175.182 101.837 187.178 98.9504Z" fill="white"/>
<path d="M169.808 256H86.1929L128 214.192L169.808 256ZM41.8081 128L0.000488281 169.808V86.1924L41.8081 128ZM256 169.808L214.193 128L256 86.1924V169.808ZM128 41.8076L86.1929 0H169.808L128 41.8076Z" fill="black" fill-opacity="0.5"/>
</g>
<defs>
<clipPath id="clip0_338_33890">
<rect width="256" height="256" fill="white"/>
</clipPath>
</defs>
</svg>
