<svg xmlns="http://www.w3.org/2000/svg" width="200" height="200" viewBox="0 0 24 24">
    <g fill="none">
        <path fill="#AE918B" d="M6.27 5.186h-.18c-.009 0-.013-.009-.017-.013l-.009-.013c.099-.03.172-.021.206.026"/>
        <path fill="#42281F" d="m6.064 5.16l.009.013l.017.009h.18c.034 0 .068 0 .098.017a.14.14 0 0 0 .129.043q.164.079.317.18c.262.205.493.402.686.6l.523.53c.12.125.248.245.39.374c.214.188.445.351.694.48a2.1 2.1 0 0 0 .574.206a.8.8 0 0 0 .223.008a.04.04 0 0 1 .03.009a.05.05 0 0 0 .03.013a.8.8 0 0 0 .244 0q.11-.019.215-.018c.145.005.287-.034.428-.042q.2-.018.424-.056l.043-.022h.018q0 .013.021.013c.09 0 .18.009.274-.013a.6.6 0 0 1 .214-.012a.9.9 0 0 0 .313.004l.322.026q.149.045.291.012c.099.013.202.022.3.026l.309.026a10 10 0 0 0 .574.051c.06.013.099.026.163.005c.33-.103.6-.223.818-.37l.622-.406q.406-.271.806-.356c.167-.034.377-.034.535.052a.85.85 0 0 1 .378.54l.03.17c.021.13 0 .254.008.382c.004.06 0 .129-.009.189a1.4 1.4 0 0 0-.02.266c0 .137-.035.274-.027.411l.022.369q.005.162.043.343l.072.41c.005.044.03.074.035.112q.052.186.111.369q.053.155.137.309l.116.23q.274.558.416 1.162c.008.078.043.129.055.215c.013.081.04.154.043.235c0 .112.043.206.052.313q.025.258.03.489q0 .038.038.077l-.004.24q-.05.255-.051.514a.3.3 0 0 1-.009.107a.8.8 0 0 0-.06.283a.5.5 0 0 1-.013.116c-.008.043-.017.081-.017.12q-.054.32-.129.634a5.4 5.4 0 0 1-1.264 2.28c-.128.129-.257.266-.394.386a6.2 6.2 0 0 1-1.86 1.136c-.214.081-.39.128-.523.154q-.336.06-.673.111l-.128.017l-1.17-.004l-.129-.008a1.2 1.2 0 0 0-.39-.06a.4.4 0 0 1-.099-.017a1 1 0 0 0-.098-.018l-.146-.025a.5.5 0 0 0-.154-.009a4.6 4.6 0 0 1-1.736-.686a5.5 5.5 0 0 1-1.358-1.157a7 7 0 0 1-1.072-1.8a13.5 13.5 0 0 1-.587-1.684a10 10 0 0 1-.193-.84l-.128-.72a23 23 0 0 0-.305-1.466l-.257-.985a14 14 0 0 1-.261-1.286a5 5 0 0 1-.069-.544a5.5 5.5 0 0 1 .352-2.29c.094-.235.3-.45.557-.47l.008-.013z"/>
        <path fill="#826158" d="M6.506 5.246c.094.03.171.073.244.12c.244.158.471.356.698.587c.039.039.086.069.12.107c.215.227.489.506.652.664q.371.354.801.618q.252.14.532.214c.27.064.55.083.827.056q.398-.04.604-.073a3 3 0 0 1 .334-.035l-.043.022c-.15.026-.29.043-.428.051c-.137.013-.279.052-.424.047q-.105 0-.215.018a.8.8 0 0 1-.244 0a.1.1 0 0 1-.026-.013a.04.04 0 0 0-.034-.009a.7.7 0 0 1-.223-.008a2.1 2.1 0 0 1-.574-.206a3.6 3.6 0 0 1-.694-.48a7 7 0 0 1-.386-.373L7.5 6.026a7 7 0 0 0-.686-.6a2.5 2.5 0 0 0-.308-.18"/>
        <path fill="#774C46" d="M8.546 7.359q.322.918.227 1.791c-.009.069.013.077.064.034A6.8 6.8 0 0 1 10.414 8.1q.232-.11.441-.257c.371-.074.75-.104 1.128-.09c.025.18-.078.279-.24.313c-.472.103-.913.253-1.299.501a7 7 0 0 0-.857.677q-.103.1-.013.223c.03.043.064.06.116.047l.266-.042q.039-.015.034.055l-.004-.013l-.009-.012a.03.03 0 0 0-.03 0l-.009.008l-.051.116l-.009-.017q0-.008-.012-.009h-.009c-.171.077-.72.386-.6.617a.6.6 0 0 0 .244.27l.013.009a.03.03 0 0 1-.013.043q-.19.126-.343.317q-.167.174-.308.373q-.289.405-.48.745c-.129.223-.163.502.043.69q.134.129.287.065q.007-.002.008.008l-.004.009l-.013.013a2.46 2.46 0 0 0-.844.81c-.129.201-.313.54-.017.69c.043.021.077.008.116-.009c.06-.034.068-.026.03.034a1 1 0 0 0-.116.215q-.111.28-.236.557a1.5 1.5 0 0 1-.128.188a.7.7 0 0 1-.245.197l-.21-.5c.129-.22.206-.37.249-.588c0-.021-.004-.034-.026-.043c-.077-.017-.146-.043-.141-.141q.03-.68.364-1.252l.141-.248c.009-.022.013-.06.009-.125c0-.013 0-.025.009-.038a5.6 5.6 0 0 0 .522-1.873a.02.02 0 0 0-.012-.021h-.013l-.009.004c-.128.214-.257.428-.377.643c-.116.214-.266.373-.501.373c-.202 0-.386-.108-.54-.232a.04.04 0 0 0-.03-.008a.013.013 0 0 0-.013.008l-.002.006q0 .004.002.007c.128.193.073.424-.137.506a.38.38 0 0 1-.275-.013l-.137-.69c.043.026.06.03.064 0q.042-.218.013-.437a.04.04 0 0 1 .043-.03c.129.017.257.034.386.085c.21.09.514.146.716 0c.257-.192.201-.514.081-.797a.043.043 0 0 1 .013-.055l.236-.022c.137-.008.184-.128.128-.24a1.6 1.6 0 0 0-.227-.3a.03.03 0 0 1-.009-.026l.005-.012l.008-.01a1.07 1.07 0 0 0 .485-.676a.92.92 0 0 0-.12-.729l-.018-.043a.6.6 0 0 0-.064-.244a12 12 0 0 0-.45-.797a6.2 6.2 0 0 0-.938-1.187c-.099-.099-.258-.176-.468-.236q.238-.045.373.013q.277.121.515.326c.39.325.754.741 1.092 1.071q.26.25.558.489"/>
        <path fill="#E6D1CC" d="M6.008 5.46q.321.089.468.236q.512.5.942 1.187q0 .037.03.069a.03.03 0 0 1 .005.025v.017l-.009.009h-.013c-.073-.077-.145-.146-.201-.236l-.3-.428c-.15-.21-.386-.497-.66-.39c-.219.085-.317.317-.369.54a9.7 9.7 0 0 0-.227 1.697a7 7 0 0 0 0 .874l-.017.022s-.013 0-.03-.018a2 2 0 0 1-.077-.257a6.6 6.6 0 0 1-.137-1.243a5.6 5.6 0 0 1 .253-1.572c.081-.27.192-.446.342-.532"/>
        <path fill="#C98C89" d="M7.414 6.883c.172.283.326.549.45.797c.043.073.06.154.064.244c-.004.018-.012.022-.025.022c-.009 0-.013-.009-.022-.022a1.7 1.7 0 0 0-.673-.651c-.085-.043-.162-.043-.222.017a.4.4 0 0 0-.095.167q-.21.662-.39 1.333q-.166.625-.27 1.372a2 2 0 0 1-.244-.36l-.334-.643l-.026-.095l.03.018a.1.1 0 0 0 .021-.022c-.037-.863.038-1.727.223-2.571c.052-.223.15-.455.369-.54c.27-.107.51.18.66.385l.3.429c.056.094.128.163.201.24a.01.01 0 0 0 .013 0l.004-.009l.005-.017a.03.03 0 0 0-.005-.025a.12.12 0 0 1-.034-.07"/>
        <path fill="#826158" d="M16.898 6.562a.7.7 0 0 1 .27.244q.14.243.172.531c.008.159.008.313-.009.472l-.038.488a4.8 4.8 0 0 0 .257 1.792q.087.232.206.45c.328.636.538 1.328.617 2.04q.002.012.017.025q.037.273.043.549q-.044-.04-.043-.077a7 7 0 0 0-.03-.485c-.009-.11-.047-.205-.052-.312c-.004-.086-.03-.159-.043-.245c-.012-.077-.047-.128-.055-.21l-.022-.085l-.072-.258a5.4 5.4 0 0 0-.438-1.05a2 2 0 0 1-.137-.308q-.059-.183-.111-.369c-.005-.038-.03-.072-.035-.111l-.072-.411a3 3 0 0 1-.043-.343l-.022-.369c-.008-.137.03-.274.026-.411c0-.09.004-.176.021-.266q.015-.097.01-.189c-.005-.128.012-.257-.01-.385l-.03-.172a.84.84 0 0 0-.377-.535"/>
        <path fill="#E6D1CC" d="m17.13 9.514l-.009.018a.02.02 0 0 1-.021.004l-.009-.004l-.004-.01a3.6 3.6 0 0 1-.261-1.165c-.018-.257.038-.514.06-.771a.7.7 0 0 0-.026-.27c-.099-.33-.407-.343-.677-.257a6 6 0 0 0-.622.244l.056-.133q.321-.263.784-.39a.57.57 0 0 1 .326-.008c.21.064.321.317.343.522c.021.172.008.42-.013.643a5.6 5.6 0 0 0 .073 1.577"/>
        <path fill="#C98C89" d="M17.13 9.514v.043l-.133.27a2.4 2.4 0 0 1-.146-.3q-.251-.723-.505-1.444a1 1 0 0 0-.15-.3c-.146-.193-.335-.283-.558-.189a.63.63 0 0 0-.257.215c-.017-.017-.03-.035-.03-.052a.8.8 0 0 1 .103-.283a1 1 0 0 1 .107-.171q.32-.148.622-.244c.27-.086.578-.073.677.257c.026.086.034.171.026.266c-.022.257-.078.518-.06.775c.026.405.119.804.274 1.179a.02.02 0 0 0 .021 0z"/>
        <path fill="#774C46" d="m15.617 7.17l-.056.129c-.021.025-.056.085-.107.171a.9.9 0 0 0-.103.287l-.086.146q-.052.094-.11.484a.4.4 0 0 0 .05.279c.005.004.01.013.005.021a.04.04 0 0 1-.005.022l-.03.008a8 8 0 0 0-1.135-.754a.3.3 0 0 1 .146-.056c.23.086.444.212.63.373a.04.04 0 0 0 .038-.008l.004-.013l.27-.767z"/>
        <path fill="#BC7573" d="m7.928 7.924l.018.043c-.022.202-.03.42-.082.613q-.039.135-.086.266a.043.043 0 0 1-.06 0a.9.9 0 0 1-.192-.304c-.022-.065-.043-.06-.06 0c-.11.36-.132.743-.065 1.114a.04.04 0 0 1-.025.026h-.018l-.368-.086a.02.02 0 0 0-.017.004a.02.02 0 0 0-.005.013q-.004.025.005.051a.8.8 0 0 1 .085.485a.03.03 0 0 1-.025.013q-.196-.096-.386-.202a.04.04 0 0 0-.034.022q-.006.28.038.557c.013.06-.008.072-.055.034a1.7 1.7 0 0 1-.365-.412q.103-.746.27-1.37c.099-.374.227-.815.395-1.334a.5.5 0 0 1 .085-.171c.065-.056.137-.06.227-.013c.292.152.534.386.695.673c.013 0 .021-.004.025-.022"/>
        <path fill="#683B36" d="M8.546 7.359c.227.141.372.231.445.27c.419.218.895.303 1.363.244l.506-.034q-.212.147-.446.257a6.8 6.8 0 0 0-1.577 1.088c-.051.043-.069.035-.064-.034a4.05 4.05 0 0 0-.227-1.791m6.582.133l-.265.767a.04.04 0 0 1-.022.021a.04.04 0 0 1-.025 0a2 2 0 0 0-.626-.373a4 4 0 0 0 .943-.415z"/>
        <path fill="#826158" d="m12.484 7.522l.287.012a.56.56 0 0 1-.291-.012z"/>
        <path fill="#BC7573" d="M16.997 9.827a.3.3 0 0 1-.069.133q-.046.045-.073-.013l-.222-.501a.05.05 0 0 0-.06-.03a.05.05 0 0 0-.026.013a.4.4 0 0 1-.064.051q-.063.033-.043-.038l.098-.335V9.1a.02.02 0 0 0-.009-.014l-.008-.003h-.013c-.171.064-.351.03-.531 0a.13.13 0 0 1-.107-.112l-.064-.398a.03.03 0 0 0-.009-.013a.03.03 0 0 0-.043.017l-.077.167l-.013.013a.03.03 0 0 1-.034 0a2.8 2.8 0 0 1-.249-.952a.6.6 0 0 1 .257-.21c.223-.094.412 0 .557.185c.056.077.108.175.15.304l.506 1.444q.032.09.146.3"/>
        <path fill="#FFF5F6" d="M11.983 7.753q1.207.078 1.907.15a.4.4 0 0 1 .15.06q.601.329 1.136.754q.078.085.162.15q.071.052-.012.052l-.043.008l-.159.017a.04.04 0 0 0-.026.018a.28.28 0 0 0-.025.32a.02.02 0 0 1 0 .018a.02.02 0 0 1-.009.009c-.008 0-.017 0-.026-.009c-.103-.086-.175-.257-.043-.343c.043-.03.043-.043-.008-.03a.6.6 0 0 0-.232.099q-.045.038 0 .077l.27.219q.449.289.635.372q.212.096.45.108c.021 0 .038-.005.047-.026c.03-.052.069-.099.069-.163a.6.6 0 0 0-.043-.219v-.012c.008-.013.012-.013.021-.01a.4.4 0 0 1 .111.164c.026.06.043.197-.012.24a.15.15 0 0 1-.108.026q-.02-.001-.008.017q.02.025.034.025q.13.015.257.043l.386.373l.403.42a.04.04 0 0 1 0 .047l-.09.107a.043.043 0 0 0 0 .056c.214.236.403.502.557.784q0 .043.026.086v.009a.02.02 0 0 1-.009.012h-.021c-.013 0-.026-.004-.03-.02l-.056-.155a.04.04 0 0 0-.017-.022a.04.04 0 0 0-.026-.008a.6.6 0 0 1-.454-.18a8 8 0 0 0-.467-.42a.8.8 0 0 0-.356-.189a11 11 0 0 1-.531-.39a4 4 0 0 1-.433-.407c.085-.133.06-.343-.129-.347c-.098-.099-.253-.129-.386-.141c-.287-.13-.6-.185-.92-.22a1.35 1.35 0 0 0-.575.06a.07.07 0 0 0-.039.035a.07.07 0 0 0-.004.047c.017.069.034.138.06.206c.043.116-.077.176-.163.214c-.394.159-.836.197-1.251.258a3 3 0 0 0-1.003.3c-.373.18-.755.377-1.157.45a.83.83 0 0 1-.446-.043q-.082-.034-.137.043a.1.1 0 0 1-.026.02c-.021.014-.034.01-.03-.016q.151-.194.356-.33v-.013a.03.03 0 0 0-.013-.026a.63.63 0 0 1-.249-.27c-.115-.231.429-.54.605-.617h.017s.008 0 .008.009l.009.017c-.034.043-.043.086-.017.12a.06.06 0 0 0 .043.03c.171.026.342 0 .51-.013q.146-.015.3-.043a9 9 0 0 0 1.011-.261c.129-.043.201-.193.073-.3a1.4 1.4 0 0 0-.154-.107q-.04-.026-.022.02c.052.138.009.22-.085.314a.3.3 0 0 1-.082.056q-.044.018-.017-.022c.086-.124.116-.223.099-.3a.21.21 0 0 0-.155-.158a1.17 1.17 0 0 0-1.101.188a.54.54 0 0 0-.223.214a.35.35 0 0 0-.111.108l-.266.042c-.052.013-.086-.008-.116-.047q-.091-.126.017-.223q.4-.372.853-.677c.386-.248.831-.398 1.299-.501c.162-.034.265-.129.24-.313"/>
        <path fill="#826158" d="M15.351 7.757c0 .017.013.035.03.047c.027.33.111.652.249.952a.04.04 0 0 0 .034 0c.009 0 .013-.009.013-.013l.077-.171l.009-.013a.03.03 0 0 1 .034 0l.008.013l.01.025l.055.373c0 .03.017.056.034.073a.16.16 0 0 0 .073.043c.18.026.356.06.536-.004a.02.02 0 0 1 .025.012v.013l-.098.335q-.02.07.043.038l.064-.051a.05.05 0 0 1 .047-.013a.05.05 0 0 1 .039.03l.223.501c.017.043.042.043.072.013a.3.3 0 0 0 .069-.128l.137-.275l.094.386a1 1 0 0 1-.248.313a.056.056 0 0 1-.077-.005q-.025-.024-.039.01l-.386-.37c.017-.025 0-.06-.034-.107a.1.1 0 0 1-.017-.034a1 1 0 0 0-.072-.227l-.014-.009c-.017-.004-.026 0-.026.022a.4.4 0 0 0-.11-.163q-.014-.005-.018.009v.012l-.013-.004c-.013 0-.017.004-.021.017l-.009.047q.014-.077-.03-.128a4 4 0 0 1-.159-.176a.7.7 0 0 0-.549-.197a.3.3 0 0 0-.123-.026l.043-.008q.083 0 .012-.052a1 1 0 0 1-.162-.15q.024.002.03-.008a.04.04 0 0 0 .004-.022v-.021a.4.4 0 0 1-.056-.279c.043-.257.077-.42.111-.484zm-7.405.21q.21.33.12.729a1.07 1.07 0 0 1-.493.686a.03.03 0 0 0 .004.038c.077.086.171.193.227.3c.056.116.009.232-.128.24l-.236.022a.043.043 0 0 0-.017.055c.124.279.18.604-.077.793c-.202.15-.506.094-.716 0a1.4 1.4 0 0 0-.403-.077a.04.04 0 0 0-.026.026q.03.22-.008.437c-.009.03-.03.026-.069 0l-.116-.514a10 10 0 0 0-.128-.51c-.069-.25-.129-.502-.189-.75a1.5 1.5 0 0 1-.038-.283l.334.643q.084.165.244.36q.128.206.365.41q.072.058.055-.033a3 3 0 0 1-.038-.557a.04.04 0 0 1 .017-.018a.04.04 0 0 1 .043 0q.177.105.36.197a.03.03 0 0 0 .021 0l.009-.012v-.009a.77.77 0 0 0-.086-.471a.07.07 0 0 1-.013-.056l.004-.004a.02.02 0 0 1 .013-.009h.009l.368.086a.03.03 0 0 0 .035-.013a.04.04 0 0 0 .008-.039c-.077-.342-.025-.745.065-1.088c.017-.064.038-.069.06-.004q.064.178.192.3a.043.043 0 0 0 .06 0q.047-.13.086-.262c.052-.193.06-.411.082-.613"/>
        <path fill="#010101" d="M11.546 9.12a.2.2 0 0 0-.009.077v.009h-.013q-.007 0-.008-.013c0-.013 0-.021-.013-.026c-.018-.008-.026-.017-.018-.038q.002-.012-.008-.017a.04.04 0 0 0-.03 0a.13.13 0 0 1-.081 0a.21.21 0 0 0-.163-.108l-.266-.038q-.089-.013-.146.064a.064.064 0 0 0 0 .077a.17.17 0 0 0 .124.069q.177.034.352.064l.004.009a.02.02 0 0 1 0 .021c-.103.142-.266.283-.437.322c-.171.034-.553.03-.553-.253l.009-.189a1.17 1.17 0 0 1 1.101-.188a.22.22 0 0 1 .155.158m3.492.18l-.013.022l-.27-.215c-.03-.03-.03-.055 0-.085a.6.6 0 0 1 .232-.095q.077-.012.013.026c-.137.086-.065.261.038.347m.365-.343a.7.7 0 0 1 .308.039a.7.7 0 0 1 .245.154l-.065.017a.07.07 0 0 0-.051.077q0 .02.013.035c.06.09.141.171.235.231a.39.39 0 0 1-.343.094a2 2 0 0 1-.248-.068a.7.7 0 0 1-.15-.12c-.171-.159-.171-.36.056-.459"/>
        <path fill="#FFF5F6" d="M11.366 9.107q.045.097-.026.129a19 19 0 0 1-.425-.06a.2.2 0 0 1-.124-.069a.064.064 0 0 1 0-.077q.057-.077.146-.064l.266.038a.22.22 0 0 1 .163.103m4.405-.021l.009.004l.004.01v.024a.1.1 0 0 1-.047.052a.1.1 0 0 1-.073 0h-.013a.1.1 0 0 1-.051-.052a.1.1 0 0 1 .004-.082l.009-.008a.03.03 0 0 1 .021 0zm-5.16-.043a.03.03 0 0 1 .022 0c.008 0 .017.009.021.013l.009.013a.12.12 0 0 1 .017.085c0 .018-.009.03-.017.043a.1.1 0 0 1-.03.03l-.009.005a.1.1 0 0 1-.081.017a.12.12 0 0 1-.069-.052l-.008-.013a.04.04 0 0 1-.004-.026l.006-.012l.01-.009l.129-.09zm5.345.107q.072.091.158.176a.16.16 0 0 1 .03.128q-.018.077-.056.056a.9.9 0 0 1-.235-.231a.07.07 0 0 1-.009-.069l.017-.026a.1.1 0 0 1 .03-.017z"/>
        <path fill="#E6D1CC" d="M14.841 9.502c-.146.025-.27 0-.42-.01a3.6 3.6 0 0 1-.574-.085a.46.46 0 0 0-.266.022c-.073.038-.103.09-.081.158c.043.15.188.155.304.215a.5.5 0 0 1-.146.064a1 1 0 0 0-.15.043c-.381.137-.758.282-1.14.407c-.454.15-.908.287-1.345.488a3 3 0 0 0-1.805 2.546a3.76 3.76 0 0 0 .288 1.929c.234.523.586.985 1.028 1.35c.377.319.806.57 1.269.741a4.8 4.8 0 0 0 2.571.257a3.7 3.7 0 0 0 1.693-.724a4.17 4.17 0 0 0 1.384-1.95a4.5 4.5 0 0 0 .257-1.757a2.66 2.66 0 0 0-.475-1.393a4.3 4.3 0 0 0-.549-.66q-.284-.271-.36-.356a.8.8 0 0 1 .356.189q.236.193.467.42a.6.6 0 0 0 .454.18q.015 0 .026.008a.04.04 0 0 1 .017.022l.056.154c.004.017.017.021.03.021h.024l.006-.004v-.017a.2.2 0 0 1-.026-.086l.313.66q.064.167.081.313c.017.167.03.369.035.617c.004.107-.018.219-.022.33a1 1 0 0 1-.068.172a.5.5 0 0 0-.06.163c-.092.46-.25.905-.472 1.32a7.8 7.8 0 0 1-1.594 2.031a3.82 3.82 0 0 1-2.901 1.041a3.8 3.8 0 0 1-1.603-.377c-.33-.158-.656-.351-1.02-.428a20 20 0 0 0-.755-.142a2.4 2.4 0 0 1-.617-.192a2.1 2.1 0 0 1-.913-.952a7 7 0 0 1-.402-.951a1 1 0 0 0-.116-.223q.128-.275.236-.557a1 1 0 0 1 .115-.215c.043-.06.03-.068-.03-.034c-.038.017-.077.03-.115.009c-.3-.15-.112-.489.017-.69a2.4 2.4 0 0 1 .857-.823v-.009q.004-.01-.004-.008c-.103.043-.198.017-.288-.065c-.205-.188-.171-.467-.042-.69a9 9 0 0 1 .48-.745c.094-.129.197-.257.308-.373q0 .038.03.017a.1.1 0 0 0 .026-.017q.059-.082.137-.047a.83.83 0 0 0 .446.043c.402-.073.784-.27 1.157-.45a3 3 0 0 1 1.003-.3c.415-.06.857-.1 1.251-.258c.086-.038.206-.098.163-.214a2 2 0 0 1-.06-.206l.004-.047a.07.07 0 0 1 .039-.034q.271-.097.574-.06c.322.034.634.086.917.219"/>
        <path fill="#C98C89" d="M14.841 9.502c.137.017.292.042.39.14v.035q-.022-.026-.043-.021l-.008.007l-.005.01c-.03.154-.192.141-.295.094c-.099-.043-.3-.051-.322.103a.3.3 0 0 1-.128-.03c.017-.111-.202-.188-.279-.188c-.15 0-.274-.01-.386-.03c-.085-.018-.15-.082-.184-.193a.43.43 0 0 1 .266-.022c.189.039.377.077.574.086c.15.009.274.034.42.009"/>
        <path fill="#BC7573" d="M13.581 9.429q.053.166.189.193q.162.03.381.03c.077 0 .296.077.279.188q-.05-.012-.073.052q-.007-.084-.034-.09c-.06-.026-.082-.005-.056.06a.4.4 0 0 1 .026.192l-.005.013l-.013.009l-.011-.001l-.01-.008a.6.6 0 0 0-.278-.201l-.172-.06c-.116-.064-.257-.069-.3-.214q-.039-.111.077-.163"/>
        <path fill="#FFF5F6" d="M10.054 9.502c.017.128.086.145.172.192c.012.005.012.018.008.03s-.017.018-.03.018c-.124-.022-.193-.086-.214-.206l.013-.056c.004-.008.017-.013.025-.013s.018.009.018.017z"/>
        <path fill="#250E08" d="M16.483 9.892a2 2 0 0 0-.258-.048q-.018 0-.038-.025q-.012-.018.008-.017a.16.16 0 0 0 .108-.026c.06-.043.038-.18.012-.24c0-.022.01-.026.026-.022q.014.001.022.022q.045.1.064.214c0 .013.009.022.017.034c.039.043.052.086.039.108"/>
        <path fill="#E6D1CC" d="m14.884 9.596l-.403-.043a.04.04 0 0 0-.04.026l-.003.017c-.004.026.013.043.035.047l.407.043a.043.043 0 0 0 .043-.043a.043.043 0 0 0-.039-.047m.347.047c.189 0 .214.214.129.343a.4.4 0 0 1-.163-.12a.21.21 0 0 0 .039-.189v-.034z"/>
        <path fill="#BC7573" d="M15.236 9.677a.21.21 0 0 1-.043.189a.3.3 0 0 1-.155.098a.8.8 0 0 0-.373.185c-.042.034-.05.025-.042-.026a.6.6 0 0 1 .133-.253a.02.02 0 0 0 0-.017l-.009-.009a.086.086 0 0 0-.116.035a.1.1 0 0 1-.034.043c-.009-.03-.017-.043-.039-.052c.018-.154.223-.15.322-.103c.103.047.265.06.295-.094c0-.009.01-.013.018-.017s.025 0 .043.021"/>
        <path fill="#AE918B" d="m14.357 9.892l-.03.38c0 .048-.03.07-.073.065c-.951-.085-1.903.073-2.756.519a3.54 3.54 0 0 0-1.358 1.247a3.37 3.37 0 0 0-.566 2.066c.032.547.216 1.073.531 1.521c.12.189.258.36.412.523l.304.274a4.32 4.32 0 0 0 2.619 1.063a3.9 3.9 0 0 0 2.417-.75l.36-.296c.086-.068.171-.158.257-.257q.309-.366.514-.758a3.4 3.4 0 0 0-.201-3.63a3.42 3.42 0 0 0-2.237-1.509a.04.04 0 0 1-.022-.021a.04.04 0 0 1 0-.018l.069-.398a.1.1 0 0 0 .034-.043a.1.1 0 0 1 .06-.038a.1.1 0 0 1 .056.008l.004.009a.02.02 0 0 1 .005.017l-.005.008a.7.7 0 0 0-.128.245c-.009.051 0 .06.043.025a.8.8 0 0 1 .372-.184a.28.28 0 0 0 .159-.098q.046.064.163.124q.22.235.433.407c.141.111.321.244.531.39q.076.088.36.356q.258.246.549.66c.284.41.447.89.471 1.388a4.2 4.2 0 0 1-.257 1.762c-.26.77-.74 1.448-1.38 1.95a3.7 3.7 0 0 1-1.689.728a4.9 4.9 0 0 1-2.571-.257c-.48-.18-.9-.428-1.273-.746a3.74 3.74 0 0 1-1.028-1.35a3.76 3.76 0 0 1-.288-1.928a3 3 0 0 1 1.8-2.546c.442-.201.896-.343 1.35-.489c.386-.124.759-.27 1.14-.41l.15-.04a.6.6 0 0 0 .146-.06l.172.06a.6.6 0 0 1 .278.202l.009.008h.012l.013-.008l.005-.013a.4.4 0 0 0-.026-.193c-.026-.064-.004-.085.056-.06q.027.008.034.09z"/>
        <path fill="#250E08" d="M14.43 9.84q.064.031.128.03c.022.009.03.022.039.047l-.069.399a.04.04 0 0 0 .009.03a.04.04 0 0 0 .026.017a3.42 3.42 0 0 1 2.228 1.5a.1.1 0 0 1-.068.034a.02.02 0 0 0-.017.017a.24.24 0 0 0-.005.12c.073.236-.056.472-.244.6a.9.9 0 0 1-.373.142c-.287.043-.57.013-.848-.073l-.219-.073a7 7 0 0 0-.609-.141a.5.5 0 0 0-.158-.005a3.1 3.1 0 0 0-1.187.412q-.546.317-1.115.591c-.171.077-.343.107-.518.163a.08.08 0 0 1-.064-.008a3.1 3.1 0 0 0-.93-.352a.07.07 0 0 1-.056-.043a2 2 0 0 1-.18-.51q-.039-.21-.013-.484a.09.09 0 0 0-.043-.082a.03.03 0 0 1-.008-.025v-.043a3.54 3.54 0 0 1 1.362-1.243a4.95 4.95 0 0 1 2.756-.523q.066.007.073-.064l.03-.381q.027-.064.073-.052"/>
        <path fill="#774C46" d="m17.228 9.943l.116.33q.044.127.146.313c.197.373.36.793.484 1.251q.077.278.069.497l-.309-.66a4 4 0 0 0-.57-.814l.013-.026l.09-.107a.04.04 0 0 0 0-.047l-.403-.42q.013-.033.039-.008a.055.055 0 0 0 .077.004a1 1 0 0 0 .248-.313"/>
        <path fill="#683B36" d="M7.037 14.94a11.4 11.4 0 0 1-.544-1.783a36 36 0 0 1-.232-1.251a.36.36 0 0 0 .275.013c.214-.086.265-.313.137-.506a.013.013 0 0 1 .004-.017l.009-.005a.04.04 0 0 1 .03.01c.158.128.342.23.54.23c.235 0 .385-.158.501-.372q.189-.328.39-.648h.004q.014.008.009.022a5.6 5.6 0 0 1-.519 1.873a.1.1 0 0 0-.008.043q.005.089-.009.12l-.141.248a2.7 2.7 0 0 0-.365 1.252c-.004.098.065.128.142.145c.021 0 .03.018.026.043c-.043.215-.125.365-.249.583"/>
        <path fill="#3C1A18" d="M16.791 11.863a3.4 3.4 0 0 1 .193 3.63c-.043-.017-.047-.069-.026-.159c.078-.3.018-.527-.081-.801q-.051-.15-.206-.086a1 1 0 0 0-.141.082c-.463.342-.913.69-1.41.994c-.364.219-.814.403-1.234.437a3.1 3.1 0 0 1-1.102-.116a4.8 4.8 0 0 1-1.616-.921l-.668-.557a.7.7 0 0 0-.219-.129q-.05-.013-.073.03a1 1 0 0 0-.077.262a2.4 2.4 0 0 0-.034.745q.02.156.034.313a.13.13 0 0 1 .022.082c0 .017-.018.025-.043.021a2.93 2.93 0 0 1-.536-1.521a3.37 3.37 0 0 1 .566-2.066l-.005.043c0 .008 0 .021.013.025a.09.09 0 0 1 .039.086c-.017.18-.013.343.013.476q.056.27.18.514q.018.035.055.043c.338.068.663.191.96.364l.035-.004c.171-.056.347-.086.518-.163q.423-.18.815-.42l.3-.171a3.1 3.1 0 0 1 1.187-.412a.5.5 0 0 1 .158.005q.42.077.828.214c.278.086.557.111.848.073a.9.9 0 0 0 .373-.142c.188-.128.317-.364.244-.6a.24.24 0 0 1 0-.12c.005-.008.013-.017.022-.017a.1.1 0 0 0 .068-.034"/>
        <path fill="#826158" d="m18.424 13.393l-.021.48c0 .013 0 .021-.013.026l-.017.008c-.009 0-.009-.008-.009-.017c0-.171.026-.334.06-.497"/>
        <path fill="#CBB2AD" d="M18.141 13.594c0 .266-.051.523-.085.776a5.1 5.1 0 0 1-1.192 2.726a5.9 5.9 0 0 1-1.963 1.487c-.788.373-1.62.429-2.477.407a7 7 0 0 1-1.603-.231a4 4 0 0 1-.514-.172a5.5 5.5 0 0 1-1.929-1.341a6.1 6.1 0 0 1-1.131-1.804a.8.8 0 0 0 .244-.198q.07-.088.129-.188a1 1 0 0 1 .116.223q.172.501.402.951a2.1 2.1 0 0 0 .913.951q.284.136.617.193c.258.043.506.086.755.142c.364.077.685.27 1.02.428a3.8 3.8 0 0 0 1.603.378a3.82 3.82 0 0 0 2.901-1.042a7.8 7.8 0 0 0 1.59-2.031a4.8 4.8 0 0 0 .471-1.32a1 1 0 0 1 .065-.168a.7.7 0 0 0 .068-.167"/>
        <path fill="#826158" d="m18.364 14.014l-.06.489a.3.3 0 0 1-.021.111a5.3 5.3 0 0 1-1.256 2.7a6 6 0 0 1-2.117 1.565a3.6 3.6 0 0 1-1.294.334c0-.009-.013-.009-.03-.009l.514-.085c.137-.022.308-.069.523-.15a6.2 6.2 0 0 0 1.864-1.136c.137-.12.261-.257.394-.386l.142-.154a5.4 5.4 0 0 0 1.281-3q.002-.142.06-.279"/>
        <path fill="#4E1E1E" d="M16.984 15.493c-.201.377-.462.72-.771 1.016q-.031.006-.03-.039l.012-.043a.86.86 0 0 0 .146-.433c.013-.124-.06-.218-.15-.291a.22.22 0 0 0-.265-.009a4.8 4.8 0 0 1-1.848.737a3.86 3.86 0 0 1-2.314-.339a9 9 0 0 1-1.08-.612c-.15-.098-.364-.086-.343.159a.65.65 0 0 0 .077.278l.163.279c.009.013.005.017-.008.021l-.056-.004a3.5 3.5 0 0 1-.412-.523c.03.004.043 0 .048-.021a.13.13 0 0 0-.022-.086a2.55 2.55 0 0 1 0-1.054a1 1 0 0 1 .077-.258c.018-.034.043-.042.069-.034q.128.045.223.129l.668.557a4.8 4.8 0 0 0 1.616.921c.347.107.716.142 1.101.116c.42-.034.87-.214 1.235-.437c.497-.3.943-.647 1.414-.994c.043-.03.086-.06.137-.082q.155-.064.206.086c.099.274.159.497.086.801c-.026.086-.018.142.021.159"/>
        <path fill="#683B36" d="m16.217 16.509l-.36.295a.35.35 0 0 0-.129-.09a.6.6 0 0 0-.3.013a6 6 0 0 1-.685.129q-.56.077-1.123.137q-.482.046-1.106.009a3.7 3.7 0 0 1-1.491-.442l-.129-.043a.1.1 0 0 1-.026-.021c-.008-.017-.025-.017-.043-.009l-.308-.274c.021.004.043.008.056.004q.02 0 .008-.021l-.163-.279a.7.7 0 0 1-.077-.278c-.021-.245.197-.257.343-.159c.386.253.746.454 1.08.617a3.86 3.86 0 0 0 1.843.382c.159-.013.317-.017.471-.043a4.8 4.8 0 0 0 1.848-.742a.22.22 0 0 1 .265.009c.086.073.163.171.15.291a.86.86 0 0 1-.146.438a.1.1 0 0 0-.012.042c0 .026.008.039.034.035"/>
        <path fill="#7E4140" d="M10.821 16.487c.022-.008.039-.008.047.009l.03.021l.129.043q.715.388 1.487.442q.624.036 1.106-.01q.563-.059 1.123-.136c.231-.03.463-.073.685-.129c.103-.026.215-.043.3-.013a.3.3 0 0 1 .129.09a3.7 3.7 0 0 1-1.77.712a5 5 0 0 1-.643.034a4.32 4.32 0 0 1-2.619-1.059z"/>
        <path fill="#826158" d="M12.004 19.239c-.3-.022-.6-.065-.887-.129a.6.6 0 0 1 .154.009l.146.025c.034 0 .064.009.098.018l.1.017q.19 0 .39.06"/>
        <path fill="#AE918B" d="M13.586 19.204c.017 0 .03 0 .034.009a.4.4 0 0 1-.188.021a.34.34 0 0 1 .154-.03"/>
    </g>
</svg>