<!-- source: DFINITY foundation -->
<svg width="24" height="24" viewBox="0 0 52 52" fill="none" xmlns="http://www.w3.org/2000/svg">
    <g clip-path="url(#clip0_3708_12779)">
        <path d="M51.2221 32.2895C47.7492 46.2183 33.6401 54.695 19.7081 51.2216C5.78204 47.7491 -2.69566 33.6407 0.77875 19.7131C4.2501 5.7829 18.3592 -2.69448 32.2868 0.778009C46.2178 4.2505 54.6949 18.3604 51.2217 32.2898L51.2219 32.2895H51.2221Z" fill="black"/>
        <g clip-path="url(#clip1_3708_12779)">
            <path d="M41.6883 33.8808L36.4301 39.3745C36.3158 39.4938 36.1775 39.589 36.0238 39.654C35.8701 39.719 35.7043 39.7526 35.5368 39.7525H10.6104C10.4915 39.7525 10.3752 39.7186 10.2757 39.6551C10.1762 39.5915 10.098 39.5011 10.0506 39.3948C10.0032 39.2886 9.98867 39.1711 10.0088 39.0569C10.029 38.9427 10.083 38.8368 10.1641 38.7521L15.4263 33.2584C15.5403 33.1394 15.6781 33.0444 15.8313 32.9794C15.9845 32.9144 16.1498 32.8807 16.3169 32.8804H41.2418C41.3608 32.8804 41.4771 32.9143 41.5766 32.9778C41.676 33.0414 41.7542 33.1318 41.8018 33.2381C41.8491 33.3444 41.8636 33.4618 41.8434 33.576C41.8233 33.6902 41.7693 33.7961 41.6883 33.8808ZM36.4301 22.8182C36.3158 22.6988 36.1775 22.6037 36.0238 22.5387C35.8701 22.4737 35.7043 22.4401 35.5368 22.4402H10.6104C10.4915 22.4402 10.3752 22.4741 10.2757 22.5376C10.1762 22.6012 10.098 22.6916 10.0506 22.7979C10.0032 22.9041 9.98867 23.0216 10.0088 23.1358C10.029 23.2499 10.083 23.3559 10.1641 23.4406L15.4263 28.9343C15.5403 29.0533 15.6781 29.1483 15.8313 29.2133C15.9845 29.2783 16.1498 29.312 16.3169 29.3122H41.2418C41.3608 29.3122 41.4771 29.2784 41.5766 29.2149C41.676 29.1513 41.7542 29.0609 41.8018 28.9546C41.8491 28.8483 41.8636 28.7309 41.8434 28.6167C41.8233 28.5025 41.7693 28.3966 41.6883 28.3118L36.4301 22.8182ZM10.6104 18.872H35.5368C35.7043 18.8721 35.8701 18.8386 36.0238 18.7736C36.1775 18.7086 36.3158 18.6134 36.4301 18.4941L41.6883 13.0004C41.7693 12.9157 41.8233 12.8097 41.8434 12.6955C41.8636 12.5814 41.8491 12.4639 41.8018 12.3577C41.7542 12.2514 41.676 12.1609 41.5766 12.0974C41.4771 12.0339 41.3608 12 41.2418 12H16.3169C16.1498 12.0003 15.9845 12.034 15.8313 12.099C15.6781 12.164 15.5403 12.2589 15.4263 12.378L10.1655 17.8716C10.0844 17.9562 10.0305 18.0621 10.0103 18.1762C9.99004 18.2902 10.0044 18.4076 10.0517 18.5138C10.0989 18.62 10.1769 18.7105 10.2762 18.7741C10.3755 18.8377 10.4916 18.8718 10.6104 18.872Z" fill="url(#paint0_linear_3708_12779)"/>
        </g>
    </g>
    <defs>
        <linearGradient id="paint0_linear_3708_12779" x1="12.6887" y1="40.4139" x2="38.0657" y2="11.0488" gradientUnits="userSpaceOnUse">
            <stop offset="0.08" stop-color="#9945FF"/>
            <stop offset="0.3" stop-color="#8752F3"/>
            <stop offset="0.5" stop-color="#5497D5"/>
            <stop offset="0.6" stop-color="#43B4CA"/>
            <stop offset="0.72" stop-color="#28E0B9"/>
            <stop offset="0.97" stop-color="#19FB9B"/>
        </linearGradient>
        <clipPath id="clip0_3708_12779">
            <path d="M0 26C0 11.6406 11.6406 0 26 0C40.3594 0 52 11.6406 52 26C52 40.3594 40.3594 52 26 52C11.6406 52 0 40.3594 0 26Z" fill="white"/>
        </clipPath>
        <clipPath id="clip1_3708_12779">
            <rect width="31.8523" height="27.7525" fill="white" transform="translate(10 12)"/>
        </clipPath>
    </defs>
</svg>

