<svg width="256" height="256" viewBox="0 0 256 256" fill="none" xmlns="http://www.w3.org/2000/svg">
<g clip-path="url(#clip0_451_28788)">
<path d="M0 0H256V256H0V0Z" fill="#005590"/>
<g clip-path="url(#clip1_451_28788)">
<path d="M0 0H256V256H0V0Z" fill="#F0F3FA"/>
<path d="M199.097 98.3061C199.466 107.807 192.199 116.269 188.515 119.312C189.838 115.33 187.89 107.75 186.624 105.616C175.815 84.1407 158.407 81.4101 147.115 80.7274C135.822 80.0447 105.941 82.7754 106.411 102.416C106.795 118.118 129.621 127.376 140.999 130.05C83.5981 124.93 70.4994 100.823 71.111 89.403C70.8834 77.9114 81.607 55.3265 126.393 56.9763C182.386 59.0243 198.627 86.4305 199.097 98.3061Z" fill="#5D9732"/>
<path d="M77.3553 168.749C78.1802 147.757 90.1838 130.548 96.0718 124.574C89.8282 139.309 83.6984 168.237 109.071 166.231C140.786 163.7 150.571 132.923 151.453 118.516C152.079 108.418 146.518 102.359 143.659 100.596C162.589 102.814 166.301 121.275 165.86 129.694C160.399 186.484 116.253 197.989 104.392 199.042C95.8158 199.796 76.3171 195.003 77.3553 168.749Z" fill="#005568"/>
</g>
<path d="M169.808 256H86.1929L128 214.192L169.808 256ZM41.8081 128L0.000488281 169.808V86.1924L41.8081 128ZM256 169.808L214.193 128L256 86.1924V169.808ZM128 41.8076L86.1929 0H169.808L128 41.8076Z" fill="black" fill-opacity="0.5"/>
</g>
<defs>
<clipPath id="clip0_451_28788">
<rect width="256" height="256" fill="white"/>
</clipPath>
<clipPath id="clip1_451_28788">
<rect width="256" height="256" fill="white"/>
</clipPath>
</defs>
</svg>
