<svg width="256" height="256" viewBox="0 0 256 256" fill="none" xmlns="http://www.w3.org/2000/svg">
<g clip-path="url(#clip0_338_31960)">
<rect width="256" height="256" fill="#EF0027"/>
<path d="M128.005 202.327L145.913 101.721C162.981 101.721 168.365 103.59 169.142 111.222C169.142 111.222 180.593 106.957 186.368 98.2954C163.832 87.8636 141.189 87.3931 141.189 87.3931L127.976 103.469L128.006 103.467L114.793 87.3906C114.793 87.3906 92.1489 87.8616 69.6162 98.2934C75.3862 106.955 86.8408 111.22 86.8408 111.22C87.6226 103.588 92.9999 101.718 109.954 101.706L128.005 202.327Z" fill="white"/>
<path d="M128 82.7452C146.217 82.606 167.068 85.5604 188.414 94.8541C191.267 89.7244 192 87.4573 192 87.4573C168.666 78.2352 146.814 75.0792 127.997 75C109.181 75.0792 87.3307 78.2357 64 87.4573C64 87.4573 65.0408 90.2498 67.5838 94.8541C88.9252 85.5604 109.781 82.606 127.998 82.7452H128Z" fill="white"/>
<path d="M169.808 256H86.1929L128 214.192L169.808 256ZM41.8081 128L0.000488281 169.808V86.1924L41.8081 128ZM256 169.808L214.193 128L256 86.1924V169.808ZM128 41.8076L86.1929 0H169.808L128 41.8076Z" fill="black" fill-opacity="0.5"/>
</g>
<defs>
<clipPath id="clip0_338_31960">
<rect width="256" height="256" fill="white"/>
</clipPath>
</defs>
</svg>
