<svg width="256" height="256" viewBox="0 0 256 256" fill="none" xmlns="http://www.w3.org/2000/svg">
<g clip-path="url(#clip0_338_34044)">
<rect width="256" height="256" fill="#26458F"/>
<path d="M101.386 194.219H101.348H101.564C101.629 194.219 101.68 194.219 101.751 194.201C101.829 194.201 101.889 194.201 101.967 194.195C102.039 194.195 102.1 194.195 102.167 194.174H102.376C102.47 194.157 102.532 194.157 102.625 194.146C102.687 194.141 102.764 194.13 102.814 194.119C102.913 194.102 103.003 194.095 103.096 194.081C103.168 194.074 103.223 194.063 103.289 194.057C103.406 194.052 103.5 194.019 103.6 194.008C103.66 193.991 103.71 193.981 103.776 193.975C103.898 193.941 103.998 193.925 104.114 193.903C104.186 193.886 104.241 193.87 104.318 193.848C104.423 193.825 104.546 193.803 104.667 193.765C104.728 193.742 104.8 193.727 104.855 193.714C104.988 193.671 105.105 193.643 105.237 193.599C105.287 193.576 105.353 193.554 105.431 193.526C105.553 193.488 105.686 193.443 105.807 193.4C105.873 193.377 105.934 193.338 106.006 193.321C106.122 193.289 106.266 193.227 106.398 193.162C106.471 193.14 106.538 193.123 106.603 193.072C106.73 193.017 106.88 192.951 107.025 192.891C107.08 192.862 107.152 192.818 107.217 192.797C107.35 192.724 107.495 192.648 107.644 192.569C107.699 192.548 107.771 192.509 107.832 192.447C107.982 192.393 108.131 192.298 108.269 192.221C108.335 192.177 108.397 192.133 108.462 192.099C108.612 191.999 108.773 191.917 108.916 191.812C108.978 191.768 109.043 191.718 109.11 191.674C109.271 191.569 109.408 191.469 109.563 191.336C109.63 191.303 109.708 191.247 109.774 191.187C109.912 191.076 110.068 190.965 110.222 190.844C110.288 190.789 110.36 190.722 110.415 190.667C110.577 190.54 110.731 190.422 110.869 190.286C110.942 190.213 111.007 190.14 111.074 190.075C111.24 189.942 111.378 189.815 111.533 189.665C111.616 189.588 111.694 189.499 111.761 189.421C111.91 189.272 112.043 189.134 112.186 188.979C112.28 188.885 112.369 188.78 112.446 188.686C112.586 188.542 112.722 188.392 112.844 188.226C112.933 188.131 113.011 188.028 113.1 187.917C113.238 187.75 113.376 187.595 113.509 187.408C113.592 187.303 113.674 187.192 113.752 187.081C113.896 186.894 114.023 186.721 114.167 186.534C114.244 186.418 114.339 186.289 114.415 186.162C114.544 185.969 114.659 185.786 114.793 185.582C114.886 185.45 114.975 185.294 115.069 185.155C115.191 184.95 115.318 184.768 115.434 184.552C115.529 184.398 115.611 184.254 115.683 184.105C115.816 183.883 115.938 183.667 116.076 183.452C116.159 183.28 116.231 183.113 116.314 182.959C116.436 182.732 116.563 182.512 116.673 182.262C116.768 182.079 116.855 181.874 116.95 181.687C117.05 181.46 117.171 181.233 117.271 181C117.371 180.784 117.464 180.563 117.558 180.33C117.658 180.105 117.763 179.883 117.863 179.64C117.947 179.424 118.029 179.207 118.129 178.959C118.223 178.704 118.328 178.461 118.427 178.201C118.499 177.979 118.594 177.736 118.665 177.498C118.77 177.222 118.886 176.951 118.975 176.668C119.086 176.342 119.186 176.01 119.295 175.672C119.357 175.463 119.435 175.263 119.5 175.047C119.673 174.5 119.838 173.919 120.004 173.337C122.334 164.933 122.919 147.925 122.919 136.616V64.3259L87.6816 83.203V157.696C87.6816 186.113 92.7887 192.912 99.1127 194.025C99.0744 194.019 99.0572 194.019 99.019 194.019L101.386 194.219Z" fill="white"/>
<path d="M110.242 201.844C124.185 199.991 132.23 184.531 134.143 176.962C137.241 166.489 137.817 153.46 137.817 138.727V56.3487L122.923 64.3323L130.763 66.0806V132.142C130.763 149.172 130.369 164.088 127.609 173.986C123.709 187.962 116.642 193.622 111.713 195.464L99.1093 194.032C99.076 194.025 99.0551 194.025 99.0156 194.025C100.35 198.031 103.447 201.074 107.094 201.666L110.242 201.844Z" fill="white"/>
<path d="M107.092 201.663C108.331 205.015 111.539 207.969 114.98 208.772L118.201 209.07C132.726 208.943 142.231 194.747 145.655 187.315C150.573 176.3 152.953 160.658 152.953 138.124V48.2443L137.814 56.3438L145.832 58.1365V134.738C145.832 153.893 145.068 170.12 140.421 182.265C136.354 192.71 129.018 200.811 120.083 203.013L110.24 201.84L107.092 201.663Z" fill="white"/>
<path d="M152.955 48.2435L161.133 50.0585V134.736C161.133 160.746 158.472 178.506 152.668 190.474C147.252 201.684 138.139 208.925 129.468 210.42L118.204 209.071L114.984 208.771C117.701 213.375 122.419 215.758 127.571 215.98C134.569 216.274 140.291 213.226 145.74 209.574C162.881 197.689 168.325 171.198 168.325 135.445V39.9997L152.955 48.2435Z" fill="white"/>
<g clip-path="url(#clip1_338_34044)">
<path d="M0 0H256V256H0V0Z" fill="#1A4687"/>
<path d="M132.497 63.6652L137.14 63.9653V136.527C137.14 152.969 137.14 164.262 132.497 177.072C129.243 186.075 124.552 190.845 119.04 193.641C114.38 195.994 108.947 195.725 103.861 194.651C117.381 193.119 123.209 187.749 127.869 177.072C132.497 166.394 132.497 155.733 132.497 140.791V63.6652L118.566 70.3622H123.209V134.394C123.209 149.399 123.336 164.12 120.651 172.823C117.934 180.689 113.464 184.89 109.278 187.228C104.982 189.629 99.8015 189.281 95.0315 188.097C94.3523 188.097 93.6889 187.765 93.0098 187.765C94.3523 191.082 97.0374 194.083 100.686 194.667C101.744 197.652 105.109 200.037 108.457 200.638C110.858 204.807 115.565 206.955 120.651 206.955C127.363 207.271 133.129 204.555 138.499 201.585C155.004 191.066 160.375 168.306 160.375 137.19V49.0234L146.444 56.5576L132.497 63.6652ZM150.977 137.206C150.977 159.713 149.729 172.823 144.122 183.484C140.426 190.513 135.308 196.089 129.764 199.437C124.362 202.675 117.729 202.091 111.537 200.89C125.737 200.89 135.498 190.592 139.462 181.352C143.443 172.128 146.444 160.013 146.444 138.675V56.5576L151.087 57.5684V137.206H150.992H150.977Z" fill="url(#paint0_linear_338_34044)"/>
<path d="M116.244 168.559C111.158 185.002 98.9642 188.018 94.9207 188.018C87.8289 188.018 81.4004 183.833 81.4004 156.555V87.4373L118.566 70.3789V138.676C118.566 147.205 118.645 161.057 116.244 168.559Z" fill="white"/>
</g>
<path d="M169.808 256H86.1929L128 214.192L169.808 256ZM41.8081 128L0.000488281 169.808V86.1924L41.8081 128ZM256 169.808L214.193 128L256 86.1924V169.808ZM128 41.8076L86.1929 0H169.808L128 41.8076Z" fill="black" fill-opacity="0.5"/>
</g>
<defs>
<linearGradient id="paint0_linear_338_34044" x1="126.511" y1="206.892" x2="126.511" y2="54.3937" gradientUnits="userSpaceOnUse">
<stop stop-color="white"/>
<stop offset="0.054" stop-color="#FFFEFC"/>
<stop offset="0.09" stop-color="#FEFBF4"/>
<stop offset="0.12" stop-color="#FDF5E5"/>
<stop offset="0.147" stop-color="#FBEDD0"/>
<stop offset="0.172" stop-color="#F9E3B4"/>
<stop offset="0.195" stop-color="#F7D793"/>
<stop offset="0.217" stop-color="#F4C86B"/>
<stop offset="0.247" stop-color="#EFAF28"/>
</linearGradient>
<clipPath id="clip0_338_34044">
<rect width="256" height="256" fill="white"/>
</clipPath>
<clipPath id="clip1_338_34044">
<rect width="256" height="256" fill="white"/>
</clipPath>
</defs>
</svg>
