<svg width="256" height="256" viewBox="0 0 256 256" fill="none" xmlns="http://www.w3.org/2000/svg">
<g clip-path="url(#clip0_338_33946)">
<rect width="256" height="256" fill="#C62E40"/>
<path fill-rule="evenodd" clip-rule="evenodd" d="M67.1091 64.5196H78.8676C87.8501 64.5196 96.8391 64.648 105.822 64.4458C108.668 64.3816 109.769 65.3957 110.639 67.9855C119.775 95.2123 129.04 122.397 138.279 149.589C138.751 150.978 139.297 152.349 140.205 154.807C144.274 141.803 147.968 129.968 151.678 118.139C155.169 107.003 158.683 95.8766 162.178 84.7471C165.362 74.6093 164.187 71.031 155.205 64.741H189.113C174.787 107.041 160.49 149.261 146.164 191.559C127.994 186.88 112.734 179.213 106.088 160.015C96.8166 133.241 87.0286 106.647 77.478 79.9686C75.376 74.099 72.9242 68.5054 66.8877 65.447C66.9615 65.1357 67.0353 64.8309 67.1091 64.5196Z" fill="white"/>
<path d="M169.808 256H86.1929L128 214.192L169.808 256ZM41.8081 128L0.000488281 169.808V86.1924L41.8081 128ZM256 169.808L214.193 128L256 86.1924V169.808ZM128 41.8076L86.1929 0H169.808L128 41.8076Z" fill="black" fill-opacity="0.5"/>
</g>
<defs>
<clipPath id="clip0_338_33946">
<rect width="256" height="256" fill="white"/>
</clipPath>
</defs>
</svg>
