<?xml version="1.0" encoding="UTF-8"?>
<svg version="1.1" xmlns="http://www.w3.org/2000/svg" width="512" height="512">
<path d="M0 0 C168.96 0 337.92 0 512 0 C512 168.96 512 337.92 512 512 C343.04 512 174.08 512 0 512 C0 343.04 0 174.08 0 0 Z " fill="#000000" transform="translate(0,0)"/>
<path d="M0 0 C0.83460369 -0.00367669 1.66920738 -0.00735338 2.52910209 -0.01114148 C5.34189694 -0.02220536 8.15465488 -0.02602673 10.96746826 -0.02983093 C12.97770811 -0.03609354 14.9879468 -0.04274015 16.9981842 -0.04974365 C22.47143055 -0.06717217 27.94466814 -0.07771044 33.41793537 -0.08594918 C36.8355277 -0.09109537 40.2531173 -0.09717127 43.6707077 -0.10346031 C54.35797346 -0.12251747 65.04523227 -0.13674754 75.73251176 -0.14507228 C88.07950331 -0.15484791 100.42631573 -0.18117383 112.77324414 -0.22157317 C122.30960661 -0.25170819 131.84591767 -0.26653867 141.38232684 -0.26985329 C147.08125161 -0.27220675 152.77998514 -0.28120565 158.47885895 -0.30631447 C163.84030535 -0.32955441 169.20143404 -0.33384478 174.56291771 -0.32355309 C176.53095492 -0.32305662 178.49900755 -0.32940945 180.46699715 -0.34310913 C183.15391769 -0.3607671 185.83969052 -0.35375209 188.52661133 -0.34057617 C189.30541444 -0.35154542 190.08421755 -0.36251466 190.88662076 -0.37381631 C196.90265835 -0.30259345 200.31187381 1.66444178 204.6605835 5.65522766 C205.0709082 6.11792053 205.48123291 6.5806134 205.9039917 7.05732727 C206.36740967 7.57230774 206.83082764 8.08728821 207.30828857 8.61787415 C207.99954834 9.4058136 207.99954834 9.4058136 208.70477295 10.20967102 C212.17482964 14.14883423 212.17482964 14.14883423 215.8493042 17.89326477 C217.01727295 19.14717102 217.01727295 19.14717102 217.01727295 21.14717102 C217.67727295 21.14717102 218.33727295 21.14717102 219.01727295 21.14717102 C220.45379639 22.58955383 220.45379639 22.58955383 222.12664795 24.60029602 C226.69218408 29.97012349 231.5464601 35.04230353 236.40789795 40.14326477 C237.08852295 40.86127258 237.76914795 41.5792804 238.47039795 42.31904602 C239.08044678 42.95938782 239.69049561 43.59972961 240.31903076 44.25947571 C242.03450356 46.16632385 243.62388045 47.99101162 245.01727295 50.14717102 C244.82977295 53.33467102 244.82977295 53.33467102 244.01727295 56.14717102 C240.86069717 57.72545891 237.47009751 57.30262871 234.00331116 57.30780029 C232.74633864 57.31543202 232.74633864 57.31543202 231.46397275 57.32321793 C228.63970017 57.33898674 225.81545326 57.34747914 222.9911499 57.35591125 C220.97268001 57.36544617 218.95421177 57.37533716 216.93574524 57.38555908 C210.29236806 57.41698681 203.64897819 57.43721597 197.0055542 57.45576477 C195.87609493 57.45906209 194.74663566 57.46235941 193.58295035 57.46575665 C182.9348121 57.49653981 172.28667108 57.5232533 161.63850117 57.54017544 C148.00858703 57.56208829 134.37906656 57.60406666 120.74930984 57.67361301 C111.17132221 57.72082887 101.59344088 57.74510583 92.01534051 57.75237232 C86.29224138 57.75733236 80.56958559 57.77244701 74.84661293 57.81211662 C69.46125616 57.84895313 64.07659647 57.85740221 58.69113731 57.84411049 C56.71543974 57.84416449 54.73971152 57.85448112 52.76412964 57.87586212 C50.06396234 57.90352066 47.3663413 57.89404648 44.66615295 57.87542725 C43.49648113 57.90061964 43.49648113 57.90061964 42.30317956 57.92632097 C36.96449059 57.83448006 34.28690403 56.32880723 30.44358796 52.64502102 C28.71044416 50.82495363 27.00218592 49.01577353 25.39227295 47.08467102 C23.37185785 44.69939541 21.34046624 42.43097391 19.07977295 40.27217102 C17.01727295 38.14717102 17.01727295 38.14717102 17.01727295 36.14717102 C16.35727295 36.14717102 15.69727295 36.14717102 15.01727295 36.14717102 C13.58074951 34.70478821 13.58074951 34.70478821 11.90789795 32.69404602 C7.34236182 27.32421855 2.4880858 22.25203852 -2.37335205 17.15107727 C-3.05397705 16.43306946 -3.73460205 15.71506165 -4.43585205 14.97529602 C-5.04590088 14.33495422 -5.65594971 13.69461243 -6.28448486 13.03486633 C-7.99995766 11.12801819 -9.58933455 9.30333042 -10.98272705 7.14717102 C-10.79522705 3.95967102 -10.79522705 3.95967102 -9.98272705 1.14717102 C-6.83323556 -0.42757472 -3.45836466 -0.00080941 0 0 Z " fill="#5594D5" transform="translate(138.98272705078125,227.8528289794922)"/>
<path d="M0 0 C0.83672039 -0.00297112 1.67344077 -0.00594224 2.53551632 -0.0090034 C5.35531696 -0.01771481 8.17507526 -0.01920069 10.99488831 -0.02069092 C13.00999544 -0.0253173 15.02510169 -0.03034171 17.04020691 -0.03573608 C22.52565182 -0.04887788 28.01108449 -0.0553083 33.49654269 -0.05974674 C36.92014212 -0.0626741 40.34373816 -0.06677821 43.76733589 -0.07125092 C54.46901384 -0.08492942 65.1706841 -0.09459482 75.87237018 -0.09845281 C88.24482922 -0.1029371 100.61717797 -0.12050076 112.98960346 -0.1494534 C122.54120628 -0.17103286 132.09277799 -0.18115506 141.64440495 -0.18249393 C147.3549336 -0.18354447 153.06535865 -0.18950536 158.77586174 -0.20731354 C164.14464767 -0.22373013 169.51325137 -0.22598107 174.88205338 -0.21717453 C176.85618259 -0.21640075 178.83032135 -0.2207914 180.80442619 -0.23063278 C183.49223365 -0.24324991 186.17938564 -0.23753176 188.8671875 -0.22705078 C189.65472914 -0.23510719 190.44227077 -0.24316359 191.25367731 -0.25146413 C196.5019464 -0.20335123 196.5019464 -0.20335123 198.97566319 1.51424026 C200.50366122 3.94695853 200.50732505 5.31936576 199.99708557 8.14044189 C198.05567932 10.53497314 198.05567932 10.53497314 195.43458557 12.95294189 C191.6549084 16.47949 188.22126106 20.11871104 184.84254456 24.0322876 C181.76009979 27.55350873 178.53082609 30.93408555 175.30958557 34.32794189 C171.30515108 38.55502649 167.30394272 42.78115183 163.39552307 47.09747314 C162.8498468 47.6985791 162.30417053 48.29968506 161.74195862 48.91900635 C160.7282232 50.03953439 159.7190147 51.16418012 158.71510315 52.29351807 C156.48472674 54.75408563 155.20875114 56.0698867 151.99708557 57.14044189 C149.2660687 57.24068149 146.56045701 57.28387402 143.82922363 57.28088379 C142.56567774 57.28534047 142.56567774 57.28534047 141.27660567 57.28988719 C138.44375762 57.29858407 135.61095178 57.30008325 132.77809143 57.30157471 C130.7513622 57.30620203 128.72463384 57.31122657 126.69790649 57.31661987 C121.18572929 57.32975057 115.67356426 57.33618966 110.16137385 57.34063053 C106.72119338 57.34355901 103.28101627 57.34766329 99.84083748 57.3521347 C89.08737323 57.36580882 78.33391662 57.37547699 67.58044428 57.3793366 C55.14742498 57.3838231 42.71451531 57.40139881 30.28152937 57.43033719 C20.68236403 57.45190827 11.08322965 57.46203835 1.48404032 57.46337771 C-4.25494594 57.46442865 -9.99382914 57.47039795 -15.73278999 57.48819733 C-21.1262091 57.50460001 -26.51944679 57.50687175 -31.91288185 57.49805832 C-33.89710728 57.49728385 -35.88134215 57.50168413 -37.86554337 57.51151657 C-40.56459452 57.52411185 -43.26299087 57.5184278 -45.96203613 57.50793457 C-47.15253109 57.52001918 -47.15253109 57.52001918 -48.36707646 57.53234792 C-50.54802036 57.51237869 -50.54802036 57.51237869 -54.00291443 57.14044189 C-56.00291443 54.14044189 -56.00291443 54.14044189 -55.81932068 51.69122314 C-54.9234954 48.89230494 -53.9244948 47.47472589 -51.94041443 45.32794189 C-51.31006287 44.64087158 -50.6797113 43.95380127 -50.03025818 43.24591064 C-47.46272863 40.57943968 -44.85340715 37.96160728 -42.19041443 35.39044189 C-40.30339877 33.4495115 -38.52650844 31.46890111 -36.75291443 29.42559814 C-32.94293819 25.03986057 -28.99224174 20.80036209 -25.00291443 16.57794189 C-23.99357849 15.50383057 -23.99357849 15.50383057 -22.96385193 14.40802002 C-9.37207642 -0.01028238 -9.37207642 -0.01028238 0 0 Z " fill="#7963EA" transform="translate(184.00291442871094,313.85955810546875)"/>
<path d="M0 0 C0.84815633 -0.00482883 1.69631266 -0.00965766 2.5701707 -0.01463282 C5.41092987 -0.02590065 8.25078827 -0.00858724 11.09150696 0.00863647 C13.12838484 0.00649058 15.16526154 0.00261284 17.20213318 -0.00286865 C22.73290726 -0.01256589 28.26335877 0.00274482 33.79409385 0.02303743 C39.57607395 0.04059236 45.35804385 0.0370837 51.14004517 0.03631592 C60.84706529 0.03818911 70.55396038 0.05555805 80.26094055 0.08285522 C91.49624547 0.11433273 102.73141356 0.12485052 113.96675938 0.12338412 C124.76350159 0.12216511 135.56019908 0.13236011 146.35692787 0.14896774 C150.95778057 0.15604291 155.55861745 0.15969558 160.15947533 0.16075516 C165.57097412 0.16275853 170.98235724 0.17492291 176.3938179 0.19508743 C178.38448313 0.20094765 180.37516167 0.20338611 182.36583519 0.20223236 C185.07344173 0.20125661 187.78072024 0.2125059 190.48828125 0.22705078 C191.28447127 0.22395358 192.08066128 0.22085637 192.90097827 0.21766531 C198.32530676 0.26611791 198.32530676 0.26611791 200.55366516 2.49447632 C201.06147766 4.68978882 201.06147766 4.68978882 200.55366516 7.49447632 C198.77674341 10.04176736 196.61702207 12.17422061 194.42866516 14.36947632 C193.13798509 15.7064114 191.84762961 17.04365991 190.55757141 18.38119507 C189.89257629 19.06230347 189.22758118 19.74341187 188.54243469 20.44515991 C185.43584581 23.646327 182.40247208 26.91431964 179.36616516 30.18197632 C178.7871344 30.80185425 178.20810364 31.42173218 177.61152649 32.06039429 C173.91910921 36.01391264 170.26028684 39.99647021 166.61616516 43.99447632 C155.70618382 55.91821699 155.70618382 55.91821699 152.55366516 57.49447632 C149.8775901 57.59673926 147.22728154 57.63785471 144.55075073 57.63491821 C143.29567015 57.6393749 143.29567015 57.6393749 142.01523441 57.64392161 C139.19543378 57.65263303 136.37567547 57.65411891 133.55586243 57.65560913 C131.5407553 57.66023551 129.52564904 57.66525993 127.51054382 57.6706543 C122.02509891 57.6837961 116.53966624 57.69022651 111.05420804 57.69466496 C107.63060862 57.69759231 104.20701257 57.70169643 100.78341484 57.70616913 C90.0817369 57.71984763 79.38006663 57.72951303 68.67838055 57.73337102 C56.30592151 57.73785531 43.93357276 57.75541897 31.56114727 57.78437161 C22.00954445 57.80595107 12.45797274 57.81607327 2.90634578 57.81741214 C-2.80418287 57.81846269 -8.51460791 57.82442357 -14.22511101 57.84223175 C-19.59389694 57.85864834 -24.96250064 57.86089929 -30.33130264 57.85209274 C-32.30543186 57.85131896 -34.27957062 57.85570962 -36.25367546 57.86555099 C-38.94148292 57.87816812 -41.62863491 57.87244997 -44.31643677 57.86196899 C-45.1039784 57.8700254 -45.89152004 57.8780818 -46.70292658 57.88638234 C-51.93028643 57.83846113 -51.93028643 57.83846113 -54.45787144 56.15363693 C-55.44633484 54.49447632 -55.44633484 54.49447632 -55.39164734 51.58041382 C-54.29707809 48.00723322 -53.06235819 46.61891795 -50.32133484 44.11947632 C-46.73153804 40.80295124 -43.51552912 37.32758907 -40.32475281 33.6355896 C-37.17005705 30.03971206 -33.86535638 26.58730601 -30.57133484 23.11947632 C-25.39436979 17.65308242 -20.27986607 12.15831572 -15.34086609 6.47494507 C-10.42243957 1.33341467 -7.10964258 -0.09263837 0 0 Z " fill="#2DD3B7" transform="translate(183.4463348388672,141.50552368164063)"/>
</svg>
