<svg width="52" height="52" viewBox="0 0 52 52" fill="none" xmlns="http://www.w3.org/2000/svg">
    <g clip-path="url(#clip0_7912_29648)">
        <path d="M52 26C52 11.6406 40.3594 0 26 0C11.6406 0 0 11.6406 0 26C0 40.3594 11.6406 52 26 52C40.3594 52 52 40.3594 52 26Z"
              fill="#6C00F6"/>
        <path d="M31.6041 14.3843L24.3484 18.5515V31.5574L20.345 33.8781L16.317 31.5556V26.9121L20.345 24.6121L22.9349 26.114V22.3572L20.3223 20.874L13.0684 25.0883V33.4245L20.3468 37.6162L27.6007 33.4245V20.4205L31.6287 18.0978L35.6546 20.4205V25.0431L31.6287 27.3865L29.0161 25.8712V29.6093L31.6041 31.1019L38.9296 26.9348V18.5515L31.6041 14.3843Z"
              fill="white"/>
    </g>
    <defs>
        <clipPath id="clip0_7912_29648">
            <path d="M0 26C0 11.6406 11.6406 0 26 0C40.3594 0 52 11.6406 52 26C52 40.3594 40.3594 52 26 52C11.6406 52 0 40.3594 0 26Z"
                  fill="white"/>
        </clipPath>
    </defs>
</svg>
