<svg width="48" height="48" viewBox="0 0 48 48" fill="none" xmlns="http://www.w3.org/2000/svg">
    <g clip-path="url(#clip0_7219_24467)">
        <path d="M47.2819 29.8057C44.0762 42.663 31.0524 50.4877 18.1921 47.2815C5.33727 44.0761 -2.4883 31.053 0.718846 18.1967C3.92317 5.33806 16.947 -2.48721 29.8032 0.718162C42.6625 3.92354 50.4876 16.9481 47.2816 29.806L47.2818 29.8057H47.2819Z"
              fill="#0A182F"/>
        <path d="M47.039 29.7455L47.0106 29.8594C43.7898 42.5148 30.9408 50.2022 18.2526 47.0389C5.53171 43.867 -2.2123 30.9795 0.961412 18.2573L0.961427 18.2572C4.13236 5.5325 17.0205 -2.21124 29.7428 0.960737L29.8032 0.718226L29.7428 0.96074C42.4681 4.13272 50.2117 17.0216 47.039 29.7455Z"
              stroke="white" stroke-opacity="0.16" stroke-width="0.5"/>
        <path d="M32.856 17.72L28.888 18.936C28.664 17.688 27.64 15.736 24.76 15.736C22.616 15.736 21.208 17.112 21.208 18.616C21.208 19.864 22.008 20.856 23.672 21.176L26.84 21.784C30.968 22.584 33.176 25.272 33.176 28.472C33.176 31.96 30.264 35.48 24.984 35.48C18.968 35.48 16.312 31.608 15.96 28.376L20.056 27.288C20.248 29.528 21.816 31.544 25.016 31.544C27.384 31.544 28.696 30.36 28.696 28.76C28.696 27.448 27.704 26.424 25.944 26.072L22.776 25.432C19.16 24.696 16.824 22.36 16.824 18.936C16.824 14.904 20.44 11.832 24.728 11.832C30.232 11.832 32.344 15.16 32.856 17.72Z"
              fill="#485977"/>
    </g>
    <defs>
        <clipPath id="clip0_7219_24467">
            <rect width="48" height="48" fill="white"/>
        </clipPath>
    </defs>
</svg>
