<svg width="48" height="48" viewBox="0 0 48 48" fill="none" xmlns="http://www.w3.org/2000/svg">
    <path d="M3 11.3258L23.5 0L44 11.3258V36.1348L23.5 48L3 36.1348V11.3258Z" fill="#485977"/>
    <path d="M36.8661 30.1339L32.574 34.6868C32.4807 34.7857 32.3678 34.8645 32.2424 34.9184C32.1169 34.9723 31.9816 35.0001 31.8449 35H11.4983C11.4012 35 11.3062 34.9719 11.225 34.9193C11.1439 34.8666 11.08 34.7917 11.0413 34.7036C11.0026 34.6155 10.9908 34.5182 11.0072 34.4236C11.0237 34.3289 11.0677 34.2411 11.134 34.1709L15.4293 29.618C15.5223 29.5194 15.6349 29.4407 15.7599 29.3868C15.885 29.3329 16.0198 29.305 16.1563 29.3048H36.5017C36.5988 29.3048 36.6937 29.3328 36.775 29.3855C36.8561 29.4381 36.9199 29.5131 36.9588 29.6012C36.9974 29.6892 37.0092 29.7866 36.9928 29.8812C36.9763 29.9758 36.9323 30.0637 36.8661 30.1339ZM32.574 20.9656C32.4807 20.8667 32.3678 20.7879 32.2424 20.734C32.1169 20.6801 31.9816 20.6523 31.8449 20.6524H11.4983C11.4012 20.6524 11.3062 20.6804 11.225 20.7331C11.1439 20.7858 11.08 20.8607 11.0413 20.9488C11.0026 21.0369 10.9908 21.1342 11.0072 21.2288C11.0237 21.3234 11.0677 21.4113 11.134 21.4815L15.4293 26.0344C15.5223 26.133 15.6349 26.2117 15.7599 26.2656C15.885 26.3195 16.0198 26.3474 16.1563 26.3476H36.5017C36.5988 26.3476 36.6937 26.3196 36.775 26.2669C36.8561 26.2142 36.9199 26.1393 36.9588 26.0512C36.9974 25.9631 37.0092 25.8658 36.9928 25.7712C36.9763 25.6766 36.9323 25.5887 36.8661 25.5185L32.574 20.9656ZM11.4983 17.6952H31.8449C31.9816 17.6953 32.1169 17.6675 32.2424 17.6136C32.3678 17.5598 32.4807 17.4809 32.574 17.382L36.8661 12.8291C36.9323 12.7589 36.9763 12.6711 36.9928 12.5764C37.0092 12.4818 36.9974 12.3845 36.9588 12.2964C36.9199 12.2083 36.8561 12.1334 36.775 12.0807C36.6937 12.0281 36.5988 12 36.5017 12H16.1563C16.0198 12.0002 15.885 12.0281 15.7599 12.082C15.6349 12.1359 15.5223 12.2146 15.4293 12.3132L11.1351 16.8661C11.0689 16.9363 11.0249 17.024 11.0084 17.1185C10.9919 17.2131 11.0036 17.3103 11.0422 17.3983C11.0807 17.4864 11.1444 17.5613 11.2255 17.6141C11.3065 17.6668 11.4013 17.695 11.4983 17.6952Z"
          fill="#070F1C"/>
</svg>
