<svg width="48" height="48" viewBox="0 0 48 48" fill="none" xmlns="http://www.w3.org/2000/svg">
    <g clip-path="url(#clip0_7319_24661)">
        <g clip-path="url(#clip1_7319_24661)">
            <path d="M15.4666 12.9331L24.0003 8L32.5341 12.9331L29.3341 14.6662L24.0003 11.5994L18.5335 14.6662L15.4666 12.9331ZM32.3997 19.0669L29.3328 17.3338L24.0003 20.4006L18.5335 17.3338L15.4666 19.0669V22.6675L20.8003 25.7344V32.0013L23.8672 33.8675L26.9341 32.0013V25.8675L32.2679 22.8006V19.0669H32.3997ZM32.3997 28.9331V25.3338L29.3341 27.2V30.6662L32.3997 28.9331ZM34.6666 30.1338L29.3328 33.2006V36.8L37.8666 31.8669V22.0006L34.6666 24V30.1338ZM31.601 16L34.6679 17.8662V21.4669L37.7347 19.6006V16L34.6679 14.1338L31.601 16ZM20.8003 34.5331V38.1325L23.8672 39.9987L26.9341 38.1325V34.5331L23.8672 36.3994L20.8003 34.5331ZM15.4666 28.9331L18.5335 30.6662V27.0669L15.4666 25.2006V28.9331ZM20.8003 16L23.8672 17.8662L27.0672 16L24.0003 14.1338L20.8003 16ZM13.1997 17.8662L16.3997 16L13.1997 14.1338L10.1341 16V19.5994L13.201 21.4656V17.8662H13.1997ZM13.1997 24L10.1328 22.1338V32L18.6666 36.9331V33.3338L13.3328 30.2669V24H13.1997Z"
                  fill="#ADB5BD"/>
        </g>
    </g>
    <defs>
        <clipPath id="clip0_7319_24661">
            <rect width="48" height="48" fill="white"/>
        </clipPath>
        <clipPath id="clip1_7319_24661">
            <rect width="32" height="32" fill="white" transform="translate(8 8)"/>
        </clipPath>
    </defs>
</svg>
