<svg width="48" height="48" viewBox="0 0 48 48" fill="none" xmlns="http://www.w3.org/2000/svg">
  <g clip-path="url(#clip0_7219_24451)">
    <path d="M32.856 17.72L28.888 18.936C28.664 17.688 27.64 15.736 24.76 15.736C22.616 15.736 21.208 17.112 21.208 18.616C21.208 19.864 22.008 20.856 23.672 21.176L26.84 21.784C30.968 22.584 33.176 25.272 33.176 28.472C33.176 31.96 30.264 35.48 24.984 35.48C18.968 35.48 16.312 31.608 15.96 28.376L20.056 27.288C20.248 29.528 21.816 31.544 25.016 31.544C27.384 31.544 28.696 30.36 28.696 28.76C28.696 27.448 27.704 26.424 25.944 26.072L22.776 25.432C19.16 24.696 16.824 22.36 16.824 18.936C16.824 14.904 20.44 11.832 24.728 11.832C30.232 11.832 32.344 15.16 32.856 17.72Z" fill="#ADB5BD"/>
  </g>
  <defs>
    <clipPath id="clip0_7219_24451">
      <rect width="48" height="48" fill="white"/>
    </clipPath>
  </defs>
</svg>

