<!-- source: DFINITY foundation -->
<svg width="24" height="24" viewBox="0 0 48 48" fill="none" xmlns="http://www.w3.org/2000/svg">
	<g clip-path="url(#clip0_2394_8171)">
		<circle cx="24" cy="24" r="23.75" fill="white" stroke="#DEE2E6" stroke-width="0.5" />
		<g clip-path="url(#clip1_2394_8171)">
			<path
				d="M23.923 8.00024L23.7061 8.737V30.1142L23.923 30.3306L33.8458 24.4651L23.923 8.00024Z"
				fill="black"
			/>
			<path d="M23.9231 8L14 24.4648L23.9231 30.3303V19.9544V8Z" fill="#ADB5BD" />
			<path
				d="M23.923 32.2092L23.8008 32.3583V39.9732L23.923 40.33L33.8519 26.3468L23.923 32.2092Z"
				fill="black"
			/>
			<path d="M23.9231 40.33V32.2092L14 26.3468L23.9231 40.33Z" fill="#ADB5BD" />
			<path d="M23.9229 30.3305L33.8457 24.465L23.9229 19.9546V30.3305Z" fill="black" />
			<path d="M14 24.465L23.9231 30.3305V19.9546L14 24.465Z" fill="#ADB5BD" />
		</g>
	</g>
	<defs>
		<clipPath id="clip0_2394_8171">
			<rect width="48" height="48" fill="white" />
		</clipPath>
		<clipPath id="clip1_2394_8171">
			<rect width="19.852" height="32.3301" fill="white" transform="translate(14 8)" />
		</clipPath>
	</defs>
</svg>
