<!-- source: DFINITY foundation -->
<svg width="24" height="24" viewBox="0 0 48 48" fill="none" xmlns="http://www.w3.org/2000/svg">
	<circle cx="24" cy="24" r="23.75" fill="white" stroke="#DEE2E6" stroke-width="0.5" />
	<path
		d="M32.2277 16.4C30.4389 16.4 28.4888 17.2978 26.4277 19.0662C25.4499 19.9041 24.6054 20.8019 23.9722 21.5202C23.9722 21.5202 23.9722 21.5202 23.9777 21.5256V21.5202C23.9777 21.5202 24.9776 22.5866 26.0833 23.7293C26.6777 23.0382 27.5333 22.0969 28.5166 21.2481C30.35 19.6756 31.5444 19.3437 32.2277 19.3437C34.8001 19.3437 36.889 21.3406 36.889 23.7946C36.889 26.2322 34.7946 28.2291 32.2277 28.2454C32.1111 28.2454 31.9611 28.2291 31.7722 28.191C32.5222 28.5066 33.3278 28.7352 34.0945 28.7352C38.8056 28.7352 39.7279 25.7262 39.789 25.5085C39.9279 24.959 40.0001 24.3822 40.0001 23.7891C40.0001 19.7191 36.5112 16.4 32.2277 16.4Z"
		fill="black"
	/>
	<path
		d="M15.7723 31.2C17.5612 31.2 19.5113 30.3021 21.5724 28.5338C22.5502 27.6958 23.3947 26.798 24.0279 26.0798C24.0279 26.0798 24.0279 26.0798 24.0224 26.0744V26.0798C24.0224 26.0798 23.0225 25.0133 21.9169 23.8707C21.3224 24.5617 20.4668 25.503 19.4835 26.3519C17.6501 27.9244 16.4557 28.2563 15.7723 28.2563C13.2001 28.2508 11.1112 26.2539 11.1112 23.8C11.1112 21.3623 13.2056 19.3654 15.7723 19.3491C15.889 19.3491 16.039 19.3654 16.2279 19.4035C15.4779 19.0879 14.6723 18.8594 13.9056 18.8594C9.19446 18.8594 8.27778 21.8683 8.21111 22.0805C8.07222 22.6356 8 23.2069 8 23.8C8 27.8808 11.4889 31.2 15.7723 31.2Z"
		fill="black"
	/>
	<path
		d="M34.0841 28.6699C31.6728 28.61 29.1673 26.7491 28.6561 26.2866C27.334 25.0896 24.2838 21.8521 24.045 21.5963C21.8116 19.1424 18.7838 16.4 15.7726 16.4H15.7671H15.7615C12.1059 16.4163 9.03366 18.8431 8.21143 22.0806C8.27254 21.8684 9.47812 18.7996 13.9004 18.9084C16.3115 18.9683 18.8282 20.8563 19.3449 21.3188C20.6672 22.5159 23.7173 25.7534 23.9562 26.0091C26.1895 28.4576 29.2173 31.2 32.2284 31.2H32.234H32.2395C35.8951 31.1837 38.9729 28.7569 39.7896 25.5194C39.723 25.7316 38.5118 28.7732 34.0841 28.6699Z"
		fill="#ADB5BD"
	/>
</svg>
