<svg width="48" height="48" viewBox="0 0 48 48" fill="none" xmlns="http://www.w3.org/2000/svg">
    <g clip-path="url(#clip0_7219_24446)">
        <path d="M38.0028 31.336L33.3561 36.1907C33.2551 36.2962 33.1329 36.3802 32.9971 36.4377C32.8613 36.4952 32.7148 36.5248 32.5667 36.5247H10.5394C10.4343 36.5247 10.3315 36.4948 10.2436 36.4387C10.1557 36.3825 10.0866 36.3026 10.0447 36.2086C10.0028 36.1148 9.98999 36.011 10.0078 35.9101C10.0256 35.8091 10.0733 35.7155 10.145 35.6406L14.7952 30.7859C14.8959 30.6807 15.0177 30.5968 15.1531 30.5394C15.2885 30.4819 15.4345 30.4522 15.5822 30.4519H37.6082C37.7133 30.4519 37.8162 30.4819 37.9041 30.538C37.9919 30.5941 38.061 30.6741 38.1031 30.768C38.1449 30.8619 38.1577 30.9657 38.1399 31.0666C38.122 31.1675 38.0744 31.2611 38.0028 31.336ZM33.3561 21.56C33.2551 21.4545 33.1329 21.3704 32.9971 21.313C32.8613 21.2555 32.7148 21.2259 32.5667 21.226H10.5394C10.4343 21.226 10.3315 21.2559 10.2436 21.312C10.1557 21.3682 10.0866 21.4481 10.0447 21.542C10.0028 21.6359 9.98999 21.7397 10.0078 21.8406C10.0256 21.9415 10.0733 22.0351 10.145 22.11L14.7952 26.9648C14.8959 27.0699 15.0177 27.1538 15.1531 27.2113C15.2885 27.2687 15.4345 27.2985 15.5822 27.2987H37.6082C37.7133 27.2987 37.8162 27.2688 37.9041 27.2127C37.9919 27.1565 38.061 27.0766 38.1031 26.9827C38.1449 26.8888 38.1577 26.785 38.1399 26.6841C38.122 26.5832 38.0744 26.4896 38.0028 26.4147L33.3561 21.56ZM10.5394 18.0728H32.5667C32.7148 18.0728 32.8613 18.0433 32.9971 17.9858C33.1329 17.9283 33.2551 17.8442 33.3561 17.7388L38.0028 12.8841C38.0744 12.8092 38.122 12.7156 38.1399 12.6147C38.1577 12.5137 38.1449 12.41 38.1031 12.3161C38.061 12.2222 37.9919 12.1422 37.9041 12.0861C37.8162 12.0299 37.7133 12 37.6082 12H15.5822C15.4345 12.0002 15.2885 12.03 15.1531 12.0875C15.0177 12.1449 14.8959 12.2288 14.7952 12.334L10.1462 17.1887C10.0746 17.2635 10.0269 17.3571 10.0091 17.4578C9.9912 17.5586 10.0039 17.6623 10.0457 17.7562C10.0874 17.8501 10.1564 17.93 10.2441 17.9862C10.3318 18.0425 10.4344 18.0725 10.5394 18.0728Z"
              fill="black"/>
    </g>
    <defs>
        <clipPath id="clip0_7219_24446">
            <rect width="48" height="48" fill="white"/>
        </clipPath>
    </defs>
</svg>
