<svg width="52" height="52" viewBox="0 0 52 52" fill="none" xmlns="http://www.w3.org/2000/svg">
    <g clip-path="url(#clip0_7381_29740)">
        <path d="M51.2221 32.2895C47.7492 46.2183 33.6401 54.695 19.7081 51.2216C5.78204 47.7491 -2.69566 33.6407 0.77875 19.7131C4.2501 5.7829 18.3592 -2.69448 32.2868 0.778009C46.2178 4.2505 54.6949 18.3604 51.2217 32.2898L51.2219 32.2895H51.2221Z"
              fill="#F0B90B"/>
        <path d="M35.2018 24.5569L35.1832 20.4804H35.1977L31.8043 18.4422L25.9897 21.9405L20.2101 18.4422L16.8189 20.4804V24.5569L22.6336 28.0382V35.0179L26.0103 37.0371L29.3872 35.0179V28.0382L35.2018 24.5569Z"
              fill="white"/>
        <path d="M25.9917 8L16.8168 13.5196L20.1935 15.5578L25.9917 12.0595L31.8065 15.5578L35.1832 13.5196L25.9917 8Z"
              fill="white"/>
        <path d="M14.3954 32.9627L14.3767 26L11.002 23.9639V35.0199L20.1935 40.5205V36.4441L14.3954 32.9627Z"
              fill="white"/>
        <path d="M14.3767 23.0945V19.0371L17.7701 16.9989L14.3767 14.9607L11 16.9989V21.0563L14.3767 23.0945Z"
              fill="white"/>
        <path d="M25.9917 14.9607L22.6149 16.9989L25.9917 19.0371L29.385 16.9989L25.9917 14.9607Z" fill="white"/>
        <path d="M20.1935 29.4814L16.8168 27.4431V31.5196L20.1935 33.5388V29.4814Z" fill="white"/>
        <path d="M25.9917 39.9425L22.615 37.9043V41.9618L25.9917 44L29.385 41.9618V37.9043L25.9917 39.9425Z"
              fill="white"/>
        <path d="M37.6046 14.9607L34.2279 16.9989L37.6046 19.0371V23.0945L40.998 21.0563V16.9989L37.6046 14.9607Z"
              fill="white"/>
        <path d="M41 23.9618L37.6232 26L37.6046 32.9627L31.8085 36.442V40.5185L41 35.0179V23.9618Z" fill="white"/>
        <path d="M35.1832 31.5196L31.8065 33.5388V29.4814L35.1832 27.4431V31.5196Z" fill="white"/>
    </g>
    <defs>
        <clipPath id="clip0_7381_29740">
            <path d="M0 26C0 11.6406 11.6406 0 26 0C40.3594 0 52 11.6406 52 26C52 40.3594 40.3594 52 26 52C11.6406 52 0 40.3594 0 26Z"
                  fill="white"/>
        </clipPath>
    </defs>
</svg>
