<svg xmlns="http://www.w3.org/2000/svg" width="500" height="500" viewBox="0 0 500 500" fill="none">
<g clip-path="url(#clip0_4160_1274)">
<path d="M250 500C388.071 500 500 388.071 500 250C500 111.929 388.071 0 250 0C111.929 0 0 111.929 0 250C0 388.071 111.929 500 250 500Z" fill="white"/>
<path fill-rule="evenodd" clip-rule="evenodd" d="M250 476C374.816 476 476 374.816 476 250C476 125.184 374.816 24 250 24C125.184 24 24 125.184 24 250C24 374.816 125.184 476 250 476ZM500 250C500 388.071 388.071 500 250 500C111.929 500 0 388.071 0 250C0 111.929 111.929 0 250 0C388.071 0 500 111.929 500 250Z" fill="#0052FF"/>
<path d="M336.032 223.38C340.523 196.507 320.286 181.725 292.458 171.375L302.125 135.298L280.065 129.387L270.583 164.774C264.781 163.22 258.864 161.634 252.885 160.279L262.413 124.718L240.468 118.838L230.74 155.145C225.972 153.868 221.261 152.605 216.665 151.374L185.988 143.154L179.662 166.765C179.662 166.765 196.054 170.849 195.689 171.06C201.964 172.002 206.382 177.804 205.612 184.124L178.982 283.509C178.313 285.546 176.813 287.237 174.892 288.201C172.972 289.164 170.719 289.299 168.697 288.573C168.922 288.879 152.669 284.278 152.669 284.278L141.237 309.476L185.817 321.421L175.934 358.303L197.994 364.214L207.723 327.907C213.583 329.477 219.5 331.062 225.359 332.633L215.677 368.767L237.794 374.694L247.569 338.214C285.453 345.964 313.94 343.745 326.516 309.679C336.685 282.295 326.828 266.231 307.042 255.511C321.681 252.353 332.859 243.034 336.032 223.38V223.38ZM284.098 293.572C276.756 320.975 230.595 305.281 215.658 301.279L228.696 252.621C243.617 256.68 291.764 264.963 284.098 293.572V293.572ZM292.252 222.24C285.525 247.344 247.119 233.729 234.711 230.404L246.548 186.227C258.941 189.609 299.24 196.158 292.252 222.24Z" fill="#0052FF"/>
</g>
<defs>
<clipPath id="clip0_4160_1274">
<rect width="500" height="500" fill="white"/>
</clipPath>
</defs>
</svg>