<svg width="283" height="284" viewBox="0 0 283 284" fill="none" xmlns="http://www.w3.org/2000/svg">
<path d="M280.436 142.044C280.436 65.3131 218.233 3.11035 141.502 3.11035C64.7707 3.11035 2.56787 65.3131 2.56787 142.044C2.56787 218.775 64.7707 280.978 141.502 280.978C218.233 280.978 280.436 218.775 280.436 142.044Z" fill="white"/>
<path opacity="0.2" d="M141.501 254.955C203.86 254.955 254.412 204.403 254.412 142.044C254.412 79.6846 203.86 29.1324 141.501 29.1324C79.1415 29.1324 28.5894 79.6846 28.5894 142.044C28.5894 204.403 79.1415 254.955 141.501 254.955Z" fill="white" stroke="url(#paint0_linear_201_154)" stroke-width="14.1139"/>
<path d="M154.204 123.696V50.3036L99.1597 160.392H135.856V233.784L190.9 123.696H154.204Z" fill="url(#paint1_linear_201_154)"/>
<path d="M280.436 142.044C280.436 65.3131 218.233 3.11035 141.502 3.11035C64.7707 3.11035 2.56787 65.3131 2.56787 142.044C2.56787 218.775 64.7707 280.978 141.502 280.978C218.233 280.978 280.436 218.775 280.436 142.044Z" stroke="url(#paint2_linear_201_154)" stroke-width="4.4106"/>
<defs>
<linearGradient id="paint0_linear_201_154" x1="21.5324" y1="22.0756" x2="266.896" y2="77.0708" gradientUnits="userSpaceOnUse">
<stop stop-color="#3B00B9"/>
<stop offset="1" stop-color="#2586B6"/>
</linearGradient>
<linearGradient id="paint1_linear_201_154" x1="99.1597" y1="50.3036" x2="196.466" y2="61.2084" gradientUnits="userSpaceOnUse">
<stop stop-color="#3B00B9"/>
<stop offset="1" stop-color="#2586B6"/>
</linearGradient>
<linearGradient id="paint2_linear_201_154" x1="0.362573" y1="0.905051" x2="289.025" y2="65.605" gradientUnits="userSpaceOnUse">
<stop stop-color="#3B00B9"/>
<stop offset="1" stop-color="#2586B6"/>
</linearGradient>
</defs>
</svg>
