<svg width="360" height="360" viewBox="0 0 360 360" fill="none" xmlns="http://www.w3.org/2000/svg">
<g clip-path="url(#clip0_979_55)">
<path d="M180 0C279.4 0 360 80.6 360 180C360 279.4 279.4 360 180 360C80.6 360 0 279.4 0 180C0 80.6 80.6 0 180 0Z" fill="#3B00B9"/>
<path fill-rule="evenodd" clip-rule="evenodd" d="M40.4 190.4C45.4 259.4 100.6 314.6 169.6 319.6V335.2C92 330 30 268 24.8 190.4H40.4Z" fill="url(#paint0_linear_979_55)"/>
<path fill-rule="evenodd" clip-rule="evenodd" d="M169.6 40.4C100.6 45.4 45.4 100.6 40.4 169.6H24.8C29.8 92 92 29.8 169.6 24.8V40.4Z" fill="#29ABE2"/>
<path fill-rule="evenodd" clip-rule="evenodd" d="M319.6 169.4C314.6 100.4 259.4 45.2 190.4 40.2V24.6C268 29.8 330.2 91.8 335.2 169.4H319.6Z" fill="url(#paint1_linear_979_55)"/>
<path fill-rule="evenodd" clip-rule="evenodd" d="M190.4 319.6C259.4 314.6 314.6 259.4 319.6 190.4H335.2C330.2 268 268 330 190.4 335.2V319.6Z" fill="#29ABE2"/>
<path fill-rule="evenodd" clip-rule="evenodd" d="M213.197 75.8342C209.9 74.7809 207.204 76.7378 207.204 80.1994V88.7124C207.204 91.0334 208.953 93.675 211.132 94.4736C246.128 107.292 271.171 140.93 271.171 180.312C271.171 219.694 246.128 253.33 211.132 266.149C208.742 267.024 207.204 269.365 207.204 271.911V280.423C207.204 283.885 209.9 285.842 213.197 284.789C257.422 270.658 289.447 229.225 289.447 180.312C289.447 131.398 257.422 89.9646 213.197 75.8342Z" fill="white"/>
<path fill-rule="evenodd" clip-rule="evenodd" d="M152.374 80.1994C152.374 76.7378 149.678 74.7809 146.381 75.8342C102.154 89.9646 70.1292 131.398 70.1292 180.312C70.1292 229.226 102.154 270.658 146.381 284.789C149.678 285.842 152.374 283.885 152.374 280.423V271.911C152.374 269.589 150.624 266.947 148.445 266.149C113.449 253.33 88.4056 219.693 88.4056 180.312C88.4056 140.93 113.449 107.292 148.445 94.4736C150.624 93.675 152.374 91.0334 152.374 88.7123V80.1994Z" fill="white"/>
<path d="M217.18 208.846L208.815 205.109C206.974 204.286 204.802 205.055 203.91 206.865C199.963 214.877 193.402 219.983 184.735 219.983C176.888 219.983 170.595 216.14 165.771 208.375C163.886 205.37 162.387 202.017 161.247 198.343H183.707C185.13 198.343 186.432 197.541 187.075 196.27L192.433 189.037C193.701 186.527 191.877 183.563 189.067 183.563H158.719C158.631 182.007 158.578 180.42 158.578 178.785C158.561 177.165 158.607 175.577 158.691 174.013H183.707C185.13 174.013 186.432 173.212 187.075 171.941L192.433 164.708C193.702 162.198 191.877 159.234 189.067 159.234H161.219C165.292 145.954 173.795 137.254 184.735 137.425C193.072 137.425 199.543 141.989 203.695 149.464C204.625 151.139 206.719 151.781 208.471 151.008L216.879 147.296C218.89 146.408 219.746 143.976 218.681 142.052C210.92 128.036 199.605 120.995 184.735 120.995C171.166 120.995 160.294 126.39 152.039 137.098C147.214 143.405 143.855 150.805 141.861 159.234H129.649C128.225 159.234 126.923 160.035 126.281 161.306L120.921 168.539C119.654 171.049 121.478 174.013 124.289 174.013H139.843C139.768 175.583 139.697 177.157 139.697 178.785C139.677 180.399 139.715 181.988 139.783 183.563H129.649C128.225 183.563 126.923 184.365 126.281 185.635L120.921 192.868C119.654 195.378 121.478 198.343 124.289 198.343H141.826C147.372 221.266 163.339 236.898 184.735 236.575C199.926 236.575 211.376 229.023 219.02 213.986C219.993 212.071 219.14 209.722 217.18 208.846Z" fill="white"/>
</g>
<defs>
<linearGradient id="paint0_linear_979_55" x1="130.72" y1="304.12" x2="33.48" y2="222.22" gradientUnits="userSpaceOnUse">
<stop offset="0.21" stop-color="#ED1E79"/>
<stop offset="1" stop-color="#522785"/>
</linearGradient>
<linearGradient id="paint1_linear_979_55" x1="309.32" y1="123.06" x2="212.08" y2="41.16" gradientUnits="userSpaceOnUse">
<stop offset="0.21" stop-color="#F15A24"/>
<stop offset="0.68" stop-color="#FBB03B"/>
</linearGradient>
<clipPath id="clip0_979_55">
<rect width="360" height="360" fill="white"/>
</clipPath>
</defs>
</svg>
