<svg width="120" height="120" fill="none" xmlns="http://www.w3.org/2000/svg"><g clip-path="url(#a)"><mask id="b" style="mask-type:alpha" maskUnits="userSpaceOnUse" x="0" y="0" width="120" height="120"><path d="M60 0c33.133 0 60 26.867 60 60 0 33.133-26.867 60-60 60-33.133 0-60-26.867-60-60C0 26.867 26.867 0 60 0Z" fill="#0847F7"/></mask><g mask="url(#b)"><path d="M60 0c33.133 0 60 26.867 60 60 0 33.133-26.867 60-60 60-33.133 0-60-26.867-60-60C0 26.867 26.867 0 60 0Z" fill="#3D8130"/><path d="M69.972 10.909c-1.843-.062-3.516-.202-5.195-.14-2.228.078-4.07.974-5.58 2.614-.955 1.037-2.225 1.658-3.358 2.457-.271.19-.508.012-.71-.249-2.438-3.13-5.582-4.896-9.574-5.285-3.486-.34-6.95-.39-10.43-.02-1.355.143-2.494.749-3.659 1.364-1.696.896-3.399 1.798-4.57 3.373-1.135 1.529-2.376 3.013-3.15 4.773-.523 1.19-1.311 2.158-2.138 3.104-1.103 1.265-2.24 2.492-3.153 3.912-.245.384-.599.709-.94 1.022-1.887 1.731-3.186 3.904-4.576 6.018-1.842 2.808-3.247 5.857-4.932 8.747-1.886 3.236-3.337 6.685-5.192 9.935C1.758 54.388.91 56.364-.002 58.3c-1.434 3.046-2.33 6.27-3.332 9.459-.57 1.81-.888 3.686-1.048 5.598-.143 1.713-.514 3.406-.783 5.107-.306 1.954-.677 3.9-.902 5.866-.272 2.354-.438 4.72-.64 7.08-.146 1.702-.356 3.415-.686 5.11-.376 1.936-.093 3.892.23 5.836.401 2.387 1.236 4.627 2.15 6.835.911 2.202 2.42 4.023 4.17 5.607 1.553 1.406 3.393 2.387 5.297 3.251.98.445 1.936.946 2.89 1.44 1.192.618 2.476.996 3.735 1.435 1.355.475 2.76.817 4.14 1.204 2.053.574 4.182.799 6.29 1.107 2.698.392 5.425.445 8.138.644 2.482.182 4.95.149 7.417.132 1.5-.009 2.996-.483 4.502-.527 1.855-.056 3.694-.346 5.557-.281 1.808.061 3.618.105 5.422.023 2.474-.111 4.95-.1 7.42-.226 1.845-.096 3.63-.702 5.314-1.493.42-.196.87-.313 1.294-.46 1.475-.503 2.386-1.569 3.177-2.811.143-.222.219-.565.593-.524.38.044.4.407.45.647.297 1.461 1.41 2.188 2.569 2.808 2.123 1.137 3.962 2.691 6.003 3.948 1.855 1.139 3.858 1.669 5.983 1.856 2.31.202 4.617.372 6.938.41 1.714.029 3.434.293 5.157.237 1.694-.055 3.372-.222 5.016-.738 1.91-.597 3.902-.925 5.697-1.877 1.297-.688 2.582-1.39 3.782-2.24 1.509-1.071 1.839-2.837.966-4.843-.99-2.269-1.93-4.548-3.413-6.577-.87-1.192-1.11-2.794-2.149-3.915-2.214-2.381-3.84-5.274-6.404-7.341-1.915-1.544-3.965-2.879-6.176-3.95-.82-.399-1.445-.967-1.962-1.69-.362-.507-.382-.943.088-1.44 1.136-1.202 2.233-2.434 2.817-4.033.52-1.43.69-2.858.144-4.314-.164-.433-.103-.799.178-1.156.607-.77 1.191-1.558 1.807-2.322 1.376-1.71 1.44-3.391.14-5.148-.245-.331-.131-.55.035-.832.66-1.098 1.55-1.991 2.441-2.896.932-.943 1.685-2.017 1.904-3.385.056-.346.056-.674-.067-.993-.578-1.496-1.171-2.992-2.438-4.07-.29-.246-.432-.536-.532-.905-.487-1.806-1.67-3.177-2.896-4.512a9.96 9.96 0 0 0-.666-.65c-.444-.401-.423-.735.026-1.154 1.025-.955 1.884-2.038 2.503-3.315.814-1.684 1.019-3.438.809-5.277-.126-1.1-.266-2.199-.076-3.32.11-.656.064-1.344.061-2.015 0-.536-.245-1.104.66-1.236.473-.067.604-1.04.307-1.651-.438-.89-1.16-1.529-1.983-2.018-1.13-.667-2.108-1.581-3.352-2.064-.272-.106-.35-.358-.47-.586-1.186-2.284-2.774-4.225-4.894-5.698-1.098-.765-2.114-1.658-3.344-2.229a.45.45 0 0 1-.271-.433c-.018-1.113-.578-2.024-1.118-2.931a173.136 173.136 0 0 0-4.386-6.938c-1.434-2.163-3.4-3.557-5.685-4.611a27.438 27.438 0 0 1-1.317-.648c-1.072-.568-2.199-.878-3.256-.746l.003-.012Zm1.945 36.07c-1.4-1.923-3.166-3.499-4.889-5.106-.826-.77-1.79-1.4-2.517-2.282-1.32-1.598-2.98-2.67-4.928-3.329-.494-.167-1.01-.293-1.49-.638.117-.074.178-.141.234-.138 1.752.059 3.504-.05 5.259.067 1.314.088 2.365.615 3.241 1.576 1.092 1.197 2.348 2.234 3.451 3.426.73.788 1.27 1.616 1.492 2.65.27 1.247.223 2.512.144 3.775m21.75 11.115c-.63 1.13-1.457 1.61-2.575 1.699-.671.052-1.337.082-2.009.061-.356-.012-.63.167-.654.521-.023.331.146.595.543.615.412.02.824.088 1.232.074 1.554-.05 3.014-.287 4.05-1.675.75-1.005.833-.993 1.729-.024 2.453 2.653 3.305 4.571 1.63 8.565-.66 1.57-1.618 2.931-2.658 4.24-.984 1.24-2.292 2.059-3.83 2.486-2.436.677-4.947.642-7.435.78-2.269.125-4.526-.056-6.792-.255-4.08-.355-8.185-.355-12.255-.838-2.654-.316-5.32-.588-7.951-1.048-2.888-.504-5.738-1.221-8.611-1.813-1.738-.357-3.486-.653-5.233-.969-2.187-.395-4.24-1.25-6.356-1.889-1.974-.594-3.954-1.142-5.98-1.505-.836-.15-1.709-.14-2.31.542-1.285 1.455-1.58 3.944-.015 5.493 1.194 1.18 2.608 2.097 4.003 3.016 1.788 1.178 3.887 1.766 5.66 2.967 1.375.928 2.867 1.634 4.376 2.284 2.015.864 4.004 1.798 5.907 2.855 2.824 1.564 5.899 1.933 8.982 2.316 1.23.155 2.462.243 3.63.67a6.63 6.63 0 0 0 2.348.396c2.4-.015 4.8-.009 7.197.205 2.757.246 5.516.114 8.272-.117 1.823-.152 3.656-.34 5.478-.293 1.697.047 3.4.106 5.099.22.496.032.96-.126 1.44-.25 1.474-.377 2.785-1.065 3.956-2.026.444-.366.58-.146.619.285a6.888 6.888 0 0 1-.52 3.408c-.567 1.324-1.574 2.284-2.45 3.362-.23.287-.412.216-.64.02-.528-.454-1.08-.875-1.588-1.353-1.755-1.651-3.244-1.64-5.568-.723a16.818 16.818 0 0 0-3.525 1.892c-1.422 1.001-2.736 2.114-3.985 3.3-1.148 1.086-2.293 2.143-3.712 2.881-.513.267-1.074.522-1.398 1.066-.146.246-.29.234-.468.009-.96-1.215-2.277-1.403-3.7-1.248-1.938.211-3.696 2.191-3.567 4.106.076 1.148.654 2.17 1.43 2.943 1.4 1.394 2.596 2.908 3.691 4.548.727 1.086.981 2.19.914 3.429-.017.307-.166.632-.108.916.339 1.581-.274 2.782-1.276 3.962-.648.764-1.209 1.485-2.228 1.778-.353.102-.736.196-1.083.357-1.422.659-2.885 1.195-4.438 1.461-2.398.41-4.821.167-7.236.328-3.954.266-7.94 0-11.908.246-.204.012-.408.047-.61.073-1.477.182-2.95.445-4.432.527-3.037.167-6.068-.091-9.1-.249-.335-.017-.67-.008-1.004-.038-2.222-.202-4.45-.328-6.648-.726-1.384-.249-2.821-.322-4.155-.729-1.425-.433-2.86-.838-4.293-1.245-2.488-.711-4.756-1.929-7.075-3.03-1.93-.917-3.787-1.965-5.303-3.523-1.302-1.338-2.502-2.773-3.185-4.521-.812-2.077-1.644-4.141-2.018-6.384-.342-2.047-.683-4.08-.28-6.117.522-2.662.58-5.365.928-8.041.146-1.133.035-2.273.251-3.397.327-1.69.678-3.397.862-5.09.271-2.509.812-4.975 1.068-7.484.252-2.448.874-4.844 1.785-7.16.61-1.549.87-3.23 1.588-4.75.23-.488.52-.951.715-1.452.64-1.643 1.434-3.212 2.217-4.788.902-1.82 1.851-3.619 2.768-5.431.651-1.286 1.188-2.636 1.947-3.851 1.288-2.059 2.304-4.26 3.455-6.387 1.401-2.594 3.01-5.054 4.675-7.467 1.393-2.018 3.27-3.663 4.765-5.628 1.399-1.839 3.148-3.391 4.114-5.581.827-1.869 2.123-3.465 3.47-5.002.718-.82 1.707-1.22 2.578-1.812 1.962-1.336 4.114-1.895 6.453-2.03a47.515 47.515 0 0 1 7.72.194c1.153.122 2.319.21 3.42.6 3.44 1.212 5.91 3.479 7.355 6.858.327.767.572 1.549.733 2.357.055.281.134.627-.43.548a86.97 86.97 0 0 0-3.988-.454c-3.422-.325-6.848-.492-10.25.202-1.792.366-3.576.752-5.121 1.836-1.542 1.08-2.783 2.53-4.397 3.517-.298.181-.412.495-.184.8.245.327.607.286.908.102.727-.445 1.378-.99 2.026-1.55 1.323-1.139 2.617-2.333 4.348-2.88 2.508-.794 5.092-1.16 7.694-1.166 3.037-.006 6.056.465 9.081.74.441.042.859.203 1.241.42 1.726.983 3.361 2.067 4.833 3.44 2.855 2.67 4.666 6.009 6.35 9.447.158.322.337.82.06 1.007-.31.21-.535-.284-.737-.51-1.314-1.458-2.882-2.22-4.897-2.245-1.001-.012-2 .046-2.998.035-3.53-.041-7.06-.08-10.591.052-1.83.068-3.656.22-5.492.153-1.621-.059-3.256-.2-4.833.325-1.434.474-2.958.738-4.143 1.81-1.633 1.475-3.104 3.103-4.582 4.723-.598.656-.677 1.58-.625 2.424.073 1.16 1.049 1.743 2.234 1.508.4-.079.756-.342 1.244-.11 1.95.922 3.843 1.973 5.95 2.538a6.848 6.848 0 0 1 3.172 1.848c.61.62 1.247 1.311 2.009 1.672 1.55.729 3.133 1.405 4.82 1.83 2.512.632 4.912 1.675 7.517 1.997 2.271.281 4.526.714 6.824.258.446-.088.893-.062 1.355-.214 1.351-.451 2.59-1.291 4.096-1.254.286.006.555-.155.754-.363.204-.213.347-.204.587-.038.63.437.732 1.169.125 1.693-1.81 1.567-3.82 2.653-6.322 2.334-.616-.08-1.226-.15-1.845-.155-1.673-.015-3.332-.038-5.01-.255-2.705-.352-5.44-.475-8.153-.808-1.761-.217-3.39-.762-4.967-1.57-1.119-.574-1.831-1.575-2.765-2.337-.917-.746-1.677-1.69-2.722-2.28-.377-.212-.689-.15-.928.225-.266.415.035.63.315.808 1.296.823 2.412 1.877 3.451 2.972 1.449 1.526 3.215 2.384 5.169 2.917 1.968.538 4.009.708 6.032.846 3.084.208 6.135.776 9.242.711 1.16-.023 2.319.132 3.586.214-.514.557-.946.996-1.346 1.464-1.577 1.854-3.402 3.365-5.718 4.194-1.04.371-2.122.618-3.159.995-1.702.618-3.264 1.678-5.189 1.587-.385-.017-.56.27-.56.607 0 .395.227.562.654.57.835.015 1.64-.064 2.426-.374 1.82-.715 3.606-1.523 5.493-2.053a12.282 12.282 0 0 0 4.114-2.05c1.626-1.224 2.853-2.834 4.254-4.272.649-.665 1.276-1.338 2.176-1.681.952-.366 1.714-1.03 2.5-1.66 1.41-1.128 1.018-3.151-.547-3.871-.178-.083-.43-.085-.479-.337-.268-1.35-1.004-2.524-1.413-3.825-.897-2.849-2.812-4.729-5.53-5.87-1.875-.791-3.688-1.688-5.338-2.92-1.413-1.055-3.01-1.883-4.766-2.106-4.377-.556-8.692-.003-12.94 1.08-1.338.343-2.673.76-3.873 1.509-1.393.87-2.388 2.108-3.285 3.444-.356.532-.797.852-1.43.934-.395.05-.64-.126-.614-.49.044-.635.053-1.297.55-1.806 1.097-1.13 2.175-2.281 3.278-3.403 2.249-2.284 5.105-2.846 8.144-2.779 1.729.038 3.452.053 5.18-.029 2.704-.129 5.443-.548 8.071.553.57.238 1.162.416 1.74.63 1.767.656 3.598 1.247 4.885 2.709 1.957 2.216 4.392 3.906 6.416 6.055 1.32 1.4 2.14 2.934 2.303 4.835.035.398.103.735.614.697.528-.038.493-.422.487-.797-.008-1.007-.23-1.973-.64-2.937.891.229 1.105.08 1.108-.743.002-.83.034-1.664-.041-2.487-.158-1.707-.61-3.29-2.024-4.454-.47-.386-.823-.916-1.235-1.379-.187-.21-.12-.41-.041-.647.272-.793.17-1.558-.166-2.322-1.01-2.299-2.36-4.398-3.726-6.492-.637-.975-1.54-1.713-2.27-2.624 2.588-.878 5.137-1.57 7.826-1.771 3.522-.264 6.883.416 10.165 1.528 2.225.756 4.187 2.085 6.138 3.391 2.02 1.353 3.737 2.999 5.036 5.07.106.169.298.353.14.555-.119.156-.34.062-.513.033-1.046-.17-2.097-.232-3.16-.258-1.684-.041-3.343.24-5.013.369-1.323.102-2.564.539-3.712 1.227-.38.228-.624.53-.397.949.228.415.608.278.944.1.66-.35 1.325-.739 2.055-.865a39.058 39.058 0 0 1 7.087-.559c2.742.035 5.227.74 7.344 2.556.51.437 1.12.765 1.45 1.424-.256.064-.323-.106-.425-.203a6.57 6.57 0 0 0-2.45-1.54c-1.06-.377-2.161-.421-3.262-.53-2.64-.26-5.27-.53-7.933-.258-3.563.367-6.334 2.141-8.687 4.715-.263.29-.325.618-.015.884.295.255.62.205.888-.093.07-.076.143-.15.213-.226 2.599-2.849 5.808-4.255 9.677-4.217 2.274.024 4.526.287 6.789.443 1.401.096 2.57.694 3.69 1.455.103.07.237.167.26.272.292 1.327.438 2.662.213 4.232-.46-.686-.826-1.198-1.162-1.73-.846-1.342-1.822-2.493-3.51-2.78-2.452-.419-4.91-.632-7.384-.252-.686.106-1.42-.032-2.053.32-1.6.89-3.241 1.754-4.52 3.086-1.282 1.335-2.324 2.881-3.644 4.2-.669.667-1.244 1.484-1.589 2.371-.832 2.144-.499 3.203 1.352 3.719 1.974.55 3.98.802 6.021.808 2.982.006 5.948.454 8.953.044 2.692-.369 4.947-1.33 6.62-3.52.268-.354.595-.665 1.04-1.154-.272 2.803-1.54 4.768-3.584 6.273-.733.539-1.58.74-2.482.7-.619-.03-1.235-.073-1.854-.109-.438-.023-.832.144-.861.589-.03.474.356.627.8.606 1.127-.053 2.254.231 3.51-.067l.005.023ZM75.918 98.084c.333-.299.63-.542.902-.811 2.295-2.279 4.704-4.399 7.732-5.664 1.495-.623 3.022-1.11 4.386.214 1.06 1.028 2.435 1.719 3.119 3.16.648 1.367 2.032 1.944 3.305 2.527 4.838 2.214 7.907 6.331 11.131 10.287.759.931 1.188 2.032 1.714 3.092.797 1.608 2.003 2.975 2.663 4.674.528 1.364 1.136 2.697 1.489 4.126.202.817-.07 1.745-.75 2.196a90.439 90.439 0 0 1-2.993 1.877c-.54.328-1.075.714-1.665.911-1.203.401-2.452.67-3.673 1.007-2.827.782-5.63 1.107-8.593.852-3.192-.275-6.418-.152-9.613-.577-1.82-.243-3.583-.609-5.192-1.581-2.184-1.318-4.132-2.984-6.374-4.214-.453-.249-1.04-.384-1.29-.925-.558-1.198-1.046-2.407-.979-3.781.053-1.057.035-2.123.015-3.183-.012-.591-.018-1.235-.354-1.727-1.022-1.506-1.769-3.207-3.121-4.487-.806-.761-1.615-1.508-2.123-2.535-.517-1.049-.657-2.156-.082-2.677.973-.881 1.966-1.818 3.478-1.341 1.28.404 2.024 1.221 2.09 2.612.018.381.126.753.322 1.104.818 1.496 2.222 1.886 3.755 2.047.292.029.622-.079.739.366.19.723.502 1.414.467 2.187-.079 1.81.736 3.213 1.956 4.466 1.501 1.54 3.344 2.665 4.85 4.208 1.236 1.265 2.897 1.771 4.672 1.596.476-.047.564.038.64.448.196 1.069.78 1.918 1.845 2.17 1.574.372 3.198.67 4.798.222.695-.193.955-.061 1.03.603.03.249.2.407.325.601.77 1.168 3.483 1.197 4.8.433.937-.542 1.667-1.362 2.307-2.14 1.11-1.35 2.175-2.738 3.378-4.009.254-.27.219-.516.027-.759-.196-.243-.444-.342-.745-.131-.339.24-.613.541-.896.843-1.288 1.373-2.333 2.943-3.636 4.313-.922.972-1.9 1.338-3.15 1.227-.584-.053-1.166-.158-1.361-.811-.243-.808-.745-1.663.184-2.386 1.807-1.403 3.072-3.333 4.721-4.888.342-.322.532-.685.17-1.072-.394-.424-.716-.049-.97.22-1.007 1.066-2.029 2.126-2.978 3.245-.753.887-1.857 1.467-2.383 2.515-.531 1.063-1.363 1.221-2.37 1.148-.567-.041-1.145-.018-1.694-.138-.581-.129-1.265.012-1.735-.442-.592-.571-.689-1.646-.382-2.433.47-1.216 1.185-2.281 1.886-3.365.897-1.385 1.921-2.612 3.399-3.405.195-.106.344-.308.493-.484.199-.231.17-.474-.026-.7-.204-.234-.458-.263-.692-.087-.946.708-2.076 1.2-2.794 2.178-1.227 1.675-2.573 3.28-3.303 5.268-.073.202-.128.442-.417.507-1.125.249-2.217.146-3.224-.393-1.276-.685-2.257-1.713-3.02-2.937-.458-.738-.67-1.484-.037-2.284.432-.544.727-1.194 1.15-1.745.593-.779 1.2-1.575 2.152-1.95 3.533-1.394 6.348-3.877 9.292-6.161.286-.223.46-.527.157-.864-.265-.296-.563-.305-.887-.053-.652.507-1.294 1.028-1.977 1.488-.774.524-1.329 1.329-2.263 1.684.584-.668.528-1.658 1.279-2.252.31-.243.184-.618-.175-.911-.87-.706-1.884-1.06-2.944-1.288-1.69-.36-3.279-.18-4.625 1.051-1.107 1.013-2.389 1.795-3.554 2.732-1.72 1.385-3.647 1.429-5.641.937-1.29-.319-1.787-1.06-1.743-2.287.04-1.13 1.322-2.49 2.423-2.556.123-.01.26.029.368.087.5.267 1.016.501 1.454.87.882.741.909 1.227.085 2.021-.201.196-.435.363-.66.533-.327.246-.397.568-.16.875.245.322.607.272.89.047.362-.287.71-.6 1.01-.949.99-1.133.961-1.856.012-2.99-.505-.603-1.188-.954-1.828-1.405l.012.003Zm23.844-32.92c.494.548.701 1.286 1.092 1.91.815 1.305.52 2.515-.327 3.592-1.255 1.6-2.706 3.034-3.956 4.645-.812 1.048-2.094 1.59-2.97 2.58-.89 1.007-2.006 1.493-3.328 1.557-1.058.053-2.112.097-3.169.155-1.647.091-3.288.352-4.937.261-1.49-.082-2.967-.296-4.465-.27-1.08.021-2.158.08-3.238.124-1.805.076-3.586-.325-5.382-.428a32.893 32.893 0 0 1-6.389-1.013c-2.604-.677-5.241-1.075-7.936-1.016-1.6.035-3.162-.158-4.75-.393-2.48-.363-4.77-1.235-7.1-2.035-1.576-.541-3.103-1.23-4.759-1.543-1.358-.255-2.599-.8-3.653-1.734-.327-.29-.706-.518-1.077-.75-.284-.178-.613-.386-.911-.064-.33.355-.07.665.163.955.05.062.085.135.146.182 1.206.92 2.345 1.95 3.872 2.336 1.022.258 2.05.498 3.046.838 3.226 1.098 6.342 2.518 9.758 3.057 1.58.249 3.14.533 4.745.474 2.64-.096 5.244.167 7.8.855 4.306 1.16 8.727 1.424 13.154 1.59.794.03 1.594-.05 2.391-.084 1.577-.065 3.142.225 4.704.202 2.912-.044 5.82-.235 8.725-.454a4.485 4.485 0 0 0 2.838-1.277c.938-.925 1.983-1.71 3.01-2.524.31-.246.363-.158.556.114.85 1.183.397 2.659-.292 3.502-.45.554-.967 1.063-1.361 1.655-.619.928-1.288 1.757-2.207 2.439-2.039 1.517-4.255 2.076-6.757 1.757-1.224-.155-2.48-.281-3.7-.176-3.42.293-6.838.492-10.266.557-2.018.038-4.007-.317-6.024-.325-2.144-.012-4.304.257-6.413-.569-1.46-.57-3.095-.421-4.645-.67-2.319-.372-4.617-.709-6.728-1.854-3.75-2.035-7.825-3.434-11.42-5.78-.388-.252-.78-.533-1.209-.682-2.672-.926-4.882-2.61-7.087-4.302-.452-.349-.718-.85-.843-1.362-.222-.91-.062-1.8.543-2.553.432-.536 1.048-.39 1.585-.278 2.847.585 5.621 1.434 8.36 2.392 2.295.805 4.684 1.18 7.063 1.57 2.188.357 4.302 1.007 6.474 1.414 2.628.489 5.241 1.016 7.907 1.3 3.119.334 6.202 1.002 9.365.885.31-.012.622-.012.928.029 3.043.4 6.112.436 9.16.735 2.374.231 4.74-.185 7.113-.153.672.01 1.338.012 1.995-.16 1.559-.41 3.23-.472 4.613-1.43 3.428-2.374 5.25-5.768 6.19-9.78l.003-.003ZM84.64 26.124c-2.17-1.291-4.4-1.81-6.626-2.301-3.574-.788-7.156-.72-10.713.128-1.2.287-2.365.712-3.56 1.02-.467.12-.99.445-1.454.032-1.182-1.055-2.51-1.895-3.883-2.662-.377-.21-.555-.483-.607-.902-.184-1.476-.602-2.881-1.382-4.155-.292-.472-.081-.662.287-.917 1.246-.855 2.563-1.607 3.606-2.752.995-1.093 2.318-1.593 3.76-1.795 2.036-.281 4.065.105 6.098.079 1.354-.018 2.493.527 3.64 1.124.704.366 1.414.726 2.124 1.084a7.922 7.922 0 0 1 2.864 2.433c1.203 1.646 2.394 3.303 3.39 5.08.797 1.427 1.857 2.712 2.462 4.501l-.006.003ZM61.373 42.731c-.713.345-.716.313-1.425.371-2.704.226-5.408.188-8.115.053-3.924-.193-7.828.14-11.72.6-1.522.179-3.06.302-4.474 1.057-.564.302-1.095-.245-1.606-.503-.17-.085-.064-.264.026-.401 1.022-1.514 2.178-2.867 3.936-3.582 3.907-1.587 8.016-1.985 12.17-2.093 1.656-.044 3.277.132 4.83.817 2.243.986 3.992 2.793 6.375 3.678l.003.002Zm-3.726 11.285c1.71-3.177 2.724-6.307.423-9.599 1.886-.064 3.846-.342 5.828-.222.319.02.61.04.859.249.83.697 1.714 1.379 2.166 2.383.724 1.61 1.37 3.26 2 4.91.27.704.056.953-.703.979-.45.015-.867.155-1.247.348-1.851.934-3.813 1.324-5.87 1.289a22.38 22.38 0 0 1-3.456-.337ZM81.614 43.37c1.112-.735 1.991-1.631 3.168-1.804 2.575-.378 5.177-.498 7.764-.015 1.209.226 2.278.624 2.958 1.834.599 1.068 1.305 2.102 2.213 2.96.292.278.313.624.222 1.002-.356.005-.534-.302-.823-.407-1.501-.542-2.955-1.19-4.298-2.07-.625-.41-1.303-.718-2.053-.85-1.83-.322-3.682-.369-5.53-.471-1.145-.062-2.293-.118-3.618-.185l-.003.006Zm8.073 1.719c.944.102 1.747.342 2.456.817.92.615 1.91 1.09 2.914 1.54.654.293 1.314.568 1.971.855.628.272.54.662.16 1.084-.309.345-.662.655-.942 1.022-1.597 2.076-3.732 3.042-6.375 3.115 2.164-2.828 1.805-5.59-.186-8.433h.002ZM77.87 109.349c-.081-.208-.175-.343-.187-.483-.081-1.104-.05-2.22-.481-3.274-.123-.299.131-.313.344-.349.827-.14 1.571-.486 2.249-.969 1.512-1.072 3.025-2.146 4.44-3.344.652-.55 1.394-.864 2.27-.805.33.023.543.076.265.436-.473.609-.823 1.312-1.39 1.854-2.435 2.331-4.742 4.799-7.51 6.934Zm2.494 3.036c-.695-.392-1.218-1.027-1.775-1.625-.237-.254-.088-.395.117-.553 1.535-1.186 2.94-2.521 4.324-3.88 1.746-1.716 3.644-3.294 4.917-5.435.248-.416.532-.398.9-.258.39.15.572.413.502.838-.082.501-.324.934-.62 1.32-.501.656-1.115 1.236-1.55 1.93-.531.849-1.305 1.286-2.172 1.646-.307.129-.628.225-.894.448-1.775 1.487-3.04 3.321-3.755 5.569h.006ZM36.856 45.53c2.906-.568 5.689-.832 8.597-1.043-1.127 1.254-2.12 2.42-2.357 4.091-1.716-1.757-4.146-1.86-6.24-3.048ZM54.3 50.42c-1.46 0-2.222-1.04-1.725-2.258.283-.7 1.687-1.464 2.435-1.323 1.48.275 1.968 1.397 1.185 2.665-.464.752-1.13.995-1.895.916Zm24.338-3.877c-.82 2.167-1.582 4.185-.882 6.404.091.287-.128.252-.33.194-.613-.173-1.235-.32-1.848-.492-.435-.123-.68-.31-.587-.879a4.66 4.66 0 0 1 .596-1.646c.774-1.329 1.857-2.392 3.051-3.58Zm10.322 2.68c.01 1.068-.45 1.619-1.357 1.63-1.084.012-1.589-.46-1.595-1.484-.005-.884.49-1.62 1.078-1.61 1.372.026 1.866.41 1.874 1.463Zm-40.955-2.074c-.529-.008-.902-.348-.911-.828-.009-.469.543-1.087.987-1.002.476.09.96.278.925.928-.032.642-.405.896-1.001.9v.002Zm33.726 1.078c-.433-.132-.798-.346-.798-.823 0-.512.19-1.004.795-1.037.493-.026.82.287.858.794.044.594-.4.826-.852 1.066h-.003Zm-33.084 2.187c-.587-.04-.925-.284-.908-.858.018-.612.467-.822.967-.87.493-.043.733.261.733.762 0 .574-.26.905-.792.963v.003ZM81.97 51.73c-.526.024-.765-.278-.774-.75-.009-.48.228-.743.76-.737.484.005.712.19.706.679-.003.477-.166.794-.692.808Z" fill="#0A130A"/><path d="M93.664 58.095c-1.252.299-2.38.015-3.51.067-.443.02-.829-.131-.8-.606.03-.445.424-.615.862-.588.619.035 1.235.079 1.854.108.902.041 1.746-.161 2.482-.7 2.044-1.505 3.311-3.47 3.583-6.272-.444.489-.771.8-1.04 1.154-1.673 2.193-3.927 3.153-6.62 3.52-3.004.41-5.97-.039-8.952-.045a22.403 22.403 0 0 1-6.02-.808c-1.852-.518-2.182-1.575-1.353-3.719.345-.887.92-1.704 1.589-2.372 1.32-1.314 2.362-2.864 3.644-4.199 1.279-1.335 2.92-2.199 4.52-3.086.634-.352 1.366-.214 2.053-.32 2.473-.38 4.931-.166 7.384.252 1.688.287 2.663 1.438 3.51 2.78.336.532.7 1.045 1.162 1.73.225-1.57.08-2.905-.213-4.231-.023-.106-.155-.205-.26-.273-1.121-.761-2.289-1.358-3.69-1.455-2.264-.155-4.515-.419-6.79-.442-3.868-.038-7.075 1.367-9.676 4.216-.07.077-.143.15-.213.226-.27.299-.593.349-.888.094-.31-.27-.251-.598.014-.885 2.354-2.574 5.125-4.348 8.687-4.714 2.663-.273 5.294 0 7.934.258 1.1.108 2.202.155 3.261.53a6.571 6.571 0 0 1 2.45 1.54c.1.1.167.266.427.202-.33-.659-.944-.987-1.452-1.423-2.116-1.816-4.601-2.522-7.343-2.557a38.79 38.79 0 0 0-7.087.56c-.73.126-1.396.512-2.056.864-.336.178-.718.316-.943-.1-.228-.419.015-.72.397-.949 1.148-.688 2.392-1.124 3.712-1.227 1.67-.129 3.328-.41 5.013-.369 1.06.027 2.111.088 3.16.258.172.03.39.123.513-.032.158-.202-.032-.387-.14-.557-1.3-2.07-3.016-3.716-5.037-5.069-1.95-1.305-3.912-2.635-6.137-3.39-3.28-1.116-6.64-1.793-10.165-1.529-2.69.202-5.238.89-7.825 1.772.733.91 1.635 1.648 2.268 2.623 1.367 2.094 2.716 4.19 3.726 6.492.336.765.438 1.529.167 2.322-.082.235-.146.437.04.648.412.46.766.992 1.236 1.379 1.41 1.162 1.866 2.744 2.023 4.454.076.823.044 1.657.041 2.486-.003.823-.216.97-1.106.744.405.966.63 1.93.639 2.937.003.372.04.755-.488.796-.51.038-.578-.298-.613-.697-.163-1.9-.984-3.435-2.304-4.834-2.023-2.147-4.458-3.836-6.415-6.056-1.287-1.461-3.121-2.053-4.885-2.709-.578-.213-1.174-.392-1.74-.63-2.628-1.1-5.37-.681-8.071-.553-1.732.082-3.451.068-5.18.03-3.04-.068-5.895.495-8.144 2.779-1.104 1.121-2.181 2.272-3.279 3.402-.496.513-.505 1.174-.549 1.807-.026.363.22.539.613.489.634-.082 1.075-.404 1.431-.934.894-1.335 1.89-2.574 3.285-3.444 1.2-.75 2.535-1.168 3.872-1.508 4.248-1.083 8.564-1.637 12.941-1.08 1.752.222 3.352 1.05 4.766 2.105 1.65 1.233 3.463 2.129 5.337 2.92 2.719 1.145 4.631 3.021 5.53 5.87.41 1.298 1.145 2.475 1.414 3.825.05.252.304.255.479.337 1.565.72 1.956 2.744.546 3.871-.786.63-1.548 1.294-2.5 1.66-.899.346-1.527 1.016-2.175 1.681-1.402 1.438-2.628 3.048-4.254 4.273a12.23 12.23 0 0 1-4.115 2.05c-1.886.53-3.673 1.338-5.492 2.052-.789.31-1.592.39-2.427.375-.426-.009-.65-.176-.654-.571 0-.337.176-.627.561-.606 1.921.093 3.486-.967 5.189-1.587 1.036-.378 2.12-.624 3.16-.996 2.315-.826 4.14-2.34 5.716-4.193.4-.469.833-.908 1.347-1.465-1.268-.081-2.427-.237-3.586-.213-3.107.064-6.158-.504-9.242-.712-2.023-.137-4.064-.307-6.033-.846-1.953-.533-3.72-1.391-5.168-2.917-1.04-1.095-2.155-2.149-3.451-2.972-.28-.178-.581-.392-.316-.808.24-.375.552-.44.929-.226 1.048.592 1.804 1.532 2.721 2.282.935.76 1.647 1.76 2.766 2.336 1.576.812 3.206 1.353 4.966 1.57 2.713.337 5.45.457 8.153.808 1.679.217 3.337.243 5.01.255.62.006 1.233.076 1.846.155 2.502.322 4.511-.767 6.322-2.334.607-.524.505-1.259-.126-1.692-.24-.167-.385-.173-.587.038-.198.208-.467.372-.753.363-1.504-.035-2.742.805-4.097 1.253-.461.152-.908.126-1.355.214-2.295.457-4.552.023-6.824-.258-2.604-.322-5.002-1.364-7.516-1.997-1.687-.425-3.27-1.1-4.82-1.83-.765-.36-1.4-1.051-2.01-1.672a6.896 6.896 0 0 0-3.17-1.848c-2.109-.565-4-1.62-5.951-2.539-.488-.231-.841.033-1.244.112-1.189.234-2.164-.349-2.234-1.508-.053-.844.026-1.77.625-2.425 1.477-1.622 2.952-3.25 4.581-4.723 1.186-1.072 2.71-1.333 4.144-1.81 1.577-.521 3.212-.384 4.832-.325 1.834.067 3.662-.085 5.493-.152 3.527-.132 7.057-.094 10.59-.053 1 .012 1.998-.047 3-.035 2.014.026 3.582.788 4.896 2.246.204.225.43.72.736.51.274-.188.1-.689-.058-1.008-1.685-3.438-3.493-6.779-6.352-9.447-1.471-1.376-3.106-2.456-4.832-3.44-.383-.217-.8-.381-1.241-.42-3.025-.274-6.044-.746-9.081-.74-2.602.006-5.186.372-7.694 1.165-1.732.548-3.022 1.743-4.348 2.882-.648.56-1.3 1.104-2.026 1.549-.301.185-.666.225-.909-.102-.227-.305-.11-.618.184-.8 1.615-.987 2.856-2.44 4.398-3.517 1.544-1.083 3.331-1.47 5.121-1.836 3.402-.697 6.827-.527 10.25-.202a86.99 86.99 0 0 1 3.988.454c.564.08.485-.267.43-.548a11.84 11.84 0 0 0-.733-2.357c-1.446-3.38-3.916-5.646-7.356-6.858-1.104-.39-2.266-.477-3.42-.6a47.514 47.514 0 0 0-7.72-.193c-2.341.131-4.49.694-6.453 2.029-.87.591-1.86.992-2.578 1.813-1.346 1.537-2.643 3.13-3.469 5.001-.97 2.187-2.716 3.74-4.114 5.581-1.495 1.965-3.373 3.61-4.766 5.628-1.664 2.413-3.273 4.873-4.674 7.468-1.15 2.128-2.167 4.328-3.455 6.386-.759 1.215-1.296 2.568-1.947 3.85-.92 1.813-1.866 3.611-2.769 5.433-.78 1.575-1.576 3.145-2.216 4.788-.195.5-.484.963-.715 1.452-.718 1.52-.978 3.2-1.589 4.75-.91 2.316-1.533 4.711-1.784 7.16-.257 2.512-.797 4.974-1.068 7.484-.184 1.692-.532 3.4-.862 5.09-.219 1.12-.105 2.263-.251 3.396-.345 2.674-.406 5.38-.928 8.041-.4 2.041-.062 4.073.28 6.117.374 2.243 1.206 4.308 2.018 6.384.683 1.748 1.886 3.183 3.185 4.521 1.516 1.558 3.373 2.606 5.303 3.523 2.318 1.101 4.59 2.319 7.075 3.031 1.43.41 2.867.811 4.292 1.244 1.335.407 2.768.48 4.155.729 2.202.396 4.43.524 6.65.727.332.029.67.02 1.004.038 3.03.158 6.064.415 9.098.249 1.484-.082 2.955-.346 4.433-.528.204-.026.406-.061.61-.073 3.968-.249 7.954.021 11.908-.246 2.412-.164 4.838.082 7.235-.328 1.557-.266 3.017-.802 4.439-1.461.347-.161.73-.255 1.083-.357 1.016-.293 1.58-1.016 2.228-1.778 1.002-1.18 1.615-2.38 1.276-3.962-.061-.284.09-.609.108-.916.067-1.242-.187-2.343-.914-3.429-1.095-1.64-2.292-3.157-3.69-4.548-.777-.773-1.356-1.795-1.431-2.943-.129-1.915 1.632-3.897 3.568-4.105 1.422-.155 2.736.035 3.7 1.247.18.229.32.237.466-.008.325-.545.885-.8 1.4-1.066 1.418-.735 2.563-1.793 3.71-2.882 1.253-1.186 2.564-2.298 3.986-3.3a17.03 17.03 0 0 1 3.525-1.892c2.324-.916 3.813-.928 5.568.724.505.474 1.06.899 1.588 1.352.225.194.406.264.64-.02.876-1.078 1.883-2.038 2.45-3.362.473-1.11.628-2.228.52-3.408-.038-.434-.176-.65-.62-.284-1.17.96-2.482 1.648-3.956 2.026-.476.123-.943.281-1.44.249a129.111 129.111 0 0 0-5.098-.22c-1.822-.05-3.656.141-5.478.293-2.756.232-5.516.363-8.272.117-2.397-.213-4.797-.22-7.198-.205a6.562 6.562 0 0 1-2.347-.395c-1.168-.427-2.4-.515-3.63-.67-3.083-.387-6.158-.756-8.982-2.317-1.907-1.054-3.895-1.988-5.907-2.855-1.51-.647-3.002-1.353-4.377-2.284-1.775-1.2-3.872-1.79-5.659-2.966-1.395-.92-2.812-1.836-4.003-3.016-1.565-1.55-1.267-4.035.014-5.494.6-.68 1.475-.69 2.31-.541 2.027.363 4.006.91 5.98 1.505 2.114.638 4.167 1.493 6.357 1.888 1.746.317 3.495.612 5.233.97 2.873.591 5.723 1.306 8.61 1.812 2.632.46 5.297.732 7.952 1.049 4.07.486 8.176.483 12.255.837 2.266.196 4.523.378 6.792.255 2.49-.138 4.999-.103 7.434-.78 1.539-.427 2.847-1.247 3.831-2.485 1.04-1.306 1.997-2.67 2.657-4.24 1.676-3.995.827-5.91-1.63-8.566-.896-.969-.977-.978-1.728.024-1.036 1.388-2.496 1.625-4.05 1.675-.409.014-.82-.056-1.232-.073-.397-.018-.566-.282-.543-.615.023-.355.3-.533.654-.522.671.02 1.337-.008 2.009-.061 1.118-.088 1.945-.565 2.575-1.699l-.006-.023Zm-12.59 1.046c.94 1.06 1.833 2.055 2.71 3.06.744.855 1.535 1.675 1.979 2.75.14.336.166.664-.184.89-.4.257-.683-.033-.823-.314-.672-1.341-1.81-2.305-2.693-3.467-1.515-2-3.44-3.368-5.7-4.34-.277-.12-.53-.316-.761-.515-.179-.152-.293-.36-.144-.618.132-.228.333-.346.576-.32.195.024.385.133.575.206 2.286.896 4.587 1.707 7.101 1.581.596-.03 1.186-.038 1.75-.258.402-.158.802-.155.975.305.18.489-.199.688-.573.846-.116.05-.236.106-.359.129-1.43.255-2.867.228-4.427.059l-.002.006Zm-47.835 5.417c.365 0 .52.006.674 0 .497-.027.929.134.931.676 0 .58-.487.542-.913.536a22.429 22.429 0 0 0-3.452.26c-2.11.311-3.825 1.128-4.92 3.034-.178.31-.42.545-.818.302-.402-.249-.356-.556-.157-.925.633-1.172 1.574-2.024 2.724-2.656 1.919-1.051 4.044-1.08 5.934-1.23l-.003.003Zm-5.648-2.39c-.04-.433.266-.585.57-.743 1.401-.72 2.926-.756 4.447-.797.315-.009.534.138.558.507.026.39-.146.568-.52.612-1.478.172-2.976.225-4.345.943-.43.222-.654-.103-.71-.522Z" fill="#3D8130"/><path d="M75.917 98.084c.64.45 1.323.805 1.828 1.405.952 1.134.978 1.857-.012 2.99a7.915 7.915 0 0 1-1.01.949c-.283.225-.645.275-.89-.047-.237-.308-.164-.63.16-.876.225-.169.458-.336.66-.533.823-.796.797-1.282-.085-2.02-.438-.369-.955-.606-1.454-.87a.712.712 0 0 0-.368-.088c-1.104.07-2.383 1.429-2.424 2.557-.043 1.23.453 1.968 1.744 2.287 1.994.495 3.921.448 5.641-.937 1.162-.937 2.447-1.719 3.554-2.732 1.346-1.233 2.934-1.415 4.625-1.052 1.06.226 2.076.58 2.943 1.289.36.293.485.665.175.911-.75.594-.695 1.584-1.279 2.251.932-.357 1.49-1.162 2.263-1.683.684-.463 1.326-.981 1.977-1.488.321-.252.622-.243.888.053.304.339.126.644-.158.864-2.943 2.287-5.755 4.77-9.291 6.161-.952.375-1.556 1.174-2.152 1.95-.42.553-.718 1.201-1.15 1.745-.634.8-.421 1.546.037 2.284.763 1.224 1.744 2.255 3.02 2.937 1.007.539 2.1.642 3.223.393.29-.065.342-.305.418-.507.73-1.991 2.076-3.593 3.302-5.268.719-.981 1.846-1.473 2.795-2.179.233-.175.487-.146.692.088.195.226.225.466.026.7-.149.176-.298.378-.493.483-1.478.794-2.5 2.021-3.4 3.406-.703 1.083-1.415 2.149-1.886 3.365-.306.787-.21 1.862.383 2.433.473.454 1.153.31 1.734.442.546.123 1.127.097 1.694.138 1.01.073 1.84-.082 2.371-1.148.526-1.048 1.63-1.628 2.383-2.516.949-1.118 1.968-2.175 2.978-3.244.254-.269.575-.644.969-.22.36.387.173.75-.169 1.072-1.65 1.555-2.914 3.485-4.722 4.887-.93.724-.429 1.579-.183 2.387.195.653.776.758 1.36.811 1.253.111 2.228-.255 3.151-1.227 1.302-1.37 2.348-2.94 3.635-4.313.284-.302.558-.606.897-.844.3-.21.549-.111.744.132.193.243.225.489-.026.759-1.203 1.27-2.269 2.658-3.378 4.008-.64.779-1.37 1.596-2.307 2.141-1.317.764-4.03.732-4.8-.433-.13-.194-.298-.352-.325-.601-.076-.662-.335-.796-1.03-.603-1.6.445-3.224.146-4.798-.222-1.069-.252-1.65-1.102-1.845-2.17-.076-.41-.164-.495-.64-.448-1.775.175-3.437-.331-4.672-1.596-1.506-1.543-3.349-2.668-4.85-4.208-1.223-1.254-2.035-2.656-1.956-4.466.032-.773-.278-1.464-.467-2.187-.117-.448-.45-.337-.74-.366-1.532-.161-2.937-.551-3.754-2.047a2.58 2.58 0 0 1-.322-1.104c-.067-1.388-.811-2.208-2.09-2.612-1.513-.478-2.506.462-3.478 1.341-.575.521-.438 1.628.082 2.676.508 1.031 1.317 1.775 2.123 2.536 1.352 1.277 2.096 2.978 3.121 4.486.333.492.342 1.134.353 1.728.02 1.06.038 2.123-.014 3.183-.067 1.374.417 2.583.978 3.781.254.541.838.679 1.29.925 2.24 1.233 4.19 2.899 6.375 4.214 1.609.972 3.373 1.338 5.192 1.581 3.191.425 6.42.299 9.612.577 2.964.255 5.767-.07 8.594-.852 1.223-.337 2.47-.606 3.673-1.008.59-.196 1.124-.579 1.664-.91a92.576 92.576 0 0 0 2.993-1.877c.681-.451.952-1.382.751-2.197-.353-1.429-.961-2.761-1.489-4.125-.66-1.699-1.866-3.066-2.663-4.674-.526-1.057-.958-2.161-1.714-3.092-3.227-3.956-6.293-8.07-11.131-10.287-1.273-.583-2.657-1.16-3.306-2.527-.683-1.444-2.058-2.132-3.118-3.16-1.361-1.324-2.891-.837-4.386-.214-3.031 1.265-5.44 3.388-7.732 5.663-.272.27-.57.513-.902.812l-.012-.003Z" fill="#3D8130"/><path d="M99.761 65.164c-.94 4.012-2.759 7.406-6.19 9.78-1.384.958-3.054 1.016-4.614 1.43-.656.172-1.325.17-1.994.16-2.374-.029-4.736.387-7.113.153-3.048-.299-6.12-.334-9.16-.735a5.463 5.463 0 0 0-.928-.03c-3.163.12-6.246-.55-9.365-.884-2.666-.287-5.282-.811-7.907-1.3-2.172-.404-4.29-1.057-6.474-1.414-2.38-.39-4.768-.765-7.063-1.57-2.739-.96-5.513-1.807-8.36-2.392-.537-.112-1.153-.258-1.585.278-.605.752-.765 1.643-.543 2.553.125.513.39 1.014.843 1.362 2.205 1.692 4.415 3.376 7.087 4.302.43.149.82.43 1.209.682 3.597 2.348 7.67 3.745 11.42 5.78 2.111 1.148 4.412 1.485 6.728 1.854 1.55.249 3.182.096 4.645.67 2.111.826 4.27.56 6.413.569 2.017.008 4.006.363 6.023.325 3.428-.065 6.85-.264 10.267-.557 1.22-.105 2.476.02 3.7.176 2.502.32 4.718-.24 6.756-1.757.92-.682 1.589-1.511 2.208-2.44.394-.59.908-1.1 1.36-1.654.687-.843 1.14-2.316.293-3.502-.196-.272-.246-.36-.555-.114-1.028.814-2.073 1.599-3.01 2.524a4.492 4.492 0 0 1-2.839 1.277c-2.902.22-5.814.41-8.725.454-1.562.023-3.13-.27-4.704-.203-.797.033-1.597.115-2.391.085-4.427-.166-8.848-.43-13.155-1.59-2.558-.688-5.16-.951-7.799-.855-1.606.059-3.165-.225-4.745-.474-3.416-.539-6.532-1.96-9.758-3.057-.996-.34-2.027-.577-3.046-.838-1.53-.386-2.666-1.417-3.872-2.336-.058-.047-.096-.12-.146-.182-.23-.29-.493-.597-.163-.955.297-.319.627-.11.91.065.372.231.754.462 1.078.75 1.054.934 2.295 1.478 3.653 1.733 1.656.313 3.183 1.001 4.76 1.543 2.33.8 4.619 1.672 7.098 2.035 1.588.235 3.154.428 4.75.393 2.696-.059 5.333.34 7.937 1.016 2.097.544 4.22.89 6.39 1.013 1.795.102 3.573.504 5.38.428 1.081-.047 2.159-.103 3.239-.123 1.498-.03 2.975.187 4.465.269 1.65.09 3.293-.17 4.937-.26 1.057-.06 2.111-.103 3.168-.156 1.323-.064 2.439-.55 3.33-1.558.875-.992 2.157-1.531 2.969-2.58 1.25-1.61 2.7-3.048 3.956-4.644.847-1.077 1.142-2.287.327-3.593-.391-.623-.595-1.364-1.092-1.909l-.003.003Z" fill="#983B1F"/><path d="M84.639 26.124c-.605-1.792-1.664-3.075-2.462-4.5-.995-1.781-2.187-3.438-3.39-5.081a7.893 7.893 0 0 0-2.864-2.433c-.71-.358-1.42-.718-2.123-1.084-1.145-.597-2.286-1.142-3.641-1.124-2.033.026-4.059-.364-6.097-.08-1.443.2-2.765.7-3.761 1.796-1.043 1.144-2.36 1.897-3.606 2.752-.368.255-.578.442-.286.917.782 1.27 1.197 2.679 1.38 4.155.053.421.231.691.608.902 1.376.77 2.701 1.607 3.884 2.662.464.413.987.09 1.454-.033 1.194-.307 2.36-.732 3.56-1.019 3.556-.849 7.141-.916 10.713-.128 2.225.491 4.456 1.007 6.625 2.301l.006-.003ZM61.372 42.73c-2.385-.884-4.131-2.69-6.374-3.677-1.553-.683-3.174-.861-4.83-.817-4.155.108-8.263.503-12.17 2.093-1.758.715-2.914 2.068-3.936 3.581-.093.138-.196.317-.026.402.51.254 1.042.802 1.606.503 1.413-.755 2.952-.878 4.473-1.057 3.892-.46 7.793-.793 11.72-.6 2.708.135 5.411.173 8.115-.053.71-.058.713-.026 1.425-.372l-.003-.003Z" fill="#3D8130"/><path d="M57.647 54.016c1.118.196 2.283.32 3.457.337 2.056.032 4.018-.357 5.87-1.289.382-.193.796-.333 1.246-.348.76-.023.972-.275.704-.978-.631-1.652-1.273-3.3-2-4.91-.453-1.005-1.338-1.688-2.167-2.385-.248-.21-.543-.23-.859-.248-1.98-.12-3.942.158-5.828.222 2.298 3.292 1.288 6.422-.423 9.6Z" fill="#fff"/><path d="M71.914 46.98c.078-1.263.125-2.528-.144-3.775-.221-1.037-.762-1.862-1.492-2.65-1.106-1.192-2.359-2.226-3.451-3.426-.876-.96-1.927-1.485-3.241-1.576-1.755-.12-3.507-.008-5.259-.067-.055 0-.117.067-.234.138.482.345.996.471 1.49.638 1.947.659 3.609 1.73 4.928 3.33.728.88 1.688 1.51 2.517 2.28 1.726 1.608 3.493 3.184 4.888 5.108h-.002ZM81.614 43.369c1.328.067 2.473.12 3.617.184 1.849.103 3.7.15 5.53.472.751.132 1.429.439 2.054.849 1.343.881 2.797 1.529 4.298 2.07.289.106.47.41.823.407.09-.377.07-.723-.222-1.001-.908-.858-1.614-1.892-2.213-2.96-.68-1.213-1.749-1.608-2.958-1.834-2.587-.483-5.189-.36-7.764.015-1.174.173-2.053 1.066-3.168 1.804l.003-.006Z" fill="#3D8130"/><path d="M89.687 45.088c1.989 2.846 2.348 5.607.187 8.433 2.643-.073 4.774-1.04 6.375-3.116.283-.366.633-.679.943-1.022.38-.421.467-.808-.16-1.083-.658-.284-1.318-.56-1.972-.855-1.004-.451-1.994-.925-2.914-1.54-.71-.475-1.513-.715-2.456-.817h-.003Z" fill="#fff"/><path d="M77.87 109.349c2.771-2.132 5.078-4.603 7.51-6.934.567-.542.917-1.245 1.39-1.854.278-.357.065-.413-.265-.436-.876-.059-1.621.255-2.27.805-1.418 1.198-2.928 2.273-4.44 3.344-.68.481-1.422.829-2.249.97-.216.035-.467.049-.344.348.432 1.054.403 2.17.481 3.274.012.14.105.275.187.483Z" fill="#3D8130"/><path d="M36.856 45.53c2.094 1.189 4.52 1.294 6.24 3.048.237-1.672 1.23-2.84 2.357-4.09-2.909.21-5.691.474-8.597 1.042Z" fill="#fff"/><path d="M54.3 50.42c.765.08 1.431-.164 1.895-.916.783-1.268.295-2.39-1.185-2.665-.748-.138-2.152.624-2.435 1.324-.497 1.218.265 2.254 1.725 2.257Z" fill="#FEFEFE"/><path d="M78.638 46.543c-1.194 1.192-2.277 2.252-3.051 3.581-.3.519-.5 1.043-.596 1.646-.09.568.152.758.587.879.613.172 1.235.319 1.849.492.201.055.42.093.33-.194-.701-2.22.06-4.237.881-6.404Z" fill="#fff"/><path d="M88.96 49.222c-.008-1.054-.502-1.438-1.874-1.464-.59-.012-1.084.726-1.078 1.61.006 1.026.511 1.497 1.595 1.485.908-.011 1.366-.562 1.357-1.63ZM48.005 47.15c.595-.006.97-.261 1.001-.9.035-.653-.45-.84-.925-.928-.444-.085-.993.533-.987 1.002.009.48.382.817.91.828v-.003ZM81.73 48.227c.453-.24.897-.471.853-1.066-.038-.507-.365-.82-.858-.794-.605.033-.794.528-.794 1.037 0 .477.367.691.797.823h.003ZM48.647 50.414c.535-.058.791-.39.791-.963 0-.5-.239-.805-.732-.761-.5.043-.95.254-.967.87-.017.573.321.816.908.857v-.003ZM81.97 51.73c.523-.015.69-.335.692-.81.003-.488-.222-.673-.707-.678-.531-.006-.767.257-.759.738.009.47.249.77.774.75Z" fill="#FEFEFE"/><path d="M81.073 59.14c1.56.167 2.996.197 4.427-.058.123-.024.243-.08.36-.129.373-.158.753-.357.572-.846-.173-.46-.573-.463-.976-.305-.563.22-1.153.229-1.749.258-2.514.126-4.818-.685-7.101-1.581-.19-.074-.377-.182-.575-.205-.243-.03-.444.09-.576.319-.148.257-.034.465.144.618.233.199.484.395.762.515 2.26.972 4.184 2.34 5.7 4.34.881 1.162 2.017 2.126 2.692 3.467.14.281.423.574.823.313.35-.225.321-.553.184-.89-.44-1.075-1.232-1.898-1.98-2.75-.879-1.007-1.77-2-2.71-3.06l.004-.006ZM33.239 64.558c-1.89.146-4.015.178-5.934 1.23-1.153.63-2.09 1.481-2.724 2.656-.199.369-.245.676.158.925.397.243.642.009.817-.302 1.095-1.906 2.812-2.723 4.92-3.033a22.072 22.072 0 0 1 3.452-.26c.426.002.917.04.914-.537 0-.544-.435-.703-.932-.676-.155.009-.31 0-.674 0l.003-.003ZM27.591 62.168c.056.42.28.744.71.522 1.37-.715 2.867-.77 4.345-.943.374-.044.546-.22.52-.612-.024-.366-.243-.513-.558-.507-1.521.038-3.046.076-4.447.797-.304.155-.61.31-.57.743Z" fill="#0A130A"/></g></g><defs><clipPath id="a"><path fill="#fff" d="M0 0h120v120H0z"/></clipPath></defs></svg>