<?xml version="1.0" encoding="UTF-8"?>
<svg width="120" height="120" fill="none" version="1.1" xmlns="http://www.w3.org/2000/svg"><g clip-path="url(#a)"><mask id="b" x="0" y="0" width="120" height="120" style="mask-type:alpha" maskUnits="userSpaceOnUse"><path d="m60 0c33.133 0 60 26.867 60 60s-26.867 60-60 60-60-26.867-60-60 26.867-60 60-60z" fill="#0847F7"/></mask><g mask="url(#b)"><path d="m60 0c15.968-0.097192 31.82 6.608 42.927 18.072 10.647 10.837 16.928 25.843 17.076 41.043 0.26864 14.951-5.3252 29.917-15.373 40.998-10.274 11.482-25.108 18.78-40.499 19.755-14.813 1.0549-29.962-3.6245-41.536-12.945-12.416-9.8555-20.688-24.795-22.271-40.585-1.6239-15.026 2.6681-30.62 11.878-42.62 9.8271-13 25.135-21.749 41.373-23.378 2.1337-0.22719 4.2796-0.34033 6.4253-0.34015z" fill="#3d8130"/><path d="m69.972 10.909c-3.3969-1.3511-7.1197 0.04094-10.011 1.9334-1.585 0.95887-3.1306 2.0012-4.8321 2.7486-2.6459-3.7815-7.4075-5.3639-11.85-5.5459-3.1809-0.16395-6.3887 0.03363-9.5277 0.54561-4.9502 1.4974-8.4698 5.7744-10.674 10.268-1.2954 2.1511-3.1749 3.8652-4.7003 5.8459-3.5324 4.1665-6.8279 8.6043-9.0846 13.606-5.1063 9.6442-10.941 19.174-13.226 29.982-0.60391 3.0345-0.82253 6.1279-1.4301 9.1621-1.011 6.3835-1.3643 12.846-2.2071 19.251 0.24686 6.616 2.8937 13.529 8.426 17.48 2.122 1.4182 4.5496 2.2795 6.8142 3.4327 9.1163 3.9378 19.225 4.4536 29.022 4.3439 2.6093-0.0335 5.163-0.73259 7.7808-0.68299 6.2895-0.22835 12.681 0.46993 18.872-0.97678 2.2561 0.14391 3.7348-1.8437 5.266-3.1731 0.96074-1.5908 3.1339-0.63315 3.3014 0.95135 1.3424 1.0652 2.8577 1.8925 4.2272 2.9273 3.1915 2.2203 6.8219 4.2813 10.838 4.1457 6.0556 0.35005 12.301 0.98939 18.178-0.94047 1.4728-0.55321 2.9789-0.98521 4.4382-1.5613 1.994-0.87308 3.4468-2.9212 3.2838-5.1433-6e-3 -3.5452-2.0603-6.6071-4.0478-9.3782-1.6968-2.9613-3.6152-5.8189-6.0447-8.2357-2.4987-2.5789-5.5077-4.6177-8.7338-6.169-1.4065-0.86298-1.2778-2.7304-0.35356-3.8997 1.1049-1.8871 2.9078-3.6456 2.7702-5.9991-0.7389-1.2852-0.47645-2.6527 0.70365-3.5338 1.3635-1.9646 2.1259-4.688 0.93096-6.9145 0.96095-1.2734 2.4455-2.131 3.0341-3.6899 1.6117-3.3978 0.0977-7.4025-2.3172-10.004-1.3724-1.5171-3.2117-3.3572-2.6114-5.6021 0.39593-1.7184 2.4868-2.3912 2.4047-4.2636 0.75292-4.1109 0.45451-8.32 1.0176-12.452-1.5483-1.2378-3.3255-2.2143-4.5737-3.7949-2.3495-2.5181-4.3621-5.4511-7.3325-7.3016-4.5048-4.5324-6.1761-11.306-11.419-15.189-1.5291-1.1884-3.554-1.8123-5.2787-2.2697-0.31779 0.04136-0.79727 0.48218-1.0536 0.097665zm1.945 36.07c-3.5127-3.8203-6.9929-7.8554-11.584-10.419-0.81946 0.10419-2.3198-1.1985-0.66936-1.1706 2.2245-0.17223 4.582-0.03782 6.5723 1.0681 2.1193 2.2851 5.0227 4.2298 5.7104 7.4715 0.22056 1.0018 0.21788 2.0547-0.03209 3.0509m21.75 11.115c-1.1502 1.5768-3.2561 1.6561-4.9203 2.3575 1.4688 0.84088 3.353 0.5714 4.6004-0.54438 1.4325-1.4817 3.665-0.86069 4.1113 1.1456 1.3855 2.8261 0.96963 6.2605-0.71775 8.8625-1.989 3.303-5.7508 5.6483-9.6753 5.36-8.7159 0.43567-17.419-0.51871-26.08-1.3773-7.7085-1.0633-15.306-2.7993-22.86-4.6383-2.8599-0.86711-5.7348-2.5464-8.8163-1.9488-1.7969 0.56573-2.731 2.9357-1.6735 4.5371 1.742 3.5379 5.652 5.0203 9.0108 6.5899 1.8307 0.79408 3.5134 1.8782 5.2432 2.8498 5.3437 2.515 10.8 5.478 16.858 5.5453 6.4123 1.0982 12.962 1.3325 19.447 0.90698 2.7374-0.40906 5.4989-0.23668 8.2498-0.12705 2.8387 0.08437 5.9213-0.22574 8.1944-2.0982 1.1287 0.15443 0.28776 2.3289 0.15218 3.2496-0.44916 1.3696-1.2249 2.8233-2.5848 3.4554-1.9421 0.1463-2.9774-2.3325-5.0465-2.1827-3.414-0.34865-6.2767 1.9665-8.6944 4.0768-2.2206 1.965-4.304 4.1496-6.9199 5.6024-1.2798-1.7523-4.0695-2.1182-5.6669-0.58662-1.9838 1.5244-2.5447 5.0493-0.31741 6.6155 1.5919 1.1346 3.002 2.5691 3.711 4.4255 1.3317 2.9297 1.1944 6.9929-1.5862 9.045-2.3413 1.6735-5.2678 2.249-8.0618 2.6633-5.7103 0.65722-11.472 0.029-17.194 0.53705-5.1684 0.37588-10.381 1.0056-15.547 0.26524-9.0115-0.50683-18.248-2.5347-25.758-7.7678-3.9795-2.5691-6.1112-7.171-7.0526-11.677-0.74469-3.5661-0.45672-7.2312 0.056289-10.806 0.90254-7.6808 1.7636-15.381 3.2465-22.976 2.5171-10.939 8.577-20.533 13.673-30.39 1.4783-2.9955 3.168-5.901 5.3477-8.4468 3.2264-3.9971 6.9678-7.677 9.2619-12.334 2.4-4.049 6.7831-7.0029 11.538-7.2347 5.517-1.3171 11.658 0.09688 15.999 3.7548 1.883 1.6999 3.2276 4.2187 2.9288 6.8105-5.8592-0.73211-12.086-1.5283-17.709 0.78588-2.388 1.0289-4.5294 2.696-5.9744 4.8712 2.0164-0.20961 3.5097-1.8484 5.0667-2.9849 2.0713-1.4915 4.7215-1.7573 7.1761-2.1314 4.5367-0.49615 9.152 0.09257 13.501 1.4326 5.0763 2.7802 8.4827 7.8043 10.673 13.035-3.185-2.1378-7.1733-2.4262-10.899-2.508-3.1468 0.11373-6.2821 0.56296-9.4369 0.36554-4.4104-0.06633-9.1281-0.27739-13.126 1.8957-2.3878 1.6454-4.6107 3.9561-5.2563 6.8605-0.16851 1.7929 1.7571 2.4664 3.2264 2.3713 1.8485 0.06958 3.3351 1.2847 4.9663 2.0083 5.0511 2.7065 9.9853 5.9894 15.737 6.9724 5.1472 1.511 10.833 1.1671 15.732-1.0358 1.644 1.2589-0.44932 3.0824-1.853 3.3001-2.2986 0.89204-4.8702 1.1964-7.2609 0.48741-4.7315-0.697-9.666-0.12405-14.255-1.7113-2.211-0.74521-4.2264-2.1008-5.5957-4.0076-0.45246-0.92601-3.4214-2.0545-2.5489-0.13851 1.4711 0.79538 2.4966 2.1612 3.7472 3.2551 3.7551 2.8276 8.6241 3.0656 13.128 3.4231 2.5474 0.29824 5.1082 0.45238 7.6702 0.43146 1.394-0.39501 2.9884 1.1091 1.3128 2.0813-2.5616 2.4619-5.7847 4.1087-9.1712 5.1116-1.7221 0.54153-3.4734 0.98247-5.2151 1.4551 1.5514 1.3805 3.733 0.47212 5.3985-0.17401 2.6627-1.0897 5.0287-2.8023 7.745-3.7727 1.7845-3.5738 6.3106-4.382 8.3939-7.691 1.0058-1.5838 0.02414-3.2668-0.98518-4.5229-1.9359-3.2308-3.384-7.1086-6.8151-9.0805-1.2534-0.87474-2.949-0.68975-3.9999-1.8546-4.2423-3.0849-9.8302-3.7665-14.887-2.7714-2.024 0.12208-4.0611 0.443-5.8668 1.4158-2.7824 1.3756-5.0731 3.5086-7.5682 5.3158 0.62608-3.9771 4.1936-6.8075 7.9145-7.7998 2.9565-0.89161 6.1054-1.0223 9.1564-0.62635 5.8139-0.7529 12.264 0.90114 16.171 5.4796 3.5961 1.8448 5.2658 5.7279 7.5081 8.8613 0.47123 1.0845 0.95754 0.528 0.67085-0.34981 0.08108-3.0252 1.0749-6.3599-0.65561-9.121-1.0716-1.2888-2.5189-2.4726-2.0436-4.332-0.72947-3.4445-3.5856-5.82-5.1227-8.8634-0.80786-1.877 1.5813-1.9361 2.7751-2.2721 9.3738-2.1586 20 1.6591 25.443 9.6863-3.7327 0.61904-7.7286-0.54539-11.283 1.0774-0.88474 0.37461-1.5554 2.4022-0.10116 1.2484 3.7118-1.7266 8.0488-1.5607 11.926-0.51706 1.9501 0.55845 3.9651 1.4797 5.0889 3.2541-6.046-3.3282-13.998-3.644-19.894 0.18476-0.96861 0.60591-1.9166 1.3647-2.3903 2.4347 1.4175 1.0783 2.5661-1.137 3.591-1.8428 3.727-2.3334 8.3895-2.4356 12.605-1.6894 1.4937 0.32457 3.0691 0.55854 4.4454 1.2156 1.1432 0.77288 2.0596 3.8807 0.29701 4.0704-0.96238-1.1998-1.4115-2.8631-3.1775-3.2065-4.3427-1.9894-9.7359-1.3244-13.528 1.5559-2.1559 2.5533-5.0912 4.5563-6.4499 7.7047-0.59368 1.6241 0.49182 3.7871 2.3391 3.79 5.4232 1.0068 11.094 1.3825 16.502 0.09118 1.6626-0.28161 2.7782-1.5747 3.8964-2.7142 0.5208-0.5557 1.5638-0.8384 0.95085 0.22702-0.34059 1.7069-0.9916 3.6594-2.8022 4.2905-1.6727 0.72418-3.6266 0.67678-5.1708 1.7168 0.30362 1.0557 2.3296 0.32162 3.3066 0.49305 0.17397-0.01558 0.34762-0.03473 0.52078-0.05762zm-17.746 39.989c2.6276-3.3435 6.366-6.2653 10.762-6.5068 2.7398-0.05945 5.3112 1.7646 6.3783 4.2466 0.92204 1.3855 2.6988 1.5948 3.9522 2.5689 6.1251 3.9046 10.273 10.139 13.52 16.495 0.82965 1.5408 2.1251 3.1119 1.71 4.9861-0.33236 2.2682-2.5225 3.4847-4.3892 4.3982-2.7143 1.2197-5.677 1.8084-8.6144 2.1638-3.6824 0.0473-7.3729 0.0868-11.051-0.1378-2.7543-0.23437-5.5884-0.61733-8.0951-1.8341-3.1346-1.9261-6.7812-3.6432-8.5246-7.0822-0.77792-1.659-0.74685-3.5851-0.30494-5.3317-0.12738-2.9268-2.7448-4.7242-4.4372-6.8073-1.3053-1.3226-2.0176-3.8146-0.33749-5.1386 1.4691-1.2672 3.6205-0.4305 4.3297 1.227 1.017 1.6094 1.827 3.7581 3.8673 4.2795 2.1609-0.35117 1.127 2.411 2.0749 3.601 1.7267 4.2448 5.6289 7.5556 10.073 8.6214 1.586-0.093 1.9699 1.4551 2.9071 2.3013 2.5776 1.799 6.2183 0.40004 8.6576 2.5456 1.7331 1.0928 3.7673-0.81807 5.1233-1.8887 1.3187-1.2183 2.6384-2.6302 3.0191-4.4448-0.45791-1.5762-1.3898 1.4258-2.2025 1.691-1.5498 1.5683-3.2266 3.2665-5.4594 3.7535-1.9058-0.10265-2.0458-3.1412-0.40946-3.8443 1.3968-1.2374 2.5412-2.742 3.456-4.3639-0.25725-1.285-2.0915 0.97912-2.4474 1.6918-1.5306 2.3576-4.0179 4.199-6.805 4.6978-1.8338 0.23282-3.1172-1.6651-2.8142-3.3464 0.42708-2.5115 2.8283-3.8585 4.3851-5.6402 0.84019-0.48167 1.374-2.6082-0.17328-1.8555-3.0037 1.6226-3.3739 5.6112-6.1408 7.4852-1.9879 0.89009-3.9116-0.82359-5.2136-2.1522-1.3881-1.6203-0.66179-3.9289 0.77705-5.2388 1.9237-2.1857 4.6744-3.2808 7.1631-4.6518 1.486-0.93778 2.7831-2.1725 3.7984-3.6062-0.94406-0.79658-2.2962 1.0004-3.138 1.5577-0.63624 0.80419-1.4288 0.37598-0.69663-0.53409 0.92082-2.0061-1.5278-3.0403-3.1357-2.9761-2.9741-0.28238-5.2477 2.0072-7.5206 3.5533-1.6814 1.2443-3.9028 2.1806-5.9695 1.3231-1.9869-0.52907-2.5571-3.8391-0.2639-4.3531 1.6619-0.79988 4.7183 1.1395 2.6267 2.7488-1.4105 1.5676 1.929 1.1141 1.7325-0.37492 0.50996-1.6273-0.26353-3.7163-2.1703-3.8277zm23.844-32.92c1.5641 1.6639 1.6567 4.3982 0.27422 6.2024-1.8523 2.8819-4.8434 4.7106-7.1448 7.1837-5.9444 2.2592-12.359 0.70447-18.519 1.1652-7.738-0.23438-15.229-2.7899-22.994-2.6849-5.5922-1.1133-11.2-2.556-16.29-5.1733-0.86579-0.94242-2.923-1.4436-1.5582 0.29712 1.3963 1.7673 3.7516 2.2872 5.7865 2.9583 2.6038 0.73056 5.3114 1.2165 7.737 2.4639 6.3479 1.4263 13.013 0.80244 19.269 2.7236 8.3015 1.0455 16.706 0.97945 25.038 0.36216 2.1368-0.66996 3.4897-2.6642 5.5436-3.4922 1.8752 0.72227 0.45351 3.2611-0.3509 4.4042-2.7341 3.9622-7.9726 5.6385-12.604 4.7589-1.883-0.29534-3.762 0.22671-5.6526 0.20832-6.2178 0.27589-12.478 0.14182-18.65-0.68842-5.2628-0.83891-10.673-1.8667-15.239-4.7735-5.1899-2.6518-10.65-4.9795-15.196-8.6915-1.165-1.0309-1.0498-3.1016 0.50508-3.6815 1.6312-0.84032 3.7246-0.45487 5.0952 0.71455 7.9364 2.7373 16.273 3.9716 24.5 5.4861 8.9567 1.1424 17.987 1.8263 27.019 1.7698 3.9907-0.20454 8.3261-1.5382 10.696-4.9747 1.2886-1.9955 2.1945-4.2284 2.7355-6.5383zm-15.122-39.04c-6.3252-3.483-14.055-3.423-20.817-1.3209-1.6931 0.86697-3.1672-0.67898-4.3749-1.6642-1.8478-1.7744-3.4376-4.5922-2.2594-7.1522 0.92641-1.7664 3.0159-2.2544 4.6075-3.215 5.259-2.4105 11.723-0.9039 16.004 2.7842 1.9168 1.855 3.2103 4.2319 4.6657 6.4406 0.80488 1.3313 1.5454 2.7035 2.1734 4.1275zm-23.267 16.607c-7.0336 1.3292-14.266-0.46215-21.281 1.0865-1.8048 0.33606-3.6343 0.93726-5.487 0.61106-0.85942-1.4479 1.2052-2.561 2.176-3.3129 4.7056-2.856 10.419-2.9063 15.75-2.747 3.4194 0.2999 5.7606 3.2052 8.8424 4.3623zm-3.726 11.285c2.013-1.958 1.6478-5.0209 1.2898-7.5438-0.73524-1.4989 0.36598-2.913 1.9979-2.5788 3.1305-0.2498 5.9515 2.0025 7.0866 4.8125 0.5304 1.1907 0.83668 2.4766 0.93603 3.7749-3.5748 1.3265-7.493 2.6393-11.31 1.5352zm23.967-10.646c3.6954-2.619 9.0182-3.2336 12.949-0.78228 1.401 0.97522 2.3604 2.4649 2.9814 4.032-1.2677 0.89799-2.5165-0.92403-3.7577-1.2302-1.5953-0.90615-3.3373-1.8059-5.2297-1.626-2.3086-0.22027-4.629-0.25782-6.9429-0.39356zm8.073 1.719c2.4452 0.8955 5.2086 1.5073 7.0201 3.5179 0.97881 1.7911-1.2612 3.0906-2.6115 3.7533-1.0255 0.84063-4.3726 1.9139-3.6287-0.48533 1.1941-1.5225 1.0275-3.5549 0.16046-5.1939-0.26527-0.55729-0.58568-1.0872-0.94032-1.5919zm-11.817 64.26c-1.1035-1.7396-0.43756-4.1614 1.3256-5.1854 2.2329-1.7007 5.043-2.3922 7.3094-4.0386-0.89537 2.9206-3.5732 4.7109-5.721 6.6758-0.98651 0.8317-1.977 1.6603-2.914 2.5482zm2.494 3.036c-1.7228-0.98469-1.14-3.4166 0.363-4.3084 2.0322-1.8801 4.616-3.1647 6.2787-5.4337-0.22143-1.4086 2.9726-1.961 1.6863-0.18787-1.1653 1.964-2.7748 3.6478-4.6214 4.9835-2.0565 0.73107-3.0284 3.0492-3.7065 4.9465zm-43.508-66.855c2.5148-0.13934 4.9415-1.1718 7.4839-0.91751 1.3096 1.0766-0.82059 3.0553-1.7824 3.3711-2.0915-0.33727-3.5935-2.166-5.7015-2.4536zm17.444 4.89c-2.0872-0.0058-2.3081-2.8718-0.23115-3.1562 1.9326-0.96402 3.2815 1.4296 1.6994 2.7015-0.40196 0.34756-0.95193 0.45185-1.4683 0.45475zm24.338-3.877c-1.2567 1.8601-0.56828 4.2383-1.317 6.2583-1.7743 0.95119-3.0585-1.9105-1.5193-3.0301 0.7627-1.2245 1.8419-2.199 2.8364-3.2281zm10.322 2.68c-0.05499 2.0326-2.8608 1.9357-2.6918-0.15982-0.086991-1.9198 2.7275-1.4051 2.6918 0.15982zm-40.955-2.074c-1.8105-0.49355-0.02514-2.714 0.95321-1.2006 0.21629 0.59395-0.54675 0.95916-0.95321 1.2006zm33.726 1.078c-1.4838-0.39621-0.67062-2.6447 0.69575-1.5763 0.6541 0.51122-0.19116 1.3546-0.69575 1.5763zm-33.084 2.187c-1.8827-0.24906-0.14593-2.725 0.89384-1.3215 0.05529 0.57042-0.515 0.98666-0.89384 1.3215zm33.323 1.316c-1.9078-0.39916 0.37465-2.5745 0.74281-0.81036-0.12561 0.35732-0.44401 0.60132-0.74281 0.81036z" fill="#0a130a"/><path d="m99.761 65.164c-0.77881 3.4653-2.4595 6.8412-5.2738 9.0926-0.94739 0.82847-2.089 1.4213-3.3321 1.6465-1.0264 0.17662-2.0292 0.48229-3.0623 0.61292-1.5772 0.01079-3.1538 0.05061-4.7272 0.17389-1.6017 0.12514-3.2088 0.06467-4.8036-0.11523-2.7237-0.19753-5.4557-0.31159-8.1676-0.6414-1.8702 0.03644-3.742-0.05275-5.5953-0.31631-2.1856-0.32027-4.381-0.56334-6.5693-0.86112-3.2214-0.51574-6.4365-1.0949-9.6016-1.8917-2.9101-0.72037-5.9293-0.92701-8.7994-1.8237-3.2182-1.0908-6.4553-2.1799-9.8082-2.7806-1.148-0.11889-1.6492 1.2594-1.652 2.1976-0.02175 0.99063 0.52119 1.9281 1.3706 2.4281 2.1125 1.6357 4.3405 3.1983 6.8903 4.0697 0.93713 0.50878 1.7981 1.1549 2.7465 1.6498 3.3046 1.8364 6.8621 3.164 10.176 4.9833 2.1821 1.023 4.6019 1.353 6.9658 1.6798 1.4599 0.11226 2.9649 0.13268 4.328 0.73613 2.6011 0.81349 5.3457 0.19197 8.0074 0.50736 1.9627 0.19872 3.9355 0.28957 5.9067 0.17534 3.0263-0.08618 6.0449-0.3318 9.0633-0.54489 2.0156-0.06649 4.0261 0.59604 6.0304 0.13538 2.4253-0.46736 4.5966-2.0044 5.8975-4.0974 0.73624-1.1211 2.0203-1.9826 2.1126-3.4333 0.05165-0.61402-0.145-2.1816-0.9984-1.8784-1.1395 0.92469-2.3095 1.8219-3.3541 2.8578-1.125 0.94514-2.6501 1.0032-4.0452 1.077-2.7493 0.17626-5.5051 0.38687-8.2613 0.31352-1.6151-0.11877-3.2357-0.27655-4.8539-0.10718-2.0759 0.04597-4.1515-0.11927-6.2219-0.2611-3.0089-0.22898-6.0006-0.70909-8.9094-1.5186-2.5095-0.60152-5.1039-0.73672-7.675-0.64426-1.9667-0.081133-3.9183-0.4197-5.838-0.84068-3.6195-0.86775-6.9618-2.6128-10.596-3.4266-1.6832-0.3158-3.0396-1.4357-4.3265-2.4888-0.71656-0.40438-0.34202-1.6903 0.501-1.1056 1.073 0.57481 1.8785 1.5548 3.03 1.9992 1.3245 0.59933 2.8109 0.66009 4.1524 1.2166 2.8642 1.0177 5.7047 2.1651 8.6912 2.7814 2.1669 0.3981 4.3713 0.60455 6.5751 0.53463 2.7459 0.03096 5.4454 0.60414 8.0918 1.2924 2.058 0.48137 4.1658 0.68225 6.27 0.82374 1.8086 0.21938 3.6284 0.46707 5.4532 0.29608 1.8956-0.13122 3.7968-0.08122 5.6848 0.12774 2.5119 0.27257 5.012-0.24089 7.5222-0.27903 1.3462-0.05279 2.8082-0.01378 3.9555-0.84078 0.787-0.5321 1.3156-1.3603 2.1326-1.8607 0.83985-0.56549 1.5971-1.2454 2.1821-2.0755 1.2487-1.54 2.6886-2.9253 3.8341-4.5474 0.61565-0.9293 0.63686-2.1948-5.5e-4 -3.12-0.39648-0.6187-0.58867-1.3627-1.0982-1.9082z" fill="#983b1f"/><g fill="#fff"><path d="m57.647 54.016c2.9903 0.53206 6.2061 0.54786 8.998-0.7929 0.68643-0.52057 1.6248-0.35114 2.3167-0.74782 0.15933-0.95021-0.58929-1.8461-0.82264-2.7603-0.51342-1.1839-0.90361-2.44-1.5928-3.5368-0.53833-0.72591-1.2471-1.3105-1.9633-1.8503-0.90385-0.25758-1.8724-0.14256-2.8041-0.13676-1.2376 0.05417-2.4707 0.18294-3.7089 0.2258 1.1606 1.584 1.6159 3.6535 1.176 5.5724-0.29567 1.4228-0.91503 2.7534-1.599 4.0267z"/><path d="m89.687 45.088c1.2162 1.6968 2.0624 3.8755 1.4587 5.9666-0.24517 0.9003-0.70647 1.7288-1.2717 2.4664 2.2082-0.01956 4.4439-0.88118 5.9139-2.5647 0.47104-0.80339 1.5419-1.3079 1.6892-2.2482-0.53556-0.6973-1.5831-0.77507-2.3235-1.2208-1.1928-0.50975-2.334-1.1299-3.4247-1.8294-0.6321-0.32996-1.3365-0.49581-2.042-0.56996z"/><path d="m36.856 45.53c2.0094 1.1508 4.5687 1.3219 6.24 3.048 0.20702-1.6203 1.2911-2.9278 2.357-4.09-2.8802 0.20561-5.761 0.4841-8.597 1.042z"/></g><path d="m54.3 50.42c0.92769 0.16264 1.8076-0.47484 2.1097-1.3333 0.3631-0.7207 0.08322-1.687-0.68013-2.0117-1.0303-0.59061-2.2907 0.0097-3 0.82516-0.55846 0.73418-0.33766 1.9565 0.55998 2.3123 0.31418 0.14838 0.66483 0.20668 1.0104 0.20758z" fill="#fefefe"/><path d="m78.638 46.543c-1.3481 1.3732-2.8561 2.7387-3.5035 4.6043-0.36414 0.69428-0.11862 1.5977 0.77664 1.5928 0.60966 0.07582 1.3082 0.51422 1.864 0.35185-0.39267-1.3024-0.37667-2.7075 5.69e-4 -4.0147 0.22752-0.86392 0.54678-1.6996 0.86231-2.5342z" fill="#fff"/><path d="m88.96 49.222c0.14347-1.0492-0.94655-1.5525-1.8382-1.464-0.98918 0.0614-1.2597 1.3585-1.0495 2.1573 0.21276 0.9639 1.4739 1.1269 2.2422 0.77589 0.52331-0.28286 0.65635-0.92289 0.64557-1.4692zm-40.955-2.072c0.80691 0.13197 1.3205-0.92552 0.80405-1.5074-0.62822-0.70995-1.8341-0.09916-1.7042 0.81288 0.06478 0.42932 0.48418 0.70541 0.90014 0.69456zm33.725 1.077c0.84617-0.17438 1.2364-1.4687 0.32011-1.8212-0.85299-0.33146-1.4538 0.86635-0.94046 1.4824 0.16298 0.17621 0.3958 0.26934 0.62035 0.3388zm-33.083 2.187c0.8293 0.0044 1.0929-1.2963 0.41998-1.6804-0.70518-0.25568-1.5848 0.39194-1.2874 1.1657 0.11142 0.37025 0.51797 0.50545 0.86744 0.5147zm33.323 1.316c0.74561 0.07062 0.95872-1.1428 0.35022-1.4331-0.71756-0.34292-1.4384 0.43431-1.0244 1.1154 0.12943 0.242 0.41344 0.3376 0.67415 0.31769z" fill="#fefefe"/><path d="m81.073 59.14c1.5562 0.14505 3.1722 0.25881 4.6952-0.14963 0.99124-0.04114 0.81756-1.5976-0.16027-1.2384-1.1201 0.39901-2.3436 0.3456-3.5133 0.26632-2.0828-0.20735-4.0524-0.96854-5.9819-1.7343-0.94936-0.1342-0.83326 1.121-0.04305 1.2835 1.3736 0.63776 2.7383 1.3386 3.9033 2.3227 1.3596 1.0559 2.2818 2.5301 3.4505 3.7714 0.58334 0.63656 1.0611 1.3603 1.4855 2.1061 0.74796 0.63716 1.2881-0.67524 0.67831-1.1888-0.77442-1.4209-1.9998-2.5154-3.0221-3.7509-0.4943-0.56292-1.0124-1.1251-1.4923-1.6881zm-47.834 5.418c-2.2918 0.14034-4.7466 0.28982-6.6739 1.6863-0.89474 0.63772-1.6975 1.4781-2.1124 2.5074-0.13415 0.8964 1.1495 0.87443 1.2614 0.05434 0.99588-1.6504 2.8722-2.5318 4.7306-2.7698 1.2791-0.17014 2.5682-0.30692 3.8598-0.26508 0.96594-0.03366 0.46614-1.5036-0.37316-1.2127-0.231 0.0099-0.46139 0.0099-0.69229-4.84e-4zm-5.648-2.39c0.04568 0.94147 0.96982 0.43222 1.459 0.19584 1.2283-0.45269 2.5549-0.45217 3.8288-0.67002 0.81254-0.59718-0.17552-1.3581-0.87676-1.0491-1.4378 0.04547-2.9618 0.18829-4.1956 0.9945-0.16168 0.1241-0.24345 0.32666-0.21544 0.52878z" fill="#0a130a"/></g></g><defs><clipPath id="a"><path d="M0 0h120v120H0z" fill="#fff"/></clipPath></defs></svg>
