<svg width="146" height="146" viewBox="0 0 146 146" fill="none" xmlns="http://www.w3.org/2000/svg">
<rect width="146" height="146" rx="73" fill="#3B00B9"/>
<path fill-rule="evenodd" clip-rule="evenodd" d="M16.3837 77.2052C18.434 105.206 40.794 127.566 68.7949 129.616V135.94C37.3087 133.867 12.133 108.691 10.0605 77.2052H16.3837Z" fill="url(#paint0_linear_110_604)"/>
<path fill-rule="evenodd" clip-rule="evenodd" d="M68.7646 16.3534C40.7638 18.4036 18.4037 40.7637 16.3535 68.7646L10.0303 68.7646C12.1027 37.2784 37.2785 12.1026 68.7646 10.0302L68.7646 16.3534Z" fill="#29ABE2"/>
<path fill-rule="evenodd" clip-rule="evenodd" d="M129.616 68.7343C127.566 40.7334 105.206 18.3733 77.2051 16.3231L77.2051 9.99998C108.691 12.0724 133.867 37.2481 135.939 68.7343L129.616 68.7343Z" fill="url(#paint1_linear_110_604)"/>
<path fill-rule="evenodd" clip-rule="evenodd" d="M77.2354 129.586C105.236 127.536 127.596 105.176 129.647 77.1749L135.97 77.1749C133.897 108.661 108.722 133.837 77.2354 135.909L77.2354 129.586Z" fill="#29ABE2"/>
<path d="M89.2253 82.3397C89.2253 73.7375 84.0628 70.7875 73.7378 69.5544C66.3628 68.5691 64.8878 66.6044 64.8878 63.1647C64.8878 59.725 67.3481 57.5125 72.2628 57.5125C76.6878 57.5125 79.1481 58.9875 80.3753 62.675C80.6231 63.4125 81.3606 63.9022 82.0981 63.9022H86.0334C87.0187 63.9022 87.7562 63.1647 87.7562 62.1794V61.9316C86.7709 56.5213 82.3459 52.3441 76.6937 51.8544V45.9544C76.6937 44.9691 75.9562 44.2316 74.729 43.9897H71.0415C70.0562 43.9897 69.3187 44.7272 69.0768 45.9544V51.6066C61.7018 52.5919 57.029 57.5066 57.029 63.6544C57.029 71.7669 61.9437 74.9647 72.2687 76.1919C79.154 77.4191 81.3665 78.8941 81.3665 82.8294C81.3665 86.7647 77.9268 89.4669 73.254 89.4669C66.8643 89.4669 64.6518 86.7647 63.9143 83.0772C63.6665 82.0919 62.929 81.6022 62.1915 81.6022H58.0143C57.029 81.6022 56.2915 82.3397 56.2915 83.325V83.5728C57.2768 89.7206 61.2062 94.1456 69.3187 95.3728V101.273C69.3187 102.258 70.0562 102.996 71.2834 103.237H74.9709C75.9562 103.237 76.6937 102.5 76.9356 101.273V95.3728C84.3047 94.1397 89.2253 88.9772 89.2253 82.3397Z" fill="white"/>
<path d="M60.4626 108.152C41.2876 101.267 31.4523 79.8794 38.5854 60.9522C42.2729 50.6272 50.3854 42.7625 60.4626 39.075C61.4478 38.5853 61.9375 37.8478 61.9375 36.6147V33.175C61.9375 32.1897 61.4478 31.4522 60.4626 31.2103C60.2148 31.2103 59.7251 31.2103 59.4773 31.4581C36.1251 38.8331 23.3398 63.6603 30.7148 87.0184C35.1398 100.783 45.7126 111.356 59.4773 115.781C60.4626 116.271 61.442 115.781 61.6898 114.796C61.9376 114.548 61.9375 114.306 61.9375 113.81V110.371C61.9375 109.627 61.2001 108.648 60.4626 108.152ZM86.5169 31.4522C85.5316 30.9625 84.5522 31.4522 84.3044 32.4375C84.0566 32.6853 84.0566 32.9272 84.0566 33.4228V36.8625C84.0566 37.8478 84.7942 38.8272 85.5317 39.3228C104.707 46.2081 114.542 67.5956 107.409 86.5228C103.721 96.8478 95.6088 104.713 85.5317 108.4C84.5463 108.89 84.0566 109.627 84.0566 110.86V114.3C84.0566 115.285 84.5463 116.023 85.5317 116.265C85.7794 116.265 86.2691 116.265 86.5169 116.017C109.869 108.642 122.654 83.8147 115.279 60.4566C110.854 46.45 100.04 35.8772 86.5169 31.4522Z" fill="white"/>
<defs>
<linearGradient id="paint0_linear_110_604" x1="53.4736" y1="122.79" x2="14.0362" y2="89.5786" gradientUnits="userSpaceOnUse">
<stop offset="0.21" stop-color="#ED1E79"/>
<stop offset="1" stop-color="#522785"/>
</linearGradient>
<linearGradient id="paint1_linear_110_604" x1="120.65" y1="55.6021" x2="81.213" y2="22.3914" gradientUnits="userSpaceOnUse">
<stop offset="0.21" stop-color="#F15A24"/>
<stop offset="0.6841" stop-color="#FBB03B"/>
</linearGradient>
</defs>
</svg>
