<svg width="360" height="360" viewBox="0 0 360 360" fill="none" xmlns="http://www.w3.org/2000/svg">
<g clip-path="url(#clip0_876_71)">
<path d="M180 0C279.4 0 360 80.6 360 180C360 279.4 279.4 360 180 360C80.6 360 0 279.4 0 180C0 80.6 80.6 0 180 0Z" fill="#3B00B9"/>
<path fill-rule="evenodd" clip-rule="evenodd" d="M40.4001 190.402C45.4001 259.402 100.6 314.602 169.6 319.602V335.202C92.0001 330.002 30 268.002 24.8 190.402H40.4001Z" fill="url(#paint0_linear_876_71)"/>
<path fill-rule="evenodd" clip-rule="evenodd" d="M169.6 40.4008C100.6 45.4008 45.4001 100.601 40.4001 169.601H24.8C29.8 92.0008 92.0001 29.8008 169.6 24.8008V40.4008Z" fill="#29ABE2"/>
<path fill-rule="evenodd" clip-rule="evenodd" d="M319.6 169.402C314.6 100.402 259.4 45.2016 190.4 40.2016V24.6016C268 29.8016 330.2 91.8016 335.2 169.402H319.6Z" fill="url(#paint1_linear_876_71)"/>
<path fill-rule="evenodd" clip-rule="evenodd" d="M190.4 319.602C259.4 314.602 314.6 259.402 319.6 190.402H335.2C330.2 268.002 268 330.002 190.4 335.202V319.602Z" fill="#29ABE2"/>
<path fill-rule="evenodd" clip-rule="evenodd" d="M195.801 185.407C194.914 185.474 190.334 185.748 180.119 185.748C171.993 185.748 166.224 185.504 164.2 185.407C132.799 184.023 109.361 178.545 109.361 171.987C109.361 165.428 132.799 159.958 164.2 158.551V179.952C166.254 180.1 172.133 180.448 180.259 180.448C190.009 180.448 194.892 180.041 195.771 179.959V158.566C227.105 159.965 250.492 165.443 250.492 171.987C250.492 178.531 227.113 184.008 195.771 185.4L195.801 185.407ZM195.801 156.353V137.203H239.53V108H120.471V137.203H164.193V156.345C128.655 157.981 101.93 165.036 101.93 173.49C101.93 181.943 128.655 188.99 164.193 190.634V252H195.793V190.611C231.249 188.975 257.93 181.928 257.93 173.482C257.93 165.036 231.272 157.989 195.793 156.345L195.801 156.353Z" fill="white"/>
</g>
<defs>
<linearGradient id="paint0_linear_876_71" x1="130.72" y1="304.122" x2="33.48" y2="222.222" gradientUnits="userSpaceOnUse">
<stop offset="0.21" stop-color="#ED1E79"/>
<stop offset="1" stop-color="#522785"/>
</linearGradient>
<linearGradient id="paint1_linear_876_71" x1="309.32" y1="123.062" x2="212.08" y2="41.1615" gradientUnits="userSpaceOnUse">
<stop offset="0.21" stop-color="#F15A24"/>
<stop offset="0.68" stop-color="#FBB03B"/>
</linearGradient>
<clipPath id="clip0_876_71">
<rect width="360" height="360" fill="white"/>
</clipPath>
</defs>
</svg>
