<svg width="360" height="360" viewBox="0 0 360 360" fill="none" xmlns="http://www.w3.org/2000/svg">
<g clip-path="url(#clip0_980_131)">
<path d="M180 0C279.4 0 360 80.6 360 180C360 279.4 279.4 360 180 360C80.6 360 0 279.4 0 180C0 80.6 80.6 0 180 0Z" fill="#3B00B9"/>
<path fill-rule="evenodd" clip-rule="evenodd" d="M40.4001 190.402C45.4001 259.402 100.6 314.602 169.6 319.602V335.202C92.0001 330.002 30 268.002 24.8 190.402H40.4001Z" fill="url(#paint0_linear_980_131)"/>
<path fill-rule="evenodd" clip-rule="evenodd" d="M169.6 40.4008C100.6 45.4008 45.4001 100.601 40.4001 169.601H24.8C29.8 92.0008 92.0001 29.8008 169.6 24.8008V40.4008Z" fill="#29ABE2"/>
<path fill-rule="evenodd" clip-rule="evenodd" d="M319.6 169.402C314.6 100.402 259.4 45.2016 190.4 40.2016V24.6016C268 29.8016 330.2 91.8016 335.2 169.402H319.6Z" fill="url(#paint1_linear_980_131)"/>
<path fill-rule="evenodd" clip-rule="evenodd" d="M190.4 319.602C259.4 314.602 314.6 259.402 319.6 190.402H335.2C330.2 268.002 268 330.002 190.4 335.202V319.602Z" fill="#29ABE2"/>
<path fill-rule="evenodd" clip-rule="evenodd" d="M180.19 191.079C206.846 191.079 229.123 186.572 234.568 180.55C229.945 175.443 213.224 171.421 191.989 170.32V183.042C188.188 183.24 184.235 183.336 180.186 183.336C176.137 183.336 172.184 183.24 168.375 183.042V170.32C147.148 171.421 130.419 175.443 125.797 180.55C131.249 186.572 153.53 191.079 180.186 191.079H180.19ZM227.55 131.198V148.717H191.989V160.865C216.968 162.163 235.711 167.503 235.85 173.893V187.215C235.711 193.605 216.968 198.933 191.989 200.235V230.05H168.379V200.235C143.401 198.937 124.665 193.605 124.526 187.215V173.893C124.665 167.503 143.401 162.163 168.379 160.865V148.717H132.818V131.198H227.554H227.55ZM118.833 103.318H243.67C246.654 103.318 249.401 104.887 250.889 107.437L287.256 169.886C289.139 173.126 288.581 177.214 285.892 179.837L185.785 277.557C182.538 280.723 177.322 280.723 174.083 277.557L74.1002 179.969C71.3528 177.28 70.8336 173.075 72.8602 169.82L111.738 107.243C113.253 104.81 115.942 103.321 118.837 103.321L118.833 103.318Z" fill="url(#paint2_linear_980_131)"/>
</g>
<defs>
<linearGradient id="paint0_linear_980_131" x1="130.72" y1="304.122" x2="33.48" y2="222.222" gradientUnits="userSpaceOnUse">
<stop offset="0.21" stop-color="#ED1E79"/>
<stop offset="1" stop-color="#522785"/>
</linearGradient>
<linearGradient id="paint1_linear_980_131" x1="309.32" y1="123.062" x2="212.08" y2="41.1615" gradientUnits="userSpaceOnUse">
<stop offset="0.21" stop-color="#F15A24"/>
<stop offset="0.68" stop-color="#FBB03B"/>
</linearGradient>
<linearGradient id="paint2_linear_980_131" x1="323" y1="339.5" x2="217.369" y2="155.542" gradientUnits="userSpaceOnUse">
<stop stop-color="#F15A24"/>
<stop offset="1" stop-color="#FBB03B"/>
</linearGradient>
<clipPath id="clip0_980_131">
<rect width="360" height="360" fill="white"/>
</clipPath>
</defs>
</svg>
