<svg width="500" height="500" viewBox="0 0 500 500" fill="none" xmlns="http://www.w3.org/2000/svg">
<rect width="500" height="500" rx="250" fill="white"/>
<path d="M174.901 188.553C173.396 204.608 172.34 233.021 181.82 245.115C181.82 245.115 177.357 213.903 217.363 174.742C233.47 158.978 237.194 137.536 231.569 121.454C228.374 112.344 222.538 104.818 217.468 99.5636C214.511 96.4741 216.782 91.3777 221.086 91.5625C247.122 92.7244 289.32 99.9597 307.249 144.956C315.118 164.708 315.699 185.12 311.95 205.875C309.573 219.131 301.123 248.6 320.4 252.218C334.157 254.806 340.812 243.874 343.796 236.005C345.037 232.73 349.341 231.912 351.665 234.526C374.902 260.959 376.883 292.092 372.077 318.894C362.782 370.703 310.313 408.411 258.187 408.411C193.069 408.411 141.233 371.152 127.793 303.71C122.379 276.485 125.126 222.617 167.111 184.592C170.227 181.74 175.324 184.275 174.901 188.553Z" fill="url(#paint0_radial_819_2478)"/>
<path d="M281.979 285.437C257.976 254.542 268.723 219.289 274.611 205.241C275.404 203.393 273.291 201.65 271.628 202.786C261.303 209.81 240.151 226.34 230.302 249.604C216.967 281.054 217.917 296.449 225.813 315.25C230.566 326.578 225.047 328.981 222.274 329.404C219.581 329.826 217.099 328.03 215.118 326.156C209.422 320.685 205.362 313.736 203.394 306.087C202.971 304.45 200.832 304.001 199.855 305.347C192.462 315.567 188.633 331.965 188.448 343.557C187.867 379.391 217.468 408.437 253.275 408.437C298.403 408.437 331.279 358.53 305.348 316.808C297.823 304.661 290.746 296.713 281.979 285.437Z" fill="url(#paint1_radial_819_2478)"/>
<defs>
<radialGradient id="paint0_radial_819_2478" cx="0" cy="0" r="1" gradientUnits="userSpaceOnUse" gradientTransform="translate(245.289 409.232) rotate(-179.751) scale(186.396 305.838)">
<stop offset="0.305" stop-color="#FFCA43"/>
<stop offset="0.68" stop-color="#FE5129"/>
<stop offset="0.972" stop-color="#FC2D2D"/>
</radialGradient>
<radialGradient id="paint1_radial_819_2478" cx="0" cy="0" r="1" gradientUnits="userSpaceOnUse" gradientTransform="translate(255.757 223.748) rotate(90.5787) scale(195.027 146.773)">
<stop offset="0.214" stop-color="#FFF176"/>
<stop offset="0.328" stop-color="#FFF27D"/>
<stop offset="0.487" stop-color="#FFF48F"/>
<stop offset="0.672" stop-color="#FFF7AD"/>
<stop offset="0.793" stop-color="#FFF9C4"/>
<stop offset="0.822" stop-color="#FFF8BD" stop-opacity="0.804"/>
<stop offset="0.863" stop-color="#FFF6AB" stop-opacity="0.529"/>
<stop offset="0.91" stop-color="#FFF38D" stop-opacity="0.209"/>
<stop offset="0.941" stop-color="#FFF176" stop-opacity="0"/>
</radialGradient>
</defs>
</svg>
