<svg width="24" height="24" fill="none" xmlns="http://www.w3.org/2000/svg"><defs><linearGradient id="prefix__f" x1="532.85" y1="477.83" x2="679.67" y2="624.65" gradientUnits="userSpaceOnUse" gradientTransform="translate(-511.273 -541.238)"><stop offset="0" stop-color="#004527"/><stop offset=".1" stop-color="#064c28"/><stop offset=".24" stop-color="#16602b"/><stop offset=".41" stop-color="#318130"/><stop offset=".51" stop-color="#429633"/><stop offset=".56" stop-color="#479933"/><stop offset=".62" stop-color="#56a035"/><stop offset=".69" stop-color="#6eac37"/><stop offset=".76" stop-color="#8fbe39"/><stop offset=".79" stop-color="#a3c83b"/><stop offset="1" stop-color="#c6e040"/></linearGradient><linearGradient id="prefix__e" x1="592.26" y1="542.76" x2="702.3" y2="432.72" gradientUnits="userSpaceOnUse" gradientTransform="translate(-511.273 -541.238)"><stop offset=".08" stop-color="#062221"/><stop offset=".13" stop-color="#062422"/><stop offset=".66" stop-color="#02392c"/><stop offset="1" stop-color="#014130"/></linearGradient><linearGradient id="prefix__d" x1="377.7" y1="647.28" x2="487.74" y2="537.24" gradientUnits="userSpaceOnUse" gradientTransform="translate(-511.273 -541.238)"><stop offset="0" stop-color="#014130"/><stop offset=".33" stop-color="#023d2e"/><stop offset=".66" stop-color="#043128"/><stop offset=".92" stop-color="#062221"/></linearGradient><linearGradient id="prefix__c" x1="491.99" y1="531.54" x2="588.01" y2="548.46" gradientTransform="rotate(45 908.977 -346.55)" gradientUnits="userSpaceOnUse"><stop offset="0" stop-color="#014130"/><stop offset=".98" stop-color="#014130"/></linearGradient><linearGradient id="prefix__a" x1="350.19" y1="460.23" x2="509.73" y2="619.77" gradientUnits="userSpaceOnUse" gradientTransform="translate(-511.273 -541.238)"><stop offset="0" stop-color="#00721d"/><stop offset=".02" stop-color="#07761f"/><stop offset=".13" stop-color="#27872a"/><stop offset=".23" stop-color="#3b9231"/><stop offset=".29" stop-color="#429633"/><stop offset=".38" stop-color="#4c9b34"/><stop offset=".53" stop-color="#66a936"/><stop offset=".72" stop-color="#91bf39"/><stop offset=".79" stop-color="#a3c83b"/><stop offset="1" stop-color="#c6e040"/></linearGradient><radialGradient id="prefix__b" cx="651.4" cy="540" r="112.08" gradientUnits="userSpaceOnUse" gradientTransform="translate(-511.273 -541.238)"><stop offset=".11" stop-color="#f8aeae"/><stop offset=".18" stop-color="#f7a5a5"/><stop offset=".28" stop-color="#f38d8e"/><stop offset=".41" stop-color="#ee6667"/><stop offset=".57" stop-color="#e63133"/><stop offset=".61" stop-color="#e42224"/><stop offset=".77" stop-color="#e22224"/><stop offset=".83" stop-color="#db2123"/><stop offset=".87" stop-color="#cf2021"/><stop offset=".91" stop-color="#be1e1e"/><stop offset=".94" stop-color="#a81c1a"/><stop offset=".96" stop-color="#8d1a16"/><stop offset=".98" stop-color="#6d1610"/><stop offset="1" stop-color="#54140c"/></radialGradient></defs><path class="prefix__prefix__cls-1" d="M-51.043 29.032a42.79 42.79 0 110-60.54l30.27 30.27 49.5-49.5-30.27-30.27a112.76 112.76 0 100 159.54l30.27-30.27-49.5-49.5z" fill="url(#prefix__a)" transform="translate(10.824 12.05) scale(.04093)"/><path class="prefix__prefix__cls-2" d="M108.497-31.508a42.79 42.79 0 110 60.54l-30.27-30.27-49.5 49.5 30.27 30.27a112.76 112.76 0 100-159.54l-30.27 30.27 49.5 49.5z" fill="url(#prefix__b)" transform="translate(10.824 12.05) scale(.04093)"/><path class="prefix__prefix__cls-3" transform="rotate(-45 19.96 -7.041) scale(.04093)" fill="url(#prefix__c)" d="M-13.815-15.566h70v70h-70z"/><path d="M8.735 13.239l-.002.002a4.625 4.625 0 01-5.353.85 4.62 4.62 0 007.381 1.174L12 14.025 9.974 12z"/><path class="prefix__prefix__cls-4" d="M-51.043 29.032l-.05.05a113 113 0 01-130.8 20.76 112.88 112.88 0 00180.35 28.69l30.27-30.27-49.5-49.5z" fill="url(#prefix__d)" transform="translate(10.824 12.05) scale(.04093)"/><path d="M15.265 10.761l.002-.002a4.625 4.625 0 015.353-.85 4.62 4.62 0 00-7.381-1.174L12 9.975 14.026 12z"/><path class="prefix__prefix__cls-5" d="M18.31 14.183l.201.53a.275.275 0 00.237.175.275.275 0 00.293-.245.275.275 0 00-.132-.264l-.487-.292a.078.078 0 00-.112.096zm.642-.726l.368.429a.275.275 0 00.283.085.275.275 0 00.191-.331.275.275 0 00-.214-.203l-.557-.107a.078.078 0 00-.071.127zm.355-.9l.495.275a.275.275 0 00.294-.017.275.275 0 00.066-.376.274.274 0 00-.27-.117l-.56.09a.078.078 0 00-.025.145zm.025-.969l.56.09a.274.274 0 00.27-.117.275.275 0 00-.066-.376.274.274 0 00-.294-.017l-.495.276a.078.078 0 00.025.144zm-.307-.918l.557-.107a.275.275 0 00.214-.202.275.275 0 00-.191-.331.275.275 0 00-.283.084l-.368.429a.078.078 0 00.071.127zm-.602-.757l.486-.29a.274.274 0 00.132-.264.274.274 0 00-.293-.246.274.274 0 00-.237.176l-.201.53a.078.078 0 00.113.094z" fill="#110805"/><path class="prefix__prefix__cls-6" d="M108.497-31.508l.05-.05a113 113 0 01130.8-20.76 112.88 112.88 0 00-180.35-28.69l-30.27 30.27 49.5 49.5z" fill="url(#prefix__e)" transform="translate(10.824 12.05) scale(.04093)"/><path class="prefix__prefix__cls-7" d="M108.497 29.032l.05.05a113 113 0 00130.8 20.76 112.88 112.88 0 01-180.35 28.69l-30.27-30.27 49.5-49.5z" fill="url(#prefix__f)" transform="translate(10.824 12.05) scale(.04093)"/></svg>