<svg width="90" height="90" viewBox="0 0 90 90" fill="none" xmlns="http://www.w3.org/2000/svg">
    <path fill-rule="evenodd" clip-rule="evenodd" d="M10.2845 82.7279C10.4063 82.8505 10.5338 82.968 10.667 83.0802C10.8495 83.234 11.04 83.3755 11.238 83.5049L10.2845 82.7279Z" fill="#0066FF" fill-opacity="0.3"/>
    <path fill-rule="evenodd" clip-rule="evenodd" d="M60.6315 67.9164C60.4679 67.6163 60.314 67.3148 60.1696 67.0125C59.8308 67.2066 59.4759 67.3892 59.1059 67.5591C59.4879 67.7425 59.8569 67.9382 60.2115 68.1454C60.3537 68.071 60.4937 67.9946 60.6315 67.9164Z" fill="#0066FF" fill-opacity="0.3"/>
    <path fill-rule="evenodd" clip-rule="evenodd" d="M52.2719 38.3088C52.2719 38.1686 52.2727 38.0287 52.2743 37.889C48.7368 37.8675 45.4924 38.7598 43.0457 40.2786C40.4294 41.9027 38.68 44.2782 38.5628 47.0425C38.5565 47.191 38.555 47.3389 38.5582 47.4863C38.8993 47.4525 39.2375 47.4345 39.5714 47.4326C39.5696 47.3173 39.5711 47.2016 39.576 47.0854C39.6749 44.7551 41.1533 42.6466 43.5805 41.1399C45.8477 39.7326 48.9037 38.8807 52.2768 38.9027C52.2735 38.7052 52.2719 38.5072 52.2719 38.3088Z" fill="#0066FF" fill-opacity="0.3"/>
    <path fill-rule="evenodd" clip-rule="evenodd" d="M45.3137 43.0197C47.1501 42.0018 49.6458 41.3927 52.4077 41.4368C52.3783 41.1002 52.3536 40.7619 52.3337 40.4221C49.4568 40.3901 46.8156 41.0278 44.822 42.1329C42.703 43.3075 41.2407 45.0605 41.152 47.1523C41.1463 47.286 41.1464 47.4192 41.1521 47.5516C41.5056 47.6088 41.8513 47.6869 42.1876 47.7865C42.1644 47.5911 42.1568 47.3939 42.1653 47.1953C42.2333 45.59 43.3652 44.0998 45.3137 43.0197Z" fill="#0066FF" fill-opacity="0.3"/>
    <path fill-rule="evenodd" clip-rule="evenodd" d="M37.5395 73.3766C37.6554 72.956 37.8101 72.5473 38.0005 72.1522L37.9919 72.1307C36.3538 72.786 34.7399 73.0915 33.2734 73.0359C33.2108 73.3686 33.1357 73.7036 33.048 74.0402C34.4763 74.1219 36.0041 73.8903 37.5395 73.3766ZM46.164 51.5951L46.1553 51.6086C46.21 51.6439 46.2642 51.6801 46.3178 51.7173L46.164 51.5951Z" fill="#0066FF" fill-opacity="0.3"/>
    <path fill-rule="evenodd" clip-rule="evenodd" d="M44.4119 50.1901C44.3438 50.1253 44.2744 50.0623 44.2036 50.0011L44.1858 50.0236L44.4119 50.1901L44.4287 50.2061L44.4555 50.232L44.4812 50.2571C44.4791 50.255 44.4833 50.2592 44.4812 50.2571C44.4727 50.2487 44.4641 50.2404 44.4555 50.232L44.4287 50.2061L44.4119 50.1901ZM46.3178 51.7173L46.6084 51.9482L46.6161 51.9385C46.5188 51.8614 46.4194 51.7877 46.3178 51.7173ZM46.9286 50.9072C46.8549 50.8554 46.7803 50.8052 46.7048 50.7565L46.4309 51.1811C46.0956 50.5647 45.672 49.9993 45.156 49.4993L46.9286 50.9072Z" fill="#0066FF" fill-opacity="0.3"/>
    <path fill-rule="evenodd" clip-rule="evenodd" d="M46.164 51.5951L46.1553 51.6086C46.21 51.6439 46.2642 51.6801 46.3178 51.7173L46.6084 51.9482L46.6161 51.9385C46.5188 51.8614 46.4194 51.7877 46.3178 51.7173L46.164 51.5951Z" fill="#0066FF" fill-opacity="0.3"/>
    <path fill-rule="evenodd" clip-rule="evenodd" d="M27.2629 62.9447C27.3373 63.0014 27.4104 63.0601 27.4823 63.1207C27.4988 63.1346 27.5152 63.1485 27.5315 63.1626L27.4823 63.1207L27.2465 62.9681L27.2629 62.9447ZM29.4768 64.5294C29.5826 64.5937 29.6864 64.6613 29.7883 64.7324L29.7812 64.7425L29.4768 64.5294Z" fill="#0066FF" fill-opacity="0.3"/>
    <path fill-rule="evenodd" clip-rule="evenodd" d="M29.7883 64.7324C29.6864 64.6613 29.5826 64.5937 29.4768 64.5294L29.7812 64.7425L29.7883 64.7324ZM10.6411 84.3265L9.59973 83.4776C9.73091 83.6075 9.87052 83.7353 10.0136 83.8559C10.2155 84.026 10.4249 84.1828 10.6411 84.3265Z" fill="#0066FF" fill-opacity="0.3"/>
    <path fill-rule="evenodd" clip-rule="evenodd" d="M78.4188 75.3924L78.4577 75.3866L78.7395 75.157L78.8298 75.0833C78.8001 75.1084 78.77 75.1329 78.7395 75.157C78.6352 75.2393 78.527 75.3166 78.4188 75.3924Z" fill="#0066FF" fill-opacity="0.3"/>
    <path fill-rule="evenodd" clip-rule="evenodd" d="M64.6138 53.0462C64.5983 53.0592 64.583 53.0723 64.5677 53.0854L64.6138 53.0462L64.8495 52.8937L64.8331 52.8702C64.7588 52.927 64.6857 52.9857 64.6138 53.0462Z" fill="#0066FF" fill-opacity="0.3"/>
    <path fill-rule="evenodd" clip-rule="evenodd" d="M81.429 73.0058C81.5621 72.8937 81.6896 72.7762 81.8113 72.6537L80.8584 73.4302C81.0562 73.3009 81.2467 73.1595 81.429 73.0058Z" fill="#0066FF" fill-opacity="0.3"/>
    <path fill-rule="evenodd" clip-rule="evenodd" d="M82.4965 73.4035L81.4553 74.2518C81.6713 74.1082 81.8806 73.9515 82.0825 73.7814C82.2264 73.6601 82.3646 73.5342 82.4965 73.4035ZM78.4577 75.3866L78.7395 75.157L78.8298 75.0833C78.8001 75.1084 78.77 75.1329 78.7395 75.157C78.6352 75.2393 78.527 75.3166 78.4188 75.3924L78.4577 75.3866Z" fill="#0066FF" fill-opacity="0.3"/>
    <path fill-rule="evenodd" clip-rule="evenodd" d="M64.3846 76.0745C64.3886 75.9805 64.3903 75.8867 64.3898 75.7932L64.3609 75.7945L64.3846 76.0745L64.3828 76.1149L64.3791 76.1816C64.3805 76.1594 64.3817 76.1372 64.3828 76.1149L64.3846 76.0745Z" fill="#0066FF" fill-opacity="0.3"/>
    <path fill-rule="evenodd" clip-rule="evenodd" d="M38.3544 74.451C38.3319 74.6222 38.3168 74.7949 38.3094 74.9688C38.2993 75.2071 38.3038 75.4443 38.3224 75.68L38.3544 74.451Z" fill="#0066FF" fill-opacity="0.3"/>
    <path fill-rule="evenodd" clip-rule="evenodd" d="M37.3073 75.7098L37.3425 74.3671C37.32 74.5502 37.3041 74.7391 37.2962 74.9259C37.285 75.1896 37.2889 75.451 37.3073 75.7098Z" fill="#0066FF" fill-opacity="0.3"/>
    <path fill-rule="evenodd" clip-rule="evenodd" d="M44.3142 25.327C42.035 23.6716 40.5089 20.4462 39.5572 17.7386C39.0756 16.3684 38.7303 15.0984 38.5055 14.1714C38.393 13.7076 38.3106 13.3288 38.2559 13.0649C38.2286 12.933 38.2084 12.8296 38.1948 12.7589C38.1921 12.7448 38.1896 12.732 38.1874 12.7205C38.184 12.7033 38.1812 12.689 38.1792 12.6778L38.1751 12.6561L38.0687 12.0613L38.6652 12.0519L38.6897 12.0515C38.7046 12.0514 38.726 12.0513 38.7537 12.0514C38.8093 12.0515 38.8903 12.0522 38.9939 12.0546C39.2009 12.0594 39.4992 12.071 39.8697 12.0969C40.6103 12.1489 41.6427 12.2595 42.813 12.4953C45.1429 12.9648 48.0736 13.9401 50.3241 15.9838C53.0905 18.496 54.257 21.1474 54.7255 23.1846C54.8619 23.7777 54.9389 24.3177 54.9795 24.7859C54.6348 25.5951 54.3202 26.4251 54.0373 27.2738C53.9604 27.2974 53.8769 27.3217 53.7872 27.3462C53.2412 27.4952 52.461 27.6506 51.5114 27.6811C49.6056 27.7422 47.0304 27.2997 44.3142 25.327ZM44.9101 24.5065C47.4223 26.331 49.7695 26.7224 51.4786 26.6677C52.3362 26.6402 53.0369 26.5 53.5197 26.3682C53.7101 26.3162 53.8662 26.2647 53.9842 26.2231C53.9946 26.0852 54.0047 25.8989 54.0046 25.6712C54.0043 25.1255 53.9512 24.3428 53.7371 23.4118C53.31 21.5546 52.2399 19.0933 49.6423 16.7344C47.586 14.8672 44.8613 13.9421 42.6127 13.4891C41.4938 13.2637 40.5058 13.1577 39.7987 13.1081C39.6099 13.0949 39.4414 13.0862 39.2959 13.0799C39.3455 13.31 39.41 13.5986 39.491 13.9327C39.7102 14.8365 40.0464 16.0726 40.5139 17.4027C41.4606 20.096 42.9041 23.0495 44.9101 24.5065Z" fill="#0066FF" fill-opacity="0.3"/>
    <path fill-rule="evenodd" clip-rule="evenodd" d="M56.9988 20.8335C56.2438 22.0834 55.5679 23.4044 54.9795 24.7859C54.6348 25.5951 54.3202 26.4251 54.0373 27.2738C52.9381 30.5715 52.3176 34.151 52.2743 37.889C52.2727 38.0287 52.2719 38.1686 52.2719 38.3088C52.2719 38.5072 52.2735 38.7052 52.2768 38.9027C52.2851 39.4123 52.3042 39.9189 52.3337 40.4221C52.3536 40.7619 52.3783 41.1002 52.4077 41.4368C52.5415 42.9689 52.7725 44.4671 53.0932 45.9226C53.1685 46.2644 53.5068 46.4803 53.8486 46.405C54.1902 46.3296 54.4062 45.9918 54.331 45.6501C54.0344 44.3042 53.8174 42.9195 53.6864 41.5035C53.655 41.164 53.6285 40.8226 53.6071 40.4796C53.5755 39.9739 53.5548 39.4646 53.5454 38.9519C53.5415 38.7381 53.5395 38.5237 53.5395 38.3088C53.5395 38.1842 53.5401 38.0597 53.5415 37.9355C53.6052 31.9354 55.2037 26.3957 57.8785 21.833C58.0968 21.8964 58.3883 21.9727 58.7448 22.0475C59.5778 22.2223 60.7685 22.3897 62.214 22.3652C65.1105 22.3161 69.0191 21.4962 73.1072 18.4464C76.4228 15.9729 78.4316 12.2587 79.61 9.20497C80.2013 7.67258 80.5889 6.29273 80.8288 5.29517C80.9488 4.79609 81.0322 4.39168 81.0856 4.1109C81.1124 3.9706 81.1316 3.86087 81.1443 3.78566C81.1504 3.75001 81.1549 3.72191 81.158 3.70206L81.1607 3.68544L81.1637 3.66689L81.2483 3.10307L80.6755 3.08477L80.6371 3.08373L80.6196 3.08327C80.5947 3.08261 80.5623 3.08174 80.5225 3.08097C80.4222 3.07904 80.2751 3.07707 80.0868 3.07614C79.7103 3.07427 79.168 3.07757 78.5013 3.09685C77.1684 3.1354 75.3342 3.239 73.3309 3.50047C71.3295 3.76173 69.1477 4.18158 67.1237 4.85668C65.1045 5.53021 63.2092 6.46839 61.8104 7.78489C58.482 10.9176 57.2959 14.2942 56.9501 16.8961C56.7776 18.1938 56.8143 19.2959 56.8949 20.0767C56.9261 20.3791 56.9639 20.6337 56.9988 20.8335ZM71.3539 9.19503C65.9403 10.8253 61.2433 14.5063 57.8639 19.4835C57.8238 18.8205 57.8285 17.9828 57.9552 17.0298C58.2747 14.6254 59.3701 11.4744 62.5054 8.52342C63.7555 7.34687 65.4979 6.468 67.4448 5.81859C69.3869 5.17083 71.5 4.76201 73.4622 4.50589C75.4228 4.24997 77.2217 4.14807 78.5307 4.11021C79.1689 4.09176 79.6897 4.0883 80.055 4.08984C80.0048 4.34184 79.9364 4.6697 79.843 5.05797C79.6112 6.02223 79.2361 7.35812 78.6643 8.84003C77.5163 11.8149 75.5963 15.325 72.5013 17.634C68.6047 20.541 64.9086 21.3055 62.1968 21.3515C60.8383 21.3745 59.724 21.2167 58.953 21.0549C58.7547 21.0133 58.5793 20.9715 58.4284 20.9325C61.6923 15.7985 66.3605 12.0228 71.7197 10.4089C72.0547 10.3079 72.2443 9.9544 72.1435 9.61934C72.0426 9.28422 71.6891 9.09411 71.3539 9.19503Z" fill="#0066FF" fill-opacity="0.3"/>
    <path fill-rule="evenodd" clip-rule="evenodd" d="M29.7812 64.7425L29.7883 64.7324C29.6864 64.6613 29.5826 64.5937 29.4768 64.5294L29.7812 64.7425Z" fill="#0066FF" fill-opacity="0.3"/>
    <path d="M64.3609 75.7945L64.3898 75.7932C64.3774 73.5655 63.0964 71.4492 60.8978 69.8113C58.6094 68.1064 55.3685 66.9583 51.7167 66.8034C48.065 66.6486 44.7384 67.5183 42.3139 69.0233C40.0679 70.4175 38.6342 72.3271 38.3544 74.451L38.3224 75.68C38.4858 77.749 39.7396 79.6998 41.7963 81.232C44.0847 82.9368 47.3256 84.085 50.9774 84.2399C54.6292 84.3947 57.9557 83.525 60.3801 82.02C62.7701 80.5364 64.2402 78.4694 64.3791 76.1816L64.3828 76.1149L64.3846 76.0745L64.3609 75.7945Z" fill="#0066FF" fill-opacity="0.3"/>
    <path fill-rule="evenodd" clip-rule="evenodd" d="M45.3137 43.0197C47.1501 42.0018 49.6458 41.3927 52.4077 41.4368C52.5415 42.9689 52.7725 44.4671 53.0932 45.9226C53.1685 46.2644 53.5068 46.4803 53.8486 46.405C54.1902 46.3296 54.4062 45.9918 54.331 45.6501C54.0344 44.3042 53.8174 42.9195 53.6864 41.5035C53.655 41.164 53.6285 40.8226 53.6071 40.4796C53.5755 39.9739 53.5548 39.4646 53.5454 38.9519C56.9671 39.1949 59.9941 40.311 62.1644 41.9279C64.4554 43.6346 65.75 45.8608 65.6512 48.1911C65.586 49.7302 64.9188 51.1726 63.774 52.4088L62.0573 53.6103C61.7722 53.7858 61.4987 53.9831 61.2383 54.2024C61.0765 54.3387 60.9224 54.4813 60.776 54.6297C60.2968 55.1156 59.8994 55.6643 59.581 56.2628C59.1676 57.0399 58.8873 57.9008 58.7334 58.8168C58.6731 59.1754 58.6323 59.5424 58.6104 59.9162C58.5775 60.4776 58.5875 61.0541 58.639 61.64C58.6464 61.7235 58.6546 61.8072 58.6636 61.891C58.6929 62.1632 58.731 62.4376 58.778 62.7138C58.8616 63.2063 58.9731 63.7045 59.1121 64.2056C56.8504 65.28 54.0261 65.8649 50.9774 65.7356C49.7643 65.6842 48.5953 65.5228 47.4909 65.2675C47.7757 64.8124 48.0371 64.3524 48.2747 63.8897C48.4361 63.5753 48.5864 63.2597 48.7256 62.9435C49.102 62.0886 49.3966 61.2301 49.6063 60.3824C49.6886 60.0493 49.7579 59.718 49.8139 59.3891C49.8479 59.1893 49.877 58.9904 49.9011 58.7926C49.9688 58.238 49.9976 57.6905 49.9859 57.1552C49.9783 56.8033 49.9531 56.4566 49.9101 56.1166C49.8399 55.5621 49.7222 55.0256 49.555 54.5133C49.4371 54.1522 49.2947 53.8032 49.1272 53.4685C48.771 52.7569 48.301 52.1098 47.7111 51.5484C47.4644 51.3136 47.203 51.0999 46.9286 50.9072L45.156 49.4993C45.141 49.4847 45.1259 49.4702 45.1108 49.4558C44.2744 48.6598 43.2806 48.1099 42.1876 47.7865C42.1644 47.5911 42.1568 47.3939 42.1653 47.1953C42.2333 45.59 43.3652 44.0998 45.3137 43.0197Z" fill="#0066FF" fill-opacity="0.3"/>
    <path fill-rule="evenodd" clip-rule="evenodd" d="M51.4786 26.6677C49.7695 26.7224 47.4223 26.331 44.9101 24.5065C42.9041 23.0495 41.4606 20.096 40.5139 17.4027C40.0464 16.0726 39.7102 14.8365 39.491 13.9327C39.41 13.5986 39.3455 13.31 39.2959 13.0799C39.4414 13.0862 39.6099 13.0949 39.7987 13.1081C40.5058 13.1577 41.4938 13.2637 42.6127 13.4891C44.8613 13.9421 47.586 14.8672 49.6423 16.7344C52.2399 19.0933 53.31 21.5546 53.7371 23.4118C53.9512 24.3428 54.0043 25.1255 54.0046 25.6712C54.0047 25.8989 53.9946 26.0852 53.9842 26.2231C53.8662 26.2647 53.7101 26.3162 53.5197 26.3682C53.0369 26.5 52.3362 26.6402 51.4786 26.6677Z" fill="#0066FF" fill-opacity="0.3"/>
    <path fill-rule="evenodd" clip-rule="evenodd" d="M57.8639 19.4835C61.2433 14.5063 65.9403 10.8253 71.3539 9.19503C71.6891 9.09411 72.0426 9.28422 72.1435 9.61934C72.2443 9.9544 72.0547 10.3079 71.7197 10.4089C66.3605 12.0228 61.6923 15.7985 58.4284 20.9325C58.5793 20.9715 58.7547 21.0133 58.953 21.0549C59.724 21.2167 60.8383 21.3745 62.1968 21.3515C64.9086 21.3055 68.6047 20.541 72.5013 17.634C75.5963 15.325 77.5163 11.8149 78.6643 8.84003C79.2361 7.35812 79.6112 6.02223 79.843 5.05797C79.9364 4.6697 80.0048 4.34184 80.055 4.08984C79.6897 4.0883 79.1689 4.09176 78.5307 4.11021C77.2217 4.14807 75.4228 4.24997 73.4622 4.50589C71.5 4.76201 69.3869 5.17083 67.4448 5.81859C65.4979 6.468 63.7555 7.34687 62.5054 8.52342C59.3701 11.4744 58.2747 14.6254 57.9552 17.0298C57.8285 17.9828 57.8238 18.8205 57.8639 19.4835Z" fill="#0066FF" fill-opacity="0.3"/>
    <path fill-rule="evenodd" clip-rule="evenodd" d="M60.1696 67.0125C59.8308 67.2066 59.4759 67.3892 59.1059 67.5591C58.0831 67.0681 56.9666 66.6655 55.7799 66.3676C57.0851 66.0971 58.3086 65.6955 59.4167 65.1822C59.628 65.7923 59.8792 66.404 60.1696 67.0125Z" fill="#0066FF" fill-opacity="0.3"/>
    <path d="M38.2607 78.8096C38.9404 80.0229 39.9481 81.1194 41.1905 82.045C43.6625 83.8866 47.1061 85.0908 50.9344 85.2531C54.7627 85.4154 58.2959 84.5071 60.9149 82.8813C62.4865 81.9058 63.7451 80.6591 64.5251 79.2198C64.5245 79.2828 64.5228 79.3458 64.5202 79.409C64.4219 81.7265 62.9363 83.8254 60.492 85.3257C58.0507 86.8241 54.7003 87.6894 51.0218 87.5334C47.3432 87.3775 44.0781 86.2317 41.7725 84.532C39.6351 82.9564 38.3602 80.9393 38.2607 78.8096Z" fill="#0066FF" fill-opacity="0.3"/>
    <path fill-rule="evenodd" clip-rule="evenodd" d="M29.3224 63.6351C28.9977 63.1783 28.6183 62.7593 28.1825 62.3855L30.0406 63.686C29.8506 63.5689 29.6553 63.4615 29.4552 63.3636L29.3224 63.6351Z" fill="#0066FF" fill-opacity="0.3"/>
    <path fill-rule="evenodd" clip-rule="evenodd" d="M78.4188 75.3924L78.4577 75.3866L78.7395 75.157C78.6352 75.2393 78.527 75.3166 78.4188 75.3924Z" fill="#0066FF" fill-opacity="0.3"/>
    <path fill-rule="evenodd" clip-rule="evenodd" d="M46.8932 66.1662L46.9138 66.1714L46.8854 66.1773L46.8932 66.1662ZM27.4823 63.1207L27.2465 62.9681L27.5315 63.1626L27.4823 63.1207ZM64.5677 53.0854L64.8495 52.8937L64.6138 53.0462L64.5677 53.0854Z" fill="#0066FF" fill-opacity="0.3"/>
    <path fill-rule="evenodd" clip-rule="evenodd" d="M60.6315 67.9164C60.4679 67.6163 60.314 67.3148 60.1696 67.0125C59.8792 66.404 59.628 65.7923 59.4167 65.1822C59.3037 64.856 59.2022 64.5302 59.1121 64.2056C58.9731 63.7045 58.8616 63.2063 58.778 62.7138C58.731 62.4376 58.6929 62.1632 58.6636 61.891C58.6546 61.8072 58.6464 61.7235 58.639 61.64C58.5875 61.0541 58.5775 60.4776 58.6104 59.9162C58.6323 59.5424 58.6731 59.1754 58.7334 58.8168C58.8873 57.9008 59.1676 57.0399 59.581 56.2628C59.8994 55.6643 60.2968 55.1156 60.776 54.6297C60.9224 54.4813 61.0765 54.3387 61.2383 54.2024C61.4987 53.9831 61.7722 53.7858 62.0573 53.6103L63.774 52.4088C64.9188 51.1726 65.586 49.7302 65.6512 48.1911C65.75 45.8608 64.4554 43.6346 62.1644 41.9279C59.9941 40.311 56.9671 39.1949 53.5454 38.9519C53.5415 38.7381 53.5395 38.5237 53.5395 38.3088C53.5395 38.1842 53.5401 38.0597 53.5415 37.9355C57.163 38.1794 60.4096 39.3563 62.7702 41.1149C63.0651 41.3346 63.3468 41.564 63.614 41.8022C65.4846 43.4699 66.646 45.574 66.6706 47.8656L66.7676 50.8337C68.373 50.4153 70.1679 50.4949 71.975 51.0004C74.9436 51.8309 78.0013 53.8203 80.4701 56.7507C82.9389 59.6811 84.3803 63.0323 84.6948 66.0988C84.768 66.8125 84.7801 67.5139 84.7289 68.1926C84.7106 68.4355 84.6842 68.6756 84.6495 68.9122C84.5389 69.6671 84.3447 70.3875 84.0634 71.0577C83.6939 71.9379 83.1742 72.7317 82.4965 73.4035L81.4553 74.2518L79.0746 76.1916L79.0639 76.1784C76.9932 77.6662 74.2448 77.8791 71.4652 77.0864C69.2551 76.4561 66.9923 75.184 64.9559 73.3614C65.2807 74.2387 65.4379 75.1632 65.3974 76.1174L65.3957 76.1558L65.3944 76.1823L65.5007 78.4414C65.5362 78.7747 65.5473 79.1119 65.5329 79.452C65.416 82.2085 63.6543 84.5742 61.0222 86.1898C58.387 87.8073 54.8316 88.71 50.9788 88.5467C47.126 88.3833 43.6598 87.1828 41.1709 85.348C38.8445 83.633 37.3329 81.328 37.2443 78.78L37.2276 78.7795L37.3073 75.7098L37.3425 74.3671C37.3843 74.0303 37.4504 73.6999 37.5395 73.3766C37.6554 72.956 37.8101 72.5473 38.0005 72.1522L37.9919 72.1307C36.3538 72.786 34.7399 73.0915 33.2734 73.0359C33.2108 73.3686 33.1357 73.7036 33.048 74.0402C32.4055 76.5079 31.0922 79.0571 29.1572 81.354C26.6727 84.3032 23.604 86.3127 20.6305 87.1607C17.851 87.9534 15.1027 87.7406 13.032 86.2529L13.0214 86.2659L10.6411 84.3265L9.59973 83.4776C7.79254 81.6861 7.1085 79.0281 7.40126 76.1732C7.71576 73.1067 9.15716 69.7556 11.6259 66.8252C14.0947 63.8948 17.1525 61.9053 20.1211 61.0749C21.3967 60.718 22.6662 60.5734 23.8672 60.6664C24.5749 58.0266 26.1014 55.3019 28.3605 52.9283C31.0021 50.1526 34.1746 48.3519 37.188 47.7026C37.6481 47.6035 38.1058 47.531 38.5582 47.4863C38.8993 47.4525 39.2375 47.4345 39.5714 47.4326C39.5696 47.3173 39.5711 47.2016 39.576 47.0854C39.6749 44.7551 41.1533 42.6466 43.5805 41.1399C45.8477 39.7326 48.9037 38.8807 52.2768 38.9027C52.2851 39.4123 52.3042 39.9189 52.3337 40.4221C49.4568 40.3901 46.8156 41.0278 44.822 42.1329C42.703 43.3075 41.2407 45.0605 41.152 47.1523C41.1463 47.286 41.1464 47.4192 41.1521 47.5516C41.5056 47.6088 41.8513 47.6869 42.1876 47.7865C43.2806 48.1099 44.2744 48.6598 45.1108 49.4558L45.156 49.4993C45.672 49.9993 46.0956 50.5647 46.4309 51.1811L46.7048 50.7565C46.7803 50.8052 46.8549 50.8554 46.9286 50.9072C47.203 51.0999 47.4644 51.3136 47.7111 51.5484C48.301 52.1098 48.771 52.7569 49.1272 53.4685C49.2947 53.8032 49.4371 54.1522 49.555 54.5133C49.7222 55.0256 49.8399 55.5621 49.9101 56.1166C49.9531 56.4566 49.9783 56.8033 49.9859 57.1552C49.9976 57.6905 49.9688 58.238 49.9011 58.7926C49.877 58.9904 49.8479 59.1893 49.8139 59.3891C49.7579 59.718 49.6886 60.0493 49.6063 60.3824C49.3966 61.2301 49.102 62.0886 48.7256 62.9435C48.5864 63.2597 48.4361 63.5753 48.2747 63.8897C48.0371 64.3524 47.7757 64.8124 47.4909 65.2675C47.3019 65.5695 47.1026 65.8693 46.8932 66.1662L46.8854 66.1773L46.9138 66.1714C48.436 65.856 50.069 65.719 51.7597 65.7906C53.1608 65.8501 54.5105 66.049 55.7799 66.3676C56.9666 66.6655 58.0831 67.0681 59.1059 67.5591C59.4879 67.7425 59.8569 67.9382 60.2115 68.1454C60.5114 68.3207 60.8011 68.5042 61.0799 68.6954C60.9232 68.4371 60.7737 68.1773 60.6315 67.9164ZM10.2845 82.7279C10.4063 82.8505 10.5338 82.968 10.667 83.0802C10.8495 83.234 11.04 83.3755 11.238 83.5049L10.2845 82.7279ZM46.164 51.5951L46.1553 51.6086C46.21 51.6439 46.2642 51.6801 46.3178 51.7173L46.6084 51.9482L46.6161 51.9385C46.5188 51.8614 46.4194 51.7877 46.3178 51.7173L46.164 51.5951ZM44.4119 50.1901C44.3438 50.1253 44.2744 50.0623 44.2036 50.0011L44.1858 50.0236L44.4119 50.1901ZM27.4823 63.1207C27.4104 63.0601 27.3373 63.0014 27.2629 62.9447L27.2465 62.9681L27.5315 63.1626C27.5152 63.1485 27.4988 63.1346 27.4823 63.1207ZM29.4768 64.5294C29.5826 64.5937 29.6864 64.6613 29.7883 64.7324L29.7812 64.7425L29.4768 64.5294ZM78.4188 75.3924L78.4577 75.3866L78.7395 75.157C78.6352 75.2393 78.527 75.3166 78.4188 75.3924ZM64.6138 53.0462C64.5983 53.0592 64.583 53.0723 64.5677 53.0854L64.8495 52.8937L64.8331 52.8702C64.7588 52.927 64.6857 52.9857 64.6138 53.0462ZM81.429 73.0058C81.5621 72.8937 81.6896 72.7762 81.8113 72.6537L80.8584 73.4302C81.0562 73.3009 81.2467 73.1595 81.429 73.0058ZM64.3846 76.0745C64.3886 75.9805 64.3903 75.8867 64.3898 75.7932C64.3774 73.5655 63.0964 71.4492 60.8978 69.8113C58.6094 68.1064 55.3685 66.9583 51.7167 66.8034C48.065 66.6486 44.7384 67.5183 42.3139 69.0233C40.0679 70.4175 38.6342 72.3271 38.3544 74.451C38.3319 74.6222 38.3168 74.7949 38.3094 74.9688C38.2993 75.2071 38.3038 75.4443 38.3224 75.68C38.4858 77.749 39.7396 79.6998 41.7963 81.232C44.0847 82.9368 47.3256 84.085 50.9774 84.2399C54.6292 84.3947 57.9557 83.525 60.3801 82.02C62.7701 80.5364 64.2402 78.4694 64.3791 76.1816L64.3828 76.1149L64.3846 76.0745ZM38.2607 78.8096C38.9404 80.0229 39.9481 81.1194 41.1905 82.045C43.6625 83.8866 47.1061 85.0908 50.9344 85.2531C54.7627 85.4154 58.2959 84.5071 60.9149 82.8813C62.4865 81.9058 63.7451 80.6591 64.5251 79.2198C64.5245 79.2828 64.5228 79.3458 64.5202 79.409C64.4219 81.7265 62.9363 83.8254 60.492 85.3257C58.0507 86.8241 54.7003 87.6894 51.0218 87.5334C47.3432 87.3775 44.0781 86.2317 41.7725 84.532C39.6351 82.9564 38.3602 80.9393 38.2607 78.8096ZM29.3224 63.6351C28.9977 63.1783 28.6183 62.7593 28.1825 62.3855L30.0406 63.686C29.8506 63.5689 29.6553 63.4615 29.4552 63.3636L29.3224 63.6351Z" fill="#0066FF" fill-opacity="0.3"/>
    <path fill-rule="evenodd" clip-rule="evenodd" d="M10.2845 82.7279C10.4063 82.8505 10.5338 82.968 10.667 83.0802C10.8495 83.234 11.04 83.3755 11.238 83.5049L10.2845 82.7279Z" fill="#0066FF" fill-opacity="0.3"/>
    <path fill-rule="evenodd" clip-rule="evenodd" d="M60.6315 67.9164C60.4679 67.6163 60.314 67.3148 60.1696 67.0125C59.8308 67.2066 59.4759 67.3892 59.1059 67.5591C59.4879 67.7425 59.8569 67.9382 60.2115 68.1454C60.3537 68.071 60.4937 67.9946 60.6315 67.9164Z" fill="#0066FF" fill-opacity="0.3"/>
    <path fill-rule="evenodd" clip-rule="evenodd" d="M52.2719 38.3088C52.2719 38.1686 52.2727 38.0287 52.2743 37.889C48.7368 37.8675 45.4924 38.7598 43.0457 40.2786C40.4294 41.9027 38.68 44.2782 38.5628 47.0425C38.5565 47.191 38.555 47.3389 38.5582 47.4863C38.8993 47.4525 39.2375 47.4345 39.5714 47.4326C39.5696 47.3173 39.5711 47.2016 39.576 47.0854C39.6749 44.7551 41.1533 42.6466 43.5805 41.1399C45.8477 39.7326 48.9037 38.8807 52.2768 38.9027C52.2735 38.7052 52.2719 38.5072 52.2719 38.3088Z" fill="#0066FF" fill-opacity="0.3"/>
    <path fill-rule="evenodd" clip-rule="evenodd" d="M42.1876 47.7865C41.8513 47.6869 41.5056 47.6088 41.1521 47.5516C41.1464 47.4192 41.1463 47.286 41.152 47.1523C41.2407 45.0605 42.703 43.3075 44.822 42.1329C46.8156 41.0278 49.4568 40.3901 52.3337 40.4221C52.3536 40.7619 52.3783 41.1002 52.4077 41.4368C49.6458 41.3927 47.1501 42.0018 45.3137 43.0197C43.3652 44.0998 42.2333 45.59 42.1653 47.1953C42.1568 47.3939 42.1644 47.5911 42.1876 47.7865ZM49.1272 53.4685C49.2947 53.8032 49.4371 54.1522 49.555 54.5133C50.4342 54.687 51.3564 54.7985 52.3081 54.8388C55.4108 54.9704 58.2767 54.3232 60.4047 53.1437C62.5238 51.9691 63.9861 50.2161 64.0748 48.1243C64.1635 46.0325 62.8549 44.162 60.8428 42.8122C58.9729 41.5577 56.4345 40.7041 53.6071 40.4796C53.6285 40.8226 53.655 41.164 53.6864 41.5035C56.3009 41.7352 58.6069 42.5333 60.2778 43.6542C62.1279 44.8954 63.1301 46.476 63.062 48.0813C62.9939 49.6866 61.8616 51.1768 59.9131 52.2569C57.9734 53.3319 55.2984 53.9511 52.351 53.8261C51.2278 53.7785 50.1512 53.6264 49.1465 53.3872L49.1272 53.4685Z" fill="#0066FF" fill-opacity="0.3"/>
    <path fill-rule="evenodd" clip-rule="evenodd" d="M46.164 51.5951L46.1553 51.6086C46.21 51.6439 46.2642 51.6801 46.3178 51.7173L46.164 51.5951Z" fill="#0066FF" fill-opacity="0.3"/>
    <path fill-rule="evenodd" clip-rule="evenodd" d="M44.4119 50.1901C44.3438 50.1253 44.2744 50.0623 44.2036 50.0011L44.1858 50.0236L44.4119 50.1901L44.4287 50.2061L44.4555 50.232L44.4812 50.2571C44.4791 50.255 44.4833 50.2592 44.4812 50.2571C44.4727 50.2487 44.4641 50.2404 44.4555 50.232L44.4287 50.2061L44.4119 50.1901ZM46.3178 51.7173L46.6084 51.9482L46.6161 51.9385C46.5188 51.8614 46.4194 51.7877 46.3178 51.7173ZM46.9286 50.9072C46.8549 50.8554 46.7803 50.8052 46.7048 50.7565L46.4309 51.1811C46.0956 50.5647 45.672 49.9993 45.156 49.4993L46.9286 50.9072Z" fill="#0066FF" fill-opacity="0.3"/>
    <path fill-rule="evenodd" clip-rule="evenodd" d="M46.164 51.5951L46.1553 51.6086C46.21 51.6439 46.2642 51.6801 46.3178 51.7173L46.6084 51.9482L46.6161 51.9385C46.5188 51.8614 46.4194 51.7877 46.3178 51.7173L46.164 51.5951Z" fill="#0066FF" fill-opacity="0.3"/>
    <path fill-rule="evenodd" clip-rule="evenodd" d="M39.9023 63.9126C41.936 61.7757 43.2303 59.3541 43.6972 57.1862C44.1663 55.0082 43.7895 53.175 42.6256 52.0673C41.4617 50.9596 39.6121 50.674 37.46 51.2502C35.3179 51.8239 32.9633 53.2363 30.9295 55.3733C29.0206 57.379 27.7626 59.6361 27.2294 61.699C26.9321 61.5212 26.6233 61.3666 26.3044 61.2346C26.9153 59.0424 28.2481 56.7205 30.1952 54.6744C32.3362 52.4249 34.8476 50.9 37.1978 50.2707C39.5382 49.644 41.8078 49.8897 43.3244 51.333C44.8411 52.7764 45.1987 55.0311 44.6886 57.3996C44.1763 59.7781 42.7775 62.3619 40.6366 64.6115C38.4237 66.9366 35.8127 68.4896 33.3918 69.077C33.3415 68.7378 33.2742 68.4059 33.1896 68.0825C35.3779 67.5421 37.8089 66.1122 39.9023 63.9126Z" fill="#0066FF" fill-opacity="0.3"/>
    <path fill-rule="evenodd" clip-rule="evenodd" d="M27.4823 63.1207C27.4104 63.0601 27.3373 63.0014 27.2629 62.9447L27.2465 62.9681L27.4823 63.1207L27.5315 63.1626C27.5152 63.1485 27.4988 63.1346 27.4823 63.1207ZM28.1825 62.3855C28.6183 62.7593 28.9977 63.1783 29.3224 63.6351L29.4552 63.3636C29.6553 63.4615 29.8506 63.5689 30.0406 63.686L28.1825 62.3855ZM29.7883 64.7324C29.6864 64.6613 29.5826 64.5937 29.4768 64.5294L29.7812 64.7425L29.7883 64.7324Z" fill="#0066FF" fill-opacity="0.3"/>
    <path fill-rule="evenodd" clip-rule="evenodd" d="M29.7883 64.7324C29.6864 64.6613 29.5826 64.5937 29.4768 64.5294L29.7812 64.7425L29.7883 64.7324ZM10.6411 84.3265L9.59973 83.4776C9.73091 83.6075 9.87052 83.7353 10.0136 83.8559C10.2155 84.026 10.4249 84.1828 10.6411 84.3265Z" fill="#0066FF" fill-opacity="0.3"/>
    <path d="M23.8111 77.091C25.7118 74.8349 26.8572 72.3394 27.1921 70.1472C27.5285 67.9449 27.0415 66.1378 25.8127 65.1026C24.5839 64.0674 22.7203 63.8942 20.6071 64.5996C18.5036 65.3018 16.2388 66.8542 14.3381 69.1103C12.4374 71.3664 11.292 73.8619 10.9571 76.0541C10.6207 78.2564 11.108 80.0631 12.3368 81.0983C13.5656 82.1335 15.4288 82.3071 17.5421 81.6017C19.6456 80.8995 21.9104 79.3471 23.8111 77.091ZM24.5864 77.7441C22.5855 80.1192 20.171 81.7932 17.8631 82.5636C15.5649 83.3307 13.2846 83.2229 11.6834 81.8739C10.0822 80.525 9.58882 78.2961 9.95469 75.901C10.3221 73.4959 11.562 70.8322 13.5628 68.4572C15.5637 66.0822 17.9783 64.4081 20.2861 63.6377C22.5843 62.8706 24.8646 62.9784 26.4658 64.3274C28.067 65.6763 28.5604 67.9052 28.1945 70.3003C27.8271 72.7054 26.5872 75.3691 24.5864 77.7441Z" fill="#0066FF" fill-opacity="0.3"/>
    <path fill-rule="evenodd" clip-rule="evenodd" d="M78.4188 75.3924L78.4577 75.3866L78.7395 75.157L78.8298 75.0833C78.8001 75.1084 78.77 75.1329 78.7395 75.157C78.6352 75.2394 78.5271 75.3166 78.4188 75.3924Z" fill="#0066FF" fill-opacity="0.3"/>
    <path fill-rule="evenodd" clip-rule="evenodd" d="M64.6138 53.0462C64.5983 53.0592 64.583 53.0723 64.5677 53.0854L64.6138 53.0462L64.8495 52.8937L64.8331 52.8702C64.7588 52.927 64.6857 52.9857 64.6138 53.0462Z" fill="#0066FF" fill-opacity="0.3"/>
    <path fill-rule="evenodd" clip-rule="evenodd" d="M81.429 73.0058C81.5621 72.8937 81.6896 72.7762 81.8113 72.6537L80.8584 73.4302C81.0562 73.3009 81.2467 73.1595 81.429 73.0058Z" fill="#0066FF" fill-opacity="0.3"/>
    <path fill-rule="evenodd" clip-rule="evenodd" d="M82.4965 73.4035L81.4553 74.2518C81.6713 74.1082 81.8806 73.9515 82.0825 73.7814C82.2264 73.6601 82.3646 73.5342 82.4965 73.4035ZM78.4577 75.3866L78.7395 75.157L78.8298 75.0833C78.8001 75.1084 78.77 75.1329 78.7395 75.157C78.6352 75.2394 78.5271 75.3166 78.4188 75.3924L78.4577 75.3866Z" fill="#0066FF" fill-opacity="0.3"/>
    <path d="M68.2849 67.0165C66.3842 64.7604 65.2389 62.2649 64.904 60.0728C64.5675 57.8704 65.0546 56.0634 66.2834 55.0281C67.5122 53.9929 69.3757 53.8197 71.489 54.5251C73.5925 55.2273 75.8573 56.7797 77.758 59.0358C79.6587 61.2919 80.804 63.7874 81.1389 65.9796C81.4754 68.1819 80.988 69.9886 79.7592 71.0238C78.5304 72.059 76.6672 72.2326 74.554 71.5272C72.4504 70.825 70.1856 69.2726 68.2849 67.0165ZM67.5097 67.6696C69.5106 70.0447 71.9251 71.7187 74.233 72.4891C76.5312 73.2562 78.8114 73.1484 80.4126 71.7994C82.0138 70.4505 82.5072 68.2216 82.1414 65.8265C81.774 63.4214 80.5341 60.7577 78.5332 58.3827C76.5323 56.0077 74.1178 54.3336 71.81 53.5632C69.5118 52.7961 67.2315 52.904 65.6303 54.2529C64.0291 55.6019 63.5357 57.8307 63.9016 60.2258C64.269 62.6309 65.5088 65.2946 67.5097 67.6696Z" fill="#0066FF" fill-opacity="0.3"/>
    <path fill-rule="evenodd" clip-rule="evenodd" d="M64.3846 76.0745C64.3886 75.9805 64.3903 75.8867 64.3898 75.7932L64.3609 75.7945L64.3846 76.0745L64.3828 76.1149L64.3791 76.1816C64.3805 76.1594 64.3817 76.1372 64.3828 76.1149L64.3846 76.0745Z" fill="#0066FF" fill-opacity="0.3"/>
    <path fill-rule="evenodd" clip-rule="evenodd" d="M38.3544 74.451C38.3319 74.6222 38.3168 74.7949 38.3094 74.9688C38.2993 75.2071 38.3038 75.4443 38.3224 75.68L38.3544 74.451Z" fill="#0066FF" fill-opacity="0.3"/>
    <path fill-rule="evenodd" clip-rule="evenodd" d="M37.3073 75.7098L37.3425 74.3671C37.32 74.5502 37.3041 74.7391 37.2962 74.9259C37.285 75.1896 37.2889 75.451 37.3073 75.7098Z" fill="#0066FF" fill-opacity="0.3"/>
    <path d="M51.0844 81.7095C54.0318 81.8345 56.7068 81.2153 58.6465 80.1403C60.595 79.0602 61.7273 77.57 61.7954 75.9647C61.8635 74.3594 60.8613 72.7788 59.0112 71.5376C57.1696 70.3022 54.5565 69.4589 51.6092 69.3339C48.6618 69.2089 45.9867 69.828 44.0471 70.9031C42.0986 71.9832 40.9667 73.4734 40.8987 75.0787C40.8306 76.684 41.8322 78.2646 43.6824 79.5057C45.524 80.7412 48.137 81.5845 51.0844 81.7095ZM51.0415 82.7222C47.9387 82.5907 45.1379 81.7033 43.1174 80.3478C41.1053 78.998 39.7967 77.1275 39.8854 75.0357C39.9741 72.9439 41.4364 71.1909 43.5554 70.0163C45.6834 68.8367 48.5493 68.1896 51.6521 68.3211C54.7548 68.4527 57.5557 69.3401 59.5762 70.6956C61.5882 72.0453 62.8969 73.9159 62.8082 76.0077C62.7195 78.0995 61.2572 79.8525 59.1381 81.0271C57.0101 82.2066 54.1442 82.8538 51.0415 82.7222Z" fill="#0066FF" fill-opacity="0.3"/>
    <path fill-rule="evenodd" clip-rule="evenodd" d="M44.3142 25.327C42.035 23.6716 40.5089 20.4462 39.5572 17.7386C39.0756 16.3684 38.7303 15.0984 38.5055 14.1714C38.393 13.7076 38.3106 13.3288 38.2559 13.0649C38.2286 12.933 38.2084 12.8296 38.1948 12.7589C38.1921 12.7448 38.1896 12.732 38.1874 12.7205C38.184 12.7033 38.1812 12.689 38.1792 12.6778L38.1751 12.6561C38.1746 12.6537 38.1753 12.6575 38.1751 12.6561L38.0687 12.0613L38.6652 12.0519L38.6897 12.0515C38.7046 12.0514 38.726 12.0513 38.7537 12.0514C38.8093 12.0515 38.8903 12.0522 38.9939 12.0546C39.2009 12.0594 39.4992 12.071 39.8697 12.0969C40.6103 12.1489 41.6427 12.2595 42.813 12.4953C45.1429 12.9648 48.0736 13.9401 50.3241 15.9838C53.0905 18.496 54.257 21.1474 54.7255 23.1846C54.8619 23.7777 54.9389 24.3177 54.9795 24.7859C54.6348 25.5951 54.3202 26.4251 54.0373 27.2738C53.9604 27.2974 53.8769 27.3217 53.7872 27.3462C53.2412 27.4952 52.461 27.6506 51.5114 27.6811C49.6056 27.7422 47.0304 27.2997 44.3142 25.327ZM44.9101 24.5065C47.4223 26.331 49.7695 26.7224 51.4786 26.6677C52.3362 26.6402 53.0369 26.5 53.5197 26.3682C53.7101 26.3162 53.8662 26.2647 53.9842 26.2231C53.9946 26.0852 54.0047 25.8989 54.0046 25.6712C54.0043 25.1255 53.9512 24.3428 53.7371 23.4118C53.31 21.5546 52.2399 19.0933 49.6423 16.7344C47.586 14.8672 44.8613 13.9421 42.6127 13.4891C41.4938 13.2637 40.5058 13.1577 39.7987 13.1081C39.6099 13.0949 39.4414 13.0862 39.2959 13.0799C39.3455 13.31 39.41 13.5986 39.491 13.9327C39.7102 14.8365 40.0464 16.0726 40.5139 17.4027C41.4606 20.096 42.9041 23.0495 44.9101 24.5065Z" fill="#0066FF" fill-opacity="0.3"/>
    <path fill-rule="evenodd" clip-rule="evenodd" d="M56.9988 20.8335C56.2438 22.0834 55.5679 23.4044 54.9795 24.7859C54.6348 25.5951 54.3202 26.4251 54.0373 27.2738C52.9381 30.5715 52.3176 34.151 52.2743 37.889C52.2727 38.0287 52.2719 38.1686 52.2719 38.3088C52.2719 38.5072 52.2735 38.7052 52.2768 38.9027C52.2851 39.4123 52.3042 39.9189 52.3337 40.4221C52.3536 40.7619 52.3783 41.1002 52.4077 41.4368C52.5415 42.9689 52.7725 44.4671 53.0932 45.9226C53.1685 46.2644 53.5068 46.4803 53.8486 46.405C54.1902 46.3296 54.4062 45.9918 54.331 45.6501C54.0344 44.3042 53.8174 42.9195 53.6864 41.5035C53.655 41.164 53.6285 40.8226 53.6071 40.4796C53.5755 39.9739 53.5548 39.4646 53.5454 38.9519C53.5415 38.7381 53.5395 38.5237 53.5395 38.3088C53.5395 38.1842 53.5401 38.0597 53.5415 37.9355C53.6052 31.9354 55.2037 26.3957 57.8785 21.833C58.0968 21.8964 58.3883 21.9727 58.7448 22.0475C59.5778 22.2223 60.7685 22.3897 62.214 22.3652C65.1105 22.3161 69.0191 21.4962 73.1072 18.4464C76.4228 15.9729 78.4316 12.2587 79.61 9.20497C80.2013 7.67258 80.5889 6.29273 80.8288 5.29517C80.9488 4.79609 81.0322 4.39168 81.0856 4.1109C81.1124 3.9706 81.1316 3.86087 81.1443 3.78566C81.1504 3.75001 81.1549 3.72191 81.158 3.70206L81.1607 3.68544L81.1637 3.66689L81.2483 3.10307L80.6755 3.08477L80.6371 3.08373L80.6196 3.08327C80.5947 3.08261 80.5623 3.08174 80.5225 3.08097C80.4222 3.07904 80.2751 3.07707 80.0868 3.07614C79.7103 3.07427 79.168 3.07757 78.5013 3.09685C77.1684 3.1354 75.3342 3.239 73.3309 3.50047C71.3295 3.76173 69.1477 4.18158 67.1237 4.85668C65.1045 5.53021 63.2092 6.46839 61.8104 7.78489C58.482 10.9176 57.2959 14.2942 56.9501 16.8961C56.7776 18.1938 56.8143 19.2959 56.8949 20.0767C56.9261 20.3791 56.9639 20.6337 56.9988 20.8335ZM71.3539 9.19503C65.9403 10.8253 61.2433 14.5063 57.8639 19.4835C57.8238 18.8205 57.8285 17.9828 57.9552 17.0298C58.2747 14.6254 59.3701 11.4744 62.5054 8.52342C63.7555 7.34687 65.4979 6.468 67.4448 5.81859C69.3869 5.17083 71.5 4.76201 73.4622 4.50589C75.4228 4.24997 77.2217 4.14807 78.5307 4.11021C79.1689 4.09176 79.6897 4.0883 80.055 4.08984C80.0048 4.34184 79.9364 4.6697 79.843 5.05797C79.6112 6.02223 79.2361 7.35812 78.6643 8.84003C77.5163 11.8149 75.5963 15.325 72.5013 17.634C68.6047 20.541 64.9086 21.3055 62.1968 21.3515C60.8383 21.3745 59.724 21.2167 58.953 21.0549C58.7547 21.0133 58.5793 20.9715 58.4284 20.9325C61.6923 15.7985 66.3605 12.0228 71.7197 10.4089C72.0547 10.3079 72.2443 9.9544 72.1435 9.61934C72.0426 9.28422 71.6891 9.09411 71.3539 9.19503Z" fill="#0066FF" fill-opacity="0.3"/>
    <path fill-rule="evenodd" clip-rule="evenodd" d="M29.0098 64.2742L29.0359 64.2208L29.4768 64.5294C29.325 64.4373 29.1693 64.3523 29.0098 64.2742Z" fill="#0066FF" fill-opacity="0.3"/>
    <path fill-rule="evenodd" clip-rule="evenodd" d="M29.7883 64.7324L29.8925 64.5834C29.9502 64.6979 30.0051 64.8142 30.0572 64.932C29.9692 64.8627 29.8796 64.7962 29.7883 64.7324Z" fill="#0066FF" fill-opacity="0.3"/>
    <path d="M33.048 74.0402C33.1357 73.7036 33.2108 73.3686 33.2734 73.0359C33.3411 72.6759 33.3941 72.3187 33.4321 71.9653C33.4445 71.8499 33.4554 71.7349 33.4646 71.6202C33.4929 71.2682 33.5062 70.9197 33.5041 70.576C33.501 70.0644 33.4639 69.5633 33.3918 69.077C33.3415 68.7378 33.2742 68.4059 33.1896 68.0825C32.7967 66.5809 32.0301 65.2647 30.8574 64.2767C30.5978 64.058 30.3251 63.8612 30.0406 63.686C29.8506 63.5689 29.6553 63.4615 29.4552 63.3636L29.3224 63.6351C28.9977 63.1783 28.6183 62.7593 28.1825 62.3855L28.1354 62.3454C27.8478 62.1032 27.5452 61.888 27.2294 61.699C26.9321 61.5212 26.6233 61.3666 26.3044 61.2346C25.8485 61.0459 25.3722 60.9034 24.8803 60.8052C24.5492 60.739 24.211 60.693 23.8672 60.6664C22.6662 60.5734 21.3967 60.718 20.1211 61.0749C17.1525 61.9053 14.0947 63.8948 11.6259 66.8252C9.15716 69.7556 7.71576 73.1067 7.40126 76.1732C7.1085 79.0281 7.79254 81.6861 9.59973 83.4776L10.6411 84.3265L13.0214 86.2659L13.032 86.2529C15.1027 87.7406 17.851 87.9534 20.6305 87.1607C23.604 86.3127 26.6727 84.3032 29.1572 81.354C31.0922 79.0571 32.4055 76.5079 33.048 74.0402ZM10.667 83.0802C10.5338 82.968 10.4063 82.8505 10.2845 82.7279C8.77494 81.2081 8.14016 78.9062 8.40982 76.2765C8.70099 73.4378 10.0463 70.2735 12.4012 67.4783C14.7561 64.683 17.646 62.82 20.3941 62.0513C23.0344 61.3126 25.4924 61.5926 27.2629 62.9447C27.3373 63.0014 27.4104 63.0601 27.4823 63.1207C27.4988 63.1346 27.5152 63.1485 27.5315 63.1626L27.5616 63.1887C29.2887 64.697 30.0265 67.1249 29.7395 69.9244C29.4484 72.7631 28.1031 75.9273 25.7481 78.7226C23.3932 81.5179 20.5033 83.3808 17.7552 84.1497C15.2854 84.8406 12.9752 84.6402 11.238 83.5049C11.04 83.3755 10.8495 83.234 10.667 83.0802ZM29.4768 64.5294C29.5826 64.5937 29.6864 64.6613 29.7883 64.7324L29.7812 64.7425L29.4768 64.5294ZM29.4768 64.5294C29.325 64.4373 29.1693 64.3523 29.0098 64.2742L29.0359 64.2208L29.4768 64.5294ZM29.7883 64.7324L29.8925 64.5834C29.9502 64.6979 30.0051 64.8142 30.0572 64.932C29.9692 64.8627 29.8796 64.7962 29.7883 64.7324Z" fill="#0066FF" fill-opacity="0.3"/>
    <path fill-rule="evenodd" clip-rule="evenodd" d="M48.7256 62.9435C48.5864 63.2597 48.4361 63.5753 48.2747 63.8897C48.0371 64.3524 47.7757 64.8124 47.4909 65.2675C47.3019 65.5695 47.1026 65.8693 46.8932 66.1662L46.9138 66.1714C48.436 65.856 50.069 65.719 51.7597 65.7906C53.1608 65.8501 54.5105 66.049 55.7799 66.3676C57.0851 66.0971 58.3086 65.6955 59.4167 65.1822C59.3037 64.856 59.2022 64.5302 59.1121 64.2056C58.9731 63.7045 58.8616 63.2063 58.778 62.7138C58.731 62.4376 58.6929 62.1632 58.6636 61.891C58.6546 61.8072 58.6464 61.7235 58.639 61.64C56.7009 62.7119 54.0293 63.3299 51.0844 63.2051C50.2706 63.1706 49.481 63.0812 48.7256 62.9435Z" fill="#0066FF" fill-opacity="0.3"/>
    <path fill-rule="evenodd" clip-rule="evenodd" d="M60.1696 67.0125C60.314 67.3148 60.4679 67.6163 60.6315 67.9164C60.7737 68.1773 60.9232 68.4371 61.0799 68.6954C60.8011 68.5042 60.5114 68.3207 60.2115 68.1454C59.8569 67.9382 59.4879 67.7425 59.1059 67.5591C58.0831 67.0681 56.9666 66.6655 55.7799 66.3676C54.5105 66.049 53.1608 65.8501 51.7597 65.7906C50.069 65.719 48.436 65.856 46.9138 66.1714L46.8932 66.1662C47.1026 65.8693 47.3019 65.5695 47.4909 65.2675C47.7757 64.8124 48.0371 64.3524 48.2747 63.8897C48.4361 63.5753 48.5864 63.2597 48.7256 62.9435C49.102 62.0886 49.3966 61.2301 49.6063 60.3824C49.6886 60.0493 49.7579 59.718 49.8139 59.3891C49.8479 59.1893 49.877 58.9904 49.9011 58.7926C49.9688 58.238 49.9976 57.6905 49.9859 57.1552C49.9783 56.8033 49.9531 56.4566 49.9101 56.1166C49.8399 55.5621 49.7222 55.0256 49.555 54.5133C49.4371 54.1522 49.2947 53.8032 49.1272 53.4685C48.771 52.7569 48.301 52.1098 47.7111 51.5484C47.4644 51.3136 47.203 51.0999 46.9286 50.9072C46.8549 50.8554 46.7803 50.8052 46.7048 50.7565L46.4309 51.1811C46.0956 50.5647 45.672 49.9993 45.156 49.4993L45.1108 49.4558C44.2744 48.6598 43.2806 48.1099 42.1876 47.7865C41.8513 47.6869 41.5056 47.6088 41.1521 47.5516C40.6397 47.4686 40.1111 47.4295 39.5714 47.4326C39.2375 47.4345 38.8993 47.4525 38.5582 47.4863C38.1058 47.531 37.6481 47.6035 37.188 47.7026C34.1746 48.3519 31.0021 50.1526 28.3605 52.9283C26.1014 55.3019 24.5749 58.0266 23.8672 60.6664C24.211 60.693 24.5492 60.739 24.8803 60.8052C25.5546 58.3813 26.9775 55.8518 29.0948 53.6271C31.6145 50.9795 34.6119 49.2948 37.4015 48.6937C40.0816 48.1162 42.5182 48.5444 44.2036 50.0011C44.2744 50.0623 44.3438 50.1253 44.4119 50.1901L44.4287 50.2061L44.4555 50.232L44.4812 50.2571C46.1134 51.8672 46.7092 54.3413 46.2533 57.118C45.7909 59.9339 44.2566 63.0109 41.7368 65.6585C39.2382 68.2839 36.2715 69.9614 33.5041 70.576C33.5062 70.9197 33.4929 71.2682 33.4646 71.6202C33.4554 71.7349 33.4445 71.8499 33.4321 71.9653C33.3941 72.3187 33.3411 72.6759 33.2734 73.0359C33.2108 73.3686 33.1357 73.7036 33.048 74.0402C34.4763 74.1219 36.0041 73.8903 37.5395 73.3766C37.4504 73.6999 37.3843 74.0303 37.3425 74.3671L37.3073 75.7098L37.2276 78.7795L37.2443 78.78C37.3329 81.328 38.8445 83.633 41.1709 85.348C43.6598 87.1828 47.126 88.3833 50.9788 88.5467C54.8316 88.71 58.387 87.8073 61.0222 86.1898C63.6543 84.5742 65.416 82.2085 65.5329 79.452C65.5473 79.1119 65.5362 78.7747 65.5007 78.4414L65.3944 76.1823L65.3957 76.1558L65.3974 76.1174C65.4379 75.1632 65.2807 74.2387 64.9559 73.3614C66.9923 75.184 69.2551 76.4561 71.4652 77.0864C74.2448 77.8791 76.9932 77.6662 79.0639 76.1784L79.0746 76.1916L81.4553 74.2518L82.4965 73.4035C83.1742 72.7317 83.6939 71.9379 84.0634 71.0577C84.3447 70.3875 84.5389 69.6671 84.6495 68.9122C84.6842 68.6756 84.7106 68.4355 84.7289 68.1926C84.7801 67.5139 84.768 66.8125 84.6948 66.0988C84.3803 63.0323 82.9389 59.6811 80.4701 56.7507C78.0013 53.8203 74.9436 51.8309 71.975 51.0004C70.1679 50.4949 68.373 50.4153 66.7676 50.8337L66.6706 47.8656C66.646 45.574 65.4846 43.4699 63.614 41.8022C63.3468 41.564 63.0651 41.3346 62.7702 41.1149C60.4096 39.3563 57.163 38.1794 53.5415 37.9355C53.5401 38.0597 53.5395 38.1842 53.5395 38.3088C53.5395 38.5237 53.5415 38.7381 53.5454 38.9519C56.9671 39.1949 59.9941 40.311 62.1644 41.9279C64.4554 43.6346 65.75 45.8608 65.6512 48.1911C65.586 49.7302 64.9188 51.1726 63.774 52.4088L62.0573 53.6103C61.7722 53.7858 61.4987 53.9831 61.2383 54.2024C61.0765 54.3387 60.9224 54.4813 60.776 54.6297C60.2968 55.1156 59.8994 55.6643 59.581 56.2628C59.1676 57.0399 58.8873 57.9008 58.7334 58.8168C58.6731 59.1754 58.6323 59.5424 58.6104 59.9162C58.5775 60.4776 58.5875 61.0541 58.639 61.64C58.6464 61.7235 58.6546 61.8072 58.6636 61.891C58.6929 62.1632 58.731 62.4376 58.778 62.7138C58.8616 63.2063 58.9731 63.7045 59.1121 64.2056C59.2022 64.5302 59.3037 64.856 59.4167 65.1822C59.628 65.7923 59.8792 66.404 60.1696 67.0125ZM46.1553 51.6086L46.164 51.5951L46.3178 51.7173C46.2642 51.6801 46.21 51.6439 46.1553 51.6086ZM46.3178 51.7173C46.4194 51.7877 46.5188 51.8614 46.6161 51.9385L46.6084 51.9482L46.3178 51.7173ZM78.4577 75.3866L78.4188 75.3924C78.5271 75.3166 78.6352 75.2394 78.7395 75.157L78.4577 75.3866ZM64.5677 53.0854C64.583 53.0723 64.5983 53.0592 64.6138 53.0462C64.6857 52.9857 64.7588 52.927 64.8331 52.8702C66.6036 51.5182 69.0616 51.2382 71.7019 51.9768C74.45 52.7456 77.34 54.6086 79.6949 57.4038C82.0498 60.1991 83.3951 63.3634 83.6862 66.2021C83.9559 68.8319 83.3211 71.1339 81.8113 72.6537C81.6896 72.7762 81.5621 72.8937 81.429 73.0058C81.2467 73.1595 81.0562 73.3009 80.8584 73.4302C79.1211 74.5658 76.8108 74.7662 74.3409 74.0752C71.5928 73.3064 68.7028 71.4435 66.3479 68.6482C63.993 65.8529 62.6477 62.6887 62.3566 59.8499C62.0695 57.0506 62.8073 54.6228 64.5342 53.1144L64.5677 53.0854ZM64.3898 75.7932C64.3903 75.8867 64.3886 75.9805 64.3846 76.0745L64.3828 76.1149L64.3791 76.1816C64.2402 78.4694 62.7701 80.5364 60.3801 82.02C57.9557 83.525 54.6292 84.3947 50.9774 84.2399C47.3256 84.085 44.0847 82.9368 41.7963 81.232C39.7396 79.6998 38.4858 77.749 38.3224 75.68C38.3038 75.4443 38.2993 75.2071 38.3094 74.9688C38.3168 74.7949 38.3319 74.6222 38.3544 74.451C38.6342 72.3271 40.0679 70.4175 42.3139 69.0233C44.7384 67.5183 48.065 66.6486 51.7167 66.8034C55.3685 66.9583 58.6094 68.1064 60.8978 69.8113C63.0964 71.4492 64.3774 73.5655 64.3898 75.7932Z" fill="#0066FF" fill-opacity="0.3"/>
    <path fill-rule="evenodd" clip-rule="evenodd" d="M58.7334 58.8168C58.8873 57.9008 59.1676 57.0399 59.581 56.2628C59.8994 55.6643 60.2968 55.1156 60.776 54.6297C58.4534 55.828 55.4761 56.4935 52.244 56.3565C51.445 56.3226 50.6651 56.2412 49.9101 56.1166C49.9531 56.4566 49.9783 56.8033 49.9859 57.1552C49.9976 57.6905 49.9688 58.238 49.9011 58.7926C49.877 58.9904 49.8479 59.1893 49.8139 59.3891C49.7579 59.718 49.6886 60.0493 49.6063 60.3824C50.4592 60.5295 51.3415 60.625 52.2457 60.6633C54.5146 60.7595 56.678 60.4861 58.6104 59.9162C58.6323 59.5424 58.6731 59.1754 58.7334 58.8168Z" fill="#0066FF" fill-opacity="0.3"/>
</svg>
