<svg width="361" height="249" viewBox="0 0 361 249" fill="none" xmlns="http://www.w3.org/2000/svg">
<g clip-path="url(#clip0_14073_41115)">
<path d="M0 12C0 5.37259 5.37258 0 12 0H349C355.627 0 361 5.37258 361 12V237C361 243.627 355.627 249 349 249H12C5.37257 249 0 243.627 0 237V12Z" fill="url(#paint0_linear_14073_41115)" fill-opacity="0.18"/>
<path d="M0 12C0 5.37259 5.37258 0 12 0H349C355.627 0 361 5.37258 361 12V237C361 243.627 355.627 249 349 249H12C5.37257 249 0 243.627 0 237V12Z" fill="url(#paint1_linear_14073_41115)" fill-opacity="0.7"/>
<path opacity="0.6" d="M179.239 406.85L235.588 -7.88676L123.212 -7.26651L179.239 423.163L179.239 406.85Z" fill="white"/>
<path opacity="0.6" d="M181.763 355.281L-108.005 57.4999L61.5879 -28.0081L194.251 358.859L181.763 355.281Z" fill="white"/>
<path opacity="0.6" d="M174.331 353.403L496.494 60.4999L302.379 -27.3284L161.773 356.723L174.331 353.403Z" fill="white"/>
<path fill-rule="evenodd" clip-rule="evenodd" d="M207.229 104.359C206.726 94.2914 205.365 67.7817 201.362 41.6249C207.406 43.3375 212.141 45.7867 214.586 48.9777L214.587 48.9761C224.026 47.1788 232.208 47.9874 238.86 50.659C244.298 69.5777 248.225 86.4643 248.636 90.0941C240.134 100.473 225.565 104.5 207.641 104.286L207.229 104.359ZM131.079 51.165C133.878 47.9125 138.567 45.2914 144.349 43.3049C141.633 69.5211 141.459 95.9246 141.326 106.085C123.671 107.733 108.993 103.504 99.5585 94.2004C99.8564 90.5287 102.865 73.6937 107.214 54.698C114.027 51.3167 122.15 49.9426 131.079 51.165ZM139.895 -10.0418L139.896 -10.0416C137.028 -4.42839 137.029 -4.43033 139.895 -10.0418ZM202.617 -11.6147C205.061 -7.37508 205.061 -7.37518 202.616 -11.615L202.617 -11.6147Z" fill="url(#paint2_linear_14073_41115)"/>
<path fill-rule="evenodd" clip-rule="evenodd" d="M144.349 43.3044C160.604 37.7174 185.5 37.1328 201.363 41.6247C205.366 67.7841 206.727 94.292 207.229 104.359C194.546 113.579 149.235 113.912 141.327 106.085C141.46 95.9231 141.634 69.5144 144.349 43.3044ZM107.113 55.1385C102.871 73.7245 99.9266 90.1549 99.5711 94.0627C92.2362 89.7633 87.9135 84.6722 87.5976 79.1364C87.509 75.7356 88.9757 72.4239 91.7627 69.2902C95.4111 62.9973 100.652 57.9938 107.062 54.7745L107.214 54.6979L107.113 55.1385ZM254.799 65.019C257.747 68.0026 259.385 71.2336 259.475 74.6331L259.477 74.8661L259.477 75.072L259.472 75.2767L259.465 75.4796L259.452 75.6837L259.433 75.9181L259.414 76.1179L259.391 76.3197L259.365 76.5159L259.339 76.6898L259.304 76.8869L259.27 77.0816L259.256 77.1436C259.232 77.267 259.206 77.3909 259.177 77.5155L259.129 77.7123L259.113 77.7725C259.077 77.9203 259.035 78.0669 258.993 78.2135L258.933 78.407L258.914 78.4679C258.879 78.5727 258.845 78.6776 258.808 78.7816L258.738 78.9828L258.687 79.118C257.215 83.0039 253.737 86.7115 248.637 90.0928C248.225 86.4644 244.299 69.5772 238.861 50.6588C246.095 53.5626 251.524 58.6691 254.799 65.019Z" fill="url(#paint3_linear_14073_41115)"/>
<path fill-rule="evenodd" clip-rule="evenodd" d="M244.242 13.5234C255.022 28.4194 261.621 46.8258 262.146 66.8716C262.263 71.3158 261.028 75.41 258.678 79.1413C259.241 77.6624 259.514 76.1554 259.474 74.6318C259.385 71.2324 257.746 68.0024 254.8 65.0175C254.96 63.8751 255.028 62.6999 254.996 61.4979C254.57 45.2339 250.961 28.0733 244.242 13.5234ZM98.4529 19.1453C93.2187 33.6361 90.9738 50.2319 91.3814 65.7844C91.4129 66.9868 91.5417 68.157 91.7622 69.2898C88.9752 72.4237 87.5085 75.7356 87.5975 79.1353C87.6374 80.6591 87.9886 82.1489 88.6287 83.5967C86.0866 79.9938 84.639 75.9702 84.5225 71.5253C84.0179 52.2677 89.1899 34.2268 98.4529 19.1453ZM131.079 51.1644C129.618 -15.3934 147.904 -27.9076 170.775 -28.5066C193.646 -29.1054 212.562 -17.5664 214.587 48.9756C203.443 34.432 144.736 35.2948 131.079 51.1644Z" fill="url(#paint4_radial_14073_41115)"/>
<path fill-rule="evenodd" clip-rule="evenodd" d="M148.668 -21.3476C137.341 -12.0199 130.14 8.43514 131.08 51.1634C113.656 48.7793 99.306 56.2778 91.7619 69.2899C91.5414 68.1569 91.4126 66.9867 91.381 65.7845C90.3151 25.1029 107.394 -22.7113 148.668 -21.3476ZM193.226 -22.5148C232.948 -25.4624 253.931 20.8154 254.996 61.4976C255.027 62.701 254.96 63.8749 254.799 65.0189C248.511 52.8302 234.291 45.2219 214.586 48.9766C213.286 6.25622 205.024 -13.7934 193.226 -22.5148Z" fill="url(#paint5_linear_14073_41115)"/>
<path fill-rule="evenodd" clip-rule="evenodd" d="M170.15 170.323L142.114 105.621C141.944 105.23 141.49 105.051 141.099 105.22C140.708 105.39 140.529 105.843 140.698 106.235L172.581 179.811L92.7367 68.4856C92.4883 68.1403 92.0058 68.0615 91.6604 68.3087C91.3142 68.5574 91.2352 69.0388 91.4827 69.3856L164.374 171.015L100.152 93.6906C99.8806 93.3627 99.3944 93.3172 99.0663 93.5904C98.739 93.8622 98.6942 94.3484 98.966 94.6756L175.812 187.201L175.813 187.202L175.816 187.205L175.818 187.208L175.821 187.212L175.822 187.214L175.823 187.215L175.826 187.217L175.827 187.219L175.829 187.222L175.834 187.227L175.835 187.228L175.836 187.229L175.839 187.232L175.84 187.233L175.842 187.236L175.847 187.241L175.849 187.244L175.852 187.246L175.852 187.246L175.855 187.25L175.864 187.259L175.869 187.264L175.881 187.276L175.882 187.277L175.884 187.279L175.889 187.283L175.897 187.291L175.903 187.296L175.903 187.296L175.904 187.297L175.912 187.304L175.917 187.308L175.918 187.309L175.919 187.31L175.926 187.316L175.931 187.32L175.933 187.321L175.935 187.323L175.937 187.324L175.937 187.325L175.941 187.328L175.945 187.331L175.947 187.333L175.95 187.335L175.951 187.336L175.953 187.337L175.955 187.339L175.96 187.342L175.962 187.344L175.965 187.346L175.966 187.347L175.969 187.349L175.972 187.351L175.975 187.353L175.979 187.356L175.98 187.357L175.982 187.358L175.984 187.359L175.987 187.361L175.99 187.363L175.994 187.366L175.996 187.367L175.997 187.368L176.001 187.37L176.003 187.371L176.006 187.373L176.01 187.376L176.012 187.377L176.014 187.379L176.019 187.381L176.02 187.382L176.022 187.383L176.026 187.385L176.027 187.386L176.03 187.388L176.036 187.391L176.038 187.392L176.042 187.394L176.045 187.396L176.047 187.397L176.052 187.4L176.053 187.4L176.054 187.401L176.06 187.404L176.061 187.405L176.064 187.406L176.068 187.408L176.07 187.409L176.074 187.411L176.077 187.412L176.078 187.413L176.081 187.415L176.083 187.415L176.087 187.417L176.093 187.42L176.097 187.422L176.098 187.422L176.1 187.423C176.145 187.443 176.19 187.459 176.237 187.47L176.237 187.469L176.239 187.47L176.249 187.472L176.253 187.473L176.256 187.474L176.263 187.475L176.267 187.476L176.269 187.476L176.275 187.478L176.295 187.481C176.3 187.482 176.307 187.483 176.313 187.484L176.324 187.485L176.332 187.486L176.343 187.487L176.344 187.487L176.345 187.487L176.352 187.488L176.361 187.489L176.363 187.488L176.365 187.489L176.371 187.489L176.373 187.489L176.375 187.489L176.378 187.489L176.382 187.489L176.386 187.49L176.388 187.489L176.39 187.49L176.392 187.49L176.396 187.49L176.402 187.49L176.405 187.49L176.408 187.49L176.409 187.491L176.41 187.49L176.415 187.49L176.421 187.49L176.425 187.49L176.429 187.49L176.435 187.49L176.439 187.49L176.443 187.489L176.449 187.49L176.453 187.489L176.459 187.489L176.463 187.489L176.467 187.489L176.472 187.488L176.478 187.487L176.482 187.487L176.486 187.487L176.49 187.486L176.497 187.486L176.503 187.485L176.505 187.485L176.507 187.484L176.516 187.484L176.52 187.483C176.542 187.485 176.564 187.485 176.587 187.486L176.601 187.486L176.603 187.485L176.605 187.485L176.619 187.485L176.619 187.484C176.734 187.479 176.849 187.449 176.954 187.391L176.955 187.389L176.959 187.387L176.966 187.384L176.969 187.383L176.972 187.381L176.982 187.375L176.983 187.373C177.038 187.34 177.09 187.3 177.136 187.252L177.148 187.239C177.183 187.203 177.213 187.163 177.238 187.122L178.227 185.579L249.098 90.5261C249.352 90.1847 249.282 89.7006 248.941 89.447C248.6 89.1919 248.118 89.2625 247.863 89.603L189.974 167.244L255.423 65.0896C255.651 64.7311 255.548 64.2543 255.188 64.025C254.83 63.795 254.353 63.9 254.123 64.2576L179.467 180.785L208.066 104.615C208.215 104.217 208.013 103.772 207.614 103.623C207.216 103.473 206.772 103.675 206.621 104.074L181.674 170.518L215.371 48.1014C215.483 47.6913 215.242 47.2658 214.832 47.1535C214.422 47.0396 213.997 47.2807 213.884 47.6921L176.345 184.066L131.716 49.8447C131.582 49.4402 131.145 49.2216 130.741 49.3553C130.337 49.4905 130.118 49.9275 130.253 50.3306L170.15 170.323Z" fill="#8FBCFF"/>
<path opacity="0.15" d="M108.265 132.4C108.217 132.215 108.423 132.068 108.583 132.173L112.968 135.056C114.385 135.987 116.119 136.306 117.775 135.94L122.69 134.855C122.889 134.811 123.027 135.05 122.889 135.201L119.91 138.457C118.526 139.97 117.967 142.063 118.413 144.065L119.387 148.44C119.429 148.629 119.213 148.769 119.057 148.653L115.123 145.706C113.535 144.517 111.479 144.148 109.576 144.71L104.947 146.077C104.747 146.136 104.593 145.899 104.728 145.74L107.966 141.941C109.293 140.384 109.779 138.279 109.269 136.298L108.265 132.4Z" fill="#77A8F2"/>
<g clip-path="url(#clip1_14073_41115)">
<circle cx="177.43" cy="195.431" r="43.5" transform="rotate(-19.2943 177.43 195.431)" fill="white"/>
<circle cx="177.43" cy="195.431" r="42.5" transform="rotate(-19.2943 177.43 195.431)" stroke="url(#paint6_linear_14073_41115)" stroke-opacity="0.6" stroke-width="2"/>
<path d="M186.953 177.503C183.893 178.574 181.094 181.278 178.628 185.538C177.457 187.557 176.55 189.598 175.896 191.206C175.896 191.206 175.896 191.206 175.909 191.212L175.906 191.203C175.906 191.203 178.255 192.429 180.831 193.721C181.434 192.183 182.334 190.06 183.508 188.019C185.702 184.231 187.547 182.948 188.716 182.539C193.116 180.998 197.886 183.163 199.355 187.361C200.815 191.531 198.428 196.202 194.047 197.767C193.847 197.837 193.581 197.899 193.235 197.947C194.707 198.037 196.222 197.946 197.534 197.487C205.593 194.665 205.369 188.966 205.343 188.557C205.251 187.533 205.029 186.503 204.674 185.489C202.237 178.526 194.281 174.938 186.953 177.503Z" fill="url(#paint7_linear_14073_41115)"/>
<path d="M167.668 212.675C170.728 211.604 173.527 208.9 175.994 204.64C177.165 202.621 178.072 200.58 178.725 198.972C178.725 198.972 178.725 198.972 178.712 198.966L178.715 198.975C178.715 198.975 176.366 197.75 173.79 196.457C173.187 197.995 172.287 200.118 171.113 202.159C168.919 205.947 167.074 207.23 165.905 207.639C161.502 209.17 156.732 207.005 155.263 202.807C153.803 198.637 156.19 193.967 160.571 192.402C160.77 192.332 161.037 192.27 161.383 192.222C159.911 192.131 158.396 192.223 157.084 192.682C149.025 195.503 149.259 201.2 149.272 201.603C149.367 202.635 149.585 203.656 149.94 204.671C152.384 211.652 160.341 215.24 167.668 212.675Z" fill="url(#paint8_linear_14073_41115)"/>
<path d="M197.48 197.38C193.319 198.722 187.918 197.039 186.767 196.554C183.788 195.298 176.631 191.586 176.07 191.292C170.779 188.431 163.957 185.553 158.806 187.356L158.797 187.36L158.787 187.363C152.543 189.58 148.741 195.572 149.273 201.603C149.251 201.203 149.475 195.231 157.105 192.769C161.266 191.427 166.702 193.15 167.863 193.632C170.842 194.888 177.999 198.599 178.56 198.894C183.847 201.745 190.669 204.623 195.82 202.82L195.83 202.816L195.839 202.813C202.083 200.596 205.895 194.601 205.353 188.573C205.366 188.976 205.116 194.905 197.48 197.38Z" fill="#29ABE2"/>
</g>
<path opacity="0.16" d="M182.168 29.2309C182.479 28.9378 182.988 29.1813 182.955 29.6074L182.739 32.3816C182.445 36.1547 183.688 39.8866 186.187 42.7292L187.774 44.5346C188.075 44.8776 187.757 45.4049 187.313 45.2975L186.32 45.0574C181.872 43.9816 177.179 45.144 173.747 48.1714L172.845 48.9674C172.519 49.2545 172.012 48.9818 172.073 48.5521L172.328 46.731C172.941 42.3468 171.449 37.9302 168.301 34.817L167.172 33.7003C166.842 33.3733 167.139 32.8167 167.595 32.9101L169.225 33.2442C173.697 34.1608 178.336 32.843 181.658 29.7118L182.168 29.2309Z" fill="#77A8F2"/>
<path opacity="0.15" d="M272.674 200.115C272.851 200.015 273.059 200.186 272.995 200.379L271.989 203.417C271.422 205.133 271.571 207.004 272.404 208.608L273.787 211.268C273.887 211.462 273.679 211.67 273.486 211.569L271.411 210.491C269.472 209.484 267.164 209.486 265.227 210.496L263.083 211.616C262.899 211.711 262.695 211.527 262.772 211.335L263.81 208.743C264.596 206.781 264.41 204.564 263.307 202.761L261.906 200.472C261.791 200.282 261.992 200.058 262.193 200.154L264.704 201.348C266.672 202.285 268.972 202.204 270.87 201.133L272.674 200.115Z" fill="#77A8F2"/>
<path opacity="0.15" d="M327.506 85.1414C327.674 85.0464 327.871 85.2084 327.81 85.3917L327.57 86.1183C327.002 87.8334 327.151 89.7052 327.984 91.3084L328.25 91.8205C328.349 92.0093 328.146 92.2123 327.957 92.1142C326.064 91.1309 323.811 91.1329 321.92 92.1196L321.855 92.1537C321.672 92.2492 321.469 92.0654 321.545 91.8736L321.647 91.621C322.432 89.6592 322.246 87.4415 321.143 85.6388L321.066 85.5131C320.95 85.3238 321.152 85.0998 321.352 85.1952L321.668 85.3453C323.531 86.2317 325.709 86.1556 327.506 85.1414Z" fill="#77A8F2"/>
<path opacity="0.15" d="M48.8323 88.8293C49.01 88.729 49.2179 88.9001 49.1538 89.0937L48.2497 91.8248C47.6819 93.5399 47.8315 95.4117 48.6645 97.0149L49.8996 99.3918C50.0001 99.5853 49.7921 99.7932 49.5987 99.6927L47.8073 98.7619C45.8688 97.7547 43.5608 97.7567 41.624 98.7674L39.7619 99.7392C39.5783 99.835 39.3745 99.6507 39.4516 99.4584L40.3668 97.1735C41.1526 95.2117 40.9659 92.9941 39.8631 91.1913L38.6364 89.1859C38.5206 88.9966 38.7222 88.7727 38.9226 88.868L41.1239 89.9153C43.0918 90.8515 45.3924 90.7711 47.2902 89.6998L48.8323 88.8293Z" fill="#77A8F2"/>
<path d="M23.6736 211.115C23.8512 211.015 24.0592 211.186 23.9951 211.379L22.9893 214.417C22.4216 216.133 22.5712 218.004 23.4042 219.608L24.7867 222.268C24.8872 222.462 24.6792 222.67 24.4858 222.569L22.4106 221.491C20.4721 220.484 18.164 220.486 16.2273 221.496L14.0826 222.616C13.899 222.711 13.6952 222.527 13.7722 222.335L14.8105 219.743C15.5963 217.781 15.4096 215.564 14.3068 213.761L12.9065 211.472C12.7906 211.282 12.9922 211.058 13.1927 211.154L15.7039 212.348C17.6718 213.285 19.9724 213.204 21.8702 212.133L23.6736 211.115Z" fill="white"/>
<path d="M252.674 48.1149C252.851 48.0146 253.059 48.1857 252.995 48.3793L251.989 51.4174C251.422 53.1326 251.571 55.0043 252.404 56.6075L253.787 59.2683C253.887 59.4617 253.679 59.6697 253.486 59.5692L251.411 58.4909C249.472 57.4837 247.164 57.4857 245.227 58.4964L243.083 59.6156C242.899 59.7115 242.695 59.5271 242.772 59.3349L243.81 56.7429C244.596 54.7812 244.41 52.5635 243.307 50.7608L241.906 48.4716C241.791 48.2822 241.992 48.0583 242.193 48.1536L244.704 49.3483C246.672 50.2846 248.972 50.2042 250.87 49.1329L252.674 48.1149Z" fill="white"/>
</g>
<defs>
<linearGradient id="paint0_linear_14073_41115" x1="73.9453" y1="249" x2="73.9453" y2="44.2585" gradientUnits="userSpaceOnUse">
<stop stop-color="#8FC7F0" stop-opacity="0"/>
<stop offset="1" stop-color="#8FAAF0"/>
</linearGradient>
<linearGradient id="paint1_linear_14073_41115" x1="73.9453" y1="249" x2="73.9453" y2="44.2585" gradientUnits="userSpaceOnUse">
<stop stop-color="#7EB2FF" stop-opacity="0"/>
<stop offset="1" stop-color="#7EB2FF"/>
</linearGradient>
<linearGradient id="paint2_linear_14073_41115" x1="144.835" y1="122.546" x2="219.236" y2="-1.65985" gradientUnits="userSpaceOnUse">
<stop stop-color="#0153CC"/>
<stop offset="1" stop-color="#1674FF"/>
</linearGradient>
<linearGradient id="paint3_linear_14073_41115" x1="185.501" y1="34.2172" x2="192.378" y2="109.263" gradientUnits="userSpaceOnUse">
<stop stop-color="#CFE2FF"/>
<stop offset="1" stop-color="white"/>
</linearGradient>
<radialGradient id="paint4_radial_14073_41115" cx="0" cy="0" r="1" gradientUnits="userSpaceOnUse" gradientTransform="translate(171.268 -1.80235) rotate(34.5784) scale(93.7969 79.9919)">
<stop stop-color="#84B6FF"/>
<stop offset="0.684529" stop-color="#1F77FB"/>
<stop offset="1" stop-color="#3F8AFA"/>
</radialGradient>
<linearGradient id="paint5_linear_14073_41115" x1="193.286" y1="-11.6734" x2="208.979" y2="76.6661" gradientUnits="userSpaceOnUse">
<stop stop-color="#CFE2FF"/>
<stop offset="1" stop-color="white"/>
</linearGradient>
<linearGradient id="paint6_linear_14073_41115" x1="199.375" y1="154.534" x2="139.373" y2="218.148" gradientUnits="userSpaceOnUse">
<stop stop-color="#8FBCFF"/>
<stop offset="1" stop-color="#8FBCFF" stop-opacity="0.2"/>
</linearGradient>
<linearGradient id="paint7_linear_14073_41115" x1="180.616" y1="181.596" x2="204.852" y2="194.105" gradientUnits="userSpaceOnUse">
<stop offset="0.21" stop-color="#F15A24"/>
<stop offset="0.6841" stop-color="#FBB03B"/>
</linearGradient>
<linearGradient id="paint8_linear_14073_41115" x1="174.005" y1="208.582" x2="149.769" y2="196.073" gradientUnits="userSpaceOnUse">
<stop offset="0.21" stop-color="#ED1E79"/>
<stop offset="0.8929" stop-color="#522785"/>
</linearGradient>
<clipPath id="clip0_14073_41115">
<path d="M0 12C0 5.37259 5.37258 0 12 0H349C355.627 0 361 5.37258 361 12V237C361 243.627 355.627 249 349 249H12C5.37257 249 0 243.627 0 237V12Z" fill="white"/>
</clipPath>
<clipPath id="clip1_14073_41115">
<path d="M136.373 209.804C128.435 187.129 140.382 162.312 163.057 154.374C185.732 146.436 210.549 158.382 218.487 181.057C226.425 203.732 214.478 228.549 191.803 236.487C169.128 244.425 144.311 232.479 136.373 209.804Z" fill="white"/>
</clipPath>
</defs>
</svg>
