<svg xmlns="http://www.w3.org/2000/svg" width="64" height="64" fill="none">
    <g clip-path="url(#a)">
        <path fill="#06F" d="M0 0h64v64H0z"/>
        <g clip-path="url(#b)">
            <path fill="#06F" d="M0 0h64v64H0z"/>
            <path fill="#06F"
                  d="M51.59 7.532c7.872 5.717 12.991 14.996 12.991 25.47 0 17.374-14.084 31.459-31.458 31.459-6.9 0-13.28-2.221-18.467-5.988-7.872-5.718-12.991-14.996-12.991-25.47 0-17.375 14.084-31.46 31.458-31.46 6.9.001 13.28 2.222 18.467 5.989"/>
            <path fill="#0754C8" fill-rule="evenodd"
                  d="M60.595 29.84c0-10.717-5.236-20.21-13.289-26.064l3.35 2.433c8.058 5.853 13.298 15.35 13.298 26.072zM31.753 64.483c17.784 0 32.2-14.417 32.2-32.2l-3.358-2.44c0 17.783-14.417 32.2-32.2 32.2a32.06 32.06 0 0 1-18.902-6.13l3.358 2.44a32.05 32.05 0 0 0 18.902 6.13"
                  clip-rule="evenodd"/>
            <path fill="#fff" fill-rule="evenodd"
                  d="m30.175 48.349-1.612 3.03a.995.995 0 0 1-1.264.45 100 100 0 0 1-3.25-1.456.957.957 0 0 1-.438-1.321l1.46-2.743a55 55 0 0 1-1.33-.652q-.6-.307-1.182-.623l-1.458 2.742a1 1 0 0 1-1.356.408 100 100 0 0 1-3.084-1.767.954.954 0 0 1-.35-1.272l1.603-3.015c-6.457-4.715-9.7-10.756-5.497-18.587l1.021-1.92c4.15-7.879 11.06-8.735 18.707-6.258l1.602-3.013a.996.996 0 0 1 1.266-.449q1.612.691 3.246 1.46c.5.235.697.833.438 1.32l-1.459 2.743q.6.286 1.2.59.665.34 1.309.69l1.457-2.741a.997.997 0 0 1 1.357-.407 99 99 0 0 1 3.083 1.77c.439.264.589.82.348 1.272l-1.607 3.022c6.364 4.69 9.503 10.701 5.357 18.498l-1.021 1.921c-4.114 7.812-10.966 8.716-18.546 6.308m13.759-9.301.575-1.082c3.915-7.123-1.463-11.529-8.553-15.266-7.228-3.558-13.999-5.342-17.714 1.883l-.574 1.081c-3.933 7.156 1.445 11.562 8.568 15.316 7.195 3.541 13.966 5.326 17.698-1.932"
                  clip-rule="evenodd"/>
        </g>
        <mask id="d" width="118" height="117" x="-27" y="-26" maskUnits="userSpaceOnUse" style="mask-type:alpha">
            <ellipse cx="31.58" cy="32.258" fill="url(#c)" rx="58.58" ry="58.258"/>
        </mask>
        <g mask="url(#d)">
            <path fill="#DC7266"
                  d="M63.358 37.737c0-.314-.184-.569-.408-.569-.225 0-.407.255-.407.57s.182.569.407.569.408-.255.408-.57"/>
            <path fill="#67C7AC"
                  d="M64.184 56.73c.224 0 .408-.255.408-.57s-.184-.569-.408-.569c-.225 0-.407.255-.407.57s.182.569.407.569"/>
            <path fill="#F8CD7A"
                  d="M37.387 57.652c.117.312.397.432.626.267l1.65-1.202c.228-.166.318-.554.2-.868-.116-.313-.396-.432-.623-.266l-1.651 1.202c-.229.165-.319.553-.202.867M58.965 53.811l-1.326 1.826a.84.84 0 0 0-.008.911c.178.252.47.25.653-.001l1.325-1.826a.83.83 0 0 0 .01-.91c-.179-.252-.47-.251-.654 0M49.416 51.772c.274.261.611.237.755-.054.143-.291.037-.74-.237-1l-1.984-1.9c-.274-.26-.611-.237-.754.053-.144.292-.038.74.237 1.002z"/>
            <path fill="#FCFFFF"
                  d="m56.344 41.986.443-3.299c.06-.456-.09-.877-.34-.943-.248-.066-.5.252-.56.707l-.444 3.299c-.062.456.09.878.34.943.248.065.5-.252.56-.707M27.097 48.934l-2.33-.833c-.322-.114-.633.07-.695.412a.76.76 0 0 0 .468.828l2.33.832c.323.114.633-.07.695-.411a.76.76 0 0 0-.468-.828M14.247 63.634c-.11-.438-.393-.697-.632-.58-.239.115-.343.566-.233 1.003l.795 3.167c.11.439.393.698.63.58.24-.115.345-.565.235-1.002z"/>
            <path fill="#F877C1"
                  d="M25.739 61.922c-.144-.292-.432-.364-.643-.162L23.56 63.23c-.212.203-.268.603-.126.895.144.291.432.363.643.16l1.536-1.469c.212-.202.269-.602.126-.893M52.281 61.653c-.073-.338-.332-.528-.577-.425l-1.783.752c-.246.104-.386.462-.313.8s.332.528.578.424l1.783-.752c.245-.103.385-.46.312-.8"/>
            <path fill="#FCFFFF"
                  d="m40.931 39.667-1.857-.174c-.257-.024-.478.242-.494.594-.018.353.176.659.432.682l1.858.175c.257.023.478-.243.495-.596.017-.352-.176-.657-.434-.68"/>
            <path fill="#DC7266"
                  d="M60.76 48.545c.083-.335-.048-.699-.291-.814l-1.764-.837c-.243-.116-.506.061-.587.396-.082.335.05.699.293.814l1.762.837c.243.116.506-.062.588-.396"/>
            <path fill="#FCFFFF"
                  d="M9.164 49.278c.162-.279.134-.685-.063-.907s-.487-.177-.65.103l-1.17 2.02c-.162.278-.134.684.063.906s.487.177.65-.102zM45.31 59.002c-.164-.275-.455-.314-.65-.086-.194.227-.217.634-.05.908l1.195 1.992c.166.274.456.313.65.086s.218-.633.052-.908z"/>
            <path fill="#67C7AC"
                  d="M30.943 44.74c.224.149.49.025.593-.279l.745-2.197c.103-.303.005-.669-.22-.818-.226-.149-.492-.024-.594.28l-.745 2.196c-.103.304-.005.67.22.818M61.953 63.865l-.816-.815c-.195-.195-.47-.125-.616.158-.145.283-.104.67.091.865l1.34 1.34.076.075c.196.195.471.125.616-.158.145-.281.105-.669-.09-.864z"/>
            <path fill="#DC7266"
                  d="m28.611 34.905-2.32.878a.766.766 0 0 0-.46.836c.065.34.379.517.698.397l2.322-.878a.77.77 0 0 0 .461-.836c-.066-.34-.379-.52-.7-.397M7.914 60.564c.053.345.359.545.684.448l2.352-.704c.324-.096.544-.454.491-.799s-.359-.547-.683-.45l-2.353.704c-.323.097-.543.455-.491.8"/>
            <path fill="#FCFFFF"
                  d="M56.522 52.931c-.225 0-.407.255-.407.57 0 .313.182.568.407.568s.408-.255.408-.569-.184-.569-.408-.569"/>
            <path fill="#F877C1"
                  d="M59.032 36.69c.225 0 .408-.255.408-.569s-.183-.569-.408-.569-.408.255-.408.57c0 .313.183.568.408.568"/>
            <path fill="#FCFFFF"
                  d="M52.3 55.457c-.224 0-.407.255-.407.569s.183.569.407.569c.226 0 .408-.255.408-.57 0-.313-.182-.568-.408-.568M33.695 48.487c.225 0 .408-.255.408-.569s-.183-.569-.408-.569-.408.255-.408.57c0 .313.184.568.408.568M15.085 55.024c-.224 0-.408.255-.408.569s.184.57.408.57c.225 0 .408-.256.408-.57s-.183-.57-.408-.57"/>
            <path fill="#DC7266"
                  d="M5.37 37.737c0-.314-.184-.569-.409-.569s-.407.255-.407.57.182.569.407.569.408-.255.408-.57"/>
            <path fill="#67C7AC"
                  d="M39.915 61.078c-.225 0-.408.255-.408.569s.183.569.408.569.408-.255.408-.57c0-.313-.184-.568-.408-.568"/>
            <path fill="#DC7266"
                  d="M45.557 35.23c.226 0 .408-.255.408-.568 0-.314-.182-.57-.408-.57-.224 0-.407.256-.407.57s.183.569.407.569"/>
            <path fill="#F8CD7A"
                  d="M21.07 36.12c-.225 0-.407.254-.407.569s.182.569.407.569.408-.255.408-.57-.183-.569-.408-.569"/>
            <path fill="#F877C1"
                  d="M23.356 43.663c.224 0 .407-.255.407-.57 0-.313-.183-.568-.407-.568-.226 0-.408.255-.408.569s.182.57.408.57"/>
            <path fill="#67C7AC"
                  d="M6.196 56.73c.224 0 .408-.255.408-.57s-.184-.569-.408-.569c-.225 0-.408.255-.408.57s.183.569.408.569"/>
            <path fill="#DC7266"
                  d="M27.979 53.499c-.225 0-.407.254-.407.569s.182.569.407.569.408-.255.408-.57-.184-.568-.408-.568"/>
            <path fill="#F8CD7A"
                  d="M35.438 36.528c.226 0 .408-.255.408-.569s-.182-.57-.408-.57c-.224 0-.407.256-.407.57s.183.57.407.57M55.429 47.35c-.225 0-.408.254-.408.568s.183.57.408.57.407-.256.407-.57-.182-.569-.407-.569M22.701 60.606c.226 0 .408-.255.408-.57s-.182-.569-.408-.569c-.224 0-.407.255-.407.57s.183.569.407.569"/>
            <path fill="#DC7266"
                  d="M44.09 52.414c0 .314.184.57.408.57.225 0 .408-.256.408-.57s-.183-.569-.408-.569-.408.255-.408.57"/>
            <path fill="#FCFFFF"
                  d="M12.374 36.12c.226 0 .408-.256.408-.57s-.182-.569-.408-.569c-.224 0-.408.255-.408.569s.184.57.408.57"/>
            <path fill="#F8CD7A"
                  d="m.976 53.811-1.325 1.826a.84.84 0 0 0-.01.911c.179.252.47.25.654-.001L1.62 54.72a.83.83 0 0 0 .01-.91c-.178-.252-.47-.251-.654 0"/>
            <path fill="#DC7266"
                  d="M2.772 48.545c.082-.335-.049-.699-.292-.814l-1.763-.837c-.244-.116-.507.061-.588.396-.082.335.05.699.293.814l1.762.837c.244.116.507-.062.588-.396"/>
            <path fill="#67C7AC"
                  d="m3.964 63.865-.816-.815c-.195-.195-.47-.125-.616.158-.145.283-.104.67.091.865l1.34 1.34.076.075c.196.195.471.125.616-.158.145-.281.105-.669-.09-.864z"/>
            <path fill="#F877C1"
                  d="M1.043 36.69c.225 0 .408-.255.408-.569s-.183-.569-.408-.569-.408.255-.408.57c0 .313.184.568.408.568M1.544 26.48c-.247-.071-.502.24-.57.694l-.482 3.288c-.066.454.082.88.329.95.248.07.504-.239.57-.693l.482-3.288c.067-.454-.08-.88-.329-.951"/>
            <path fill="#FCFFFF"
                  d="M-.075 16.926c-.162.279-.134.685.063.907s.487.177.65-.102l1.17-2.02c.162-.279.134-.685-.063-.907s-.487-.177-.65.102z"/>
            <path fill="#DC7266"
                  d="M1.175 5.64c-.053-.345-.359-.545-.684-.447l-2.351.703c-.325.096-.545.454-.492.799s.36.547.683.45L.684 6.44c.324-.097.544-.455.491-.8"/>
            <path fill="#67C7AC"
                  d="M2.893 9.475c-.224 0-.407.254-.407.569s.183.569.407.569c.226 0 .408-.255.408-.57s-.182-.568-.408-.568"/>
            <path fill="#F8CD7A"
                  d="M49.04 17.792c-.216.19-.284.586-.15.886s.419.388.636.2l1.58-1.376c.218-.19.286-.586.152-.886s-.419-.389-.637-.199zM16.573 29.342 15.12 30.97c-.2.223-.234.629-.075.905.159.275.45.316.649.091l1.45-1.628c.201-.225.235-.63.077-.906-.159-.275-.45-.317-.65-.091M8.113 12.393l1.325-1.826a.84.84 0 0 0 .009-.911c-.178-.252-.47-.25-.653.001l-1.325 1.826a.83.83 0 0 0-.01.91c.178.252.47.251.654 0"/>
            <path fill="#67C7AC"
                  d="M47.956 7.245c-.222-.17-.531.024-.69.431l-1.154 2.944c-.16.408-.108.873.115 1.043.222.17.53-.023.69-.429L48.07 8.29c.159-.407.108-.874-.114-1.044"/>
            <path fill="#FCFFFF"
                  d="m39.98 17.27 2.33.833c.322.114.633-.07.696-.412a.76.76 0 0 0-.469-.828l-2.33-.832c-.322-.114-.633.07-.695.412a.76.76 0 0 0 .469.827M52.83 2.57c.11.438.394.697.633.58.239-.115.343-.566.233-1.003L52.9-1.02c-.11-.438-.393-.698-.631-.58-.239.115-.344.565-.235 1.003z"/>
            <path fill="#F877C1"
                  d="M41.34 4.282c.143.291.43.363.642.16l1.536-1.468c.212-.203.268-.603.126-.894-.144-.292-.432-.364-.643-.16l-1.536 1.468c-.212.202-.269.602-.126.894M14.796 4.551c.074.338.332.528.578.425l1.783-.752c.245-.104.386-.462.313-.8s-.333-.528-.578-.424l-1.783.752c-.245.103-.385.46-.313.8M18.237 22.424l-1.86.095c-.258.013-.458.31-.45.663.01.352.226.628.482.615l1.861-.095c.257-.014.458-.31.448-.663-.009-.353-.225-.628-.48-.615M29.703 15.99l-1.437 2.691c-.199.372-.195.844.008 1.055.202.211.529.083.726-.29l1.437-2.69c.198-.372.195-.845-.008-1.057-.202-.21-.529-.08-.726.292M59.533 26.48c-.247-.071-.503.24-.57.694l-.482 3.288c-.067.454.082.88.329.95s.504-.239.57-.693l.482-3.288c.066-.454-.08-.88-.329-.951"/>
            <path fill="#FCFFFF"
                  d="m26.146 26.537 1.858.174c.256.024.477-.242.494-.594.018-.353-.176-.659-.432-.681l-1.859-.176c-.256-.023-.477.243-.494.596-.017.352.176.657.433.68"/>
            <path fill="#DC7266"
                  d="m27.423-.097 1.763.837c.244.116.506-.061.588-.397.081-.334-.05-.698-.293-.814l-1.763-.837c-.243-.115-.506.063-.588.397s.05.699.293.814"/>
            <path fill="#FCFFFF"
                  d="M57.914 16.926c-.163.279-.134.685.063.907s.487.177.649-.102l1.17-2.02c.163-.279.135-.685-.063-.907-.197-.222-.487-.177-.649.102zM21.768 7.202c.163.275.455.314.649.086.194-.227.218-.634.051-.908l-1.196-1.992c-.165-.274-.456-.313-.649-.086-.194.227-.218.633-.053.908z"/>
            <path fill="#67C7AC"
                  d="M36.135 21.464c-.224-.149-.49-.024-.594.279l-.745 2.197c-.103.303-.004.669.221.818s.491.024.593-.28l.746-2.196c.103-.304.005-.67-.221-.818M5.125 2.339l.815.815c.196.195.471.125.617-.158.145-.283.104-.67-.092-.865L5.125.791 5.05.717c-.196-.195-.471-.125-.616.158-.145.281-.105.669.09.865z"/>
            <path fill="#DC7266"
                  d="m38.466 31.3 2.321-.878a.766.766 0 0 0 .46-.836c-.066-.34-.38-.517-.699-.397l-2.322.878a.77.77 0 0 0-.46.836c.066.34.379.52.7.397M59.164 5.64c-.053-.345-.36-.545-.684-.447l-2.352.703c-.325.096-.545.454-.491.799.053.346.359.547.683.45l2.352-.704c.324-.097.544-.455.492-.8"/>
            <path fill="#67C7AC"
                  d="M23.207 20.516c-.224 0-.408.255-.408.568 0 .314.184.57.408.57.226 0 .408-.256.408-.57s-.182-.568-.408-.568"/>
            <path fill="#FCFFFF"
                  d="M10.556 13.274c.225 0 .407-.255.407-.57 0-.313-.182-.568-.407-.568s-.408.255-.408.569.183.569.408.569M14.777 10.748c.224 0 .408-.255.408-.569s-.184-.569-.408-.569c-.225 0-.408.255-.408.57 0 .313.183.568.408.568M33.383 17.717c-.226 0-.408.255-.408.569s.182.569.408.569c.224 0 .407-.255.407-.57 0-.313-.183-.568-.407-.568M51.993 11.18c.224 0 .408-.255.408-.569s-.184-.569-.408-.569c-.225 0-.408.255-.408.57 0 .313.183.568.408.568"/>
            <path fill="#DC7266"
                  d="M61.708 28.467c0 .314.184.569.408.569.225 0 .407-.255.407-.57s-.182-.569-.407-.569-.408.255-.408.57"/>
            <path fill="#67C7AC"
                  d="M27.163 5.126c.225 0 .407-.254.407-.569s-.182-.569-.407-.569-.408.255-.408.57.183.568.408.568"/>
            <path fill="#DC7266"
                  d="M21.52 30.974c-.225 0-.407.255-.407.568 0 .314.182.57.408.57.224 0 .407-.256.407-.57s-.183-.568-.407-.568"/>
            <path fill="#F8CD7A"
                  d="M46.008 30.085c.225 0 .407-.255.407-.57s-.182-.569-.407-.569-.408.255-.408.57.183.569.408.569"/>
            <path fill="#F877C1"
                  d="M43.722 22.541c-.224 0-.408.255-.408.57 0 .313.184.568.408.568.225 0 .408-.255.408-.569s-.183-.569-.408-.569"/>
            <path fill="#67C7AC"
                  d="M60.882 9.475c-.224 0-.408.254-.408.569s.184.569.408.569c.225 0 .407-.255.407-.57s-.182-.568-.407-.568"/>
            <path fill="#DC7266"
                  d="M39.099 12.706c.225 0 .407-.255.407-.57s-.182-.569-.407-.569-.408.255-.408.57.183.569.408.569"/>
            <path fill="#F8CD7A"
                  d="M31.64 29.676c-.226 0-.409.255-.409.569s.183.57.408.57.408-.256.408-.57-.183-.57-.408-.57M44.377 5.599c-.226 0-.408.255-.408.569s.182.569.408.569c.224 0 .407-.255.407-.57 0-.313-.183-.568-.407-.568"/>
            <path fill="#DC7266"
                  d="M55.111 19.944c-.225 0-.408.255-.408.57s.182.568.408.568c.224 0 .408-.254.408-.568 0-.315-.184-.57-.408-.57"/>
            <path fill="#67C7AC"
                  d="m63.114 2.339.815.815c.196.195.471.125.617-.158.144-.283.104-.67-.092-.865l-1.34-1.34-.075-.075c-.196-.195-.471-.125-.616.158-.145.281-.105.669.09.865z"/>
        </g>
        <mask id="f" width="85" height="84" x="-10" y="-10" maskUnits="userSpaceOnUse" style="mask-type:alpha">
            <ellipse cx="41.786" cy="41.557" fill="url(#e)" rx="41.786" ry="41.557"
                     transform="scale(-1 1)rotate(31.249 21.472 -95.542)"/>
        </mask>
        <g mask="url(#f)">
            <path fill="#F8CD7A"
                  d="M24.583 68.56c-.14.514-.563.732-.95.486-.384-.246-.583-.863-.444-1.379l1-3.736c.14-.515.564-.733.948-.488.387.247.586.864.447 1.38z"/>
            <path fill="#FCFFFF"
                  d="M9.088 61.838 6.144 58.19c-.407-.505-.532-1.123-.28-1.384.25-.26.786-.061 1.192.441l2.945 3.65c.408.504.533 1.123.28 1.383-.252.26-.787.063-1.193-.44M49.392 48.831l2.197-2.705c.304-.373.813-.38 1.138-.012.327.366.344.966.04 1.34l-2.197 2.704c-.305.374-.813.38-1.138.013-.328-.367-.344-.966-.04-1.34"/>
            <path fill="#F877C1"
                  d="M60.52 63.485c-.04-.456.254-.753.657-.664l2.923.646c.403.09.764.53.805.986.04.456-.254.753-.657.663l-2.923-.646c-.404-.089-.764-.53-.805-.985"/>
            <path fill="#FCFFFF"
                  d="m25.958 47.783 2.11-1.567c.29-.217.751-.058 1.03.354.278.412.268.922-.024 1.137l-2.11 1.569c-.292.215-.753.056-1.03-.356-.278-.412-.269-.92.023-1.137"/>
            <path fill="#67C7AC"
                  d="M41.694 46.591c-.161.343-.572.389-.918.098l-2.504-2.102c-.345-.29-.493-.802-.331-1.146s.574-.388.919-.097l2.503 2.101c.346.29.495.802.331 1.146"/>
            <path fill="#DC7266"
                  d="m37.314 33.04 3.436-.638c.475-.088.997.212 1.166.67.17.459-.08.901-.552.989l-3.438.64c-.475.088-.997-.212-1.166-.67-.169-.46.077-.903.554-.991"/>
            <path fill="#F877C1"
                  d="M1.98 57.425c-.271.165-.678-.009-.907-.387-.23-.379-.196-.82.075-.984.27-.164.677.009.907.387.23.379.195.82-.075.984"/>
            <path fill="#FCFFFF"
                  d="M41.117 53.114c-.271.164-.677-.01-.907-.388s-.196-.819.075-.983c.27-.164.678.009.908.387s.194.82-.076.983"/>
            <path fill="#DC7266"
                  d="M17.144 45.818c-.272.165-.678-.009-.907-.386-.23-.379-.197-.82.075-.984.27-.164.677.01.907.388s.195.818-.075.982"/>
            <path fill="#F8CD7A"
                  d="M47.286 28.994c.27-.165.676.01.906.388s.197.819-.075.983c-.27.164-.677-.009-.907-.387-.23-.379-.195-.82.075-.984"/>
            <path fill="#F877C1"
                  d="M50.044 39.746c-.27.164-.677-.009-.907-.387-.23-.379-.194-.82.076-.983.27-.165.677.008.906.387.23.378.196.819-.075.983"/>
            <path fill="#DC7266"
                  d="M51.665 54.974c.272-.165.677.009.907.388.23.378.196.818-.075.983-.27.163-.677-.01-.907-.388s-.195-.82.075-.983"/>
            <path fill="#F8CD7A"
                  d="M30.278 39.987c-.272.165-.677-.009-.907-.387-.23-.379-.197-.82.075-.984.27-.164.677.01.907.388s.195.82-.075.983M63.215 59.675c-.272.165-.678-.01-.907-.388-.23-.378-.197-.818.075-.983.27-.164.677.01.906.388.23.378.196.819-.074.983"/>
            <path fill="#FCFFFF"
                  d="M57.759 22.64c-.272.165-.678-.01-.907-.388-.23-.378-.196-.818.075-.982.27-.164.677.008.907.386.23.379.195.82-.075.984"/>
            <path fill="#F877C1"
                  d="M63.757 3.113c.245-.266.78-.078 1.193.42l2.984 3.607c.412.499.545 1.12.299 1.385-.247.266-.782.08-1.193-.419L64.056 4.5c-.412-.498-.546-1.118-.3-1.386"/>
            <path fill="#F8CD7A"
                  d="M.203 27.364c.4.068.771.496.83.956.057.458-.221.774-.62.705l-2.91-.502c-.4-.069-.773-.497-.83-.956-.059-.458.22-.774.622-.705zM47.747 17.542l2.94.9c.403.125.74.588.751 1.036.01.447-.31.71-.714.584l-2.938-.9c-.406-.125-.743-.588-.754-1.036-.01-.447.311-.71.715-.584"/>
            <path fill="#FCFFFF"
                  d="m10.733 20.112-2.198 2.705c-.304.373-.813.38-1.138.013-.327-.366-.344-.966-.04-1.34l2.197-2.704c.305-.374.813-.38 1.138-.013.328.366.345.966.04 1.339"/>
            <path fill="#F877C1"
                  d="M-.396 5.46c.04.456-.254.753-.657.664l-2.923-.647c-.404-.09-.764-.53-.805-.985-.04-.457.254-.754.657-.664l2.923.647c.403.088.764.529.805.984M40.688 10.427l2.31-1.246c.32-.172.778.038 1.025.47s.187.922-.13 1.093l-2.31 1.246c-.32.171-.779-.039-1.025-.47-.248-.433-.188-.922.13-1.093M22.176 11.057l3.697 2.19c.51.303.851.875.762 1.277-.09.402-.578.486-1.088.18l-3.697-2.189c-.51-.303-.852-.875-.762-1.278.09-.402.579-.483 1.088-.18"/>
            <path fill="#FCFFFF"
                  d="m34.167 21.159-2.11 1.567c-.292.216-.752.058-1.03-.355-.279-.412-.269-.921.023-1.136l2.11-1.57c.292-.215.753-.056 1.03.356.278.412.269.92-.023 1.138"/>
            <path fill="#67C7AC"
                  d="M18.43 22.35c.16-.343.572-.388.918-.098l2.503 2.102c.346.29.494.802.332 1.147-.163.343-.575.387-.92.096l-2.502-2.1c-.346-.29-.495-.803-.331-1.147"/>
            <path fill="#DC7266"
                  d="m22.81 35.902-3.436.639c-.475.088-.997-.212-1.166-.671-.17-.459.08-.9.552-.989l3.438-.639c.475-.089.997.211 1.166.67.17.459-.077.902-.554.99"/>
            <path fill="#67C7AC"
                  d="M33.307 11.759c.27-.164.677.009.906.387.23.378.195.82-.075.983-.271.165-.677-.01-.907-.388-.229-.377-.196-.817.076-.982"/>
            <path fill="#FCFFFF"
                  d="M19.007 15.828c.271-.165.677.009.907.387.23.379.196.82-.075.984-.27.164-.678-.01-.907-.388-.23-.378-.195-.82.075-.983"/>
            <path fill="#DC7266"
                  d="M42.98 23.123c.272-.165.678.01.907.387.23.378.197.819-.075.983-.27.164-.677-.009-.907-.387s-.195-.819.075-.983"/>
            <path fill="#F8CD7A"
                  d="M12.839 39.95c-.272.164-.677-.01-.907-.388-.23-.379-.197-.82.075-.984.27-.164.677.01.907.388s.195.82-.075.983"/>
            <path fill="#F877C1"
                  d="M10.08 29.195c.27-.164.677.01.907.388s.194.819-.076.983c-.271.164-.677-.009-.907-.387-.23-.379-.196-.82.076-.984"/>
            <path fill="#DC7266"
                  d="M8.459 13.967c-.272.164-.677-.01-.907-.388s-.196-.819.075-.983c.27-.164.677.009.907.387.23.379.195.82-.075.984"/>
            <path fill="#F8CD7A"
                  d="M29.846 28.958c.272-.165.677.01.907.388s.197.818-.075.983c-.27.164-.677-.009-.907-.388-.23-.378-.195-.819.075-.983"/>
        </g>
    </g>
    <defs>
        <radialGradient id="c" cx="0" cy="0" r="1" gradientTransform="matrix(0 48.2365 -48.5031 0 31.58 32.258)"
                        gradientUnits="userSpaceOnUse">
            <stop stop-color="#D9D9D9" stop-opacity="0"/>
            <stop offset=".319" stop-color="#C5C5C5" stop-opacity="0"/>
            <stop offset=".604" stop-color="#B8B8B8"/>
            <stop offset="1" stop-color="#737373" stop-opacity="0"/>
        </radialGradient>
        <radialGradient id="e" cx="0" cy="0" r="1" gradientTransform="matrix(0 34.4083 -34.5985 0 41.786 41.557)"
                        gradientUnits="userSpaceOnUse">
            <stop stop-color="#D9D9D9" stop-opacity="0"/>
            <stop offset=".319" stop-color="#C5C5C5" stop-opacity="0"/>
            <stop offset=".604" stop-color="#B8B8B8"/>
            <stop offset="1" stop-color="#737373" stop-opacity="0"/>
        </radialGradient>
        <clipPath id="a">
            <path fill="#fff" d="M0 0h64v64H0z"/>
        </clipPath>
        <clipPath id="b">
            <path fill="#fff" d="M0 0h64v64H0z"/>
        </clipPath>
    </defs>
</svg>