<svg xmlns="http://www.w3.org/2000/svg" width="361" height="249" fill="none"><g clip-path="url(#a)"><rect width="361" height="249" x=".005" fill="url(#b)" fill-opacity=".7" rx="12"/><path fill="#fff" d="m179.244 406.85 56.35-414.737-112.376.62 56.026 430.43V406.85Z" opacity=".6"/><path fill="#fff" d="M181.769 355.281-108 57.5 61.593-28.008l132.663 386.867-12.487-3.578Z" opacity=".6"/><path fill="#fff" d="M174.336 353.403 496.5 60.5 302.385-27.328 161.778 356.723l12.558-3.32Z" opacity=".6"/><path fill="url(#c)" fill-rule="evenodd" d="M254.541 103.337c3.663-7.946 13.34-28.856 25.03-48.629-5.422-.576-10.028-.136-13.03 1.643v-.002c-7.021-4.503-13.873-6.5-20.096-6.501-10.503 13.477-19.131 25.807-20.637 28.597 3.487 11.112 13.919 19.07 28.424 24.7l.309.192Zm78.55-18.195c-1.201-3.526-4.129-7.155-8.144-10.626-6.298 21.994-14.704 43.316-17.886 51.543 13.687 7.042 26.878 8.387 37.488 3.947.948-3.054 3.975-17.587 6.62-34.294-4.393-4.929-10.49-8.665-18.078-10.57Zm12.711-52.151h-.001c.493 5.449.493 5.447.001 0Zm-50.009-21.569c-3.341 2.623-3.341 2.623.001 0h-.001Z" clip-rule="evenodd"/><path fill="url(#d)" fill-rule="evenodd" d="M324.947 74.514c-11.283-9.761-31.145-18.29-45.376-19.807-11.691 19.774-21.368 40.683-25.031 48.629 7.231 11.531 43.618 26.466 52.521 22.721 3.182-8.227 11.59-29.554 17.886-51.543Zm26.161 21.584c-2.599 16.343-5.546 30.529-6.524 33.792 7.299-1.089 12.428-3.79 14.475-8.146 1.172-2.711 1.062-5.853-.168-9.279-.902-6.249-3.503-11.976-7.624-16.644l-.098-.11-.061.387ZM228.96 56.253c-3.34 1.45-5.705 3.521-6.878 6.23l-.077.187-.067.166-.062.166-.06.166-.056.169-.061.194-.048.168-.047.17-.043.166-.035.149-.036.17-.035.168-.01.054c-.02.107-.039.215-.056.325l-.025.174-.007.054c-.018.13-.032.262-.046.394l-.014.175-.005.055-.016.287-.008.185-.003.126c-.072 3.606 1.529 7.718 4.542 12.092 1.506-2.79 10.135-15.12 20.638-28.597-6.766-.003-12.792 2.353-17.485 6.407Z" clip-rule="evenodd"/><path fill="url(#e)" fill-rule="evenodd" d="M254.13 18.196c-13.504 8.508-24.777 21.197-31.688 37.173-1.532 3.541-1.863 7.239-1.178 11.005.025-1.374.293-2.676.818-3.89 1.173-2.71 3.538-4.78 6.877-6.23.241-.973.567-1.941.981-2.9 5.608-12.96 14.069-25.614 24.19-35.158Zm115.603 51.717c-.475 13.366-4.038 27.459-9.401 39.853a18.369 18.369 0 0 1-1.441 2.7c1.23 3.427 1.34 6.569.167 9.278-.525 1.215-1.29 2.301-2.274 3.26 3.213-2.079 5.682-4.851 7.214-8.394 6.64-15.347 8.314-31.552 5.735-46.697Zm-36.642 15.228c22.72-53.134 12.043-69.132-6.184-77.017C308.68.239 289.71 3.41 266.54 56.349c13.683-8.107 60.688 11.59 66.551 28.792Z" clip-rule="evenodd"/><path fill="url(#f)" fill-rule="evenodd" d="M342.395 21.044c6.104 11.179 5.283 29.985-9.304 64.095 14.805 3.72 23.936 14.404 25.8 27.326a18.42 18.42 0 0 0 1.441-2.7c14.027-32.421 15.748-76.46-17.937-88.721ZM306.885 5.68c-31.039-15.231-62.918 15.25-76.945 47.672-.414.96-.74 1.926-.98 2.9 9.009-7.782 22.925-9.307 37.58.095C281.415 22.36 294.559 8.886 306.885 5.68Z" clip-rule="evenodd"/><path fill="#8FBCFF" fill-rule="evenodd" d="m263.053 168.468 43.525-43.038a.67.67 0 0 1 .941.953l-49.494 48.941 100.342-63.821a.67.67 0 0 1 .718 1.131l-91.603 58.261 76.754-41.491a.67.67 0 1 1 .636 1.177l-91.842 49.648-.001.001-.003.002-.003.001-.004.002-.001.001-.002.001-.002.001-.002.001-.002.002-.006.002-.001.001-.002.001-.003.001-.001.001-.003.001-.005.003-.003.001-.003.001-.004.002-.009.005-.006.002-.014.006h-.001l-.002.001-.005.002-.01.004-.006.002h-.001l-.008.003-.006.002h-.002l-.001.001-.007.002-.006.002h-.001l-.003.001-.001.001-.005.001-.004.001-.003.001-.003.001h-.002l-.003.001-.004.001-.003.001-.003.001h-.002l-.002.001h-.003l-.003.001-.004.001h-.002l-.001.001h-.003l-.003.001h-.003l-.004.001-.002.001h-.001l-.004.001h-.005l-.004.001h-.002l-.002.001-.005.001h-.003l-.004.001h-.004l-.006.001h-.002l-.004.001h-.004l-.006.001h-.002l-.005.001h-.008l-.003.001h-.011l-.005.001h-.012a.58.58 0 0 1-.125-.007h-.002l-.009-.001-.003-.001-.003-.001h-.006l-.003-.001-.002-.001-.006-.001-.017-.003-.015-.004-.009-.003-.007-.001-.009-.003h-.001v-.001l-.007-.001-.007-.003h-.002l-.002-.001-.004-.001-.002-.001-.001-.001h-.003l-.004-.002h-.003l-.001-.002h-.003l-.004-.002-.004-.002-.004-.001h-.001l-.002-.001-.004-.002-.005-.002-.003-.001-.004-.001-.004-.002-.004-.002-.003-.002-.004-.001-.004-.002-.004-.002-.004-.001-.003-.002-.003-.002-.005-.002-.003-.002-.003-.002-.004-.001-.004-.003-.005-.002-.002-.001-.002-.002-.006-.003-.003-.001-.055-.02-.011-.005-.002-.001h-.002l-.011-.005a.69.69 0 0 1-.24-.184v-.002l-.002-.003-.005-.005-.002-.002-.002-.002-.005-.008-.001-.002a.684.684 0 0 1-.084-.147l-.005-.015a.49.49 0 0 1-.034-.123l-.298-1.563-26.315-99.497a.67.67 0 0 1 1.294-.344l21.494 81.272-19.649-103.463a.67.67 0 0 1 1.317-.249l22.412 118.019 1.62-70.606a.67.67 0 0 1 1.339.032l-1.413 61.59 12.483-109.504a.67.67 0 0 1 1.331.152l-13.908 121.989 79.391-93.66a.67.67 0 1 1 1.021.865l-70.974 83.731Z" clip-rule="evenodd"/><path fill="url(#g)" fill-rule="evenodd" d="M120.213 83.296c-4.363-9.086-15.888-32.998-29.711-55.562 6.235-.763 11.549-.339 15.039 1.656v-.002c8.007-5.314 15.863-7.738 23.031-7.852 12.341 15.335 22.503 29.382 24.288 32.57-3.816 12.861-15.688 22.218-32.296 28.964l-.351.226Zm-90.81-19.54c1.32-4.083 4.627-8.316 9.188-12.387 7.652 25.221 17.72 49.63 21.534 59.048-15.639 8.36-30.809 10.147-43.11 5.224-1.148-3.5-4.897-20.186-8.246-39.383 4.972-5.757 11.928-10.17 20.633-12.502ZM13.82 3.913c-.469 6.285-.47 6.284 0 0Zm57.214-25.748c3.896 2.962 3.896 2.962 0 0Z" clip-rule="evenodd"/><path fill="url(#h)" fill-rule="evenodd" d="M38.591 51.368c12.822-11.448 35.547-21.63 51.912-23.635 13.823 22.566 25.347 46.477 29.71 55.563-8.121 13.413-49.765 31.273-60.087 27.121-3.815-9.42-13.885-33.834-21.535-59.05ZM8.847 76.703c3.29 18.778 6.94 35.066 8.126 38.806-8.428-1.122-14.385-4.141-16.821-9.122-1.4-3.101-1.33-6.722.025-10.691.926-7.215 3.82-13.858 8.482-19.309l.11-.13.078.446ZM148.83 28.6c3.873 1.609 6.635 3.953 8.035 7.052l.092.214.08.19.075.19.071.19.068.194.074.223.059.192.057.195.052.19.043.171.045.195.043.193.012.062c.026.123.049.248.071.374l.032.2.009.062c.023.15.041.301.059.453l.02.201.007.064c.008.11.017.22.023.33l.013.213.006.144c.149 4.153-1.622 8.918-5.014 14.011-1.785-3.185-11.947-17.233-24.289-32.568 7.794-.125 14.777 2.48 20.257 7.065Z" clip-rule="evenodd"/><path fill="url(#i)" fill-rule="evenodd" d="M119.148-14.785c15.709 9.557 28.923 23.97 37.173 42.246 1.829 4.052 2.276 8.305 1.555 12.656-.054-1.582-.386-3.077-1.013-4.466-1.399-3.1-4.161-5.442-8.034-7.053a21.176 21.176 0 0 0-1.182-3.32c-6.694-14.83-16.668-29.252-28.499-40.063ZM-13.08 46.875c.788 15.387 5.148 31.556 11.548 45.736a21.238 21.238 0 0 0 1.71 3.085c-1.356 3.968-1.425 7.59-.026 10.69.627 1.389 1.528 2.626 2.679 3.713-3.74-2.337-6.633-5.485-8.462-9.538-7.925-17.558-10.146-36.194-7.449-53.686Zm42.483 16.88C2.272 2.96 14.283-15.661 35.135-25.074c20.853-9.412 42.762-6.102 70.407 54.46-15.908-9.091-69.697 14.447-76.14 34.367Z" clip-rule="evenodd"/><path fill="url(#j)" fill-rule="evenodd" d="M17.528-9.91C10.7 3.077 11.985 24.725 29.403 63.753 12.417 68.304 2.092 80.776.178 95.695a21.252 21.252 0 0 1-1.71-3.084C-18.274 55.519-21.052 4.822 17.528-9.91Zm40.627-18.337c35.478-18.105 72.75 16.43 89.492 53.523a21.183 21.183 0 0 1 1.182 3.323c-10.518-8.801-26.575-10.306-43.287.788C87.794-9.493 72.41-24.777 58.155-28.247Z" clip-rule="evenodd"/><path fill="#8FBCFF" fill-rule="evenodd" d="m111.584 158.474-50.913-48.789a.772.772 0 0 0-1.067 1.115l57.896 55.48L.764 94.577a.773.773 0 0 0-.807 1.316l106.57 65.457-89.162-46.409a.77.77 0 1 0-.712 1.368l106.689 55.532.001.001.004.001.003.002.005.002.001.001.002.001.003.002h.001l.004.002.006.003.002.001.001.001.003.001.002.001.003.002.007.002.003.002.003.001.005.002.011.005.006.003.016.007h.004l.006.003.012.004.006.002.002.001.009.003.007.002h.002l.001.001.008.003.007.001.002.001.003.001h.001l.005.002.005.001.004.001.003.001h.003l.003.001.005.002h.004l.003.001h.002l.003.001.003.001h.004l.005.002h.003l.003.001.003.001h.004l.005.001h.001l.002.001.005.001h.005l.005.001h.002l.003.001.005.001h.003l.005.001h.005l.007.001h.002l.005.001h.005l.007.001h.001l.007.001h.008l.004.001h.013l.005.001h.014a.78.78 0 0 0 .145-.01l.001-.001.011-.001.003-.001.004-.001.007-.001.003-.001.002-.001.007-.001.019-.004.018-.005.011-.003.007-.002.011-.003.001-.001.007-.002.009-.003.002-.001h.002l.005-.002.002-.001.002-.001.004-.001.003-.001.004-.001.002-.002h.003l.004-.002.005-.002.004-.001.002-.002h.002l.005-.003.005-.002.004-.001.004-.002.005-.002.004-.002.003-.002.006-.002.004-.002.005-.002.004-.002.003-.002.004-.002.006-.003.003-.002.004-.002.004-.002.005-.003.006-.003.002-.001.001-.002.008-.003.003-.002a.681.681 0 0 0 .063-.024l.013-.006.002-.001h.002l.013-.006v-.001a.756.756 0 0 0 .272-.216l.001-.001.002-.004.006-.006.002-.002.002-.003.006-.009.001-.002a.746.746 0 0 0 .094-.171l.006-.017a.67.67 0 0 0 .037-.143l.314-1.805 28.516-115.086a.771.771 0 0 0-1.497-.372l-23.291 94.004 20.765-119.532a.772.772 0 0 0-1.521-.263L124.225 164.51l-3.14-81.301a.771.771 0 0 0-1.542.06l2.74 70.92-16.357-125.911a.771.771 0 0 0-1.529.199l18.222 140.267-93.14-106.452a.771.771 0 1 0-1.16 1.015l83.265 95.167Z" clip-rule="evenodd"/><path fill="#77A8F2" d="M11.197 141.236a.21.21 0 0 1 .318-.227l2.51 1.65a6.284 6.284 0 0 0 4.807.884l2.748-.607a.21.21 0 0 1 .2.346l-1.482 1.62a6.284 6.284 0 0 0-1.497 5.608l.494 2.216a.21.21 0 0 1-.33.213l-2.098-1.571a6.283 6.283 0 0 0-5.547-.996l-2.415.713c-.2.059-.354-.178-.22-.337l1.694-1.986a6.285 6.285 0 0 0 1.303-5.644l-.485-1.882Z" opacity=".15"/><g clip-path="url(#k)"><circle cx="188.005" cy="164" r="32" fill="#2775CA"/><path fill="#fff" d="M196.87 168.799c0-4.667-2.8-6.267-8.4-6.933-4-.534-4.8-1.6-4.8-3.467s1.334-3.067 4-3.067c2.4 0 3.734.8 4.4 2.8.134.4.534.667.934.667h2.133c.533 0 .933-.4.933-.933v-.134a6.66 6.66 0 0 0-6-5.466v-3.2c0-.534-.4-.934-1.066-1.067h-2c-.534 0-.934.4-1.067 1.067v3.066c-4 .534-6.533 3.2-6.533 6.534 0 4.4 2.666 6.133 8.266 6.8 3.734.666 4.934 1.466 4.934 3.6 0 2.133-1.867 3.6-4.4 3.6-3.467 0-4.667-1.467-5.067-3.467-.133-.533-.533-.8-.933-.8h-2.267c-.533 0-.933.4-.933.933v.134c.533 3.333 2.666 5.733 7.066 6.4v3.2c0 .533.4.933 1.067 1.066h2c.533 0 .933-.4 1.067-1.066v-3.2c4-.667 6.666-3.467 6.666-7.067Z"/><path fill="#fff" d="M181.27 182.8c-10.4-3.734-15.733-15.334-11.866-25.6 2-5.6 6.4-9.867 11.866-11.867.534-.267.8-.667.8-1.333v-1.867c0-.533-.266-.933-.8-1.067-.133 0-.4 0-.533.134-12.667 4-19.6 17.466-15.6 30.133 2.4 7.467 8.133 13.2 15.6 15.6.533.267 1.067 0 1.2-.533.133-.134.133-.267.133-.534V184c0-.4-.4-.934-.8-1.2Zm14.134-41.6c-.534-.267-1.067 0-1.2.533-.134.133-.134.267-.134.533v1.867c0 .533.4 1.067.8 1.333 10.4 3.734 15.734 15.334 11.867 25.6-2 5.6-6.4 9.867-11.867 11.867-.533.267-.8.667-.8 1.333v1.867c0 .533.267.933.8 1.067.134 0 .4 0 .534-.134 12.666-4 19.6-17.466 15.6-30.133-2.4-7.6-8.267-13.333-15.6-15.733Z"/></g><g clip-path="url(#l)"><path fill="#F7931A" stroke="#EBF3FF" stroke-width="1.25" d="m283.472 212.173-.108.177c-12.12 19.576-37.801 25.697-57.463 13.655-19.712-12.073-25.907-37.848-13.831-57.562h.001c12.073-19.719 37.849-25.914 57.564-13.84 19.719 12.076 25.914 37.853 13.837 57.57Z"/><path fill="#fff" d="M267.468 190.162c2.506-5.141-.688-9.334-5.695-13.038l4.124-6.733-4.1-2.51-4.015 6.556c-1.077-.66-2.192-1.313-3.3-1.962l4.043-6.599-4.097-2.509-4.124 6.731c-.898-.525-1.78-1.043-2.63-1.563l.012-.021-5.652-3.464-2.68 4.378s3.062 1.796 2.978 1.821c1.66 1.017 1.61 2.312 1.258 3.24l-4.698 7.671c.114.07.261.167.416.294-.137-.084-.282-.174-.434-.265l-6.583 10.746c-.392.478-1.21 1.123-2.371.414.024.079-2.979-1.825-2.979-1.825l-3.813 4.396 5.335 3.267c.992.609 1.958 1.224 2.914 1.817l-4.17 6.811 4.095 2.508 4.126-6.738c1.111.712 2.193 1.387 3.256 2.037l-4.11 6.706 4.1 2.51 4.165-6.798c7.133 3.825 13.02 5.044 17.582-1.061 3.675-4.914 2.647-8.74-.689-12.075 3.118.246 5.91-.976 7.737-4.741l-.001-.002v.001Zm-14.654 11.049c-3.115 5.09-11.475-.826-14.255-2.524l5.528-9.023c2.778 1.703 11.979 6.239 8.727 11.547Zm5.891-13.898c-2.837 4.629-9.775-.362-12.089-1.779l5.013-8.183c2.314 1.417 10.033 5.133 7.076 9.962Z"/></g><path fill="#fff" d="M233.818 146.337a.223.223 0 0 1 .322.264l-1.006 3.038a6.693 6.693 0 0 0 .415 5.19l1.382 2.661c.101.193-.107.401-.301.301l-2.075-1.078a6.69 6.69 0 0 0-6.183.005l-2.145 1.119a.223.223 0 0 1-.31-.28l1.038-2.592a6.694 6.694 0 0 0-.504-5.983l-1.4-2.289c-.116-.189.086-.413.286-.318l2.511 1.195a6.697 6.697 0 0 0 6.167-.215l1.803-1.018Z"/><g clip-path="url(#m)"><circle cx="121.435" cy="178.683" r="43.5" fill="#fff" transform="rotate(-19.294 121.435 178.683)"/><circle cx="121.435" cy="178.683" r="42.5" stroke="url(#n)" stroke-opacity=".6" stroke-width="2" transform="rotate(-19.294 121.435 178.683)"/><path fill="url(#o)" d="M130.959 160.756c-3.06 1.071-5.858 3.775-8.325 8.035-1.171 2.019-2.078 4.06-2.731 5.668l.013.006-.004-.009s2.35 1.225 4.925 2.518c.603-1.538 1.503-3.661 2.677-5.702 2.195-3.788 4.039-5.071 5.208-5.48 4.401-1.541 9.17.624 10.64 4.822 1.46 4.17-.927 8.841-5.309 10.406a4.27 4.27 0 0 1-.812.18c1.472.09 2.987-.001 4.299-.46 8.059-2.822 7.835-8.521 7.809-8.93a12.683 12.683 0 0 0-.668-3.068c-2.438-6.963-10.394-10.551-17.722-7.986Z"/><path fill="url(#p)" d="M111.673 195.928c3.06-1.071 5.858-3.775 8.325-8.035 1.171-2.019 2.078-4.06 2.731-5.668l-.013-.006.004.009s-2.35-1.226-4.925-2.518c-.603 1.538-1.503 3.661-2.677 5.702-2.195 3.788-4.039 5.071-5.208 5.48-4.404 1.531-9.173-.634-10.643-4.832-1.46-4.17.927-8.84 5.308-10.405.2-.07.466-.132.812-.18-1.472-.091-2.987.001-4.298.46-8.06 2.821-7.826 8.518-7.813 8.921.095 1.032.314 2.053.669 3.068 2.444 6.981 10.4 10.569 17.728 8.004Z"/><path fill="#29ABE2" d="M141.484 180.633c-4.161 1.342-9.561-.341-10.713-.826-2.979-1.256-10.135-4.968-10.697-5.263-5.29-2.86-12.112-5.738-17.264-3.935l-.009.004-.01.003c-6.243 2.217-10.046 8.209-9.513 14.239-.023-.399.201-6.371 7.832-8.833 4.16-1.342 9.596.381 10.757.863 2.979 1.256 10.136 4.967 10.698 5.262 5.287 2.851 12.109 5.729 17.26 3.926l.009-.004.01-.003c6.244-2.217 10.056-8.212 9.514-14.24.013.403-.238 6.332-7.874 8.807Z"/></g><path fill="#77A8F2" d="M190.665 51.608a.468.468 0 0 1 .787.376l-.521 6.684a14.022 14.022 0 0 0 3.448 10.348l4.147 4.718a.468.468 0 0 1-.461.763l-4.762-1.152a14.023 14.023 0 0 0-12.573 3.114l-3.8 3.352a.467.467 0 0 1-.772-.415l.811-5.793c.613-4.384-.879-8.8-4.027-11.914l-3.996-3.953c-.331-.327-.033-.883.422-.79l5.707 1.17a14.022 14.022 0 0 0 12.433-3.533l3.157-2.975Z" opacity=".16"/></g><defs><linearGradient id="b" x1="73.951" x2="73.951" y1="249" y2="44.258" gradientUnits="userSpaceOnUse"><stop stop-color="#7EB2FF" stop-opacity="0"/><stop offset="1" stop-color="#7EB2FF"/></linearGradient><linearGradient id="c" x1="298.907" x2="279.186" y1="138.181" y2="14.061" gradientUnits="userSpaceOnUse"><stop stop-color="#0153CC"/><stop offset="1" stop-color="#1674FF"/></linearGradient><linearGradient id="d" x1="294.745" x2="264.914" y1="53.875" y2="112.093" gradientUnits="userSpaceOnUse"><stop stop-color="#CFE2FF"/><stop offset="1" stop-color="#fff"/></linearGradient><linearGradient id="f" x1="303.327" x2="262.094" y1="14.393" y2="80.465" gradientUnits="userSpaceOnUse"><stop stop-color="#CFE2FF"/><stop offset="1" stop-color="#fff"/></linearGradient><linearGradient id="g" x1="69.737" x2="90.212" y1="124.234" y2="-19.095" gradientUnits="userSpaceOnUse"><stop stop-color="#0153CC"/><stop offset="1" stop-color="#1674FF"/></linearGradient><linearGradient id="h" x1="73.009" x2="108.422" y1="27.049" y2="93.571" gradientUnits="userSpaceOnUse"><stop stop-color="#CFE2FF"/><stop offset="1" stop-color="#fff"/></linearGradient><linearGradient id="j" x1="62.41" x2="111.1" y1="-18.276" y2="57.087" gradientUnits="userSpaceOnUse"><stop stop-color="#CFE2FF"/><stop offset="1" stop-color="#fff"/></linearGradient><linearGradient id="n" x1="143.381" x2="83.379" y1="137.787" y2="201.401" gradientUnits="userSpaceOnUse"><stop stop-color="#8FBCFF"/><stop offset="1" stop-color="#8FBCFF" stop-opacity=".2"/></linearGradient><linearGradient id="o" x1="124.622" x2="148.858" y1="164.848" y2="177.358" gradientUnits="userSpaceOnUse"><stop offset=".21" stop-color="#F15A24"/><stop offset=".684" stop-color="#FBB03B"/></linearGradient><linearGradient id="p" x1="118.009" x2="93.774" y1="191.835" y2="179.326" gradientUnits="userSpaceOnUse"><stop offset=".21" stop-color="#ED1E79"/><stop offset=".893" stop-color="#522785"/></linearGradient><clipPath id="a"><rect width="361" height="249" x=".005" fill="#fff" rx="12"/></clipPath><clipPath id="k"><path fill="#fff" d="M0 0h64v64H0z" transform="translate(156.005 132)"/></clipPath><clipPath id="l"><path fill="#fff" d="M207.236 177.536c7.052-22.387 30.918-34.819 53.306-27.766 22.387 7.052 34.819 30.918 27.766 53.306-7.052 22.387-30.918 34.819-53.306 27.766-22.387-7.052-34.819-30.918-27.766-53.306Z"/></clipPath><clipPath id="m"><path fill="#fff" d="M80.379 193.057c-7.939-22.675 4.008-47.492 26.683-55.43 22.675-7.938 47.492 4.008 55.43 26.683 7.938 22.675-4.008 47.492-26.683 55.43-22.675 7.938-47.492-4.008-55.43-26.683Z"/></clipPath><radialGradient id="e" cx="0" cy="0" r="1" gradientTransform="matrix(-79.43165 17.87739 -15.24621 -67.74099 317.866 29.472)" gradientUnits="userSpaceOnUse"><stop stop-color="#84B6FF"/><stop offset=".685" stop-color="#1F77FB"/><stop offset="1" stop-color="#3F8AFA"/></radialGradient><radialGradient id="i" cx="0" cy="0" r="1" gradientTransform="rotate(11.786 26.093 222.188) scale(93.7969 79.9919)" gradientUnits="userSpaceOnUse"><stop stop-color="#84B6FF"/><stop offset=".685" stop-color="#1F77FB"/><stop offset="1" stop-color="#3F8AFA"/></radialGradient></defs></svg>