<svg width="80" height="80" viewBox="0 0 80 80" fill="none" xmlns="http://www.w3.org/2000/svg">
    <rect width="80" height="80" fill="white"/>
    <path d="M30.2578 42.2499C34.3777 42.2499 37.7174 38.9102 37.7174 34.7906C37.7174 30.6708 34.3777 27.3311 30.2578 27.3311C26.1382 27.3311 22.7985 30.6708 22.7985 34.7906C22.7985 38.9102 26.1382 42.2499 30.2578 42.2499Z" fill="#201D1D"/>
    <path d="M49.7503 42.2499C53.8701 42.2499 57.2098 38.9102 57.2098 34.7906C57.2098 30.6708 53.8701 27.3311 49.7503 27.3311C45.6305 27.3311 42.2907 30.6708 42.2907 34.7906C42.2907 38.9102 45.6305 42.2499 49.7503 42.2499Z" fill="#201D1D"/>
    <path d="M39.9999 4C19.7458 4 3.32471 20.7339 3.33001 41.3699H12.6981C12.6981 25.9048 24.8248 13.3663 39.9999 13.3663C55.1753 13.3663 67.3019 25.9048 67.3019 41.3699H76.67C76.6736 20.7339 60.2524 4 39.9999 4Z" fill="#201D1D"/>
</svg>
