<svg width="248" height="248" viewBox="0 0 248 248" fill="none" xmlns="http://www.w3.org/2000/svg">
<circle cx="124" cy="124" r="124" fill="black"/>
<path d="M101.792 174.384C94.0624 178.131 85.9562 180.004 77.096 180.004C69.3668 180.004 62.3918 178.505 56.1707 175.321C49.9497 172.324 45.0483 168.016 41.278 162.396C37.6962 156.776 35.811 150.407 35.811 143.102C35.811 131.488 40.3354 122.122 49.3842 114.817C58.4329 107.511 72.006 103.952 89.915 103.952H118.192C117.815 97.0213 115.93 91.589 112.348 87.6553C108.767 83.7216 103.865 81.661 97.8327 81.661C92.1772 81.661 87.6529 83.1596 84.0711 85.9694C80.4893 88.7792 78.0386 92.7129 76.9075 97.5832H38.2617C40.1469 88.4045 43.7287 80.3498 49.1956 73.0443C54.6626 65.9262 61.6377 60.1192 70.1209 55.9982C78.6041 51.8772 88.2184 49.8167 98.7753 49.8167C110.086 49.8167 120.266 52.0645 129.126 56.3728C137.987 60.6812 144.962 67.0501 149.863 75.1048C154.764 83.1596 157.404 92.7129 157.404 103.577V177.382H118.569V159.773C115.176 165.58 109.709 170.451 101.98 174.197L101.792 174.384ZM103.865 147.972C108.013 145.912 111.594 143.102 114.234 139.168C116.873 135.235 118.192 130.926 118.192 126.056V124.557H94.2509C87.8414 124.557 83.1285 125.869 80.1122 128.304C77.096 130.739 75.3993 134.111 75.3993 138.044C75.3993 141.978 76.7189 145.35 79.5467 147.598C82.3744 149.845 85.9562 151.157 90.8576 151.157C95.382 151.157 99.7179 150.22 104.054 148.16L103.865 147.972Z" fill="#FEFFFF"/>
<path d="M203.206 177.374H164.56C164.56 156.207 181.904 138.973 203.206 138.973V177.374V177.374Z" fill="#4F8BFF"/>
</svg>
