<svg width="80" height="80" viewBox="0 0 80 80" fill="none" xmlns="http://www.w3.org/2000/svg">
    <rect width="80" height="80" fill="#080A0D"/>
    <path fill-rule="evenodd" clip-rule="evenodd" d="M18.4097 56.9824C16.9145 56.0837 16 54.4834 16 52.7648V43.1688C16 42.8014 16.1001 42.4474 16.287 42.1326C16.8678 41.1486 18.1561 40.8142 19.1574 41.3913L41.1989 54.0176C42.4872 54.7588 43.2815 56.1101 43.2815 57.5792V67.5229C43.2815 67.9754 43.1546 68.428 42.9144 68.815C42.1867 69.9825 40.6381 70.3499 39.4499 69.6349L18.4097 56.9824ZM51.265 38.761C52.5532 39.5023 53.3476 40.8536 53.3476 42.3227V62.4985C53.3476 63.0955 53.0205 63.6464 52.4932 63.935L47.667 66.6047C47.6069 66.6374 47.5402 66.6637 47.4735 66.6833V55.4803C47.4735 54.0307 46.6992 52.6861 45.4309 51.9384L26.0728 40.5584V27.9124C26.0728 27.545 26.173 27.1908 26.3599 26.876C26.9406 25.8921 28.2289 25.5576 29.2302 26.1348L51.265 38.761ZM60.9107 23.8588C62.2056 24.5934 63 25.9577 63 27.427V56.8972C63 57.5005 62.6595 58.058 62.1189 58.3466L57.5462 60.7735V40.2566C57.5462 38.8071 56.7721 37.4689 55.5105 36.7212L35.7252 25.0591V13.0625C35.7252 12.6952 35.8253 12.341 36.0055 12.0262C36.5863 11.0423 37.8746 10.7078 38.8759 11.2784L60.9107 23.8588Z" fill="#00D395"/>
</svg>
