<svg fill="none" height="64" viewBox="0 0 64 64" width="64" xmlns="http://www.w3.org/2000/svg"><rect fill="#6200ea" height="64" rx="32" width="64"/><path clip-rule="evenodd" d="m42.8089 45.0234c2.6803-2.2622 4.3706-5.237 5.0765-8.8909l.1146-.5933-8.6908-2.1727-.1228.6685c-.34 1.8511-1.0854 3.2806-2.21 4.3326l-.0038.0035-.0037.0037c-1.042 1.0072-2.6188 1.5619-4.8403 1.5619-1.0125 0-1.961-.1492-2.8491-.4439-.8794-.3313-1.6429-.8058-2.2967-1.4234-.6492-.6131-1.1805-1.3764-1.5892-2.301-.364-.9522-.5525-2.0487-.5525-3.2993v-.3603c0-1.2541.1896-2.3532.5555-3.3073.4126-1.0108.9482-1.8348 1.5992-2.4859l.0061-.0061.006-.0062c.6596-.6963 1.4261-1.2254 2.304-1.5911.8799-.3667 1.8169-.5514 2.8167-.5514 2.2023 0 3.8226.6045 4.9526 1.7345 1.1844 1.1843 1.8797 2.578 2.1006 4.1983l.0969.7107 8.7204-2.2504-.1137-.5889c-.7065-3.6569-2.4189-6.6324-5.1402-8.894-2.7025-2.2793-6.2217-3.391-10.4965-3.391-2.2339 0-4.3515.3726-6.3482 1.1214l-.0042.0015c-1.9579.7499-3.6906 1.835-5.1933 3.2541l-.0032.0031-.0033.0032c-1.4669 1.425-2.615 3.1398-3.4466 5.1356-.8375 2.0101-1.2499 4.2567-1.2499 6.7298v.7205c0 2.4727.4123 4.7014 1.2518 6.6742.8335 1.9587 1.9853 3.6171 3.4588 4.9643 1.4662 1.3405 3.1809 2.3636 5.1368 3.0711l.0041.0014c1.9949.7066 4.1289 1.0573 6.3972 1.0573 4.3508 0 7.894-1.1097 10.5602-3.3941z" fill="#fff" fill-rule="evenodd"/></svg>