<svg width="64" height="64" viewBox="0 0 64 64" fill="none" xmlns="http://www.w3.org/2000/svg">
    <rect width="64" height="64" fill="black"/>
    <path d="M34.0481 14.9331H30.6348L31.6588 15.9571V22.7763C31.6588 23.0489 31.5531 23.3073 31.3598 23.4995C30.1359 24.7167 25.4708 29.3574 23.3112 31.5171C23.0446 31.7837 23.0446 32.2159 23.3112 32.4824C25.4708 34.6421 30.1359 39.2828 31.3598 40.5C31.5531 40.6923 31.6588 40.9506 31.6588 41.2232V48.0424L30.4641 49.0664H33.3655L32.3415 48.0424V41.2215C32.3415 40.95 32.4493 40.6895 32.6413 40.4975L40.4978 32.6411C40.6898 32.4489 40.9503 32.3411 41.2219 32.3411H47.7015L49.0668 33.3651V30.6344L47.7015 31.6584H41.2219C40.9503 31.6584 40.6898 31.5506 40.4978 31.3585L32.6413 23.5021C32.4493 23.31 32.3415 23.0496 32.3415 22.778V15.9571L34.0481 14.9331Z" fill="#030303"/>
    <path d="M21.76 14.9331C17.9898 14.9331 14.9333 17.9895 14.9333 21.7598V42.2398C14.9333 46.01 17.9898 49.0664 21.76 49.0664H30.6347C31.2002 49.0664 31.6587 48.608 31.6587 48.0424V41.2232C31.6587 40.9506 31.553 40.6923 31.3597 40.5C30.1358 39.2828 25.4707 34.6421 23.3111 32.4824C23.0445 32.2159 23.0445 31.7837 23.3111 31.5171C25.4707 29.3574 30.1358 24.7167 31.3597 23.4995C31.553 23.3073 31.6587 23.0489 31.6587 22.7763V15.9571C31.6587 15.3916 31.2002 14.9331 30.6347 14.9331H21.76Z" fill="white"/>
    <path d="M33.3654 14.9331C32.7999 14.9331 32.3414 15.3916 32.3414 15.9571V22.778C32.3414 23.0496 32.4493 23.31 32.6414 23.5021L40.4978 31.3585C40.6898 31.5506 40.9503 31.6584 41.2219 31.6584H48.0428C48.6083 31.6584 49.0668 31.2 49.0668 30.6344V21.7598C49.0668 17.9895 46.0103 14.9331 42.2401 14.9331H33.3654Z" fill="white"/>
    <path d="M49.0668 33.3653C49.0668 32.7998 48.6083 32.3413 48.0428 32.3413H41.2219C40.9503 32.3413 40.6898 32.4491 40.4978 32.6413L32.6414 40.4977C32.4493 40.6897 32.3414 40.9502 32.3414 41.2217V48.0426C32.3414 48.6082 32.7999 49.0666 33.3654 49.0666H42.2401C46.0103 49.0666 49.0668 46.0102 49.0668 42.24V33.3653Z" fill="white"/>
</svg>
