<?xml version="1.0" encoding="UTF-8"?>
<svg width="120px" height="120px" viewBox="0 0 120 120" version="1.1" xmlns="http://www.w3.org/2000/svg" xmlns:xlink="http://www.w3.org/1999/xlink">
    <title>ICPSwap Logo</title>
    <defs>
        <linearGradient x1="-0.826446875%" y1="47.2971875%" x2="91.5040625%" y2="46.3984375%" id="linearGradient-1">
            <stop stop-color="#5569DB" offset="0%"></stop>
            <stop stop-color="#8572FF" offset="100%"></stop>
        </linearGradient>
    </defs>
    <g id="Dapps-Explorer" stroke="none" stroke-width="1" fill="none" fill-rule="evenodd">
        <g id="ICPSwap-Logo">
            <circle id="Oval" fill="url(#linearGradient-1)" fill-rule="nonzero" cx="60" cy="60" r="60"></circle>
            <path d="M74.890125,27.0000375 C65.551125,27.0000375 58.805625,34.4703375 57.006375,39.745125 C53.850375,47.862375 55.18275,54.0975 56.356875,59.596125 L56.442,59.996625 C57.532125,65.1105 58.561125,69.9405 57.08775,76.002375 C56.950875,76.83225 56.707875,77.648625 56.365125,78.428625 C54.6795,82.2945 50.856375,84.790875 46.62675,84.790875 C40.773,84.790875 36.0103875,80.056875 36.0103875,74.2365 C36.0103875,68.413875 40.773,63.676875 46.62675,63.676875 C48.20325,63.676875 49.71825,64.01475 51.133125,64.67925 L52.366125,65.259375 L50.82975,55.922625 L50.344875,55.825125 C49.12875,55.58175 47.877375,55.4595 46.62675,55.4595 C36.2176125,55.4595 27.749625,63.882375 27.749625,74.2365 C27.749625,84.591 36.2176125,93.0135 46.62675,93.0135 C55.267875,93.0135 62.788125,87.202125 64.903125,78.92775 C67.04175,72.447 66.042,66.534 64.624875,60.027 L64.466625,59.302875 C63.076125,52.938375 61.977375,47.911125 65.28975,41.27325 C67.0335,37.5975 70.801125,35.2213875 74.890125,35.2213875 C80.74125,35.2213875 85.502625,39.9555 85.502625,45.7755 C85.502625,51.5955 80.74125,56.331375 74.890125,56.331375 C73.43925,56.331375 72.030375,56.044875 70.698,55.4775 L69.50025,54.969 L71.013,64.162875 L71.510625,64.253625 C72.616125,64.452375 73.7535,64.554375 74.890125,64.554375 C85.29675,64.554375 93.763125,56.129625 93.763125,45.7755 C93.763125,35.4226125 85.29675,27.0000375 74.890125,27.0000375 Z" id="Path" fill="#FFFFFF"></path>
        </g>
    </g>
</svg>