<svg xmlns="http://www.w3.org/2000/svg" xmlns:xlink="http://www.w3.org/1999/xlink" fill="none" version="1.1" width="59.99999237060547" height="59.999996185302734" viewBox="0 0 59.99999237060547 59.999996185302734"><defs><clipPath id="master_svg0_28_906"><rect x="0" y="0" width="59.99999237060547" height="59.999996185302734" rx="29.999996185302734"/></clipPath><filter id="master_svg1_28_0232" filterUnits="objectBoundingBox" color-interpolation-filters="sRGB" x="0" y="0" width="48" height="15"><feFlood flood-opacity="0" result="BackgroundImageFix"/><feBlend mode="normal" in="SourceGraphic" in2="BackgroundImageFix" result="shape"/><feColorMatrix in="SourceAlpha" type="matrix" result="hardAlpha" values="0 0 0 0 0 0 0 0 0 0 0 0 0 0 0 0 0 0 127 0"/><feOffset dy="0.17999999225139618" dx="0.11999999731779099"/><feGaussianBlur stdDeviation="0.8999999165534973"/><feComposite in2="hardAlpha" operator="arithmetic" k2="-1" k3="1"/><feColorMatrix type="matrix" values="0 0 0 0 1 0 0 0 0 1 0 0 0 0 1 0 0 0 0.4000000059604645 0"/><feBlend mode="normal" in2="shape" result="effect1_innerShadow"/></filter><linearGradient x1="0.9690840840339661" y1="0.7087347507476807" x2="0.025104939937591553" y2="0.037385858595371246" id="master_svg2_28_21598"><stop offset="0%" stop-color="#0A0A0A" stop-opacity="1"/><stop offset="100%" stop-color="#000000" stop-opacity="1"/></linearGradient><radialGradient cx="0" cy="0" r="1" gradientUnits="userSpaceOnUse" id="master_svg3_28_21599" gradientTransform="translate(21.11354970932007 18.950002901256084) rotate(60.466263641441756) scale(16.636346136984386 63.00276759811853)"><stop offset="0%" stop-color="#11C291" stop-opacity="1"/><stop offset="100%" stop-color="#000000" stop-opacity="0"/></radialGradient><linearGradient x1="0.1348181813955307" y1="1.0853843688964844" x2="0.26938414573669434" y2="1.0928375720977783" id="master_svg4_28_21601"><stop offset="0%" stop-color="#000000" stop-opacity="0.699999988079071"/><stop offset="100%" stop-color="#000000" stop-opacity="0"/></linearGradient><linearGradient x1="0.5" y1="0" x2="0.5" y2="0.5" id="master_svg5_28_9670"><stop offset="0%" stop-color="#FFFFFF" stop-opacity="0.800000011920929"/><stop offset="100%" stop-color="#FFFFFF" stop-opacity="0"/></linearGradient><filter id="master_svg6_28_14260" filterUnits="objectBoundingBox" color-interpolation-filters="sRGB" x="0" y="0" width="26.56218719482422" height="28.37808585166931"><feFlood flood-opacity="0" result="BackgroundImageFix"/><feColorMatrix in="SourceAlpha" type="matrix" values="0 0 0 0 0 0 0 0 0 0 0 0 0 0 0 0 0 0 127 0"/><feOffset dy="0.3780839443206787" dx="1"/><feGaussianBlur stdDeviation="0"/><feColorMatrix type="matrix" values="0 0 0 0 0.3928571343421936 0 0 0 0 0.2895427644252777 0 0 0 0 0.00173830590210855 0 0 0 1 0"/><feBlend mode="normal" in2="BackgroundImageFix" result="effect1_dropShadow"/><feBlend mode="normal" in="SourceGraphic" in2="effect1_dropShadow" result="shape"/></filter><linearGradient x1="0.35870832204818726" y1="-0.148780956864357" x2="1.0464125871658325" y2="0.18747170269489288" id="master_svg7_28_19792"><stop offset="0%" stop-color="#F9D46D" stop-opacity="1"/><stop offset="27.142855525016785%" stop-color="#D49C00" stop-opacity="1"/><stop offset="43.41789782047272%" stop-color="#FFF9EA" stop-opacity="1"/><stop offset="71.34343385696411%" stop-color="#D49C00" stop-opacity="1"/><stop offset="97.1428632736206%" stop-color="#D49C00" stop-opacity="1"/></linearGradient><filter id="master_svg8_28_4379" filterUnits="objectBoundingBox" color-interpolation-filters="sRGB" x="0" y="0" width="21.928403854370117" height="24.374574661254883"><feFlood flood-opacity="0" result="BackgroundImageFix"/><feBlend mode="normal" in="SourceGraphic" in2="BackgroundImageFix" result="shape"/><feColorMatrix in="SourceAlpha" type="matrix" result="hardAlpha" values="0 0 0 0 0 0 0 0 0 0 0 0 0 0 0 0 0 0 127 0"/><feOffset dy="-0.31578946113586426" dx="0"/><feGaussianBlur stdDeviation="1.5789473056793213"/><feComposite in2="hardAlpha" operator="arithmetic" k2="-1" k3="1"/><feColorMatrix type="matrix" values="0 0 0 0 1 0 0 0 0 1 0 0 0 0 1 0 0 0 0.30000001192092896 0"/><feBlend mode="normal" in2="shape" result="effect1_innerShadow"/></filter><filter id="master_svg9_28_4378" filterUnits="objectBoundingBox" color-interpolation-filters="sRGB" x="0" y="0" width="21.928403854370117" height="24.374574661254883"><feFlood flood-opacity="0" result="BackgroundImageFix"/><feBlend mode="normal" in="SourceGraphic" in2="BackgroundImageFix" result="shape"/><feColorMatrix in="SourceAlpha" type="matrix" result="hardAlpha" values="0 0 0 0 0 0 0 0 0 0 0 0 0 0 0 0 0 0 127 0"/><feOffset dy="-0.31578946113586426" dx="0"/><feGaussianBlur stdDeviation="1.5789473056793213"/><feComposite in2="hardAlpha" operator="arithmetic" k2="-1" k3="1"/><feColorMatrix type="matrix" values="0 0 0 0 1 0 0 0 0 1 0 0 0 0 1 0 0 0 0.30000001192092896 0"/><feBlend mode="normal" in2="shape" result="effect1_innerShadow"/></filter><filter id="master_svga_28_21604" filterUnits="objectBoundingBox" color-interpolation-filters="sRGB" x="0" y="0" width="48" height="15"><feFlood flood-opacity="0" result="BackgroundImageFix"/><feBlend mode="normal" in="SourceGraphic" in2="BackgroundImageFix" result="shape"/><feColorMatrix in="SourceAlpha" type="matrix" result="hardAlpha" values="0 0 0 0 0 0 0 0 0 0 0 0 0 0 0 0 0 0 127 0"/><feOffset dy="0.17999999225139618" dx="0.11999999731779099"/><feGaussianBlur stdDeviation="0.8999999165534973"/><feComposite in2="hardAlpha" operator="arithmetic" k2="-1" k3="1"/><feColorMatrix type="matrix" values="0 0 0 0 1 0 0 0 0 1 0 0 0 0 1 0 0 0 0.4000000059604645 0"/><feBlend mode="normal" in2="shape" result="effect1_innerShadow"/></filter><linearGradient x1="0.9690840840339661" y1="0.7087347507476807" x2="0.025104939937591553" y2="0.037385858595371246" id="master_svgb_28_21598"><stop offset="0%" stop-color="#FFFFFF" stop-opacity="1"/><stop offset="100%" stop-color="#FFFFFF" stop-opacity="1"/></linearGradient><radialGradient cx="0" cy="0" r="1" gradientUnits="userSpaceOnUse" id="master_svgc_28_21599" gradientTransform="translate(21.11354970932007 18.950002901256084) rotate(60.466263641441756) scale(16.636346136984386 63.00276759811853)"><stop offset="0%" stop-color="#FFFFFF" stop-opacity="1"/><stop offset="100%" stop-color="#FFFFFF" stop-opacity="0"/></radialGradient><linearGradient x1="0.1348181813955307" y1="1.0853843688964844" x2="0.26938414573669434" y2="1.0928375720977783" id="master_svgd_28_21601"><stop offset="0%" stop-color="#FFFFFF" stop-opacity="0.699999988079071"/><stop offset="100%" stop-color="#FFFFFF" stop-opacity="0"/></linearGradient><mask id="master_svge_28_21604" style="mask-type:alpha" maskUnits="userSpaceOnUse"><g filter="url(#master_svga_28_21604)"><path d="M7.19201,30.6949C5.602656,27.88167,5.602667,23.59908,7.19202,20.785881C7.48568,20.2661,8.02641,19.9830287,8.57606,20.0555013C15.41856,20.957709,22.5319,21.41132,29.84,21.41132C37.2693,21.41132,44.4943,20.942925,51.4352,20.0114936C51.9784,19.9385961,52.516,20.216534,52.8077,20.729375C54.3974,23.52386,54.3974,27.79231,52.8078,30.5868L52.6159,30.9241C52.4306,31.2498,52.149,31.496000000000002,51.8187,31.6156C47.251,33.2702,42.2384,34.3721,36.9587,34.891400000000004C36.4525,34.9412,35.9959,34.5751,35.7172,34.1496C34.859899999999996,32.8403,32.664100000000005,31.9696,30.0015,31.9696C27.3271,31.9696,25.1194,32.8521,24.272,34.1707C23.9951,34.6016,23.5518,34.9697,23.0419,34.9219C17.7773,34.4283,12.77091,33.3566,8.19769,31.736C7.85879,31.6159,7.57018,31.3643,7.38142,31.030099999999997L7.19201,30.6949Z" fill-rule="evenodd" fill="url(#master_svgb_28_21598)" fill-opacity="0.9700000286102295"/><path d="M7.19201,30.6949C5.602656,27.88167,5.602667,23.59908,7.19202,20.785881C7.48568,20.2661,8.02641,19.9830287,8.57606,20.0555013C15.41856,20.957709,22.5319,21.41132,29.84,21.41132C37.2693,21.41132,44.4943,20.942925,51.4352,20.0114936C51.9784,19.9385961,52.516,20.216534,52.8077,20.729375C54.3974,23.52386,54.3974,27.79231,52.8078,30.5868L52.6159,30.9241C52.4306,31.2498,52.149,31.496000000000002,51.8187,31.6156C47.251,33.2702,42.2384,34.3721,36.9587,34.891400000000004C36.4525,34.9412,35.9959,34.5751,35.7172,34.1496C34.859899999999996,32.8403,32.664100000000005,31.9696,30.0015,31.9696C27.3271,31.9696,25.1194,32.8521,24.272,34.1707C23.9951,34.6016,23.5518,34.9697,23.0419,34.9219C17.7773,34.4283,12.77091,33.3566,8.19769,31.736C7.85879,31.6159,7.57018,31.3643,7.38142,31.030099999999997L7.19201,30.6949Z" fill-rule="evenodd" fill="url(#master_svgc_28_21599)" fill-opacity="0.800000011920929"/><path d="M7.19201,30.6949C5.602656,27.88167,5.602667,23.59908,7.19202,20.785881C7.48568,20.2661,8.02641,19.9830287,8.57606,20.0555013C15.41856,20.957709,22.5319,21.41132,29.84,21.41132C37.2693,21.41132,44.4943,20.942925,51.4352,20.0114936C51.9784,19.9385961,52.516,20.216534,52.8077,20.729375C54.3974,23.52386,54.3974,27.79231,52.8078,30.5868L52.6159,30.9241C52.4306,31.2498,52.149,31.496000000000002,51.8187,31.6156C47.251,33.2702,42.2384,34.3721,36.9587,34.891400000000004C36.4525,34.9412,35.9959,34.5751,35.7172,34.1496C34.859899999999996,32.8403,32.664100000000005,31.9696,30.0015,31.9696C27.3271,31.9696,25.1194,32.8521,24.272,34.1707C23.9951,34.6016,23.5518,34.9697,23.0419,34.9219C17.7773,34.4283,12.77091,33.3566,8.19769,31.736C7.85879,31.6159,7.57018,31.3643,7.38142,31.030099999999997L7.19201,30.6949Z" fill-rule="evenodd" fill="url(#master_svgd_28_21601)" fill-opacity="1"/></g></mask><filter id="master_svgf_28_21603" filterUnits="objectBoundingBox" color-interpolation-filters="sRGB" x="-1" y="-1" width="5.078869342803955" height="19.694610595703125"><feFlood flood-opacity="0" result="BackgroundImageFix"/><feBlend mode="normal" in="SourceGraphic" in2="BackgroundImageFix" result="shape"/><feGaussianBlur stdDeviation="0.25" result="effect1_foregroundBlur"/></filter><filter id="master_svgg_28_21616" filterUnits="objectBoundingBox" color-interpolation-filters="sRGB" x="-1" y="-1" width="3.5594232082366943" height="19.694612503051758"><feFlood flood-opacity="0" result="BackgroundImageFix"/><feBlend mode="normal" in="SourceGraphic" in2="BackgroundImageFix" result="shape"/><feGaussianBlur stdDeviation="0.25" result="effect1_foregroundBlur"/></filter></defs><g clip-path="url(#master_svg0_28_906)"><rect x="0" y="0" width="59.99999237060547" height="59.999996185302734" rx="29.999996185302734" fill="#FFFFFF" fill-opacity="1"/><g><rect x="0" y="0" width="59.999996185302734" height="59.999996185302734" rx="0" fill="#16C595" fill-opacity="1"/></g><g><g><path d="M6,42.632958984375L13.275,49.607958984375L29.25,53.057958984375L40.7289,52.229058984375L50.7,46.832958984375L53.175,42.632958984375L54.3,37.594758984375005L52.2384,25.203958984375L46.0537,15.468308984375L32.211600000000004,10.157958984375L26.0268,11.043017984375L16.896900000000002,14.288228984375L10.71219,18.418508984375002L7.17805,29.629258984375L6,36.709758984375L6,42.632958984375Z" fill="#FFFFFF" fill-opacity="1"/></g></g><g><ellipse cx="29.68419647216797" cy="63.31575679779053" rx="24.31578826904297" ry="10.894736289978027" fill="#000000" fill-opacity="1"/></g><g><g transform="matrix(1,0,0,-1,0,76.936767578125)"><path d="M26.616864607421874,40.9475137890625C26.235664607421874,41.652603789062496,26.554063307421874,42.5324237890625,27.298213607421875,42.8302637890625L27.747217607421874,43.0099737890625C29.256767607421875,43.6141537890625,30.940947607421876,43.6141537890625,32.45048760742188,43.0099737890625L32.89949760742188,42.8302637890625C33.643647607421876,42.5324237890625,33.96204760742187,41.652603789062496,33.58084760742187,40.9475137890625C33.181947607421876,40.2096837890625,32.60645760742187,39.5821937890625,31.905817607421874,39.1211147890625L31.594817607421874,38.9164557890625C30.686977607421873,38.3190267890625,29.510727607421874,38.3190267890625,28.602887607421874,38.9164557890625L28.291897607421873,39.1211147890625C27.591247607421874,39.5821937890625,27.015760607421875,40.2096837890625,26.616864607421874,40.9475137890625Z" fill="#000000" fill-opacity="1"/></g></g><g><g><g><path d="M30.11049072265625,11.305703125Q30.16999072265625,11.305703125,30.22909072265625,11.299873125Q30.28829072265625,11.294053125,30.34659072265625,11.282453125Q30.40489072265625,11.270853125,30.46179072265625,11.253603125Q30.51869072265625,11.236343125,30.57359072265625,11.213593125Q30.62849072265625,11.190853125,30.68089072265625,11.162823125Q30.73339072265625,11.134803125,30.78279072265625,11.101783125Q30.83219072265625,11.068756125,30.87819072265625,11.031046125Q30.92409072265625,10.993335125,30.96609072265625,10.951302125Q31.00819072265625,10.909269125,31.04589072265625,10.863319125Q31.08359072265625,10.817368125,31.11659072265625,10.767943125Q31.14959072265625,10.718518125,31.17769072265625,10.666093125Q31.20569072265625,10.613669125,31.22839072265625,10.558750125Q31.25119072265625,10.503831125,31.26839072265625,10.446947125Q31.28569072265625,10.390064125,31.29729072265625,10.331762125Q31.30889072265625,10.273461125,31.31469072265625,10.214304125Q31.32049072265625,10.155146625,31.32049072265625,10.095703125Q31.32049072265625,10.036259625,31.31469072265625,9.977102125Q31.30889072265625,9.917945125,31.29729072265625,9.859644125Q31.28569072265625,9.801342125,31.26839072265625,9.744459125Q31.25119072265625,9.687575125,31.22839072265625,9.632656125Q31.20569072265625,9.577737125,31.17769072265625,9.525313125Q31.14959072265625,9.472888125,31.11659072265625,9.423463125Q31.08359072265625,9.374038125,31.04589072265625,9.328087125Q31.00819072265625,9.282137125,30.96609072265625,9.240104125Q30.92409072265625,9.198071125,30.87819072265625,9.160360125Q30.83219072265625,9.122650125,30.78279072265625,9.089623125Q30.73339072265625,9.056603125,30.68089072265625,9.028583125Q30.62849072265625,9.000553125,30.57359072265625,8.977813125Q30.51869072265625,8.955063125,30.46179072265625,8.937803125Q30.40489072265625,8.920553125,30.34659072265625,8.908953125Q30.28829072265625,8.897353125,30.22909072265625,8.891533125Q30.16999072265625,8.885703125,30.11049072265625,8.885703125Q30.09469072265625,8.885703125,30.07889072265625,8.886113125Q16.433990722656247,8.900883125,8.52891072265625,21.641403125Q5.22942072265625,26.959103125,4.40353572265625,32.711603124999996Q3.55065072265625,38.652203125,5.65919472265625,42.921103125Q11.196190722656251,54.131103125,30.04919072265625,54.607903125Q30.07989072265625,54.609503125,30.11049072265625,54.609503125Q30.16999072265625,54.609503125,30.22909072265625,54.603603125Q30.28829072265625,54.597803125,30.34659072265625,54.586203125Q30.40489072265625,54.574603125,30.46179072265625,54.557403125Q30.51869072265625,54.540103125,30.57359072265625,54.517403125Q30.62849072265625,54.494603125,30.68089072265625,54.466603125Q30.73339072265625,54.438603125,30.78279072265625,54.405503125Q30.83219072265625,54.372503125,30.87819072265625,54.334803125Q30.92409072265625,54.297103125,30.96609072265625,54.255103125Q31.00819072265625,54.213003125,31.04589072265625,54.167103125Q31.08359072265625,54.121103125,31.11659072265625,54.071703125Q31.14959072265625,54.022303125,31.17769072265625,53.969903125Q31.20569072265625,53.917403125,31.22839072265625,53.862503125Q31.25119072265625,53.807603125,31.26839072265625,53.750703125Q31.28569072265625,53.693803125,31.29729072265625,53.635503125Q31.30889072265625,53.577203125,31.31469072265625,53.518103125Q31.32049072265625,53.458903125,31.32049072265625,53.399503125Q31.32049072265625,53.340003125,31.31469072265625,53.280903125Q31.30889072265625,53.221703125,31.29729072265625,53.163403125Q31.28569072265625,53.105103125,31.26839072265625,53.048203125Q31.25119072265625,52.991303125,31.22839072265625,52.936403125Q31.20569072265625,52.881503125,31.17769072265625,52.829103125Q31.14959072265625,52.776703125,31.11659072265625,52.727203125Q31.08359072265625,52.677803125,31.04589072265625,52.631903125Q31.00819072265625,52.585903125,30.96609072265625,52.543903125Q30.92409072265625,52.501803125,30.87819072265625,52.464103125Q30.83219072265625,52.426403125,30.78279072265625,52.393403125Q30.73339072265625,52.360403125,30.68089072265625,52.332303125Q30.62849072265625,52.304303125,30.57359072265625,52.281603125Q30.51869072265625,52.258803125,30.46179072265625,52.241603125Q30.40489072265625,52.224303125,30.34659072265625,52.212703125Q30.28829072265625,52.201103125,30.22909072265625,52.195303125Q30.16999072265625,52.189503125,30.11049072265625,52.189503125L30.10979072265625,52.189503125Q12.71804072265625,51.749503125,7.82823072265625,41.849803125Q6.05190072265625,38.253503125,6.79818072265625,33.055403125Q7.55209072265625,27.804203125,10.58456072265625,22.916803125Q17.78019072265625,11.319693125,30.07999072265625,11.305313125Q30.09529072265625,11.305703125,30.11049072265625,11.305703125Z" fill-rule="evenodd" fill="#000000" fill-opacity="1"/></g><g transform="matrix(-1,0,0,1,109.6861572265625,0)"><path d="M79.57557861328125,11.305703125Q79.63507861328125,11.305703125,79.69417861328125,11.299873125Q79.75337861328126,11.294053125,79.81167861328125,11.282453125Q79.86997861328125,11.270853125,79.92687861328125,11.253603125Q79.98377861328125,11.236343125,80.03867861328125,11.213593125Q80.09357861328125,11.190853125,80.14597861328124,11.162823125Q80.19847861328125,11.134803125,80.24787861328124,11.101783125Q80.29727861328125,11.068756125,80.34327861328126,11.031046125Q80.38917861328125,10.993335125,80.43117861328125,10.951302125Q80.47327861328125,10.909269125,80.51097861328125,10.863319125Q80.54867861328125,10.817368125,80.58167861328126,10.767943125Q80.61467861328126,10.718518125,80.64277861328125,10.666093125Q80.67077861328124,10.613669125,80.69347861328126,10.558750125Q80.71627861328125,10.503831125,80.73347861328125,10.446947125Q80.75077861328126,10.390064125,80.76237861328124,10.331762125Q80.77397861328126,10.273461125,80.77977861328125,10.214304125Q80.78557861328125,10.155146625,80.78557861328125,10.095703125Q80.78557861328125,10.036259625,80.77977861328125,9.977102125Q80.77397861328126,9.917945125,80.76237861328124,9.859644125Q80.75077861328126,9.801342125,80.73347861328125,9.744459125Q80.71627861328125,9.687575125,80.69347861328126,9.632656125Q80.67077861328124,9.577737125,80.64277861328125,9.525313125Q80.61467861328126,9.472888125,80.58167861328126,9.423463125Q80.54867861328125,9.374038125,80.51097861328125,9.328087125Q80.47327861328125,9.282137125,80.43117861328125,9.240104125Q80.38917861328125,9.198071125,80.34327861328126,9.160360125Q80.29727861328125,9.122650125,80.24787861328124,9.089623125Q80.19847861328125,9.056603125,80.14597861328124,9.028583125Q80.09357861328125,9.000553125,80.03867861328125,8.977813125Q79.98377861328125,8.955063125,79.92687861328125,8.937803125Q79.86997861328125,8.920553125,79.81167861328125,8.908953125Q79.75337861328126,8.897353125,79.69417861328125,8.891533125Q79.63507861328125,8.885703125,79.57557861328125,8.885703125Q79.55977861328125,8.885703125,79.54397861328125,8.886113125Q65.89907861328125,8.900883125,57.99399861328125,21.641403125Q54.69450861328125,26.959103125,53.86862361328125,32.711603124999996Q53.01573861328125,38.652203125,55.12428261328125,42.921103125Q60.66127861328125,54.131103125,79.51427861328125,54.607903125Q79.54497861328124,54.609503125,79.57557861328125,54.609503125Q79.63507861328125,54.609503125,79.69417861328125,54.603603125Q79.75337861328126,54.597803125,79.81167861328125,54.586203125Q79.86997861328125,54.574603125,79.92687861328125,54.557403125Q79.98377861328125,54.540103125,80.03867861328125,54.517403125Q80.09357861328125,54.494603125,80.14597861328124,54.466603125Q80.19847861328125,54.438603125,80.24787861328124,54.405503125Q80.29727861328125,54.372503125,80.34327861328126,54.334803125Q80.38917861328125,54.297103125,80.43117861328125,54.255103125Q80.47327861328125,54.213003125,80.51097861328125,54.167103125Q80.54867861328125,54.121103125,80.58167861328126,54.071703125Q80.61467861328126,54.022303125,80.64277861328125,53.969903125Q80.67077861328124,53.917403125,80.69347861328126,53.862503125Q80.71627861328125,53.807603125,80.73347861328125,53.750703125Q80.75077861328126,53.693803125,80.76237861328124,53.635503125Q80.77397861328126,53.577203125,80.77977861328125,53.518103125Q80.78557861328125,53.458903125,80.78557861328125,53.399503125Q80.78557861328125,53.340003125,80.77977861328125,53.280903125Q80.77397861328126,53.221703125,80.76237861328124,53.163403125Q80.75077861328126,53.105103125,80.73347861328125,53.048203125Q80.71627861328125,52.991303125,80.69347861328126,52.936403125Q80.67077861328124,52.881503125,80.64277861328125,52.829103125Q80.61467861328126,52.776703125,80.58167861328126,52.727203125Q80.54867861328125,52.677803125,80.51097861328125,52.631903125Q80.47327861328125,52.585903125,80.43117861328125,52.543903125Q80.38917861328125,52.501803125,80.34327861328126,52.464103125Q80.29727861328125,52.426403125,80.24787861328124,52.393403125Q80.19847861328125,52.360403125,80.14597861328124,52.332303125Q80.09357861328125,52.304303125,80.03867861328125,52.281603125Q79.98377861328125,52.258803125,79.92687861328125,52.241603125Q79.86997861328125,52.224303125,79.81167861328125,52.212703125Q79.75337861328126,52.201103125,79.69417861328125,52.195303125Q79.63507861328125,52.189503125,79.57557861328125,52.189503125L79.57487861328124,52.189503125Q62.18312861328125,51.749503125,57.29331861328125,41.849803125Q55.51698861328125,38.253503125,56.26326861328125,33.055403125Q57.01717861328125,27.804203125,60.04964861328125,22.916803125Q67.24527861328124,11.319693125,79.54507861328125,11.305313125Q79.56037861328124,11.305703125,79.57557861328125,11.305703125Z" fill-rule="evenodd" fill="#000000" fill-opacity="1"/></g></g></g><g><g><path d="M20.53936923828125,12.628675390625L15.91656923828125,14.986615390625001L11.49669923828125,19.062775390625L9.723509238281249,22.887075390625Q9.47943923828125,22.764075390625003,9.24442923828125,22.624475390625Q9.00942923828125,22.484875390625,8.784599238281249,22.329475390625Q8.55977923828125,22.174075390625,8.346199238281251,22.003475390625Q8.13262923828125,21.832975390625002,7.93131923828125,21.648075390625Q7.73000923828125,21.463175390625,7.54191923828125,21.264875390625Q7.35383923828125,21.066575390624998,7.17986923828125,20.855775390625Q7.00589923828125,20.644975390625,6.84688923828125,20.422675390625002Q6.68786923828125,20.200375390625,6.54454923828125,19.967575390625Q6.40122923828125,19.734875390625,6.27430423828125,19.492775390625Q6.14737323828125,19.250775390625,6.03743323828125,19.000475390625Q5.92749223828125,18.750275390625,5.83506323828125,18.493075390625002Q5.74263523828125,18.235875390625,5.66815923828125,17.972875390625Q5.59368323828125,17.709865390624998,5.53751423828125,17.442375390625Q5.48134523828125,17.174885390625,5.44374953828125,16.904165390625Q5.40615423828125,16.633435390625,5.38731173828125,16.360765390624998Q5.36846923828125,16.088095390625,5.36846923828125,15.814775390625Q5.36846923828125,15.620345390625001,5.37800922828125,15.426155390625Q5.38754923828125,15.231965390625,5.40660623828125,15.038475390624999Q5.42566313828125,14.844985390625,5.45419123828125,14.652665390625Q5.48271923828125,14.460345390625001,5.52065023828125,14.269655390625001Q5.55858023828125,14.078965390625001,5.60582123828125,13.890375390625Q5.65306323828125,13.701775390625,5.70950223828125,13.515725390625Q5.76594023828125,13.329665390625,5.83144023828125,13.146605390625Q5.89694023828125,12.963545390625,5.97134323828125,12.783925390625Q6.04574623828125,12.604295390625001,6.12887423828125,12.428535390625001Q6.21200123828125,12.252775390625,6.30365223828125,12.081315390625Q6.39529923828125,11.909845390625,6.49525923828125,11.743085390625Q6.5952092382812495,11.576315390625,6.70322923828125,11.414655390625Q6.81124923828125,11.252995390625,6.92706923828125,11.096835390625Q7.04287923828125,10.940675390625,7.16622923828125,10.790385390625Q7.28956923828125,10.640085390625,7.42013923828125,10.496025390625Q7.550699238281251,10.351965390625,7.688179238281251,10.214485390625Q7.825659238281251,10.077005390625,7.96971923828125,9.946445390625Q8.11377923828125,9.815875390625,8.26407923828125,9.692535390625Q8.41436923828125,9.569185390625,8.57052923828125,9.453375390625Q8.72668923828125,9.337555390624999,8.88834923828125,9.229535390625Q9.05000923828125,9.121515390625,9.21677923828125,9.021565390625Q9.38353923828125,8.921605390625,9.55500923828125,8.829958390625Q9.72646923828125,8.738307390625,9.902229238281251,8.655180390625Q10.077989238281251,8.572052390625,10.25761923828125,8.497649390625Q10.43723923828125,8.423246390625,10.62029923828125,8.357746390625Q10.80335923828125,8.292246390625,10.98941923828125,8.235808390625Q11.17546923828125,8.179369390625,11.36406923828125,8.132127390625Q11.552659238281251,8.084886390625,11.743349238281251,8.046956390625Q11.934039238281251,8.009025390625,12.12635923828125,7.980497390625Q12.31867923828125,7.951969290625,12.512169238281249,7.932912390625Q12.70565923828125,7.913855390625,12.89984923828125,7.904315380625Q13.094039238281251,7.894775390625,13.28846923828125,7.894775390625Q13.57489923828125,7.894775390625,13.86057923828125,7.915465890625Q14.14625923828125,7.936156390625,14.42969923828125,7.977429290625Q14.71313923828125,8.018702390625,14.99285923828125,8.080341390625Q15.27257923828125,8.141981390625,15.54706923828125,8.223665390625Q15.82166923828125,8.305350390625,16.08956923828125,8.406652390625Q16.35746923828125,8.507954390625,16.61736923828125,8.628345390625Q16.87726923828125,8.748736390625,17.12776923828125,8.887586390625Q17.378369238281252,9.026435390625,17.61816923828125,9.183025390625Q17.85796923828125,9.339605390625,18.085869238281248,9.513105390625Q18.31376923828125,9.686605390625001,18.52856923828125,9.876115390625Q18.74336923828125,10.065625390625,18.943869238281252,10.270155390625Q19.14436923828125,10.474685390625,19.329669238281248,10.693165390625Q19.51486923828125,10.911645390625,19.68376923828125,11.142935390625Q19.852769238281248,11.374225390625,20.00456923828125,11.617115390624999Q20.15636923828125,11.860005390625,20.290269238281248,12.113225390625Q20.42406923828125,12.366445390625,20.53936923828125,12.628675390625Z" fill-rule="evenodd" fill="#000000" fill-opacity="1"/></g><g transform="matrix(-1,0,0,1,109.65884399414062,0)"><path d="M70.00032199707032,12.628625390625L65.37742199707031,14.986615390625001L60.95753199707031,19.062775390625L59.18436199707031,22.887075390625Q58.940301997070314,22.763975390625,58.70529199707031,22.624475390625Q58.47029199707031,22.484875390625,58.24547199707031,22.329475390625Q58.02065199707031,22.173975390625,57.80708199707031,22.003475390625Q57.593511997070316,21.832875390625,57.39221199707031,21.647975390625Q57.19090199707031,21.463175390625,57.00282199707031,21.264775390624997Q56.814741997070314,21.066475390625,56.64078199707031,20.855675390625002Q56.46681199707031,20.644875390625,56.307801997070314,20.422575390625Q56.148781997070316,20.200275390625002,56.005471997070316,19.967575390625Q55.86216199707031,19.734775390625,55.73523399707031,19.492775390625Q55.608306997070315,19.250675390625,55.498368997070315,19.000475390625Q55.388430997070316,18.750275390625,55.29600499707031,18.492975390625Q55.20357899707031,18.235775390625,55.129104997070314,17.972775390625Q55.05463099707031,17.709845390625,54.99846299707031,17.442355390625Q54.94229499707031,17.174875390624997,54.904700397070314,16.904155390625Q54.86710599707031,16.633425390625,54.84826399707031,16.360765390624998Q54.82942199707031,16.088095390625,54.82942199707031,15.814775390625Q54.82942199707031,15.620345390625001,54.83896198707031,15.426155390625Q54.848501997070315,15.231965390625,54.86755899707031,15.038475390624999Q54.886615897070314,14.844985390625,54.91514399707031,14.652665390625Q54.94367199707031,14.460345390625001,54.98160299707031,14.269655390625001Q55.019532997070314,14.078965390625001,55.066773997070314,13.890375390625Q55.11401599707031,13.701775390625,55.170454997070316,13.515725390625Q55.226892997070316,13.329665390625,55.292392997070316,13.146605390625Q55.357892997070316,12.963545390625,55.43229599707031,12.783925390625Q55.50669899707031,12.604295390625001,55.58982699707031,12.428535390625001Q55.672953997070316,12.252775390625,55.764604997070315,12.081315390625Q55.85625199707031,11.909845390625,55.95621199707031,11.743085390625Q56.05616199707031,11.576315390625,56.164181997070315,11.414655390625Q56.27220199707031,11.252995390625,56.38802199707031,11.096835390625Q56.503831997070314,10.940675390625,56.62718199707031,10.790385390625Q56.750521997070315,10.640085390625,56.881091997070314,10.496025390625Q57.01165199707031,10.351965390625,57.14913199707031,10.214485390625Q57.28661199707031,10.077005390625,57.43067199707031,9.946445390625Q57.574731997070316,9.815875390625,57.72503199707031,9.692535390625Q57.875321997070316,9.569185390625,58.031481997070316,9.453375390625Q58.187641997070315,9.337555390624999,58.34930199707031,9.229535390625Q58.51096199707031,9.121515390625,58.67773199707031,9.021565390625Q58.844491997070314,8.921605390625,59.01596199707031,8.829958390625Q59.18742199707031,8.738307390625,59.36318199707031,8.655180390625Q59.53894199707031,8.572052390625,59.71857199707031,8.497649390625Q59.89819199707031,8.423246390625,60.08125199707031,8.357746390625Q60.264311997070315,8.292246390625,60.45037199707031,8.235808390625Q60.636421997070315,8.179369390625,60.82502199707031,8.132127390625Q61.01361199707031,8.084886390625,61.20430199707031,8.046956390625Q61.39499199707031,8.009025390625,61.587311997070316,7.980497390625Q61.77963199707031,7.951969290625,61.973121997070315,7.932912390625Q62.16661199707031,7.913855390625,62.36080199707031,7.904315380625Q62.55499199707031,7.894775390625,62.749421997070314,7.894775390625Q63.03585199707031,7.894775390625,63.32153199707031,7.915465690625Q63.60720199707031,7.936155890625,63.89064199707031,7.977428290625Q64.17408199707032,8.018700390625,64.45380199707031,8.080339390625Q64.73351199707031,8.141978390625,65.00802199707032,8.223661390625Q65.28262199707031,8.305345390625,65.55052199707032,8.406646390625Q65.81842199707032,8.507947390625,66.07832199707032,8.628336390625Q66.33822199707032,8.748726390625,66.58872199707031,8.887575390625Q66.83922199707031,9.026425390625,67.07912199707032,9.183005390625Q67.3189219970703,9.339585390625,67.54682199707031,9.513085390625Q67.77472199707032,9.686585390625,67.98952199707031,9.876095390625Q68.20432199707031,10.065605390625,68.40482199707031,10.270125390625001Q68.60532199707032,10.474655390625,68.79052199707031,10.693135390625Q68.97572199707031,10.911615390625,69.14472199707032,11.142895390625Q69.31372199707032,11.374185390625,69.46552199707031,11.617075390625Q69.61732199707032,11.859955390625,69.75122199707032,12.113175390624999Q69.88502199707031,12.366395390625,70.00032199707032,12.628625390625Z" fill-rule="evenodd" fill="#000000" fill-opacity="1"/></g></g><g><g transform="matrix(0.9792949557304382,0.20243866741657257,-0.20243866741657257,0.9792949557304382,4.61182811062956,-2.226562507350593)"><g><path d="M22.297440122070313,22.13531176409912C18.479300122070313,19.43319476409912,10.479400122070313,25.017594764099123,14.115704122070312,30.42180476409912C15.024780122070313,31.772834764099123,17.23131012207031,32.60063476409912,18.207120122070314,32.11273476409912C19.55038012207031,31.44113476409912,18.868930122070314,29.931794764099124,20.151310122070313,29.00207476409912C21.565260122070313,27.97695476409912,23.01457012207031,27.446724764099123,23.509450122070312,26.06811476409912C24.004350122070313,24.654154764099122,23.898250122070312,23.41694476409912,22.297440122070313,22.13531176409912Z" fill="#000000" fill-opacity="1"/></g><g><path d="M21.01393271972656,24.56929800238037C20.138592719726564,23.95737500238037,18.304567719726563,25.22202200238037,19.138214719726562,26.44586900238037C19.971862719726563,27.669709002380372,22.097692719726563,25.38520600238037,21.01393271972656,24.56929800238037Z" fill="#FFFFFF" fill-opacity="1"/></g></g><g transform="matrix(0.9490479826927185,-0.31513166427612305,0.31513166427612305,0.9490479826927185,-5.822271009131555,12.65830786492586)"><g transform="matrix(-1,0,0,1,93.62808227539062,0)"><path d="M55.92073113769531,25.037219684936524C52.10258113769531,22.335102684936523,44.10269113769531,27.91949268493652,47.73899513769531,33.323712684936524C48.64807113769531,34.674742684936525,50.85460113769531,35.50254268493652,51.830411137695314,35.014642684936526C53.173671137695315,34.34304268493652,52.49222113769531,32.833702684936526,53.77460113769531,31.903972684936523C55.18855113769531,30.87886268493652,56.63786113769531,30.348632684936526,57.13274113769531,28.970022684936524C57.62764113769531,27.556062684936524,57.52154113769531,26.318852684936523,55.92073113769531,25.037219684936524Z" fill="#000000" fill-opacity="1"/></g><g transform="matrix(-1,0,0,1,82.13272857666016,0)"><path d="M43.15413428833008,27.471266958374024C42.278794288330076,26.859343958374023,40.44476928833008,28.123990958374023,41.27841628833008,29.347837958374022C42.112064288330075,30.571677958374025,44.237894288330075,28.287174958374024,43.15413428833008,27.471266958374024Z" fill="#FFFFFF" fill-opacity="1"/></g></g></g><g><path d="M30.86846923828125,37.72463899375L30.86846923828125,39.74912109375Q30.86846923828125,39.82299109375,30.85405823828125,39.89544109375Q30.83964723828125,39.96789109375,30.81137823828125,40.03613109375Q30.78311023828125,40.10438109375,30.742071238281248,40.16580109375Q30.70103223828125,40.22722109375,30.64879923828125,40.27945109375Q30.596566238281248,40.33168109375,30.53514723828125,40.37272109375Q30.47372723828125,40.41376109375,30.40548223828125,40.44203109375Q30.33723623828125,40.47030109375,30.26478723828125,40.48471109375Q30.19233773828125,40.49912109375,30.11846923828125,40.49912109375Q30.04460073828125,40.49912109375,29.97215123828125,40.48471109375Q29.89970223828125,40.47030109375,29.83145623828125,40.44203109375Q29.76321123828125,40.41376109375,29.70179123828125,40.37272109375Q29.640372238281252,40.33168109375,29.58813923828125,40.27945109375Q29.53590623828125,40.22722109375,29.494867238281252,40.16580109375Q29.45382823828125,40.10438109375,29.42555923828125,40.03613109375Q29.39729123828125,39.96789109375,29.38288023828125,39.89544109375Q29.36846923828125,39.82299109375,29.36846923828125,39.74912109375L29.36846923828125,39.74860109375L29.36846923828125,37.72412109375Q29.36846923828125,37.65025259375,29.38288023828125,37.57780309375Q29.39729123828125,37.50535409375,29.42556023828125,37.43710809375Q29.45382823828125,37.36886309375,29.494867238281252,37.30744309375Q29.53590623828125,37.24602409375,29.58813923828125,37.19379109375Q29.640372238281252,37.14155809375,29.70179123828125,37.10051909375Q29.76321123828125,37.05948009375,29.83145623828125,37.03121109375Q29.89970223828125,37.00294309375,29.97215123828125,36.98853209375Q30.04460073828125,36.97412109375,30.11846923828125,36.97412109375Q30.19233773828125,36.97412109375,30.26478723828125,36.98853209375Q30.33723623828125,37.00294309375,30.40548223828125,37.03121109375Q30.47372723828125,37.05948009375,30.53514723828125,37.10051909375Q30.596566238281248,37.14155809375,30.64879923828125,37.19379109375Q30.70103223828125,37.24602409375,30.742071238281248,37.30744309375Q30.78311023828125,37.36886309375,30.81137923828125,37.43710809375Q30.83964723828125,37.50535409375,30.85405823828125,37.57780309375Q30.86846923828125,37.65025259375,30.86846923828125,37.72412109375L30.86846923828125,37.72463899375Z" fill-rule="evenodd" fill="#000000" fill-opacity="1"/></g><g style="opacity:0.9800000190734863;" filter="url(#master_svg1_28_0232)"><path d="M7.19201,30.6949C5.602656,27.88167,5.602667,23.59908,7.19202,20.785881C7.48568,20.2661,8.02641,19.9830287,8.57606,20.0555013C15.41856,20.957709,22.5319,21.41132,29.84,21.41132C37.2693,21.41132,44.4943,20.942925,51.4352,20.0114936C51.9784,19.9385961,52.516,20.216534,52.8077,20.729375C54.3974,23.52386,54.3974,27.79231,52.8078,30.5868L52.6159,30.9241C52.4306,31.2498,52.149,31.496000000000002,51.8187,31.6156C47.251,33.2702,42.2384,34.3721,36.9587,34.891400000000004C36.4525,34.9412,35.9959,34.5751,35.7172,34.1496C34.859899999999996,32.8403,32.664100000000005,31.9696,30.0015,31.9696C27.3271,31.9696,25.1194,32.8521,24.272,34.1707C23.9951,34.6016,23.5518,34.9697,23.0419,34.9219C17.7773,34.4283,12.77091,33.3566,8.19769,31.736C7.85879,31.6159,7.57018,31.3643,7.38142,31.030099999999997L7.19201,30.6949Z" fill-rule="evenodd" fill="url(#master_svg2_28_21598)" fill-opacity="0.9700000286102295"/><path d="M7.19201,30.6949C5.602656,27.88167,5.602667,23.59908,7.19202,20.785881C7.48568,20.2661,8.02641,19.9830287,8.57606,20.0555013C15.41856,20.957709,22.5319,21.41132,29.84,21.41132C37.2693,21.41132,44.4943,20.942925,51.4352,20.0114936C51.9784,19.9385961,52.516,20.216534,52.8077,20.729375C54.3974,23.52386,54.3974,27.79231,52.8078,30.5868L52.6159,30.9241C52.4306,31.2498,52.149,31.496000000000002,51.8187,31.6156C47.251,33.2702,42.2384,34.3721,36.9587,34.891400000000004C36.4525,34.9412,35.9959,34.5751,35.7172,34.1496C34.859899999999996,32.8403,32.664100000000005,31.9696,30.0015,31.9696C27.3271,31.9696,25.1194,32.8521,24.272,34.1707C23.9951,34.6016,23.5518,34.9697,23.0419,34.9219C17.7773,34.4283,12.77091,33.3566,8.19769,31.736C7.85879,31.6159,7.57018,31.3643,7.38142,31.030099999999997L7.19201,30.6949Z" fill-rule="evenodd" fill="url(#master_svg3_28_21599)" fill-opacity="0.800000011920929"/><path d="M7.19201,30.6949C5.602656,27.88167,5.602667,23.59908,7.19202,20.785881C7.48568,20.2661,8.02641,19.9830287,8.57606,20.0555013C15.41856,20.957709,22.5319,21.41132,29.84,21.41132C37.2693,21.41132,44.4943,20.942925,51.4352,20.0114936C51.9784,19.9385961,52.516,20.216534,52.8077,20.729375C54.3974,23.52386,54.3974,27.79231,52.8078,30.5868L52.6159,30.9241C52.4306,31.2498,52.149,31.496000000000002,51.8187,31.6156C47.251,33.2702,42.2384,34.3721,36.9587,34.891400000000004C36.4525,34.9412,35.9959,34.5751,35.7172,34.1496C34.859899999999996,32.8403,32.664100000000005,31.9696,30.0015,31.9696C27.3271,31.9696,25.1194,32.8521,24.272,34.1707C23.9951,34.6016,23.5518,34.9697,23.0419,34.9219C17.7773,34.4283,12.77091,33.3566,8.19769,31.736C7.85879,31.6159,7.57018,31.3643,7.38142,31.030099999999997L7.19201,30.6949Z" fill-rule="evenodd" fill="url(#master_svg4_28_21601)" fill-opacity="1"/><path d="M7.19201,30.6949C5.602656,27.88167,5.602667,23.59908,7.19202,20.785881C7.48568,20.2661,8.02641,19.9830287,8.57606,20.0555013C15.41856,20.957709,22.5319,21.41132,29.84,21.41132C37.2693,21.41132,44.4943,20.942925,51.4352,20.0114936C51.9784,19.9385961,52.516,20.216534,52.8077,20.729375C54.3974,23.52386,54.3974,27.79231,52.8078,30.5868L52.6159,30.9241C52.4306,31.2498,52.149,31.496000000000002,51.8187,31.6156C47.251,33.2702,42.2384,34.3721,36.9587,34.891400000000004C36.4525,34.9412,35.9959,34.5751,35.7172,34.1496C34.859899999999996,32.8403,32.664100000000005,31.9696,30.0015,31.9696C27.3271,31.9696,25.1194,32.8521,24.272,34.1707C23.9951,34.6016,23.5518,34.9697,23.0419,34.9219C17.7773,34.4283,12.77091,33.3566,8.19769,31.736C7.85879,31.6159,7.57018,31.3643,7.38142,31.030099999999997L7.19201,30.6949ZM8.06267,30.203L8.25207,30.5382Q8.36232,30.7334,8.5317,30.7934Q15.29887,33.1915,23.1352,33.9263Q23.2344,33.9356,23.4308,33.6301Q24.2475,32.3592,26.0895,31.6436Q27.8242,30.9696,30.0015,30.9696Q32.169,30.9696,33.896100000000004,31.6356Q35.7292,32.3424,36.553799999999995,33.6018Q36.7535,33.906800000000004,36.8608,33.8962Q44.7206,33.1232,51.4782,30.6754Q51.6403,30.6167,51.7467,30.4297L51.9386,30.092399999999998Q53,28.22641,53,25.65809Q53,23.08975,51.9385,21.22382Q51.7953,20.972125,51.5682,21.00261Q41.0706,22.41132,29.84,22.41132Q18.7932,22.41132,8.44534,21.04692Q8.21059,21.01597,8.06268,21.27777Q7.00001,23.15873,7,25.740380000000002Q6.999995,28.322020000000002,8.06267,30.203Z" fill-rule="evenodd" fill="url(#master_svg5_28_9670)" fill-opacity="1"/></g><g transform="matrix(0.33187705278396606,0.9433227181434631,-0.9433227181434631,0.33187705278396606,54.006710750838465,-17.75596978208887)" filter="url(#master_svg6_28_14260)"><path d="M49.356767490234375,42.723046875C48.51033749023438,41.323046875,48.17175749023438,39.748046875,48.17175749023438,37.998046875C48.17175749023438,33.098046875,51.896077490234376,29.248046875,56.63607749023437,29.248046875C61.37607749023438,29.248046875,65.10037749023438,33.098046875,65.10037749023438,37.998046875C65.10037749023438,42.898046875,61.37607749023438,46.748046875,56.63607749023437,46.748046875C54.773877490234376,46.748046875,53.25037749023437,46.223046875,51.726777490234376,45.173046875L48.216637490234376,48.801646875C48.00283749023438,49.022646875,48.00283749023438,49.373446875,48.216637490234376,49.594446875L49.311887490234376,50.726646875C49.525687490234375,50.947646875000004,49.525687490234375,51.298446874999996,49.311887490234376,51.519446875L47.73510749023438,53.149446874999995C47.511027490234376,53.381046874999996,47.13963749023438,53.381046874999996,46.91555749023438,53.149446874999995L45.87295749023438,52.071646875C45.64888749023437,51.840046875,45.27748749023438,51.840046875,45.053417490234374,52.071646875L44.66163749023438,52.476646875C44.44783749023438,52.697646875000004,44.44783749023438,53.048446874999996,44.66163749023438,53.269446875L45.75687749023437,54.401646875C45.97067749023437,54.622646875,45.97067749023437,54.973446875,45.75687749023437,55.194446875L44.180097490234374,56.824446875C43.956027490234376,57.056046875,43.584627490234375,57.056046875,43.36055749023438,56.824446875L40.34342649023438,53.705446875C39.89444149023438,53.241346875000005,39.89444149023438,52.504746874999995,40.34342649023438,52.040646875L49.356767490234375,42.723046875ZM56.63607749023437,32.748046875C53.758177490234374,32.748046875,51.557477490234376,35.023046875,51.557477490234376,37.998046875C51.557477490234376,40.973046875,53.758177490234374,43.248046875,56.63607749023437,43.248046875C59.51387749023438,43.248046875,61.71467749023438,40.973046875,61.71467749023438,37.998046875C61.71467749023438,35.023046875,59.344677490234375,32.748046875,56.63607749023437,32.748046875Z" fill="url(#master_svg7_28_19792)" fill-opacity="1" style="mix-blend-mode:passthrough"/></g><g><g><g transform="matrix(0.7211062908172607,0.6928243637084961,-0.6928243637084961,0.7211062908172607,39.515473496488994,-26.163874417659827)" filter="url(#master_svg8_28_4379)"><path d="M56.6503173046875,46.8998C48.5517573046875,47.9233,52.4241693046875,60.6822,61.9349973046875,60.3689C71.4458373046875,60.055499999999995,76.6221373046875,46.8974,73.0487373046875,36Q71.1678373046875,44.83758,56.6503173046875,46.8998Z" fill="#000000" fill-opacity="1"/></g><g transform="matrix(-0.7211062908172607,0.6928243637084961,0.6928243637084961,0.7211062908172607,-11.857529574801447,4.773202961892821)" filter="url(#master_svg9_28_4378)"><path d="M11.996752851562501,46.8998C3.8981928515625,47.9233,7.7706048515625,60.6822,17.2814328515625,60.3689C26.7922728515625,60.055499999999995,31.9685728515625,46.8974,28.3951728515625,36Q26.5142728515625,44.83758,11.996752851562501,46.8998Z" fill="#000000" fill-opacity="1"/></g></g></g><g mask="url(#master_svge_28_21604)"><g transform="matrix(-0.8688212633132935,-0.4951258599758148,-0.49512600898742676,0.8688212037086487,73.14327069144929,19.378592388515244)" filter="url(#master_svgf_28_21603)"><rect x="33.43603515625" y="21.5244140625" width="3.078869342803955" height="17.694610595703125" rx="0" fill="#FFFFFF" fill-opacity="0.8999999761581421"/></g><g transform="matrix(-0.8688212633132935,-0.4951258599758148,-0.49512600898742676,0.8688212037086487,79.87090704341972,21.16101362648078)" filter="url(#master_svgg_28_21616)"><rect x="37.23529052734375" y="20.7720947265625" width="1.5594232082366943" height="17.694612503051758" rx="0" fill="#FFFFFF" fill-opacity="0.5"/></g></g></g></svg>