<?xml version="1.0" encoding="UTF-8"?>
<svg xmlns="http://www.w3.org/2000/svg" width="32" height="32" viewBox="0 0 32 32" shape-rendering="crispEdges">
  <g id="Logo" class="logo">
    <rect x="14" y="1" width="5" height="1" fill="rgb(52,117,201)"/>
    <rect x="12" y="2" width="2" height="1" fill="rgb(52,117,201)"/>
    <rect x="14" y="2" width="3" height="1" fill="rgb(168,236,255)"/>
    <rect x="17" y="2" width="1" height="1" fill="rgb(247,253,255)"/>
    <rect x="18" y="2" width="1" height="1" fill="rgb(168,236,255)"/>
    <rect x="19" y="2" width="2" height="1" fill="rgb(52,117,201)"/>
    <rect x="10" y="3" width="2" height="1" fill="rgb(52,117,201)"/>
    <rect x="12" y="3" width="2" height="1" fill="rgb(168,236,255)"/>
    <rect x="14" y="3" width="5" height="1" fill="rgb(111,211,247)"/>
    <rect x="19" y="3" width="2" height="1" fill="rgb(168,236,255)"/>
    <rect x="21" y="3" width="2" height="1" fill="rgb(52,117,201)"/>
    <rect x="8" y="4" width="2" height="1" fill="rgb(52,117,201)"/>
    <rect x="10" y="4" width="13" height="1" fill="rgb(111,211,247)"/>
    <rect x="23" y="4" width="2" height="1" fill="rgb(52,117,201)"/>
    <rect x="6" y="5" width="2" height="1" fill="rgb(52,117,201)"/>
    <rect x="8" y="5" width="17" height="1" fill="rgb(111,211,247)"/>
    <rect x="25" y="5" width="2" height="1" fill="rgb(52,117,201)"/>
    <rect x="4" y="6" width="2" height="1" fill="rgb(52,117,201)"/>
    <rect x="6" y="6" width="1" height="1" fill="rgb(168,236,255)"/>
    <rect x="7" y="6" width="19" height="1" fill="rgb(111,211,247)"/>
    <rect x="26" y="6" width="1" height="1" fill="rgb(168,236,255)"/>
    <rect x="27" y="6" width="2" height="1" fill="rgb(52,117,201)"/>
    <rect x="3" y="7" width="1" height="1" fill="rgb(13,45,106)"/>
    <rect x="4" y="7" width="1" height="1" fill="rgb(111,211,247)"/>
    <rect x="5" y="7" width="3" height="1" fill="rgb(168,236,255)"/>
    <rect x="8" y="7" width="17" height="1" fill="rgb(111,211,247)"/>
    <rect x="25" y="7" width="4" height="1" fill="rgb(168,236,255)"/>
    <rect x="29" y="7" width="1" height="1" fill="rgb(13,45,106)"/>
    <rect x="2" y="8" width="1" height="1" fill="rgb(13,45,106)"/>
    <rect x="3" y="8" width="1" height="1" fill="rgb(111,211,247)"/>
    <rect x="4" y="8" width="2" height="1" fill="rgb(247,253,255)"/>
    <rect x="6" y="8" width="3" height="1" fill="rgb(168,236,255)"/>
    <rect x="9" y="8" width="15" height="1" fill="rgb(111,211,247)"/>
    <rect x="24" y="8" width="3" height="1" fill="rgb(168,236,255)"/>
    <rect x="27" y="8" width="2" height="1" fill="rgb(247,253,255)"/>
    <rect x="29" y="8" width="1" height="1" fill="rgb(168,236,255)"/>
    <rect x="30" y="8" width="1" height="1" fill="rgb(13,45,106)"/>
    <rect x="2" y="9" width="1" height="1" fill="rgb(13,45,106)"/>
    <rect x="3" y="9" width="2" height="1" fill="rgb(111,211,247)"/>
    <rect x="5" y="9" width="3" height="1" fill="rgb(247,253,255)"/>
    <rect x="8" y="9" width="2" height="1" fill="rgb(168,236,255)"/>
    <rect x="10" y="9" width="13" height="1" fill="rgb(111,211,247)"/>
    <rect x="23" y="9" width="2" height="1" fill="rgb(168,236,255)"/>
    <rect x="25" y="9" width="2" height="1" fill="rgb(247,253,255)"/>
    <rect x="27" y="9" width="3" height="1" fill="rgb(168,236,255)"/>
    <rect x="30" y="9" width="1" height="1" fill="rgb(13,45,106)"/>
    <rect x="2" y="10" width="1" height="1" fill="rgb(13,45,106)"/>
    <rect x="3" y="10" width="3" height="1" fill="rgb(111,211,247)"/>
    <rect x="6" y="10" width="4" height="1" fill="rgb(247,253,255)"/>
    <rect x="10" y="10" width="13" height="1" fill="rgb(111,211,247)"/>
    <rect x="23" y="10" width="2" height="1" fill="rgb(247,253,255)"/>
    <rect x="25" y="10" width="3" height="1" fill="rgb(168,236,255)"/>
    <rect x="28" y="10" width="1" height="1" fill="rgb(111,211,247)"/>
    <rect x="29" y="10" width="1" height="1" fill="rgb(168,236,255)"/>
    <rect x="30" y="10" width="1" height="1" fill="rgb(13,45,106)"/>
    <rect x="2" y="11" width="1" height="1" fill="rgb(13,45,106)"/>
    <rect x="3" y="11" width="3" height="1" fill="rgb(111,211,247)"/>
    <rect x="6" y="11" width="2" height="1" fill="rgb(247,253,255)"/>
    <rect x="8" y="11" width="2" height="1" fill="rgb(111,211,247)"/>
    <rect x="10" y="11" width="2" height="1" fill="rgb(247,253,255)"/>
    <rect x="12" y="11" width="1" height="1" fill="rgb(111,211,247)"/>
    <rect x="13" y="11" width="3" height="1" fill="rgb(168,236,255)"/>
    <rect x="16" y="11" width="5" height="1" fill="rgb(111,211,247)"/>
    <rect x="21" y="11" width="2" height="1" fill="rgb(247,253,255)"/>
    <rect x="23" y="11" width="2" height="1" fill="rgb(111,211,247)"/>
    <rect x="25" y="11" width="1" height="1" fill="rgb(168,236,255)"/>
    <rect x="26" y="11" width="3" height="1" fill="rgb(111,211,247)"/>
    <rect x="29" y="11" width="1" height="1" fill="rgb(168,236,255)"/>
    <rect x="30" y="11" width="1" height="1" fill="rgb(13,45,106)"/>
    <rect x="2" y="12" width="1" height="1" fill="rgb(52,117,201)"/>
    <rect x="3" y="12" width="3" height="1" fill="rgb(111,211,247)"/>
    <rect x="6" y="12" width="1" height="1" fill="rgb(247,253,255)"/>
    <rect x="7" y="12" width="5" height="1" fill="rgb(111,211,247)"/>
    <rect x="12" y="12" width="2" height="1" fill="rgb(247,253,255)"/>
    <rect x="14" y="12" width="4" height="1" fill="rgb(168,236,255)"/>
    <rect x="18" y="12" width="1" height="1" fill="rgb(111,211,247)"/>
    <rect x="19" y="12" width="2" height="1" fill="rgb(247,253,255)"/>
    <rect x="21" y="12" width="8" height="1" fill="rgb(111,211,247)"/>
    <rect x="29" y="12" width="1" height="1" fill="rgb(168,236,255)"/>
    <rect x="30" y="12" width="1" height="1" fill="rgb(52,117,201)"/>
    <rect x="2" y="13" width="1" height="1" fill="rgb(52,117,201)"/>
    <rect x="3" y="13" width="1" height="1" fill="rgb(111,211,247)"/>
    <rect x="4" y="13" width="1" height="1" fill="rgb(168,236,255)"/>
    <rect x="5" y="13" width="1" height="1" fill="rgb(111,211,247)"/>
    <rect x="6" y="13" width="1" height="1" fill="rgb(247,253,255)"/>
    <rect x="7" y="13" width="1" height="1" fill="rgb(111,211,247)"/>
    <rect x="8" y="13" width="1" height="1" fill="rgb(168,236,255)"/>
    <rect x="9" y="13" width="4" height="1" fill="rgb(111,211,247)"/>
    <rect x="13" y="13" width="1" height="1" fill="rgb(168,236,255)"/>
    <rect x="14" y="13" width="5" height="1" fill="rgb(247,253,255)"/>
    <rect x="19" y="13" width="10" height="1" fill="rgb(111,211,247)"/>
    <rect x="29" y="13" width="1" height="1" fill="rgb(168,236,255)"/>
    <rect x="30" y="13" width="1" height="1" fill="rgb(52,117,201)"/>
    <rect x="2" y="14" width="1" height="1" fill="rgb(52,117,201)"/>
    <rect x="3" y="14" width="1" height="1" fill="rgb(111,211,247)"/>
    <rect x="4" y="14" width="1" height="1" fill="rgb(168,236,255)"/>
    <rect x="5" y="14" width="1" height="1" fill="rgb(111,211,247)"/>
    <rect x="6" y="14" width="1" height="1" fill="rgb(247,253,255)"/>
    <rect x="7" y="14" width="3" height="1" fill="rgb(168,236,255)"/>
    <rect x="10" y="14" width="4" height="1" fill="rgb(111,211,247)"/>
    <rect x="14" y="14" width="1" height="1" fill="rgb(168,236,255)"/>
    <rect x="15" y="14" width="2" height="1" fill="rgb(247,253,255)"/>
    <rect x="17" y="14" width="2" height="1" fill="rgb(168,236,255)"/>
    <rect x="19" y="14" width="10" height="1" fill="rgb(111,211,247)"/>
    <rect x="29" y="14" width="1" height="1" fill="rgb(168,236,255)"/>
    <rect x="30" y="14" width="1" height="1" fill="rgb(52,117,201)"/>
    <rect x="2" y="15" width="1" height="1" fill="rgb(52,117,201)"/>
    <rect x="3" y="15" width="1" height="1" fill="rgb(111,211,247)"/>
    <rect x="4" y="15" width="1" height="1" fill="rgb(168,236,255)"/>
    <rect x="5" y="15" width="1" height="1" fill="rgb(111,211,247)"/>
    <rect x="6" y="15" width="1" height="1" fill="rgb(247,253,255)"/>
    <rect x="7" y="15" width="4" height="1" fill="rgb(168,236,255)"/>
    <rect x="11" y="15" width="3" height="1" fill="rgb(111,211,247)"/>
    <rect x="14" y="15" width="1" height="1" fill="rgb(168,236,255)"/>
    <rect x="15" y="15" width="1" height="1" fill="rgb(247,253,255)"/>
    <rect x="16" y="15" width="1" height="1" fill="rgb(168,236,255)"/>
    <rect x="17" y="15" width="12" height="1" fill="rgb(111,211,247)"/>
    <rect x="29" y="15" width="1" height="1" fill="rgb(168,236,255)"/>
    <rect x="30" y="15" width="1" height="1" fill="rgb(52,117,201)"/>
    <rect x="2" y="16" width="1" height="1" fill="rgb(52,117,201)"/>
    <rect x="3" y="16" width="1" height="1" fill="rgb(111,211,247)"/>
    <rect x="4" y="16" width="2" height="1" fill="rgb(168,236,255)"/>
    <rect x="6" y="16" width="1" height="1" fill="rgb(247,253,255)"/>
    <rect x="7" y="16" width="4" height="1" fill="rgb(168,236,255)"/>
    <rect x="11" y="16" width="4" height="1" fill="rgb(111,211,247)"/>
    <rect x="15" y="16" width="1" height="1" fill="rgb(247,253,255)"/>
    <rect x="16" y="16" width="1" height="1" fill="rgb(168,236,255)"/>
    <rect x="17" y="16" width="7" height="1" fill="rgb(111,211,247)"/>
    <rect x="24" y="16" width="1" height="1" fill="rgb(247,253,255)"/>
    <rect x="25" y="16" width="1" height="1" fill="rgb(52,117,201)"/>
    <rect x="26" y="16" width="3" height="1" fill="rgb(111,211,247)"/>
    <rect x="29" y="16" width="1" height="1" fill="rgb(168,236,255)"/>
    <rect x="30" y="16" width="1" height="1" fill="rgb(52,117,201)"/>
    <rect x="2" y="17" width="1" height="1" fill="rgb(52,117,201)"/>
    <rect x="3" y="17" width="1" height="1" fill="rgb(111,211,247)"/>
    <rect x="4" y="17" width="2" height="1" fill="rgb(168,236,255)"/>
    <rect x="6" y="17" width="1" height="1" fill="rgb(247,253,255)"/>
    <rect x="7" y="17" width="4" height="1" fill="rgb(168,236,255)"/>
    <rect x="11" y="17" width="4" height="1" fill="rgb(111,211,247)"/>
    <rect x="15" y="17" width="1" height="1" fill="rgb(247,253,255)"/>
    <rect x="16" y="17" width="8" height="1" fill="rgb(111,211,247)"/>
    <rect x="24" y="17" width="2" height="1" fill="rgb(52,117,201)"/>
    <rect x="26" y="17" width="3" height="1" fill="rgb(111,211,247)"/>
    <rect x="29" y="17" width="1" height="1" fill="rgb(168,236,255)"/>
    <rect x="30" y="17" width="1" height="1" fill="rgb(52,117,201)"/>
    <rect x="2" y="18" width="1" height="1" fill="rgb(52,117,201)"/>
    <rect x="3" y="18" width="1" height="1" fill="rgb(111,211,247)"/>
    <rect x="4" y="18" width="7" height="1" fill="rgb(168,236,255)"/>
    <rect x="11" y="18" width="4" height="1" fill="rgb(111,211,247)"/>
    <rect x="15" y="18" width="1" height="1" fill="rgb(247,253,255)"/>
    <rect x="16" y="18" width="4" height="1" fill="rgb(111,211,247)"/>
    <rect x="20" y="18" width="1" height="1" fill="rgb(247,253,255)"/>
    <rect x="21" y="18" width="1" height="1" fill="rgb(52,117,201)"/>
    <rect x="22" y="18" width="2" height="1" fill="rgb(111,211,247)"/>
    <rect x="24" y="18" width="2" height="1" fill="rgb(52,117,201)"/>
    <rect x="26" y="18" width="3" height="1" fill="rgb(111,211,247)"/>
    <rect x="29" y="18" width="1" height="1" fill="rgb(168,236,255)"/>
    <rect x="30" y="18" width="1" height="1" fill="rgb(52,117,201)"/>
    <rect x="2" y="19" width="1" height="1" fill="rgb(52,117,201)"/>
    <rect x="3" y="19" width="1" height="1" fill="rgb(111,211,247)"/>
    <rect x="4" y="19" width="6" height="1" fill="rgb(168,236,255)"/>
    <rect x="10" y="19" width="5" height="1" fill="rgb(111,211,247)"/>
    <rect x="15" y="19" width="1" height="1" fill="rgb(247,253,255)"/>
    <rect x="16" y="19" width="4" height="1" fill="rgb(111,211,247)"/>
    <rect x="20" y="19" width="2" height="1" fill="rgb(52,117,201)"/>
    <rect x="22" y="19" width="7" height="1" fill="rgb(111,211,247)"/>
    <rect x="29" y="19" width="1" height="1" fill="rgb(168,236,255)"/>
    <rect x="30" y="19" width="1" height="1" fill="rgb(52,117,201)"/>
    <rect x="2" y="20" width="1" height="1" fill="rgb(13,45,106)"/>
    <rect x="3" y="20" width="1" height="1" fill="rgb(111,211,247)"/>
    <rect x="4" y="20" width="7" height="1" fill="rgb(168,236,255)"/>
    <rect x="11" y="20" width="4" height="1" fill="rgb(111,211,247)"/>
    <rect x="15" y="20" width="1" height="1" fill="rgb(247,253,255)"/>
    <rect x="16" y="20" width="4" height="1" fill="rgb(111,211,247)"/>
    <rect x="20" y="20" width="2" height="1" fill="rgb(52,117,201)"/>
    <rect x="22" y="20" width="7" height="1" fill="rgb(111,211,247)"/>
    <rect x="29" y="20" width="1" height="1" fill="rgb(168,236,255)"/>
    <rect x="30" y="20" width="1" height="1" fill="rgb(13,45,106)"/>
    <rect x="2" y="21" width="1" height="1" fill="rgb(13,45,106)"/>
    <rect x="3" y="21" width="1" height="1" fill="rgb(52,117,201)"/>
    <rect x="4" y="21" width="1" height="1" fill="rgb(111,211,247)"/>
    <rect x="5" y="21" width="2" height="1" fill="rgb(168,236,255)"/>
    <rect x="7" y="21" width="1" height="1" fill="rgb(111,211,247)"/>
    <rect x="8" y="21" width="3" height="1" fill="rgb(168,236,255)"/>
    <rect x="11" y="21" width="4" height="1" fill="rgb(111,211,247)"/>
    <rect x="15" y="21" width="1" height="1" fill="rgb(247,253,255)"/>
    <rect x="16" y="21" width="12" height="1" fill="rgb(111,211,247)"/>
    <rect x="28" y="21" width="1" height="1" fill="rgb(168,236,255)"/>
    <rect x="29" y="21" width="1" height="1" fill="rgb(52,117,201)"/>
    <rect x="30" y="21" width="1" height="1" fill="rgb(13,45,106)"/>
    <rect x="1" y="22" width="1" height="1" fill="rgba(0,0,0,0.200)"/>
    <rect x="2" y="22" width="1" height="1" fill="rgb(13,45,106)"/>
    <rect x="3" y="22" width="1" height="1" fill="rgb(52,117,201)"/>
    <rect x="4" y="22" width="2" height="1" fill="rgb(111,211,247)"/>
    <rect x="6" y="22" width="1" height="1" fill="rgb(168,236,255)"/>
    <rect x="7" y="22" width="3" height="1" fill="rgb(111,211,247)"/>
    <rect x="10" y="22" width="1" height="1" fill="rgb(168,236,255)"/>
    <rect x="11" y="22" width="4" height="1" fill="rgb(111,211,247)"/>
    <rect x="15" y="22" width="1" height="1" fill="rgb(247,253,255)"/>
    <rect x="16" y="22" width="12" height="1" fill="rgb(111,211,247)"/>
    <rect x="28" y="22" width="1" height="1" fill="rgb(168,236,255)"/>
    <rect x="29" y="22" width="1" height="1" fill="rgb(52,117,201)"/>
    <rect x="30" y="22" width="1" height="1" fill="rgb(13,45,106)"/>
    <rect x="0" y="23" width="2" height="1" fill="rgba(0,0,0,0.200)"/>
    <rect x="2" y="23" width="1" height="1" fill="rgb(13,45,106)"/>
    <rect x="3" y="23" width="2" height="1" fill="rgb(52,117,201)"/>
    <rect x="5" y="23" width="9" height="1" fill="rgb(111,211,247)"/>
    <rect x="14" y="23" width="1" height="1" fill="rgb(168,236,255)"/>
    <rect x="15" y="23" width="1" height="1" fill="rgb(52,117,201)"/>
    <rect x="16" y="23" width="1" height="1" fill="rgb(168,236,255)"/>
    <rect x="17" y="23" width="9" height="1" fill="rgb(111,211,247)"/>
    <rect x="26" y="23" width="2" height="1" fill="rgb(168,236,255)"/>
    <rect x="28" y="23" width="2" height="1" fill="rgb(52,117,201)"/>
    <rect x="30" y="23" width="1" height="1" fill="rgb(13,45,106)"/>
    <rect x="1" y="24" width="2" height="1" fill="rgba(0,0,0,0.200)"/>
    <rect x="3" y="24" width="1" height="1" fill="rgb(13,45,106)"/>
    <rect x="4" y="24" width="3" height="1" fill="rgb(52,117,201)"/>
    <rect x="7" y="24" width="7" height="1" fill="rgb(111,211,247)"/>
    <rect x="14" y="24" width="1" height="1" fill="rgb(168,236,255)"/>
    <rect x="15" y="24" width="1" height="1" fill="rgb(52,117,201)"/>
    <rect x="16" y="24" width="1" height="1" fill="rgb(168,236,255)"/>
    <rect x="17" y="24" width="8" height="1" fill="rgb(111,211,247)"/>
    <rect x="25" y="24" width="1" height="1" fill="rgb(168,236,255)"/>
    <rect x="26" y="24" width="3" height="1" fill="rgb(52,117,201)"/>
    <rect x="29" y="24" width="1" height="1" fill="rgb(13,45,106)"/>
    <rect x="30" y="24" width="1" height="1" fill="rgba(0,0,0,0.200)"/>
    <rect x="3" y="25" width="1" height="1" fill="rgba(0,0,0,0.200)"/>
    <rect x="4" y="25" width="2" height="1" fill="rgb(13,45,106)"/>
    <rect x="6" y="25" width="3" height="1" fill="rgb(52,117,201)"/>
    <rect x="9" y="25" width="4" height="1" fill="rgb(111,211,247)"/>
    <rect x="13" y="25" width="2" height="1" fill="rgb(168,236,255)"/>
    <rect x="15" y="25" width="1" height="1" fill="rgb(52,117,201)"/>
    <rect x="16" y="25" width="1" height="1" fill="rgb(168,236,255)"/>
    <rect x="17" y="25" width="7" height="1" fill="rgb(111,211,247)"/>
    <rect x="24" y="25" width="3" height="1" fill="rgb(52,117,201)"/>
    <rect x="27" y="25" width="2" height="1" fill="rgb(13,45,106)"/>
    <rect x="29" y="25" width="1" height="1" fill="rgba(0,0,0,0.200)"/>
    <rect x="4" y="26" width="2" height="1" fill="rgba(0,0,0,0.200)"/>
    <rect x="6" y="26" width="2" height="1" fill="rgb(13,45,106)"/>
    <rect x="8" y="26" width="3" height="1" fill="rgb(52,117,201)"/>
    <rect x="11" y="26" width="1" height="1" fill="rgb(111,211,247)"/>
    <rect x="12" y="26" width="3" height="1" fill="rgb(168,236,255)"/>
    <rect x="15" y="26" width="1" height="1" fill="rgb(52,117,201)"/>
    <rect x="16" y="26" width="1" height="1" fill="rgb(168,236,255)"/>
    <rect x="17" y="26" width="5" height="1" fill="rgb(111,211,247)"/>
    <rect x="22" y="26" width="3" height="1" fill="rgb(52,117,201)"/>
    <rect x="25" y="26" width="2" height="1" fill="rgb(13,45,106)"/>
    <rect x="27" y="26" width="2" height="1" fill="rgba(0,0,0,0.200)"/>
    <rect x="6" y="27" width="2" height="1" fill="rgba(0,0,0,0.200)"/>
    <rect x="8" y="27" width="2" height="1" fill="rgb(13,45,106)"/>
    <rect x="10" y="27" width="3" height="1" fill="rgb(52,117,201)"/>
    <rect x="13" y="27" width="1" height="1" fill="rgb(168,236,255)"/>
    <rect x="14" y="27" width="2" height="1" fill="rgb(52,117,201)"/>
    <rect x="16" y="27" width="1" height="1" fill="rgb(168,236,255)"/>
    <rect x="17" y="27" width="3" height="1" fill="rgb(111,211,247)"/>
    <rect x="20" y="27" width="3" height="1" fill="rgb(52,117,201)"/>
    <rect x="23" y="27" width="2" height="1" fill="rgb(13,45,106)"/>
    <rect x="25" y="27" width="2" height="1" fill="rgba(0,0,0,0.200)"/>
    <rect x="8" y="28" width="2" height="1" fill="rgba(0,0,0,0.200)"/>
    <rect x="10" y="28" width="2" height="1" fill="rgb(13,45,106)"/>
    <rect x="12" y="28" width="4" height="1" fill="rgb(52,117,201)"/>
    <rect x="16" y="28" width="2" height="1" fill="rgb(168,236,255)"/>
    <rect x="18" y="28" width="3" height="1" fill="rgb(52,117,201)"/>
    <rect x="21" y="28" width="2" height="1" fill="rgb(13,45,106)"/>
    <rect x="23" y="28" width="2" height="1" fill="rgba(0,0,0,0.200)"/>
    <rect x="10" y="29" width="2" height="1" fill="rgba(0,0,0,0.200)"/>
    <rect x="12" y="29" width="2" height="1" fill="rgb(13,45,106)"/>
    <rect x="14" y="29" width="5" height="1" fill="rgb(52,117,201)"/>
    <rect x="19" y="29" width="2" height="1" fill="rgb(13,45,106)"/>
    <rect x="21" y="29" width="2" height="1" fill="rgba(0,0,0,0.200)"/>
    <rect x="12" y="30" width="2" height="1" fill="rgba(0,0,0,0.200)"/>
    <rect x="14" y="30" width="5" height="1" fill="rgb(13,45,106)"/>
    <rect x="19" y="30" width="2" height="1" fill="rgba(0,0,0,0.200)"/>
    <rect x="14" y="31" width="5" height="1" fill="rgba(0,0,0,0.200)"/>
  </g>
</svg>
