<?xml version="1.0" encoding="UTF-8"?>
<svg width="300px" height="300px" viewBox="0 0 300 300" version="1.1" xmlns="http://www.w3.org/2000/svg" xmlns:xlink="http://www.w3.org/1999/xlink">
    <title>Group</title>
    <defs>
        <radialGradient cx="107.875527%" cy="25.2233984%" fx="107.875527%" fy="25.2233984%" r="62.5020157%" gradientTransform="translate(1.0788, 0.2522), scale(1, 0.9063), rotate(108.838), translate(-1.0788, -0.2522)" id="radialGradient-1">
            <stop stop-color="#FFFFFF" stop-opacity="0" offset="13.9194%"></stop>
            <stop stop-color="#FFFFFF" stop-opacity="0.536145" offset="62.0501%"></stop>
            <stop stop-color="#FFFFFF" offset="100%"></stop>
        </radialGradient>
    </defs>
    <g id="Lock-and-Logout" stroke="none" stroke-width="1" fill="none" fill-rule="evenodd">
        <g id="Group">
            <circle id="Oval-3" fill="#000000" cx="150" cy="150" r="150"></circle>
            <g transform="translate(41, 40)" fill-rule="nonzero" id="Path">
                <path d="M143.994,148.148 L81.5818,106.55 L81.5818,72.2749 C81.5818,70.5299 80.1797,69.1278 78.4347,69.1278 C76.6898,69.1278 75.2877,70.5299 75.2877,72.2749 L75.2877,150.672 C75.2877,152.417 76.6898,153.819 78.4347,153.819 C80.1797,153.819 81.5818,152.417 81.5818,150.672 L81.5818,114.122 L140.504,153.414 C141.937,154.348 143.869,153.975 144.804,152.541 L144.866,152.479 C145.801,151.046 145.427,149.114 143.994,148.179 L143.994,148.148 Z" fill="#FFFFFF"></path>
                <path d="M143.621,75.053 C145.068,74.0889 145.458,72.1349 144.494,70.6888 C143.53,69.2426 141.576,68.8518 140.13,69.8159 L104.819,93.3568 C103.372,94.3209 102.982,96.2748 103.946,97.721 C104.91,99.1672 106.864,99.558 108.31,98.5939 L143.621,75.053 Z" fill="#FFFFFF"></path>
                <path d="M197.35,171.104 C196.515,171.104 195.708,171.521 195.207,172.189 C174.468,200.583 141.147,216.701 106.1,215.309 C51.762,213.138 7.50088,168.877 5.41309,114.511 C4.29961,85.6994 14.7107,58.3633 34.6978,37.5689 C54.7127,16.7467 81.5756,5.3056 110.359,5.3056 C143.736,5.3056 175.443,21.4512 195.207,48.5089 C195.708,49.177 196.515,49.5945 197.35,49.5945 C198.353,49.5945 199.271,49.0378 199.717,48.147 C200.162,47.2562 200.078,46.1706 199.494,45.3633 C178.004,15.9672 143.513,-0.9856 107.241,0.0443753 C78.7919,0.823816 52.0404,12.5154 31.9141,32.9201 C11.76,53.3526 0.430238,80.2711 0.0126799,108.693 C-0.432715,138.451 10.8692,166.511 31.7749,187.75 C52.7085,208.99 80.6013,220.682 110.331,220.682 C145.378,220.682 178.7,203.729 199.466,175.335 C200.078,174.528 200.162,173.442 199.689,172.551 C199.243,171.661 198.325,171.104 197.323,171.104 L197.35,171.104 Z" fill="url(#radialGradient-1)"></path>
            </g>
        </g>
    </g>
</svg>