<?xml version="1.0" encoding="UTF-8"?>
<svg width="480px" height="480px" viewBox="0 0 480 480" version="1.1" xmlns="http://www.w3.org/2000/svg" xmlns:xlink="http://www.w3.org/1999/xlink">
    <title>Group</title>
    <g id="Lock-and-Logout" stroke="none" stroke-width="1" fill="none" fill-rule="evenodd">
        <g id="Group">
            <circle id="Oval-2" fill="#EC136D" cx="240" cy="240" r="240"></circle>
            <path d="M306.730941,193.115204 L325.472958,215.219901 C327.618719,217.702707 329.521365,219.744994 330.291071,220.906338 C335.896187,226.497959 339.038435,234.055086 339.034591,241.93004 C338.508001,251.219827 332.47623,257.547415 326.890333,264.314848 L313.774572,279.772105 L306.933697,287.780941 C306.687699,288.057773 306.530106,288.398267 306.478216,288.762875 C306.426325,289.127483 306.483981,289.497878 306.643496,289.830655 C306.803011,290.162468 307.056697,290.441229 307.374765,290.632214 C307.692834,290.823199 308.05991,290.917727 308.430829,290.905188 L376.803062,290.905188 C387.246471,290.905188 400.402591,299.714619 399.633845,313.089365 C399.612704,319.169059 397.161367,324.993141 392.816033,329.291271 C388.470698,333.590366 382.583068,336.014334 376.437908,336.035554 L269.367983,336.035554 C262.324352,336.035554 243.378617,336.796601 238.076194,320.578298 C236.94806,317.188794 236.794311,313.557183 237.631283,310.086655 C239.172618,304.95417 241.610502,300.129384 244.836351,295.83029 C250.220453,287.821453 256.049466,279.812617 261.797761,272.043959 C269.205586,261.872554 276.816167,252.021386 284.30471,241.64935 C284.570888,241.31175 284.715028,240.896019 284.715028,240.46775 C284.715028,240.040252 284.570888,239.624521 284.30471,239.286921 L257.101687,207.250998 C256.924875,207.018729 256.695212,206.830348 256.431917,206.70071 C256.168622,206.570975 255.87842,206.503455 255.584375,206.503455 C255.289369,206.503455 254.999167,206.570975 254.735872,206.70071 C254.472577,206.830348 254.242914,207.018729 254.066102,207.250998 C246.779355,216.981883 214.881218,260.06977 208.079741,268.800105 C201.279226,277.529476 184.520572,278.009833 175.250461,268.800105 L132.705582,226.55265 C132.433734,226.282859 132.087126,226.099012 131.709576,226.024451 C131.332026,225.949889 130.940638,225.98799 130.584997,226.133833 C130.229356,226.279773 129.92551,226.526799 129.712087,226.843758 C129.498664,227.160716 129.385177,227.53333 129.386138,227.914142 L129.386138,309.165489 C129.486268,314.930732 127.760338,320.583121 124.450119,325.329776 C121.139901,330.076432 116.411346,333.680071 110.927019,335.635257 C107.422789,336.840971 103.677652,337.201721 100.004009,336.685675 C96.3303664,336.16963 92.834688,334.792222 89.8083289,332.668236 C86.7820658,330.544249 84.3128838,327.735418 82.606701,324.476131 C80.9005201,321.216844 80.0067777,317.600666 80,313.930472 L80,167.846906 C80.243898,162.582371 82.1587721,157.527824 85.4725365,153.401436 C88.7863008,149.275058 93.3303368,146.286729 98.459119,144.8611 C102.858362,143.701672 107.489381,143.713273 111.882666,144.894723 C116.275951,146.076172 120.275542,148.385482 123.476022,151.58864 L188.892812,216.381245 C189.087882,216.578017 189.325232,216.729841 189.586605,216.825912 C189.84894,216.921887 190.128571,216.959794 190.40628,216.936838 C190.684951,216.913977 190.954012,216.830735 191.196166,216.693187 C191.438321,216.555639 191.646844,216.367162 191.807319,216.14097 L238.278951,152.50968 C240.425673,149.926491 243.118204,147.838946 246.167241,146.393237 C249.216279,144.947523 252.546869,144.178595 255.928389,144.140299 L376.803062,144.140299 C380.11059,144.145694 383.37968,144.849746 386.39028,146.205377 C389.40088,147.561014 392.084763,149.536977 394.261274,152.00111 C396.437785,154.465214 398.056956,157.360761 399.012122,160.493978 C399.966327,163.627195 400.233467,166.925836 399.795282,170.169497 C398.943896,175.796131 396.058217,180.926204 391.673484,184.608166 C387.288752,188.290128 381.702854,190.274059 375.952637,190.191877 L308.269393,190.191877 C307.929223,190.200076 307.597701,190.298366 307.308461,190.476426 C307.020181,190.654486 306.784753,190.905853 306.628121,191.204388 C306.470528,191.502923 306.397497,191.837629 306.415755,192.173686 C306.434013,192.509742 306.542598,192.834899 306.730941,193.115204 Z" id="Path" fill="#FFFFFF" fill-rule="nonzero"></path>
        </g>
    </g>
</svg>