<svg width="22" height="22" viewBox="0 0 22 22" fill="none" xmlns="http://www.w3.org/2000/svg">
<rect width="22" height="22" rx="11" fill="url(#paint0_linear_14964_104230)"/>
<path fill-rule="evenodd" clip-rule="evenodd" d="M5.76096 9.00711C5.76096 9.00711 4.22507 6.52549 5.93988 5.65908C7.02778 5.18159 8.12971 5.52413 8.70278 5.81996C8.76725 5.8493 8.82399 5.87587 8.87485 5.89969C9.25883 6.07948 9.30909 6.10301 9.84479 5.99013C11.1698 5.68803 12.5401 5.84512 13.5254 6.25713C14.7625 5.0693 17.5386 5.01351 16.0777 8.03533C16.0777 8.03533 16.3521 8.34463 16.5245 8.59675C16.5706 8.69973 16.5076 8.79328 16.4393 8.89491C16.3608 9.01146 16.2753 9.13862 16.3388 9.30273C16.4336 9.54778 16.5829 9.78764 16.7543 10.0632C16.9704 10.4104 17.2217 10.8143 17.4438 11.3567C17.8422 12.3295 17.2814 13.8342 16.7429 14.7075C15.8205 16.1369 14.293 15.5675 13.0399 14.9515C12.8628 14.8644 12.6485 14.944 12.574 15.1268L11.9069 16.7642C11.8011 17.0239 11.5278 17.1758 11.2581 17.0987C9.35869 16.5558 6.13023 14.6404 4.46431 10.5417C4.34165 10.2399 4.50299 9.89913 4.79152 9.74792C5.11202 9.57995 5.5051 9.3286 5.76096 9.00711ZM16.5728 7.96681C16.6639 8.07722 16.7793 8.22257 16.8724 8.3588L16.8939 8.39009L16.9093 8.42468C16.996 8.61841 16.9607 8.79765 16.9091 8.92034C16.8722 9.00832 16.8139 9.0939 16.785 9.13635C16.781 9.14215 16.7776 9.14717 16.7749 9.15127C16.7633 9.16859 16.7549 9.18214 16.7487 9.19243C16.8289 9.38423 16.9499 9.5791 17.1139 9.84319C17.1355 9.87782 17.1577 9.91365 17.1807 9.9508C17.3841 10.2795 17.6214 10.678 17.8339 11.1969C18.0841 11.8079 18.0191 12.5346 17.8526 13.1754C17.6831 13.8277 17.3902 14.4608 17.1017 14.9287L17.0994 14.9324L17.0971 14.936C16.8292 15.3511 16.5036 15.6408 16.1312 15.8165C15.761 15.9912 15.3704 16.0409 14.9892 16.0172C14.2738 15.9727 13.5434 15.6649 12.9311 15.3675L12.2972 16.9232C12.1198 17.3589 11.6421 17.6468 11.1423 17.504C9.1367 16.9307 5.79532 14.9359 4.07381 10.7004C3.85403 10.1597 4.15359 9.60634 4.59585 9.37457C4.81791 9.25818 5.05393 9.11039 5.24324 8.94101C5.21936 8.89438 5.19376 8.84282 5.16718 8.787C5.04231 8.52467 4.89086 8.15752 4.79683 7.75356C4.70378 7.35383 4.65905 6.8848 4.78196 6.43631C4.90988 5.9696 5.21233 5.55441 5.74979 5.28286L5.76 5.2777L5.77047 5.27311C7.0186 4.72528 8.25728 5.11808 8.88662 5.44052C8.95835 5.47322 9.01304 5.4989 9.05992 5.5209C9.1115 5.54511 9.15361 5.56487 9.19852 5.58468C9.27415 5.61803 9.30884 5.62855 9.33286 5.63318C9.3774 5.64178 9.44295 5.64392 9.75457 5.57837C11.0569 5.28219 12.4022 5.40025 13.4408 5.77242C13.7648 5.51572 14.1458 5.32209 14.529 5.20562C14.9922 5.06479 15.5022 5.02407 15.9429 5.16653C16.4098 5.31744 16.7789 5.67213 16.8837 6.239C16.9709 6.71115 16.8669 7.28772 16.5728 7.96681Z" fill="white"/>
<path d="M13.9766 6.42433C14.2403 6.1866 15.0868 5.75733 15.7307 5.984C14.9121 6.02241 14.7071 6.82041 13.9766 6.42433Z" fill="white"/>
<path d="M5.79974 10.6672C5.67112 10.2298 5.34693 9.785 4.80273 10.2285C5.91444 13.1346 7.88375 14.6839 7.88375 14.6839C6.8352 13.5834 6.15211 11.7129 5.79974 10.6672Z" fill="white"/>
<path d="M10.4014 12.6646C10.9439 13.1407 11.9637 13.1725 13.499 13.1112C12.8009 13.5002 11.6632 13.4873 11.6632 13.4873C12.1771 13.8353 13.2323 14.2404 14.3194 14.2982C15.4064 14.3561 16.2044 14.067 16.2028 13.0849C16.2028 12.0603 14.4214 10.9222 10.4014 12.6646Z" fill="white"/>
<path d="M17.1877 12.0352C16.9706 12.187 16.725 12.573 16.6498 13.0466C16.3234 14.9743 17.3428 13.0673 17.1877 12.0352Z" fill="white"/>
<path d="M13.2275 14.4942C14.0715 14.9426 15.7537 15.7033 16.4216 14.4276L16.3716 14.3756C16.3461 14.3492 16.3067 14.3423 16.2734 14.3577C15.5573 14.6893 14.4757 14.8039 13.2275 14.4942Z" fill="white"/>
<path d="M13.8806 9.46121C14.0784 10.0072 14.3248 10.6374 14.5416 11.0442C14.6624 11.271 14.8959 11.4006 15.1512 11.4302C16.2594 11.5583 16.6068 11.4554 16.8252 11.3559C16.9238 11.3109 16.9773 11.1996 16.917 11.1096C16.917 11.1096 16.0572 9.67803 15.6321 9.11994C15.399 8.77888 15.1224 8.42631 15.8666 8.43967C13.804 6.30546 11.9153 5.96329 9.7199 6.44488C9.29299 6.52877 9.05994 6.46725 8.61812 6.2454C8.14643 6.00677 7.47529 5.73645 6.6084 5.88931C7.22523 6.29221 7.73639 6.92571 8.09367 7.4784C8.5421 8.17204 9.30238 8.68153 10.1261 8.62027L12.2786 8.46019C12.9502 8.41023 13.6511 8.82798 13.8806 9.46121Z" fill="white"/>
<path d="M10.9687 8.98305L9.33654 9.08118C6.19146 9.31508 7.76591 12.8347 11.5998 11.7831C13.6777 11.2131 14.0108 10.8357 13.5705 9.82142C13.5032 9.70017 13.369 9.63128 13.2304 9.63663C12.2036 9.67628 11.6218 9.42824 11.3968 9.19788C11.282 9.08033 11.1327 8.9732 10.9687 8.98305Z" fill="white"/>
<defs>
<linearGradient id="paint0_linear_14964_104230" x1="11" y1="0" x2="11" y2="22" gradientUnits="userSpaceOnUse">
<stop stop-color="#FF8F0D"/>
<stop offset="1" stop-color="#FF762E"/>
</linearGradient>
</defs>
</svg>
