<?xml version="1.0" encoding="UTF-8"?>
<svg width="512px" height="512px" viewBox="0 0 512 512" version="1.1" xmlns="http://www.w3.org/2000/svg" xmlns:xlink="http://www.w3.org/1999/xlink">
    <title>Group</title>
    <g id="Misc" stroke="none" stroke-width="1" fill="none" fill-rule="evenodd">
        <g id="Group">
            <rect id="Rectangle" fill="#FB4D01" x="0" y="0" width="512" height="512" rx="110"></rect>
            <path d="M373.89,106.199 C362.793744,106.199 352.491855,111.955372 346.677,121.406 L284.046,214.385 C283.067168,215.855292 282.711493,217.653806 283.057,219.386 C283.403643,221.118027 284.424145,222.641406 285.894,223.621 C288.380337,225.271829 291.660702,225.070073 293.926,223.127 L355.569,169.657 C356.589,168.733 358.168,168.83 359.092,169.85 C359.511,170.323 359.736,170.924 359.736,171.547 L359.736,338.949 C359.736274,339.611647 359.472406,340.247071 359.002813,340.714599 C358.53322,341.182128 357.896639,341.443194 357.234,341.44 C356.495824,341.442358 355.794967,341.115755 355.322,340.549 L168.976,117.497 C162.9121,110.334783 154.004467,106.202805 144.62,106.199 L138.112,106.199 C120.489,106.199 106.195,120.493 106.195,138.116 L106.195,373.883 C106.195,391.506 120.489,405.800001 138.112,405.800001 C149.208563,405.800001 159.511291,400.045693 165.325,390.594 L227.956,297.614 C228.935881,296.144314 229.29178,294.34556 228.945398,292.613462 C228.599016,290.881364 227.578729,289.357817 226.109,288.378 C223.622444,286.726662 220.341483,286.928429 218.076,288.872 L156.433,342.343 C155.413,343.266 153.834,343.169 152.911,342.149 C152.494093,341.683001 152.267767,341.077205 152.277,340.452 L152.277,173.008 C152.27646,172.34518 152.54021,171.709498 153.009832,171.241753 C153.479455,170.774008 154.116187,170.512805 154.779,170.516 C155.51,170.516 156.218,170.838 156.691,171.407 L343.004,394.503 C349.070004,401.662894 357.976947,405.794016 367.361,405.800001 L373.869,405.800001 C391.492,405.800001 405.796,391.528 405.807,373.905 L405.807,138.116 C405.807,120.493 391.513,106.199 373.89,106.199" id="Path" fill="#FFFFFF"></path>
        </g>
    </g>
</svg>