<?xml version="1.0" encoding="UTF-8"?>
<svg width="320px" height="320px" viewBox="0 0 320 320" version="1.1" xmlns="http://www.w3.org/2000/svg">
    <title>1sec</title>
    <g id="Icons" stroke="none" stroke-width="1" fill="none" fill-rule="evenodd">
        <g id="1sec">
            <rect id="Rectangle" fill="#FEF9F7" x="0" y="0" width="320" height="320"/>
            <g transform="translate(60, 60)" fill="#000000" id="Path">
                <path d="M200,1.22543675e-13 L200,153.895284 C199.997024,179.356983 179.356983,199.997024 153.895284,200 L46.1667068,200 C20.6445978,200 0,179.352719 0,153.895284 L0,46.1667068 C-0.00857586041,33.9199074 4.85264367,22.1722378 13.5124407,13.5124407 C22.1722378,4.85264367 33.9199074,-0.00857586041 46.1667068,1.22543675e-13 L84.6748833,1.22543675e-13 L84.6748833,46.1667068 L46.1667068,46.1667068 L46.1667068,153.895284 L153.895284,153.895284 L153.895284,87.6499026 L110.070338,87.6499026 L110.070338,50.3462857 C148.640494,41.8604741 153.456038,13.9319408 153.895284,3.72686986 L153.895284,1.22543675e-13 L200,1.22543675e-13 Z"/>
            </g>
        </g>
    </g>
</svg>