<?xml version="1.0" encoding="UTF-8"?>
<svg width="60px" height="60px" viewBox="0 0 60 60" version="1.1" xmlns="http://www.w3.org/2000/svg" xmlns:xlink="http://www.w3.org/1999/xlink">
    <title>Group</title>
    <g id="Lock-and-Logout" stroke="none" stroke-width="1" fill="none" fill-rule="evenodd">
        <g id="Group">
            <path d="M30.2619772,0.000980184961 C13.4854739,-0.133015101 -0.138934764,13.4885057 0.0010694356,30.2639154 C0.139073575,46.5513424 13.4494728,59.8608741 29.7379615,59.9988693 C46.5144647,60.1428642 60.1428735,46.5153437 59.9988692,29.7399339 C59.8648652,13.4545068 46.5524658,0.140975259 30.2619772,0.000980184961 Z" id="Path" fill="#0086FF" fill-rule="nonzero"></path>
            <path d="M29.955968,9.26865412 C31.0300002,9.26865412 31.9000263,10.1386235 31.9000263,11.2125857 L31.9000263,13.7084979 C37.8642052,16.4924 41.7703224,21.1122374 41.7703224,26.3380536 C41.7703224,29.4039457 40.4302822,32.2578453 38.1162128,34.6577608 C37.6721995,35.1177447 37.056181,35.3777355 36.4121617,35.3777355 L31.9040264,35.3777355 L31.9040264,39.0916049 L37.5641962,39.0916049 C38.7842328,39.0916049 40.9762986,36.7756863 42.0143297,35.3797354 C42.0143297,35.3797354 42.058331,35.3117378 42.1783346,35.2757391 C42.2983382,35.2397404 52.5746465,32.8818233 52.5746465,32.8818233 C52.6760054,32.8546561 52.7842306,32.87581 52.8678979,32.9391428 C52.9515652,33.0024756 53.0012992,33.1008906 53.0026593,33.2058119 L53.0026593,35.3677359 C53.0026593,35.5077309 52.9286571,35.6277267 52.7986532,35.6837248 C52.0946321,35.9837142 49.7685623,37.0636762 48.7985332,38.4076289 C46.3044584,41.8815067 44.3984012,47.3413146 40.1382734,47.3413146 L22.3637403,47.3413146 C16.0695514,47.3413146 10.8033935,42.3454904 10.8073913,35.6917245 C10.8073913,35.5277302 10.9473978,35.391735 11.1134028,35.391735 L19.5376555,35.391735 C19.8276642,35.391735 20.0576711,35.6257268 20.0576711,35.9117167 L20.0576711,37.5376595 C20.0576711,38.4016291 20.755692,39.1036044 21.621718,39.1036044 L28.0119097,39.1036044 L28.0119097,35.3837353 L23.6477788,35.3837353 C26.2500809,32.0911565 27.661349,28.0148171 27.6518989,23.8181422 C27.6518989,18.9443137 25.7838428,14.4984701 22.7237511,11.1745871 C24.5738065,11.3905795 26.3438596,11.7585665 28.0119097,12.2485493 L28.0119097,11.2125857 C28.0119097,10.1386235 28.8819358,9.26865412 29.955968,9.26865412 L29.955968,9.26865412 Z M21.289708,14.928455 C23.2842303,17.4581351 24.3666599,20.5868294 24.3618165,23.8081426 C24.3618165,26.7080405 23.5017744,29.4079456 22.02173,31.6598663 L11.621418,31.6598663 L21.289708,14.9304549 L21.289708,14.928455 Z" id="Shape" fill="#FFFFFF" fill-rule="nonzero"></path>
        </g>
    </g>
</svg>