<?xml version="1.0" encoding="UTF-8"?>
<svg width="406px" height="406px" viewBox="0 0 406 406" version="1.1" xmlns="http://www.w3.org/2000/svg" xmlns:xlink="http://www.w3.org/1999/xlink">
    <title>Group</title>
    <g id="Lock-and-Logout" stroke="none" stroke-width="1" fill="none" fill-rule="evenodd">
        <g id="Group" transform="translate(-4, -2)" fill="#61D7EF" fill-rule="nonzero">
            <path d="M206.814,163.836 C211.946,185.469 225.916,199.118 248.083,205.889 C248.49,206.015 248.847,206.268 249.1,206.611 C249.353,206.955 249.489,207.37 249.489,207.796 C249.489,208.222 249.353,208.637 249.1,208.98 C248.847,209.324 248.49,209.577 248.083,209.703 C238.11,212.069 228.981,217.135 221.695,224.345 C214.41,231.555 209.249,240.632 206.779,250.58 C206.663,251.001 206.412,251.373 206.064,251.638 C205.717,251.903 205.291,252.047 204.854,252.047 C204.417,252.047 203.992,251.903 203.644,251.638 C203.297,251.373 203.046,251.001 202.93,250.58 C200.435,240.861 195.419,231.973 188.389,224.813 C181.215,217.501 172.204,212.257 162.303,209.631 C161.895,209.505 161.539,209.252 161.286,208.909 C161.033,208.566 160.896,208.151 160.896,207.725 C160.896,207.298 161.033,206.883 161.286,206.54 C161.539,206.197 161.895,205.944 162.303,205.818 C184.22,199.403 197.691,185.469 203.001,163.836 C203.127,163.429 203.38,163.073 203.723,162.82 C204.066,162.567 204.481,162.43 204.908,162.43 C205.334,162.43 205.749,162.567 206.092,162.82 C206.435,163.073 206.688,163.429 206.814,163.836 Z" id="Path"></path>
            <path d="M328.374,245.52 C328.376,287.458 312.121,327.765 283.026,357.97 C253.931,388.175 214.26,405.927 172.351,407.495 C171.575,407.528 170.8,407.405 170.073,407.132 C169.346,406.859 168.681,406.442 168.119,405.907 C167.557,405.371 167.108,404.727 166.801,404.014 C166.493,403.301 166.332,402.534 166.328,401.757 L166.328,326.56 C185.026,326.557 203.147,320.091 217.624,308.258 C232.101,296.424 242.042,279.951 245.765,261.628 C246.606,257.144 248.978,253.09 252.474,250.159 C255.971,247.228 260.376,245.601 264.938,245.555 L328.374,245.52 Z" id="Path"></path>
            <path d="M166.222,263.09 L166.222,326.561 C124.283,326.563 83.9766,310.308 53.7715,281.213 C23.5665,252.118 5.81523,212.447 4.24759,170.538 C4.21402,169.762 4.33714,168.987 4.60997,168.26 C4.88281,167.533 5.29978,166.868 5.83547,166.306 C6.37116,165.744 7.01438,165.295 7.72743,164.987 C8.44049,164.68 9.20864,164.519 9.98527,164.515 L85.1815,164.515 C85.2112,183.212 91.7077,201.322 103.569,215.775 C115.43,230.228 131.925,240.133 150.257,243.81 C154.736,244.683 158.775,247.081 161.685,250.596 C164.596,254.111 166.2,258.526 166.222,263.09 Z" id="Path"></path>
            <path d="M148.76,164.479 L85.2891,164.479 C85.2891,122.534 101.547,82.2221 130.65,52.0162 C159.752,21.8102 199.432,4.06259 241.348,2.50395 C242.123,2.47536 242.895,2.60214 243.62,2.87678 C244.345,3.15141 245.008,3.56843 245.569,4.10314 C246.13,4.63785 246.579,5.27954 246.888,5.99032 C247.198,6.7011 247.362,7.46668 247.371,8.24184 L247.371,83.4381 C228.667,83.4367 210.538,89.9053 196.059,101.747 C181.58,113.588 171.643,130.073 167.934,148.406 C167.099,152.894 164.729,156.951 161.231,159.883 C157.733,162.816 153.324,164.44 148.76,164.479 Z" id="Path"></path>
            <path d="M247.336,146.945 L247.336,83.4376949 C289.278,83.4272 329.589,99.679 359.796,128.776 C390.003,157.873 407.752,197.549 409.311,239.461 C409.349,240.235 409.231,241.009 408.962,241.736 C408.693,242.463 408.28,243.128 407.747,243.691 C407.214,244.254 406.573,244.703 405.861,245.011 C405.15,245.319 404.384,245.48 403.609,245.484 L328.377,245.484 C328.377,226.784 321.907,208.66 310.065,194.187 C298.223,179.714 281.739,169.785 263.409,166.082 C258.93,165.242 254.881,162.876 251.951,159.387 C249.02,155.898 247.39,151.501 247.336,146.945 Z" id="Path"></path>
        </g>
    </g>
</svg>