<?xml version="1.0" encoding="UTF-8"?>
<svg width="49px" height="49px" viewBox="0 0 49 49" version="1.1" xmlns="http://www.w3.org/2000/svg" xmlns:xlink="http://www.w3.org/1999/xlink">
    <title>Group</title>
    <g id="NFT" stroke="none" stroke-width="1" fill="none" fill-rule="evenodd">
        <g id="Group" transform="translate(3.9258, 4.2983)">
            <circle id="Oval" fill="#263238" cx="20.37422" cy="20.00166" r="24.3"></circle>
            <path d="M15.6653,11.103 L15.6653,2.70166 L21.0171,2.70166 C21.4416,2.70166 21.7772,3.06138 21.7478,3.48487 C21.4417,7.8923 19.5525,12.0405 16.4285,15.1645 L15.537,16.0559 C12.413,19.1799 8.26485,21.0692 3.85742,21.3752 C3.43394,21.4046 3.07422,21.069 3.07422,20.6445 L3.07422,15.2928 L11.4756,15.2928 C13.7895,15.2928 15.6653,13.417 15.6653,11.103 Z" id="Path" fill="#FFFFFF" fill-rule="nonzero"></path>
            <path d="M14.9903,28.4888 L7.7145,32.6895 L5.03862,28.0547 C4.82637,27.6871 4.97009,27.2166 5.35155,27.0303 C9.32153,25.0917 13.8586,24.6537 18.1261,25.7972 L19.3438,26.1234 C23.6113,27.2669 27.3215,29.9147 29.7902,33.5786 C30.0275,33.9307 29.9167,34.41 29.549,34.6223 L24.9143,37.2981 L20.7136,30.0224 C19.5566,28.0184 16.9942,27.3318 14.9903,28.4888 Z" id="Path" fill="#FFFFFF" fill-rule="nonzero"></path>
            <path d="M30.395,20.3778 L37.6707,24.5784 L34.9949,29.2132 C34.7826,29.5808 34.3033,29.6916 33.9512,29.4544 C30.2873,26.9856 27.6395,23.2754 26.496,19.0079 L26.1698,17.7902 C25.0263,13.5227 25.4643,8.98569 27.4029,5.01571 C27.5892,4.63426 28.0597,4.49053 28.4273,4.70279 L33.0621,7.37866 L28.8614,14.6544 C27.7044,16.6584 28.391,19.2208 30.395,20.3778 Z" id="Path" fill="#FFFFFF" fill-rule="nonzero"></path>
            <path d="M20.8642,15.6552 C21.2291,15.1711 21.9978,15.3771 22.0718,15.9788 C22.3214,18.0093 22.834,19.9987 23.5967,21.897 L23.8922,22.6327 C24.1152,23.1877 23.5531,23.734 23.0046,23.4952 C20.8709,22.5662 18.6105,21.9605 16.2982,21.6982 C15.7038,21.6308 15.4901,20.8766 15.9608,20.5074 L16.5845,20.0181 C18.1942,18.7555 19.6328,17.2889 20.8642,15.6552 Z" id="Path" fill="#FFFFFF" fill-rule="nonzero"></path>
        </g>
    </g>
</svg>