<svg width="80" height="80" viewBox="0 0 80 80" fill="none" xmlns="http://www.w3.org/2000/svg">
    <rect width="80" height="80" fill="url(#paint0_linear_2411_22126)"/>
    <g clip-path="url(#clip0_2411_22126)">
        <path d="M29.8627 17.2765C29.1353 17.1726 29.1007 17.1379 29.4471 17.1033C30.1052 16.9993 31.6294 17.1379 32.7033 17.3804C35.1974 17.9693 37.449 19.4935 39.8392 22.1608L40.4627 22.8882L41.3634 22.7497C45.2085 22.1261 49.1575 22.6111 52.4484 24.1353C53.349 24.551 54.7693 25.3824 54.9425 25.5902C55.0118 25.6595 55.1157 26.1098 55.185 26.5601C55.4275 28.1882 55.3235 29.4007 54.8039 30.336C54.5268 30.8556 54.5268 30.9941 54.7 31.4444C54.8386 31.7909 55.2542 32.0333 55.6353 32.0333C56.4667 32.0333 57.3327 30.717 57.7484 28.881L57.9216 28.1536L58.2333 28.5C60 30.4745 61.3856 33.2111 61.5935 35.151L61.6627 35.6706L61.351 35.2203C60.8314 34.4235 60.3464 33.9039 59.6882 33.4536C58.5105 32.6569 57.2634 32.4144 53.9726 32.2412C50.9935 32.068 49.2961 31.8255 47.6333 31.2712C44.7928 30.3359 43.3379 29.1235 39.9778 24.6549C38.4882 22.6804 37.5529 21.6065 36.6176 20.7059C34.5739 18.7314 32.5301 17.6922 29.8627 17.2765Z" fill="#FF007A"/>
        <path d="M55.6699 21.6756C55.7392 20.3593 55.9124 19.4933 56.2935 18.6966C56.432 18.3848 56.5706 18.1077 56.6052 18.1077C56.6399 18.1077 56.5706 18.3501 56.4667 18.6273C56.1895 19.3894 56.1549 20.4632 56.3281 21.6756C56.5706 23.2345 56.6745 23.4423 58.3372 25.1397C59.0993 25.9364 60 26.941 60.3464 27.3567L60.9353 28.1188L60.3464 27.5645C59.6189 26.8717 57.9562 25.5554 57.5752 25.3822C57.3327 25.2436 57.298 25.2436 57.1248 25.4168C56.9863 25.5554 56.9516 25.7632 56.9516 26.7678C56.917 28.3266 56.7091 29.2966 56.1895 30.3011C55.9124 30.8207 55.8778 30.7168 56.1203 30.1279C56.2935 29.6776 56.3281 29.4698 56.3281 27.9802C56.3281 24.9665 55.9817 24.239 53.8686 23.0266C53.349 22.7149 52.4484 22.2645 51.9287 22.022C51.3745 21.7796 50.9588 21.5717 50.9935 21.5717C51.0627 21.5024 53.1065 22.0913 53.9033 22.4377C55.1157 22.9227 55.3235 22.9573 55.4621 22.9227C55.566 22.8188 55.6353 22.5417 55.6699 21.6756Z" fill="#FF007A"/>
        <path d="M31.283 26.8373C29.8281 24.8281 28.8928 21.7105 29.1007 19.3896L29.1699 18.6621L29.5163 18.7314C30.1399 18.8353 31.2137 19.251 31.7333 19.5628C33.119 20.3941 33.7425 21.5373 34.3314 24.3778C34.5046 25.2092 34.7471 26.1791 34.851 26.4909C35.0242 27.0105 35.6824 28.2229 36.2366 28.985C36.6176 29.5392 36.3752 29.8164 35.5092 29.7471C34.1928 29.6085 32.4261 28.3961 31.283 26.8373Z" fill="#FF007A"/>
        <path d="M53.9033 41.9057C47.0444 39.1344 44.6196 36.7442 44.6196 32.6913C44.6196 32.1024 44.6543 31.6174 44.6543 31.6174C44.6889 31.6174 44.9314 31.8253 45.2431 32.0678C46.6288 33.1763 48.1876 33.6612 52.5177 34.2848C55.0464 34.6658 56.5013 34.9429 57.8177 35.3932C62.0092 36.7789 64.6072 39.6194 65.2307 43.4645C65.4039 44.573 65.3 46.6861 65.0229 47.7946C64.7804 48.6606 64.0876 50.254 63.9144 50.2887C63.8797 50.2887 63.8105 50.1155 63.8105 49.8383C63.7412 48.3834 63.0137 46.9978 61.8013 45.924C60.3464 44.6769 58.4758 43.7416 53.9033 41.9057Z" fill="#FF007A"/>
        <path d="M49.0536 43.049C48.9843 42.5294 48.8111 41.8712 48.7072 41.5941L48.534 41.0745L48.8458 41.4555C49.2961 41.9751 49.6425 42.5986 49.9543 43.4647C50.1967 44.1228 50.1967 44.3307 50.1967 45.4045C50.1967 46.4437 50.1621 46.6862 49.9543 47.2751C49.6078 48.2104 49.1922 48.8686 48.4993 49.596C47.2523 50.8777 45.6242 51.5705 43.3033 51.8823C42.8876 51.9169 41.7098 52.0209 40.6706 52.0902C38.0725 52.2287 36.3405 52.5058 34.7817 53.0601C34.5739 53.1294 34.366 53.1986 34.3314 53.164C34.2621 53.0947 35.3359 52.4712 36.202 52.0555C37.4144 51.4666 38.6614 51.1549 41.398 50.6699C42.749 50.462 44.1346 50.1849 44.481 50.0464C47.9105 48.9725 49.6078 46.3052 49.0536 43.049Z" fill="#FF007A"/>
        <path d="M52.2059 48.6259C51.3052 46.6514 51.0974 44.7808 51.5824 43.0141C51.6516 42.8409 51.7209 42.6677 51.7902 42.6677C51.8595 42.6677 52.0673 42.7716 52.2752 42.9102C52.6908 43.1873 53.5569 43.6723 55.7739 44.8847C58.5797 46.4089 60.1732 47.5867 61.2817 48.9377C62.2516 50.1154 62.8405 51.4664 63.1176 53.1292C63.2908 54.0645 63.1869 56.3161 62.9444 57.2514C62.1824 60.1958 60.4503 62.5514 57.9216 63.9024C57.5405 64.1102 57.2288 64.2488 57.1941 64.2488C57.1595 64.2488 57.298 63.9024 57.5059 63.4867C58.3373 61.72 58.4412 60.0226 57.8176 58.1174C57.4366 56.9396 56.6399 55.5194 55.0464 53.1292C53.1412 50.3579 52.6908 49.6305 52.2059 48.6259Z" fill="#FF007A"/>
        <path d="M26.3987 59.2259C28.9621 57.0782 32.1144 55.554 35.0242 55.069C36.2712 54.8612 38.3497 54.9304 39.4928 55.2422C41.3288 55.7272 42.9915 56.7664 43.8575 58.0481C44.6889 59.2951 45.0699 60.369 45.451 62.7592C45.5895 63.6945 45.7627 64.6644 45.7974 64.8723C46.0745 66.1193 46.6288 67.0893 47.3216 67.6089C48.3954 68.4056 50.266 68.4402 52.102 67.7474C52.4137 67.6435 52.6908 67.5396 52.6908 67.5742C52.7601 67.6435 51.8248 68.267 51.2013 68.5788C50.3353 69.0291 49.6425 69.1677 48.7072 69.1677C47.0444 69.1677 45.6242 68.3017 44.481 66.5697C44.2386 66.2232 43.7536 65.2187 43.3379 64.2834C42.1255 61.4775 41.502 60.6461 40.0817 59.7108C38.8346 58.9141 37.2412 58.7409 36.0288 59.3298C34.4353 60.0919 34.0196 62.1357 35.1281 63.3827C35.5784 63.9023 36.4098 64.318 37.1026 64.4219C38.3843 64.5951 39.4928 63.5906 39.4928 62.3089C39.4928 61.4775 39.181 60.9925 38.3497 60.6115C37.2412 60.1265 36.0288 60.6808 36.0634 61.7546C36.0634 62.205 36.2712 62.4821 36.7216 62.6899C36.9987 62.8285 36.9987 62.8285 36.7908 62.7938C35.7863 62.586 35.5438 61.3389 36.3405 60.5422C37.3105 59.5723 39.3542 59.988 40.0471 61.3389C40.3242 61.8932 40.3588 63.0017 40.1163 63.6945C39.5275 65.2187 37.8647 66.0154 36.1673 65.5651C35.0242 65.2533 34.5392 64.9416 33.1536 63.5213C30.7288 61.0272 29.7935 60.5422 26.3294 60.0226L25.6712 59.9187L26.3987 59.2259Z" fill="#FF007A"/>
        <path fill-rule="evenodd" clip-rule="evenodd" d="M8.17785 3.48954C16.2491 13.2928 28.685 28.5346 29.3086 29.366C29.8282 30.0588 29.6203 30.717 28.7543 31.202C28.2694 31.4791 27.2648 31.7562 26.7798 31.7562C26.2256 31.7562 25.5674 31.4791 25.1171 31.0288C24.8053 30.717 23.4543 28.7425 20.406 23.9967C18.085 20.3595 16.1105 17.3458 16.0759 17.3111C15.9373 17.2418 15.9373 17.2418 20.1635 24.7935C22.8308 29.5392 23.6968 31.2366 23.6968 31.4444C23.6968 31.8948 23.5582 32.1373 23.004 32.7608C22.0687 33.8 21.653 34.9778 21.3412 37.4373C20.9948 40.1739 20.0595 42.1137 17.3922 45.4046C15.8334 47.3444 15.5909 47.6908 15.2099 48.4876C14.7249 49.4575 14.5863 50.0118 14.5171 51.2588C14.4478 52.5752 14.5863 53.4065 14.9674 54.6536C15.3138 55.7621 15.6948 56.4895 16.6301 57.9098C17.4269 59.1569 17.9118 60.0922 17.9118 60.4386C17.9118 60.7157 17.9811 60.7157 19.2282 60.4386C22.2073 59.7458 24.6667 58.568 26.0177 57.1131C26.8491 56.2124 27.0569 55.7275 27.0569 54.4804C27.0569 53.6837 27.0223 53.5105 26.8144 53.0255C26.468 52.2634 25.8099 51.6399 24.3896 50.6699C22.519 49.3882 21.7223 48.349 21.5144 46.9634C21.3412 45.7856 21.5491 44.9889 22.5883 42.8065C23.6622 40.5549 23.9393 39.6196 24.1125 37.3333C24.2164 35.8784 24.3896 35.2895 24.8053 34.8392C25.2556 34.3543 25.6367 34.181 26.7105 34.0425C28.4772 33.8 29.6203 33.3497 30.521 32.4837C31.3177 31.7562 31.6641 31.0288 31.6988 29.9549L31.7334 29.1582L31.2831 28.6732C29.655 26.8026 7.10399 2 7.00007 2C6.96543 2 7.51968 2.65817 8.17785 3.48954ZM18.8125 52.7484C19.1935 52.0902 18.9857 51.2588 18.3622 50.8431C17.7733 50.4621 16.8726 50.6353 16.8726 51.1549C16.8726 51.2935 16.9419 51.432 17.1497 51.5013C17.4615 51.6745 17.4961 51.8477 17.2537 52.2288C17.0112 52.6098 17.0112 52.9562 17.3229 53.1987C17.8079 53.5797 18.4661 53.3719 18.8125 52.7484Z" fill="#FF007A"/>
        <path fill-rule="evenodd" clip-rule="evenodd" d="M32.8418 34.5273C32.0105 34.7698 31.2137 35.6704 30.9712 36.5711C30.8327 37.1253 30.902 38.1299 31.1444 38.4417C31.5255 38.9266 31.8719 39.0652 32.8418 39.0652C34.7471 39.0652 36.3752 38.2338 36.5484 37.2293C36.7216 36.3979 35.9941 35.2548 34.9895 34.7351C34.4699 34.458 33.3961 34.3541 32.8418 34.5273ZM35.0588 36.2593C35.3359 35.8436 35.232 35.3933 34.7124 35.0816C33.7771 34.4927 32.3569 34.9776 32.3569 35.8783C32.3569 36.3286 33.0843 36.8136 33.7771 36.8136C34.2275 36.8136 34.851 36.5365 35.0588 36.2593Z" fill="#FF007A"/>
    </g>
    <defs>
        <linearGradient id="paint0_linear_2411_22126" x1="68" y1="12.5" x2="12.5" y2="69" gradientUnits="userSpaceOnUse">
            <stop stop-color="#FFA4CA"/>
            <stop offset="1" stop-color="white"/>
        </linearGradient>
        <clipPath id="clip0_2411_22126">
            <rect width="58.3" height="67.1333" fill="white" transform="translate(7 2)"/>
        </clipPath>
    </defs>
</svg>
