<svg width="90" height="90" viewBox="0 0 90 90" fill="none" xmlns="http://www.w3.org/2000/svg">
    <path d="M38.3906 20.8258L41.0723 12.5292C41.0723 11.5438 40.27 10.7437 39.2857 10.7764C37.1389 10.8473 35.0143 10.9576 32.9343 11.1014C32.0243 11.1641 31.3222 11.9282 31.3222 12.8426L28.6479 21.3881C28.6479 21.3881 38.762 20.815 38.3906 20.8258Z" fill="#C6D1E3"/>
    <path d="M29.2832 21.5693C29.2832 21.5693 30.7466 21.4805 31.6381 21.43L33.6773 12.7411C33.6773 11.8266 34.3793 11.0626 35.2893 10.9998C36.6227 10.9077 37.9933 10.8539 39.3527 10.7911C39.3304 10.7907 39.3081 10.7785 39.2821 10.7792C37.139 10.8502 35.0144 10.9605 32.9344 11.1042C32.0244 11.1674 31.3224 11.931 31.3224 12.8455L29.2832 21.5693Z" fill="#E1EAF8"/>
    <path d="M38.9105 20.8852C38.9105 20.8852 37.4471 20.7964 36.5557 20.7459L39.6757 11.8655C39.6757 10.9511 38.2272 11.2719 37.3134 11.2087C35.9837 11.117 34.6132 11.0631 33.25 11C33.276 10.9996 33.2983 10.9874 33.3206 10.9885C35.4674 11.0591 37.5957 10.7358 39.6757 10.8796C40.5857 10.9423 41.2877 11.7064 41.2877 12.6205L38.9105 20.8852Z" fill="#AAB9CE"/>
    <path d="M38.9921 20.8258L41.0721 12.5292C41.0721 11.5438 40.2699 10.7437 39.2856 10.7764C37.1387 10.8473 35.0141 10.9576 32.9341 11.1014C32.0241 11.1641 31.3221 11.9282 31.3221 12.8426L29.2495 21.3881C29.2495 21.3881 39.3636 20.815 38.9921 20.8258Z" stroke="#AAB9CE" stroke-miterlimit="10" stroke-linecap="round" stroke-linejoin="round"/>
    <path d="M41.0273 73.1506L42.7507 80.0406C42.7507 81.0249 41.9485 81.8272 40.9605 81.7938C38.8173 81.7232 36.6927 81.6118 34.6127 81.4669C33.699 81.4038 33.0007 80.6423 33.0007 79.7286L31.2847 72.5897C31.2847 72.5897 41.3987 73.1617 41.0273 73.1506Z" fill="#C6D1E3"/>
    <path d="M31.8828 72.3075C31.8828 72.3075 33.3462 72.3966 34.2377 72.4449L35.3557 79.829C35.3557 80.7427 36.054 81.5078 36.9677 81.571C38.2974 81.6601 39.668 81.7158 41.0312 81.779C41.0052 81.779 40.9866 81.7901 40.9606 81.7901C38.8175 81.7196 36.6891 81.6081 34.6128 81.467C33.6991 81.4038 32.9971 80.6387 32.9971 79.725L31.8828 72.3075Z" fill="#E1EAF8"/>
    <path d="M41.0867 72.7161C41.0867 72.7161 39.419 70.3984 38.7319 72.8572L40.6076 80.0518C40.6076 80.9693 39.9056 81.7307 38.9956 81.7939C37.6658 81.8867 36.2953 81.9424 34.9321 82.0019C34.9581 82.0056 34.9767 82.0167 35.0027 82.0167C37.1458 81.9462 39.2741 81.8347 41.3504 81.6899C42.2641 81.6267 42.9661 80.8653 42.9661 79.9478L41.0867 72.7161Z" fill="#AAB9CE"/>
    <path d="M41.2573 72.783L42.7504 80.0407C42.7504 81.025 41.9482 81.8273 40.9602 81.7939C38.817 81.7233 36.6924 81.6119 34.6124 81.467C33.6986 81.4039 33.0004 80.6424 33.0004 79.7287L31.5146 72.2184C31.5146 72.2184 41.6287 72.7941 41.2573 72.783Z" stroke="#AAB9CE" stroke-miterlimit="10" stroke-linecap="round" stroke-linejoin="round"/>
    <path d="M44.0588 18.9479L46.9634 10.3986C46.9114 9.41473 47.6691 8.57158 48.6534 8.55004C50.8003 8.50287 52.9286 8.49581 55.0123 8.52478C55.926 8.53741 56.6689 9.26169 56.7171 10.1747L53.8163 18.9728C53.8163 18.9728 43.6874 18.9575 44.0588 18.9479Z" fill="#C6D1E3"/>
    <path d="M54.1909 19.1287C54.1909 19.1287 52.7237 19.1209 51.8323 19.1194L54.358 10.2029C54.3097 9.28989 53.5669 8.56596 52.6531 8.55333C51.3197 8.53476 49.9491 8.55631 48.5859 8.56857C48.6082 8.56708 48.6305 8.55371 48.6528 8.55297C50.7997 8.5058 52.928 8.49874 55.0117 8.52771C55.9254 8.54034 56.6683 9.26462 56.7166 10.1776L54.1909 19.1287Z" fill="#AAB9CE"/>
    <path d="M44.8423 18.9296C44.8423 18.9296 46.302 18.7606 47.1898 18.6607L49.1026 10.2675C49.0506 9.35486 49.708 8.55334 50.6181 8.44042C51.9403 8.27514 53.3072 8.64588 54.6629 8.50808C54.6369 8.50919 54.6146 8.49803 54.5923 8.50025C52.4529 8.68894 50.3357 8.41663 48.2706 8.6744C47.3643 8.78732 46.7032 9.58888 46.7552 10.5019L44.8423 18.9296Z" fill="#E1EAF8"/>
    <path d="M59.5769 70.8181L64.7509 76.1593C65.0629 77.0767 66.0769 77.5596 66.9981 77.2104C69.0038 76.4527 70.9835 75.6616 72.9038 74.8593C73.747 74.5064 74.1667 73.5704 73.877 72.7198L68.6175 67.1484C68.6175 67.1484 59.2277 70.9481 59.5769 70.8181Z" fill="#C6D1E3"/>
    <path d="M68.766 67.7354C68.766 67.7354 67.4103 68.2888 66.582 68.6268L71.6818 73.5743C71.9715 74.4249 71.5481 75.3609 70.7049 75.7137C69.4755 76.23 68.1977 76.7203 66.9274 77.2217C66.9497 77.2106 66.9757 77.218 66.998 77.2068C69.0038 76.4491 70.9835 75.6617 72.9038 74.8557C73.7469 74.5028 74.1667 73.5668 73.8769 72.7163L68.766 67.7354Z" fill="#AAB9CE"/>
    <path d="M59.811 70.4356C59.811 70.4356 61.2262 70.0456 62.0842 69.8042L66.7791 75.4797C67.0725 76.3303 67.9751 76.8131 68.8591 76.5754C70.148 76.2337 71.4628 75.8399 72.7703 75.4574C72.748 75.4685 72.7331 75.4834 72.7071 75.4908C70.6568 76.1185 68.6102 76.7017 66.5971 77.2403C65.7131 77.478 64.8068 76.9951 64.517 76.1445L59.811 70.4356Z" fill="#E1EAF8"/>
    <path fill-rule="evenodd" clip-rule="evenodd" d="M54.1318 72.8573L63.5773 70.2796C76.9191 65.5736 85.5809 56.9415 82.7766 41.4443L82.1006 37.6226C79.3557 22.1113 68.3056 16.9454 54.1689 17.11L44.4152 17.9435C43.5497 18.072 42.6843 18.2139 41.8077 18.3688C41.0203 18.5099 40.2403 18.6589 39.4677 18.8164L30.0148 21.351C16.5021 26.0329 7.70296 34.656 10.5295 50.2855L11.2092 54.1075C13.9095 69.7299 25.1379 74.8259 39.438 74.5956L49.1844 73.7376C49.9644 73.6225 50.7481 73.4924 51.5392 73.355C52.4121 73.199 53.2775 73.0319 54.1318 72.8573ZM66.0957 41.7668L66.3409 43.937C68.1758 58.3827 56.3903 62.3793 42.2016 64.1845C27.9052 65.5996 15.5254 64.3368 14.088 49.8435L13.8429 47.6744C12.0154 33.2941 23.8009 29.2971 38.0527 27.486C52.2859 26.0768 64.6657 27.3412 66.0957 41.7668Z" fill="#C6D1E3"/>
    <path d="M42.1973 18.2815L51.1636 18.6039C65.304 18.4394 76.354 23.5993 79.0989 39.1103L79.7749 42.9393C82.0815 55.6638 78.6509 62.6577 69.25 67.75C80.4746 62.7914 85.3167 55.4744 82.7761 41.4417L82.1001 37.6242C79.3552 22.1132 68.3051 16.9421 54.1648 17.1067C54.1648 17.1067 42.4424 18.2834 42.1973 18.2815Z" fill="#AAB9CE"/>
    <path d="M32.3843 20.194C32.2877 20.2631 32.1503 20.3804 32.0315 20.4573C31.4409 20.8447 30.7166 21.0486 29.9886 21.1723L30.0183 21.3435C16.5094 26.0254 7.69902 34.6582 10.5293 50.2891L11.2054 54.1075C13.8425 69.3696 24.6548 74.5473 38.4832 74.5621C38.4944 74.4879 38.5315 74.4173 38.5501 74.3393C25.9289 73.7116 16.2271 68.2961 13.7496 53.9626L13.0736 50.1443C10.2433 34.5145 19.0536 25.8932 32.5663 21.2113L32.3843 20.194Z" fill="#E1EAF8"/>
    <path d="M69.2675 67.817L73.8769 72.7161C74.1666 73.5667 73.7469 74.5101 72.9038 74.863C70.9798 75.669 69 76.449 66.9943 77.2067C66.0732 77.5559 65.4083 76.9839 64.7546 76.163L60.0894 71.3344C57.7903 71.9918 54.7631 72.7755 51.5316 73.355C45.4996 74.4321 39.4378 74.5956 39.4378 74.5956C25.1377 74.8259 13.9094 69.7298 11.2091 54.1112L10.5368 50.2891C7.7065 34.6601 16.502 26.0354 30.0146 21.3539C30.0146 21.3539 35.7681 19.431 41.8076 18.371C42.9033 18.1786 43.9804 18.0345 45.0576 17.8948C45.4401 16.382 46.9593 10.3967 46.9593 10.3967C47.223 9.12977 47.6687 8.57262 48.653 8.55108C50.7999 8.50391 52.9319 8.4987 55.0157 8.52805C55.9294 8.54068 56.6722 9.26348 56.7205 10.1761L55.0045 17.1404C68.7289 17.1935 79.4075 22.4311 82.0967 37.6271L82.7801 41.4461C85.1573 54.5866 79.2441 62.7581 69.2675 67.817ZM69.2675 67.817L67.25 68.75" stroke="#AAB9CE" stroke-miterlimit="10" stroke-linecap="round" stroke-linejoin="round"/>
    <path d="M66.4487 47.1395C66.4748 46.0995 66.4487 45.0238 66.2965 43.8508L66.0513 41.6824C64.6176 27.1914 52.2341 25.9226 37.9377 27.3396C24.1651 29.0905 12.6952 32.9445 13.7167 46.3855C14.0064 34.6386 24.9747 31.1026 38.0008 29.4468C52.2972 28.0297 64.6807 29.2985 66.1145 43.7896L66.3596 45.9583C66.4116 46.3706 66.419 46.7458 66.4487 47.1395Z" fill="#E1EAF8"/>
    <path d="M13.728 46.3112C13.702 47.3512 13.8283 48.588 13.9769 49.7617L14.2221 51.9309C15.6595 66.4204 28.0393 67.6907 42.3356 66.2756C56.1083 64.5224 67.5781 60.6707 66.5603 47.2286C66.2669 58.9732 55.2986 62.5092 42.2725 64.1658C27.9761 65.5847 15.5963 64.3144 14.1589 49.8249L13.9137 47.6557C13.8617 47.2434 13.7615 46.7049 13.728 46.3112Z" fill="#AAB9CE"/>
    <path d="M30.4602 43.2817C29.8882 43.3686 29.357 42.9775 29.2716 42.4077L28.2353 35.6205C28.1462 35.0508 28.5362 34.5185 29.1082 34.4316L31.9273 34.0007C32.4956 33.9138 33.0305 34.3049 33.116 34.8747L34.1522 41.6619C34.2414 42.2316 33.8476 42.7639 33.2794 42.8508L30.4602 43.2817Z" fill="#AAB9CE" stroke="#AAB9CE" stroke-width="0.897082" stroke-miterlimit="10" stroke-linecap="round" stroke-linejoin="round"/>
    <path d="M41.9409 40.0073C43.5529 35.913 49.3361 35.5505 51.2935 38.763" stroke="#AAB9CE" stroke-width="3" stroke-miterlimit="10" stroke-linecap="round" stroke-linejoin="round"/>
    <path d="M44.6933 49.2081C42.2975 54.3339 34.8578 54.4156 32.6069 50.1776" stroke="#AAB9CE" stroke-width="3" stroke-miterlimit="10" stroke-linecap="round" stroke-linejoin="round"/>
    <path d="M32.75 79.5H23M42.25 79.5H57" stroke="#AAB9CE" stroke-linecap="round"/>
</svg>