<?xml version="1.0" encoding="UTF-8"?>
<svg xmlns="http://www.w3.org/2000/svg" xmlns:xlink="http://www.w3.org/1999/xlink" width="32px" height="32px" viewBox="0 0 32 32" version="1.1">
<g id="surface1">
<path style=" stroke:none;fill-rule:nonzero;fill:rgb(12.941177%,19.215687%,27.843139%);fill-opacity:1;" d="M 2.894531 9.726562 L 2.894531 22.273438 C 2.894531 23.078125 3.316406 23.808594 4.019531 24.21875 L 14.886719 30.488281 C 15.578125 30.886719 16.433594 30.886719 17.125 30.488281 L 27.992188 24.21875 C 28.683594 23.820312 29.121094 23.078125 29.121094 22.273438 L 29.121094 9.726562 C 29.121094 8.921875 28.699219 8.191406 27.992188 7.78125 L 17.125 1.511719 C 16.433594 1.113281 15.578125 1.113281 14.886719 1.511719 L 4.019531 7.78125 C 3.328125 8.179688 2.90625 8.921875 2.90625 9.726562 Z M 2.894531 9.726562 "/>
<path style=" stroke:none;fill-rule:nonzero;fill:rgb(7.058824%,66.666669%,100%);fill-opacity:1;" d="M 18.367188 18.433594 L 16.820312 22.679688 C 16.78125 22.796875 16.78125 22.925781 16.820312 23.054688 L 19.480469 30.363281 L 22.566406 28.582031 L 18.867188 18.433594 C 18.777344 18.203125 18.457031 18.203125 18.367188 18.433594 Z M 18.367188 18.433594 "/>
<path style=" stroke:none;fill-rule:nonzero;fill:rgb(7.058824%,66.666669%,100%);fill-opacity:1;" d="M 21.476562 11.289062 C 21.390625 11.058594 21.070312 11.058594 20.980469 11.289062 L 19.429688 15.539062 C 19.390625 15.65625 19.390625 15.78125 19.429688 15.910156 L 23.796875 27.878906 L 26.878906 26.097656 L 21.476562 11.300781 Z M 21.476562 11.289062 "/>
<path style=" stroke:none;fill-rule:nonzero;fill:rgb(61.56863%,80.000001%,92.941177%);fill-opacity:1;" d="M 16 1.984375 C 16.078125 1.984375 16.152344 2.007812 16.21875 2.046875 L 27.96875 8.832031 C 28.109375 8.910156 28.1875 9.0625 28.1875 9.214844 L 28.1875 22.785156 C 28.1875 22.9375 28.097656 23.089844 27.96875 23.167969 L 16.21875 29.953125 C 16.152344 29.992188 16.078125 30.015625 16 30.015625 C 15.921875 30.015625 15.847656 29.992188 15.78125 29.953125 L 4.03125 23.167969 C 3.890625 23.089844 3.8125 22.9375 3.8125 22.785156 L 3.8125 9.203125 C 3.8125 9.050781 3.902344 8.894531 4.03125 8.820312 L 15.78125 2.035156 C 15.847656 1.996094 15.921875 1.972656 16 1.972656 Z M 16 0 C 15.578125 0 15.167969 0.101562 14.785156 0.320312 L 3.035156 7.105469 C 2.277344 7.539062 1.816406 8.332031 1.816406 9.203125 L 1.816406 22.769531 C 1.816406 23.640625 2.277344 24.433594 3.035156 24.871094 L 14.785156 31.65625 C 15.15625 31.871094 15.578125 31.972656 16 31.972656 C 16.421875 31.972656 16.832031 31.871094 17.214844 31.65625 L 28.964844 24.871094 C 29.722656 24.433594 30.183594 23.640625 30.183594 22.769531 L 30.183594 9.203125 C 30.183594 8.332031 29.722656 7.539062 28.964844 7.105469 L 17.203125 0.320312 C 16.832031 0.101562 16.410156 0 15.988281 0 Z M 16 0 "/>
<path style=" stroke:none;fill-rule:nonzero;fill:rgb(12.941177%,19.215687%,27.843139%);fill-opacity:1;" d="M 8.21875 27.890625 L 9.304688 24.921875 L 11.480469 26.726562 L 9.445312 28.59375 Z M 8.21875 27.890625 "/>
<path style=" stroke:none;fill-rule:nonzero;fill:rgb(100%,100%,100%);fill-opacity:1;" d="M 15 8.242188 L 12.019531 8.242188 C 11.800781 8.242188 11.597656 8.382812 11.519531 8.589844 L 5.132812 26.097656 L 8.21875 27.878906 L 15.257812 8.589844 C 15.320312 8.410156 15.195312 8.230469 15.015625 8.230469 Z M 15 8.242188 "/>
<path style=" stroke:none;fill-rule:nonzero;fill:rgb(100%,100%,100%);fill-opacity:1;" d="M 20.222656 8.242188 L 17.242188 8.242188 C 17.023438 8.242188 16.820312 8.382812 16.742188 8.589844 L 9.445312 28.582031 L 12.53125 30.363281 L 20.46875 8.589844 C 20.53125 8.410156 20.402344 8.230469 20.222656 8.230469 Z M 20.222656 8.242188 "/>
</g>
</svg>
