<svg width="32" height="32" viewBox="0 0 32 32" fill="none" xmlns="http://www.w3.org/2000/svg">
<g clip-path="url(#clip0_2143_14786)">
<path d="M16 32C24.8366 32 32 24.8366 32 16C32 7.16344 24.8366 0 16 0C7.16344 0 0 7.16344 0 16C0 24.8366 7.16344 32 16 32Z" fill="#213147"/>
<path d="M6.16968 11.296V20.704C6.16968 21.3088 6.48648 21.856 7.01448 22.1632L15.1649 26.8672C15.6833 27.1648 16.3265 27.1648 16.8449 26.8672L24.9953 22.1632C25.5137 21.8656 25.8401 21.3088 25.8401 20.704V11.296C25.8401 10.6912 25.5233 10.144 24.9953 9.8368L16.8449 5.1328C16.3265 4.8352 15.6833 4.8352 15.1649 5.1328L7.01448 9.8368C6.49608 10.1344 6.17928 10.6912 6.17928 11.296H6.16968Z" fill="#213147"/>
<path d="M17.776 17.824L16.6144 21.0112C16.5856 21.0976 16.5856 21.1936 16.6144 21.2896L18.6112 26.7712L20.9248 25.4368L18.1504 17.824C18.0832 17.6512 17.8432 17.6512 17.776 17.824Z" fill="#12AAFF"/>
<path d="M20.1089 12.4672C20.0417 12.2944 19.8017 12.2944 19.7345 12.4672L18.5729 15.6544C18.5441 15.7408 18.5441 15.8368 18.5729 15.9328L21.8465 24.9088L24.1601 23.5744L20.1089 12.4768V12.4672Z" fill="#12AAFF"/>
<path d="M16.0001 5.488C16.0577 5.488 16.1153 5.5072 16.1633 5.536L24.9761 10.624C25.0817 10.6816 25.1393 10.7968 25.1393 10.912V21.088C25.1393 21.2032 25.0721 21.3184 24.9761 21.376L16.1633 26.464C16.1153 26.4928 16.0577 26.512 16.0001 26.512C15.9425 26.512 15.8849 26.4928 15.8369 26.464L7.02408 21.376C6.91848 21.3184 6.86088 21.2032 6.86088 21.088V10.9024C6.86088 10.7872 6.92808 10.672 7.02408 10.6144L15.8369 5.5264C15.8849 5.4976 15.9425 5.4784 16.0001 5.4784V5.488ZM16.0001 4C15.6833 4 15.3761 4.0768 15.0881 4.24L6.27528 9.328C5.70888 9.6544 5.36328 10.2496 5.36328 10.9024V21.0784C5.36328 21.7312 5.70888 22.3264 6.27528 22.6528L15.0881 27.7408C15.3665 27.904 15.6833 27.9808 16.0001 27.9808C16.3169 27.9808 16.6241 27.904 16.9121 27.7408L25.7249 22.6528C26.2913 22.3264 26.6369 21.7312 26.6369 21.0784V10.9024C26.6369 10.2496 26.2913 9.6544 25.7249 9.328L16.9025 4.24C16.6241 4.0768 16.3073 4 15.9905 4H16.0001Z" fill="#9DCCED"/>
<path d="M10.1631 24.9184L10.9791 22.6912L12.6111 24.0448L11.0847 25.4464L10.1631 24.9184Z" fill="#213147"/>
<path d="M15.2512 10.1824H13.0144C12.8512 10.1824 12.6976 10.288 12.64 10.4416L7.84961 23.5744L10.1632 24.9088L15.4432 10.4416C15.4912 10.3072 15.3952 10.1728 15.2608 10.1728L15.2512 10.1824Z" fill="white"/>
<path d="M19.1682 10.1824H16.9314C16.7682 10.1824 16.6146 10.288 16.557 10.4416L11.085 25.4368L13.3986 26.7712L19.3506 10.4416C19.3986 10.3072 19.3026 10.1728 19.1682 10.1728V10.1824Z" fill="white"/>
</g>
<defs>
<clipPath id="clip0_2143_14786">
<rect width="32" height="32" fill="white"/>
</clipPath>
</defs>
</svg>
