<svg width="255" height="220" viewBox="0 0 255 220" fill="none" xmlns="http://www.w3.org/2000/svg">
<rect width="255" height="220" rx="14.0157" fill="#F8F8FA"/>
<g clip-path="url(#clip0_33_7012)">
<path fill-rule="evenodd" clip-rule="evenodd" d="M127 43C164.003 43 194 72.9968 194 110C194 147.003 164.003 177 127 177C89.9968 177 60 147.003 60 110C60 72.9968 89.9968 43 127 43Z" fill="#2775CA"/>
<path fill-rule="evenodd" clip-rule="evenodd" d="M142.309 62.8225C140.798 62.3399 139.562 63.2366 139.562 64.8228V68.7238C139.562 69.7874 140.364 70.9978 141.363 71.3638C157.399 77.2375 168.875 92.6517 168.875 110.698C168.875 128.744 157.399 144.158 141.363 150.032C140.267 150.433 139.562 151.506 139.562 152.672V156.573C139.562 158.159 140.798 159.056 142.309 158.573C162.575 152.098 177.25 133.112 177.25 110.698C177.25 88.2841 162.575 69.2976 142.309 62.8225Z" fill="white"/>
<path fill-rule="evenodd" clip-rule="evenodd" d="M114.438 64.8228C114.438 63.2366 113.202 62.3399 111.691 62.8225C91.4251 69.2976 76.75 88.2838 76.75 110.698C76.75 133.112 91.4251 152.098 111.691 158.573C113.202 159.056 114.438 158.159 114.438 156.573V152.672C114.438 151.609 113.636 150.398 112.637 150.032C96.6009 144.158 85.125 128.744 85.125 110.698C85.125 92.652 96.6009 77.2375 112.637 71.3638C113.636 70.9978 114.438 69.7874 114.438 68.7238V64.8228Z" fill="white"/>
<path d="M144.134 123.773L140.301 122.061C139.458 121.684 138.462 122.037 138.054 122.866C136.245 126.537 133.238 128.877 129.267 128.877C125.671 128.877 122.787 127.116 120.577 123.558C119.713 122.181 119.026 120.644 118.503 118.961H128.795C129.448 118.961 130.045 118.593 130.339 118.011L132.795 114.696C133.375 113.546 132.54 112.188 131.251 112.188H117.345C117.305 111.475 117.281 110.748 117.281 109.999C117.273 109.256 117.294 108.528 117.333 107.812H128.795C129.448 107.812 130.045 107.445 130.339 106.862L132.795 103.548C133.375 102.398 132.54 101.039 131.251 101.039H118.491C120.357 94.9542 124.254 90.9675 129.267 91.0458C133.087 91.0458 136.052 93.1372 137.955 96.5625C138.381 97.3303 139.34 97.6245 140.144 97.2698L143.996 95.5691C144.918 95.1621 145.31 94.0475 144.822 93.1659C141.266 86.7432 136.081 83.5171 129.267 83.5171C123.049 83.5171 118.067 85.9892 114.284 90.896C112.073 93.786 110.534 97.1768 109.62 101.039H104.024C103.372 101.039 102.775 101.407 102.481 101.989L100.025 105.303C99.444 106.453 100.28 107.812 101.568 107.812H108.696C108.661 108.532 108.628 109.253 108.628 109.999C108.619 110.739 108.637 111.467 108.668 112.188H104.024C103.372 112.188 102.775 112.555 102.481 113.138L100.025 116.452C99.444 117.602 100.28 118.961 101.568 118.961H109.604C112.146 129.465 119.462 136.629 129.267 136.48C136.228 136.48 141.475 133.02 144.978 126.129C145.424 125.252 145.032 124.175 144.134 123.773Z" fill="white"/>
</g>
<defs>
<clipPath id="clip0_33_7012">
<rect width="134" height="134" fill="white" transform="translate(60 43)"/>
</clipPath>
</defs>
</svg>
