<svg width="100%" height="100%" viewBox="0 0 220 220" version="1.1" xmlns="http://www.w3.org/2000/svg" xmlns:xlink="http://www.w3.org/1999/xlink" xml:space="preserve" xmlns:serif="http://www.serif.com/" style="fill-rule:evenodd;clip-rule:evenodd;stroke-linejoin:round;stroke-miterlimit:2;"><g><path d="M110,0c60.751,0 110,49.248 110,110c-0,60.751 -49.249,110 -110,110c-60.752,0 -110,-49.249 -110,-110c0,-60.752 49.248,-110 110,-110Z" style="fill:#2775ca;"/><path d="M135.134,32.544c-2.481,-0.792 -4.51,0.68 -4.51,3.284l0,6.405c0,1.746 1.317,3.734 2.957,4.334c26.328,9.644 45.169,34.951 45.169,64.579c-0,29.628 -18.841,54.934 -45.169,64.578c-1.799,0.659 -2.957,2.42 -2.957,4.335l0,6.404c0,2.604 2.029,4.077 4.51,3.284c33.273,-10.631 57.366,-41.802 57.366,-78.601c-0,-36.799 -24.093,-67.971 -57.366,-78.602Z" style="fill:#fff;"/><path d="M89.376,35.828c-0,-2.604 -2.029,-4.076 -4.51,-3.284c-33.273,10.631 -57.366,41.803 -57.366,78.602c0,36.799 24.093,67.97 57.366,78.601c2.481,0.793 4.51,-0.68 4.51,-3.284l-0,-6.404c-0,-1.746 -1.317,-3.734 -2.957,-4.335c-26.328,-9.644 -45.169,-34.95 -45.169,-64.578c-0,-29.628 18.841,-54.935 45.169,-64.579c1.64,-0.6 2.957,-2.588 2.957,-4.334l-0,-6.405Z" style="fill:#fff;"/><path d="M138.13,132.612l-6.293,-2.81c-1.384,-0.619 -3.019,-0.04 -3.689,1.321c-2.97,6.027 -7.907,9.869 -14.426,9.869c-5.904,0 -10.639,-2.891 -14.267,-8.733c-1.419,-2.26 -2.547,-4.784 -3.405,-7.547l16.897,0c1.072,0 2.052,-0.604 2.535,-1.56l4.032,-5.442c0.952,-1.888 -0.418,-4.118 -2.535,-4.118l-22.83,0c-0.066,-1.17 -0.106,-2.364 -0.106,-3.594c-0.013,-1.219 0.022,-2.415 0.086,-3.59l18.818,-0c1.072,-0 2.052,-0.603 2.535,-1.56l4.032,-5.441c0.952,-1.888 -0.418,-4.119 -2.535,-4.119l-20.949,-0c3.064,-9.99 9.462,-16.535 17.692,-16.407c6.272,0 11.139,3.434 14.264,9.057c0.699,1.261 2.274,1.744 3.594,1.162l6.324,-2.793c1.514,-0.668 2.157,-2.498 1.356,-3.945c-5.838,-10.545 -14.351,-15.841 -25.538,-15.841c-10.209,-0 -18.388,4.058 -24.599,12.114c-3.63,4.745 -6.157,10.312 -7.657,16.653l-9.188,-0c-1.07,-0 -2.05,0.604 -2.533,1.56l-4.032,5.441c-0.954,1.888 0.418,4.119 2.533,4.119l11.703,-0c-0.058,1.182 -0.112,2.366 -0.112,3.59c-0.015,1.215 0.015,2.411 0.066,3.594l-7.625,0c-1.07,0 -2.05,0.603 -2.533,1.56l-4.032,5.441c-0.954,1.888 0.418,4.119 2.533,4.119l13.193,0c4.174,17.245 16.185,29.007 32.283,28.763c11.428,-0 20.043,-5.681 25.794,-16.995c0.732,-1.439 0.089,-3.208 -1.386,-3.868Z" style="fill:#fff;fill-rule:nonzero;"/></g></svg>