<svg width="46" height="46" viewBox="0 0 120 120" fill="none" xmlns="http://www.w3.org/2000/svg">
    <g clip-path="url(#clip0_574_46370)">
        <g clip-path="url(#clip1_574_46370)">
            <rect width="120" height="120" rx="60" fill="#3B00B9"/>
            <rect width="120" height="120" rx="60" fill="black" fill-opacity="0.5"/>
            <g filter="url(#filter0_f_574_46370)">
                <path d="M208.372 69.8124C184.627 94.0225 123.304 46.6742 87.6097 11.6664C51.9156 -23.3414 42.2287 -71.3469 65.9732 -95.5569C89.7178 -119.767 137.902 -111.014 173.596 -76.0058C209.29 -40.998 232.116 45.6024 208.372 69.8124Z" fill="#3B00B9"/>
            </g>
            <g filter="url(#filter1_f_574_46370)">
                <path d="M149.962 38.2095C141.507 46.83 119.679 29.9782 106.974 17.5178C94.2697 5.05735 90.8245 -12.0321 99.2792 -20.6526C107.734 -29.273 124.887 -26.1602 137.592 -13.6998C150.296 -1.23937 158.416 29.5891 149.962 38.2095Z" fill="white"/>
            </g>
            <g filter="url(#filter2_f_574_46370)">
                <path fill-rule="evenodd" clip-rule="evenodd" d="M2.93677 -15.7964C33.4115 -22.9818 66.7952 -14.8618 90.8016 8.68302C128.028 45.1937 128.608 104.969 92.0974 142.196C74.4817 160.157 51.4501 169.587 28.1484 170.436C64.938 182.712 107.142 173.984 136.126 144.432C176.618 103.146 175.975 36.8516 134.689 -3.64053C98.5712 -39.0638 43.3147 -43.0057 2.93677 -15.7964Z" fill="#3B00B9"/>
            </g>
            <path d="M79.8199 41.7778C75.5098 41.7778 70.8111 43.9865 65.845 48.3369C63.4889 50.3984 61.4542 52.6071 59.9284 54.3741C59.9284 54.3741 59.9284 54.3741 59.9418 54.3875V54.3741C59.9418 54.3741 62.3511 56.9977 65.015 59.8088C66.4474 58.1088 68.5089 55.793 70.878 53.7048C75.2956 49.8362 78.1734 49.0197 79.8199 49.0197C86.0179 49.0197 91.051 53.9323 91.051 59.9695C91.051 65.9664 86.0045 70.8791 79.8199 70.9193C79.5388 70.9193 79.1774 70.8791 78.7222 70.7854C80.5294 71.5618 82.4705 72.124 84.3178 72.124C95.669 72.124 97.8912 64.7215 98.0384 64.1861C98.3731 62.8341 98.5471 61.4152 98.5471 59.9561C98.5471 49.9433 90.1407 41.7778 79.8199 41.7778Z" fill="url(#paint0_linear_574_46370)"/>
            <path d="M40.1715 78.188C44.4818 78.188 49.1804 75.9792 54.1466 71.6288C56.5026 69.5673 58.5373 67.3586 60.0631 65.5917C60.0631 65.5917 60.0631 65.5917 60.0497 65.5783V65.5917C60.0497 65.5917 57.6404 62.968 54.9765 60.1569C53.5442 61.8569 51.4828 64.1727 49.1134 66.261C44.696 70.1295 41.818 70.9461 40.1715 70.9461C33.9737 70.9327 28.9406 66.02 28.9406 59.9829C28.9406 53.9859 33.9871 49.0732 40.1715 49.0331C40.4526 49.0331 40.814 49.0732 41.2692 49.1669C39.4621 48.3905 37.5211 47.8283 35.6738 47.8283C24.3224 47.8283 22.1137 55.2308 21.9531 55.7529C21.6184 57.1183 21.4444 58.5238 21.4444 59.9829C21.4444 70.0225 29.8508 78.188 40.1715 78.188Z" fill="url(#paint1_linear_574_46370)"/>
            <path d="M84.2932 71.9634C78.4834 71.8161 72.4464 67.2381 71.2149 66.1003C68.0292 63.1553 60.6799 55.1906 60.1046 54.5615C54.7233 48.5244 47.4279 41.7778 40.1726 41.7778H40.1592H40.1458C31.3378 41.8179 23.9353 47.7881 21.9541 55.7529C22.1014 55.2308 25.0062 47.681 35.6615 47.9488C41.471 48.096 47.5349 52.741 48.7799 53.8788C51.9657 56.8237 59.3148 64.7884 59.8904 65.4176C65.2715 71.4413 72.5669 78.188 79.8221 78.188H79.8355H79.8489C88.6569 78.1478 96.0728 72.1776 98.0406 64.2129C97.88 64.7349 94.9617 72.2177 84.2932 71.9634Z" fill="#29ABE2"/>
        </g>
    </g>
    <defs>
        <filter id="filter0_f_574_46370" x="-14.0419" y="-176.258" width="299.16" height="319.709" filterUnits="userSpaceOnUse" color-interpolation-filters="sRGB">
            <feFlood flood-opacity="0" result="BackgroundImageFix"/>
            <feBlend mode="normal" in="SourceGraphic" in2="BackgroundImageFix" result="shape"/>
            <feGaussianBlur stdDeviation="33.5065" result="effect1_foregroundBlur_574_46370"/>
        </filter>
        <filter id="filter1_f_574_46370" x="36.0117" y="-84.1644" width="176.054" height="183.37" filterUnits="userSpaceOnUse" color-interpolation-filters="sRGB">
            <feFlood flood-opacity="0" result="BackgroundImageFix"/>
            <feBlend mode="normal" in="SourceGraphic" in2="BackgroundImageFix" result="shape"/>
            <feGaussianBlur stdDeviation="29.3182" result="effect1_foregroundBlur_574_46370"/>
        </filter>
        <filter id="filter2_f_574_46370" x="-80.8294" y="-117.36" width="330.675" height="376.948" filterUnits="userSpaceOnUse" color-interpolation-filters="sRGB">
            <feFlood flood-opacity="0" result="BackgroundImageFix"/>
            <feBlend mode="normal" in="SourceGraphic" in2="BackgroundImageFix" result="shape"/>
            <feGaussianBlur stdDeviation="41.8831" result="effect1_foregroundBlur_574_46370"/>
        </filter>
        <linearGradient id="paint0_linear_574_46370" x1="70.0715" y1="44.1785" x2="95.5331" y2="70.5449" gradientUnits="userSpaceOnUse">
            <stop offset="0.21" stop-color="#F15A24"/>
            <stop offset="0.6841" stop-color="#FBB03B"/>
        </linearGradient>
        <linearGradient id="paint1_linear_574_46370" x1="49.92" y1="75.7871" x2="24.4583" y2="49.4208" gradientUnits="userSpaceOnUse">
            <stop offset="0.21" stop-color="#ED1E79"/>
            <stop offset="0.8929" stop-color="#522785"/>
        </linearGradient>
        <clipPath id="clip0_574_46370">
            <rect width="120" height="120" fill="white"/>
        </clipPath>
        <clipPath id="clip1_574_46370">
            <rect width="120" height="120" rx="60" fill="white"/>
        </clipPath>
    </defs>
</svg>
