<svg width="20" height="20" viewBox="0 0 20 20" fill="none" xmlns="http://www.w3.org/2000/svg">
<g clip-path="url(#clip0_984_178)">
<circle cx="10" cy="10" r="10" fill="#627EEA"/>
<path d="M12.123 8.35001L11.473 8.58401C11.3777 8.06401 10.9703 7.49201 10.0863 7.48334C9.37567 7.48334 8.81234 7.95134 8.81234 8.57534C8.81234 9.06934 9.13301 9.42468 9.69634 9.54601L10.5977 9.74534C11.5857 9.96201 12.175 10.5773 12.175 11.444C12.175 12.3887 11.369 13.2207 10.0863 13.2207C8.66501 13.2207 7.94567 12.2933 7.83301 11.392L8.51767 11.1753C8.58701 11.9033 9.11567 12.562 10.0863 12.562C10.9703 12.562 11.447 12.094 11.447 11.5047C11.447 11.002 11.1003 10.612 10.4503 10.4647L9.54901 10.2653C8.69967 10.0747 8.08434 9.52001 8.08434 8.61868C8.08434 7.65668 8.96834 6.83334 10.0777 6.83334C11.4037 6.83334 11.967 7.63934 12.123 8.35001Z" fill="white"/>
</g>
<defs>
<clipPath id="clip0_984_178">
<rect width="20" height="20" fill="white"/>
</clipPath>
</defs>
</svg>
