<svg width="46" height="46" viewBox="0 0 120 120" fill="none" xmlns="http://www.w3.org/2000/svg">
<g clip-path="url(#clip0_470_842)">
<circle cx="60" cy="60" r="60" fill="#FDF7FB"/>
<g clip-path="url(#clip1_470_842)">
<path d="M52.451 36.2043C51.5775 36.0805 51.5359 36.0392 51.9519 35.9979C52.7421 35.8741 54.5722 36.0392 55.8615 36.3282C58.8562 37.0299 61.5597 38.8462 64.4296 42.0248L65.1782 42.8916L66.2596 42.7265C70.8764 41.9835 75.6179 42.5614 79.5692 44.3777C80.6506 44.8731 82.3559 45.8638 82.5639 46.1114C82.6471 46.194 82.7718 46.7306 82.855 47.2673C83.1462 49.2074 83.0214 50.6522 82.3975 51.7668C82.0648 52.386 82.0648 52.5511 82.2727 53.0877C82.4391 53.5005 82.9382 53.7895 83.3957 53.7895C84.3939 53.7895 85.4337 52.2208 85.9328 50.033L86.1408 49.1661L86.5151 49.5789C88.6364 51.9319 90.3001 55.193 90.5496 57.5046L90.6328 58.1238L90.2585 57.5872C89.6346 56.6378 89.0523 56.0186 88.262 55.4819C86.8479 54.5325 85.3506 54.2435 81.3993 54.0371C77.8223 53.8307 75.7843 53.5418 73.7879 52.8813C70.3773 51.7668 68.6304 50.322 64.596 44.9969C62.8075 42.644 61.6845 41.3643 60.5615 40.291C58.1075 37.9381 55.6536 36.6997 52.451 36.2043Z" fill="#FF007A"/>
<path d="M83.4373 41.4468C83.5205 39.8782 83.7285 38.8462 84.186 37.8968C84.3523 37.5253 84.5187 37.195 84.5603 37.195C84.6019 37.195 84.5187 37.484 84.3939 37.8142C84.0612 38.7224 84.0196 40.0021 84.2276 41.4468C84.5187 43.3044 84.6435 43.5521 86.6399 45.5748C87.555 46.5242 88.6364 47.7214 89.0523 48.2167L89.7594 49.1249L89.0523 48.4644C88.1788 47.6388 86.1824 46.0702 85.7249 45.8638C85.4337 45.6987 85.3922 45.6986 85.1842 45.905C85.0178 46.0702 84.9762 46.3178 84.9762 47.515C84.9346 49.3725 84.6851 50.5284 84.0612 51.7255C83.7285 52.3447 83.6869 52.2208 83.978 51.5191C84.186 50.9824 84.2276 50.7348 84.2276 48.9597C84.2276 45.3684 83.8116 44.5015 81.2745 43.0568C80.6506 42.6852 79.5692 42.1486 78.9453 41.8596C78.2799 41.5707 77.7807 41.323 77.8223 41.323C77.9055 41.2404 80.3595 41.9422 81.3161 42.355C82.7718 42.9329 83.0214 42.9742 83.1878 42.9329C83.3125 42.8091 83.3957 42.4788 83.4373 41.4468Z" fill="#FF007A"/>
<path d="M54.1563 47.5975C52.4094 45.2033 51.2864 41.4881 51.536 38.7224L51.6191 37.8555L52.0351 37.9381C52.7837 38.0619 54.0731 38.5573 54.697 38.9288C56.3607 39.9195 57.1093 41.2817 57.8164 44.6667C58.0244 45.6574 58.3155 46.8132 58.4403 47.1847C58.6483 47.8039 59.4385 49.2487 60.104 50.1569C60.5615 50.8173 60.2704 51.1476 59.2306 51.065C57.65 50.8999 55.5288 49.4551 54.1563 47.5975Z" fill="#FF007A"/>
<path d="M81.3161 65.5542C73.0808 62.2518 70.1693 59.4035 70.1693 54.5738C70.1693 53.872 70.2109 53.2941 70.2109 53.2941C70.2525 53.2941 70.5437 53.5418 70.918 53.8308C72.5817 55.1517 74.4534 55.7296 79.6524 56.4727C82.6887 56.9267 84.4355 57.257 86.016 57.7936C91.0487 59.4448 94.1682 62.8297 94.9168 67.4118C95.1248 68.7327 95 71.2508 94.6673 72.5717C94.3761 73.6037 93.5443 75.5026 93.3363 75.5439C93.2947 75.5439 93.2115 75.3375 93.2115 75.0072C93.1283 73.2735 92.2549 71.6223 90.7992 70.3426C89.0523 68.8566 86.8063 67.742 81.3161 65.5542Z" fill="#FF007A"/>
<path d="M75.4932 66.9164C75.41 66.2972 75.202 65.5129 75.0772 65.1827L74.8693 64.5635L75.2436 65.0176C75.7843 65.6367 76.2002 66.3798 76.5746 67.4118C76.8657 68.1961 76.8657 68.4438 76.8657 69.7234C76.8657 70.9618 76.8241 71.2508 76.5746 71.9525C76.1586 73.0671 75.6595 73.8514 74.8277 74.7183C73.3304 76.2456 71.3755 77.0712 68.5888 77.4427C68.0897 77.484 66.6756 77.6079 65.4278 77.6904C62.3084 77.8555 60.2287 78.1858 58.3571 78.8462C58.1075 78.9288 57.858 79.0114 57.8164 78.9701C57.7332 78.8875 59.0226 78.1445 60.0624 77.6491C61.5181 76.9474 63.0154 76.5759 66.3012 75.9979C67.9233 75.7503 69.587 75.42 70.003 75.2549C74.1206 73.9752 76.1586 70.7967 75.4932 66.9164Z" fill="#FF007A"/>
<path d="M79.2781 73.5624C78.1967 71.2095 77.9471 68.9804 78.5294 66.8751C78.6126 66.6687 78.6958 66.4623 78.779 66.4623C78.8621 66.4623 79.1117 66.5862 79.3612 66.7513C79.8604 67.0815 80.9002 67.6595 83.5621 69.1042C86.9311 70.9205 88.8443 72.3241 90.1753 73.934C91.3399 75.3375 92.0469 76.9474 92.3797 78.9288C92.5876 80.0434 92.4629 82.7265 92.1717 83.8411C91.2567 87.3499 89.1771 90.1569 86.1408 91.7668C85.6833 92.0145 85.309 92.1796 85.2674 92.1796C85.2258 92.1796 85.3921 91.7668 85.6417 91.2714C86.6399 89.1662 86.7647 87.1435 86.016 84.8731C85.5585 83.4696 84.6019 81.7771 82.6886 78.9288C80.4011 75.6264 79.8604 74.7596 79.2781 73.5624Z" fill="#FF007A"/>
<path d="M48.2917 86.194C51.3696 83.6347 55.1545 81.8184 58.6483 81.2405C60.1456 80.9928 62.6411 81.0753 64.0137 81.4469C66.2181 82.0248 68.2145 83.2632 69.2543 84.7905C70.2525 86.2766 70.71 87.5562 71.1676 90.4045C71.3339 91.5191 71.5419 92.6749 71.5835 92.9226C71.9162 94.4087 72.5817 95.5645 73.4136 96.1837C74.7029 97.1331 76.9489 97.1744 79.1533 96.3488C79.5276 96.225 79.8604 96.1011 79.8604 96.1424C79.9436 96.225 78.8206 96.968 78.0719 97.3395C77.0321 97.8762 76.2002 98.0413 75.0772 98.0413C73.0808 98.0413 71.3755 97.0093 70.003 94.9453C69.7118 94.5325 69.1295 93.3354 68.6304 92.2208C67.1747 88.8772 66.426 87.8865 64.7207 86.7719C63.2234 85.8225 61.3102 85.6161 59.8544 86.3179C57.9412 87.226 57.4421 89.6615 58.773 91.1476C59.3137 91.7668 60.3119 92.2621 61.1438 92.386C62.6827 92.5924 64.0137 91.3953 64.0137 89.8679C64.0137 88.8772 63.6393 88.2993 62.6411 87.8452C61.3102 87.2673 59.8544 87.9278 59.896 89.2074C59.896 89.7441 60.1456 90.0743 60.6863 90.322C61.019 90.4871 61.019 90.4871 60.7695 90.4458C59.5633 90.1981 59.2721 88.7121 60.2288 87.7626C61.3933 86.6068 63.8473 87.1022 64.6791 88.7121C65.0119 89.3726 65.0535 90.6935 64.7623 91.5191C64.0553 93.3354 62.0588 94.2848 60.0208 93.7482C58.6482 93.3767 58.066 93.0052 56.4023 91.3127C53.4908 88.3406 52.3678 87.7626 48.2086 87.1434L47.4183 87.0196L48.2917 86.194Z" fill="#FF007A"/>
<path fill-rule="evenodd" clip-rule="evenodd" d="M26.4141 19.775C36.1051 31.4572 51.0368 49.6202 51.7855 50.6109C52.4093 51.4365 52.1598 52.2208 51.12 52.7988C50.5377 53.129 49.3315 53.4592 48.7492 53.4592C48.0837 53.4592 47.2935 53.129 46.7528 52.5924C46.3784 52.2208 44.7563 49.8679 41.0962 44.2126C38.3095 39.8782 35.9388 36.2869 35.8972 36.2456C35.7308 36.1631 35.7308 36.1631 40.8051 45.162C44.0077 50.8173 45.0475 52.84 45.0475 53.0877C45.0475 53.6244 44.8811 53.9133 44.2156 54.6563C43.0926 55.8947 42.5935 57.2982 42.2192 60.2291C41.8033 63.4902 40.6803 65.8019 37.4777 69.7234C35.606 72.0351 35.3149 72.4479 34.8574 73.3973C34.2751 74.5531 34.1087 75.2136 34.0255 76.6997C33.9423 78.2683 34.1087 79.259 34.5662 80.7451C34.9821 82.066 35.4396 82.9329 36.5626 84.6254C37.5193 86.1115 38.1016 87.226 38.1016 87.6388C38.1016 87.969 38.1847 87.969 39.6821 87.6388C43.259 86.8132 46.2121 85.4097 47.8342 83.676C48.8324 82.6027 49.082 82.0248 49.082 80.5387C49.082 79.5893 49.0404 79.3829 48.7908 78.805C48.3749 77.8968 47.5846 77.1538 45.8793 75.9979C43.6334 74.4706 42.6767 73.2322 42.4272 71.581C42.2192 70.1775 42.4688 69.2281 43.7165 66.6275C45.0059 63.9443 45.3386 62.8297 45.5466 60.1053C45.6714 58.3715 45.8793 57.6698 46.3785 57.1331C46.9192 56.5552 47.3767 56.3488 48.666 56.1837C50.7872 55.8947 52.1598 55.3581 53.2412 54.3261C54.1978 53.4592 54.6137 52.5924 54.6553 51.3127L54.6969 50.3633L54.1562 49.7853C52.2014 47.5562 25.1247 18 25 18C24.9584 18 25.6238 18.7843 26.4141 19.775ZM39.183 78.4747C39.6405 77.6904 39.3909 76.6997 38.6423 76.2043C37.9352 75.7503 36.8538 75.9567 36.8538 76.5759C36.8538 76.741 36.937 76.9061 37.1865 76.9886C37.5609 77.195 37.6025 77.4014 37.3113 77.8555C37.0202 78.3096 37.0202 78.7224 37.3945 79.0114C37.9768 79.4654 38.767 79.2178 39.183 78.4747Z" fill="#FF007A"/>
<path fill-rule="evenodd" clip-rule="evenodd" d="M56.0279 56.7616C55.0297 57.0506 54.0731 58.1238 53.7819 59.1971C53.6156 59.8576 53.6988 61.0547 53.9899 61.4262C54.4474 62.0041 54.8633 62.1692 56.0279 62.1692C58.3155 62.1692 60.2704 61.1785 60.4783 59.9814C60.6863 58.9907 59.8128 57.6285 58.6067 57.0093C57.9828 56.6791 56.6934 56.5552 56.0279 56.7616ZM58.6898 58.8256C59.0226 58.3302 58.8978 57.7936 58.2739 57.4221C57.1509 56.7203 55.4456 57.2982 55.4456 58.3715C55.4456 58.9082 56.3191 59.4861 57.1509 59.4861C57.6916 59.4861 58.4403 59.1558 58.6898 58.8256Z" fill="#FF007A"/>
</g>
</g>
<defs>
<clipPath id="clip0_470_842">
<rect width="120" height="120" fill="white"/>
</clipPath>
<clipPath id="clip1_470_842">
<rect width="70" height="80" fill="white" transform="translate(25 18)"/>
</clipPath>
</defs>
</svg>
