<svg width="46" height="46" viewBox="0 0 120 120" fill="none" xmlns="http://www.w3.org/2000/svg">
<g clip-path="url(#clip0_233_35106)">
<circle cx="60" cy="60" r="60" fill="#2775CA"/>
<path d="M76.6221 68.9996C76.6221 60.2498 71.3721 57.2498 60.8721 56C53.3721 54.9998 51.8721 53 51.8721 49.4996C51.8721 45.9992 54.3723 43.7498 59.3721 43.7498C63.8721 43.7498 66.3723 45.2498 67.6221 48.9998C67.8723 49.7498 68.6223 50.2496 69.3723 50.2496H73.3719C74.3721 50.2496 75.1221 49.4996 75.1221 48.5V48.2498C74.1219 42.7496 69.6219 38.4998 63.8721 38V32C63.8721 30.9998 63.1221 30.2498 61.8723 29.9996H58.1223C57.1221 29.9996 56.3721 30.7496 56.1219 32V37.7498C48.6219 38.75 43.8723 43.7498 43.8723 50C43.8723 58.25 48.8721 61.4996 59.3721 62.75C66.3723 63.9998 68.6223 65.4998 68.6223 69.5C68.6223 73.5002 65.1219 76.25 60.3723 76.25C53.8719 76.25 51.6219 73.4996 50.8719 69.7496C50.6223 68.75 49.8723 68.2496 49.1223 68.2496H44.8719C43.8723 68.2496 43.1223 68.9996 43.1223 69.9998V70.25C44.1219 76.4996 48.1221 80.9996 56.3721 82.25V88.25C56.3721 89.2496 57.1221 89.9996 58.3719 90.2498H62.1219C63.1221 90.2498 63.8721 89.4998 64.1223 88.25V82.25C71.6223 80.9996 76.6221 75.7496 76.6221 68.9996Z" fill="white"/>
<path d="M47.3721 95.2496C27.8721 88.25 17.8719 66.5 25.1223 47.2496C28.8723 36.7496 37.1223 28.7498 47.3721 24.9998C48.3723 24.5 48.8721 23.75 48.8721 22.4996V18.9998C48.8721 17.9996 48.3723 17.2496 47.3721 17C47.1219 17 46.6221 17 46.3719 17.2496C22.6221 24.7496 9.62186 50 17.1219 73.7498C21.6219 87.7496 32.3721 98.4998 46.3719 103C47.3721 103.5 48.3723 103 48.6219 102C48.8721 101.75 48.8721 101.5 48.8721 101V97.4996C48.8721 96.7496 48.1221 95.75 47.3721 95.2496ZM73.8723 17.2496C72.8721 16.7498 71.8719 17.2496 71.6223 18.2498C71.3721 18.5 71.3721 18.7496 71.3721 19.25V22.7498C71.3721 23.75 72.1221 24.7496 72.8721 25.25C92.3721 32.2496 102.372 53.9996 95.1219 73.25C91.3719 83.75 83.1219 91.7498 72.8721 95.4998C71.8719 95.9996 71.3721 96.7496 71.3721 98V101.5C71.3721 102.5 71.8719 103.25 72.8721 103.5C73.1223 103.5 73.6221 103.5 73.8723 103.25C97.6221 95.75 110.622 70.4996 103.122 46.7498C98.6223 32.4998 87.6219 21.7496 73.8723 17.2496Z" fill="white"/>
</g>
<defs>
<clipPath id="clip0_233_35106">
<rect width="120" height="120" fill="white"/>
</clipPath>
</defs>
</svg>
