<?xml version="1.0" encoding="UTF-8"?>
<svg width="112px" height="112px" viewBox="0 0 112 112" version="1.1" xmlns="http://www.w3.org/2000/svg" xmlns:xlink="http://www.w3.org/1999/xlink">
    <title>usdt</title>
    <defs>
        <path d="M0,0 L112,0 L112,112 L0,112 L0,0 Z" id="path-1"></path>
    </defs>
    <g id="usdt" stroke="none" fill="none" xlink:href="#path-1" fill-rule="evenodd">
        <rect id="Rectangle" fill="#FFFFFF" x="26.9148477" y="32.357695" width="59.8034947" height="40.8438695"></rect>
        <rect id="Rectangle" fill="#FFFFFF" x="46.849346" y="32.357695" width="18.9377733" height="54.7905566"></rect>
        <path d="M24.9565173,20 L88.3154294,20 C89.8271621,20 91.223773,20.7833909 91.9776958,22.0543248 L110.437141,53.1706014 C111.393997,54.784299 111.10993,56.8210067 109.744417,58.1295072 L58.9352682,106.822709 C57.2893763,108.400026 54.6416763,108.400026 52.9957844,106.822709 L2.25559905,58.195291 C0.858461834,56.8563905 0.596840682,54.7601783 1.62422366,53.1365134 L21.3554498,21.9544928 C22.1239247,20.7400932 23.4875441,20 24.9565173,20 Z M80.1346103,33.8923468 L80.1346103,42.623059 L62.0863143,42.623059 L62.0863143,48.6763688 C74.7621634,49.3232432 84.2725138,51.9801132 84.3430819,55.1646493 L84.3430819,61.8033355 C84.2721151,64.9878716 74.7621634,67.6446419 62.0863143,68.2915163 L62.0863143,83.1470035 L50.1018933,83.1470035 L50.1018933,68.2915163 C37.4259446,67.6446419 27.9155942,64.9878716 27.845026,61.8033355 L27.845026,55.1646493 C27.9159929,51.9801132 37.4259446,49.3232432 50.1018933,48.6763688 L50.1018933,42.623059 L32.0534976,42.623059 L32.0534976,33.8923468 L80.1346103,33.8923468 Z M56.0941038,63.7307025 C69.6215547,63.7307025 80.9283024,61.4840845 83.6953104,58.4839426 C81.3488206,55.9398022 72.861409,53.9375812 62.0863143,53.3876881 L62.0863143,59.7254631 C60.1549605,59.8240392 58.150148,59.8759686 56.0941038,59.8759686 C54.03796,59.8759686 52.0331475,59.8240392 50.1018933,59.7254631 L50.1018933,53.3876881 C39.326699,53.9375812 30.8392874,55.9398022 28.4927976,58.4839426 C31.2599053,61.4840845 42.5665533,63.7307025 56.0941038,63.7307025 Z" id="Shape" fill="#009393"></path>
    </g>
</svg>