<svg width="32" height="32" viewBox="0 0 32 32" fill="none" xmlns="http://www.w3.org/2000/svg">
<g clip-path="url(#clip0_8287_4794)">
<path fill-rule="evenodd" clip-rule="evenodd" d="M16 32C24.8365 32 32 24.8365 32 16C32 7.16345 24.8365 0 16 0C7.16345 0 0 7.16345 0 16C0 24.8365 7.16345 32 16 32ZM7.81818 7.63636H24.1817V11.2727H17.8182V14.9091H14.1818V11.2727H7.81818V7.63636ZM14.1818 14.9091V22.1818H10.5455V14.9091H14.1818ZM17.8182 14.9091H21.4545V22.1818H17.8187V25.8182H14.1824V22.1818H17.8182V14.9091Z" fill="#00B988"/>
<path d="M21.4541 22.1816H17.8184V25.8184H14.1826V22.1816H17.8184V14.9092H21.4541V22.1816Z" fill="white"/>
<path d="M14.1826 22.1816H10.5459V14.9092H14.1816L14.1826 22.1816Z" fill="white"/>
<path d="M24.1816 11.2725H17.8184V14.9092H14.1816V11.2725H7.81836V7.63672H24.1816V11.2725Z" fill="white"/>
</g>
<defs>
<clipPath id="clip0_8287_4794">
<rect width="32" height="32" fill="white"/>
</clipPath>
</defs>
</svg>
