<?xml version="1.0" encoding="UTF-8"?>
<svg width="111px" height="90px" viewBox="0 0 111 90" version="1.1" xmlns="http://www.w3.org/2000/svg" xmlns:xlink="http://www.w3.org/1999/xlink">
    <title>usdt</title>
    <g id="usdt" stroke="none" fill="none" fill-rule="evenodd">
        <rect id="Rectangle" fill="#FFFFFF" x="26.4472652" y="13.22" width="60" height="41"></rect>
        <rect id="Rectangle" fill="#FFFFFF" x="46.4472652" y="13.22" width="19" height="55"></rect>
        <path d="M24.4825,0.862305 L88.0496,0.862305 C89.5663,0.862305 90.9675,1.64827 91.7239,2.92338 L110.244,34.1419 C111.204,35.7609 110.919,37.8043 109.549,39.1171 L58.5729,87.9703 C56.9216,89.5528 54.2652,89.5528 52.6139,87.9703 L1.70699,39.1831 C0.305262,37.8398 0.0427812,35.7367 1.07354,34.1077 L20.8696,2.82322 C21.6406,1.60483 23.0087,0.862305 24.4825,0.862305 Z M79.8419,14.8003 L79.8419,23.5597 L61.7343,23.5597 L61.7343,29.6329 C74.4518,30.2819 83.9934,32.9475 84.0642,36.1425 L84.0642,42.803 C83.993,45.998 74.4518,48.6635 61.7343,49.3125 L61.7343,64.2168 L49.7105,64.2168 L49.7105,49.3125 C36.9929,48.6635 27.4513,45.998 27.3805,42.803 L27.3805,36.1425 C27.4517,32.9475 36.9929,30.2819 49.7105,29.6329 L49.7105,23.5597 L31.6028,23.5597 L31.6028,14.8003 L79.8419,14.8003 Z M55.7224,44.7367 C69.2943,44.7367 80.6382,42.4827 83.4143,39.4727 C81.0601,36.9202 72.5448,34.9114 61.7343,34.3597 L61.7343,40.7183 C59.7966,40.8172 57.7852,40.8693 55.7224,40.8693 C53.6595,40.8693 51.6481,40.8172 49.7105,40.7183 L49.7105,34.3597 C38.8999,34.9114 30.3846,36.9202 28.0304,39.4727 C30.8066,42.4827 42.1504,44.7367 55.7224,44.7367 Z" id="Shape" fill="#009393"></path>
    </g>
</svg>