<svg width="46" height="46" viewBox="0 0 120 120" fill="none" xmlns="http://www.w3.org/2000/svg">
    <g clip-path="url(#clip0_233_35104)">
        <circle cx="60" cy="60" r="60" fill="#50AF95"/>
        <path fill-rule="evenodd" clip-rule="evenodd" d="M66.3161 62.3282C65.9354 62.3569 63.9685 62.4748 59.5809 62.4748C56.0912 62.4748 53.6134 62.3697 52.7442 62.3282C39.2579 61.7322 29.1915 59.3737 29.1915 56.5499C29.1915 53.7261 39.2579 51.3707 52.7442 50.7652V59.9793C53.6261 60.043 56.1514 60.1928 59.6412 60.1928C63.8289 60.1928 65.9259 60.0175 66.3034 59.9825V50.7716C79.7612 51.3739 89.8053 53.7324 89.8053 56.5499C89.8053 59.3673 79.7643 61.7259 66.3034 62.325L66.3161 62.3282ZM66.3161 49.8186V41.5734H85.0973V29H33.963V41.5734H52.741V49.8154C37.4781 50.5198 26 53.5571 26 57.1969C26 60.8366 37.4781 63.8708 52.741 64.5784V91H66.3129V64.5688C81.5409 63.8644 93 60.8303 93 57.1937C93 53.5571 81.5505 50.523 66.3129 49.8154L66.3161 49.8186Z" fill="white"/>
    </g>
    <defs>
        <clipPath id="clip0_233_35104">
            <rect width="120" height="120" fill="white"/>
        </clipPath>
    </defs>
</svg>
