<?xml version="1.0" encoding="UTF-8" standalone="no"?><!DOCTYPE svg PUBLIC "-//W3C//DTD SVG 1.1//EN" "http://www.w3.org/Graphics/SVG/1.1/DTD/svg11.dtd"><svg width="100%" height="100%" viewBox="0 0 46 46" version="1.1" xmlns="http://www.w3.org/2000/svg" xmlns:xlink="http://www.w3.org/1999/xlink" xml:space="preserve" xmlns:serif="http://www.serif.com/" style="fill-rule:evenodd;clip-rule:evenodd;stroke-linejoin:round;stroke-miterlimit:2;"><g><circle cx="23" cy="23" r="23" style="fill:#d3b25b;"/><path d="M25.421,23.892c-0.146,0.011 -0.9,0.057 -2.582,0.057c-1.337,-0 -2.287,-0.041 -2.62,-0.057c-5.17,-0.228 -9.029,-1.132 -9.029,-2.215c0,-1.082 3.859,-1.985 9.029,-2.217l-0,3.532c0.338,0.024 1.306,0.082 2.643,0.082c1.606,-0 2.41,-0.067 2.554,-0.081l0,-3.531c5.159,0.231 9.009,1.135 9.009,2.215c0,1.08 -3.849,1.985 -9.009,2.214l0.005,0.001Zm0,-4.795l0,-3.161l7.2,0l-0,-4.819l-19.602,-0l0,4.819l7.198,0l0,3.16c-5.85,0.27 -10.25,1.434 -10.25,2.829c-0,1.396 4.4,2.559 10.25,2.83l0,10.128l5.203,0l-0,-10.132c5.837,-0.27 10.23,-1.433 10.23,-2.827c0,-1.394 -4.389,-2.557 -10.23,-2.828l0.001,0.001Z" style="fill:#fff;"/></g></svg>